M48
; DRILL file {KiCad (5.1.2-1)-1} date Friday, November 15, 2019 at 08:19:54 PM
; FORMAT={-:-/ absolute / metric / decimal}
; #@! TF.CreationDate,2019-11-15T20:19:54-06:00
; #@! TF.GenerationSoftware,Kicad,Pcbnew,(5.1.2-1)-1
; #@! TF.FileFunction,Plated,1,2,PTH
FMAT,2
METRIC
T1C0.400
T2C0.900
T3C1.000
T4C1.500
%
G90
G05
T1
X81.788Y-101.854
X81.788Y-109.474
X83.566Y-113.411
T2
X108.966Y-92.202
X108.966Y-94.742
X108.966Y-97.282
X108.966Y-99.822
X108.966Y-102.362
X108.966Y-104.902
X108.966Y-107.442
X108.966Y-109.982
X108.966Y-112.522
X108.966Y-115.062
X108.966Y-117.602
X108.966Y-120.142
X108.966Y-122.682
X108.966Y-125.222
X108.966Y-127.762
X108.966Y-130.302
X129.286Y-92.202
X129.286Y-94.742
X129.286Y-97.282
X129.286Y-99.822
X129.286Y-102.362
X129.286Y-104.902
X129.286Y-107.442
X129.286Y-109.982
X129.286Y-112.522
X129.286Y-115.062
X129.286Y-117.602
X129.286Y-120.142
T3
X89.0Y-96.774
X89.0Y-99.314
X89.0Y-101.854
X89.0Y-104.394
X89.0Y-106.934
X89.0Y-109.474
X89.0Y-112.014
T4
X115.19Y-154.46
X121.54Y-151.92
X153.19Y-135.46
X159.54Y-132.92
X153.19Y-97.46
X159.54Y-94.92
X96.19Y-97.46
X102.54Y-94.92
X115.19Y-116.46
X121.54Y-113.92
X115.19Y-97.46
X121.54Y-94.92
X134.19Y-154.46
X140.54Y-151.92
X96.19Y-135.46
X102.54Y-132.92
X96.19Y-116.46
X102.54Y-113.92
X134.19Y-116.46
X140.54Y-113.92
X96.19Y-154.46
X102.54Y-151.92
X134.19Y-97.46
X140.54Y-94.92
X115.19Y-135.46
X121.54Y-132.92
X153.19Y-154.46
X159.54Y-151.92
X134.19Y-135.46
X140.54Y-132.92
X153.19Y-116.46
X159.54Y-113.92
T0
M30
