G04 #@! TF.GenerationSoftware,KiCad,Pcbnew,(5.1.2-1)-1*
G04 #@! TF.CreationDate,2019-11-15T20:19:46-06:00*
G04 #@! TF.ProjectId,cherry-huzzah32,63686572-7279-42d6-9875-7a7a61683332,rev?*
G04 #@! TF.SameCoordinates,Original*
G04 #@! TF.FileFunction,Legend,Bot*
G04 #@! TF.FilePolarity,Positive*
%FSLAX46Y46*%
G04 Gerber Fmt 4.6, Leading zero omitted, Abs format (unit mm)*
G04 Created by KiCad (PCBNEW (5.1.2-1)-1) date 2019-11-15 20:19:46*
%MOMM*%
%LPD*%
G04 APERTURE LIST*
%ADD10C,0.120000*%
%ADD11C,0.138988*%
%ADD12C,0.150000*%
G04 APERTURE END LIST*
D10*
X84886000Y-95774000D02*
X83486000Y-95774000D01*
X82786000Y-96474000D02*
X82786000Y-97074000D01*
X83486000Y-97774000D02*
X84886000Y-97774000D01*
X85586000Y-97074000D02*
X85586000Y-96474000D01*
X85586000Y-96474000D02*
G75*
G03X84886000Y-95774000I-700000J0D01*
G01*
X84886000Y-97774000D02*
G75*
G03X85586000Y-97074000I0J700000D01*
G01*
X82786000Y-97074000D02*
G75*
G03X83486000Y-97774000I700000J0D01*
G01*
X83486000Y-95774000D02*
G75*
G03X82786000Y-96474000I0J-700000D01*
G01*
X84886000Y-98314000D02*
X83486000Y-98314000D01*
X82786000Y-99014000D02*
X82786000Y-99614000D01*
X83486000Y-100314000D02*
X84886000Y-100314000D01*
X85586000Y-99614000D02*
X85586000Y-99014000D01*
X85586000Y-99014000D02*
G75*
G03X84886000Y-98314000I-700000J0D01*
G01*
X84886000Y-100314000D02*
G75*
G03X85586000Y-99614000I0J700000D01*
G01*
X82786000Y-99614000D02*
G75*
G03X83486000Y-100314000I700000J0D01*
G01*
X83486000Y-98314000D02*
G75*
G03X82786000Y-99014000I0J-700000D01*
G01*
X84886000Y-100854000D02*
X83486000Y-100854000D01*
X82786000Y-101554000D02*
X82786000Y-102154000D01*
X83486000Y-102854000D02*
X84886000Y-102854000D01*
X85586000Y-102154000D02*
X85586000Y-101554000D01*
X85586000Y-101554000D02*
G75*
G03X84886000Y-100854000I-700000J0D01*
G01*
X84886000Y-102854000D02*
G75*
G03X85586000Y-102154000I0J700000D01*
G01*
X82786000Y-102154000D02*
G75*
G03X83486000Y-102854000I700000J0D01*
G01*
X83486000Y-100854000D02*
G75*
G03X82786000Y-101554000I0J-700000D01*
G01*
X84886000Y-103394000D02*
X83486000Y-103394000D01*
X82786000Y-104094000D02*
X82786000Y-104694000D01*
X83486000Y-105394000D02*
X84886000Y-105394000D01*
X85586000Y-104694000D02*
X85586000Y-104094000D01*
X85586000Y-104094000D02*
G75*
G03X84886000Y-103394000I-700000J0D01*
G01*
X84886000Y-105394000D02*
G75*
G03X85586000Y-104694000I0J700000D01*
G01*
X82786000Y-104694000D02*
G75*
G03X83486000Y-105394000I700000J0D01*
G01*
X83486000Y-103394000D02*
G75*
G03X82786000Y-104094000I0J-700000D01*
G01*
X84886000Y-105934000D02*
X83486000Y-105934000D01*
X82786000Y-106634000D02*
X82786000Y-107234000D01*
X83486000Y-107934000D02*
X84886000Y-107934000D01*
X85586000Y-107234000D02*
X85586000Y-106634000D01*
X85586000Y-106634000D02*
G75*
G03X84886000Y-105934000I-700000J0D01*
G01*
X84886000Y-107934000D02*
G75*
G03X85586000Y-107234000I0J700000D01*
G01*
X82786000Y-107234000D02*
G75*
G03X83486000Y-107934000I700000J0D01*
G01*
X83486000Y-105934000D02*
G75*
G03X82786000Y-106634000I0J-700000D01*
G01*
X84886000Y-108474000D02*
X83486000Y-108474000D01*
X82786000Y-109174000D02*
X82786000Y-109774000D01*
X83486000Y-110474000D02*
X84886000Y-110474000D01*
X85586000Y-109774000D02*
X85586000Y-109174000D01*
X85586000Y-109174000D02*
G75*
G03X84886000Y-108474000I-700000J0D01*
G01*
X84886000Y-110474000D02*
G75*
G03X85586000Y-109774000I0J700000D01*
G01*
X82786000Y-109774000D02*
G75*
G03X83486000Y-110474000I700000J0D01*
G01*
X83486000Y-108474000D02*
G75*
G03X82786000Y-109174000I0J-700000D01*
G01*
X84886000Y-111014000D02*
X83486000Y-111014000D01*
X82786000Y-111714000D02*
X82786000Y-112314000D01*
X83486000Y-113014000D02*
X84886000Y-113014000D01*
X85586000Y-112314000D02*
X85586000Y-111714000D01*
X85586000Y-111714000D02*
G75*
G03X84886000Y-111014000I-700000J0D01*
G01*
X84886000Y-113014000D02*
G75*
G03X85586000Y-112314000I0J700000D01*
G01*
X82786000Y-112314000D02*
G75*
G03X83486000Y-113014000I700000J0D01*
G01*
X83486000Y-111014000D02*
G75*
G03X82786000Y-111714000I0J-700000D01*
G01*
D11*
X130623230Y-113817185D02*
X131248312Y-113817185D01*
X131321851Y-113853954D01*
X131358620Y-113890724D01*
X131395390Y-113964263D01*
X131395390Y-114111341D01*
X131358620Y-114184880D01*
X131321851Y-114221650D01*
X131248312Y-114258419D01*
X130623230Y-114258419D01*
X131395390Y-115030579D02*
X131395390Y-114589345D01*
X131395390Y-114809962D02*
X130623230Y-114809962D01*
X130733539Y-114736423D01*
X130807078Y-114662884D01*
X130843847Y-114589345D01*
D12*
X81859333Y-96226380D02*
X81859333Y-96940666D01*
X81906952Y-97083523D01*
X82002190Y-97178761D01*
X82145047Y-97226380D01*
X82240285Y-97226380D01*
X81383142Y-97226380D02*
X81383142Y-96226380D01*
X81002190Y-96226380D01*
X80906952Y-96274000D01*
X80859333Y-96321619D01*
X80811714Y-96416857D01*
X80811714Y-96559714D01*
X80859333Y-96654952D01*
X80906952Y-96702571D01*
X81002190Y-96750190D01*
X81383142Y-96750190D01*
X80478380Y-96226380D02*
X79811714Y-96226380D01*
X80240285Y-97226380D01*
X81859333Y-98766380D02*
X81859333Y-99480666D01*
X81906952Y-99623523D01*
X82002190Y-99718761D01*
X82145047Y-99766380D01*
X82240285Y-99766380D01*
X81383142Y-99766380D02*
X81383142Y-98766380D01*
X81002190Y-98766380D01*
X80906952Y-98814000D01*
X80859333Y-98861619D01*
X80811714Y-98956857D01*
X80811714Y-99099714D01*
X80859333Y-99194952D01*
X80906952Y-99242571D01*
X81002190Y-99290190D01*
X81383142Y-99290190D01*
X79954571Y-98766380D02*
X80145047Y-98766380D01*
X80240285Y-98814000D01*
X80287904Y-98861619D01*
X80383142Y-99004476D01*
X80430761Y-99194952D01*
X80430761Y-99575904D01*
X80383142Y-99671142D01*
X80335523Y-99718761D01*
X80240285Y-99766380D01*
X80049809Y-99766380D01*
X79954571Y-99718761D01*
X79906952Y-99671142D01*
X79859333Y-99575904D01*
X79859333Y-99337809D01*
X79906952Y-99242571D01*
X79954571Y-99194952D01*
X80049809Y-99147333D01*
X80240285Y-99147333D01*
X80335523Y-99194952D01*
X80383142Y-99242571D01*
X80430761Y-99337809D01*
X81859333Y-101306380D02*
X81859333Y-102020666D01*
X81906952Y-102163523D01*
X82002190Y-102258761D01*
X82145047Y-102306380D01*
X82240285Y-102306380D01*
X81383142Y-102306380D02*
X81383142Y-101306380D01*
X81002190Y-101306380D01*
X80906952Y-101354000D01*
X80859333Y-101401619D01*
X80811714Y-101496857D01*
X80811714Y-101639714D01*
X80859333Y-101734952D01*
X80906952Y-101782571D01*
X81002190Y-101830190D01*
X81383142Y-101830190D01*
X79906952Y-101306380D02*
X80383142Y-101306380D01*
X80430761Y-101782571D01*
X80383142Y-101734952D01*
X80287904Y-101687333D01*
X80049809Y-101687333D01*
X79954571Y-101734952D01*
X79906952Y-101782571D01*
X79859333Y-101877809D01*
X79859333Y-102115904D01*
X79906952Y-102211142D01*
X79954571Y-102258761D01*
X80049809Y-102306380D01*
X80287904Y-102306380D01*
X80383142Y-102258761D01*
X80430761Y-102211142D01*
X81859333Y-103846380D02*
X81859333Y-104560666D01*
X81906952Y-104703523D01*
X82002190Y-104798761D01*
X82145047Y-104846380D01*
X82240285Y-104846380D01*
X81383142Y-104846380D02*
X81383142Y-103846380D01*
X81002190Y-103846380D01*
X80906952Y-103894000D01*
X80859333Y-103941619D01*
X80811714Y-104036857D01*
X80811714Y-104179714D01*
X80859333Y-104274952D01*
X80906952Y-104322571D01*
X81002190Y-104370190D01*
X81383142Y-104370190D01*
X79954571Y-104179714D02*
X79954571Y-104846380D01*
X80192666Y-103798761D02*
X80430761Y-104513047D01*
X79811714Y-104513047D01*
X81859333Y-106386380D02*
X81859333Y-107100666D01*
X81906952Y-107243523D01*
X82002190Y-107338761D01*
X82145047Y-107386380D01*
X82240285Y-107386380D01*
X81383142Y-107386380D02*
X81383142Y-106386380D01*
X81002190Y-106386380D01*
X80906952Y-106434000D01*
X80859333Y-106481619D01*
X80811714Y-106576857D01*
X80811714Y-106719714D01*
X80859333Y-106814952D01*
X80906952Y-106862571D01*
X81002190Y-106910190D01*
X81383142Y-106910190D01*
X80478380Y-106386380D02*
X79859333Y-106386380D01*
X80192666Y-106767333D01*
X80049809Y-106767333D01*
X79954571Y-106814952D01*
X79906952Y-106862571D01*
X79859333Y-106957809D01*
X79859333Y-107195904D01*
X79906952Y-107291142D01*
X79954571Y-107338761D01*
X80049809Y-107386380D01*
X80335523Y-107386380D01*
X80430761Y-107338761D01*
X80478380Y-107291142D01*
X81859333Y-108926380D02*
X81859333Y-109640666D01*
X81906952Y-109783523D01*
X82002190Y-109878761D01*
X82145047Y-109926380D01*
X82240285Y-109926380D01*
X81383142Y-109926380D02*
X81383142Y-108926380D01*
X81002190Y-108926380D01*
X80906952Y-108974000D01*
X80859333Y-109021619D01*
X80811714Y-109116857D01*
X80811714Y-109259714D01*
X80859333Y-109354952D01*
X80906952Y-109402571D01*
X81002190Y-109450190D01*
X81383142Y-109450190D01*
X80430761Y-109021619D02*
X80383142Y-108974000D01*
X80287904Y-108926380D01*
X80049809Y-108926380D01*
X79954571Y-108974000D01*
X79906952Y-109021619D01*
X79859333Y-109116857D01*
X79859333Y-109212095D01*
X79906952Y-109354952D01*
X80478380Y-109926380D01*
X79859333Y-109926380D01*
X81859333Y-111466380D02*
X81859333Y-112180666D01*
X81906952Y-112323523D01*
X82002190Y-112418761D01*
X82145047Y-112466380D01*
X82240285Y-112466380D01*
X81383142Y-112466380D02*
X81383142Y-111466380D01*
X81002190Y-111466380D01*
X80906952Y-111514000D01*
X80859333Y-111561619D01*
X80811714Y-111656857D01*
X80811714Y-111799714D01*
X80859333Y-111894952D01*
X80906952Y-111942571D01*
X81002190Y-111990190D01*
X81383142Y-111990190D01*
X79859333Y-112466380D02*
X80430761Y-112466380D01*
X80145047Y-112466380D02*
X80145047Y-111466380D01*
X80240285Y-111609238D01*
X80335523Y-111704476D01*
X80430761Y-111752095D01*
M02*
