G04 #@! TF.GenerationSoftware,KiCad,Pcbnew,(5.1.2-1)-1*
G04 #@! TF.CreationDate,2019-11-15T20:19:46-06:00*
G04 #@! TF.ProjectId,cherry-huzzah32,63686572-7279-42d6-9875-7a7a61683332,rev?*
G04 #@! TF.SameCoordinates,Original*
G04 #@! TF.FileFunction,Soldermask,Bot*
G04 #@! TF.FilePolarity,Negative*
%FSLAX46Y46*%
G04 Gerber Fmt 4.6, Leading zero omitted, Abs format (unit mm)*
G04 Created by KiCad (PCBNEW (5.1.2-1)-1) date 2019-11-15 20:19:46*
%MOMM*%
%LPD*%
G04 APERTURE LIST*
%ADD10C,0.100000*%
G04 APERTURE END LIST*
D10*
G36*
X157598254Y-155027818D02*
G01*
X157971511Y-155182426D01*
X157971513Y-155182427D01*
X158307436Y-155406884D01*
X158593116Y-155692564D01*
X158817574Y-156028489D01*
X158972182Y-156401746D01*
X159051000Y-156797993D01*
X159051000Y-157202007D01*
X158972182Y-157598254D01*
X158817574Y-157971511D01*
X158817573Y-157971513D01*
X158593116Y-158307436D01*
X158307436Y-158593116D01*
X157971513Y-158817573D01*
X157971512Y-158817574D01*
X157971511Y-158817574D01*
X157598254Y-158972182D01*
X157202007Y-159051000D01*
X156797993Y-159051000D01*
X156401746Y-158972182D01*
X156028489Y-158817574D01*
X156028488Y-158817574D01*
X156028487Y-158817573D01*
X155692564Y-158593116D01*
X155406884Y-158307436D01*
X155182427Y-157971513D01*
X155182426Y-157971511D01*
X155027818Y-157598254D01*
X154949000Y-157202007D01*
X154949000Y-156797993D01*
X155027818Y-156401746D01*
X155182426Y-156028489D01*
X155406884Y-155692564D01*
X155692564Y-155406884D01*
X156028487Y-155182427D01*
X156028489Y-155182426D01*
X156401746Y-155027818D01*
X156797993Y-154949000D01*
X157202007Y-154949000D01*
X157598254Y-155027818D01*
X157598254Y-155027818D01*
G37*
G36*
X138598254Y-155027818D02*
G01*
X138971511Y-155182426D01*
X138971513Y-155182427D01*
X139307436Y-155406884D01*
X139593116Y-155692564D01*
X139817574Y-156028489D01*
X139972182Y-156401746D01*
X140051000Y-156797993D01*
X140051000Y-157202007D01*
X139972182Y-157598254D01*
X139817574Y-157971511D01*
X139817573Y-157971513D01*
X139593116Y-158307436D01*
X139307436Y-158593116D01*
X138971513Y-158817573D01*
X138971512Y-158817574D01*
X138971511Y-158817574D01*
X138598254Y-158972182D01*
X138202007Y-159051000D01*
X137797993Y-159051000D01*
X137401746Y-158972182D01*
X137028489Y-158817574D01*
X137028488Y-158817574D01*
X137028487Y-158817573D01*
X136692564Y-158593116D01*
X136406884Y-158307436D01*
X136182427Y-157971513D01*
X136182426Y-157971511D01*
X136027818Y-157598254D01*
X135949000Y-157202007D01*
X135949000Y-156797993D01*
X136027818Y-156401746D01*
X136182426Y-156028489D01*
X136406884Y-155692564D01*
X136692564Y-155406884D01*
X137028487Y-155182427D01*
X137028489Y-155182426D01*
X137401746Y-155027818D01*
X137797993Y-154949000D01*
X138202007Y-154949000D01*
X138598254Y-155027818D01*
X138598254Y-155027818D01*
G37*
G36*
X119598254Y-155027818D02*
G01*
X119971511Y-155182426D01*
X119971513Y-155182427D01*
X120307436Y-155406884D01*
X120593116Y-155692564D01*
X120817574Y-156028489D01*
X120972182Y-156401746D01*
X121051000Y-156797993D01*
X121051000Y-157202007D01*
X120972182Y-157598254D01*
X120817574Y-157971511D01*
X120817573Y-157971513D01*
X120593116Y-158307436D01*
X120307436Y-158593116D01*
X119971513Y-158817573D01*
X119971512Y-158817574D01*
X119971511Y-158817574D01*
X119598254Y-158972182D01*
X119202007Y-159051000D01*
X118797993Y-159051000D01*
X118401746Y-158972182D01*
X118028489Y-158817574D01*
X118028488Y-158817574D01*
X118028487Y-158817573D01*
X117692564Y-158593116D01*
X117406884Y-158307436D01*
X117182427Y-157971513D01*
X117182426Y-157971511D01*
X117027818Y-157598254D01*
X116949000Y-157202007D01*
X116949000Y-156797993D01*
X117027818Y-156401746D01*
X117182426Y-156028489D01*
X117406884Y-155692564D01*
X117692564Y-155406884D01*
X118028487Y-155182427D01*
X118028489Y-155182426D01*
X118401746Y-155027818D01*
X118797993Y-154949000D01*
X119202007Y-154949000D01*
X119598254Y-155027818D01*
X119598254Y-155027818D01*
G37*
G36*
X100598254Y-155027818D02*
G01*
X100971511Y-155182426D01*
X100971513Y-155182427D01*
X101307436Y-155406884D01*
X101593116Y-155692564D01*
X101817574Y-156028489D01*
X101972182Y-156401746D01*
X102051000Y-156797993D01*
X102051000Y-157202007D01*
X101972182Y-157598254D01*
X101817574Y-157971511D01*
X101817573Y-157971513D01*
X101593116Y-158307436D01*
X101307436Y-158593116D01*
X100971513Y-158817573D01*
X100971512Y-158817574D01*
X100971511Y-158817574D01*
X100598254Y-158972182D01*
X100202007Y-159051000D01*
X99797993Y-159051000D01*
X99401746Y-158972182D01*
X99028489Y-158817574D01*
X99028488Y-158817574D01*
X99028487Y-158817573D01*
X98692564Y-158593116D01*
X98406884Y-158307436D01*
X98182427Y-157971513D01*
X98182426Y-157971511D01*
X98027818Y-157598254D01*
X97949000Y-157202007D01*
X97949000Y-156797993D01*
X98027818Y-156401746D01*
X98182426Y-156028489D01*
X98406884Y-155692564D01*
X98692564Y-155406884D01*
X99028487Y-155182427D01*
X99028489Y-155182426D01*
X99401746Y-155027818D01*
X99797993Y-154949000D01*
X100202007Y-154949000D01*
X100598254Y-155027818D01*
X100598254Y-155027818D01*
G37*
G36*
X124193512Y-156103927D02*
G01*
X124342812Y-156133624D01*
X124506784Y-156201544D01*
X124654354Y-156300147D01*
X124779853Y-156425646D01*
X124878456Y-156573216D01*
X124946376Y-156737188D01*
X124981000Y-156911259D01*
X124981000Y-157088741D01*
X124946376Y-157262812D01*
X124878456Y-157426784D01*
X124779853Y-157574354D01*
X124654354Y-157699853D01*
X124506784Y-157798456D01*
X124342812Y-157866376D01*
X124193512Y-157896073D01*
X124168742Y-157901000D01*
X123991258Y-157901000D01*
X123966488Y-157896073D01*
X123817188Y-157866376D01*
X123653216Y-157798456D01*
X123505646Y-157699853D01*
X123380147Y-157574354D01*
X123281544Y-157426784D01*
X123213624Y-157262812D01*
X123179000Y-157088741D01*
X123179000Y-156911259D01*
X123213624Y-156737188D01*
X123281544Y-156573216D01*
X123380147Y-156425646D01*
X123505646Y-156300147D01*
X123653216Y-156201544D01*
X123817188Y-156133624D01*
X123966488Y-156103927D01*
X123991258Y-156099000D01*
X124168742Y-156099000D01*
X124193512Y-156103927D01*
X124193512Y-156103927D01*
G37*
G36*
X114033512Y-156103927D02*
G01*
X114182812Y-156133624D01*
X114346784Y-156201544D01*
X114494354Y-156300147D01*
X114619853Y-156425646D01*
X114718456Y-156573216D01*
X114786376Y-156737188D01*
X114821000Y-156911259D01*
X114821000Y-157088741D01*
X114786376Y-157262812D01*
X114718456Y-157426784D01*
X114619853Y-157574354D01*
X114494354Y-157699853D01*
X114346784Y-157798456D01*
X114182812Y-157866376D01*
X114033512Y-157896073D01*
X114008742Y-157901000D01*
X113831258Y-157901000D01*
X113806488Y-157896073D01*
X113657188Y-157866376D01*
X113493216Y-157798456D01*
X113345646Y-157699853D01*
X113220147Y-157574354D01*
X113121544Y-157426784D01*
X113053624Y-157262812D01*
X113019000Y-157088741D01*
X113019000Y-156911259D01*
X113053624Y-156737188D01*
X113121544Y-156573216D01*
X113220147Y-156425646D01*
X113345646Y-156300147D01*
X113493216Y-156201544D01*
X113657188Y-156133624D01*
X113806488Y-156103927D01*
X113831258Y-156099000D01*
X114008742Y-156099000D01*
X114033512Y-156103927D01*
X114033512Y-156103927D01*
G37*
G36*
X105193512Y-156103927D02*
G01*
X105342812Y-156133624D01*
X105506784Y-156201544D01*
X105654354Y-156300147D01*
X105779853Y-156425646D01*
X105878456Y-156573216D01*
X105946376Y-156737188D01*
X105981000Y-156911259D01*
X105981000Y-157088741D01*
X105946376Y-157262812D01*
X105878456Y-157426784D01*
X105779853Y-157574354D01*
X105654354Y-157699853D01*
X105506784Y-157798456D01*
X105342812Y-157866376D01*
X105193512Y-157896073D01*
X105168742Y-157901000D01*
X104991258Y-157901000D01*
X104966488Y-157896073D01*
X104817188Y-157866376D01*
X104653216Y-157798456D01*
X104505646Y-157699853D01*
X104380147Y-157574354D01*
X104281544Y-157426784D01*
X104213624Y-157262812D01*
X104179000Y-157088741D01*
X104179000Y-156911259D01*
X104213624Y-156737188D01*
X104281544Y-156573216D01*
X104380147Y-156425646D01*
X104505646Y-156300147D01*
X104653216Y-156201544D01*
X104817188Y-156133624D01*
X104966488Y-156103927D01*
X104991258Y-156099000D01*
X105168742Y-156099000D01*
X105193512Y-156103927D01*
X105193512Y-156103927D01*
G37*
G36*
X95033512Y-156103927D02*
G01*
X95182812Y-156133624D01*
X95346784Y-156201544D01*
X95494354Y-156300147D01*
X95619853Y-156425646D01*
X95718456Y-156573216D01*
X95786376Y-156737188D01*
X95821000Y-156911259D01*
X95821000Y-157088741D01*
X95786376Y-157262812D01*
X95718456Y-157426784D01*
X95619853Y-157574354D01*
X95494354Y-157699853D01*
X95346784Y-157798456D01*
X95182812Y-157866376D01*
X95033512Y-157896073D01*
X95008742Y-157901000D01*
X94831258Y-157901000D01*
X94806488Y-157896073D01*
X94657188Y-157866376D01*
X94493216Y-157798456D01*
X94345646Y-157699853D01*
X94220147Y-157574354D01*
X94121544Y-157426784D01*
X94053624Y-157262812D01*
X94019000Y-157088741D01*
X94019000Y-156911259D01*
X94053624Y-156737188D01*
X94121544Y-156573216D01*
X94220147Y-156425646D01*
X94345646Y-156300147D01*
X94493216Y-156201544D01*
X94657188Y-156133624D01*
X94806488Y-156103927D01*
X94831258Y-156099000D01*
X95008742Y-156099000D01*
X95033512Y-156103927D01*
X95033512Y-156103927D01*
G37*
G36*
X152033512Y-156103927D02*
G01*
X152182812Y-156133624D01*
X152346784Y-156201544D01*
X152494354Y-156300147D01*
X152619853Y-156425646D01*
X152718456Y-156573216D01*
X152786376Y-156737188D01*
X152821000Y-156911259D01*
X152821000Y-157088741D01*
X152786376Y-157262812D01*
X152718456Y-157426784D01*
X152619853Y-157574354D01*
X152494354Y-157699853D01*
X152346784Y-157798456D01*
X152182812Y-157866376D01*
X152033512Y-157896073D01*
X152008742Y-157901000D01*
X151831258Y-157901000D01*
X151806488Y-157896073D01*
X151657188Y-157866376D01*
X151493216Y-157798456D01*
X151345646Y-157699853D01*
X151220147Y-157574354D01*
X151121544Y-157426784D01*
X151053624Y-157262812D01*
X151019000Y-157088741D01*
X151019000Y-156911259D01*
X151053624Y-156737188D01*
X151121544Y-156573216D01*
X151220147Y-156425646D01*
X151345646Y-156300147D01*
X151493216Y-156201544D01*
X151657188Y-156133624D01*
X151806488Y-156103927D01*
X151831258Y-156099000D01*
X152008742Y-156099000D01*
X152033512Y-156103927D01*
X152033512Y-156103927D01*
G37*
G36*
X162193512Y-156103927D02*
G01*
X162342812Y-156133624D01*
X162506784Y-156201544D01*
X162654354Y-156300147D01*
X162779853Y-156425646D01*
X162878456Y-156573216D01*
X162946376Y-156737188D01*
X162981000Y-156911259D01*
X162981000Y-157088741D01*
X162946376Y-157262812D01*
X162878456Y-157426784D01*
X162779853Y-157574354D01*
X162654354Y-157699853D01*
X162506784Y-157798456D01*
X162342812Y-157866376D01*
X162193512Y-157896073D01*
X162168742Y-157901000D01*
X161991258Y-157901000D01*
X161966488Y-157896073D01*
X161817188Y-157866376D01*
X161653216Y-157798456D01*
X161505646Y-157699853D01*
X161380147Y-157574354D01*
X161281544Y-157426784D01*
X161213624Y-157262812D01*
X161179000Y-157088741D01*
X161179000Y-156911259D01*
X161213624Y-156737188D01*
X161281544Y-156573216D01*
X161380147Y-156425646D01*
X161505646Y-156300147D01*
X161653216Y-156201544D01*
X161817188Y-156133624D01*
X161966488Y-156103927D01*
X161991258Y-156099000D01*
X162168742Y-156099000D01*
X162193512Y-156103927D01*
X162193512Y-156103927D01*
G37*
G36*
X143193512Y-156103927D02*
G01*
X143342812Y-156133624D01*
X143506784Y-156201544D01*
X143654354Y-156300147D01*
X143779853Y-156425646D01*
X143878456Y-156573216D01*
X143946376Y-156737188D01*
X143981000Y-156911259D01*
X143981000Y-157088741D01*
X143946376Y-157262812D01*
X143878456Y-157426784D01*
X143779853Y-157574354D01*
X143654354Y-157699853D01*
X143506784Y-157798456D01*
X143342812Y-157866376D01*
X143193512Y-157896073D01*
X143168742Y-157901000D01*
X142991258Y-157901000D01*
X142966488Y-157896073D01*
X142817188Y-157866376D01*
X142653216Y-157798456D01*
X142505646Y-157699853D01*
X142380147Y-157574354D01*
X142281544Y-157426784D01*
X142213624Y-157262812D01*
X142179000Y-157088741D01*
X142179000Y-156911259D01*
X142213624Y-156737188D01*
X142281544Y-156573216D01*
X142380147Y-156425646D01*
X142505646Y-156300147D01*
X142653216Y-156201544D01*
X142817188Y-156133624D01*
X142966488Y-156103927D01*
X142991258Y-156099000D01*
X143168742Y-156099000D01*
X143193512Y-156103927D01*
X143193512Y-156103927D01*
G37*
G36*
X133033512Y-156103927D02*
G01*
X133182812Y-156133624D01*
X133346784Y-156201544D01*
X133494354Y-156300147D01*
X133619853Y-156425646D01*
X133718456Y-156573216D01*
X133786376Y-156737188D01*
X133821000Y-156911259D01*
X133821000Y-157088741D01*
X133786376Y-157262812D01*
X133718456Y-157426784D01*
X133619853Y-157574354D01*
X133494354Y-157699853D01*
X133346784Y-157798456D01*
X133182812Y-157866376D01*
X133033512Y-157896073D01*
X133008742Y-157901000D01*
X132831258Y-157901000D01*
X132806488Y-157896073D01*
X132657188Y-157866376D01*
X132493216Y-157798456D01*
X132345646Y-157699853D01*
X132220147Y-157574354D01*
X132121544Y-157426784D01*
X132053624Y-157262812D01*
X132019000Y-157088741D01*
X132019000Y-156911259D01*
X132053624Y-156737188D01*
X132121544Y-156573216D01*
X132220147Y-156425646D01*
X132345646Y-156300147D01*
X132493216Y-156201544D01*
X132657188Y-156133624D01*
X132806488Y-156103927D01*
X132831258Y-156099000D01*
X133008742Y-156099000D01*
X133033512Y-156103927D01*
X133033512Y-156103927D01*
G37*
G36*
X153414549Y-153331116D02*
G01*
X153525734Y-153353232D01*
X153735203Y-153439997D01*
X153923720Y-153565960D01*
X154084040Y-153726280D01*
X154210003Y-153914797D01*
X154296768Y-154124266D01*
X154341000Y-154346636D01*
X154341000Y-154573364D01*
X154296768Y-154795734D01*
X154210003Y-155005203D01*
X154084040Y-155193720D01*
X153923720Y-155354040D01*
X153735203Y-155480003D01*
X153525734Y-155566768D01*
X153414549Y-155588884D01*
X153303365Y-155611000D01*
X153076635Y-155611000D01*
X152965451Y-155588884D01*
X152854266Y-155566768D01*
X152644797Y-155480003D01*
X152456280Y-155354040D01*
X152295960Y-155193720D01*
X152169997Y-155005203D01*
X152083232Y-154795734D01*
X152039000Y-154573364D01*
X152039000Y-154346636D01*
X152083232Y-154124266D01*
X152169997Y-153914797D01*
X152295960Y-153726280D01*
X152456280Y-153565960D01*
X152644797Y-153439997D01*
X152854266Y-153353232D01*
X152965451Y-153331116D01*
X153076635Y-153309000D01*
X153303365Y-153309000D01*
X153414549Y-153331116D01*
X153414549Y-153331116D01*
G37*
G36*
X134414549Y-153331116D02*
G01*
X134525734Y-153353232D01*
X134735203Y-153439997D01*
X134923720Y-153565960D01*
X135084040Y-153726280D01*
X135210003Y-153914797D01*
X135296768Y-154124266D01*
X135341000Y-154346636D01*
X135341000Y-154573364D01*
X135296768Y-154795734D01*
X135210003Y-155005203D01*
X135084040Y-155193720D01*
X134923720Y-155354040D01*
X134735203Y-155480003D01*
X134525734Y-155566768D01*
X134414549Y-155588884D01*
X134303365Y-155611000D01*
X134076635Y-155611000D01*
X133965451Y-155588884D01*
X133854266Y-155566768D01*
X133644797Y-155480003D01*
X133456280Y-155354040D01*
X133295960Y-155193720D01*
X133169997Y-155005203D01*
X133083232Y-154795734D01*
X133039000Y-154573364D01*
X133039000Y-154346636D01*
X133083232Y-154124266D01*
X133169997Y-153914797D01*
X133295960Y-153726280D01*
X133456280Y-153565960D01*
X133644797Y-153439997D01*
X133854266Y-153353232D01*
X133965451Y-153331116D01*
X134076635Y-153309000D01*
X134303365Y-153309000D01*
X134414549Y-153331116D01*
X134414549Y-153331116D01*
G37*
G36*
X115414549Y-153331116D02*
G01*
X115525734Y-153353232D01*
X115735203Y-153439997D01*
X115923720Y-153565960D01*
X116084040Y-153726280D01*
X116210003Y-153914797D01*
X116296768Y-154124266D01*
X116341000Y-154346636D01*
X116341000Y-154573364D01*
X116296768Y-154795734D01*
X116210003Y-155005203D01*
X116084040Y-155193720D01*
X115923720Y-155354040D01*
X115735203Y-155480003D01*
X115525734Y-155566768D01*
X115414549Y-155588884D01*
X115303365Y-155611000D01*
X115076635Y-155611000D01*
X114965451Y-155588884D01*
X114854266Y-155566768D01*
X114644797Y-155480003D01*
X114456280Y-155354040D01*
X114295960Y-155193720D01*
X114169997Y-155005203D01*
X114083232Y-154795734D01*
X114039000Y-154573364D01*
X114039000Y-154346636D01*
X114083232Y-154124266D01*
X114169997Y-153914797D01*
X114295960Y-153726280D01*
X114456280Y-153565960D01*
X114644797Y-153439997D01*
X114854266Y-153353232D01*
X114965451Y-153331116D01*
X115076635Y-153309000D01*
X115303365Y-153309000D01*
X115414549Y-153331116D01*
X115414549Y-153331116D01*
G37*
G36*
X96414549Y-153331116D02*
G01*
X96525734Y-153353232D01*
X96735203Y-153439997D01*
X96923720Y-153565960D01*
X97084040Y-153726280D01*
X97210003Y-153914797D01*
X97296768Y-154124266D01*
X97341000Y-154346636D01*
X97341000Y-154573364D01*
X97296768Y-154795734D01*
X97210003Y-155005203D01*
X97084040Y-155193720D01*
X96923720Y-155354040D01*
X96735203Y-155480003D01*
X96525734Y-155566768D01*
X96414549Y-155588884D01*
X96303365Y-155611000D01*
X96076635Y-155611000D01*
X95965451Y-155588884D01*
X95854266Y-155566768D01*
X95644797Y-155480003D01*
X95456280Y-155354040D01*
X95295960Y-155193720D01*
X95169997Y-155005203D01*
X95083232Y-154795734D01*
X95039000Y-154573364D01*
X95039000Y-154346636D01*
X95083232Y-154124266D01*
X95169997Y-153914797D01*
X95295960Y-153726280D01*
X95456280Y-153565960D01*
X95644797Y-153439997D01*
X95854266Y-153353232D01*
X95965451Y-153331116D01*
X96076635Y-153309000D01*
X96303365Y-153309000D01*
X96414549Y-153331116D01*
X96414549Y-153331116D01*
G37*
G36*
X102764549Y-150791116D02*
G01*
X102875734Y-150813232D01*
X103085203Y-150899997D01*
X103273720Y-151025960D01*
X103434040Y-151186280D01*
X103560003Y-151374797D01*
X103646768Y-151584266D01*
X103691000Y-151806636D01*
X103691000Y-152033364D01*
X103646768Y-152255734D01*
X103560003Y-152465203D01*
X103434040Y-152653720D01*
X103273720Y-152814040D01*
X103085203Y-152940003D01*
X102875734Y-153026768D01*
X102764549Y-153048884D01*
X102653365Y-153071000D01*
X102426635Y-153071000D01*
X102315451Y-153048884D01*
X102204266Y-153026768D01*
X101994797Y-152940003D01*
X101806280Y-152814040D01*
X101645960Y-152653720D01*
X101519997Y-152465203D01*
X101433232Y-152255734D01*
X101389000Y-152033364D01*
X101389000Y-151806636D01*
X101433232Y-151584266D01*
X101519997Y-151374797D01*
X101645960Y-151186280D01*
X101806280Y-151025960D01*
X101994797Y-150899997D01*
X102204266Y-150813232D01*
X102315451Y-150791116D01*
X102426635Y-150769000D01*
X102653365Y-150769000D01*
X102764549Y-150791116D01*
X102764549Y-150791116D01*
G37*
G36*
X121764549Y-150791116D02*
G01*
X121875734Y-150813232D01*
X122085203Y-150899997D01*
X122273720Y-151025960D01*
X122434040Y-151186280D01*
X122560003Y-151374797D01*
X122646768Y-151584266D01*
X122691000Y-151806636D01*
X122691000Y-152033364D01*
X122646768Y-152255734D01*
X122560003Y-152465203D01*
X122434040Y-152653720D01*
X122273720Y-152814040D01*
X122085203Y-152940003D01*
X121875734Y-153026768D01*
X121764549Y-153048884D01*
X121653365Y-153071000D01*
X121426635Y-153071000D01*
X121315451Y-153048884D01*
X121204266Y-153026768D01*
X120994797Y-152940003D01*
X120806280Y-152814040D01*
X120645960Y-152653720D01*
X120519997Y-152465203D01*
X120433232Y-152255734D01*
X120389000Y-152033364D01*
X120389000Y-151806636D01*
X120433232Y-151584266D01*
X120519997Y-151374797D01*
X120645960Y-151186280D01*
X120806280Y-151025960D01*
X120994797Y-150899997D01*
X121204266Y-150813232D01*
X121315451Y-150791116D01*
X121426635Y-150769000D01*
X121653365Y-150769000D01*
X121764549Y-150791116D01*
X121764549Y-150791116D01*
G37*
G36*
X140764549Y-150791116D02*
G01*
X140875734Y-150813232D01*
X141085203Y-150899997D01*
X141273720Y-151025960D01*
X141434040Y-151186280D01*
X141560003Y-151374797D01*
X141646768Y-151584266D01*
X141691000Y-151806636D01*
X141691000Y-152033364D01*
X141646768Y-152255734D01*
X141560003Y-152465203D01*
X141434040Y-152653720D01*
X141273720Y-152814040D01*
X141085203Y-152940003D01*
X140875734Y-153026768D01*
X140764549Y-153048884D01*
X140653365Y-153071000D01*
X140426635Y-153071000D01*
X140315451Y-153048884D01*
X140204266Y-153026768D01*
X139994797Y-152940003D01*
X139806280Y-152814040D01*
X139645960Y-152653720D01*
X139519997Y-152465203D01*
X139433232Y-152255734D01*
X139389000Y-152033364D01*
X139389000Y-151806636D01*
X139433232Y-151584266D01*
X139519997Y-151374797D01*
X139645960Y-151186280D01*
X139806280Y-151025960D01*
X139994797Y-150899997D01*
X140204266Y-150813232D01*
X140315451Y-150791116D01*
X140426635Y-150769000D01*
X140653365Y-150769000D01*
X140764549Y-150791116D01*
X140764549Y-150791116D01*
G37*
G36*
X159764549Y-150791116D02*
G01*
X159875734Y-150813232D01*
X160085203Y-150899997D01*
X160273720Y-151025960D01*
X160434040Y-151186280D01*
X160560003Y-151374797D01*
X160646768Y-151584266D01*
X160691000Y-151806636D01*
X160691000Y-152033364D01*
X160646768Y-152255734D01*
X160560003Y-152465203D01*
X160434040Y-152653720D01*
X160273720Y-152814040D01*
X160085203Y-152940003D01*
X159875734Y-153026768D01*
X159764549Y-153048884D01*
X159653365Y-153071000D01*
X159426635Y-153071000D01*
X159315451Y-153048884D01*
X159204266Y-153026768D01*
X158994797Y-152940003D01*
X158806280Y-152814040D01*
X158645960Y-152653720D01*
X158519997Y-152465203D01*
X158433232Y-152255734D01*
X158389000Y-152033364D01*
X158389000Y-151806636D01*
X158433232Y-151584266D01*
X158519997Y-151374797D01*
X158645960Y-151186280D01*
X158806280Y-151025960D01*
X158994797Y-150899997D01*
X159204266Y-150813232D01*
X159315451Y-150791116D01*
X159426635Y-150769000D01*
X159653365Y-150769000D01*
X159764549Y-150791116D01*
X159764549Y-150791116D01*
G37*
G36*
X157598254Y-136027818D02*
G01*
X157971511Y-136182426D01*
X157971513Y-136182427D01*
X158307436Y-136406884D01*
X158593116Y-136692564D01*
X158817574Y-137028489D01*
X158972182Y-137401746D01*
X159051000Y-137797993D01*
X159051000Y-138202007D01*
X158972182Y-138598254D01*
X158817574Y-138971511D01*
X158817573Y-138971513D01*
X158593116Y-139307436D01*
X158307436Y-139593116D01*
X157971513Y-139817573D01*
X157971512Y-139817574D01*
X157971511Y-139817574D01*
X157598254Y-139972182D01*
X157202007Y-140051000D01*
X156797993Y-140051000D01*
X156401746Y-139972182D01*
X156028489Y-139817574D01*
X156028488Y-139817574D01*
X156028487Y-139817573D01*
X155692564Y-139593116D01*
X155406884Y-139307436D01*
X155182427Y-138971513D01*
X155182426Y-138971511D01*
X155027818Y-138598254D01*
X154949000Y-138202007D01*
X154949000Y-137797993D01*
X155027818Y-137401746D01*
X155182426Y-137028489D01*
X155406884Y-136692564D01*
X155692564Y-136406884D01*
X156028487Y-136182427D01*
X156028489Y-136182426D01*
X156401746Y-136027818D01*
X156797993Y-135949000D01*
X157202007Y-135949000D01*
X157598254Y-136027818D01*
X157598254Y-136027818D01*
G37*
G36*
X138598254Y-136027818D02*
G01*
X138971511Y-136182426D01*
X138971513Y-136182427D01*
X139307436Y-136406884D01*
X139593116Y-136692564D01*
X139817574Y-137028489D01*
X139972182Y-137401746D01*
X140051000Y-137797993D01*
X140051000Y-138202007D01*
X139972182Y-138598254D01*
X139817574Y-138971511D01*
X139817573Y-138971513D01*
X139593116Y-139307436D01*
X139307436Y-139593116D01*
X138971513Y-139817573D01*
X138971512Y-139817574D01*
X138971511Y-139817574D01*
X138598254Y-139972182D01*
X138202007Y-140051000D01*
X137797993Y-140051000D01*
X137401746Y-139972182D01*
X137028489Y-139817574D01*
X137028488Y-139817574D01*
X137028487Y-139817573D01*
X136692564Y-139593116D01*
X136406884Y-139307436D01*
X136182427Y-138971513D01*
X136182426Y-138971511D01*
X136027818Y-138598254D01*
X135949000Y-138202007D01*
X135949000Y-137797993D01*
X136027818Y-137401746D01*
X136182426Y-137028489D01*
X136406884Y-136692564D01*
X136692564Y-136406884D01*
X137028487Y-136182427D01*
X137028489Y-136182426D01*
X137401746Y-136027818D01*
X137797993Y-135949000D01*
X138202007Y-135949000D01*
X138598254Y-136027818D01*
X138598254Y-136027818D01*
G37*
G36*
X119598254Y-136027818D02*
G01*
X119971511Y-136182426D01*
X119971513Y-136182427D01*
X120307436Y-136406884D01*
X120593116Y-136692564D01*
X120817574Y-137028489D01*
X120972182Y-137401746D01*
X121051000Y-137797993D01*
X121051000Y-138202007D01*
X120972182Y-138598254D01*
X120817574Y-138971511D01*
X120817573Y-138971513D01*
X120593116Y-139307436D01*
X120307436Y-139593116D01*
X119971513Y-139817573D01*
X119971512Y-139817574D01*
X119971511Y-139817574D01*
X119598254Y-139972182D01*
X119202007Y-140051000D01*
X118797993Y-140051000D01*
X118401746Y-139972182D01*
X118028489Y-139817574D01*
X118028488Y-139817574D01*
X118028487Y-139817573D01*
X117692564Y-139593116D01*
X117406884Y-139307436D01*
X117182427Y-138971513D01*
X117182426Y-138971511D01*
X117027818Y-138598254D01*
X116949000Y-138202007D01*
X116949000Y-137797993D01*
X117027818Y-137401746D01*
X117182426Y-137028489D01*
X117406884Y-136692564D01*
X117692564Y-136406884D01*
X118028487Y-136182427D01*
X118028489Y-136182426D01*
X118401746Y-136027818D01*
X118797993Y-135949000D01*
X119202007Y-135949000D01*
X119598254Y-136027818D01*
X119598254Y-136027818D01*
G37*
G36*
X100598254Y-136027818D02*
G01*
X100971511Y-136182426D01*
X100971513Y-136182427D01*
X101307436Y-136406884D01*
X101593116Y-136692564D01*
X101817574Y-137028489D01*
X101972182Y-137401746D01*
X102051000Y-137797993D01*
X102051000Y-138202007D01*
X101972182Y-138598254D01*
X101817574Y-138971511D01*
X101817573Y-138971513D01*
X101593116Y-139307436D01*
X101307436Y-139593116D01*
X100971513Y-139817573D01*
X100971512Y-139817574D01*
X100971511Y-139817574D01*
X100598254Y-139972182D01*
X100202007Y-140051000D01*
X99797993Y-140051000D01*
X99401746Y-139972182D01*
X99028489Y-139817574D01*
X99028488Y-139817574D01*
X99028487Y-139817573D01*
X98692564Y-139593116D01*
X98406884Y-139307436D01*
X98182427Y-138971513D01*
X98182426Y-138971511D01*
X98027818Y-138598254D01*
X97949000Y-138202007D01*
X97949000Y-137797993D01*
X98027818Y-137401746D01*
X98182426Y-137028489D01*
X98406884Y-136692564D01*
X98692564Y-136406884D01*
X99028487Y-136182427D01*
X99028489Y-136182426D01*
X99401746Y-136027818D01*
X99797993Y-135949000D01*
X100202007Y-135949000D01*
X100598254Y-136027818D01*
X100598254Y-136027818D01*
G37*
G36*
X95033512Y-137103927D02*
G01*
X95182812Y-137133624D01*
X95346784Y-137201544D01*
X95494354Y-137300147D01*
X95619853Y-137425646D01*
X95718456Y-137573216D01*
X95786376Y-137737188D01*
X95821000Y-137911259D01*
X95821000Y-138088741D01*
X95786376Y-138262812D01*
X95718456Y-138426784D01*
X95619853Y-138574354D01*
X95494354Y-138699853D01*
X95346784Y-138798456D01*
X95182812Y-138866376D01*
X95033512Y-138896073D01*
X95008742Y-138901000D01*
X94831258Y-138901000D01*
X94806488Y-138896073D01*
X94657188Y-138866376D01*
X94493216Y-138798456D01*
X94345646Y-138699853D01*
X94220147Y-138574354D01*
X94121544Y-138426784D01*
X94053624Y-138262812D01*
X94019000Y-138088741D01*
X94019000Y-137911259D01*
X94053624Y-137737188D01*
X94121544Y-137573216D01*
X94220147Y-137425646D01*
X94345646Y-137300147D01*
X94493216Y-137201544D01*
X94657188Y-137133624D01*
X94806488Y-137103927D01*
X94831258Y-137099000D01*
X95008742Y-137099000D01*
X95033512Y-137103927D01*
X95033512Y-137103927D01*
G37*
G36*
X162193512Y-137103927D02*
G01*
X162342812Y-137133624D01*
X162506784Y-137201544D01*
X162654354Y-137300147D01*
X162779853Y-137425646D01*
X162878456Y-137573216D01*
X162946376Y-137737188D01*
X162981000Y-137911259D01*
X162981000Y-138088741D01*
X162946376Y-138262812D01*
X162878456Y-138426784D01*
X162779853Y-138574354D01*
X162654354Y-138699853D01*
X162506784Y-138798456D01*
X162342812Y-138866376D01*
X162193512Y-138896073D01*
X162168742Y-138901000D01*
X161991258Y-138901000D01*
X161966488Y-138896073D01*
X161817188Y-138866376D01*
X161653216Y-138798456D01*
X161505646Y-138699853D01*
X161380147Y-138574354D01*
X161281544Y-138426784D01*
X161213624Y-138262812D01*
X161179000Y-138088741D01*
X161179000Y-137911259D01*
X161213624Y-137737188D01*
X161281544Y-137573216D01*
X161380147Y-137425646D01*
X161505646Y-137300147D01*
X161653216Y-137201544D01*
X161817188Y-137133624D01*
X161966488Y-137103927D01*
X161991258Y-137099000D01*
X162168742Y-137099000D01*
X162193512Y-137103927D01*
X162193512Y-137103927D01*
G37*
G36*
X143193512Y-137103927D02*
G01*
X143342812Y-137133624D01*
X143506784Y-137201544D01*
X143654354Y-137300147D01*
X143779853Y-137425646D01*
X143878456Y-137573216D01*
X143946376Y-137737188D01*
X143981000Y-137911259D01*
X143981000Y-138088741D01*
X143946376Y-138262812D01*
X143878456Y-138426784D01*
X143779853Y-138574354D01*
X143654354Y-138699853D01*
X143506784Y-138798456D01*
X143342812Y-138866376D01*
X143193512Y-138896073D01*
X143168742Y-138901000D01*
X142991258Y-138901000D01*
X142966488Y-138896073D01*
X142817188Y-138866376D01*
X142653216Y-138798456D01*
X142505646Y-138699853D01*
X142380147Y-138574354D01*
X142281544Y-138426784D01*
X142213624Y-138262812D01*
X142179000Y-138088741D01*
X142179000Y-137911259D01*
X142213624Y-137737188D01*
X142281544Y-137573216D01*
X142380147Y-137425646D01*
X142505646Y-137300147D01*
X142653216Y-137201544D01*
X142817188Y-137133624D01*
X142966488Y-137103927D01*
X142991258Y-137099000D01*
X143168742Y-137099000D01*
X143193512Y-137103927D01*
X143193512Y-137103927D01*
G37*
G36*
X133033512Y-137103927D02*
G01*
X133182812Y-137133624D01*
X133346784Y-137201544D01*
X133494354Y-137300147D01*
X133619853Y-137425646D01*
X133718456Y-137573216D01*
X133786376Y-137737188D01*
X133821000Y-137911259D01*
X133821000Y-138088741D01*
X133786376Y-138262812D01*
X133718456Y-138426784D01*
X133619853Y-138574354D01*
X133494354Y-138699853D01*
X133346784Y-138798456D01*
X133182812Y-138866376D01*
X133033512Y-138896073D01*
X133008742Y-138901000D01*
X132831258Y-138901000D01*
X132806488Y-138896073D01*
X132657188Y-138866376D01*
X132493216Y-138798456D01*
X132345646Y-138699853D01*
X132220147Y-138574354D01*
X132121544Y-138426784D01*
X132053624Y-138262812D01*
X132019000Y-138088741D01*
X132019000Y-137911259D01*
X132053624Y-137737188D01*
X132121544Y-137573216D01*
X132220147Y-137425646D01*
X132345646Y-137300147D01*
X132493216Y-137201544D01*
X132657188Y-137133624D01*
X132806488Y-137103927D01*
X132831258Y-137099000D01*
X133008742Y-137099000D01*
X133033512Y-137103927D01*
X133033512Y-137103927D01*
G37*
G36*
X124193512Y-137103927D02*
G01*
X124342812Y-137133624D01*
X124506784Y-137201544D01*
X124654354Y-137300147D01*
X124779853Y-137425646D01*
X124878456Y-137573216D01*
X124946376Y-137737188D01*
X124981000Y-137911259D01*
X124981000Y-138088741D01*
X124946376Y-138262812D01*
X124878456Y-138426784D01*
X124779853Y-138574354D01*
X124654354Y-138699853D01*
X124506784Y-138798456D01*
X124342812Y-138866376D01*
X124193512Y-138896073D01*
X124168742Y-138901000D01*
X123991258Y-138901000D01*
X123966488Y-138896073D01*
X123817188Y-138866376D01*
X123653216Y-138798456D01*
X123505646Y-138699853D01*
X123380147Y-138574354D01*
X123281544Y-138426784D01*
X123213624Y-138262812D01*
X123179000Y-138088741D01*
X123179000Y-137911259D01*
X123213624Y-137737188D01*
X123281544Y-137573216D01*
X123380147Y-137425646D01*
X123505646Y-137300147D01*
X123653216Y-137201544D01*
X123817188Y-137133624D01*
X123966488Y-137103927D01*
X123991258Y-137099000D01*
X124168742Y-137099000D01*
X124193512Y-137103927D01*
X124193512Y-137103927D01*
G37*
G36*
X105193512Y-137103927D02*
G01*
X105342812Y-137133624D01*
X105506784Y-137201544D01*
X105654354Y-137300147D01*
X105779853Y-137425646D01*
X105878456Y-137573216D01*
X105946376Y-137737188D01*
X105981000Y-137911259D01*
X105981000Y-138088741D01*
X105946376Y-138262812D01*
X105878456Y-138426784D01*
X105779853Y-138574354D01*
X105654354Y-138699853D01*
X105506784Y-138798456D01*
X105342812Y-138866376D01*
X105193512Y-138896073D01*
X105168742Y-138901000D01*
X104991258Y-138901000D01*
X104966488Y-138896073D01*
X104817188Y-138866376D01*
X104653216Y-138798456D01*
X104505646Y-138699853D01*
X104380147Y-138574354D01*
X104281544Y-138426784D01*
X104213624Y-138262812D01*
X104179000Y-138088741D01*
X104179000Y-137911259D01*
X104213624Y-137737188D01*
X104281544Y-137573216D01*
X104380147Y-137425646D01*
X104505646Y-137300147D01*
X104653216Y-137201544D01*
X104817188Y-137133624D01*
X104966488Y-137103927D01*
X104991258Y-137099000D01*
X105168742Y-137099000D01*
X105193512Y-137103927D01*
X105193512Y-137103927D01*
G37*
G36*
X114033512Y-137103927D02*
G01*
X114182812Y-137133624D01*
X114346784Y-137201544D01*
X114494354Y-137300147D01*
X114619853Y-137425646D01*
X114718456Y-137573216D01*
X114786376Y-137737188D01*
X114821000Y-137911259D01*
X114821000Y-138088741D01*
X114786376Y-138262812D01*
X114718456Y-138426784D01*
X114619853Y-138574354D01*
X114494354Y-138699853D01*
X114346784Y-138798456D01*
X114182812Y-138866376D01*
X114033512Y-138896073D01*
X114008742Y-138901000D01*
X113831258Y-138901000D01*
X113806488Y-138896073D01*
X113657188Y-138866376D01*
X113493216Y-138798456D01*
X113345646Y-138699853D01*
X113220147Y-138574354D01*
X113121544Y-138426784D01*
X113053624Y-138262812D01*
X113019000Y-138088741D01*
X113019000Y-137911259D01*
X113053624Y-137737188D01*
X113121544Y-137573216D01*
X113220147Y-137425646D01*
X113345646Y-137300147D01*
X113493216Y-137201544D01*
X113657188Y-137133624D01*
X113806488Y-137103927D01*
X113831258Y-137099000D01*
X114008742Y-137099000D01*
X114033512Y-137103927D01*
X114033512Y-137103927D01*
G37*
G36*
X152033512Y-137103927D02*
G01*
X152182812Y-137133624D01*
X152346784Y-137201544D01*
X152494354Y-137300147D01*
X152619853Y-137425646D01*
X152718456Y-137573216D01*
X152786376Y-137737188D01*
X152821000Y-137911259D01*
X152821000Y-138088741D01*
X152786376Y-138262812D01*
X152718456Y-138426784D01*
X152619853Y-138574354D01*
X152494354Y-138699853D01*
X152346784Y-138798456D01*
X152182812Y-138866376D01*
X152033512Y-138896073D01*
X152008742Y-138901000D01*
X151831258Y-138901000D01*
X151806488Y-138896073D01*
X151657188Y-138866376D01*
X151493216Y-138798456D01*
X151345646Y-138699853D01*
X151220147Y-138574354D01*
X151121544Y-138426784D01*
X151053624Y-138262812D01*
X151019000Y-138088741D01*
X151019000Y-137911259D01*
X151053624Y-137737188D01*
X151121544Y-137573216D01*
X151220147Y-137425646D01*
X151345646Y-137300147D01*
X151493216Y-137201544D01*
X151657188Y-137133624D01*
X151806488Y-137103927D01*
X151831258Y-137099000D01*
X152008742Y-137099000D01*
X152033512Y-137103927D01*
X152033512Y-137103927D01*
G37*
G36*
X96414549Y-134331116D02*
G01*
X96525734Y-134353232D01*
X96735203Y-134439997D01*
X96923720Y-134565960D01*
X97084040Y-134726280D01*
X97210003Y-134914797D01*
X97296768Y-135124266D01*
X97341000Y-135346636D01*
X97341000Y-135573364D01*
X97296768Y-135795734D01*
X97210003Y-136005203D01*
X97084040Y-136193720D01*
X96923720Y-136354040D01*
X96735203Y-136480003D01*
X96525734Y-136566768D01*
X96414549Y-136588884D01*
X96303365Y-136611000D01*
X96076635Y-136611000D01*
X95965451Y-136588884D01*
X95854266Y-136566768D01*
X95644797Y-136480003D01*
X95456280Y-136354040D01*
X95295960Y-136193720D01*
X95169997Y-136005203D01*
X95083232Y-135795734D01*
X95039000Y-135573364D01*
X95039000Y-135346636D01*
X95083232Y-135124266D01*
X95169997Y-134914797D01*
X95295960Y-134726280D01*
X95456280Y-134565960D01*
X95644797Y-134439997D01*
X95854266Y-134353232D01*
X95965451Y-134331116D01*
X96076635Y-134309000D01*
X96303365Y-134309000D01*
X96414549Y-134331116D01*
X96414549Y-134331116D01*
G37*
G36*
X115414549Y-134331116D02*
G01*
X115525734Y-134353232D01*
X115735203Y-134439997D01*
X115923720Y-134565960D01*
X116084040Y-134726280D01*
X116210003Y-134914797D01*
X116296768Y-135124266D01*
X116341000Y-135346636D01*
X116341000Y-135573364D01*
X116296768Y-135795734D01*
X116210003Y-136005203D01*
X116084040Y-136193720D01*
X115923720Y-136354040D01*
X115735203Y-136480003D01*
X115525734Y-136566768D01*
X115414549Y-136588884D01*
X115303365Y-136611000D01*
X115076635Y-136611000D01*
X114965451Y-136588884D01*
X114854266Y-136566768D01*
X114644797Y-136480003D01*
X114456280Y-136354040D01*
X114295960Y-136193720D01*
X114169997Y-136005203D01*
X114083232Y-135795734D01*
X114039000Y-135573364D01*
X114039000Y-135346636D01*
X114083232Y-135124266D01*
X114169997Y-134914797D01*
X114295960Y-134726280D01*
X114456280Y-134565960D01*
X114644797Y-134439997D01*
X114854266Y-134353232D01*
X114965451Y-134331116D01*
X115076635Y-134309000D01*
X115303365Y-134309000D01*
X115414549Y-134331116D01*
X115414549Y-134331116D01*
G37*
G36*
X134414549Y-134331116D02*
G01*
X134525734Y-134353232D01*
X134735203Y-134439997D01*
X134923720Y-134565960D01*
X135084040Y-134726280D01*
X135210003Y-134914797D01*
X135296768Y-135124266D01*
X135341000Y-135346636D01*
X135341000Y-135573364D01*
X135296768Y-135795734D01*
X135210003Y-136005203D01*
X135084040Y-136193720D01*
X134923720Y-136354040D01*
X134735203Y-136480003D01*
X134525734Y-136566768D01*
X134414549Y-136588884D01*
X134303365Y-136611000D01*
X134076635Y-136611000D01*
X133965451Y-136588884D01*
X133854266Y-136566768D01*
X133644797Y-136480003D01*
X133456280Y-136354040D01*
X133295960Y-136193720D01*
X133169997Y-136005203D01*
X133083232Y-135795734D01*
X133039000Y-135573364D01*
X133039000Y-135346636D01*
X133083232Y-135124266D01*
X133169997Y-134914797D01*
X133295960Y-134726280D01*
X133456280Y-134565960D01*
X133644797Y-134439997D01*
X133854266Y-134353232D01*
X133965451Y-134331116D01*
X134076635Y-134309000D01*
X134303365Y-134309000D01*
X134414549Y-134331116D01*
X134414549Y-134331116D01*
G37*
G36*
X153414549Y-134331116D02*
G01*
X153525734Y-134353232D01*
X153735203Y-134439997D01*
X153923720Y-134565960D01*
X154084040Y-134726280D01*
X154210003Y-134914797D01*
X154296768Y-135124266D01*
X154341000Y-135346636D01*
X154341000Y-135573364D01*
X154296768Y-135795734D01*
X154210003Y-136005203D01*
X154084040Y-136193720D01*
X153923720Y-136354040D01*
X153735203Y-136480003D01*
X153525734Y-136566768D01*
X153414549Y-136588884D01*
X153303365Y-136611000D01*
X153076635Y-136611000D01*
X152965451Y-136588884D01*
X152854266Y-136566768D01*
X152644797Y-136480003D01*
X152456280Y-136354040D01*
X152295960Y-136193720D01*
X152169997Y-136005203D01*
X152083232Y-135795734D01*
X152039000Y-135573364D01*
X152039000Y-135346636D01*
X152083232Y-135124266D01*
X152169997Y-134914797D01*
X152295960Y-134726280D01*
X152456280Y-134565960D01*
X152644797Y-134439997D01*
X152854266Y-134353232D01*
X152965451Y-134331116D01*
X153076635Y-134309000D01*
X153303365Y-134309000D01*
X153414549Y-134331116D01*
X153414549Y-134331116D01*
G37*
G36*
X159764549Y-131791116D02*
G01*
X159875734Y-131813232D01*
X160085203Y-131899997D01*
X160273720Y-132025960D01*
X160434040Y-132186280D01*
X160560003Y-132374797D01*
X160646768Y-132584266D01*
X160691000Y-132806636D01*
X160691000Y-133033364D01*
X160646768Y-133255734D01*
X160560003Y-133465203D01*
X160434040Y-133653720D01*
X160273720Y-133814040D01*
X160085203Y-133940003D01*
X159875734Y-134026768D01*
X159764549Y-134048884D01*
X159653365Y-134071000D01*
X159426635Y-134071000D01*
X159315451Y-134048884D01*
X159204266Y-134026768D01*
X158994797Y-133940003D01*
X158806280Y-133814040D01*
X158645960Y-133653720D01*
X158519997Y-133465203D01*
X158433232Y-133255734D01*
X158389000Y-133033364D01*
X158389000Y-132806636D01*
X158433232Y-132584266D01*
X158519997Y-132374797D01*
X158645960Y-132186280D01*
X158806280Y-132025960D01*
X158994797Y-131899997D01*
X159204266Y-131813232D01*
X159315451Y-131791116D01*
X159426635Y-131769000D01*
X159653365Y-131769000D01*
X159764549Y-131791116D01*
X159764549Y-131791116D01*
G37*
G36*
X140764549Y-131791116D02*
G01*
X140875734Y-131813232D01*
X141085203Y-131899997D01*
X141273720Y-132025960D01*
X141434040Y-132186280D01*
X141560003Y-132374797D01*
X141646768Y-132584266D01*
X141691000Y-132806636D01*
X141691000Y-133033364D01*
X141646768Y-133255734D01*
X141560003Y-133465203D01*
X141434040Y-133653720D01*
X141273720Y-133814040D01*
X141085203Y-133940003D01*
X140875734Y-134026768D01*
X140764549Y-134048884D01*
X140653365Y-134071000D01*
X140426635Y-134071000D01*
X140315451Y-134048884D01*
X140204266Y-134026768D01*
X139994797Y-133940003D01*
X139806280Y-133814040D01*
X139645960Y-133653720D01*
X139519997Y-133465203D01*
X139433232Y-133255734D01*
X139389000Y-133033364D01*
X139389000Y-132806636D01*
X139433232Y-132584266D01*
X139519997Y-132374797D01*
X139645960Y-132186280D01*
X139806280Y-132025960D01*
X139994797Y-131899997D01*
X140204266Y-131813232D01*
X140315451Y-131791116D01*
X140426635Y-131769000D01*
X140653365Y-131769000D01*
X140764549Y-131791116D01*
X140764549Y-131791116D01*
G37*
G36*
X121764549Y-131791116D02*
G01*
X121875734Y-131813232D01*
X122085203Y-131899997D01*
X122273720Y-132025960D01*
X122434040Y-132186280D01*
X122560003Y-132374797D01*
X122646768Y-132584266D01*
X122691000Y-132806636D01*
X122691000Y-133033364D01*
X122646768Y-133255734D01*
X122560003Y-133465203D01*
X122434040Y-133653720D01*
X122273720Y-133814040D01*
X122085203Y-133940003D01*
X121875734Y-134026768D01*
X121764549Y-134048884D01*
X121653365Y-134071000D01*
X121426635Y-134071000D01*
X121315451Y-134048884D01*
X121204266Y-134026768D01*
X120994797Y-133940003D01*
X120806280Y-133814040D01*
X120645960Y-133653720D01*
X120519997Y-133465203D01*
X120433232Y-133255734D01*
X120389000Y-133033364D01*
X120389000Y-132806636D01*
X120433232Y-132584266D01*
X120519997Y-132374797D01*
X120645960Y-132186280D01*
X120806280Y-132025960D01*
X120994797Y-131899997D01*
X121204266Y-131813232D01*
X121315451Y-131791116D01*
X121426635Y-131769000D01*
X121653365Y-131769000D01*
X121764549Y-131791116D01*
X121764549Y-131791116D01*
G37*
G36*
X102764549Y-131791116D02*
G01*
X102875734Y-131813232D01*
X103085203Y-131899997D01*
X103273720Y-132025960D01*
X103434040Y-132186280D01*
X103560003Y-132374797D01*
X103646768Y-132584266D01*
X103691000Y-132806636D01*
X103691000Y-133033364D01*
X103646768Y-133255734D01*
X103560003Y-133465203D01*
X103434040Y-133653720D01*
X103273720Y-133814040D01*
X103085203Y-133940003D01*
X102875734Y-134026768D01*
X102764549Y-134048884D01*
X102653365Y-134071000D01*
X102426635Y-134071000D01*
X102315451Y-134048884D01*
X102204266Y-134026768D01*
X101994797Y-133940003D01*
X101806280Y-133814040D01*
X101645960Y-133653720D01*
X101519997Y-133465203D01*
X101433232Y-133255734D01*
X101389000Y-133033364D01*
X101389000Y-132806636D01*
X101433232Y-132584266D01*
X101519997Y-132374797D01*
X101645960Y-132186280D01*
X101806280Y-132025960D01*
X101994797Y-131899997D01*
X102204266Y-131813232D01*
X102315451Y-131791116D01*
X102426635Y-131769000D01*
X102653365Y-131769000D01*
X102764549Y-131791116D01*
X102764549Y-131791116D01*
G37*
G36*
X109129525Y-129479905D02*
G01*
X109210494Y-129496011D01*
X109286765Y-129527604D01*
X109363038Y-129559197D01*
X109499397Y-129650309D01*
X109500322Y-129650927D01*
X109617073Y-129767678D01*
X109617075Y-129767681D01*
X109708803Y-129904962D01*
X109771989Y-130057507D01*
X109804200Y-130219443D01*
X109804200Y-130384557D01*
X109771989Y-130546493D01*
X109708803Y-130699038D01*
X109617691Y-130835397D01*
X109617073Y-130836322D01*
X109500322Y-130953073D01*
X109500319Y-130953075D01*
X109363038Y-131044803D01*
X109210494Y-131107989D01*
X109129525Y-131124094D01*
X109048557Y-131140200D01*
X108883443Y-131140200D01*
X108802475Y-131124094D01*
X108721506Y-131107989D01*
X108568962Y-131044803D01*
X108431681Y-130953075D01*
X108431678Y-130953073D01*
X108314927Y-130836322D01*
X108314309Y-130835397D01*
X108223197Y-130699038D01*
X108160011Y-130546493D01*
X108127800Y-130384557D01*
X108127800Y-130219443D01*
X108160011Y-130057507D01*
X108223197Y-129904962D01*
X108314925Y-129767681D01*
X108314927Y-129767678D01*
X108431678Y-129650927D01*
X108432603Y-129650309D01*
X108568962Y-129559197D01*
X108645235Y-129527604D01*
X108721506Y-129496011D01*
X108802475Y-129479905D01*
X108883443Y-129463800D01*
X109048557Y-129463800D01*
X109129525Y-129479905D01*
X109129525Y-129479905D01*
G37*
G36*
X109129525Y-126939905D02*
G01*
X109210494Y-126956011D01*
X109286765Y-126987604D01*
X109363038Y-127019197D01*
X109499397Y-127110309D01*
X109500322Y-127110927D01*
X109617073Y-127227678D01*
X109617075Y-127227681D01*
X109708803Y-127364962D01*
X109771989Y-127517507D01*
X109804200Y-127679443D01*
X109804200Y-127844557D01*
X109771989Y-128006493D01*
X109708803Y-128159038D01*
X109617691Y-128295397D01*
X109617073Y-128296322D01*
X109500322Y-128413073D01*
X109500319Y-128413075D01*
X109363038Y-128504803D01*
X109210494Y-128567989D01*
X109129525Y-128584094D01*
X109048557Y-128600200D01*
X108883443Y-128600200D01*
X108802475Y-128584094D01*
X108721506Y-128567989D01*
X108568962Y-128504803D01*
X108431681Y-128413075D01*
X108431678Y-128413073D01*
X108314927Y-128296322D01*
X108314309Y-128295397D01*
X108223197Y-128159038D01*
X108160011Y-128006493D01*
X108127800Y-127844557D01*
X108127800Y-127679443D01*
X108160011Y-127517507D01*
X108223197Y-127364962D01*
X108314925Y-127227681D01*
X108314927Y-127227678D01*
X108431678Y-127110927D01*
X108432603Y-127110309D01*
X108568962Y-127019197D01*
X108645235Y-126987604D01*
X108721506Y-126956011D01*
X108802475Y-126939905D01*
X108883443Y-126923800D01*
X109048557Y-126923800D01*
X109129525Y-126939905D01*
X109129525Y-126939905D01*
G37*
G36*
X109129525Y-124399906D02*
G01*
X109210494Y-124416011D01*
X109286765Y-124447604D01*
X109363038Y-124479197D01*
X109499397Y-124570309D01*
X109500322Y-124570927D01*
X109617073Y-124687678D01*
X109617075Y-124687681D01*
X109708803Y-124824962D01*
X109771989Y-124977507D01*
X109804200Y-125139443D01*
X109804200Y-125304557D01*
X109771989Y-125466493D01*
X109708803Y-125619038D01*
X109617691Y-125755397D01*
X109617073Y-125756322D01*
X109500322Y-125873073D01*
X109500319Y-125873075D01*
X109363038Y-125964803D01*
X109210494Y-126027989D01*
X109129525Y-126044094D01*
X109048557Y-126060200D01*
X108883443Y-126060200D01*
X108802475Y-126044094D01*
X108721506Y-126027989D01*
X108568962Y-125964803D01*
X108431681Y-125873075D01*
X108431678Y-125873073D01*
X108314927Y-125756322D01*
X108314309Y-125755397D01*
X108223197Y-125619038D01*
X108160011Y-125466493D01*
X108127800Y-125304557D01*
X108127800Y-125139443D01*
X108160011Y-124977507D01*
X108223197Y-124824962D01*
X108314925Y-124687681D01*
X108314927Y-124687678D01*
X108431678Y-124570927D01*
X108432603Y-124570309D01*
X108568962Y-124479197D01*
X108645235Y-124447604D01*
X108721506Y-124416011D01*
X108802475Y-124399906D01*
X108883443Y-124383800D01*
X109048557Y-124383800D01*
X109129525Y-124399906D01*
X109129525Y-124399906D01*
G37*
G36*
X109129525Y-121859906D02*
G01*
X109210494Y-121876011D01*
X109286765Y-121907604D01*
X109363038Y-121939197D01*
X109499397Y-122030309D01*
X109500322Y-122030927D01*
X109617073Y-122147678D01*
X109617075Y-122147681D01*
X109708803Y-122284962D01*
X109771989Y-122437507D01*
X109804200Y-122599443D01*
X109804200Y-122764557D01*
X109771989Y-122926493D01*
X109708803Y-123079038D01*
X109617691Y-123215397D01*
X109617073Y-123216322D01*
X109500322Y-123333073D01*
X109500319Y-123333075D01*
X109363038Y-123424803D01*
X109210494Y-123487989D01*
X109129525Y-123504094D01*
X109048557Y-123520200D01*
X108883443Y-123520200D01*
X108802475Y-123504094D01*
X108721506Y-123487989D01*
X108568962Y-123424803D01*
X108431681Y-123333075D01*
X108431678Y-123333073D01*
X108314927Y-123216322D01*
X108314309Y-123215397D01*
X108223197Y-123079038D01*
X108160011Y-122926493D01*
X108127800Y-122764557D01*
X108127800Y-122599443D01*
X108160011Y-122437507D01*
X108223197Y-122284962D01*
X108314925Y-122147681D01*
X108314927Y-122147678D01*
X108431678Y-122030927D01*
X108432603Y-122030309D01*
X108568962Y-121939197D01*
X108645235Y-121907604D01*
X108721506Y-121876011D01*
X108802475Y-121859906D01*
X108883443Y-121843800D01*
X109048557Y-121843800D01*
X109129525Y-121859906D01*
X109129525Y-121859906D01*
G37*
G36*
X119598254Y-117027818D02*
G01*
X119971511Y-117182426D01*
X119971513Y-117182427D01*
X120307436Y-117406884D01*
X120593116Y-117692564D01*
X120797896Y-117999038D01*
X120817574Y-118028489D01*
X120972182Y-118401746D01*
X121051000Y-118797993D01*
X121051000Y-119202007D01*
X120972182Y-119598254D01*
X120817574Y-119971511D01*
X120817573Y-119971513D01*
X120593116Y-120307436D01*
X120307436Y-120593116D01*
X119971513Y-120817573D01*
X119971512Y-120817574D01*
X119971511Y-120817574D01*
X119598254Y-120972182D01*
X119202007Y-121051000D01*
X118797993Y-121051000D01*
X118401746Y-120972182D01*
X118028489Y-120817574D01*
X118028488Y-120817574D01*
X118028487Y-120817573D01*
X117692564Y-120593116D01*
X117406884Y-120307436D01*
X117182427Y-119971513D01*
X117182426Y-119971511D01*
X117027818Y-119598254D01*
X116949000Y-119202007D01*
X116949000Y-118797993D01*
X117027818Y-118401746D01*
X117182426Y-118028489D01*
X117202105Y-117999038D01*
X117406884Y-117692564D01*
X117692564Y-117406884D01*
X118028487Y-117182427D01*
X118028489Y-117182426D01*
X118401746Y-117027818D01*
X118797993Y-116949000D01*
X119202007Y-116949000D01*
X119598254Y-117027818D01*
X119598254Y-117027818D01*
G37*
G36*
X100598254Y-117027818D02*
G01*
X100971511Y-117182426D01*
X100971513Y-117182427D01*
X101307436Y-117406884D01*
X101593116Y-117692564D01*
X101797896Y-117999038D01*
X101817574Y-118028489D01*
X101972182Y-118401746D01*
X102051000Y-118797993D01*
X102051000Y-119202007D01*
X101972182Y-119598254D01*
X101817574Y-119971511D01*
X101817573Y-119971513D01*
X101593116Y-120307436D01*
X101307436Y-120593116D01*
X100971513Y-120817573D01*
X100971512Y-120817574D01*
X100971511Y-120817574D01*
X100598254Y-120972182D01*
X100202007Y-121051000D01*
X99797993Y-121051000D01*
X99401746Y-120972182D01*
X99028489Y-120817574D01*
X99028488Y-120817574D01*
X99028487Y-120817573D01*
X98692564Y-120593116D01*
X98406884Y-120307436D01*
X98182427Y-119971513D01*
X98182426Y-119971511D01*
X98027818Y-119598254D01*
X97949000Y-119202007D01*
X97949000Y-118797993D01*
X98027818Y-118401746D01*
X98182426Y-118028489D01*
X98202105Y-117999038D01*
X98406884Y-117692564D01*
X98692564Y-117406884D01*
X99028487Y-117182427D01*
X99028489Y-117182426D01*
X99401746Y-117027818D01*
X99797993Y-116949000D01*
X100202007Y-116949000D01*
X100598254Y-117027818D01*
X100598254Y-117027818D01*
G37*
G36*
X138598254Y-117027818D02*
G01*
X138971511Y-117182426D01*
X138971513Y-117182427D01*
X139307436Y-117406884D01*
X139593116Y-117692564D01*
X139797896Y-117999038D01*
X139817574Y-118028489D01*
X139972182Y-118401746D01*
X140051000Y-118797993D01*
X140051000Y-119202007D01*
X139972182Y-119598254D01*
X139817574Y-119971511D01*
X139817573Y-119971513D01*
X139593116Y-120307436D01*
X139307436Y-120593116D01*
X138971513Y-120817573D01*
X138971512Y-120817574D01*
X138971511Y-120817574D01*
X138598254Y-120972182D01*
X138202007Y-121051000D01*
X137797993Y-121051000D01*
X137401746Y-120972182D01*
X137028489Y-120817574D01*
X137028488Y-120817574D01*
X137028487Y-120817573D01*
X136692564Y-120593116D01*
X136406884Y-120307436D01*
X136182427Y-119971513D01*
X136182426Y-119971511D01*
X136027818Y-119598254D01*
X135949000Y-119202007D01*
X135949000Y-118797993D01*
X136027818Y-118401746D01*
X136182426Y-118028489D01*
X136202105Y-117999038D01*
X136406884Y-117692564D01*
X136692564Y-117406884D01*
X137028487Y-117182427D01*
X137028489Y-117182426D01*
X137401746Y-117027818D01*
X137797993Y-116949000D01*
X138202007Y-116949000D01*
X138598254Y-117027818D01*
X138598254Y-117027818D01*
G37*
G36*
X157598254Y-117027818D02*
G01*
X157971511Y-117182426D01*
X157971513Y-117182427D01*
X158307436Y-117406884D01*
X158593116Y-117692564D01*
X158797896Y-117999038D01*
X158817574Y-118028489D01*
X158972182Y-118401746D01*
X159051000Y-118797993D01*
X159051000Y-119202007D01*
X158972182Y-119598254D01*
X158817574Y-119971511D01*
X158817573Y-119971513D01*
X158593116Y-120307436D01*
X158307436Y-120593116D01*
X157971513Y-120817573D01*
X157971512Y-120817574D01*
X157971511Y-120817574D01*
X157598254Y-120972182D01*
X157202007Y-121051000D01*
X156797993Y-121051000D01*
X156401746Y-120972182D01*
X156028489Y-120817574D01*
X156028488Y-120817574D01*
X156028487Y-120817573D01*
X155692564Y-120593116D01*
X155406884Y-120307436D01*
X155182427Y-119971513D01*
X155182426Y-119971511D01*
X155027818Y-119598254D01*
X154949000Y-119202007D01*
X154949000Y-118797993D01*
X155027818Y-118401746D01*
X155182426Y-118028489D01*
X155202105Y-117999038D01*
X155406884Y-117692564D01*
X155692564Y-117406884D01*
X156028487Y-117182427D01*
X156028489Y-117182426D01*
X156401746Y-117027818D01*
X156797993Y-116949000D01*
X157202007Y-116949000D01*
X157598254Y-117027818D01*
X157598254Y-117027818D01*
G37*
G36*
X129449525Y-119319906D02*
G01*
X129530494Y-119336011D01*
X129683038Y-119399197D01*
X129819397Y-119490309D01*
X129820322Y-119490927D01*
X129937073Y-119607678D01*
X129937075Y-119607681D01*
X130028803Y-119744962D01*
X130091989Y-119897507D01*
X130124200Y-120059443D01*
X130124200Y-120224557D01*
X130091989Y-120386493D01*
X130028803Y-120539038D01*
X129992669Y-120593116D01*
X129937073Y-120676322D01*
X129820322Y-120793073D01*
X129820319Y-120793075D01*
X129683038Y-120884803D01*
X129606765Y-120916396D01*
X129530494Y-120947989D01*
X129449525Y-120964095D01*
X129368557Y-120980200D01*
X129203443Y-120980200D01*
X129122475Y-120964095D01*
X129041506Y-120947989D01*
X128965235Y-120916396D01*
X128888962Y-120884803D01*
X128751681Y-120793075D01*
X128751678Y-120793073D01*
X128634927Y-120676322D01*
X128579331Y-120593116D01*
X128543197Y-120539038D01*
X128480011Y-120386493D01*
X128447800Y-120224557D01*
X128447800Y-120059443D01*
X128480011Y-119897507D01*
X128543197Y-119744962D01*
X128634925Y-119607681D01*
X128634927Y-119607678D01*
X128751678Y-119490927D01*
X128752603Y-119490309D01*
X128888962Y-119399197D01*
X129041506Y-119336011D01*
X129122475Y-119319906D01*
X129203443Y-119303800D01*
X129368557Y-119303800D01*
X129449525Y-119319906D01*
X129449525Y-119319906D01*
G37*
G36*
X109129525Y-119319906D02*
G01*
X109210494Y-119336011D01*
X109363038Y-119399197D01*
X109499397Y-119490309D01*
X109500322Y-119490927D01*
X109617073Y-119607678D01*
X109617075Y-119607681D01*
X109708803Y-119744962D01*
X109771989Y-119897507D01*
X109804200Y-120059443D01*
X109804200Y-120224557D01*
X109771989Y-120386493D01*
X109708803Y-120539038D01*
X109672669Y-120593116D01*
X109617073Y-120676322D01*
X109500322Y-120793073D01*
X109500319Y-120793075D01*
X109363038Y-120884803D01*
X109286765Y-120916396D01*
X109210494Y-120947989D01*
X109129525Y-120964095D01*
X109048557Y-120980200D01*
X108883443Y-120980200D01*
X108802475Y-120964095D01*
X108721506Y-120947989D01*
X108645235Y-120916396D01*
X108568962Y-120884803D01*
X108431681Y-120793075D01*
X108431678Y-120793073D01*
X108314927Y-120676322D01*
X108259331Y-120593116D01*
X108223197Y-120539038D01*
X108160011Y-120386493D01*
X108127800Y-120224557D01*
X108127800Y-120059443D01*
X108160011Y-119897507D01*
X108223197Y-119744962D01*
X108314925Y-119607681D01*
X108314927Y-119607678D01*
X108431678Y-119490927D01*
X108432603Y-119490309D01*
X108568962Y-119399197D01*
X108721506Y-119336011D01*
X108802475Y-119319906D01*
X108883443Y-119303800D01*
X109048557Y-119303800D01*
X109129525Y-119319906D01*
X109129525Y-119319906D01*
G37*
G36*
X152033512Y-118103927D02*
G01*
X152182812Y-118133624D01*
X152346784Y-118201544D01*
X152494354Y-118300147D01*
X152619853Y-118425646D01*
X152718456Y-118573216D01*
X152786376Y-118737188D01*
X152821000Y-118911259D01*
X152821000Y-119088741D01*
X152786376Y-119262812D01*
X152718456Y-119426784D01*
X152619853Y-119574354D01*
X152494354Y-119699853D01*
X152346784Y-119798456D01*
X152182812Y-119866376D01*
X152033512Y-119896073D01*
X152008742Y-119901000D01*
X151831258Y-119901000D01*
X151806488Y-119896073D01*
X151657188Y-119866376D01*
X151493216Y-119798456D01*
X151345646Y-119699853D01*
X151220147Y-119574354D01*
X151121544Y-119426784D01*
X151053624Y-119262812D01*
X151019000Y-119088741D01*
X151019000Y-118911259D01*
X151053624Y-118737188D01*
X151121544Y-118573216D01*
X151220147Y-118425646D01*
X151345646Y-118300147D01*
X151493216Y-118201544D01*
X151657188Y-118133624D01*
X151806488Y-118103927D01*
X151831258Y-118099000D01*
X152008742Y-118099000D01*
X152033512Y-118103927D01*
X152033512Y-118103927D01*
G37*
G36*
X143193512Y-118103927D02*
G01*
X143342812Y-118133624D01*
X143506784Y-118201544D01*
X143654354Y-118300147D01*
X143779853Y-118425646D01*
X143878456Y-118573216D01*
X143946376Y-118737188D01*
X143981000Y-118911259D01*
X143981000Y-119088741D01*
X143946376Y-119262812D01*
X143878456Y-119426784D01*
X143779853Y-119574354D01*
X143654354Y-119699853D01*
X143506784Y-119798456D01*
X143342812Y-119866376D01*
X143193512Y-119896073D01*
X143168742Y-119901000D01*
X142991258Y-119901000D01*
X142966488Y-119896073D01*
X142817188Y-119866376D01*
X142653216Y-119798456D01*
X142505646Y-119699853D01*
X142380147Y-119574354D01*
X142281544Y-119426784D01*
X142213624Y-119262812D01*
X142179000Y-119088741D01*
X142179000Y-118911259D01*
X142213624Y-118737188D01*
X142281544Y-118573216D01*
X142380147Y-118425646D01*
X142505646Y-118300147D01*
X142653216Y-118201544D01*
X142817188Y-118133624D01*
X142966488Y-118103927D01*
X142991258Y-118099000D01*
X143168742Y-118099000D01*
X143193512Y-118103927D01*
X143193512Y-118103927D01*
G37*
G36*
X133033512Y-118103927D02*
G01*
X133182812Y-118133624D01*
X133346784Y-118201544D01*
X133494354Y-118300147D01*
X133619853Y-118425646D01*
X133718456Y-118573216D01*
X133786376Y-118737188D01*
X133821000Y-118911259D01*
X133821000Y-119088741D01*
X133786376Y-119262812D01*
X133718456Y-119426784D01*
X133619853Y-119574354D01*
X133494354Y-119699853D01*
X133346784Y-119798456D01*
X133182812Y-119866376D01*
X133033512Y-119896073D01*
X133008742Y-119901000D01*
X132831258Y-119901000D01*
X132806488Y-119896073D01*
X132657188Y-119866376D01*
X132493216Y-119798456D01*
X132345646Y-119699853D01*
X132220147Y-119574354D01*
X132121544Y-119426784D01*
X132053624Y-119262812D01*
X132019000Y-119088741D01*
X132019000Y-118911259D01*
X132053624Y-118737188D01*
X132121544Y-118573216D01*
X132220147Y-118425646D01*
X132345646Y-118300147D01*
X132493216Y-118201544D01*
X132657188Y-118133624D01*
X132806488Y-118103927D01*
X132831258Y-118099000D01*
X133008742Y-118099000D01*
X133033512Y-118103927D01*
X133033512Y-118103927D01*
G37*
G36*
X124193512Y-118103927D02*
G01*
X124342812Y-118133624D01*
X124506784Y-118201544D01*
X124654354Y-118300147D01*
X124779853Y-118425646D01*
X124878456Y-118573216D01*
X124946376Y-118737188D01*
X124981000Y-118911259D01*
X124981000Y-119088741D01*
X124946376Y-119262812D01*
X124878456Y-119426784D01*
X124779853Y-119574354D01*
X124654354Y-119699853D01*
X124506784Y-119798456D01*
X124342812Y-119866376D01*
X124193512Y-119896073D01*
X124168742Y-119901000D01*
X123991258Y-119901000D01*
X123966488Y-119896073D01*
X123817188Y-119866376D01*
X123653216Y-119798456D01*
X123505646Y-119699853D01*
X123380147Y-119574354D01*
X123281544Y-119426784D01*
X123213624Y-119262812D01*
X123179000Y-119088741D01*
X123179000Y-118911259D01*
X123213624Y-118737188D01*
X123281544Y-118573216D01*
X123380147Y-118425646D01*
X123505646Y-118300147D01*
X123653216Y-118201544D01*
X123817188Y-118133624D01*
X123966488Y-118103927D01*
X123991258Y-118099000D01*
X124168742Y-118099000D01*
X124193512Y-118103927D01*
X124193512Y-118103927D01*
G37*
G36*
X114033512Y-118103927D02*
G01*
X114182812Y-118133624D01*
X114346784Y-118201544D01*
X114494354Y-118300147D01*
X114619853Y-118425646D01*
X114718456Y-118573216D01*
X114786376Y-118737188D01*
X114821000Y-118911259D01*
X114821000Y-119088741D01*
X114786376Y-119262812D01*
X114718456Y-119426784D01*
X114619853Y-119574354D01*
X114494354Y-119699853D01*
X114346784Y-119798456D01*
X114182812Y-119866376D01*
X114033512Y-119896073D01*
X114008742Y-119901000D01*
X113831258Y-119901000D01*
X113806488Y-119896073D01*
X113657188Y-119866376D01*
X113493216Y-119798456D01*
X113345646Y-119699853D01*
X113220147Y-119574354D01*
X113121544Y-119426784D01*
X113053624Y-119262812D01*
X113019000Y-119088741D01*
X113019000Y-118911259D01*
X113053624Y-118737188D01*
X113121544Y-118573216D01*
X113220147Y-118425646D01*
X113345646Y-118300147D01*
X113493216Y-118201544D01*
X113657188Y-118133624D01*
X113806488Y-118103927D01*
X113831258Y-118099000D01*
X114008742Y-118099000D01*
X114033512Y-118103927D01*
X114033512Y-118103927D01*
G37*
G36*
X162193512Y-118103927D02*
G01*
X162342812Y-118133624D01*
X162506784Y-118201544D01*
X162654354Y-118300147D01*
X162779853Y-118425646D01*
X162878456Y-118573216D01*
X162946376Y-118737188D01*
X162981000Y-118911259D01*
X162981000Y-119088741D01*
X162946376Y-119262812D01*
X162878456Y-119426784D01*
X162779853Y-119574354D01*
X162654354Y-119699853D01*
X162506784Y-119798456D01*
X162342812Y-119866376D01*
X162193512Y-119896073D01*
X162168742Y-119901000D01*
X161991258Y-119901000D01*
X161966488Y-119896073D01*
X161817188Y-119866376D01*
X161653216Y-119798456D01*
X161505646Y-119699853D01*
X161380147Y-119574354D01*
X161281544Y-119426784D01*
X161213624Y-119262812D01*
X161179000Y-119088741D01*
X161179000Y-118911259D01*
X161213624Y-118737188D01*
X161281544Y-118573216D01*
X161380147Y-118425646D01*
X161505646Y-118300147D01*
X161653216Y-118201544D01*
X161817188Y-118133624D01*
X161966488Y-118103927D01*
X161991258Y-118099000D01*
X162168742Y-118099000D01*
X162193512Y-118103927D01*
X162193512Y-118103927D01*
G37*
G36*
X105193512Y-118103927D02*
G01*
X105342812Y-118133624D01*
X105506784Y-118201544D01*
X105654354Y-118300147D01*
X105779853Y-118425646D01*
X105878456Y-118573216D01*
X105946376Y-118737188D01*
X105981000Y-118911259D01*
X105981000Y-119088741D01*
X105946376Y-119262812D01*
X105878456Y-119426784D01*
X105779853Y-119574354D01*
X105654354Y-119699853D01*
X105506784Y-119798456D01*
X105342812Y-119866376D01*
X105193512Y-119896073D01*
X105168742Y-119901000D01*
X104991258Y-119901000D01*
X104966488Y-119896073D01*
X104817188Y-119866376D01*
X104653216Y-119798456D01*
X104505646Y-119699853D01*
X104380147Y-119574354D01*
X104281544Y-119426784D01*
X104213624Y-119262812D01*
X104179000Y-119088741D01*
X104179000Y-118911259D01*
X104213624Y-118737188D01*
X104281544Y-118573216D01*
X104380147Y-118425646D01*
X104505646Y-118300147D01*
X104653216Y-118201544D01*
X104817188Y-118133624D01*
X104966488Y-118103927D01*
X104991258Y-118099000D01*
X105168742Y-118099000D01*
X105193512Y-118103927D01*
X105193512Y-118103927D01*
G37*
G36*
X95033512Y-118103927D02*
G01*
X95182812Y-118133624D01*
X95346784Y-118201544D01*
X95494354Y-118300147D01*
X95619853Y-118425646D01*
X95718456Y-118573216D01*
X95786376Y-118737188D01*
X95821000Y-118911259D01*
X95821000Y-119088741D01*
X95786376Y-119262812D01*
X95718456Y-119426784D01*
X95619853Y-119574354D01*
X95494354Y-119699853D01*
X95346784Y-119798456D01*
X95182812Y-119866376D01*
X95033512Y-119896073D01*
X95008742Y-119901000D01*
X94831258Y-119901000D01*
X94806488Y-119896073D01*
X94657188Y-119866376D01*
X94493216Y-119798456D01*
X94345646Y-119699853D01*
X94220147Y-119574354D01*
X94121544Y-119426784D01*
X94053624Y-119262812D01*
X94019000Y-119088741D01*
X94019000Y-118911259D01*
X94053624Y-118737188D01*
X94121544Y-118573216D01*
X94220147Y-118425646D01*
X94345646Y-118300147D01*
X94493216Y-118201544D01*
X94657188Y-118133624D01*
X94806488Y-118103927D01*
X94831258Y-118099000D01*
X95008742Y-118099000D01*
X95033512Y-118103927D01*
X95033512Y-118103927D01*
G37*
G36*
X109129525Y-116779906D02*
G01*
X109210494Y-116796011D01*
X109286765Y-116827604D01*
X109363038Y-116859197D01*
X109497438Y-116949000D01*
X109500322Y-116950927D01*
X109617073Y-117067678D01*
X109617075Y-117067681D01*
X109708803Y-117204962D01*
X109771989Y-117357507D01*
X109804200Y-117519443D01*
X109804200Y-117684557D01*
X109771989Y-117846493D01*
X109708803Y-117999038D01*
X109642011Y-118099000D01*
X109617073Y-118136322D01*
X109500322Y-118253073D01*
X109500319Y-118253075D01*
X109363038Y-118344803D01*
X109210494Y-118407989D01*
X109129525Y-118424095D01*
X109048557Y-118440200D01*
X108883443Y-118440200D01*
X108802475Y-118424095D01*
X108721506Y-118407989D01*
X108568962Y-118344803D01*
X108431681Y-118253075D01*
X108431678Y-118253073D01*
X108314927Y-118136322D01*
X108289989Y-118099000D01*
X108223197Y-117999038D01*
X108160011Y-117846493D01*
X108127800Y-117684557D01*
X108127800Y-117519443D01*
X108160011Y-117357507D01*
X108223197Y-117204962D01*
X108314925Y-117067681D01*
X108314927Y-117067678D01*
X108431678Y-116950927D01*
X108434562Y-116949000D01*
X108568962Y-116859197D01*
X108645235Y-116827604D01*
X108721506Y-116796011D01*
X108802475Y-116779906D01*
X108883443Y-116763800D01*
X109048557Y-116763800D01*
X109129525Y-116779906D01*
X109129525Y-116779906D01*
G37*
G36*
X129449525Y-116779906D02*
G01*
X129530494Y-116796011D01*
X129606765Y-116827604D01*
X129683038Y-116859197D01*
X129817438Y-116949000D01*
X129820322Y-116950927D01*
X129937073Y-117067678D01*
X129937075Y-117067681D01*
X130028803Y-117204962D01*
X130091989Y-117357507D01*
X130124200Y-117519443D01*
X130124200Y-117684557D01*
X130091989Y-117846493D01*
X130028803Y-117999038D01*
X129962011Y-118099000D01*
X129937073Y-118136322D01*
X129820322Y-118253073D01*
X129820319Y-118253075D01*
X129683038Y-118344803D01*
X129530494Y-118407989D01*
X129449525Y-118424095D01*
X129368557Y-118440200D01*
X129203443Y-118440200D01*
X129122475Y-118424095D01*
X129041506Y-118407989D01*
X128888962Y-118344803D01*
X128751681Y-118253075D01*
X128751678Y-118253073D01*
X128634927Y-118136322D01*
X128609989Y-118099000D01*
X128543197Y-117999038D01*
X128480011Y-117846493D01*
X128447800Y-117684557D01*
X128447800Y-117519443D01*
X128480011Y-117357507D01*
X128543197Y-117204962D01*
X128634925Y-117067681D01*
X128634927Y-117067678D01*
X128751678Y-116950927D01*
X128754562Y-116949000D01*
X128888962Y-116859197D01*
X128965235Y-116827604D01*
X129041506Y-116796011D01*
X129122475Y-116779906D01*
X129203443Y-116763800D01*
X129368557Y-116763800D01*
X129449525Y-116779906D01*
X129449525Y-116779906D01*
G37*
G36*
X96414549Y-115331116D02*
G01*
X96525734Y-115353232D01*
X96735203Y-115439997D01*
X96923720Y-115565960D01*
X97084040Y-115726280D01*
X97210003Y-115914797D01*
X97296768Y-116124266D01*
X97341000Y-116346636D01*
X97341000Y-116573364D01*
X97296768Y-116795734D01*
X97210003Y-117005203D01*
X97084040Y-117193720D01*
X96923720Y-117354040D01*
X96735203Y-117480003D01*
X96525734Y-117566768D01*
X96414549Y-117588884D01*
X96303365Y-117611000D01*
X96076635Y-117611000D01*
X95965451Y-117588884D01*
X95854266Y-117566768D01*
X95644797Y-117480003D01*
X95456280Y-117354040D01*
X95295960Y-117193720D01*
X95169997Y-117005203D01*
X95083232Y-116795734D01*
X95039000Y-116573364D01*
X95039000Y-116346636D01*
X95083232Y-116124266D01*
X95169997Y-115914797D01*
X95295960Y-115726280D01*
X95456280Y-115565960D01*
X95644797Y-115439997D01*
X95854266Y-115353232D01*
X95965451Y-115331116D01*
X96076635Y-115309000D01*
X96303365Y-115309000D01*
X96414549Y-115331116D01*
X96414549Y-115331116D01*
G37*
G36*
X115414549Y-115331116D02*
G01*
X115525734Y-115353232D01*
X115735203Y-115439997D01*
X115923720Y-115565960D01*
X116084040Y-115726280D01*
X116210003Y-115914797D01*
X116296768Y-116124266D01*
X116341000Y-116346636D01*
X116341000Y-116573364D01*
X116296768Y-116795734D01*
X116210003Y-117005203D01*
X116084040Y-117193720D01*
X115923720Y-117354040D01*
X115735203Y-117480003D01*
X115525734Y-117566768D01*
X115414549Y-117588884D01*
X115303365Y-117611000D01*
X115076635Y-117611000D01*
X114965451Y-117588884D01*
X114854266Y-117566768D01*
X114644797Y-117480003D01*
X114456280Y-117354040D01*
X114295960Y-117193720D01*
X114169997Y-117005203D01*
X114083232Y-116795734D01*
X114039000Y-116573364D01*
X114039000Y-116346636D01*
X114083232Y-116124266D01*
X114169997Y-115914797D01*
X114295960Y-115726280D01*
X114456280Y-115565960D01*
X114644797Y-115439997D01*
X114854266Y-115353232D01*
X114965451Y-115331116D01*
X115076635Y-115309000D01*
X115303365Y-115309000D01*
X115414549Y-115331116D01*
X115414549Y-115331116D01*
G37*
G36*
X134414549Y-115331116D02*
G01*
X134525734Y-115353232D01*
X134735203Y-115439997D01*
X134923720Y-115565960D01*
X135084040Y-115726280D01*
X135210003Y-115914797D01*
X135296768Y-116124266D01*
X135341000Y-116346636D01*
X135341000Y-116573364D01*
X135296768Y-116795734D01*
X135210003Y-117005203D01*
X135084040Y-117193720D01*
X134923720Y-117354040D01*
X134735203Y-117480003D01*
X134525734Y-117566768D01*
X134414549Y-117588884D01*
X134303365Y-117611000D01*
X134076635Y-117611000D01*
X133965451Y-117588884D01*
X133854266Y-117566768D01*
X133644797Y-117480003D01*
X133456280Y-117354040D01*
X133295960Y-117193720D01*
X133169997Y-117005203D01*
X133083232Y-116795734D01*
X133039000Y-116573364D01*
X133039000Y-116346636D01*
X133083232Y-116124266D01*
X133169997Y-115914797D01*
X133295960Y-115726280D01*
X133456280Y-115565960D01*
X133644797Y-115439997D01*
X133854266Y-115353232D01*
X133965451Y-115331116D01*
X134076635Y-115309000D01*
X134303365Y-115309000D01*
X134414549Y-115331116D01*
X134414549Y-115331116D01*
G37*
G36*
X153414549Y-115331116D02*
G01*
X153525734Y-115353232D01*
X153735203Y-115439997D01*
X153923720Y-115565960D01*
X154084040Y-115726280D01*
X154210003Y-115914797D01*
X154296768Y-116124266D01*
X154341000Y-116346636D01*
X154341000Y-116573364D01*
X154296768Y-116795734D01*
X154210003Y-117005203D01*
X154084040Y-117193720D01*
X153923720Y-117354040D01*
X153735203Y-117480003D01*
X153525734Y-117566768D01*
X153414549Y-117588884D01*
X153303365Y-117611000D01*
X153076635Y-117611000D01*
X152965451Y-117588884D01*
X152854266Y-117566768D01*
X152644797Y-117480003D01*
X152456280Y-117354040D01*
X152295960Y-117193720D01*
X152169997Y-117005203D01*
X152083232Y-116795734D01*
X152039000Y-116573364D01*
X152039000Y-116346636D01*
X152083232Y-116124266D01*
X152169997Y-115914797D01*
X152295960Y-115726280D01*
X152456280Y-115565960D01*
X152644797Y-115439997D01*
X152854266Y-115353232D01*
X152965451Y-115331116D01*
X153076635Y-115309000D01*
X153303365Y-115309000D01*
X153414549Y-115331116D01*
X153414549Y-115331116D01*
G37*
G36*
X129449525Y-114239906D02*
G01*
X129530494Y-114256011D01*
X129606765Y-114287604D01*
X129683038Y-114319197D01*
X129819397Y-114410309D01*
X129820322Y-114410927D01*
X129937073Y-114527678D01*
X129937075Y-114527681D01*
X130028803Y-114664962D01*
X130091989Y-114817507D01*
X130124200Y-114979443D01*
X130124200Y-115144557D01*
X130091989Y-115306493D01*
X130028803Y-115459038D01*
X129957360Y-115565960D01*
X129937073Y-115596322D01*
X129820322Y-115713073D01*
X129820319Y-115713075D01*
X129683038Y-115804803D01*
X129530494Y-115867989D01*
X129449525Y-115884095D01*
X129368557Y-115900200D01*
X129203443Y-115900200D01*
X129122475Y-115884095D01*
X129041506Y-115867989D01*
X128888962Y-115804803D01*
X128751681Y-115713075D01*
X128751678Y-115713073D01*
X128634927Y-115596322D01*
X128614640Y-115565960D01*
X128543197Y-115459038D01*
X128480011Y-115306493D01*
X128447800Y-115144557D01*
X128447800Y-114979443D01*
X128480011Y-114817507D01*
X128543197Y-114664962D01*
X128634925Y-114527681D01*
X128634927Y-114527678D01*
X128751678Y-114410927D01*
X128752603Y-114410309D01*
X128888962Y-114319197D01*
X128965235Y-114287604D01*
X129041506Y-114256011D01*
X129122475Y-114239906D01*
X129203443Y-114223800D01*
X129368557Y-114223800D01*
X129449525Y-114239906D01*
X129449525Y-114239906D01*
G37*
G36*
X109129525Y-114239906D02*
G01*
X109210494Y-114256011D01*
X109286765Y-114287604D01*
X109363038Y-114319197D01*
X109499397Y-114410309D01*
X109500322Y-114410927D01*
X109617073Y-114527678D01*
X109617075Y-114527681D01*
X109708803Y-114664962D01*
X109771989Y-114817507D01*
X109804200Y-114979443D01*
X109804200Y-115144557D01*
X109771989Y-115306493D01*
X109708803Y-115459038D01*
X109637360Y-115565960D01*
X109617073Y-115596322D01*
X109500322Y-115713073D01*
X109500319Y-115713075D01*
X109363038Y-115804803D01*
X109210494Y-115867989D01*
X109129525Y-115884095D01*
X109048557Y-115900200D01*
X108883443Y-115900200D01*
X108802475Y-115884095D01*
X108721506Y-115867989D01*
X108568962Y-115804803D01*
X108431681Y-115713075D01*
X108431678Y-115713073D01*
X108314927Y-115596322D01*
X108294640Y-115565960D01*
X108223197Y-115459038D01*
X108160011Y-115306493D01*
X108127800Y-115144557D01*
X108127800Y-114979443D01*
X108160011Y-114817507D01*
X108223197Y-114664962D01*
X108314925Y-114527681D01*
X108314927Y-114527678D01*
X108431678Y-114410927D01*
X108432603Y-114410309D01*
X108568962Y-114319197D01*
X108645235Y-114287604D01*
X108721506Y-114256011D01*
X108802475Y-114239906D01*
X108883443Y-114223800D01*
X109048557Y-114223800D01*
X109129525Y-114239906D01*
X109129525Y-114239906D01*
G37*
G36*
X159758013Y-112789816D02*
G01*
X159875734Y-112813232D01*
X160085203Y-112899997D01*
X160273720Y-113025960D01*
X160434040Y-113186280D01*
X160560003Y-113374797D01*
X160646768Y-113584266D01*
X160691000Y-113806636D01*
X160691000Y-114033364D01*
X160646768Y-114255734D01*
X160560003Y-114465203D01*
X160434040Y-114653720D01*
X160273720Y-114814040D01*
X160085203Y-114940003D01*
X159875734Y-115026768D01*
X159764549Y-115048884D01*
X159653365Y-115071000D01*
X159426635Y-115071000D01*
X159315451Y-115048884D01*
X159204266Y-115026768D01*
X158994797Y-114940003D01*
X158806280Y-114814040D01*
X158645960Y-114653720D01*
X158519997Y-114465203D01*
X158433232Y-114255734D01*
X158389000Y-114033364D01*
X158389000Y-113806636D01*
X158433232Y-113584266D01*
X158519997Y-113374797D01*
X158645960Y-113186280D01*
X158806280Y-113025960D01*
X158994797Y-112899997D01*
X159204266Y-112813232D01*
X159321987Y-112789816D01*
X159426635Y-112769000D01*
X159653365Y-112769000D01*
X159758013Y-112789816D01*
X159758013Y-112789816D01*
G37*
G36*
X140758013Y-112789816D02*
G01*
X140875734Y-112813232D01*
X141085203Y-112899997D01*
X141273720Y-113025960D01*
X141434040Y-113186280D01*
X141560003Y-113374797D01*
X141646768Y-113584266D01*
X141691000Y-113806636D01*
X141691000Y-114033364D01*
X141646768Y-114255734D01*
X141560003Y-114465203D01*
X141434040Y-114653720D01*
X141273720Y-114814040D01*
X141085203Y-114940003D01*
X140875734Y-115026768D01*
X140764549Y-115048884D01*
X140653365Y-115071000D01*
X140426635Y-115071000D01*
X140315451Y-115048884D01*
X140204266Y-115026768D01*
X139994797Y-114940003D01*
X139806280Y-114814040D01*
X139645960Y-114653720D01*
X139519997Y-114465203D01*
X139433232Y-114255734D01*
X139389000Y-114033364D01*
X139389000Y-113806636D01*
X139433232Y-113584266D01*
X139519997Y-113374797D01*
X139645960Y-113186280D01*
X139806280Y-113025960D01*
X139994797Y-112899997D01*
X140204266Y-112813232D01*
X140321987Y-112789816D01*
X140426635Y-112769000D01*
X140653365Y-112769000D01*
X140758013Y-112789816D01*
X140758013Y-112789816D01*
G37*
G36*
X121758013Y-112789816D02*
G01*
X121875734Y-112813232D01*
X122085203Y-112899997D01*
X122273720Y-113025960D01*
X122434040Y-113186280D01*
X122560003Y-113374797D01*
X122646768Y-113584266D01*
X122691000Y-113806636D01*
X122691000Y-114033364D01*
X122646768Y-114255734D01*
X122560003Y-114465203D01*
X122434040Y-114653720D01*
X122273720Y-114814040D01*
X122085203Y-114940003D01*
X121875734Y-115026768D01*
X121764549Y-115048884D01*
X121653365Y-115071000D01*
X121426635Y-115071000D01*
X121315451Y-115048884D01*
X121204266Y-115026768D01*
X120994797Y-114940003D01*
X120806280Y-114814040D01*
X120645960Y-114653720D01*
X120519997Y-114465203D01*
X120433232Y-114255734D01*
X120389000Y-114033364D01*
X120389000Y-113806636D01*
X120433232Y-113584266D01*
X120519997Y-113374797D01*
X120645960Y-113186280D01*
X120806280Y-113025960D01*
X120994797Y-112899997D01*
X121204266Y-112813232D01*
X121321987Y-112789816D01*
X121426635Y-112769000D01*
X121653365Y-112769000D01*
X121758013Y-112789816D01*
X121758013Y-112789816D01*
G37*
G36*
X102758013Y-112789816D02*
G01*
X102875734Y-112813232D01*
X103085203Y-112899997D01*
X103273720Y-113025960D01*
X103434040Y-113186280D01*
X103560003Y-113374797D01*
X103646768Y-113584266D01*
X103691000Y-113806636D01*
X103691000Y-114033364D01*
X103646768Y-114255734D01*
X103560003Y-114465203D01*
X103434040Y-114653720D01*
X103273720Y-114814040D01*
X103085203Y-114940003D01*
X102875734Y-115026768D01*
X102764549Y-115048884D01*
X102653365Y-115071000D01*
X102426635Y-115071000D01*
X102315451Y-115048884D01*
X102204266Y-115026768D01*
X101994797Y-114940003D01*
X101806280Y-114814040D01*
X101645960Y-114653720D01*
X101519997Y-114465203D01*
X101433232Y-114255734D01*
X101389000Y-114033364D01*
X101389000Y-113806636D01*
X101433232Y-113584266D01*
X101519997Y-113374797D01*
X101645960Y-113186280D01*
X101806280Y-113025960D01*
X101994797Y-112899997D01*
X102204266Y-112813232D01*
X102321987Y-112789816D01*
X102426635Y-112769000D01*
X102653365Y-112769000D01*
X102758013Y-112789816D01*
X102758013Y-112789816D01*
G37*
G36*
X129444224Y-111698851D02*
G01*
X129530494Y-111716011D01*
X129683038Y-111779197D01*
X129819397Y-111870309D01*
X129820322Y-111870927D01*
X129937073Y-111987678D01*
X129937075Y-111987681D01*
X130028803Y-112124962D01*
X130028803Y-112124963D01*
X130091989Y-112277506D01*
X130102261Y-112329149D01*
X130124200Y-112439443D01*
X130124200Y-112604557D01*
X130120690Y-112622204D01*
X130091989Y-112766494D01*
X130071544Y-112815852D01*
X130028803Y-112919038D01*
X129957360Y-113025960D01*
X129937073Y-113056322D01*
X129820322Y-113173073D01*
X129820319Y-113173075D01*
X129683038Y-113264803D01*
X129606765Y-113296396D01*
X129530494Y-113327989D01*
X129449525Y-113344095D01*
X129368557Y-113360200D01*
X129203443Y-113360200D01*
X129122475Y-113344095D01*
X129041506Y-113327989D01*
X128965235Y-113296396D01*
X128888962Y-113264803D01*
X128751681Y-113173075D01*
X128751678Y-113173073D01*
X128634927Y-113056322D01*
X128614640Y-113025960D01*
X128543197Y-112919038D01*
X128500456Y-112815852D01*
X128480011Y-112766494D01*
X128451310Y-112622204D01*
X128447800Y-112604557D01*
X128447800Y-112439443D01*
X128469739Y-112329149D01*
X128480011Y-112277506D01*
X128543197Y-112124963D01*
X128543197Y-112124962D01*
X128634925Y-111987681D01*
X128634927Y-111987678D01*
X128751678Y-111870927D01*
X128752603Y-111870309D01*
X128888962Y-111779197D01*
X129041506Y-111716011D01*
X129127776Y-111698851D01*
X129203443Y-111683800D01*
X129368557Y-111683800D01*
X129444224Y-111698851D01*
X129444224Y-111698851D01*
G37*
G36*
X109124224Y-111698851D02*
G01*
X109210494Y-111716011D01*
X109363038Y-111779197D01*
X109499397Y-111870309D01*
X109500322Y-111870927D01*
X109617073Y-111987678D01*
X109617075Y-111987681D01*
X109708803Y-112124962D01*
X109708803Y-112124963D01*
X109771989Y-112277506D01*
X109782261Y-112329149D01*
X109804200Y-112439443D01*
X109804200Y-112604557D01*
X109800690Y-112622204D01*
X109771989Y-112766494D01*
X109751544Y-112815852D01*
X109708803Y-112919038D01*
X109637360Y-113025960D01*
X109617073Y-113056322D01*
X109500322Y-113173073D01*
X109500319Y-113173075D01*
X109363038Y-113264803D01*
X109286765Y-113296396D01*
X109210494Y-113327989D01*
X109129525Y-113344095D01*
X109048557Y-113360200D01*
X108883443Y-113360200D01*
X108802475Y-113344095D01*
X108721506Y-113327989D01*
X108645235Y-113296396D01*
X108568962Y-113264803D01*
X108431681Y-113173075D01*
X108431678Y-113173073D01*
X108314927Y-113056322D01*
X108294640Y-113025960D01*
X108223197Y-112919038D01*
X108180456Y-112815852D01*
X108160011Y-112766494D01*
X108131310Y-112622204D01*
X108127800Y-112604557D01*
X108127800Y-112439443D01*
X108149739Y-112329149D01*
X108160011Y-112277506D01*
X108223197Y-112124963D01*
X108223197Y-112124962D01*
X108314925Y-111987681D01*
X108314927Y-111987678D01*
X108431678Y-111870927D01*
X108432603Y-111870309D01*
X108568962Y-111779197D01*
X108721506Y-111716011D01*
X108807776Y-111698851D01*
X108883443Y-111683800D01*
X109048557Y-111683800D01*
X109124224Y-111698851D01*
X109124224Y-111698851D01*
G37*
G36*
X89901000Y-112915000D02*
G01*
X88099000Y-112915000D01*
X88099000Y-111113000D01*
X89901000Y-111113000D01*
X89901000Y-112915000D01*
X89901000Y-112915000D01*
G37*
G36*
X84045999Y-111213737D02*
G01*
X84055608Y-111216652D01*
X84064472Y-111221390D01*
X84072237Y-111227763D01*
X84082448Y-111240206D01*
X84089378Y-111250575D01*
X84106705Y-111267902D01*
X84127080Y-111281515D01*
X84149720Y-111290891D01*
X84173753Y-111295671D01*
X84198257Y-111295670D01*
X84222290Y-111290888D01*
X84244929Y-111281510D01*
X84265302Y-111267895D01*
X84282629Y-111250568D01*
X84289558Y-111240198D01*
X84299763Y-111227763D01*
X84307528Y-111221390D01*
X84316392Y-111216652D01*
X84326001Y-111213737D01*
X84342140Y-111212148D01*
X84829861Y-111212148D01*
X84848199Y-111213954D01*
X84860450Y-111214556D01*
X84878869Y-111214556D01*
X84901149Y-111216750D01*
X84985233Y-111233476D01*
X85006660Y-111239976D01*
X85085858Y-111272780D01*
X85091303Y-111275691D01*
X85091309Y-111275693D01*
X85100169Y-111280429D01*
X85100173Y-111280432D01*
X85105614Y-111283340D01*
X85176899Y-111330971D01*
X85194204Y-111345172D01*
X85254828Y-111405796D01*
X85269029Y-111423101D01*
X85316660Y-111494386D01*
X85319568Y-111499827D01*
X85319571Y-111499831D01*
X85324307Y-111508691D01*
X85324309Y-111508697D01*
X85327220Y-111514142D01*
X85360024Y-111593340D01*
X85366524Y-111614767D01*
X85383250Y-111698851D01*
X85385444Y-111721131D01*
X85385444Y-111739550D01*
X85386046Y-111751801D01*
X85387852Y-111770139D01*
X85387852Y-112257862D01*
X85386046Y-112276199D01*
X85385444Y-112288450D01*
X85385444Y-112306869D01*
X85383250Y-112329149D01*
X85366524Y-112413233D01*
X85360024Y-112434660D01*
X85327220Y-112513858D01*
X85324309Y-112519303D01*
X85324307Y-112519309D01*
X85319571Y-112528169D01*
X85319568Y-112528173D01*
X85316660Y-112533614D01*
X85269029Y-112604899D01*
X85254828Y-112622204D01*
X85194204Y-112682828D01*
X85176899Y-112697029D01*
X85105614Y-112744660D01*
X85100173Y-112747568D01*
X85100169Y-112747571D01*
X85091309Y-112752307D01*
X85091303Y-112752309D01*
X85085858Y-112755220D01*
X85006660Y-112788024D01*
X84985233Y-112794524D01*
X84901149Y-112811250D01*
X84878869Y-112813444D01*
X84860450Y-112813444D01*
X84848199Y-112814046D01*
X84829862Y-112815852D01*
X84342140Y-112815852D01*
X84326001Y-112814263D01*
X84316392Y-112811348D01*
X84307528Y-112806610D01*
X84299763Y-112800237D01*
X84289552Y-112787794D01*
X84282622Y-112777425D01*
X84265295Y-112760098D01*
X84244920Y-112746485D01*
X84222280Y-112737109D01*
X84198247Y-112732329D01*
X84173743Y-112732330D01*
X84149710Y-112737112D01*
X84127071Y-112746490D01*
X84106698Y-112760105D01*
X84089371Y-112777432D01*
X84082442Y-112787802D01*
X84072237Y-112800237D01*
X84064472Y-112806610D01*
X84055608Y-112811348D01*
X84045999Y-112814263D01*
X84029860Y-112815852D01*
X83542138Y-112815852D01*
X83523801Y-112814046D01*
X83511550Y-112813444D01*
X83493131Y-112813444D01*
X83470851Y-112811250D01*
X83386767Y-112794524D01*
X83365340Y-112788024D01*
X83286142Y-112755220D01*
X83280697Y-112752309D01*
X83280691Y-112752307D01*
X83271831Y-112747571D01*
X83271827Y-112747568D01*
X83266386Y-112744660D01*
X83195101Y-112697029D01*
X83177796Y-112682828D01*
X83117172Y-112622204D01*
X83102971Y-112604899D01*
X83055340Y-112533614D01*
X83052432Y-112528173D01*
X83052429Y-112528169D01*
X83047693Y-112519309D01*
X83047691Y-112519303D01*
X83044780Y-112513858D01*
X83011976Y-112434660D01*
X83005476Y-112413233D01*
X82988750Y-112329149D01*
X82986556Y-112306869D01*
X82986556Y-112288450D01*
X82985954Y-112276199D01*
X82984148Y-112257862D01*
X82984148Y-111770139D01*
X82985954Y-111751801D01*
X82986556Y-111739550D01*
X82986556Y-111721131D01*
X82988750Y-111698851D01*
X83005476Y-111614767D01*
X83011976Y-111593340D01*
X83044780Y-111514142D01*
X83047691Y-111508697D01*
X83047693Y-111508691D01*
X83052429Y-111499831D01*
X83052432Y-111499827D01*
X83055340Y-111494386D01*
X83102971Y-111423101D01*
X83117172Y-111405796D01*
X83177796Y-111345172D01*
X83195101Y-111330971D01*
X83266386Y-111283340D01*
X83271827Y-111280432D01*
X83271831Y-111280429D01*
X83280691Y-111275693D01*
X83280697Y-111275691D01*
X83286142Y-111272780D01*
X83365340Y-111239976D01*
X83386767Y-111233476D01*
X83470851Y-111216750D01*
X83493131Y-111214556D01*
X83511550Y-111214556D01*
X83523801Y-111213954D01*
X83542139Y-111212148D01*
X84029860Y-111212148D01*
X84045999Y-111213737D01*
X84045999Y-111213737D01*
G37*
G36*
X109124224Y-109158851D02*
G01*
X109210494Y-109176011D01*
X109286765Y-109207604D01*
X109363038Y-109239197D01*
X109499397Y-109330309D01*
X109500322Y-109330927D01*
X109617073Y-109447678D01*
X109617075Y-109447681D01*
X109708803Y-109584962D01*
X109708803Y-109584963D01*
X109771989Y-109737506D01*
X109782261Y-109789149D01*
X109804200Y-109899443D01*
X109804200Y-110064557D01*
X109800690Y-110082204D01*
X109771989Y-110226494D01*
X109751544Y-110275852D01*
X109708803Y-110379038D01*
X109617691Y-110515397D01*
X109617073Y-110516322D01*
X109500322Y-110633073D01*
X109500319Y-110633075D01*
X109363038Y-110724803D01*
X109210494Y-110787989D01*
X109129525Y-110804095D01*
X109048557Y-110820200D01*
X108883443Y-110820200D01*
X108802475Y-110804095D01*
X108721506Y-110787989D01*
X108568962Y-110724803D01*
X108431681Y-110633075D01*
X108431678Y-110633073D01*
X108314927Y-110516322D01*
X108314309Y-110515397D01*
X108223197Y-110379038D01*
X108180456Y-110275852D01*
X108160011Y-110226494D01*
X108131310Y-110082204D01*
X108127800Y-110064557D01*
X108127800Y-109899443D01*
X108149739Y-109789149D01*
X108160011Y-109737506D01*
X108223197Y-109584963D01*
X108223197Y-109584962D01*
X108314925Y-109447681D01*
X108314927Y-109447678D01*
X108431678Y-109330927D01*
X108432603Y-109330309D01*
X108568962Y-109239197D01*
X108645235Y-109207604D01*
X108721506Y-109176011D01*
X108807776Y-109158851D01*
X108883443Y-109143800D01*
X109048557Y-109143800D01*
X109124224Y-109158851D01*
X109124224Y-109158851D01*
G37*
G36*
X129444224Y-109158851D02*
G01*
X129530494Y-109176011D01*
X129606765Y-109207604D01*
X129683038Y-109239197D01*
X129819397Y-109330309D01*
X129820322Y-109330927D01*
X129937073Y-109447678D01*
X129937075Y-109447681D01*
X130028803Y-109584962D01*
X130028803Y-109584963D01*
X130091989Y-109737506D01*
X130102261Y-109789149D01*
X130124200Y-109899443D01*
X130124200Y-110064557D01*
X130120690Y-110082204D01*
X130091989Y-110226494D01*
X130071544Y-110275852D01*
X130028803Y-110379038D01*
X129937691Y-110515397D01*
X129937073Y-110516322D01*
X129820322Y-110633073D01*
X129820319Y-110633075D01*
X129683038Y-110724803D01*
X129530494Y-110787989D01*
X129449525Y-110804095D01*
X129368557Y-110820200D01*
X129203443Y-110820200D01*
X129122475Y-110804095D01*
X129041506Y-110787989D01*
X128888962Y-110724803D01*
X128751681Y-110633075D01*
X128751678Y-110633073D01*
X128634927Y-110516322D01*
X128634309Y-110515397D01*
X128543197Y-110379038D01*
X128500456Y-110275852D01*
X128480011Y-110226494D01*
X128451310Y-110082204D01*
X128447800Y-110064557D01*
X128447800Y-109899443D01*
X128469739Y-109789149D01*
X128480011Y-109737506D01*
X128543197Y-109584963D01*
X128543197Y-109584962D01*
X128634925Y-109447681D01*
X128634927Y-109447678D01*
X128751678Y-109330927D01*
X128752603Y-109330309D01*
X128888962Y-109239197D01*
X128965235Y-109207604D01*
X129041506Y-109176011D01*
X129127776Y-109158851D01*
X129203443Y-109143800D01*
X129368557Y-109143800D01*
X129444224Y-109158851D01*
X129444224Y-109158851D01*
G37*
G36*
X89110442Y-108579518D02*
G01*
X89176627Y-108586037D01*
X89346466Y-108637557D01*
X89346468Y-108637558D01*
X89414155Y-108673738D01*
X89502991Y-108721222D01*
X89538729Y-108750552D01*
X89640186Y-108833814D01*
X89723448Y-108935271D01*
X89752778Y-108971009D01*
X89836443Y-109127534D01*
X89887963Y-109297373D01*
X89905359Y-109474000D01*
X89887963Y-109650627D01*
X89836443Y-109820466D01*
X89752778Y-109976991D01*
X89723448Y-110012729D01*
X89640186Y-110114186D01*
X89544967Y-110192329D01*
X89502991Y-110226778D01*
X89502989Y-110226779D01*
X89414154Y-110274263D01*
X89346466Y-110310443D01*
X89176627Y-110361963D01*
X89110442Y-110368482D01*
X89044260Y-110375000D01*
X88955740Y-110375000D01*
X88889558Y-110368482D01*
X88823373Y-110361963D01*
X88653534Y-110310443D01*
X88585847Y-110274263D01*
X88497011Y-110226779D01*
X88497009Y-110226778D01*
X88455033Y-110192329D01*
X88359814Y-110114186D01*
X88276552Y-110012729D01*
X88247222Y-109976991D01*
X88163557Y-109820466D01*
X88112037Y-109650627D01*
X88094641Y-109474000D01*
X88112037Y-109297373D01*
X88163557Y-109127534D01*
X88247222Y-108971009D01*
X88276552Y-108935271D01*
X88359814Y-108833814D01*
X88461271Y-108750552D01*
X88497009Y-108721222D01*
X88585845Y-108673738D01*
X88653532Y-108637558D01*
X88653534Y-108637557D01*
X88823373Y-108586037D01*
X88889558Y-108579518D01*
X88955740Y-108573000D01*
X89044260Y-108573000D01*
X89110442Y-108579518D01*
X89110442Y-108579518D01*
G37*
G36*
X84045999Y-108673737D02*
G01*
X84055608Y-108676652D01*
X84064472Y-108681390D01*
X84072237Y-108687763D01*
X84082448Y-108700206D01*
X84089378Y-108710575D01*
X84106705Y-108727902D01*
X84127080Y-108741515D01*
X84149720Y-108750891D01*
X84173753Y-108755671D01*
X84198257Y-108755670D01*
X84222290Y-108750888D01*
X84244929Y-108741510D01*
X84265302Y-108727895D01*
X84282629Y-108710568D01*
X84289558Y-108700198D01*
X84299763Y-108687763D01*
X84307528Y-108681390D01*
X84316392Y-108676652D01*
X84326001Y-108673737D01*
X84342140Y-108672148D01*
X84829861Y-108672148D01*
X84848199Y-108673954D01*
X84860450Y-108674556D01*
X84878869Y-108674556D01*
X84901149Y-108676750D01*
X84985233Y-108693476D01*
X85006660Y-108699976D01*
X85085858Y-108732780D01*
X85091303Y-108735691D01*
X85091309Y-108735693D01*
X85100169Y-108740429D01*
X85100173Y-108740432D01*
X85105614Y-108743340D01*
X85176899Y-108790971D01*
X85194204Y-108805172D01*
X85254828Y-108865796D01*
X85269029Y-108883101D01*
X85316660Y-108954386D01*
X85319568Y-108959827D01*
X85319571Y-108959831D01*
X85324307Y-108968691D01*
X85324309Y-108968697D01*
X85327220Y-108974142D01*
X85360024Y-109053340D01*
X85366524Y-109074767D01*
X85383250Y-109158851D01*
X85385444Y-109181131D01*
X85385444Y-109199550D01*
X85386046Y-109211801D01*
X85387852Y-109230139D01*
X85387852Y-109717862D01*
X85386046Y-109736199D01*
X85385444Y-109748450D01*
X85385444Y-109766869D01*
X85383250Y-109789149D01*
X85366524Y-109873233D01*
X85360024Y-109894660D01*
X85327220Y-109973858D01*
X85324309Y-109979303D01*
X85324307Y-109979309D01*
X85319571Y-109988169D01*
X85319568Y-109988173D01*
X85316660Y-109993614D01*
X85269029Y-110064899D01*
X85254828Y-110082204D01*
X85194204Y-110142828D01*
X85176899Y-110157029D01*
X85105614Y-110204660D01*
X85100173Y-110207568D01*
X85100169Y-110207571D01*
X85091309Y-110212307D01*
X85091303Y-110212309D01*
X85085858Y-110215220D01*
X85006660Y-110248024D01*
X84985233Y-110254524D01*
X84901149Y-110271250D01*
X84878869Y-110273444D01*
X84860450Y-110273444D01*
X84848199Y-110274046D01*
X84829862Y-110275852D01*
X84342140Y-110275852D01*
X84326001Y-110274263D01*
X84316392Y-110271348D01*
X84307528Y-110266610D01*
X84299763Y-110260237D01*
X84289552Y-110247794D01*
X84282622Y-110237425D01*
X84265295Y-110220098D01*
X84244920Y-110206485D01*
X84222280Y-110197109D01*
X84198247Y-110192329D01*
X84173743Y-110192330D01*
X84149710Y-110197112D01*
X84127071Y-110206490D01*
X84106698Y-110220105D01*
X84089371Y-110237432D01*
X84082442Y-110247802D01*
X84072237Y-110260237D01*
X84064472Y-110266610D01*
X84055608Y-110271348D01*
X84045999Y-110274263D01*
X84029860Y-110275852D01*
X83542138Y-110275852D01*
X83523801Y-110274046D01*
X83511550Y-110273444D01*
X83493131Y-110273444D01*
X83470851Y-110271250D01*
X83386767Y-110254524D01*
X83365340Y-110248024D01*
X83286142Y-110215220D01*
X83280697Y-110212309D01*
X83280691Y-110212307D01*
X83271831Y-110207571D01*
X83271827Y-110207568D01*
X83266386Y-110204660D01*
X83195101Y-110157029D01*
X83177796Y-110142828D01*
X83117172Y-110082204D01*
X83102971Y-110064899D01*
X83055340Y-109993614D01*
X83052432Y-109988173D01*
X83052429Y-109988169D01*
X83047693Y-109979309D01*
X83047691Y-109979303D01*
X83044780Y-109973858D01*
X83011976Y-109894660D01*
X83005476Y-109873233D01*
X82988750Y-109789149D01*
X82986556Y-109766869D01*
X82986556Y-109748450D01*
X82985954Y-109736199D01*
X82984148Y-109717862D01*
X82984148Y-109230139D01*
X82985954Y-109211801D01*
X82986556Y-109199550D01*
X82986556Y-109181131D01*
X82988750Y-109158851D01*
X83005476Y-109074767D01*
X83011976Y-109053340D01*
X83044780Y-108974142D01*
X83047691Y-108968697D01*
X83047693Y-108968691D01*
X83052429Y-108959831D01*
X83052432Y-108959827D01*
X83055340Y-108954386D01*
X83102971Y-108883101D01*
X83117172Y-108865796D01*
X83177796Y-108805172D01*
X83195101Y-108790971D01*
X83266386Y-108743340D01*
X83271827Y-108740432D01*
X83271831Y-108740429D01*
X83280691Y-108735693D01*
X83280697Y-108735691D01*
X83286142Y-108732780D01*
X83365340Y-108699976D01*
X83386767Y-108693476D01*
X83470851Y-108676750D01*
X83493131Y-108674556D01*
X83511550Y-108674556D01*
X83523801Y-108673954D01*
X83542139Y-108672148D01*
X84029860Y-108672148D01*
X84045999Y-108673737D01*
X84045999Y-108673737D01*
G37*
G36*
X109124224Y-106618851D02*
G01*
X109210494Y-106636011D01*
X109363038Y-106699197D01*
X109499397Y-106790309D01*
X109500322Y-106790927D01*
X109617073Y-106907678D01*
X109617075Y-106907681D01*
X109708803Y-107044962D01*
X109708803Y-107044963D01*
X109771989Y-107197506D01*
X109782261Y-107249149D01*
X109804200Y-107359443D01*
X109804200Y-107524557D01*
X109800690Y-107542204D01*
X109771989Y-107686494D01*
X109751544Y-107735852D01*
X109708803Y-107839038D01*
X109617691Y-107975397D01*
X109617073Y-107976322D01*
X109500322Y-108093073D01*
X109500319Y-108093075D01*
X109363038Y-108184803D01*
X109286765Y-108216396D01*
X109210494Y-108247989D01*
X109129525Y-108264094D01*
X109048557Y-108280200D01*
X108883443Y-108280200D01*
X108802475Y-108264094D01*
X108721506Y-108247989D01*
X108568962Y-108184803D01*
X108431681Y-108093075D01*
X108431678Y-108093073D01*
X108314927Y-107976322D01*
X108314309Y-107975397D01*
X108223197Y-107839038D01*
X108180456Y-107735852D01*
X108160011Y-107686494D01*
X108131310Y-107542204D01*
X108127800Y-107524557D01*
X108127800Y-107359443D01*
X108149739Y-107249149D01*
X108160011Y-107197506D01*
X108223197Y-107044963D01*
X108223197Y-107044962D01*
X108314925Y-106907681D01*
X108314927Y-106907678D01*
X108431678Y-106790927D01*
X108432603Y-106790309D01*
X108568962Y-106699197D01*
X108721506Y-106636011D01*
X108807776Y-106618851D01*
X108883443Y-106603800D01*
X109048557Y-106603800D01*
X109124224Y-106618851D01*
X109124224Y-106618851D01*
G37*
G36*
X129444224Y-106618851D02*
G01*
X129530494Y-106636011D01*
X129683038Y-106699197D01*
X129819397Y-106790309D01*
X129820322Y-106790927D01*
X129937073Y-106907678D01*
X129937075Y-106907681D01*
X130028803Y-107044962D01*
X130028803Y-107044963D01*
X130091989Y-107197506D01*
X130102261Y-107249149D01*
X130124200Y-107359443D01*
X130124200Y-107524557D01*
X130120690Y-107542204D01*
X130091989Y-107686494D01*
X130071544Y-107735852D01*
X130028803Y-107839038D01*
X129937691Y-107975397D01*
X129937073Y-107976322D01*
X129820322Y-108093073D01*
X129820319Y-108093075D01*
X129683038Y-108184803D01*
X129606765Y-108216396D01*
X129530494Y-108247989D01*
X129449525Y-108264094D01*
X129368557Y-108280200D01*
X129203443Y-108280200D01*
X129122475Y-108264094D01*
X129041506Y-108247989D01*
X128888962Y-108184803D01*
X128751681Y-108093075D01*
X128751678Y-108093073D01*
X128634927Y-107976322D01*
X128634309Y-107975397D01*
X128543197Y-107839038D01*
X128500456Y-107735852D01*
X128480011Y-107686494D01*
X128451310Y-107542204D01*
X128447800Y-107524557D01*
X128447800Y-107359443D01*
X128469739Y-107249149D01*
X128480011Y-107197506D01*
X128543197Y-107044963D01*
X128543197Y-107044962D01*
X128634925Y-106907681D01*
X128634927Y-106907678D01*
X128751678Y-106790927D01*
X128752603Y-106790309D01*
X128888962Y-106699197D01*
X129041506Y-106636011D01*
X129127776Y-106618851D01*
X129203443Y-106603800D01*
X129368557Y-106603800D01*
X129444224Y-106618851D01*
X129444224Y-106618851D01*
G37*
G36*
X89110443Y-106039519D02*
G01*
X89176627Y-106046037D01*
X89346466Y-106097557D01*
X89346468Y-106097558D01*
X89414155Y-106133738D01*
X89502991Y-106181222D01*
X89538729Y-106210552D01*
X89640186Y-106293814D01*
X89723448Y-106395271D01*
X89752778Y-106431009D01*
X89836443Y-106587534D01*
X89887963Y-106757373D01*
X89905359Y-106934000D01*
X89887963Y-107110627D01*
X89836443Y-107280466D01*
X89752778Y-107436991D01*
X89723448Y-107472729D01*
X89640186Y-107574186D01*
X89544967Y-107652329D01*
X89502991Y-107686778D01*
X89502989Y-107686779D01*
X89414154Y-107734263D01*
X89346466Y-107770443D01*
X89176627Y-107821963D01*
X89110443Y-107828481D01*
X89044260Y-107835000D01*
X88955740Y-107835000D01*
X88889557Y-107828481D01*
X88823373Y-107821963D01*
X88653534Y-107770443D01*
X88585847Y-107734263D01*
X88497011Y-107686779D01*
X88497009Y-107686778D01*
X88455033Y-107652329D01*
X88359814Y-107574186D01*
X88276552Y-107472729D01*
X88247222Y-107436991D01*
X88163557Y-107280466D01*
X88112037Y-107110627D01*
X88094641Y-106934000D01*
X88112037Y-106757373D01*
X88163557Y-106587534D01*
X88247222Y-106431009D01*
X88276552Y-106395271D01*
X88359814Y-106293814D01*
X88461271Y-106210552D01*
X88497009Y-106181222D01*
X88585845Y-106133738D01*
X88653532Y-106097558D01*
X88653534Y-106097557D01*
X88823373Y-106046037D01*
X88889557Y-106039519D01*
X88955740Y-106033000D01*
X89044260Y-106033000D01*
X89110443Y-106039519D01*
X89110443Y-106039519D01*
G37*
G36*
X84045999Y-106133737D02*
G01*
X84055608Y-106136652D01*
X84064472Y-106141390D01*
X84072237Y-106147763D01*
X84082448Y-106160206D01*
X84089378Y-106170575D01*
X84106705Y-106187902D01*
X84127080Y-106201515D01*
X84149720Y-106210891D01*
X84173753Y-106215671D01*
X84198257Y-106215670D01*
X84222290Y-106210888D01*
X84244929Y-106201510D01*
X84265302Y-106187895D01*
X84282629Y-106170568D01*
X84289558Y-106160198D01*
X84299763Y-106147763D01*
X84307528Y-106141390D01*
X84316392Y-106136652D01*
X84326001Y-106133737D01*
X84342140Y-106132148D01*
X84829861Y-106132148D01*
X84848199Y-106133954D01*
X84860450Y-106134556D01*
X84878869Y-106134556D01*
X84901149Y-106136750D01*
X84985233Y-106153476D01*
X85006660Y-106159976D01*
X85085858Y-106192780D01*
X85091303Y-106195691D01*
X85091309Y-106195693D01*
X85100169Y-106200429D01*
X85100173Y-106200432D01*
X85105614Y-106203340D01*
X85176899Y-106250971D01*
X85194204Y-106265172D01*
X85254828Y-106325796D01*
X85269029Y-106343101D01*
X85316660Y-106414386D01*
X85319568Y-106419827D01*
X85319571Y-106419831D01*
X85324307Y-106428691D01*
X85324309Y-106428697D01*
X85327220Y-106434142D01*
X85360024Y-106513340D01*
X85366524Y-106534767D01*
X85383250Y-106618851D01*
X85385444Y-106641131D01*
X85385444Y-106659550D01*
X85386046Y-106671801D01*
X85387852Y-106690139D01*
X85387852Y-107177862D01*
X85386046Y-107196199D01*
X85385444Y-107208450D01*
X85385444Y-107226869D01*
X85383250Y-107249149D01*
X85366524Y-107333233D01*
X85360024Y-107354660D01*
X85327220Y-107433858D01*
X85324309Y-107439303D01*
X85324307Y-107439309D01*
X85319571Y-107448169D01*
X85319568Y-107448173D01*
X85316660Y-107453614D01*
X85269029Y-107524899D01*
X85254828Y-107542204D01*
X85194204Y-107602828D01*
X85176899Y-107617029D01*
X85105614Y-107664660D01*
X85100173Y-107667568D01*
X85100169Y-107667571D01*
X85091309Y-107672307D01*
X85091303Y-107672309D01*
X85085858Y-107675220D01*
X85006660Y-107708024D01*
X84985233Y-107714524D01*
X84901149Y-107731250D01*
X84878869Y-107733444D01*
X84860450Y-107733444D01*
X84848199Y-107734046D01*
X84829862Y-107735852D01*
X84342140Y-107735852D01*
X84326001Y-107734263D01*
X84316392Y-107731348D01*
X84307528Y-107726610D01*
X84299763Y-107720237D01*
X84289552Y-107707794D01*
X84282622Y-107697425D01*
X84265295Y-107680098D01*
X84244920Y-107666485D01*
X84222280Y-107657109D01*
X84198247Y-107652329D01*
X84173743Y-107652330D01*
X84149710Y-107657112D01*
X84127071Y-107666490D01*
X84106698Y-107680105D01*
X84089371Y-107697432D01*
X84082442Y-107707802D01*
X84072237Y-107720237D01*
X84064472Y-107726610D01*
X84055608Y-107731348D01*
X84045999Y-107734263D01*
X84029860Y-107735852D01*
X83542138Y-107735852D01*
X83523801Y-107734046D01*
X83511550Y-107733444D01*
X83493131Y-107733444D01*
X83470851Y-107731250D01*
X83386767Y-107714524D01*
X83365340Y-107708024D01*
X83286142Y-107675220D01*
X83280697Y-107672309D01*
X83280691Y-107672307D01*
X83271831Y-107667571D01*
X83271827Y-107667568D01*
X83266386Y-107664660D01*
X83195101Y-107617029D01*
X83177796Y-107602828D01*
X83117172Y-107542204D01*
X83102971Y-107524899D01*
X83055340Y-107453614D01*
X83052432Y-107448173D01*
X83052429Y-107448169D01*
X83047693Y-107439309D01*
X83047691Y-107439303D01*
X83044780Y-107433858D01*
X83011976Y-107354660D01*
X83005476Y-107333233D01*
X82988750Y-107249149D01*
X82986556Y-107226869D01*
X82986556Y-107208450D01*
X82985954Y-107196199D01*
X82984148Y-107177862D01*
X82984148Y-106690139D01*
X82985954Y-106671801D01*
X82986556Y-106659550D01*
X82986556Y-106641131D01*
X82988750Y-106618851D01*
X83005476Y-106534767D01*
X83011976Y-106513340D01*
X83044780Y-106434142D01*
X83047691Y-106428697D01*
X83047693Y-106428691D01*
X83052429Y-106419831D01*
X83052432Y-106419827D01*
X83055340Y-106414386D01*
X83102971Y-106343101D01*
X83117172Y-106325796D01*
X83177796Y-106265172D01*
X83195101Y-106250971D01*
X83266386Y-106203340D01*
X83271827Y-106200432D01*
X83271831Y-106200429D01*
X83280691Y-106195693D01*
X83280697Y-106195691D01*
X83286142Y-106192780D01*
X83365340Y-106159976D01*
X83386767Y-106153476D01*
X83470851Y-106136750D01*
X83493131Y-106134556D01*
X83511550Y-106134556D01*
X83523801Y-106133954D01*
X83542139Y-106132148D01*
X84029860Y-106132148D01*
X84045999Y-106133737D01*
X84045999Y-106133737D01*
G37*
G36*
X109124224Y-104078851D02*
G01*
X109210494Y-104096011D01*
X109286765Y-104127604D01*
X109363038Y-104159197D01*
X109499397Y-104250309D01*
X109500322Y-104250927D01*
X109617073Y-104367678D01*
X109617075Y-104367681D01*
X109708803Y-104504962D01*
X109708803Y-104504963D01*
X109771989Y-104657506D01*
X109782261Y-104709149D01*
X109804200Y-104819443D01*
X109804200Y-104984557D01*
X109800690Y-105002204D01*
X109771989Y-105146494D01*
X109751544Y-105195852D01*
X109708803Y-105299038D01*
X109617691Y-105435397D01*
X109617073Y-105436322D01*
X109500322Y-105553073D01*
X109500319Y-105553075D01*
X109363038Y-105644803D01*
X109210494Y-105707989D01*
X109129525Y-105724094D01*
X109048557Y-105740200D01*
X108883443Y-105740200D01*
X108802475Y-105724094D01*
X108721506Y-105707989D01*
X108568962Y-105644803D01*
X108431681Y-105553075D01*
X108431678Y-105553073D01*
X108314927Y-105436322D01*
X108314309Y-105435397D01*
X108223197Y-105299038D01*
X108180456Y-105195852D01*
X108160011Y-105146494D01*
X108131310Y-105002204D01*
X108127800Y-104984557D01*
X108127800Y-104819443D01*
X108149739Y-104709149D01*
X108160011Y-104657506D01*
X108223197Y-104504963D01*
X108223197Y-104504962D01*
X108314925Y-104367681D01*
X108314927Y-104367678D01*
X108431678Y-104250927D01*
X108432603Y-104250309D01*
X108568962Y-104159197D01*
X108645235Y-104127604D01*
X108721506Y-104096011D01*
X108807776Y-104078851D01*
X108883443Y-104063800D01*
X109048557Y-104063800D01*
X109124224Y-104078851D01*
X109124224Y-104078851D01*
G37*
G36*
X129444224Y-104078851D02*
G01*
X129530494Y-104096011D01*
X129606765Y-104127604D01*
X129683038Y-104159197D01*
X129819397Y-104250309D01*
X129820322Y-104250927D01*
X129937073Y-104367678D01*
X129937075Y-104367681D01*
X130028803Y-104504962D01*
X130028803Y-104504963D01*
X130091989Y-104657506D01*
X130102261Y-104709149D01*
X130124200Y-104819443D01*
X130124200Y-104984557D01*
X130120690Y-105002204D01*
X130091989Y-105146494D01*
X130071544Y-105195852D01*
X130028803Y-105299038D01*
X129937691Y-105435397D01*
X129937073Y-105436322D01*
X129820322Y-105553073D01*
X129820319Y-105553075D01*
X129683038Y-105644803D01*
X129530494Y-105707989D01*
X129449525Y-105724094D01*
X129368557Y-105740200D01*
X129203443Y-105740200D01*
X129122475Y-105724094D01*
X129041506Y-105707989D01*
X128888962Y-105644803D01*
X128751681Y-105553075D01*
X128751678Y-105553073D01*
X128634927Y-105436322D01*
X128634309Y-105435397D01*
X128543197Y-105299038D01*
X128500456Y-105195852D01*
X128480011Y-105146494D01*
X128451310Y-105002204D01*
X128447800Y-104984557D01*
X128447800Y-104819443D01*
X128469739Y-104709149D01*
X128480011Y-104657506D01*
X128543197Y-104504963D01*
X128543197Y-104504962D01*
X128634925Y-104367681D01*
X128634927Y-104367678D01*
X128751678Y-104250927D01*
X128752603Y-104250309D01*
X128888962Y-104159197D01*
X128965235Y-104127604D01*
X129041506Y-104096011D01*
X129127776Y-104078851D01*
X129203443Y-104063800D01*
X129368557Y-104063800D01*
X129444224Y-104078851D01*
X129444224Y-104078851D01*
G37*
G36*
X89110442Y-103499518D02*
G01*
X89176627Y-103506037D01*
X89346466Y-103557557D01*
X89346468Y-103557558D01*
X89414155Y-103593738D01*
X89502991Y-103641222D01*
X89538729Y-103670552D01*
X89640186Y-103753814D01*
X89723448Y-103855271D01*
X89752778Y-103891009D01*
X89836443Y-104047534D01*
X89887963Y-104217373D01*
X89905359Y-104394000D01*
X89887963Y-104570627D01*
X89836443Y-104740466D01*
X89752778Y-104896991D01*
X89723448Y-104932729D01*
X89640186Y-105034186D01*
X89544967Y-105112329D01*
X89502991Y-105146778D01*
X89502989Y-105146779D01*
X89414154Y-105194263D01*
X89346466Y-105230443D01*
X89176627Y-105281963D01*
X89110443Y-105288481D01*
X89044260Y-105295000D01*
X88955740Y-105295000D01*
X88889558Y-105288482D01*
X88823373Y-105281963D01*
X88653534Y-105230443D01*
X88585847Y-105194263D01*
X88497011Y-105146779D01*
X88497009Y-105146778D01*
X88455033Y-105112329D01*
X88359814Y-105034186D01*
X88276552Y-104932729D01*
X88247222Y-104896991D01*
X88163557Y-104740466D01*
X88112037Y-104570627D01*
X88094641Y-104394000D01*
X88112037Y-104217373D01*
X88163557Y-104047534D01*
X88247222Y-103891009D01*
X88276552Y-103855271D01*
X88359814Y-103753814D01*
X88461271Y-103670552D01*
X88497009Y-103641222D01*
X88585845Y-103593738D01*
X88653532Y-103557558D01*
X88653534Y-103557557D01*
X88823373Y-103506037D01*
X88889557Y-103499519D01*
X88955740Y-103493000D01*
X89044260Y-103493000D01*
X89110442Y-103499518D01*
X89110442Y-103499518D01*
G37*
G36*
X84045999Y-103593737D02*
G01*
X84055608Y-103596652D01*
X84064472Y-103601390D01*
X84072237Y-103607763D01*
X84082448Y-103620206D01*
X84089378Y-103630575D01*
X84106705Y-103647902D01*
X84127080Y-103661515D01*
X84149720Y-103670891D01*
X84173753Y-103675671D01*
X84198257Y-103675670D01*
X84222290Y-103670888D01*
X84244929Y-103661510D01*
X84265302Y-103647895D01*
X84282629Y-103630568D01*
X84289558Y-103620198D01*
X84299763Y-103607763D01*
X84307528Y-103601390D01*
X84316392Y-103596652D01*
X84326001Y-103593737D01*
X84342140Y-103592148D01*
X84829861Y-103592148D01*
X84848199Y-103593954D01*
X84860450Y-103594556D01*
X84878869Y-103594556D01*
X84901149Y-103596750D01*
X84985233Y-103613476D01*
X85006660Y-103619976D01*
X85085858Y-103652780D01*
X85091303Y-103655691D01*
X85091309Y-103655693D01*
X85100169Y-103660429D01*
X85100173Y-103660432D01*
X85105614Y-103663340D01*
X85176899Y-103710971D01*
X85194204Y-103725172D01*
X85254828Y-103785796D01*
X85269029Y-103803101D01*
X85316660Y-103874386D01*
X85319568Y-103879827D01*
X85319571Y-103879831D01*
X85324307Y-103888691D01*
X85324309Y-103888697D01*
X85327220Y-103894142D01*
X85360024Y-103973340D01*
X85366524Y-103994767D01*
X85383250Y-104078851D01*
X85385444Y-104101131D01*
X85385444Y-104119550D01*
X85386046Y-104131801D01*
X85387852Y-104150139D01*
X85387852Y-104637862D01*
X85386046Y-104656199D01*
X85385444Y-104668450D01*
X85385444Y-104686869D01*
X85383250Y-104709149D01*
X85366524Y-104793233D01*
X85360024Y-104814660D01*
X85327220Y-104893858D01*
X85324309Y-104899303D01*
X85324307Y-104899309D01*
X85319571Y-104908169D01*
X85319568Y-104908173D01*
X85316660Y-104913614D01*
X85269029Y-104984899D01*
X85254828Y-105002204D01*
X85194204Y-105062828D01*
X85176899Y-105077029D01*
X85105614Y-105124660D01*
X85100173Y-105127568D01*
X85100169Y-105127571D01*
X85091309Y-105132307D01*
X85091303Y-105132309D01*
X85085858Y-105135220D01*
X85006660Y-105168024D01*
X84985233Y-105174524D01*
X84901149Y-105191250D01*
X84878869Y-105193444D01*
X84860450Y-105193444D01*
X84848199Y-105194046D01*
X84829862Y-105195852D01*
X84342140Y-105195852D01*
X84326001Y-105194263D01*
X84316392Y-105191348D01*
X84307528Y-105186610D01*
X84299763Y-105180237D01*
X84289552Y-105167794D01*
X84282622Y-105157425D01*
X84265295Y-105140098D01*
X84244920Y-105126485D01*
X84222280Y-105117109D01*
X84198247Y-105112329D01*
X84173743Y-105112330D01*
X84149710Y-105117112D01*
X84127071Y-105126490D01*
X84106698Y-105140105D01*
X84089371Y-105157432D01*
X84082442Y-105167802D01*
X84072237Y-105180237D01*
X84064472Y-105186610D01*
X84055608Y-105191348D01*
X84045999Y-105194263D01*
X84029860Y-105195852D01*
X83542138Y-105195852D01*
X83523801Y-105194046D01*
X83511550Y-105193444D01*
X83493131Y-105193444D01*
X83470851Y-105191250D01*
X83386767Y-105174524D01*
X83365340Y-105168024D01*
X83286142Y-105135220D01*
X83280697Y-105132309D01*
X83280691Y-105132307D01*
X83271831Y-105127571D01*
X83271827Y-105127568D01*
X83266386Y-105124660D01*
X83195101Y-105077029D01*
X83177796Y-105062828D01*
X83117172Y-105002204D01*
X83102971Y-104984899D01*
X83055340Y-104913614D01*
X83052432Y-104908173D01*
X83052429Y-104908169D01*
X83047693Y-104899309D01*
X83047691Y-104899303D01*
X83044780Y-104893858D01*
X83011976Y-104814660D01*
X83005476Y-104793233D01*
X82988750Y-104709149D01*
X82986556Y-104686869D01*
X82986556Y-104668450D01*
X82985954Y-104656199D01*
X82984148Y-104637862D01*
X82984148Y-104150139D01*
X82985954Y-104131801D01*
X82986556Y-104119550D01*
X82986556Y-104101131D01*
X82988750Y-104078851D01*
X83005476Y-103994767D01*
X83011976Y-103973340D01*
X83044780Y-103894142D01*
X83047691Y-103888697D01*
X83047693Y-103888691D01*
X83052429Y-103879831D01*
X83052432Y-103879827D01*
X83055340Y-103874386D01*
X83102971Y-103803101D01*
X83117172Y-103785796D01*
X83177796Y-103725172D01*
X83195101Y-103710971D01*
X83266386Y-103663340D01*
X83271827Y-103660432D01*
X83271831Y-103660429D01*
X83280691Y-103655693D01*
X83280697Y-103655691D01*
X83286142Y-103652780D01*
X83365340Y-103619976D01*
X83386767Y-103613476D01*
X83470851Y-103596750D01*
X83493131Y-103594556D01*
X83511550Y-103594556D01*
X83523801Y-103593954D01*
X83542139Y-103592148D01*
X84029860Y-103592148D01*
X84045999Y-103593737D01*
X84045999Y-103593737D01*
G37*
G36*
X129444224Y-101538851D02*
G01*
X129530494Y-101556011D01*
X129683038Y-101619197D01*
X129819397Y-101710309D01*
X129820322Y-101710927D01*
X129937073Y-101827678D01*
X129937075Y-101827681D01*
X130028803Y-101964962D01*
X130056001Y-102030625D01*
X130091989Y-102117506D01*
X130102261Y-102169149D01*
X130124200Y-102279443D01*
X130124200Y-102444557D01*
X130120690Y-102462204D01*
X130091989Y-102606494D01*
X130071544Y-102655852D01*
X130028803Y-102759038D01*
X129937691Y-102895397D01*
X129937073Y-102896322D01*
X129820322Y-103013073D01*
X129820319Y-103013075D01*
X129683038Y-103104803D01*
X129606765Y-103136396D01*
X129530494Y-103167989D01*
X129449525Y-103184094D01*
X129368557Y-103200200D01*
X129203443Y-103200200D01*
X129122475Y-103184094D01*
X129041506Y-103167989D01*
X128965235Y-103136396D01*
X128888962Y-103104803D01*
X128751681Y-103013075D01*
X128751678Y-103013073D01*
X128634927Y-102896322D01*
X128634309Y-102895397D01*
X128543197Y-102759038D01*
X128500456Y-102655852D01*
X128480011Y-102606494D01*
X128451310Y-102462204D01*
X128447800Y-102444557D01*
X128447800Y-102279443D01*
X128469739Y-102169149D01*
X128480011Y-102117506D01*
X128515999Y-102030625D01*
X128543197Y-101964962D01*
X128634925Y-101827681D01*
X128634927Y-101827678D01*
X128751678Y-101710927D01*
X128752603Y-101710309D01*
X128888962Y-101619197D01*
X129041506Y-101556011D01*
X129127776Y-101538851D01*
X129203443Y-101523800D01*
X129368557Y-101523800D01*
X129444224Y-101538851D01*
X129444224Y-101538851D01*
G37*
G36*
X109124224Y-101538851D02*
G01*
X109210494Y-101556011D01*
X109363038Y-101619197D01*
X109499397Y-101710309D01*
X109500322Y-101710927D01*
X109617073Y-101827678D01*
X109617075Y-101827681D01*
X109708803Y-101964962D01*
X109736001Y-102030625D01*
X109771989Y-102117506D01*
X109782261Y-102169149D01*
X109804200Y-102279443D01*
X109804200Y-102444557D01*
X109800690Y-102462204D01*
X109771989Y-102606494D01*
X109751544Y-102655852D01*
X109708803Y-102759038D01*
X109617691Y-102895397D01*
X109617073Y-102896322D01*
X109500322Y-103013073D01*
X109500319Y-103013075D01*
X109363038Y-103104803D01*
X109286765Y-103136396D01*
X109210494Y-103167989D01*
X109129525Y-103184094D01*
X109048557Y-103200200D01*
X108883443Y-103200200D01*
X108802475Y-103184094D01*
X108721506Y-103167989D01*
X108645235Y-103136396D01*
X108568962Y-103104803D01*
X108431681Y-103013075D01*
X108431678Y-103013073D01*
X108314927Y-102896322D01*
X108314309Y-102895397D01*
X108223197Y-102759038D01*
X108180456Y-102655852D01*
X108160011Y-102606494D01*
X108131310Y-102462204D01*
X108127800Y-102444557D01*
X108127800Y-102279443D01*
X108149739Y-102169149D01*
X108160011Y-102117506D01*
X108195999Y-102030625D01*
X108223197Y-101964962D01*
X108314925Y-101827681D01*
X108314927Y-101827678D01*
X108431678Y-101710927D01*
X108432603Y-101710309D01*
X108568962Y-101619197D01*
X108721506Y-101556011D01*
X108807776Y-101538851D01*
X108883443Y-101523800D01*
X109048557Y-101523800D01*
X109124224Y-101538851D01*
X109124224Y-101538851D01*
G37*
G36*
X89110443Y-100959519D02*
G01*
X89176627Y-100966037D01*
X89346466Y-101017557D01*
X89346468Y-101017558D01*
X89414155Y-101053738D01*
X89502991Y-101101222D01*
X89538729Y-101130552D01*
X89640186Y-101213814D01*
X89717018Y-101307436D01*
X89752778Y-101351009D01*
X89836443Y-101507534D01*
X89887963Y-101677373D01*
X89905359Y-101854000D01*
X89887963Y-102030627D01*
X89836443Y-102200466D01*
X89752778Y-102356991D01*
X89723448Y-102392729D01*
X89640186Y-102494186D01*
X89544967Y-102572329D01*
X89502991Y-102606778D01*
X89502989Y-102606779D01*
X89414154Y-102654263D01*
X89346466Y-102690443D01*
X89176627Y-102741963D01*
X89110442Y-102748482D01*
X89044260Y-102755000D01*
X88955740Y-102755000D01*
X88889557Y-102748481D01*
X88823373Y-102741963D01*
X88653534Y-102690443D01*
X88585847Y-102654263D01*
X88497011Y-102606779D01*
X88497009Y-102606778D01*
X88455033Y-102572329D01*
X88359814Y-102494186D01*
X88276552Y-102392729D01*
X88247222Y-102356991D01*
X88163557Y-102200466D01*
X88112037Y-102030627D01*
X88094641Y-101854000D01*
X88112037Y-101677373D01*
X88163557Y-101507534D01*
X88247222Y-101351009D01*
X88282982Y-101307436D01*
X88359814Y-101213814D01*
X88461271Y-101130552D01*
X88497009Y-101101222D01*
X88585845Y-101053738D01*
X88653532Y-101017558D01*
X88653534Y-101017557D01*
X88823373Y-100966037D01*
X88889558Y-100959518D01*
X88955740Y-100953000D01*
X89044260Y-100953000D01*
X89110443Y-100959519D01*
X89110443Y-100959519D01*
G37*
G36*
X84045999Y-101053737D02*
G01*
X84055608Y-101056652D01*
X84064472Y-101061390D01*
X84072237Y-101067763D01*
X84082448Y-101080206D01*
X84089378Y-101090575D01*
X84106705Y-101107902D01*
X84127080Y-101121515D01*
X84149720Y-101130891D01*
X84173753Y-101135671D01*
X84198257Y-101135670D01*
X84222290Y-101130888D01*
X84244929Y-101121510D01*
X84265302Y-101107895D01*
X84282629Y-101090568D01*
X84289558Y-101080198D01*
X84299763Y-101067763D01*
X84307528Y-101061390D01*
X84316392Y-101056652D01*
X84326001Y-101053737D01*
X84342140Y-101052148D01*
X84829861Y-101052148D01*
X84848199Y-101053954D01*
X84860450Y-101054556D01*
X84878869Y-101054556D01*
X84901149Y-101056750D01*
X84985233Y-101073476D01*
X85006660Y-101079976D01*
X85085858Y-101112780D01*
X85091303Y-101115691D01*
X85091309Y-101115693D01*
X85100169Y-101120429D01*
X85100173Y-101120432D01*
X85105614Y-101123340D01*
X85176899Y-101170971D01*
X85194204Y-101185172D01*
X85254828Y-101245796D01*
X85269029Y-101263101D01*
X85316660Y-101334386D01*
X85319568Y-101339827D01*
X85319571Y-101339831D01*
X85324307Y-101348691D01*
X85324309Y-101348697D01*
X85327220Y-101354142D01*
X85360024Y-101433340D01*
X85366524Y-101454767D01*
X85383250Y-101538851D01*
X85385444Y-101561131D01*
X85385444Y-101579550D01*
X85386046Y-101591801D01*
X85387852Y-101610139D01*
X85387852Y-102097862D01*
X85386046Y-102116199D01*
X85385444Y-102128450D01*
X85385444Y-102146869D01*
X85383250Y-102169149D01*
X85366524Y-102253233D01*
X85360024Y-102274660D01*
X85327220Y-102353858D01*
X85324309Y-102359303D01*
X85324307Y-102359309D01*
X85319571Y-102368169D01*
X85319568Y-102368173D01*
X85316660Y-102373614D01*
X85269029Y-102444899D01*
X85254828Y-102462204D01*
X85194204Y-102522828D01*
X85176899Y-102537029D01*
X85105614Y-102584660D01*
X85100173Y-102587568D01*
X85100169Y-102587571D01*
X85091309Y-102592307D01*
X85091303Y-102592309D01*
X85085858Y-102595220D01*
X85006660Y-102628024D01*
X84985233Y-102634524D01*
X84901149Y-102651250D01*
X84878869Y-102653444D01*
X84860450Y-102653444D01*
X84848199Y-102654046D01*
X84829862Y-102655852D01*
X84342140Y-102655852D01*
X84326001Y-102654263D01*
X84316392Y-102651348D01*
X84307528Y-102646610D01*
X84299763Y-102640237D01*
X84289552Y-102627794D01*
X84282622Y-102617425D01*
X84265295Y-102600098D01*
X84244920Y-102586485D01*
X84222280Y-102577109D01*
X84198247Y-102572329D01*
X84173743Y-102572330D01*
X84149710Y-102577112D01*
X84127071Y-102586490D01*
X84106698Y-102600105D01*
X84089371Y-102617432D01*
X84082442Y-102627802D01*
X84072237Y-102640237D01*
X84064472Y-102646610D01*
X84055608Y-102651348D01*
X84045999Y-102654263D01*
X84029860Y-102655852D01*
X83542138Y-102655852D01*
X83523801Y-102654046D01*
X83511550Y-102653444D01*
X83493131Y-102653444D01*
X83470851Y-102651250D01*
X83386767Y-102634524D01*
X83365340Y-102628024D01*
X83286142Y-102595220D01*
X83280697Y-102592309D01*
X83280691Y-102592307D01*
X83271831Y-102587571D01*
X83271827Y-102587568D01*
X83266386Y-102584660D01*
X83195101Y-102537029D01*
X83177796Y-102522828D01*
X83117172Y-102462204D01*
X83102971Y-102444899D01*
X83055340Y-102373614D01*
X83052432Y-102368173D01*
X83052429Y-102368169D01*
X83047693Y-102359309D01*
X83047691Y-102359303D01*
X83044780Y-102353858D01*
X83011976Y-102274660D01*
X83005476Y-102253233D01*
X82988750Y-102169149D01*
X82986556Y-102146869D01*
X82986556Y-102128450D01*
X82985954Y-102116199D01*
X82984148Y-102097862D01*
X82984148Y-101610139D01*
X82985954Y-101591801D01*
X82986556Y-101579550D01*
X82986556Y-101561131D01*
X82988750Y-101538851D01*
X83005476Y-101454767D01*
X83011976Y-101433340D01*
X83044780Y-101354142D01*
X83047691Y-101348697D01*
X83047693Y-101348691D01*
X83052429Y-101339831D01*
X83052432Y-101339827D01*
X83055340Y-101334386D01*
X83102971Y-101263101D01*
X83117172Y-101245796D01*
X83177796Y-101185172D01*
X83195101Y-101170971D01*
X83266386Y-101123340D01*
X83271827Y-101120432D01*
X83271831Y-101120429D01*
X83280691Y-101115693D01*
X83280697Y-101115691D01*
X83286142Y-101112780D01*
X83365340Y-101079976D01*
X83386767Y-101073476D01*
X83470851Y-101056750D01*
X83493131Y-101054556D01*
X83511550Y-101054556D01*
X83523801Y-101053954D01*
X83542139Y-101052148D01*
X84029860Y-101052148D01*
X84045999Y-101053737D01*
X84045999Y-101053737D01*
G37*
G36*
X138598254Y-98027818D02*
G01*
X138971511Y-98182426D01*
X138971513Y-98182427D01*
X139307436Y-98406884D01*
X139593116Y-98692564D01*
X139809237Y-99016011D01*
X139817574Y-99028489D01*
X139972182Y-99401746D01*
X140051000Y-99797993D01*
X140051000Y-100202007D01*
X139972182Y-100598254D01*
X139819841Y-100966037D01*
X139817573Y-100971513D01*
X139593116Y-101307436D01*
X139307436Y-101593116D01*
X138971513Y-101817573D01*
X138971512Y-101817574D01*
X138971511Y-101817574D01*
X138598254Y-101972182D01*
X138202007Y-102051000D01*
X137797993Y-102051000D01*
X137401746Y-101972182D01*
X137028489Y-101817574D01*
X137028488Y-101817574D01*
X137028487Y-101817573D01*
X136692564Y-101593116D01*
X136406884Y-101307436D01*
X136182427Y-100971513D01*
X136180159Y-100966037D01*
X136027818Y-100598254D01*
X135949000Y-100202007D01*
X135949000Y-99797993D01*
X136027818Y-99401746D01*
X136182426Y-99028489D01*
X136190764Y-99016011D01*
X136406884Y-98692564D01*
X136692564Y-98406884D01*
X137028487Y-98182427D01*
X137028489Y-98182426D01*
X137401746Y-98027818D01*
X137797993Y-97949000D01*
X138202007Y-97949000D01*
X138598254Y-98027818D01*
X138598254Y-98027818D01*
G37*
G36*
X157598254Y-98027818D02*
G01*
X157971511Y-98182426D01*
X157971513Y-98182427D01*
X158307436Y-98406884D01*
X158593116Y-98692564D01*
X158809237Y-99016011D01*
X158817574Y-99028489D01*
X158972182Y-99401746D01*
X159051000Y-99797993D01*
X159051000Y-100202007D01*
X158972182Y-100598254D01*
X158819841Y-100966037D01*
X158817573Y-100971513D01*
X158593116Y-101307436D01*
X158307436Y-101593116D01*
X157971513Y-101817573D01*
X157971512Y-101817574D01*
X157971511Y-101817574D01*
X157598254Y-101972182D01*
X157202007Y-102051000D01*
X156797993Y-102051000D01*
X156401746Y-101972182D01*
X156028489Y-101817574D01*
X156028488Y-101817574D01*
X156028487Y-101817573D01*
X155692564Y-101593116D01*
X155406884Y-101307436D01*
X155182427Y-100971513D01*
X155180159Y-100966037D01*
X155027818Y-100598254D01*
X154949000Y-100202007D01*
X154949000Y-99797993D01*
X155027818Y-99401746D01*
X155182426Y-99028489D01*
X155190764Y-99016011D01*
X155406884Y-98692564D01*
X155692564Y-98406884D01*
X156028487Y-98182427D01*
X156028489Y-98182426D01*
X156401746Y-98027818D01*
X156797993Y-97949000D01*
X157202007Y-97949000D01*
X157598254Y-98027818D01*
X157598254Y-98027818D01*
G37*
G36*
X119598254Y-98027818D02*
G01*
X119971511Y-98182426D01*
X119971513Y-98182427D01*
X120307436Y-98406884D01*
X120593116Y-98692564D01*
X120809237Y-99016011D01*
X120817574Y-99028489D01*
X120972182Y-99401746D01*
X121051000Y-99797993D01*
X121051000Y-100202007D01*
X120972182Y-100598254D01*
X120819841Y-100966037D01*
X120817573Y-100971513D01*
X120593116Y-101307436D01*
X120307436Y-101593116D01*
X119971513Y-101817573D01*
X119971512Y-101817574D01*
X119971511Y-101817574D01*
X119598254Y-101972182D01*
X119202007Y-102051000D01*
X118797993Y-102051000D01*
X118401746Y-101972182D01*
X118028489Y-101817574D01*
X118028488Y-101817574D01*
X118028487Y-101817573D01*
X117692564Y-101593116D01*
X117406884Y-101307436D01*
X117182427Y-100971513D01*
X117180159Y-100966037D01*
X117027818Y-100598254D01*
X116949000Y-100202007D01*
X116949000Y-99797993D01*
X117027818Y-99401746D01*
X117182426Y-99028489D01*
X117190764Y-99016011D01*
X117406884Y-98692564D01*
X117692564Y-98406884D01*
X118028487Y-98182427D01*
X118028489Y-98182426D01*
X118401746Y-98027818D01*
X118797993Y-97949000D01*
X119202007Y-97949000D01*
X119598254Y-98027818D01*
X119598254Y-98027818D01*
G37*
G36*
X100598254Y-98027818D02*
G01*
X100971511Y-98182426D01*
X100971513Y-98182427D01*
X101307436Y-98406884D01*
X101593116Y-98692564D01*
X101809237Y-99016011D01*
X101817574Y-99028489D01*
X101972182Y-99401746D01*
X102051000Y-99797993D01*
X102051000Y-100202007D01*
X101972182Y-100598254D01*
X101819841Y-100966037D01*
X101817573Y-100971513D01*
X101593116Y-101307436D01*
X101307436Y-101593116D01*
X100971513Y-101817573D01*
X100971512Y-101817574D01*
X100971511Y-101817574D01*
X100598254Y-101972182D01*
X100202007Y-102051000D01*
X99797993Y-102051000D01*
X99401746Y-101972182D01*
X99028489Y-101817574D01*
X99028488Y-101817574D01*
X99028487Y-101817573D01*
X98692564Y-101593116D01*
X98406884Y-101307436D01*
X98182427Y-100971513D01*
X98180159Y-100966037D01*
X98027818Y-100598254D01*
X97949000Y-100202007D01*
X97949000Y-99797993D01*
X98027818Y-99401746D01*
X98182426Y-99028489D01*
X98190764Y-99016011D01*
X98406884Y-98692564D01*
X98692564Y-98406884D01*
X99028487Y-98182427D01*
X99028489Y-98182426D01*
X99401746Y-98027818D01*
X99797993Y-97949000D01*
X100202007Y-97949000D01*
X100598254Y-98027818D01*
X100598254Y-98027818D01*
G37*
G36*
X162193512Y-99103927D02*
G01*
X162342812Y-99133624D01*
X162506784Y-99201544D01*
X162654354Y-99300147D01*
X162779853Y-99425646D01*
X162878456Y-99573216D01*
X162946376Y-99737188D01*
X162981000Y-99911259D01*
X162981000Y-100088741D01*
X162946376Y-100262812D01*
X162878456Y-100426784D01*
X162779853Y-100574354D01*
X162654354Y-100699853D01*
X162506784Y-100798456D01*
X162342812Y-100866376D01*
X162193512Y-100896073D01*
X162168742Y-100901000D01*
X161991258Y-100901000D01*
X161966488Y-100896073D01*
X161817188Y-100866376D01*
X161653216Y-100798456D01*
X161505646Y-100699853D01*
X161380147Y-100574354D01*
X161281544Y-100426784D01*
X161213624Y-100262812D01*
X161179000Y-100088741D01*
X161179000Y-99911259D01*
X161213624Y-99737188D01*
X161281544Y-99573216D01*
X161380147Y-99425646D01*
X161505646Y-99300147D01*
X161653216Y-99201544D01*
X161817188Y-99133624D01*
X161966488Y-99103927D01*
X161991258Y-99099000D01*
X162168742Y-99099000D01*
X162193512Y-99103927D01*
X162193512Y-99103927D01*
G37*
G36*
X152033512Y-99103927D02*
G01*
X152182812Y-99133624D01*
X152346784Y-99201544D01*
X152494354Y-99300147D01*
X152619853Y-99425646D01*
X152718456Y-99573216D01*
X152786376Y-99737188D01*
X152821000Y-99911259D01*
X152821000Y-100088741D01*
X152786376Y-100262812D01*
X152718456Y-100426784D01*
X152619853Y-100574354D01*
X152494354Y-100699853D01*
X152346784Y-100798456D01*
X152182812Y-100866376D01*
X152033512Y-100896073D01*
X152008742Y-100901000D01*
X151831258Y-100901000D01*
X151806488Y-100896073D01*
X151657188Y-100866376D01*
X151493216Y-100798456D01*
X151345646Y-100699853D01*
X151220147Y-100574354D01*
X151121544Y-100426784D01*
X151053624Y-100262812D01*
X151019000Y-100088741D01*
X151019000Y-99911259D01*
X151053624Y-99737188D01*
X151121544Y-99573216D01*
X151220147Y-99425646D01*
X151345646Y-99300147D01*
X151493216Y-99201544D01*
X151657188Y-99133624D01*
X151806488Y-99103927D01*
X151831258Y-99099000D01*
X152008742Y-99099000D01*
X152033512Y-99103927D01*
X152033512Y-99103927D01*
G37*
G36*
X143193512Y-99103927D02*
G01*
X143342812Y-99133624D01*
X143506784Y-99201544D01*
X143654354Y-99300147D01*
X143779853Y-99425646D01*
X143878456Y-99573216D01*
X143946376Y-99737188D01*
X143981000Y-99911259D01*
X143981000Y-100088741D01*
X143946376Y-100262812D01*
X143878456Y-100426784D01*
X143779853Y-100574354D01*
X143654354Y-100699853D01*
X143506784Y-100798456D01*
X143342812Y-100866376D01*
X143193512Y-100896073D01*
X143168742Y-100901000D01*
X142991258Y-100901000D01*
X142966488Y-100896073D01*
X142817188Y-100866376D01*
X142653216Y-100798456D01*
X142505646Y-100699853D01*
X142380147Y-100574354D01*
X142281544Y-100426784D01*
X142213624Y-100262812D01*
X142179000Y-100088741D01*
X142179000Y-99911259D01*
X142213624Y-99737188D01*
X142281544Y-99573216D01*
X142380147Y-99425646D01*
X142505646Y-99300147D01*
X142653216Y-99201544D01*
X142817188Y-99133624D01*
X142966488Y-99103927D01*
X142991258Y-99099000D01*
X143168742Y-99099000D01*
X143193512Y-99103927D01*
X143193512Y-99103927D01*
G37*
G36*
X133033512Y-99103927D02*
G01*
X133182812Y-99133624D01*
X133346784Y-99201544D01*
X133494354Y-99300147D01*
X133619853Y-99425646D01*
X133718456Y-99573216D01*
X133786376Y-99737188D01*
X133821000Y-99911259D01*
X133821000Y-100088741D01*
X133786376Y-100262812D01*
X133718456Y-100426784D01*
X133619853Y-100574354D01*
X133494354Y-100699853D01*
X133346784Y-100798456D01*
X133182812Y-100866376D01*
X133033512Y-100896073D01*
X133008742Y-100901000D01*
X132831258Y-100901000D01*
X132806488Y-100896073D01*
X132657188Y-100866376D01*
X132493216Y-100798456D01*
X132345646Y-100699853D01*
X132220147Y-100574354D01*
X132121544Y-100426784D01*
X132053624Y-100262812D01*
X132019000Y-100088741D01*
X132019000Y-99911259D01*
X132053624Y-99737188D01*
X132121544Y-99573216D01*
X132220147Y-99425646D01*
X132345646Y-99300147D01*
X132493216Y-99201544D01*
X132657188Y-99133624D01*
X132806488Y-99103927D01*
X132831258Y-99099000D01*
X133008742Y-99099000D01*
X133033512Y-99103927D01*
X133033512Y-99103927D01*
G37*
G36*
X124193512Y-99103927D02*
G01*
X124342812Y-99133624D01*
X124506784Y-99201544D01*
X124654354Y-99300147D01*
X124779853Y-99425646D01*
X124878456Y-99573216D01*
X124946376Y-99737188D01*
X124981000Y-99911259D01*
X124981000Y-100088741D01*
X124946376Y-100262812D01*
X124878456Y-100426784D01*
X124779853Y-100574354D01*
X124654354Y-100699853D01*
X124506784Y-100798456D01*
X124342812Y-100866376D01*
X124193512Y-100896073D01*
X124168742Y-100901000D01*
X123991258Y-100901000D01*
X123966488Y-100896073D01*
X123817188Y-100866376D01*
X123653216Y-100798456D01*
X123505646Y-100699853D01*
X123380147Y-100574354D01*
X123281544Y-100426784D01*
X123213624Y-100262812D01*
X123179000Y-100088741D01*
X123179000Y-99911259D01*
X123213624Y-99737188D01*
X123281544Y-99573216D01*
X123380147Y-99425646D01*
X123505646Y-99300147D01*
X123653216Y-99201544D01*
X123817188Y-99133624D01*
X123966488Y-99103927D01*
X123991258Y-99099000D01*
X124168742Y-99099000D01*
X124193512Y-99103927D01*
X124193512Y-99103927D01*
G37*
G36*
X114033512Y-99103927D02*
G01*
X114182812Y-99133624D01*
X114346784Y-99201544D01*
X114494354Y-99300147D01*
X114619853Y-99425646D01*
X114718456Y-99573216D01*
X114786376Y-99737188D01*
X114821000Y-99911259D01*
X114821000Y-100088741D01*
X114786376Y-100262812D01*
X114718456Y-100426784D01*
X114619853Y-100574354D01*
X114494354Y-100699853D01*
X114346784Y-100798456D01*
X114182812Y-100866376D01*
X114033512Y-100896073D01*
X114008742Y-100901000D01*
X113831258Y-100901000D01*
X113806488Y-100896073D01*
X113657188Y-100866376D01*
X113493216Y-100798456D01*
X113345646Y-100699853D01*
X113220147Y-100574354D01*
X113121544Y-100426784D01*
X113053624Y-100262812D01*
X113019000Y-100088741D01*
X113019000Y-99911259D01*
X113053624Y-99737188D01*
X113121544Y-99573216D01*
X113220147Y-99425646D01*
X113345646Y-99300147D01*
X113493216Y-99201544D01*
X113657188Y-99133624D01*
X113806488Y-99103927D01*
X113831258Y-99099000D01*
X114008742Y-99099000D01*
X114033512Y-99103927D01*
X114033512Y-99103927D01*
G37*
G36*
X95033512Y-99103927D02*
G01*
X95182812Y-99133624D01*
X95346784Y-99201544D01*
X95494354Y-99300147D01*
X95619853Y-99425646D01*
X95718456Y-99573216D01*
X95786376Y-99737188D01*
X95821000Y-99911259D01*
X95821000Y-100088741D01*
X95786376Y-100262812D01*
X95718456Y-100426784D01*
X95619853Y-100574354D01*
X95494354Y-100699853D01*
X95346784Y-100798456D01*
X95182812Y-100866376D01*
X95033512Y-100896073D01*
X95008742Y-100901000D01*
X94831258Y-100901000D01*
X94806488Y-100896073D01*
X94657188Y-100866376D01*
X94493216Y-100798456D01*
X94345646Y-100699853D01*
X94220147Y-100574354D01*
X94121544Y-100426784D01*
X94053624Y-100262812D01*
X94019000Y-100088741D01*
X94019000Y-99911259D01*
X94053624Y-99737188D01*
X94121544Y-99573216D01*
X94220147Y-99425646D01*
X94345646Y-99300147D01*
X94493216Y-99201544D01*
X94657188Y-99133624D01*
X94806488Y-99103927D01*
X94831258Y-99099000D01*
X95008742Y-99099000D01*
X95033512Y-99103927D01*
X95033512Y-99103927D01*
G37*
G36*
X105193512Y-99103927D02*
G01*
X105342812Y-99133624D01*
X105506784Y-99201544D01*
X105654354Y-99300147D01*
X105779853Y-99425646D01*
X105878456Y-99573216D01*
X105946376Y-99737188D01*
X105981000Y-99911259D01*
X105981000Y-100088741D01*
X105946376Y-100262812D01*
X105878456Y-100426784D01*
X105779853Y-100574354D01*
X105654354Y-100699853D01*
X105506784Y-100798456D01*
X105342812Y-100866376D01*
X105193512Y-100896073D01*
X105168742Y-100901000D01*
X104991258Y-100901000D01*
X104966488Y-100896073D01*
X104817188Y-100866376D01*
X104653216Y-100798456D01*
X104505646Y-100699853D01*
X104380147Y-100574354D01*
X104281544Y-100426784D01*
X104213624Y-100262812D01*
X104179000Y-100088741D01*
X104179000Y-99911259D01*
X104213624Y-99737188D01*
X104281544Y-99573216D01*
X104380147Y-99425646D01*
X104505646Y-99300147D01*
X104653216Y-99201544D01*
X104817188Y-99133624D01*
X104966488Y-99103927D01*
X104991258Y-99099000D01*
X105168742Y-99099000D01*
X105193512Y-99103927D01*
X105193512Y-99103927D01*
G37*
G36*
X129444224Y-98998851D02*
G01*
X129530494Y-99016011D01*
X129606765Y-99047604D01*
X129683038Y-99079197D01*
X129819397Y-99170309D01*
X129820322Y-99170927D01*
X129937073Y-99287678D01*
X129937075Y-99287681D01*
X130028803Y-99424962D01*
X130056001Y-99490625D01*
X130091989Y-99577506D01*
X130102261Y-99629149D01*
X130124200Y-99739443D01*
X130124200Y-99904557D01*
X130120690Y-99922204D01*
X130091989Y-100066494D01*
X130071544Y-100115852D01*
X130028803Y-100219038D01*
X129999554Y-100262812D01*
X129937073Y-100356322D01*
X129820322Y-100473073D01*
X129820319Y-100473075D01*
X129683038Y-100564803D01*
X129606765Y-100596396D01*
X129530494Y-100627989D01*
X129449525Y-100644095D01*
X129368557Y-100660200D01*
X129203443Y-100660200D01*
X129122475Y-100644094D01*
X129041506Y-100627989D01*
X128888962Y-100564803D01*
X128751681Y-100473075D01*
X128751678Y-100473073D01*
X128634927Y-100356322D01*
X128572446Y-100262812D01*
X128543197Y-100219038D01*
X128500456Y-100115852D01*
X128480011Y-100066494D01*
X128451310Y-99922204D01*
X128447800Y-99904557D01*
X128447800Y-99739443D01*
X128469739Y-99629149D01*
X128480011Y-99577506D01*
X128515999Y-99490625D01*
X128543197Y-99424962D01*
X128634925Y-99287681D01*
X128634927Y-99287678D01*
X128751678Y-99170927D01*
X128752603Y-99170309D01*
X128888962Y-99079197D01*
X129041506Y-99016011D01*
X129127776Y-98998851D01*
X129203443Y-98983800D01*
X129368557Y-98983800D01*
X129444224Y-98998851D01*
X129444224Y-98998851D01*
G37*
G36*
X109124224Y-98998851D02*
G01*
X109210494Y-99016011D01*
X109286765Y-99047604D01*
X109363038Y-99079197D01*
X109499397Y-99170309D01*
X109500322Y-99170927D01*
X109617073Y-99287678D01*
X109617075Y-99287681D01*
X109708803Y-99424962D01*
X109736001Y-99490625D01*
X109771989Y-99577506D01*
X109782261Y-99629149D01*
X109804200Y-99739443D01*
X109804200Y-99904557D01*
X109800690Y-99922204D01*
X109771989Y-100066494D01*
X109751544Y-100115852D01*
X109708803Y-100219038D01*
X109679554Y-100262812D01*
X109617073Y-100356322D01*
X109500322Y-100473073D01*
X109500319Y-100473075D01*
X109363038Y-100564803D01*
X109286765Y-100596396D01*
X109210494Y-100627989D01*
X109129525Y-100644095D01*
X109048557Y-100660200D01*
X108883443Y-100660200D01*
X108802475Y-100644094D01*
X108721506Y-100627989D01*
X108568962Y-100564803D01*
X108431681Y-100473075D01*
X108431678Y-100473073D01*
X108314927Y-100356322D01*
X108252446Y-100262812D01*
X108223197Y-100219038D01*
X108180456Y-100115852D01*
X108160011Y-100066494D01*
X108131310Y-99922204D01*
X108127800Y-99904557D01*
X108127800Y-99739443D01*
X108149739Y-99629149D01*
X108160011Y-99577506D01*
X108195999Y-99490625D01*
X108223197Y-99424962D01*
X108314925Y-99287681D01*
X108314927Y-99287678D01*
X108431678Y-99170927D01*
X108432603Y-99170309D01*
X108568962Y-99079197D01*
X108721506Y-99016011D01*
X108807776Y-98998851D01*
X108883443Y-98983800D01*
X109048557Y-98983800D01*
X109124224Y-98998851D01*
X109124224Y-98998851D01*
G37*
G36*
X89110443Y-98419519D02*
G01*
X89176627Y-98426037D01*
X89346466Y-98477557D01*
X89346468Y-98477558D01*
X89414155Y-98513738D01*
X89502991Y-98561222D01*
X89538729Y-98590552D01*
X89640186Y-98673814D01*
X89723448Y-98775271D01*
X89752778Y-98811009D01*
X89836443Y-98967534D01*
X89887963Y-99137373D01*
X89905359Y-99314000D01*
X89887963Y-99490627D01*
X89836443Y-99660466D01*
X89752778Y-99816991D01*
X89723448Y-99852729D01*
X89640186Y-99954186D01*
X89544967Y-100032329D01*
X89502991Y-100066778D01*
X89502989Y-100066779D01*
X89414154Y-100114263D01*
X89346466Y-100150443D01*
X89176627Y-100201963D01*
X89110442Y-100208482D01*
X89044260Y-100215000D01*
X88955740Y-100215000D01*
X88889558Y-100208482D01*
X88823373Y-100201963D01*
X88653534Y-100150443D01*
X88585847Y-100114263D01*
X88497011Y-100066779D01*
X88497009Y-100066778D01*
X88455033Y-100032329D01*
X88359814Y-99954186D01*
X88276552Y-99852729D01*
X88247222Y-99816991D01*
X88163557Y-99660466D01*
X88112037Y-99490627D01*
X88094641Y-99314000D01*
X88112037Y-99137373D01*
X88163557Y-98967534D01*
X88247222Y-98811009D01*
X88276552Y-98775271D01*
X88359814Y-98673814D01*
X88461271Y-98590552D01*
X88497009Y-98561222D01*
X88585845Y-98513738D01*
X88653532Y-98477558D01*
X88653534Y-98477557D01*
X88823373Y-98426037D01*
X88889557Y-98419519D01*
X88955740Y-98413000D01*
X89044260Y-98413000D01*
X89110443Y-98419519D01*
X89110443Y-98419519D01*
G37*
G36*
X84045999Y-98513737D02*
G01*
X84055608Y-98516652D01*
X84064472Y-98521390D01*
X84072237Y-98527763D01*
X84082448Y-98540206D01*
X84089378Y-98550575D01*
X84106705Y-98567902D01*
X84127080Y-98581515D01*
X84149720Y-98590891D01*
X84173753Y-98595671D01*
X84198257Y-98595670D01*
X84222290Y-98590888D01*
X84244929Y-98581510D01*
X84265302Y-98567895D01*
X84282629Y-98550568D01*
X84289558Y-98540198D01*
X84299763Y-98527763D01*
X84307528Y-98521390D01*
X84316392Y-98516652D01*
X84326001Y-98513737D01*
X84342140Y-98512148D01*
X84829861Y-98512148D01*
X84848199Y-98513954D01*
X84860450Y-98514556D01*
X84878869Y-98514556D01*
X84901149Y-98516750D01*
X84985233Y-98533476D01*
X85006660Y-98539976D01*
X85085858Y-98572780D01*
X85091303Y-98575691D01*
X85091309Y-98575693D01*
X85100169Y-98580429D01*
X85100173Y-98580432D01*
X85105614Y-98583340D01*
X85176899Y-98630971D01*
X85194204Y-98645172D01*
X85254828Y-98705796D01*
X85269029Y-98723101D01*
X85316660Y-98794386D01*
X85319568Y-98799827D01*
X85319571Y-98799831D01*
X85324307Y-98808691D01*
X85324309Y-98808697D01*
X85327220Y-98814142D01*
X85360024Y-98893340D01*
X85366524Y-98914767D01*
X85383250Y-98998851D01*
X85385444Y-99021131D01*
X85385444Y-99039550D01*
X85386046Y-99051801D01*
X85387852Y-99070139D01*
X85387852Y-99557862D01*
X85386046Y-99576199D01*
X85385444Y-99588450D01*
X85385444Y-99606869D01*
X85383250Y-99629149D01*
X85366524Y-99713233D01*
X85360024Y-99734660D01*
X85327220Y-99813858D01*
X85324309Y-99819303D01*
X85324307Y-99819309D01*
X85319571Y-99828169D01*
X85319568Y-99828173D01*
X85316660Y-99833614D01*
X85269029Y-99904899D01*
X85254828Y-99922204D01*
X85194204Y-99982828D01*
X85176899Y-99997029D01*
X85105614Y-100044660D01*
X85100173Y-100047568D01*
X85100169Y-100047571D01*
X85091309Y-100052307D01*
X85091303Y-100052309D01*
X85085858Y-100055220D01*
X85006660Y-100088024D01*
X84985233Y-100094524D01*
X84901149Y-100111250D01*
X84878869Y-100113444D01*
X84860450Y-100113444D01*
X84848199Y-100114046D01*
X84829862Y-100115852D01*
X84342140Y-100115852D01*
X84326001Y-100114263D01*
X84316392Y-100111348D01*
X84307528Y-100106610D01*
X84299763Y-100100237D01*
X84289552Y-100087794D01*
X84282622Y-100077425D01*
X84265295Y-100060098D01*
X84244920Y-100046485D01*
X84222280Y-100037109D01*
X84198247Y-100032329D01*
X84173743Y-100032330D01*
X84149710Y-100037112D01*
X84127071Y-100046490D01*
X84106698Y-100060105D01*
X84089371Y-100077432D01*
X84082442Y-100087802D01*
X84072237Y-100100237D01*
X84064472Y-100106610D01*
X84055608Y-100111348D01*
X84045999Y-100114263D01*
X84029860Y-100115852D01*
X83542138Y-100115852D01*
X83523801Y-100114046D01*
X83511550Y-100113444D01*
X83493131Y-100113444D01*
X83470851Y-100111250D01*
X83386767Y-100094524D01*
X83365340Y-100088024D01*
X83286142Y-100055220D01*
X83280697Y-100052309D01*
X83280691Y-100052307D01*
X83271831Y-100047571D01*
X83271827Y-100047568D01*
X83266386Y-100044660D01*
X83195101Y-99997029D01*
X83177796Y-99982828D01*
X83117172Y-99922204D01*
X83102971Y-99904899D01*
X83055340Y-99833614D01*
X83052432Y-99828173D01*
X83052429Y-99828169D01*
X83047693Y-99819309D01*
X83047691Y-99819303D01*
X83044780Y-99813858D01*
X83011976Y-99734660D01*
X83005476Y-99713233D01*
X82988750Y-99629149D01*
X82986556Y-99606869D01*
X82986556Y-99588450D01*
X82985954Y-99576199D01*
X82984148Y-99557862D01*
X82984148Y-99070139D01*
X82985954Y-99051801D01*
X82986556Y-99039550D01*
X82986556Y-99021131D01*
X82988750Y-98998851D01*
X83005476Y-98914767D01*
X83011976Y-98893340D01*
X83044780Y-98814142D01*
X83047691Y-98808697D01*
X83047693Y-98808691D01*
X83052429Y-98799831D01*
X83052432Y-98799827D01*
X83055340Y-98794386D01*
X83102971Y-98723101D01*
X83117172Y-98705796D01*
X83177796Y-98645172D01*
X83195101Y-98630971D01*
X83266386Y-98583340D01*
X83271827Y-98580432D01*
X83271831Y-98580429D01*
X83280691Y-98575693D01*
X83280697Y-98575691D01*
X83286142Y-98572780D01*
X83365340Y-98539976D01*
X83386767Y-98533476D01*
X83470851Y-98516750D01*
X83493131Y-98514556D01*
X83511550Y-98514556D01*
X83523801Y-98513954D01*
X83542139Y-98512148D01*
X84029860Y-98512148D01*
X84045999Y-98513737D01*
X84045999Y-98513737D01*
G37*
G36*
X153414549Y-96331116D02*
G01*
X153525734Y-96353232D01*
X153735203Y-96439997D01*
X153923720Y-96565960D01*
X154084040Y-96726280D01*
X154210003Y-96914797D01*
X154210004Y-96914799D01*
X154224844Y-96950627D01*
X154295195Y-97120468D01*
X154296768Y-97124267D01*
X154341000Y-97346635D01*
X154341000Y-97573365D01*
X154340505Y-97575852D01*
X154296768Y-97795734D01*
X154210003Y-98005203D01*
X154084040Y-98193720D01*
X153923720Y-98354040D01*
X153735203Y-98480003D01*
X153525734Y-98566768D01*
X153414549Y-98588884D01*
X153303365Y-98611000D01*
X153076635Y-98611000D01*
X152965451Y-98588884D01*
X152854266Y-98566768D01*
X152644797Y-98480003D01*
X152456280Y-98354040D01*
X152295960Y-98193720D01*
X152169997Y-98005203D01*
X152083232Y-97795734D01*
X152039495Y-97575852D01*
X152039000Y-97573365D01*
X152039000Y-97346635D01*
X152083232Y-97124267D01*
X152084806Y-97120468D01*
X152155156Y-96950627D01*
X152169996Y-96914799D01*
X152169997Y-96914797D01*
X152295960Y-96726280D01*
X152456280Y-96565960D01*
X152644797Y-96439997D01*
X152854266Y-96353232D01*
X152965451Y-96331116D01*
X153076635Y-96309000D01*
X153303365Y-96309000D01*
X153414549Y-96331116D01*
X153414549Y-96331116D01*
G37*
G36*
X134414549Y-96331116D02*
G01*
X134525734Y-96353232D01*
X134735203Y-96439997D01*
X134923720Y-96565960D01*
X135084040Y-96726280D01*
X135210003Y-96914797D01*
X135210004Y-96914799D01*
X135224844Y-96950627D01*
X135295195Y-97120468D01*
X135296768Y-97124267D01*
X135341000Y-97346635D01*
X135341000Y-97573365D01*
X135340505Y-97575852D01*
X135296768Y-97795734D01*
X135210003Y-98005203D01*
X135084040Y-98193720D01*
X134923720Y-98354040D01*
X134735203Y-98480003D01*
X134525734Y-98566768D01*
X134414549Y-98588884D01*
X134303365Y-98611000D01*
X134076635Y-98611000D01*
X133965451Y-98588884D01*
X133854266Y-98566768D01*
X133644797Y-98480003D01*
X133456280Y-98354040D01*
X133295960Y-98193720D01*
X133169997Y-98005203D01*
X133083232Y-97795734D01*
X133039495Y-97575852D01*
X133039000Y-97573365D01*
X133039000Y-97346635D01*
X133083232Y-97124267D01*
X133084806Y-97120468D01*
X133155156Y-96950627D01*
X133169996Y-96914799D01*
X133169997Y-96914797D01*
X133295960Y-96726280D01*
X133456280Y-96565960D01*
X133644797Y-96439997D01*
X133854266Y-96353232D01*
X133965451Y-96331116D01*
X134076635Y-96309000D01*
X134303365Y-96309000D01*
X134414549Y-96331116D01*
X134414549Y-96331116D01*
G37*
G36*
X115414549Y-96331116D02*
G01*
X115525734Y-96353232D01*
X115735203Y-96439997D01*
X115923720Y-96565960D01*
X116084040Y-96726280D01*
X116210003Y-96914797D01*
X116210004Y-96914799D01*
X116224844Y-96950627D01*
X116295195Y-97120468D01*
X116296768Y-97124267D01*
X116341000Y-97346635D01*
X116341000Y-97573365D01*
X116340505Y-97575852D01*
X116296768Y-97795734D01*
X116210003Y-98005203D01*
X116084040Y-98193720D01*
X115923720Y-98354040D01*
X115735203Y-98480003D01*
X115525734Y-98566768D01*
X115414549Y-98588884D01*
X115303365Y-98611000D01*
X115076635Y-98611000D01*
X114965451Y-98588884D01*
X114854266Y-98566768D01*
X114644797Y-98480003D01*
X114456280Y-98354040D01*
X114295960Y-98193720D01*
X114169997Y-98005203D01*
X114083232Y-97795734D01*
X114039495Y-97575852D01*
X114039000Y-97573365D01*
X114039000Y-97346635D01*
X114083232Y-97124267D01*
X114084806Y-97120468D01*
X114155156Y-96950627D01*
X114169996Y-96914799D01*
X114169997Y-96914797D01*
X114295960Y-96726280D01*
X114456280Y-96565960D01*
X114644797Y-96439997D01*
X114854266Y-96353232D01*
X114965451Y-96331116D01*
X115076635Y-96309000D01*
X115303365Y-96309000D01*
X115414549Y-96331116D01*
X115414549Y-96331116D01*
G37*
G36*
X96414549Y-96331116D02*
G01*
X96525734Y-96353232D01*
X96735203Y-96439997D01*
X96923720Y-96565960D01*
X97084040Y-96726280D01*
X97210003Y-96914797D01*
X97210004Y-96914799D01*
X97224844Y-96950627D01*
X97295195Y-97120468D01*
X97296768Y-97124267D01*
X97341000Y-97346635D01*
X97341000Y-97573365D01*
X97340505Y-97575852D01*
X97296768Y-97795734D01*
X97210003Y-98005203D01*
X97084040Y-98193720D01*
X96923720Y-98354040D01*
X96735203Y-98480003D01*
X96525734Y-98566768D01*
X96414549Y-98588884D01*
X96303365Y-98611000D01*
X96076635Y-98611000D01*
X95965451Y-98588884D01*
X95854266Y-98566768D01*
X95644797Y-98480003D01*
X95456280Y-98354040D01*
X95295960Y-98193720D01*
X95169997Y-98005203D01*
X95083232Y-97795734D01*
X95039495Y-97575852D01*
X95039000Y-97573365D01*
X95039000Y-97346635D01*
X95083232Y-97124267D01*
X95084806Y-97120468D01*
X95155156Y-96950627D01*
X95169996Y-96914799D01*
X95169997Y-96914797D01*
X95295960Y-96726280D01*
X95456280Y-96565960D01*
X95644797Y-96439997D01*
X95854266Y-96353232D01*
X95965451Y-96331116D01*
X96076635Y-96309000D01*
X96303365Y-96309000D01*
X96414549Y-96331116D01*
X96414549Y-96331116D01*
G37*
G36*
X109124224Y-96458851D02*
G01*
X109210494Y-96476011D01*
X109363038Y-96539197D01*
X109499397Y-96630309D01*
X109500322Y-96630927D01*
X109617073Y-96747678D01*
X109617075Y-96747681D01*
X109708803Y-96884962D01*
X109708803Y-96884963D01*
X109771989Y-97037506D01*
X109782261Y-97089149D01*
X109804200Y-97199443D01*
X109804200Y-97364557D01*
X109800690Y-97382204D01*
X109771989Y-97526494D01*
X109751544Y-97575852D01*
X109708803Y-97679038D01*
X109630830Y-97795733D01*
X109617073Y-97816322D01*
X109500322Y-97933073D01*
X109500319Y-97933075D01*
X109363038Y-98024803D01*
X109210494Y-98087989D01*
X109129525Y-98104094D01*
X109048557Y-98120200D01*
X108883443Y-98120200D01*
X108802475Y-98104094D01*
X108721506Y-98087989D01*
X108645235Y-98056396D01*
X108568962Y-98024803D01*
X108431681Y-97933075D01*
X108431678Y-97933073D01*
X108314927Y-97816322D01*
X108301170Y-97795733D01*
X108223197Y-97679038D01*
X108180456Y-97575852D01*
X108160011Y-97526494D01*
X108131310Y-97382204D01*
X108127800Y-97364557D01*
X108127800Y-97199443D01*
X108149739Y-97089149D01*
X108160011Y-97037506D01*
X108223197Y-96884963D01*
X108223197Y-96884962D01*
X108314925Y-96747681D01*
X108314927Y-96747678D01*
X108431678Y-96630927D01*
X108432603Y-96630309D01*
X108568962Y-96539197D01*
X108645235Y-96507604D01*
X108721506Y-96476011D01*
X108807776Y-96458851D01*
X108883443Y-96443800D01*
X109048557Y-96443800D01*
X109124224Y-96458851D01*
X109124224Y-96458851D01*
G37*
G36*
X129444224Y-96458851D02*
G01*
X129530494Y-96476011D01*
X129683038Y-96539197D01*
X129819397Y-96630309D01*
X129820322Y-96630927D01*
X129937073Y-96747678D01*
X129937075Y-96747681D01*
X130028803Y-96884962D01*
X130028803Y-96884963D01*
X130091989Y-97037506D01*
X130102261Y-97089149D01*
X130124200Y-97199443D01*
X130124200Y-97364557D01*
X130120690Y-97382204D01*
X130091989Y-97526494D01*
X130071544Y-97575852D01*
X130028803Y-97679038D01*
X129950830Y-97795733D01*
X129937073Y-97816322D01*
X129820322Y-97933073D01*
X129820319Y-97933075D01*
X129683038Y-98024803D01*
X129530494Y-98087989D01*
X129449525Y-98104094D01*
X129368557Y-98120200D01*
X129203443Y-98120200D01*
X129122475Y-98104094D01*
X129041506Y-98087989D01*
X128965235Y-98056396D01*
X128888962Y-98024803D01*
X128751681Y-97933075D01*
X128751678Y-97933073D01*
X128634927Y-97816322D01*
X128621170Y-97795733D01*
X128543197Y-97679038D01*
X128500456Y-97575852D01*
X128480011Y-97526494D01*
X128451310Y-97382204D01*
X128447800Y-97364557D01*
X128447800Y-97199443D01*
X128469739Y-97089149D01*
X128480011Y-97037506D01*
X128543197Y-96884963D01*
X128543197Y-96884962D01*
X128634925Y-96747681D01*
X128634927Y-96747678D01*
X128751678Y-96630927D01*
X128752603Y-96630309D01*
X128888962Y-96539197D01*
X128965235Y-96507604D01*
X129041506Y-96476011D01*
X129127776Y-96458851D01*
X129203443Y-96443800D01*
X129368557Y-96443800D01*
X129444224Y-96458851D01*
X129444224Y-96458851D01*
G37*
G36*
X89110442Y-95879518D02*
G01*
X89176627Y-95886037D01*
X89346466Y-95937557D01*
X89346468Y-95937558D01*
X89414155Y-95973738D01*
X89502991Y-96021222D01*
X89538729Y-96050552D01*
X89640186Y-96133814D01*
X89723448Y-96235271D01*
X89752778Y-96271009D01*
X89836443Y-96427534D01*
X89887963Y-96597373D01*
X89905359Y-96774000D01*
X89887963Y-96950627D01*
X89836443Y-97120466D01*
X89752778Y-97276991D01*
X89723448Y-97312729D01*
X89640186Y-97414186D01*
X89544967Y-97492329D01*
X89502991Y-97526778D01*
X89502989Y-97526779D01*
X89414154Y-97574263D01*
X89346466Y-97610443D01*
X89176627Y-97661963D01*
X89110443Y-97668481D01*
X89044260Y-97675000D01*
X88955740Y-97675000D01*
X88889557Y-97668481D01*
X88823373Y-97661963D01*
X88653534Y-97610443D01*
X88585847Y-97574263D01*
X88497011Y-97526779D01*
X88497009Y-97526778D01*
X88455033Y-97492329D01*
X88359814Y-97414186D01*
X88276552Y-97312729D01*
X88247222Y-97276991D01*
X88163557Y-97120466D01*
X88112037Y-96950627D01*
X88094641Y-96774000D01*
X88112037Y-96597373D01*
X88163557Y-96427534D01*
X88247222Y-96271009D01*
X88276552Y-96235271D01*
X88359814Y-96133814D01*
X88461271Y-96050552D01*
X88497009Y-96021222D01*
X88585845Y-95973738D01*
X88653532Y-95937558D01*
X88653534Y-95937557D01*
X88823373Y-95886037D01*
X88889558Y-95879518D01*
X88955740Y-95873000D01*
X89044260Y-95873000D01*
X89110442Y-95879518D01*
X89110442Y-95879518D01*
G37*
G36*
X84045999Y-95973737D02*
G01*
X84055608Y-95976652D01*
X84064472Y-95981390D01*
X84072237Y-95987763D01*
X84082448Y-96000206D01*
X84089378Y-96010575D01*
X84106705Y-96027902D01*
X84127080Y-96041515D01*
X84149720Y-96050891D01*
X84173753Y-96055671D01*
X84198257Y-96055670D01*
X84222290Y-96050888D01*
X84244929Y-96041510D01*
X84265302Y-96027895D01*
X84282629Y-96010568D01*
X84289558Y-96000198D01*
X84299763Y-95987763D01*
X84307528Y-95981390D01*
X84316392Y-95976652D01*
X84326001Y-95973737D01*
X84342140Y-95972148D01*
X84829861Y-95972148D01*
X84848199Y-95973954D01*
X84860450Y-95974556D01*
X84878869Y-95974556D01*
X84901149Y-95976750D01*
X84985233Y-95993476D01*
X85006660Y-95999976D01*
X85085858Y-96032780D01*
X85091303Y-96035691D01*
X85091309Y-96035693D01*
X85100169Y-96040429D01*
X85100173Y-96040432D01*
X85105614Y-96043340D01*
X85176899Y-96090971D01*
X85194204Y-96105172D01*
X85254828Y-96165796D01*
X85269029Y-96183101D01*
X85316660Y-96254386D01*
X85319568Y-96259827D01*
X85319571Y-96259831D01*
X85324307Y-96268691D01*
X85324309Y-96268697D01*
X85327220Y-96274142D01*
X85360024Y-96353340D01*
X85366524Y-96374767D01*
X85383250Y-96458851D01*
X85385444Y-96481131D01*
X85385444Y-96499550D01*
X85386046Y-96511801D01*
X85387852Y-96530139D01*
X85387852Y-97017862D01*
X85386046Y-97036199D01*
X85385444Y-97048450D01*
X85385444Y-97066869D01*
X85383250Y-97089149D01*
X85366524Y-97173233D01*
X85360024Y-97194660D01*
X85327220Y-97273858D01*
X85324309Y-97279303D01*
X85324307Y-97279309D01*
X85319571Y-97288169D01*
X85319568Y-97288173D01*
X85316660Y-97293614D01*
X85269029Y-97364899D01*
X85254828Y-97382204D01*
X85194204Y-97442828D01*
X85176899Y-97457029D01*
X85105614Y-97504660D01*
X85100173Y-97507568D01*
X85100169Y-97507571D01*
X85091309Y-97512307D01*
X85091303Y-97512309D01*
X85085858Y-97515220D01*
X85006660Y-97548024D01*
X84985233Y-97554524D01*
X84901149Y-97571250D01*
X84878869Y-97573444D01*
X84860450Y-97573444D01*
X84848199Y-97574046D01*
X84829862Y-97575852D01*
X84342140Y-97575852D01*
X84326001Y-97574263D01*
X84316392Y-97571348D01*
X84307528Y-97566610D01*
X84299763Y-97560237D01*
X84289552Y-97547794D01*
X84282622Y-97537425D01*
X84265295Y-97520098D01*
X84244920Y-97506485D01*
X84222280Y-97497109D01*
X84198247Y-97492329D01*
X84173743Y-97492330D01*
X84149710Y-97497112D01*
X84127071Y-97506490D01*
X84106698Y-97520105D01*
X84089371Y-97537432D01*
X84082442Y-97547802D01*
X84072237Y-97560237D01*
X84064472Y-97566610D01*
X84055608Y-97571348D01*
X84045999Y-97574263D01*
X84029860Y-97575852D01*
X83542138Y-97575852D01*
X83523801Y-97574046D01*
X83511550Y-97573444D01*
X83493131Y-97573444D01*
X83470851Y-97571250D01*
X83386767Y-97554524D01*
X83365340Y-97548024D01*
X83286142Y-97515220D01*
X83280697Y-97512309D01*
X83280691Y-97512307D01*
X83271831Y-97507571D01*
X83271827Y-97507568D01*
X83266386Y-97504660D01*
X83195101Y-97457029D01*
X83177796Y-97442828D01*
X83117172Y-97382204D01*
X83102971Y-97364899D01*
X83055340Y-97293614D01*
X83052432Y-97288173D01*
X83052429Y-97288169D01*
X83047693Y-97279309D01*
X83047691Y-97279303D01*
X83044780Y-97273858D01*
X83011976Y-97194660D01*
X83005476Y-97173233D01*
X82988750Y-97089149D01*
X82986556Y-97066869D01*
X82986556Y-97048450D01*
X82985954Y-97036199D01*
X82984148Y-97017862D01*
X82984148Y-96530139D01*
X82985954Y-96511801D01*
X82986556Y-96499550D01*
X82986556Y-96481131D01*
X82988750Y-96458851D01*
X83005476Y-96374767D01*
X83011976Y-96353340D01*
X83044780Y-96274142D01*
X83047691Y-96268697D01*
X83047693Y-96268691D01*
X83052429Y-96259831D01*
X83052432Y-96259827D01*
X83055340Y-96254386D01*
X83102971Y-96183101D01*
X83117172Y-96165796D01*
X83177796Y-96105172D01*
X83195101Y-96090971D01*
X83266386Y-96043340D01*
X83271827Y-96040432D01*
X83271831Y-96040429D01*
X83280691Y-96035693D01*
X83280697Y-96035691D01*
X83286142Y-96032780D01*
X83365340Y-95999976D01*
X83386767Y-95993476D01*
X83470851Y-95976750D01*
X83493131Y-95974556D01*
X83511550Y-95974556D01*
X83523801Y-95973954D01*
X83542139Y-95972148D01*
X84029860Y-95972148D01*
X84045999Y-95973737D01*
X84045999Y-95973737D01*
G37*
G36*
X121764549Y-93791116D02*
G01*
X121875734Y-93813232D01*
X122085203Y-93899997D01*
X122273720Y-94025960D01*
X122434040Y-94186280D01*
X122560003Y-94374797D01*
X122646768Y-94584266D01*
X122691000Y-94806636D01*
X122691000Y-95033364D01*
X122646768Y-95255734D01*
X122560003Y-95465203D01*
X122434040Y-95653720D01*
X122273720Y-95814040D01*
X122085203Y-95940003D01*
X121875734Y-96026768D01*
X121764549Y-96048884D01*
X121653365Y-96071000D01*
X121426635Y-96071000D01*
X121315451Y-96048884D01*
X121204266Y-96026768D01*
X120994797Y-95940003D01*
X120806280Y-95814040D01*
X120645960Y-95653720D01*
X120519997Y-95465203D01*
X120433232Y-95255734D01*
X120389000Y-95033364D01*
X120389000Y-94806636D01*
X120433232Y-94584266D01*
X120519997Y-94374797D01*
X120645960Y-94186280D01*
X120806280Y-94025960D01*
X120994797Y-93899997D01*
X121204266Y-93813232D01*
X121315451Y-93791116D01*
X121426635Y-93769000D01*
X121653365Y-93769000D01*
X121764549Y-93791116D01*
X121764549Y-93791116D01*
G37*
G36*
X102764549Y-93791116D02*
G01*
X102875734Y-93813232D01*
X103085203Y-93899997D01*
X103273720Y-94025960D01*
X103434040Y-94186280D01*
X103560003Y-94374797D01*
X103646768Y-94584266D01*
X103691000Y-94806636D01*
X103691000Y-95033364D01*
X103646768Y-95255734D01*
X103560003Y-95465203D01*
X103434040Y-95653720D01*
X103273720Y-95814040D01*
X103085203Y-95940003D01*
X102875734Y-96026768D01*
X102764549Y-96048884D01*
X102653365Y-96071000D01*
X102426635Y-96071000D01*
X102315451Y-96048884D01*
X102204266Y-96026768D01*
X101994797Y-95940003D01*
X101806280Y-95814040D01*
X101645960Y-95653720D01*
X101519997Y-95465203D01*
X101433232Y-95255734D01*
X101389000Y-95033364D01*
X101389000Y-94806636D01*
X101433232Y-94584266D01*
X101519997Y-94374797D01*
X101645960Y-94186280D01*
X101806280Y-94025960D01*
X101994797Y-93899997D01*
X102204266Y-93813232D01*
X102315451Y-93791116D01*
X102426635Y-93769000D01*
X102653365Y-93769000D01*
X102764549Y-93791116D01*
X102764549Y-93791116D01*
G37*
G36*
X159764549Y-93791116D02*
G01*
X159875734Y-93813232D01*
X160085203Y-93899997D01*
X160273720Y-94025960D01*
X160434040Y-94186280D01*
X160560003Y-94374797D01*
X160646768Y-94584266D01*
X160691000Y-94806636D01*
X160691000Y-95033364D01*
X160646768Y-95255734D01*
X160560003Y-95465203D01*
X160434040Y-95653720D01*
X160273720Y-95814040D01*
X160085203Y-95940003D01*
X159875734Y-96026768D01*
X159764549Y-96048884D01*
X159653365Y-96071000D01*
X159426635Y-96071000D01*
X159315451Y-96048884D01*
X159204266Y-96026768D01*
X158994797Y-95940003D01*
X158806280Y-95814040D01*
X158645960Y-95653720D01*
X158519997Y-95465203D01*
X158433232Y-95255734D01*
X158389000Y-95033364D01*
X158389000Y-94806636D01*
X158433232Y-94584266D01*
X158519997Y-94374797D01*
X158645960Y-94186280D01*
X158806280Y-94025960D01*
X158994797Y-93899997D01*
X159204266Y-93813232D01*
X159315451Y-93791116D01*
X159426635Y-93769000D01*
X159653365Y-93769000D01*
X159764549Y-93791116D01*
X159764549Y-93791116D01*
G37*
G36*
X140764549Y-93791116D02*
G01*
X140875734Y-93813232D01*
X141085203Y-93899997D01*
X141273720Y-94025960D01*
X141434040Y-94186280D01*
X141560003Y-94374797D01*
X141646768Y-94584266D01*
X141691000Y-94806636D01*
X141691000Y-95033364D01*
X141646768Y-95255734D01*
X141560003Y-95465203D01*
X141434040Y-95653720D01*
X141273720Y-95814040D01*
X141085203Y-95940003D01*
X140875734Y-96026768D01*
X140764549Y-96048884D01*
X140653365Y-96071000D01*
X140426635Y-96071000D01*
X140315451Y-96048884D01*
X140204266Y-96026768D01*
X139994797Y-95940003D01*
X139806280Y-95814040D01*
X139645960Y-95653720D01*
X139519997Y-95465203D01*
X139433232Y-95255734D01*
X139389000Y-95033364D01*
X139389000Y-94806636D01*
X139433232Y-94584266D01*
X139519997Y-94374797D01*
X139645960Y-94186280D01*
X139806280Y-94025960D01*
X139994797Y-93899997D01*
X140204266Y-93813232D01*
X140315451Y-93791116D01*
X140426635Y-93769000D01*
X140653365Y-93769000D01*
X140764549Y-93791116D01*
X140764549Y-93791116D01*
G37*
G36*
X129449525Y-93919906D02*
G01*
X129530494Y-93936011D01*
X129683038Y-93999197D01*
X129819397Y-94090309D01*
X129820322Y-94090927D01*
X129937073Y-94207678D01*
X129937075Y-94207681D01*
X130028803Y-94344962D01*
X130028803Y-94344963D01*
X130091989Y-94497506D01*
X130124200Y-94659444D01*
X130124200Y-94824556D01*
X130091989Y-94986494D01*
X130072574Y-95033365D01*
X130028803Y-95139038D01*
X129950830Y-95255733D01*
X129937073Y-95276322D01*
X129820322Y-95393073D01*
X129820319Y-95393075D01*
X129683038Y-95484803D01*
X129606765Y-95516396D01*
X129530494Y-95547989D01*
X129449525Y-95564094D01*
X129368557Y-95580200D01*
X129203443Y-95580200D01*
X129122475Y-95564094D01*
X129041506Y-95547989D01*
X128965235Y-95516396D01*
X128888962Y-95484803D01*
X128751681Y-95393075D01*
X128751678Y-95393073D01*
X128634927Y-95276322D01*
X128621170Y-95255733D01*
X128543197Y-95139038D01*
X128499426Y-95033365D01*
X128480011Y-94986494D01*
X128447800Y-94824556D01*
X128447800Y-94659444D01*
X128480011Y-94497506D01*
X128543197Y-94344963D01*
X128543197Y-94344962D01*
X128634925Y-94207681D01*
X128634927Y-94207678D01*
X128751678Y-94090927D01*
X128752603Y-94090309D01*
X128888962Y-93999197D01*
X129041506Y-93936011D01*
X129122475Y-93919906D01*
X129203443Y-93903800D01*
X129368557Y-93903800D01*
X129449525Y-93919906D01*
X129449525Y-93919906D01*
G37*
G36*
X109129525Y-93919906D02*
G01*
X109210494Y-93936011D01*
X109363038Y-93999197D01*
X109499397Y-94090309D01*
X109500322Y-94090927D01*
X109617073Y-94207678D01*
X109617075Y-94207681D01*
X109708803Y-94344962D01*
X109708803Y-94344963D01*
X109771989Y-94497506D01*
X109804200Y-94659444D01*
X109804200Y-94824556D01*
X109771989Y-94986494D01*
X109752574Y-95033365D01*
X109708803Y-95139038D01*
X109630830Y-95255733D01*
X109617073Y-95276322D01*
X109500322Y-95393073D01*
X109500319Y-95393075D01*
X109363038Y-95484803D01*
X109286765Y-95516396D01*
X109210494Y-95547989D01*
X109129525Y-95564094D01*
X109048557Y-95580200D01*
X108883443Y-95580200D01*
X108802475Y-95564094D01*
X108721506Y-95547989D01*
X108645235Y-95516396D01*
X108568962Y-95484803D01*
X108431681Y-95393075D01*
X108431678Y-95393073D01*
X108314927Y-95276322D01*
X108301170Y-95255733D01*
X108223197Y-95139038D01*
X108179426Y-95033365D01*
X108160011Y-94986494D01*
X108127800Y-94824556D01*
X108127800Y-94659444D01*
X108160011Y-94497506D01*
X108223197Y-94344963D01*
X108223197Y-94344962D01*
X108314925Y-94207681D01*
X108314927Y-94207678D01*
X108431678Y-94090927D01*
X108432603Y-94090309D01*
X108568962Y-93999197D01*
X108721506Y-93936011D01*
X108802475Y-93919906D01*
X108883443Y-93903800D01*
X109048557Y-93903800D01*
X109129525Y-93919906D01*
X109129525Y-93919906D01*
G37*
G36*
X129449525Y-91379906D02*
G01*
X129530494Y-91396011D01*
X129683038Y-91459197D01*
X129819397Y-91550309D01*
X129820322Y-91550927D01*
X129937073Y-91667678D01*
X129937075Y-91667681D01*
X130028803Y-91804962D01*
X130091989Y-91957507D01*
X130124200Y-92119443D01*
X130124200Y-92284557D01*
X130091989Y-92446493D01*
X130028803Y-92599038D01*
X129937691Y-92735397D01*
X129937073Y-92736322D01*
X129820322Y-92853073D01*
X129820319Y-92853075D01*
X129683038Y-92944803D01*
X129606765Y-92976396D01*
X129530494Y-93007989D01*
X129449525Y-93024094D01*
X129368557Y-93040200D01*
X129203443Y-93040200D01*
X129122475Y-93024094D01*
X129041506Y-93007989D01*
X128965235Y-92976396D01*
X128888962Y-92944803D01*
X128751681Y-92853075D01*
X128751678Y-92853073D01*
X128634927Y-92736322D01*
X128634309Y-92735397D01*
X128543197Y-92599038D01*
X128480011Y-92446493D01*
X128447800Y-92284557D01*
X128447800Y-92119443D01*
X128480011Y-91957507D01*
X128543197Y-91804962D01*
X128634925Y-91667681D01*
X128634927Y-91667678D01*
X128751678Y-91550927D01*
X128752603Y-91550309D01*
X128888962Y-91459197D01*
X129041506Y-91396011D01*
X129122475Y-91379906D01*
X129203443Y-91363800D01*
X129368557Y-91363800D01*
X129449525Y-91379906D01*
X129449525Y-91379906D01*
G37*
G36*
X109129525Y-91379906D02*
G01*
X109210494Y-91396011D01*
X109363038Y-91459197D01*
X109499397Y-91550309D01*
X109500322Y-91550927D01*
X109617073Y-91667678D01*
X109617075Y-91667681D01*
X109708803Y-91804962D01*
X109771989Y-91957507D01*
X109804200Y-92119443D01*
X109804200Y-92284557D01*
X109771989Y-92446493D01*
X109708803Y-92599038D01*
X109617691Y-92735397D01*
X109617073Y-92736322D01*
X109500322Y-92853073D01*
X109500319Y-92853075D01*
X109363038Y-92944803D01*
X109286765Y-92976396D01*
X109210494Y-93007989D01*
X109129525Y-93024094D01*
X109048557Y-93040200D01*
X108883443Y-93040200D01*
X108802475Y-93024094D01*
X108721506Y-93007989D01*
X108645235Y-92976396D01*
X108568962Y-92944803D01*
X108431681Y-92853075D01*
X108431678Y-92853073D01*
X108314927Y-92736322D01*
X108314309Y-92735397D01*
X108223197Y-92599038D01*
X108160011Y-92446493D01*
X108127800Y-92284557D01*
X108127800Y-92119443D01*
X108160011Y-91957507D01*
X108223197Y-91804962D01*
X108314925Y-91667681D01*
X108314927Y-91667678D01*
X108431678Y-91550927D01*
X108432603Y-91550309D01*
X108568962Y-91459197D01*
X108721506Y-91396011D01*
X108802475Y-91379906D01*
X108883443Y-91363800D01*
X109048557Y-91363800D01*
X109129525Y-91379906D01*
X109129525Y-91379906D01*
G37*
M02*
