G04 #@! TF.GenerationSoftware,KiCad,Pcbnew,(5.1.2-1)-1*
G04 #@! TF.CreationDate,2019-11-15T20:19:46-06:00*
G04 #@! TF.ProjectId,cherry-huzzah32,63686572-7279-42d6-9875-7a7a61683332,rev?*
G04 #@! TF.SameCoordinates,Original*
G04 #@! TF.FileFunction,Legend,Top*
G04 #@! TF.FilePolarity,Positive*
%FSLAX46Y46*%
G04 Gerber Fmt 4.6, Leading zero omitted, Abs format (unit mm)*
G04 Created by KiCad (PCBNEW (5.1.2-1)-1) date 2019-11-15 20:19:46*
%MOMM*%
%LPD*%
G04 APERTURE LIST*
%ADD10C,0.300000*%
%ADD11C,0.150000*%
%ADD12C,0.010000*%
%ADD13C,0.120000*%
G04 APERTURE END LIST*
D10*
X85371428Y-132052142D02*
X86871428Y-132052142D01*
X85942857Y-132195000D02*
X85371428Y-132623571D01*
X86371428Y-132623571D02*
X85800000Y-132052142D01*
X85442857Y-133837857D02*
X85371428Y-133695000D01*
X85371428Y-133409285D01*
X85442857Y-133266428D01*
X85585714Y-133195000D01*
X86157142Y-133195000D01*
X86300000Y-133266428D01*
X86371428Y-133409285D01*
X86371428Y-133695000D01*
X86300000Y-133837857D01*
X86157142Y-133909285D01*
X86014285Y-133909285D01*
X85871428Y-133195000D01*
X86371428Y-134409285D02*
X85371428Y-134766428D01*
X86371428Y-135123571D02*
X85371428Y-134766428D01*
X85014285Y-134623571D01*
X84942857Y-134552142D01*
X84871428Y-134409285D01*
X86371428Y-135480714D02*
X86371428Y-136052142D01*
X86871428Y-135695000D02*
X85585714Y-135695000D01*
X85442857Y-135766428D01*
X85371428Y-135909285D01*
X85371428Y-136052142D01*
X85371428Y-137195000D02*
X86157142Y-137195000D01*
X86300000Y-137123571D01*
X86371428Y-136980714D01*
X86371428Y-136695000D01*
X86300000Y-136552142D01*
X85442857Y-137195000D02*
X85371428Y-137052142D01*
X85371428Y-136695000D01*
X85442857Y-136552142D01*
X85585714Y-136480714D01*
X85728571Y-136480714D01*
X85871428Y-136552142D01*
X85942857Y-136695000D01*
X85942857Y-137052142D01*
X86014285Y-137195000D01*
X85371428Y-137909285D02*
X86371428Y-137909285D01*
X86085714Y-137909285D02*
X86228571Y-137980714D01*
X86300000Y-138052142D01*
X86371428Y-138195000D01*
X86371428Y-138337857D01*
X82821428Y-132052142D02*
X83821428Y-132052142D01*
X83535714Y-132052142D02*
X83678571Y-132123571D01*
X83750000Y-132195000D01*
X83821428Y-132337857D01*
X83821428Y-132480714D01*
X82821428Y-133766428D02*
X82821428Y-132909285D01*
X82821428Y-133337857D02*
X84321428Y-133337857D01*
X84107142Y-133195000D01*
X83964285Y-133052142D01*
X83892857Y-132909285D01*
X84178571Y-135480714D02*
X84250000Y-135552142D01*
X84321428Y-135695000D01*
X84321428Y-136052142D01*
X84250000Y-136195000D01*
X84178571Y-136266428D01*
X84035714Y-136337857D01*
X83892857Y-136337857D01*
X83678571Y-136266428D01*
X82821428Y-135409285D01*
X82821428Y-136337857D01*
X84321428Y-137266428D02*
X84321428Y-137409285D01*
X84250000Y-137552142D01*
X84178571Y-137623571D01*
X84035714Y-137695000D01*
X83750000Y-137766428D01*
X83392857Y-137766428D01*
X83107142Y-137695000D01*
X82964285Y-137623571D01*
X82892857Y-137552142D01*
X82821428Y-137409285D01*
X82821428Y-137266428D01*
X82892857Y-137123571D01*
X82964285Y-137052142D01*
X83107142Y-136980714D01*
X83392857Y-136909285D01*
X83750000Y-136909285D01*
X84035714Y-136980714D01*
X84178571Y-137052142D01*
X84250000Y-137123571D01*
X84321428Y-137266428D01*
X82821428Y-139195000D02*
X82821428Y-138337857D01*
X82821428Y-138766428D02*
X84321428Y-138766428D01*
X84107142Y-138623571D01*
X83964285Y-138480714D01*
X83892857Y-138337857D01*
X82821428Y-139909285D02*
X82821428Y-140195000D01*
X82892857Y-140337857D01*
X82964285Y-140409285D01*
X83178571Y-140552142D01*
X83464285Y-140623571D01*
X84035714Y-140623571D01*
X84178571Y-140552142D01*
X84250000Y-140480714D01*
X84321428Y-140337857D01*
X84321428Y-140052142D01*
X84250000Y-139909285D01*
X84178571Y-139837857D01*
X84035714Y-139766428D01*
X83678571Y-139766428D01*
X83535714Y-139837857D01*
X83464285Y-139909285D01*
X83392857Y-140052142D01*
X83392857Y-140337857D01*
X83464285Y-140480714D01*
X83535714Y-140552142D01*
X83678571Y-140623571D01*
X80271428Y-132695000D02*
X81771428Y-132695000D01*
X80342857Y-132695000D02*
X80271428Y-132552142D01*
X80271428Y-132266428D01*
X80342857Y-132123571D01*
X80414285Y-132052142D01*
X80557142Y-131980714D01*
X80985714Y-131980714D01*
X81128571Y-132052142D01*
X81200000Y-132123571D01*
X81271428Y-132266428D01*
X81271428Y-132552142D01*
X81200000Y-132695000D01*
X80342857Y-133980714D02*
X80271428Y-133837857D01*
X80271428Y-133552142D01*
X80342857Y-133409285D01*
X80485714Y-133337857D01*
X81057142Y-133337857D01*
X81200000Y-133409285D01*
X81271428Y-133552142D01*
X81271428Y-133837857D01*
X81200000Y-133980714D01*
X81057142Y-134052142D01*
X80914285Y-134052142D01*
X80771428Y-133337857D01*
X81271428Y-134695000D02*
X79771428Y-134695000D01*
X81200000Y-134695000D02*
X81271428Y-134837857D01*
X81271428Y-135123571D01*
X81200000Y-135266428D01*
X81128571Y-135337857D01*
X80985714Y-135409285D01*
X80557142Y-135409285D01*
X80414285Y-135337857D01*
X80342857Y-135266428D01*
X80271428Y-135123571D01*
X80271428Y-134837857D01*
X80342857Y-134695000D01*
X80271428Y-136695000D02*
X81057142Y-136695000D01*
X81200000Y-136623571D01*
X81271428Y-136480714D01*
X81271428Y-136195000D01*
X81200000Y-136052142D01*
X80342857Y-136695000D02*
X80271428Y-136552142D01*
X80271428Y-136195000D01*
X80342857Y-136052142D01*
X80485714Y-135980714D01*
X80628571Y-135980714D01*
X80771428Y-136052142D01*
X80842857Y-136195000D01*
X80842857Y-136552142D01*
X80914285Y-136695000D01*
X80271428Y-137409285D02*
X81271428Y-137409285D01*
X80985714Y-137409285D02*
X81128571Y-137480714D01*
X81200000Y-137552142D01*
X81271428Y-137695000D01*
X81271428Y-137837857D01*
X81271428Y-138123571D02*
X81271428Y-138695000D01*
X81771428Y-138337857D02*
X80485714Y-138337857D01*
X80342857Y-138409285D01*
X80271428Y-138552142D01*
X80271428Y-138695000D01*
X80271428Y-139195000D02*
X81271428Y-139195000D01*
X81128571Y-139195000D02*
X81200000Y-139266428D01*
X81271428Y-139409285D01*
X81271428Y-139623571D01*
X81200000Y-139766428D01*
X81057142Y-139837857D01*
X80271428Y-139837857D01*
X81057142Y-139837857D02*
X81200000Y-139909285D01*
X81271428Y-140052142D01*
X81271428Y-140266428D01*
X81200000Y-140409285D01*
X81057142Y-140480714D01*
X80271428Y-140480714D01*
X80342857Y-141766428D02*
X80271428Y-141623571D01*
X80271428Y-141337857D01*
X80342857Y-141195000D01*
X80485714Y-141123571D01*
X81057142Y-141123571D01*
X81200000Y-141195000D01*
X81271428Y-141337857D01*
X81271428Y-141623571D01*
X81200000Y-141766428D01*
X81057142Y-141837857D01*
X80914285Y-141837857D01*
X80771428Y-141123571D01*
X81271428Y-142480714D02*
X80271428Y-142480714D01*
X81128571Y-142480714D02*
X81200000Y-142552142D01*
X81271428Y-142695000D01*
X81271428Y-142909285D01*
X81200000Y-143052142D01*
X81057142Y-143123571D01*
X80271428Y-143123571D01*
X81271428Y-143623571D02*
X81271428Y-144195000D01*
X81771428Y-143837857D02*
X80485714Y-143837857D01*
X80342857Y-143909285D01*
X80271428Y-144052142D01*
X80271428Y-144195000D01*
X80271428Y-144909285D02*
X80342857Y-144766428D01*
X80414285Y-144695000D01*
X80557142Y-144623571D01*
X80985714Y-144623571D01*
X81128571Y-144695000D01*
X81200000Y-144766428D01*
X81271428Y-144909285D01*
X81271428Y-145123571D01*
X81200000Y-145266428D01*
X81128571Y-145337857D01*
X80985714Y-145409285D01*
X80557142Y-145409285D01*
X80414285Y-145337857D01*
X80342857Y-145266428D01*
X80271428Y-145123571D01*
X80271428Y-144909285D01*
X81271428Y-145837857D02*
X81271428Y-146409285D01*
X80271428Y-146052142D02*
X81557142Y-146052142D01*
X81700000Y-146123571D01*
X81771428Y-146266428D01*
X81771428Y-146409285D01*
X80271428Y-146909285D02*
X81271428Y-146909285D01*
X81771428Y-146909285D02*
X81700000Y-146837857D01*
X81628571Y-146909285D01*
X81700000Y-146980714D01*
X81771428Y-146909285D01*
X81628571Y-146909285D01*
X81271428Y-147623571D02*
X80271428Y-147623571D01*
X81128571Y-147623571D02*
X81200000Y-147695000D01*
X81271428Y-147837857D01*
X81271428Y-148052142D01*
X81200000Y-148195000D01*
X81057142Y-148266428D01*
X80271428Y-148266428D01*
X81271428Y-148766428D02*
X81271428Y-149337857D01*
X81771428Y-148980714D02*
X80485714Y-148980714D01*
X80342857Y-149052142D01*
X80271428Y-149195000D01*
X80271428Y-149337857D01*
X80342857Y-150409285D02*
X80271428Y-150266428D01*
X80271428Y-149980714D01*
X80342857Y-149837857D01*
X80485714Y-149766428D01*
X81057142Y-149766428D01*
X81200000Y-149837857D01*
X81271428Y-149980714D01*
X81271428Y-150266428D01*
X81200000Y-150409285D01*
X81057142Y-150480714D01*
X80914285Y-150480714D01*
X80771428Y-149766428D01*
X80271428Y-151123571D02*
X81271428Y-151123571D01*
X80985714Y-151123571D02*
X81128571Y-151195000D01*
X81200000Y-151266428D01*
X81271428Y-151409285D01*
X81271428Y-151552142D01*
X80414285Y-152052142D02*
X80342857Y-152123571D01*
X80271428Y-152052142D01*
X80342857Y-151980714D01*
X80414285Y-152052142D01*
X80271428Y-152052142D01*
X81271428Y-152766428D02*
X80271428Y-152766428D01*
X81128571Y-152766428D02*
X81200000Y-152837857D01*
X81271428Y-152980714D01*
X81271428Y-153195000D01*
X81200000Y-153337857D01*
X81057142Y-153409285D01*
X80271428Y-153409285D01*
X80342857Y-154695000D02*
X80271428Y-154552142D01*
X80271428Y-154266428D01*
X80342857Y-154123571D01*
X80485714Y-154052142D01*
X81057142Y-154052142D01*
X81200000Y-154123571D01*
X81271428Y-154266428D01*
X81271428Y-154552142D01*
X81200000Y-154695000D01*
X81057142Y-154766428D01*
X80914285Y-154766428D01*
X80771428Y-154052142D01*
X81271428Y-155195000D02*
X81271428Y-155766428D01*
X81771428Y-155409285D02*
X80485714Y-155409285D01*
X80342857Y-155480714D01*
X80271428Y-155623571D01*
X80271428Y-155766428D01*
D11*
X70300300Y-140849440D02*
X70399360Y-140250000D01*
X70201240Y-141250760D02*
X70300300Y-140849440D01*
X69898980Y-141751140D02*
X70201240Y-141250760D01*
X69401140Y-142248980D02*
X69898980Y-141751140D01*
X68900760Y-142551240D02*
X69401140Y-142248980D01*
X68298780Y-142749360D02*
X68900760Y-142551240D01*
X67699340Y-142749360D02*
X68298780Y-142749360D01*
X67099900Y-142650300D02*
X67699340Y-142749360D01*
X66398860Y-142248980D02*
X67099900Y-142650300D01*
X65901020Y-141751140D02*
X66398860Y-142248980D01*
X65598760Y-141149160D02*
X65901020Y-141751140D01*
X65400640Y-140549720D02*
X65598760Y-141149160D01*
X65400640Y-139749620D02*
X65400640Y-140549720D01*
X65700360Y-139051120D02*
X65400640Y-139749620D01*
X66099140Y-138550740D02*
X65700360Y-139051120D01*
X66800180Y-137948760D02*
X66099140Y-138550740D01*
X67600280Y-137750640D02*
X66800180Y-137948760D01*
X68199720Y-137750640D02*
X67600280Y-137750640D01*
X68700100Y-137849700D02*
X68199720Y-137750640D01*
X69098880Y-138050360D02*
X68700100Y-137849700D01*
X69700860Y-138550740D02*
X69098880Y-138050360D01*
X70099640Y-139051120D02*
X69700860Y-138550740D01*
X70300300Y-139548960D02*
X70099640Y-139051120D01*
X70399360Y-140150940D02*
X70300300Y-139548960D01*
X70399360Y-140250000D02*
X70399360Y-140150940D01*
X69050000Y-140000000D02*
X69100000Y-140250000D01*
X68850000Y-139750000D02*
X69050000Y-140000000D01*
X68350000Y-139600000D02*
X68850000Y-139750000D01*
X67850000Y-139500000D02*
X68350000Y-139600000D01*
X67300000Y-139600000D02*
X67850000Y-139500000D01*
X66900000Y-139750000D02*
X67300000Y-139600000D01*
X66650000Y-140000000D02*
X66900000Y-139750000D01*
X66600000Y-140300000D02*
X66650000Y-140000000D01*
X66800000Y-140600000D02*
X66600000Y-140300000D01*
X67050000Y-140750000D02*
X66800000Y-140600000D01*
X67500000Y-140950000D02*
X67050000Y-140750000D01*
X67850000Y-140950000D02*
X67500000Y-140950000D01*
X68300000Y-140950000D02*
X67850000Y-140950000D01*
X68700000Y-140800000D02*
X68300000Y-140950000D01*
X69000000Y-140550000D02*
X68700000Y-140800000D01*
X69100000Y-140250000D02*
X69000000Y-140550000D01*
X70350300Y-134999440D02*
X70449360Y-134400000D01*
X70251240Y-135400760D02*
X70350300Y-134999440D01*
X69948980Y-135901140D02*
X70251240Y-135400760D01*
X69451140Y-136398980D02*
X69948980Y-135901140D01*
X68950760Y-136701240D02*
X69451140Y-136398980D01*
X68348780Y-136899360D02*
X68950760Y-136701240D01*
X67749340Y-136899360D02*
X68348780Y-136899360D01*
X67149900Y-136800300D02*
X67749340Y-136899360D01*
X66448860Y-136398980D02*
X67149900Y-136800300D01*
X65951020Y-135901140D02*
X66448860Y-136398980D01*
X65648760Y-135299160D02*
X65951020Y-135901140D01*
X65450640Y-134699720D02*
X65648760Y-135299160D01*
X65450640Y-133899620D02*
X65450640Y-134699720D01*
X65750360Y-133201120D02*
X65450640Y-133899620D01*
X66149140Y-132700740D02*
X65750360Y-133201120D01*
X66850180Y-132098760D02*
X66149140Y-132700740D01*
X67650280Y-131900640D02*
X66850180Y-132098760D01*
X68249720Y-131900640D02*
X67650280Y-131900640D01*
X68750100Y-131999700D02*
X68249720Y-131900640D01*
X69148880Y-132200360D02*
X68750100Y-131999700D01*
X69750860Y-132700740D02*
X69148880Y-132200360D01*
X70149640Y-133201120D02*
X69750860Y-132700740D01*
X70350300Y-133698960D02*
X70149640Y-133201120D01*
X70449360Y-134300940D02*
X70350300Y-133698960D01*
X70449360Y-134400000D02*
X70449360Y-134300940D01*
X66949240Y-133800560D02*
X67149900Y-134001220D01*
X66949240Y-133399240D02*
X66949240Y-133800560D01*
X67050840Y-133099520D02*
X66949240Y-133399240D01*
X67350560Y-132898860D02*
X67050840Y-133099520D01*
X67850940Y-132799800D02*
X67350560Y-132898860D01*
X68249720Y-132799800D02*
X67850940Y-132799800D01*
X68651040Y-132898860D02*
X68249720Y-132799800D01*
X68849160Y-133201120D02*
X68651040Y-132898860D01*
X68950760Y-133599900D02*
X68849160Y-133201120D01*
X68849160Y-133899620D02*
X68950760Y-133599900D01*
X68750100Y-134001220D02*
X68849160Y-133899620D01*
X66949240Y-135901140D02*
X67149900Y-136000200D01*
X66949240Y-135598880D02*
X66949240Y-135901140D01*
X66949240Y-135400760D02*
X66949240Y-135598880D01*
X67149900Y-134999440D02*
X66949240Y-135400760D01*
X67551220Y-134798780D02*
X67149900Y-134999440D01*
X67950000Y-134798780D02*
X67551220Y-134798780D01*
X68450380Y-134900380D02*
X67950000Y-134798780D01*
X68849160Y-135101040D02*
X68450380Y-134900380D01*
X68950760Y-135400760D02*
X68849160Y-135101040D01*
X68950760Y-135700480D02*
X68950760Y-135400760D01*
X68849160Y-135901140D02*
X68950760Y-135700480D01*
X68750100Y-136000200D02*
X68849160Y-135901140D01*
X68450000Y-145600000D02*
X68550000Y-145950000D01*
X68550000Y-145250000D02*
X68450000Y-145600000D01*
X68850000Y-145050000D02*
X68550000Y-145250000D01*
X69150000Y-144950000D02*
X68850000Y-145050000D01*
X69600000Y-145050000D02*
X69150000Y-144950000D01*
X69900000Y-145300000D02*
X69600000Y-145050000D01*
X69950000Y-145650000D02*
X69900000Y-145300000D01*
X69800000Y-145950000D02*
X69950000Y-145650000D01*
X68450000Y-147200000D02*
X68600000Y-147450000D01*
X68500000Y-146900000D02*
X68450000Y-147200000D01*
X68800000Y-146600000D02*
X68500000Y-146900000D01*
X69200000Y-146500000D02*
X68800000Y-146600000D01*
X69600000Y-146550000D02*
X69200000Y-146500000D01*
X69950000Y-146900000D02*
X69600000Y-146550000D01*
X69900000Y-147300000D02*
X69950000Y-146900000D01*
X69800000Y-147550000D02*
X69900000Y-147300000D01*
X69000000Y-148050000D02*
X69000000Y-149300000D01*
X69200000Y-150550000D02*
X69200000Y-150050000D01*
X69300000Y-150800000D02*
X69200000Y-150550000D01*
X69550000Y-150850000D02*
X69300000Y-150800000D01*
X69750000Y-150850000D02*
X69550000Y-150850000D01*
X69950000Y-150650000D02*
X69750000Y-150850000D01*
X69950000Y-150050000D02*
X69950000Y-150650000D01*
X68450000Y-150050000D02*
X69950000Y-150050000D01*
X69950000Y-151800000D02*
X69950000Y-151650000D01*
X69850000Y-152150000D02*
X69950000Y-151800000D01*
X69600000Y-152300000D02*
X69850000Y-152150000D01*
X69200000Y-152400000D02*
X69600000Y-152300000D01*
X68850000Y-152350000D02*
X69200000Y-152400000D01*
X68550000Y-152150000D02*
X68850000Y-152350000D01*
X68450000Y-151850000D02*
X68550000Y-152150000D01*
X68450000Y-151550000D02*
X68450000Y-151850000D01*
X69950000Y-151550000D02*
X68450000Y-151550000D01*
X68050000Y-153950000D02*
X70050000Y-155300000D01*
X69150000Y-157550000D02*
X69150000Y-157100000D01*
X69300000Y-157750000D02*
X69150000Y-157550000D01*
X69550000Y-157850000D02*
X69300000Y-157750000D01*
X69850000Y-157750000D02*
X69550000Y-157850000D01*
X69950000Y-157500000D02*
X69850000Y-157750000D01*
X69950000Y-157000000D02*
X69950000Y-157500000D01*
X68450000Y-157000000D02*
X69950000Y-157000000D01*
X68450000Y-158800000D02*
X68550000Y-159150000D01*
X68500000Y-158600000D02*
X68450000Y-158800000D01*
X68650000Y-158450000D02*
X68500000Y-158600000D01*
X69000000Y-158450000D02*
X68650000Y-158450000D01*
X69400000Y-158450000D02*
X69000000Y-158450000D01*
X69450000Y-159150000D02*
X68450000Y-159150000D01*
X69450000Y-160250000D02*
X69450000Y-159950000D01*
X69350000Y-160500000D02*
X69450000Y-160250000D01*
X69000000Y-160600000D02*
X69350000Y-160500000D01*
X68600000Y-160500000D02*
X69000000Y-160600000D01*
X68450000Y-160250000D02*
X68600000Y-160500000D01*
X68450000Y-159850000D02*
X68450000Y-160250000D01*
X69950000Y-159900000D02*
X68450000Y-159850000D01*
X68600000Y-161250000D02*
X68450000Y-161450000D01*
X69900000Y-161250000D02*
X68600000Y-161250000D01*
X69800000Y-162050000D02*
X69800000Y-162000000D01*
X69900000Y-162050000D02*
X69800000Y-162050000D01*
X69450000Y-162050000D02*
X68500000Y-162050000D01*
X68450000Y-163150000D02*
X68500000Y-163400000D01*
X68500000Y-162850000D02*
X68450000Y-163150000D01*
X68750000Y-162700000D02*
X68500000Y-162850000D01*
X69100000Y-162700000D02*
X68750000Y-162700000D01*
X69400000Y-162850000D02*
X69100000Y-162700000D01*
X69450000Y-163200000D02*
X69400000Y-162850000D01*
X69350000Y-163450000D02*
X69450000Y-163200000D01*
X69900000Y-165750000D02*
X69950000Y-165250000D01*
X69650000Y-166000000D02*
X69900000Y-165750000D01*
X69150000Y-166100000D02*
X69650000Y-166000000D01*
X68700000Y-166000000D02*
X69150000Y-166100000D01*
X68450000Y-165650000D02*
X68700000Y-166000000D01*
X68450000Y-165250000D02*
X68450000Y-165650000D01*
X69950000Y-165250000D02*
X68450000Y-165250000D01*
X69250000Y-167400000D02*
X69400000Y-167200000D01*
X69100000Y-167450000D02*
X69250000Y-167400000D01*
X68750000Y-167450000D02*
X69100000Y-167450000D01*
X68500000Y-167250000D02*
X68750000Y-167450000D01*
X68450000Y-166950000D02*
X68500000Y-167250000D01*
X68700000Y-166700000D02*
X68450000Y-166950000D01*
X69050000Y-166700000D02*
X68700000Y-166700000D01*
X69350000Y-166850000D02*
X69050000Y-166700000D01*
X69450000Y-167100000D02*
X69350000Y-166850000D01*
X68400000Y-168150000D02*
X69450000Y-168150000D01*
X69400000Y-168500000D02*
X69350000Y-168250000D01*
X69350000Y-168700000D02*
X69400000Y-168500000D01*
X69250000Y-168800000D02*
X69350000Y-168700000D01*
X68400000Y-168800000D02*
X69250000Y-168800000D01*
X69400000Y-169050000D02*
X69300000Y-168850000D01*
X69400000Y-169300000D02*
X69400000Y-169050000D01*
X69300000Y-169400000D02*
X69400000Y-169300000D01*
X69100000Y-169450000D02*
X69300000Y-169400000D01*
X68350000Y-169450000D02*
X69100000Y-169450000D01*
X69250000Y-170800000D02*
X68400000Y-170850000D01*
X69450000Y-170650000D02*
X69250000Y-170800000D01*
X69450000Y-170300000D02*
X69450000Y-170650000D01*
X69350000Y-170150000D02*
X69450000Y-170300000D01*
X68450000Y-170350000D02*
X68500000Y-170750000D01*
X68550000Y-170150000D02*
X68450000Y-170350000D01*
X68800000Y-170150000D02*
X68550000Y-170150000D01*
X68950000Y-170300000D02*
X68800000Y-170150000D01*
X68950000Y-170600000D02*
X68950000Y-170300000D01*
X69950000Y-171550000D02*
X69850000Y-171550000D01*
X69400000Y-171550000D02*
X68450000Y-171550000D01*
X69400000Y-172300000D02*
X68500000Y-172300000D01*
X69400000Y-172700000D02*
X69350000Y-172350000D01*
X69350000Y-172850000D02*
X69400000Y-172700000D01*
X69150000Y-172950000D02*
X69350000Y-172850000D01*
X68450000Y-173000000D02*
X69150000Y-172950000D01*
X67350000Y-144300000D02*
X65850000Y-144300000D01*
X66800000Y-144850000D02*
X66800000Y-144450000D01*
X66600000Y-144950000D02*
X66800000Y-144850000D01*
X65750000Y-145000000D02*
X66600000Y-144950000D01*
X65800000Y-145850000D02*
X65800000Y-146050000D01*
X65950000Y-145700000D02*
X65800000Y-145850000D01*
X67350000Y-145700000D02*
X65950000Y-145700000D01*
X66850000Y-145350000D02*
X66850000Y-145950000D01*
X65850000Y-146850000D02*
X65850000Y-146950000D01*
X65950000Y-146600000D02*
X65850000Y-146850000D01*
X67350000Y-146600000D02*
X65950000Y-146600000D01*
X66850000Y-146950000D02*
X66850000Y-146450000D01*
X65300000Y-147450000D02*
X66850000Y-147450000D01*
X66850000Y-147900000D02*
X66750000Y-147550000D01*
X66700000Y-148150000D02*
X66850000Y-147900000D01*
X66350000Y-148200000D02*
X66700000Y-148150000D01*
X66050000Y-148100000D02*
X66350000Y-148200000D01*
X65850000Y-147850000D02*
X66050000Y-148100000D01*
X65850000Y-147500000D02*
X65850000Y-147850000D01*
X66800000Y-148800000D02*
X66700000Y-148800000D01*
X66000000Y-148850000D02*
X65850000Y-148800000D01*
X65450000Y-149300000D02*
X67400000Y-150600000D01*
X65450000Y-150900000D02*
X67450000Y-152200000D01*
X65850000Y-153050000D02*
X65950000Y-153350000D01*
X66000000Y-152750000D02*
X65850000Y-153050000D01*
X66400000Y-152650000D02*
X66000000Y-152750000D01*
X66800000Y-152850000D02*
X66400000Y-152650000D01*
X66850000Y-153150000D02*
X66800000Y-152850000D01*
X66750000Y-153400000D02*
X66850000Y-153150000D01*
X65850000Y-154000000D02*
X66900000Y-154000000D01*
X66800000Y-154300000D02*
X66650000Y-154100000D01*
X66850000Y-154550000D02*
X66800000Y-154300000D01*
X66550000Y-155650000D02*
X66300000Y-155000000D01*
X66650000Y-155650000D02*
X66550000Y-155650000D01*
X66850000Y-155450000D02*
X66650000Y-155650000D01*
X66850000Y-155200000D02*
X66850000Y-155450000D01*
X66750000Y-155000000D02*
X66850000Y-155200000D01*
X66500000Y-154900000D02*
X66750000Y-155000000D01*
X66150000Y-154950000D02*
X66500000Y-154900000D01*
X65850000Y-155050000D02*
X66150000Y-154950000D01*
X65850000Y-155300000D02*
X65850000Y-155050000D01*
X65900000Y-155600000D02*
X65850000Y-155300000D01*
X66350000Y-156350000D02*
X66400000Y-156850000D01*
X66200000Y-156250000D02*
X66350000Y-156350000D01*
X65950000Y-156300000D02*
X66200000Y-156250000D01*
X65850000Y-156450000D02*
X65950000Y-156300000D01*
X65850000Y-156950000D02*
X65850000Y-156450000D01*
X65800000Y-156950000D02*
X65850000Y-156950000D01*
X66650000Y-156950000D02*
X65800000Y-156950000D01*
X66850000Y-156800000D02*
X66650000Y-156950000D01*
X66850000Y-156400000D02*
X66850000Y-156800000D01*
X66800000Y-156250000D02*
X66850000Y-156400000D01*
X65900000Y-157850000D02*
X65850000Y-158000000D01*
X66050000Y-157700000D02*
X65900000Y-157850000D01*
X67300000Y-157700000D02*
X66050000Y-157700000D01*
X66850000Y-157400000D02*
X66850000Y-158050000D01*
X67400000Y-158550000D02*
X67250000Y-158550000D01*
X66850000Y-158550000D02*
X65850000Y-158550000D01*
X65850000Y-159500000D02*
X66850000Y-159850000D01*
X66900000Y-159100000D02*
X65850000Y-159500000D01*
X66550000Y-161200000D02*
X66300000Y-160450000D01*
X66650000Y-161150000D02*
X66550000Y-161200000D01*
X66850000Y-160950000D02*
X66650000Y-161150000D01*
X66850000Y-160600000D02*
X66850000Y-160950000D01*
X66750000Y-160350000D02*
X66850000Y-160600000D01*
X66400000Y-160350000D02*
X66750000Y-160350000D01*
X66050000Y-160400000D02*
X66400000Y-160350000D01*
X65850000Y-160600000D02*
X66050000Y-160400000D01*
X65850000Y-160850000D02*
X65850000Y-160600000D01*
X65900000Y-161100000D02*
X65850000Y-160850000D01*
X65850000Y-162150000D02*
X65950000Y-162350000D01*
X65900000Y-161850000D02*
X65850000Y-162150000D01*
X66000000Y-161700000D02*
X65900000Y-161850000D01*
X66250000Y-161650000D02*
X66000000Y-161700000D01*
X66650000Y-161750000D02*
X66250000Y-161650000D01*
X66850000Y-161950000D02*
X66650000Y-161750000D01*
X66850000Y-162200000D02*
X66850000Y-161950000D01*
X66750000Y-162450000D02*
X66850000Y-162200000D01*
X66650000Y-163750000D02*
X66800000Y-163550000D01*
X66350000Y-163800000D02*
X66650000Y-163750000D01*
X66050000Y-163700000D02*
X66350000Y-163800000D01*
X65900000Y-163500000D02*
X66050000Y-163700000D01*
X65850000Y-163250000D02*
X65900000Y-163500000D01*
X65950000Y-163000000D02*
X65850000Y-163250000D01*
X66450000Y-162900000D02*
X65950000Y-163000000D01*
X66800000Y-163200000D02*
X66450000Y-162900000D01*
X66800000Y-163400000D02*
X66800000Y-163200000D01*
X65800000Y-164450000D02*
X66850000Y-164450000D01*
X66800000Y-164900000D02*
X66750000Y-164500000D01*
X66650000Y-165050000D02*
X66800000Y-164900000D01*
X65800000Y-165050000D02*
X66650000Y-165050000D01*
X66850000Y-165400000D02*
X66750000Y-165100000D01*
X66800000Y-165600000D02*
X66850000Y-165400000D01*
X66650000Y-165750000D02*
X66800000Y-165600000D01*
X65750000Y-165750000D02*
X66650000Y-165750000D01*
X65800000Y-166450000D02*
X66800000Y-166450000D01*
X66800000Y-166700000D02*
X66750000Y-166550000D01*
X66850000Y-166950000D02*
X66800000Y-166700000D01*
X66700000Y-167150000D02*
X66850000Y-166950000D01*
X65750000Y-167150000D02*
X66700000Y-167150000D01*
X66800000Y-167350000D02*
X66700000Y-167200000D01*
X66850000Y-167600000D02*
X66800000Y-167350000D01*
X66700000Y-167750000D02*
X66850000Y-167600000D01*
X65800000Y-167800000D02*
X66700000Y-167750000D01*
X66400000Y-169250000D02*
X66650000Y-169200000D01*
X66200000Y-169200000D02*
X66400000Y-169250000D01*
X65950000Y-169100000D02*
X66200000Y-169200000D01*
X65850000Y-168850000D02*
X65950000Y-169100000D01*
X65900000Y-168600000D02*
X65850000Y-168850000D01*
X66100000Y-168450000D02*
X65900000Y-168600000D01*
X66300000Y-168400000D02*
X66100000Y-168450000D01*
X66600000Y-168450000D02*
X66300000Y-168400000D01*
X66800000Y-168550000D02*
X66600000Y-168450000D01*
X66850000Y-168750000D02*
X66800000Y-168550000D01*
X66850000Y-169000000D02*
X66850000Y-168750000D01*
X66750000Y-169150000D02*
X66850000Y-169000000D01*
X65800000Y-169850000D02*
X66850000Y-169850000D01*
X66800000Y-170200000D02*
X66700000Y-169900000D01*
X66800000Y-170400000D02*
X66800000Y-170200000D01*
X66600000Y-170550000D02*
X66800000Y-170400000D01*
X65750000Y-170500000D02*
X66600000Y-170550000D01*
X65800000Y-171300000D02*
X65900000Y-171200000D01*
X65850000Y-171550000D02*
X65800000Y-171300000D01*
X66000000Y-171800000D02*
X65850000Y-171550000D01*
X66250000Y-171750000D02*
X66000000Y-171800000D01*
X66350000Y-171500000D02*
X66250000Y-171750000D01*
X66500000Y-171200000D02*
X66350000Y-171500000D01*
X66750000Y-171200000D02*
X66500000Y-171200000D01*
X66900000Y-171450000D02*
X66750000Y-171200000D01*
X66800000Y-171750000D02*
X66900000Y-171450000D01*
X66000000Y-172450000D02*
X65850000Y-172450000D01*
X66550000Y-173950000D02*
X66800000Y-173750000D01*
X66300000Y-173950000D02*
X66550000Y-173950000D01*
X65950000Y-173850000D02*
X66300000Y-173950000D01*
X65800000Y-173550000D02*
X65950000Y-173850000D01*
X66000000Y-173250000D02*
X65800000Y-173550000D01*
X66300000Y-173150000D02*
X66000000Y-173250000D01*
X66650000Y-173150000D02*
X66300000Y-173150000D01*
X66850000Y-173400000D02*
X66650000Y-173150000D01*
X66850000Y-173700000D02*
X66850000Y-173400000D01*
X66850000Y-174550000D02*
X65800000Y-174550000D01*
X66850000Y-174900000D02*
X66700000Y-174650000D01*
X66850000Y-175050000D02*
X66850000Y-174900000D01*
X65750000Y-176500000D02*
X66900000Y-176500000D01*
X65450000Y-176350000D02*
X65750000Y-176500000D01*
X65350000Y-176050000D02*
X65450000Y-176350000D01*
X65450000Y-175800000D02*
X65350000Y-176050000D01*
X65900000Y-176150000D02*
X65900000Y-176400000D01*
X66000000Y-175950000D02*
X65900000Y-176150000D01*
X66300000Y-175750000D02*
X66000000Y-175950000D01*
X66700000Y-175800000D02*
X66300000Y-175750000D01*
X66850000Y-176050000D02*
X66700000Y-175800000D01*
X66800000Y-176400000D02*
X66850000Y-176050000D01*
X65500000Y-177000000D02*
X67550000Y-178300000D01*
X68700000Y-140800000D02*
X67150000Y-139750000D01*
D12*
G36*
X72364742Y-133390337D02*
G01*
X72364341Y-133429819D01*
X72361549Y-133545508D01*
X72353258Y-133642397D01*
X72338576Y-133723789D01*
X72316615Y-133792985D01*
X72286486Y-133853288D01*
X72247298Y-133908000D01*
X72230276Y-133927541D01*
X72190445Y-133959958D01*
X72136395Y-133989188D01*
X72076485Y-134011717D01*
X72019069Y-134024029D01*
X71997852Y-134025308D01*
X71939039Y-134017291D01*
X71874795Y-133995809D01*
X71813987Y-133964709D01*
X71765478Y-133927842D01*
X71759626Y-133921854D01*
X71718487Y-133871129D01*
X71686373Y-133815583D01*
X71662443Y-133752012D01*
X71645855Y-133677214D01*
X71635767Y-133587986D01*
X71631339Y-133481126D01*
X71630963Y-133432180D01*
X71631263Y-133369946D01*
X71632516Y-133326180D01*
X71635254Y-133296777D01*
X71640007Y-133277629D01*
X71647307Y-133264631D01*
X71653541Y-133257663D01*
X71661114Y-133251082D01*
X71670884Y-133245920D01*
X71685468Y-133242005D01*
X71707482Y-133239165D01*
X71739544Y-133237228D01*
X71784272Y-133236024D01*
X71844282Y-133235380D01*
X71922191Y-133235125D01*
X71997852Y-133235086D01*
X72098767Y-133234838D01*
X72179381Y-133234891D01*
X72217986Y-133235851D01*
X72217986Y-133381841D01*
X71777719Y-133381841D01*
X71777804Y-133474974D01*
X71779412Y-133531015D01*
X71783552Y-133589709D01*
X71789344Y-133638680D01*
X71789582Y-133640170D01*
X71808718Y-133719316D01*
X71838521Y-133780706D01*
X71880930Y-133827403D01*
X71926847Y-133857073D01*
X71977782Y-133875355D01*
X72025608Y-133873937D01*
X72076875Y-133852720D01*
X72129909Y-133811219D01*
X72169208Y-133753710D01*
X72195477Y-133678958D01*
X72204773Y-133629000D01*
X72211301Y-133572292D01*
X72216026Y-133512189D01*
X72217991Y-133461069D01*
X72218000Y-133458041D01*
X72217986Y-133381841D01*
X72217986Y-133235851D01*
X72241957Y-133236448D01*
X72288753Y-133240710D01*
X72322030Y-133248878D01*
X72344049Y-133262152D01*
X72357069Y-133281734D01*
X72363351Y-133308825D01*
X72365155Y-133344626D01*
X72364742Y-133390337D01*
X72364742Y-133390337D01*
G37*
X72364742Y-133390337D02*
X72364341Y-133429819D01*
X72361549Y-133545508D01*
X72353258Y-133642397D01*
X72338576Y-133723789D01*
X72316615Y-133792985D01*
X72286486Y-133853288D01*
X72247298Y-133908000D01*
X72230276Y-133927541D01*
X72190445Y-133959958D01*
X72136395Y-133989188D01*
X72076485Y-134011717D01*
X72019069Y-134024029D01*
X71997852Y-134025308D01*
X71939039Y-134017291D01*
X71874795Y-133995809D01*
X71813987Y-133964709D01*
X71765478Y-133927842D01*
X71759626Y-133921854D01*
X71718487Y-133871129D01*
X71686373Y-133815583D01*
X71662443Y-133752012D01*
X71645855Y-133677214D01*
X71635767Y-133587986D01*
X71631339Y-133481126D01*
X71630963Y-133432180D01*
X71631263Y-133369946D01*
X71632516Y-133326180D01*
X71635254Y-133296777D01*
X71640007Y-133277629D01*
X71647307Y-133264631D01*
X71653541Y-133257663D01*
X71661114Y-133251082D01*
X71670884Y-133245920D01*
X71685468Y-133242005D01*
X71707482Y-133239165D01*
X71739544Y-133237228D01*
X71784272Y-133236024D01*
X71844282Y-133235380D01*
X71922191Y-133235125D01*
X71997852Y-133235086D01*
X72098767Y-133234838D01*
X72179381Y-133234891D01*
X72217986Y-133235851D01*
X72217986Y-133381841D01*
X71777719Y-133381841D01*
X71777804Y-133474974D01*
X71779412Y-133531015D01*
X71783552Y-133589709D01*
X71789344Y-133638680D01*
X71789582Y-133640170D01*
X71808718Y-133719316D01*
X71838521Y-133780706D01*
X71880930Y-133827403D01*
X71926847Y-133857073D01*
X71977782Y-133875355D01*
X72025608Y-133873937D01*
X72076875Y-133852720D01*
X72129909Y-133811219D01*
X72169208Y-133753710D01*
X72195477Y-133678958D01*
X72204773Y-133629000D01*
X72211301Y-133572292D01*
X72216026Y-133512189D01*
X72217991Y-133461069D01*
X72218000Y-133458041D01*
X72217986Y-133381841D01*
X72217986Y-133235851D01*
X72241957Y-133236448D01*
X72288753Y-133240710D01*
X72322030Y-133248878D01*
X72344049Y-133262152D01*
X72357069Y-133281734D01*
X72363351Y-133308825D01*
X72365155Y-133344626D01*
X72364742Y-133390337D01*
G36*
X72364662Y-134798914D02*
G01*
X72364290Y-134868322D01*
X72363423Y-134920711D01*
X72361862Y-134958861D01*
X72359405Y-134985549D01*
X72355851Y-135003555D01*
X72350998Y-135015659D01*
X72344647Y-135024639D01*
X72341724Y-135027890D01*
X72310666Y-135047665D01*
X72274980Y-135051226D01*
X72243298Y-135038217D01*
X72236895Y-135032202D01*
X72230687Y-135022473D01*
X72225898Y-135006807D01*
X72222294Y-134982300D01*
X72219644Y-134946047D01*
X72217713Y-134895143D01*
X72216269Y-134826682D01*
X72215390Y-134764091D01*
X72212341Y-134516374D01*
X72147430Y-134512989D01*
X72082519Y-134509603D01*
X72082519Y-134677750D01*
X72081889Y-134750749D01*
X72079255Y-134804191D01*
X72073499Y-134841080D01*
X72063504Y-134864420D01*
X72048152Y-134877214D01*
X72026326Y-134882466D01*
X72006070Y-134883263D01*
X71981216Y-134880785D01*
X71962902Y-134871431D01*
X71950171Y-134852325D01*
X71942067Y-134820590D01*
X71937632Y-134773349D01*
X71935909Y-134707725D01*
X71935763Y-134671907D01*
X71935763Y-134510730D01*
X71777719Y-134510730D01*
X71777719Y-134759086D01*
X71777606Y-134840495D01*
X71777096Y-134902366D01*
X71775938Y-134947740D01*
X71773878Y-134979654D01*
X71770662Y-135001149D01*
X71766036Y-135015265D01*
X71759749Y-135025040D01*
X71755141Y-135030019D01*
X71728248Y-135047098D01*
X71704341Y-135052597D01*
X71675141Y-135044745D01*
X71653541Y-135030019D01*
X71646742Y-135022162D01*
X71641462Y-135012020D01*
X71637510Y-134996864D01*
X71634695Y-134973967D01*
X71632826Y-134940599D01*
X71631710Y-134894033D01*
X71631157Y-134831541D01*
X71630975Y-134750394D01*
X71630963Y-134708286D01*
X71631043Y-134618110D01*
X71631410Y-134547784D01*
X71632256Y-134494579D01*
X71633772Y-134455768D01*
X71636149Y-134428621D01*
X71639579Y-134410410D01*
X71644254Y-134398408D01*
X71650364Y-134389886D01*
X71653541Y-134386552D01*
X71661138Y-134379953D01*
X71670938Y-134374781D01*
X71685569Y-134370862D01*
X71707656Y-134368024D01*
X71739826Y-134366093D01*
X71784705Y-134364896D01*
X71844919Y-134364260D01*
X71923095Y-134364011D01*
X71995885Y-134363974D01*
X72089101Y-134364008D01*
X72162377Y-134364243D01*
X72218350Y-134364878D01*
X72259657Y-134366114D01*
X72288936Y-134368152D01*
X72308824Y-134371191D01*
X72321958Y-134375431D01*
X72330976Y-134381073D01*
X72338515Y-134388317D01*
X72340196Y-134390102D01*
X72347636Y-134398763D01*
X72353399Y-134408826D01*
X72357696Y-134423083D01*
X72360744Y-134444325D01*
X72362757Y-134475344D01*
X72363948Y-134518931D01*
X72364533Y-134577877D01*
X72364725Y-134654974D01*
X72364741Y-134709707D01*
X72364662Y-134798914D01*
X72364662Y-134798914D01*
G37*
X72364662Y-134798914D02*
X72364290Y-134868322D01*
X72363423Y-134920711D01*
X72361862Y-134958861D01*
X72359405Y-134985549D01*
X72355851Y-135003555D01*
X72350998Y-135015659D01*
X72344647Y-135024639D01*
X72341724Y-135027890D01*
X72310666Y-135047665D01*
X72274980Y-135051226D01*
X72243298Y-135038217D01*
X72236895Y-135032202D01*
X72230687Y-135022473D01*
X72225898Y-135006807D01*
X72222294Y-134982300D01*
X72219644Y-134946047D01*
X72217713Y-134895143D01*
X72216269Y-134826682D01*
X72215390Y-134764091D01*
X72212341Y-134516374D01*
X72147430Y-134512989D01*
X72082519Y-134509603D01*
X72082519Y-134677750D01*
X72081889Y-134750749D01*
X72079255Y-134804191D01*
X72073499Y-134841080D01*
X72063504Y-134864420D01*
X72048152Y-134877214D01*
X72026326Y-134882466D01*
X72006070Y-134883263D01*
X71981216Y-134880785D01*
X71962902Y-134871431D01*
X71950171Y-134852325D01*
X71942067Y-134820590D01*
X71937632Y-134773349D01*
X71935909Y-134707725D01*
X71935763Y-134671907D01*
X71935763Y-134510730D01*
X71777719Y-134510730D01*
X71777719Y-134759086D01*
X71777606Y-134840495D01*
X71777096Y-134902366D01*
X71775938Y-134947740D01*
X71773878Y-134979654D01*
X71770662Y-135001149D01*
X71766036Y-135015265D01*
X71759749Y-135025040D01*
X71755141Y-135030019D01*
X71728248Y-135047098D01*
X71704341Y-135052597D01*
X71675141Y-135044745D01*
X71653541Y-135030019D01*
X71646742Y-135022162D01*
X71641462Y-135012020D01*
X71637510Y-134996864D01*
X71634695Y-134973967D01*
X71632826Y-134940599D01*
X71631710Y-134894033D01*
X71631157Y-134831541D01*
X71630975Y-134750394D01*
X71630963Y-134708286D01*
X71631043Y-134618110D01*
X71631410Y-134547784D01*
X71632256Y-134494579D01*
X71633772Y-134455768D01*
X71636149Y-134428621D01*
X71639579Y-134410410D01*
X71644254Y-134398408D01*
X71650364Y-134389886D01*
X71653541Y-134386552D01*
X71661138Y-134379953D01*
X71670938Y-134374781D01*
X71685569Y-134370862D01*
X71707656Y-134368024D01*
X71739826Y-134366093D01*
X71784705Y-134364896D01*
X71844919Y-134364260D01*
X71923095Y-134364011D01*
X71995885Y-134363974D01*
X72089101Y-134364008D01*
X72162377Y-134364243D01*
X72218350Y-134364878D01*
X72259657Y-134366114D01*
X72288936Y-134368152D01*
X72308824Y-134371191D01*
X72321958Y-134375431D01*
X72330976Y-134381073D01*
X72338515Y-134388317D01*
X72340196Y-134390102D01*
X72347636Y-134398763D01*
X72353399Y-134408826D01*
X72357696Y-134423083D01*
X72360744Y-134444325D01*
X72362757Y-134475344D01*
X72363948Y-134518931D01*
X72364533Y-134577877D01*
X72364725Y-134654974D01*
X72364741Y-134709707D01*
X72364662Y-134798914D01*
G36*
X72363457Y-135820005D02*
G01*
X72358227Y-135894820D01*
X72350058Y-135964402D01*
X72339258Y-136024706D01*
X72326135Y-136071688D01*
X72310995Y-136101302D01*
X72306539Y-136105848D01*
X72271958Y-136121654D01*
X72236457Y-136116861D01*
X72206083Y-136092344D01*
X72205212Y-136091174D01*
X72195854Y-136076754D01*
X72190932Y-136061700D01*
X72190335Y-136040703D01*
X72193947Y-136008451D01*
X72201654Y-135959635D01*
X72202303Y-135955708D01*
X72211239Y-135882969D01*
X72215647Y-135804491D01*
X72215689Y-135725781D01*
X72211529Y-135652347D01*
X72203329Y-135589697D01*
X72191251Y-135543338D01*
X72190037Y-135540292D01*
X72171193Y-135506660D01*
X72152123Y-135494844D01*
X72133369Y-135504094D01*
X72115471Y-135533661D01*
X72098971Y-135582797D01*
X72084412Y-135650751D01*
X72077402Y-135696063D01*
X72063919Y-135790252D01*
X72051594Y-135865164D01*
X72039359Y-135923991D01*
X72026147Y-135969923D01*
X72010891Y-136006153D01*
X71992523Y-136035870D01*
X71969977Y-136062266D01*
X71947837Y-136083478D01*
X71916989Y-136108643D01*
X71890463Y-136121027D01*
X71857782Y-136124900D01*
X71845813Y-136125041D01*
X71806096Y-136122132D01*
X71776549Y-136110506D01*
X71750322Y-136090385D01*
X71710232Y-136049492D01*
X71679659Y-136003891D01*
X71657605Y-135950195D01*
X71643073Y-135885016D01*
X71635067Y-135804964D01*
X71632590Y-135706651D01*
X71632631Y-135690419D01*
X71633990Y-135624859D01*
X71637078Y-135559842D01*
X71641452Y-135502456D01*
X71646668Y-135459786D01*
X71647267Y-135456336D01*
X71657317Y-135413912D01*
X71670012Y-135377928D01*
X71681618Y-135357558D01*
X71712236Y-135338601D01*
X71747890Y-135337281D01*
X71779664Y-135353623D01*
X71783257Y-135357279D01*
X71793932Y-135372393D01*
X71798532Y-135391293D01*
X71797749Y-135420546D01*
X71793681Y-135456057D01*
X71790046Y-135495738D01*
X71786980Y-135551363D01*
X71784755Y-135616302D01*
X71783644Y-135683923D01*
X71783571Y-135701708D01*
X71783844Y-135769580D01*
X71785162Y-135819254D01*
X71787981Y-135855098D01*
X71792758Y-135881484D01*
X71799951Y-135902782D01*
X71805941Y-135915582D01*
X71822575Y-135943708D01*
X71837640Y-135961640D01*
X71841911Y-135964261D01*
X71859545Y-135958732D01*
X71876616Y-135932448D01*
X71892350Y-135887230D01*
X71905970Y-135824900D01*
X71909004Y-135806537D01*
X71924070Y-135710618D01*
X71936662Y-135634067D01*
X71947697Y-135573928D01*
X71958088Y-135527248D01*
X71968752Y-135491071D01*
X71980603Y-135462443D01*
X71994557Y-135438410D01*
X72011527Y-135416016D01*
X72032430Y-135392306D01*
X72039759Y-135384328D01*
X72067109Y-135356355D01*
X72088779Y-135341548D01*
X72113576Y-135335756D01*
X72144825Y-135334819D01*
X72206103Y-135345133D01*
X72258168Y-135375956D01*
X72300850Y-135427113D01*
X72333983Y-135498425D01*
X72348844Y-135549308D01*
X72358442Y-135604608D01*
X72363872Y-135670855D01*
X72365441Y-135744002D01*
X72363457Y-135820005D01*
X72363457Y-135820005D01*
G37*
X72363457Y-135820005D02*
X72358227Y-135894820D01*
X72350058Y-135964402D01*
X72339258Y-136024706D01*
X72326135Y-136071688D01*
X72310995Y-136101302D01*
X72306539Y-136105848D01*
X72271958Y-136121654D01*
X72236457Y-136116861D01*
X72206083Y-136092344D01*
X72205212Y-136091174D01*
X72195854Y-136076754D01*
X72190932Y-136061700D01*
X72190335Y-136040703D01*
X72193947Y-136008451D01*
X72201654Y-135959635D01*
X72202303Y-135955708D01*
X72211239Y-135882969D01*
X72215647Y-135804491D01*
X72215689Y-135725781D01*
X72211529Y-135652347D01*
X72203329Y-135589697D01*
X72191251Y-135543338D01*
X72190037Y-135540292D01*
X72171193Y-135506660D01*
X72152123Y-135494844D01*
X72133369Y-135504094D01*
X72115471Y-135533661D01*
X72098971Y-135582797D01*
X72084412Y-135650751D01*
X72077402Y-135696063D01*
X72063919Y-135790252D01*
X72051594Y-135865164D01*
X72039359Y-135923991D01*
X72026147Y-135969923D01*
X72010891Y-136006153D01*
X71992523Y-136035870D01*
X71969977Y-136062266D01*
X71947837Y-136083478D01*
X71916989Y-136108643D01*
X71890463Y-136121027D01*
X71857782Y-136124900D01*
X71845813Y-136125041D01*
X71806096Y-136122132D01*
X71776549Y-136110506D01*
X71750322Y-136090385D01*
X71710232Y-136049492D01*
X71679659Y-136003891D01*
X71657605Y-135950195D01*
X71643073Y-135885016D01*
X71635067Y-135804964D01*
X71632590Y-135706651D01*
X71632631Y-135690419D01*
X71633990Y-135624859D01*
X71637078Y-135559842D01*
X71641452Y-135502456D01*
X71646668Y-135459786D01*
X71647267Y-135456336D01*
X71657317Y-135413912D01*
X71670012Y-135377928D01*
X71681618Y-135357558D01*
X71712236Y-135338601D01*
X71747890Y-135337281D01*
X71779664Y-135353623D01*
X71783257Y-135357279D01*
X71793932Y-135372393D01*
X71798532Y-135391293D01*
X71797749Y-135420546D01*
X71793681Y-135456057D01*
X71790046Y-135495738D01*
X71786980Y-135551363D01*
X71784755Y-135616302D01*
X71783644Y-135683923D01*
X71783571Y-135701708D01*
X71783844Y-135769580D01*
X71785162Y-135819254D01*
X71787981Y-135855098D01*
X71792758Y-135881484D01*
X71799951Y-135902782D01*
X71805941Y-135915582D01*
X71822575Y-135943708D01*
X71837640Y-135961640D01*
X71841911Y-135964261D01*
X71859545Y-135958732D01*
X71876616Y-135932448D01*
X71892350Y-135887230D01*
X71905970Y-135824900D01*
X71909004Y-135806537D01*
X71924070Y-135710618D01*
X71936662Y-135634067D01*
X71947697Y-135573928D01*
X71958088Y-135527248D01*
X71968752Y-135491071D01*
X71980603Y-135462443D01*
X71994557Y-135438410D01*
X72011527Y-135416016D01*
X72032430Y-135392306D01*
X72039759Y-135384328D01*
X72067109Y-135356355D01*
X72088779Y-135341548D01*
X72113576Y-135335756D01*
X72144825Y-135334819D01*
X72206103Y-135345133D01*
X72258168Y-135375956D01*
X72300850Y-135427113D01*
X72333983Y-135498425D01*
X72348844Y-135549308D01*
X72358442Y-135604608D01*
X72363872Y-135670855D01*
X72365441Y-135744002D01*
X72363457Y-135820005D01*
G36*
X72342163Y-136587886D02*
G01*
X72334590Y-136594466D01*
X72324821Y-136599629D01*
X72310237Y-136603544D01*
X72288223Y-136606384D01*
X72256160Y-136608321D01*
X72211433Y-136609525D01*
X72151423Y-136610169D01*
X72073514Y-136610424D01*
X71997852Y-136610463D01*
X71904006Y-136610394D01*
X71830119Y-136610070D01*
X71773576Y-136609322D01*
X71731759Y-136607976D01*
X71702051Y-136605862D01*
X71681835Y-136602808D01*
X71668494Y-136598642D01*
X71659410Y-136593192D01*
X71653541Y-136587886D01*
X71633861Y-136554882D01*
X71635627Y-136519717D01*
X71657091Y-136488253D01*
X71665471Y-136481024D01*
X71675194Y-136475374D01*
X71688947Y-136471109D01*
X71709419Y-136468035D01*
X71739296Y-136465956D01*
X71781267Y-136464678D01*
X71838019Y-136464007D01*
X71912241Y-136463749D01*
X71996271Y-136463708D01*
X72309323Y-136463708D01*
X72337032Y-136491417D01*
X72360345Y-136525571D01*
X72361185Y-136558702D01*
X72342163Y-136587886D01*
X72342163Y-136587886D01*
G37*
X72342163Y-136587886D02*
X72334590Y-136594466D01*
X72324821Y-136599629D01*
X72310237Y-136603544D01*
X72288223Y-136606384D01*
X72256160Y-136608321D01*
X72211433Y-136609525D01*
X72151423Y-136610169D01*
X72073514Y-136610424D01*
X71997852Y-136610463D01*
X71904006Y-136610394D01*
X71830119Y-136610070D01*
X71773576Y-136609322D01*
X71731759Y-136607976D01*
X71702051Y-136605862D01*
X71681835Y-136602808D01*
X71668494Y-136598642D01*
X71659410Y-136593192D01*
X71653541Y-136587886D01*
X71633861Y-136554882D01*
X71635627Y-136519717D01*
X71657091Y-136488253D01*
X71665471Y-136481024D01*
X71675194Y-136475374D01*
X71688947Y-136471109D01*
X71709419Y-136468035D01*
X71739296Y-136465956D01*
X71781267Y-136464678D01*
X71838019Y-136464007D01*
X71912241Y-136463749D01*
X71996271Y-136463708D01*
X72309323Y-136463708D01*
X72337032Y-136491417D01*
X72360345Y-136525571D01*
X72361185Y-136558702D01*
X72342163Y-136587886D01*
G36*
X72359209Y-137561627D02*
G01*
X72347713Y-137630143D01*
X72329841Y-137682765D01*
X72306309Y-137717000D01*
X72292884Y-137726329D01*
X72261660Y-137735815D01*
X72233413Y-137729431D01*
X72206626Y-137709278D01*
X72194095Y-137677963D01*
X72195112Y-137632525D01*
X72201902Y-137597382D01*
X72214837Y-137519289D01*
X72216066Y-137439482D01*
X72205567Y-137350153D01*
X72201118Y-137325479D01*
X72177700Y-137242417D01*
X72142863Y-137177435D01*
X72097204Y-137131247D01*
X72041314Y-137104563D01*
X72012420Y-137099045D01*
X71953796Y-137102657D01*
X71901929Y-137125979D01*
X71857830Y-137166884D01*
X71822509Y-137223249D01*
X71796979Y-137292948D01*
X71782249Y-137373856D01*
X71779330Y-137463848D01*
X71789233Y-137560798D01*
X71790167Y-137566272D01*
X71797349Y-137604833D01*
X71804287Y-137626214D01*
X71814581Y-137635481D01*
X71831832Y-137637702D01*
X71840967Y-137637752D01*
X71879319Y-137637752D01*
X71879319Y-137569277D01*
X71883461Y-137508808D01*
X71896661Y-137467543D01*
X71920078Y-137443533D01*
X71954872Y-137434831D01*
X71959414Y-137434725D01*
X71989154Y-137439816D01*
X72010389Y-137457275D01*
X72024442Y-137489769D01*
X72032635Y-137539965D01*
X72035647Y-137588585D01*
X72037375Y-137659252D01*
X72034738Y-137710510D01*
X72025008Y-137745469D01*
X72005455Y-137767238D01*
X71973352Y-137778928D01*
X71925970Y-137783648D01*
X71863737Y-137784508D01*
X71794273Y-137783099D01*
X71747022Y-137778860D01*
X71721796Y-137771772D01*
X71719820Y-137770397D01*
X71688300Y-137731480D01*
X71663338Y-137674422D01*
X71645468Y-137602839D01*
X71635222Y-137520350D01*
X71633135Y-137430569D01*
X71639740Y-137337116D01*
X71647852Y-137282152D01*
X71672254Y-137195942D01*
X71712146Y-137115816D01*
X71763921Y-137048731D01*
X71774269Y-137038535D01*
X71817773Y-137005406D01*
X71871690Y-136975514D01*
X71928216Y-136952351D01*
X71979549Y-136939410D01*
X71999264Y-136937850D01*
X72040389Y-136944490D01*
X72091556Y-136962140D01*
X72145414Y-136987411D01*
X72194613Y-137016919D01*
X72227474Y-137042989D01*
X72276356Y-137103943D01*
X72315263Y-137182739D01*
X72343314Y-137276551D01*
X72359629Y-137382558D01*
X72363616Y-137479708D01*
X72359209Y-137561627D01*
X72359209Y-137561627D01*
G37*
X72359209Y-137561627D02*
X72347713Y-137630143D01*
X72329841Y-137682765D01*
X72306309Y-137717000D01*
X72292884Y-137726329D01*
X72261660Y-137735815D01*
X72233413Y-137729431D01*
X72206626Y-137709278D01*
X72194095Y-137677963D01*
X72195112Y-137632525D01*
X72201902Y-137597382D01*
X72214837Y-137519289D01*
X72216066Y-137439482D01*
X72205567Y-137350153D01*
X72201118Y-137325479D01*
X72177700Y-137242417D01*
X72142863Y-137177435D01*
X72097204Y-137131247D01*
X72041314Y-137104563D01*
X72012420Y-137099045D01*
X71953796Y-137102657D01*
X71901929Y-137125979D01*
X71857830Y-137166884D01*
X71822509Y-137223249D01*
X71796979Y-137292948D01*
X71782249Y-137373856D01*
X71779330Y-137463848D01*
X71789233Y-137560798D01*
X71790167Y-137566272D01*
X71797349Y-137604833D01*
X71804287Y-137626214D01*
X71814581Y-137635481D01*
X71831832Y-137637702D01*
X71840967Y-137637752D01*
X71879319Y-137637752D01*
X71879319Y-137569277D01*
X71883461Y-137508808D01*
X71896661Y-137467543D01*
X71920078Y-137443533D01*
X71954872Y-137434831D01*
X71959414Y-137434725D01*
X71989154Y-137439816D01*
X72010389Y-137457275D01*
X72024442Y-137489769D01*
X72032635Y-137539965D01*
X72035647Y-137588585D01*
X72037375Y-137659252D01*
X72034738Y-137710510D01*
X72025008Y-137745469D01*
X72005455Y-137767238D01*
X71973352Y-137778928D01*
X71925970Y-137783648D01*
X71863737Y-137784508D01*
X71794273Y-137783099D01*
X71747022Y-137778860D01*
X71721796Y-137771772D01*
X71719820Y-137770397D01*
X71688300Y-137731480D01*
X71663338Y-137674422D01*
X71645468Y-137602839D01*
X71635222Y-137520350D01*
X71633135Y-137430569D01*
X71639740Y-137337116D01*
X71647852Y-137282152D01*
X71672254Y-137195942D01*
X71712146Y-137115816D01*
X71763921Y-137048731D01*
X71774269Y-137038535D01*
X71817773Y-137005406D01*
X71871690Y-136975514D01*
X71928216Y-136952351D01*
X71979549Y-136939410D01*
X71999264Y-136937850D01*
X72040389Y-136944490D01*
X72091556Y-136962140D01*
X72145414Y-136987411D01*
X72194613Y-137016919D01*
X72227474Y-137042989D01*
X72276356Y-137103943D01*
X72315263Y-137182739D01*
X72343314Y-137276551D01*
X72359629Y-137382558D01*
X72363616Y-137479708D01*
X72359209Y-137561627D01*
G36*
X72360360Y-138211594D02*
G01*
X72346535Y-138235160D01*
X72323927Y-138265973D01*
X72291470Y-138305630D01*
X72248100Y-138355728D01*
X72192750Y-138417865D01*
X72124357Y-138493636D01*
X72045724Y-138580374D01*
X71881930Y-138760997D01*
X72101779Y-138766641D01*
X72177457Y-138768679D01*
X72233814Y-138770645D01*
X72274102Y-138772974D01*
X72301573Y-138776102D01*
X72319479Y-138780463D01*
X72331071Y-138786492D01*
X72339600Y-138794624D01*
X72343185Y-138798936D01*
X72362138Y-138833467D01*
X72359367Y-138866325D01*
X72343175Y-138892390D01*
X72321609Y-138919041D01*
X72006657Y-138922356D01*
X71914029Y-138923273D01*
X71841264Y-138923740D01*
X71785647Y-138923595D01*
X71744466Y-138922676D01*
X71715005Y-138920821D01*
X71694553Y-138917869D01*
X71680395Y-138913658D01*
X71669817Y-138908026D01*
X71661334Y-138901781D01*
X71645601Y-138888269D01*
X71635172Y-138874825D01*
X71631169Y-138859584D01*
X71634714Y-138840682D01*
X71646929Y-138816253D01*
X71668937Y-138784435D01*
X71701859Y-138743360D01*
X71746817Y-138691166D01*
X71804933Y-138625986D01*
X71871709Y-138552152D01*
X72112350Y-138286863D01*
X71893219Y-138281219D01*
X71817680Y-138279177D01*
X71761454Y-138277206D01*
X71721284Y-138274869D01*
X71693912Y-138271727D01*
X71676080Y-138267344D01*
X71664529Y-138261284D01*
X71656001Y-138253108D01*
X71652526Y-138248924D01*
X71633436Y-138211943D01*
X71636315Y-138177000D01*
X71660708Y-138146572D01*
X71670522Y-138139611D01*
X71681982Y-138134185D01*
X71697840Y-138130105D01*
X71720845Y-138127179D01*
X71753746Y-138125216D01*
X71799292Y-138124025D01*
X71860235Y-138123416D01*
X71939322Y-138123197D01*
X71997852Y-138123174D01*
X72089401Y-138123248D01*
X72161121Y-138123595D01*
X72215763Y-138124407D01*
X72256076Y-138125875D01*
X72284810Y-138128189D01*
X72304715Y-138131541D01*
X72318540Y-138136120D01*
X72329036Y-138142119D01*
X72334997Y-138146572D01*
X72349117Y-138157858D01*
X72359779Y-138168407D01*
X72365916Y-138179815D01*
X72366465Y-138193678D01*
X72360360Y-138211594D01*
X72360360Y-138211594D01*
G37*
X72360360Y-138211594D02*
X72346535Y-138235160D01*
X72323927Y-138265973D01*
X72291470Y-138305630D01*
X72248100Y-138355728D01*
X72192750Y-138417865D01*
X72124357Y-138493636D01*
X72045724Y-138580374D01*
X71881930Y-138760997D01*
X72101779Y-138766641D01*
X72177457Y-138768679D01*
X72233814Y-138770645D01*
X72274102Y-138772974D01*
X72301573Y-138776102D01*
X72319479Y-138780463D01*
X72331071Y-138786492D01*
X72339600Y-138794624D01*
X72343185Y-138798936D01*
X72362138Y-138833467D01*
X72359367Y-138866325D01*
X72343175Y-138892390D01*
X72321609Y-138919041D01*
X72006657Y-138922356D01*
X71914029Y-138923273D01*
X71841264Y-138923740D01*
X71785647Y-138923595D01*
X71744466Y-138922676D01*
X71715005Y-138920821D01*
X71694553Y-138917869D01*
X71680395Y-138913658D01*
X71669817Y-138908026D01*
X71661334Y-138901781D01*
X71645601Y-138888269D01*
X71635172Y-138874825D01*
X71631169Y-138859584D01*
X71634714Y-138840682D01*
X71646929Y-138816253D01*
X71668937Y-138784435D01*
X71701859Y-138743360D01*
X71746817Y-138691166D01*
X71804933Y-138625986D01*
X71871709Y-138552152D01*
X72112350Y-138286863D01*
X71893219Y-138281219D01*
X71817680Y-138279177D01*
X71761454Y-138277206D01*
X71721284Y-138274869D01*
X71693912Y-138271727D01*
X71676080Y-138267344D01*
X71664529Y-138261284D01*
X71656001Y-138253108D01*
X71652526Y-138248924D01*
X71633436Y-138211943D01*
X71636315Y-138177000D01*
X71660708Y-138146572D01*
X71670522Y-138139611D01*
X71681982Y-138134185D01*
X71697840Y-138130105D01*
X71720845Y-138127179D01*
X71753746Y-138125216D01*
X71799292Y-138124025D01*
X71860235Y-138123416D01*
X71939322Y-138123197D01*
X71997852Y-138123174D01*
X72089401Y-138123248D01*
X72161121Y-138123595D01*
X72215763Y-138124407D01*
X72256076Y-138125875D01*
X72284810Y-138128189D01*
X72304715Y-138131541D01*
X72318540Y-138136120D01*
X72329036Y-138142119D01*
X72334997Y-138146572D01*
X72349117Y-138157858D01*
X72359779Y-138168407D01*
X72365916Y-138179815D01*
X72366465Y-138193678D01*
X72360360Y-138211594D01*
G36*
X72364548Y-139742051D02*
G01*
X72363634Y-139818409D01*
X72361497Y-139876925D01*
X72357633Y-139919963D01*
X72351541Y-139949891D01*
X72342718Y-139969076D01*
X72330662Y-139979884D01*
X72314869Y-139984681D01*
X72294838Y-139985835D01*
X72292473Y-139985841D01*
X72269816Y-139984839D01*
X72252305Y-139980104D01*
X72239234Y-139969041D01*
X72229895Y-139949056D01*
X72223581Y-139917554D01*
X72219586Y-139871940D01*
X72217202Y-139809621D01*
X72215722Y-139728001D01*
X72215394Y-139702985D01*
X72212341Y-139460908D01*
X72147430Y-139457522D01*
X72082519Y-139454137D01*
X72082519Y-139622284D01*
X72082277Y-139687974D01*
X72081252Y-139734880D01*
X72078997Y-139766791D01*
X72075066Y-139787499D01*
X72069010Y-139800792D01*
X72060384Y-139810463D01*
X72060315Y-139810525D01*
X72026696Y-139828064D01*
X71990360Y-139827430D01*
X71959385Y-139809022D01*
X71956201Y-139805379D01*
X71947996Y-139792449D01*
X71942287Y-139774732D01*
X71938646Y-139748278D01*
X71936641Y-139709140D01*
X71935844Y-139653370D01*
X71935763Y-139617702D01*
X71935763Y-139455263D01*
X71777719Y-139455263D01*
X71777719Y-139701869D01*
X71777577Y-139783288D01*
X71776994Y-139845118D01*
X71775740Y-139890345D01*
X71773581Y-139921956D01*
X71770285Y-139942939D01*
X71765619Y-139956281D01*
X71759351Y-139964969D01*
X71757075Y-139967158D01*
X71725528Y-139983322D01*
X71689640Y-139984505D01*
X71658523Y-139971244D01*
X71648537Y-139960751D01*
X71643039Y-139949837D01*
X71638786Y-139932925D01*
X71635628Y-139907341D01*
X71633416Y-139870409D01*
X71632002Y-139819454D01*
X71631236Y-139751802D01*
X71630970Y-139664777D01*
X71630963Y-139645102D01*
X71631021Y-139556619D01*
X71631341Y-139487935D01*
X71632141Y-139436272D01*
X71633641Y-139398853D01*
X71636059Y-139372898D01*
X71639614Y-139355630D01*
X71644526Y-139344270D01*
X71651013Y-139336040D01*
X71655670Y-139331525D01*
X71663919Y-139324729D01*
X71674139Y-139319420D01*
X71689008Y-139315414D01*
X71711206Y-139312529D01*
X71743415Y-139310582D01*
X71788312Y-139309389D01*
X71848580Y-139308769D01*
X71926897Y-139308537D01*
X71992814Y-139308508D01*
X72085180Y-139308579D01*
X72157691Y-139308916D01*
X72213071Y-139309706D01*
X72254043Y-139311134D01*
X72283330Y-139313387D01*
X72303655Y-139316651D01*
X72317742Y-139321112D01*
X72328313Y-139326956D01*
X72334997Y-139331905D01*
X72364741Y-139355302D01*
X72364741Y-139645482D01*
X72364548Y-139742051D01*
X72364548Y-139742051D01*
G37*
X72364548Y-139742051D02*
X72363634Y-139818409D01*
X72361497Y-139876925D01*
X72357633Y-139919963D01*
X72351541Y-139949891D01*
X72342718Y-139969076D01*
X72330662Y-139979884D01*
X72314869Y-139984681D01*
X72294838Y-139985835D01*
X72292473Y-139985841D01*
X72269816Y-139984839D01*
X72252305Y-139980104D01*
X72239234Y-139969041D01*
X72229895Y-139949056D01*
X72223581Y-139917554D01*
X72219586Y-139871940D01*
X72217202Y-139809621D01*
X72215722Y-139728001D01*
X72215394Y-139702985D01*
X72212341Y-139460908D01*
X72147430Y-139457522D01*
X72082519Y-139454137D01*
X72082519Y-139622284D01*
X72082277Y-139687974D01*
X72081252Y-139734880D01*
X72078997Y-139766791D01*
X72075066Y-139787499D01*
X72069010Y-139800792D01*
X72060384Y-139810463D01*
X72060315Y-139810525D01*
X72026696Y-139828064D01*
X71990360Y-139827430D01*
X71959385Y-139809022D01*
X71956201Y-139805379D01*
X71947996Y-139792449D01*
X71942287Y-139774732D01*
X71938646Y-139748278D01*
X71936641Y-139709140D01*
X71935844Y-139653370D01*
X71935763Y-139617702D01*
X71935763Y-139455263D01*
X71777719Y-139455263D01*
X71777719Y-139701869D01*
X71777577Y-139783288D01*
X71776994Y-139845118D01*
X71775740Y-139890345D01*
X71773581Y-139921956D01*
X71770285Y-139942939D01*
X71765619Y-139956281D01*
X71759351Y-139964969D01*
X71757075Y-139967158D01*
X71725528Y-139983322D01*
X71689640Y-139984505D01*
X71658523Y-139971244D01*
X71648537Y-139960751D01*
X71643039Y-139949837D01*
X71638786Y-139932925D01*
X71635628Y-139907341D01*
X71633416Y-139870409D01*
X71632002Y-139819454D01*
X71631236Y-139751802D01*
X71630970Y-139664777D01*
X71630963Y-139645102D01*
X71631021Y-139556619D01*
X71631341Y-139487935D01*
X71632141Y-139436272D01*
X71633641Y-139398853D01*
X71636059Y-139372898D01*
X71639614Y-139355630D01*
X71644526Y-139344270D01*
X71651013Y-139336040D01*
X71655670Y-139331525D01*
X71663919Y-139324729D01*
X71674139Y-139319420D01*
X71689008Y-139315414D01*
X71711206Y-139312529D01*
X71743415Y-139310582D01*
X71788312Y-139309389D01*
X71848580Y-139308769D01*
X71926897Y-139308537D01*
X71992814Y-139308508D01*
X72085180Y-139308579D01*
X72157691Y-139308916D01*
X72213071Y-139309706D01*
X72254043Y-139311134D01*
X72283330Y-139313387D01*
X72303655Y-139316651D01*
X72317742Y-139321112D01*
X72328313Y-139326956D01*
X72334997Y-139331905D01*
X72364741Y-139355302D01*
X72364741Y-139645482D01*
X72364548Y-139742051D01*
G36*
X72364533Y-140530017D02*
G01*
X72360172Y-140658996D01*
X72346947Y-140768699D01*
X72324067Y-140860934D01*
X72290738Y-140937510D01*
X72246170Y-141000235D01*
X72189572Y-141050920D01*
X72120150Y-141091371D01*
X72118457Y-141092167D01*
X72056325Y-141116309D01*
X72001299Y-141124911D01*
X71945921Y-141117939D01*
X71882735Y-141095362D01*
X71873119Y-141091080D01*
X71816842Y-141061880D01*
X71773357Y-141029064D01*
X71736391Y-140986710D01*
X71699673Y-140928898D01*
X71697756Y-140925539D01*
X71673581Y-140875212D01*
X71655526Y-140818329D01*
X71642969Y-140751235D01*
X71635286Y-140670273D01*
X71631855Y-140571790D01*
X71631557Y-140536994D01*
X71630963Y-140371302D01*
X71660708Y-140347905D01*
X71670489Y-140340965D01*
X71681911Y-140335550D01*
X71697713Y-140331473D01*
X71720633Y-140328545D01*
X71753412Y-140326575D01*
X71777719Y-140325933D01*
X71777719Y-140482552D01*
X71777719Y-140576434D01*
X71779325Y-140631372D01*
X71783553Y-140687768D01*
X71789516Y-140734053D01*
X71790018Y-140736847D01*
X71812072Y-140819056D01*
X71845208Y-140882822D01*
X71890961Y-140930160D01*
X71950869Y-140963090D01*
X71966747Y-140968816D01*
X71991475Y-140974429D01*
X72015906Y-140971999D01*
X72048408Y-140960175D01*
X72064374Y-140953048D01*
X72106802Y-140929708D01*
X72136568Y-140901588D01*
X72157297Y-140870648D01*
X72184271Y-140808674D01*
X72203810Y-140729359D01*
X72215062Y-140636961D01*
X72217538Y-140570041D01*
X72217986Y-140482552D01*
X71777719Y-140482552D01*
X71777719Y-140325933D01*
X71798787Y-140325376D01*
X71859497Y-140324758D01*
X71938282Y-140324533D01*
X71999888Y-140324508D01*
X72309323Y-140324508D01*
X72337032Y-140352217D01*
X72348264Y-140364514D01*
X72355955Y-140377811D01*
X72360768Y-140396380D01*
X72363362Y-140424494D01*
X72364398Y-140466425D01*
X72364538Y-140526445D01*
X72364533Y-140530017D01*
X72364533Y-140530017D01*
G37*
X72364533Y-140530017D02*
X72360172Y-140658996D01*
X72346947Y-140768699D01*
X72324067Y-140860934D01*
X72290738Y-140937510D01*
X72246170Y-141000235D01*
X72189572Y-141050920D01*
X72120150Y-141091371D01*
X72118457Y-141092167D01*
X72056325Y-141116309D01*
X72001299Y-141124911D01*
X71945921Y-141117939D01*
X71882735Y-141095362D01*
X71873119Y-141091080D01*
X71816842Y-141061880D01*
X71773357Y-141029064D01*
X71736391Y-140986710D01*
X71699673Y-140928898D01*
X71697756Y-140925539D01*
X71673581Y-140875212D01*
X71655526Y-140818329D01*
X71642969Y-140751235D01*
X71635286Y-140670273D01*
X71631855Y-140571790D01*
X71631557Y-140536994D01*
X71630963Y-140371302D01*
X71660708Y-140347905D01*
X71670489Y-140340965D01*
X71681911Y-140335550D01*
X71697713Y-140331473D01*
X71720633Y-140328545D01*
X71753412Y-140326575D01*
X71777719Y-140325933D01*
X71777719Y-140482552D01*
X71777719Y-140576434D01*
X71779325Y-140631372D01*
X71783553Y-140687768D01*
X71789516Y-140734053D01*
X71790018Y-140736847D01*
X71812072Y-140819056D01*
X71845208Y-140882822D01*
X71890961Y-140930160D01*
X71950869Y-140963090D01*
X71966747Y-140968816D01*
X71991475Y-140974429D01*
X72015906Y-140971999D01*
X72048408Y-140960175D01*
X72064374Y-140953048D01*
X72106802Y-140929708D01*
X72136568Y-140901588D01*
X72157297Y-140870648D01*
X72184271Y-140808674D01*
X72203810Y-140729359D01*
X72215062Y-140636961D01*
X72217538Y-140570041D01*
X72217986Y-140482552D01*
X71777719Y-140482552D01*
X71777719Y-140325933D01*
X71798787Y-140325376D01*
X71859497Y-140324758D01*
X71938282Y-140324533D01*
X71999888Y-140324508D01*
X72309323Y-140324508D01*
X72337032Y-140352217D01*
X72348264Y-140364514D01*
X72355955Y-140377811D01*
X72360768Y-140396380D01*
X72363362Y-140424494D01*
X72364398Y-140466425D01*
X72364538Y-140526445D01*
X72364533Y-140530017D01*
G36*
X72362774Y-143256373D02*
G01*
X72355773Y-143275963D01*
X72355431Y-143276718D01*
X72335130Y-143303321D01*
X72314247Y-143317978D01*
X72304456Y-143320846D01*
X72291447Y-143320704D01*
X72272913Y-143316669D01*
X72246551Y-143307854D01*
X72210056Y-143293377D01*
X72161121Y-143272353D01*
X72097443Y-143243896D01*
X72016715Y-143207123D01*
X71972592Y-143186883D01*
X71893823Y-143150333D01*
X71821385Y-143116023D01*
X71757928Y-143085260D01*
X71706100Y-143059356D01*
X71668549Y-143039618D01*
X71647924Y-143027358D01*
X71645075Y-143024932D01*
X71632506Y-142993891D01*
X71634189Y-142958829D01*
X71649476Y-142930708D01*
X71650719Y-142929562D01*
X71667654Y-142918376D01*
X71700638Y-142899612D01*
X71745428Y-142875583D01*
X71797776Y-142848605D01*
X71817066Y-142838909D01*
X71963658Y-142765722D01*
X71804415Y-142685948D01*
X71749393Y-142657475D01*
X71701676Y-142631058D01*
X71664915Y-142608856D01*
X71642764Y-142593027D01*
X71638067Y-142587662D01*
X71631706Y-142545965D01*
X71645075Y-142511557D01*
X71659362Y-142501436D01*
X71691116Y-142483922D01*
X71737211Y-142460443D01*
X71794523Y-142432428D01*
X71859928Y-142401307D01*
X71930301Y-142368507D01*
X72002517Y-142335458D01*
X72073453Y-142303589D01*
X72139983Y-142274327D01*
X72198982Y-142249103D01*
X72247327Y-142229344D01*
X72281893Y-142216480D01*
X72299555Y-142211939D01*
X72300195Y-142211985D01*
X72322420Y-142223034D01*
X72345055Y-142245118D01*
X72346040Y-142246418D01*
X72361383Y-142273561D01*
X72361234Y-142298666D01*
X72358342Y-142308076D01*
X72352090Y-142319542D01*
X72339794Y-142331718D01*
X72318900Y-142346065D01*
X72286859Y-142364044D01*
X72241120Y-142387115D01*
X72179131Y-142416738D01*
X72121910Y-142443453D01*
X72055582Y-142474188D01*
X71995934Y-142501729D01*
X71946083Y-142524646D01*
X71909144Y-142541506D01*
X71888235Y-142550881D01*
X71884963Y-142552248D01*
X71890311Y-142558397D01*
X71912699Y-142572530D01*
X71948862Y-142592765D01*
X71995531Y-142617223D01*
X72014786Y-142626956D01*
X72079804Y-142659925D01*
X72127154Y-142685351D01*
X72159589Y-142705320D01*
X72179862Y-142721918D01*
X72190726Y-142737232D01*
X72194933Y-142753348D01*
X72195408Y-142763851D01*
X72193766Y-142782378D01*
X72186977Y-142798612D01*
X72172242Y-142814743D01*
X72146764Y-142832959D01*
X72107747Y-142855447D01*
X72052394Y-142884397D01*
X72020905Y-142900370D01*
X71970721Y-142926278D01*
X71929104Y-142948875D01*
X71899566Y-142966166D01*
X71885619Y-142976158D01*
X71885038Y-142977517D01*
X71896015Y-142983969D01*
X71924518Y-142998416D01*
X71967564Y-143019411D01*
X72022170Y-143045505D01*
X72085354Y-143075254D01*
X72116737Y-143089888D01*
X72197730Y-143127958D01*
X72260052Y-143158613D01*
X72305737Y-143183445D01*
X72336819Y-143204045D01*
X72355330Y-143222006D01*
X72363304Y-143238918D01*
X72362774Y-143256373D01*
X72362774Y-143256373D01*
G37*
X72362774Y-143256373D02*
X72355773Y-143275963D01*
X72355431Y-143276718D01*
X72335130Y-143303321D01*
X72314247Y-143317978D01*
X72304456Y-143320846D01*
X72291447Y-143320704D01*
X72272913Y-143316669D01*
X72246551Y-143307854D01*
X72210056Y-143293377D01*
X72161121Y-143272353D01*
X72097443Y-143243896D01*
X72016715Y-143207123D01*
X71972592Y-143186883D01*
X71893823Y-143150333D01*
X71821385Y-143116023D01*
X71757928Y-143085260D01*
X71706100Y-143059356D01*
X71668549Y-143039618D01*
X71647924Y-143027358D01*
X71645075Y-143024932D01*
X71632506Y-142993891D01*
X71634189Y-142958829D01*
X71649476Y-142930708D01*
X71650719Y-142929562D01*
X71667654Y-142918376D01*
X71700638Y-142899612D01*
X71745428Y-142875583D01*
X71797776Y-142848605D01*
X71817066Y-142838909D01*
X71963658Y-142765722D01*
X71804415Y-142685948D01*
X71749393Y-142657475D01*
X71701676Y-142631058D01*
X71664915Y-142608856D01*
X71642764Y-142593027D01*
X71638067Y-142587662D01*
X71631706Y-142545965D01*
X71645075Y-142511557D01*
X71659362Y-142501436D01*
X71691116Y-142483922D01*
X71737211Y-142460443D01*
X71794523Y-142432428D01*
X71859928Y-142401307D01*
X71930301Y-142368507D01*
X72002517Y-142335458D01*
X72073453Y-142303589D01*
X72139983Y-142274327D01*
X72198982Y-142249103D01*
X72247327Y-142229344D01*
X72281893Y-142216480D01*
X72299555Y-142211939D01*
X72300195Y-142211985D01*
X72322420Y-142223034D01*
X72345055Y-142245118D01*
X72346040Y-142246418D01*
X72361383Y-142273561D01*
X72361234Y-142298666D01*
X72358342Y-142308076D01*
X72352090Y-142319542D01*
X72339794Y-142331718D01*
X72318900Y-142346065D01*
X72286859Y-142364044D01*
X72241120Y-142387115D01*
X72179131Y-142416738D01*
X72121910Y-142443453D01*
X72055582Y-142474188D01*
X71995934Y-142501729D01*
X71946083Y-142524646D01*
X71909144Y-142541506D01*
X71888235Y-142550881D01*
X71884963Y-142552248D01*
X71890311Y-142558397D01*
X71912699Y-142572530D01*
X71948862Y-142592765D01*
X71995531Y-142617223D01*
X72014786Y-142626956D01*
X72079804Y-142659925D01*
X72127154Y-142685351D01*
X72159589Y-142705320D01*
X72179862Y-142721918D01*
X72190726Y-142737232D01*
X72194933Y-142753348D01*
X72195408Y-142763851D01*
X72193766Y-142782378D01*
X72186977Y-142798612D01*
X72172242Y-142814743D01*
X72146764Y-142832959D01*
X72107747Y-142855447D01*
X72052394Y-142884397D01*
X72020905Y-142900370D01*
X71970721Y-142926278D01*
X71929104Y-142948875D01*
X71899566Y-142966166D01*
X71885619Y-142976158D01*
X71885038Y-142977517D01*
X71896015Y-142983969D01*
X71924518Y-142998416D01*
X71967564Y-143019411D01*
X72022170Y-143045505D01*
X72085354Y-143075254D01*
X72116737Y-143089888D01*
X72197730Y-143127958D01*
X72260052Y-143158613D01*
X72305737Y-143183445D01*
X72336819Y-143204045D01*
X72355330Y-143222006D01*
X72363304Y-143238918D01*
X72362774Y-143256373D01*
G36*
X72357931Y-143700322D02*
G01*
X72343161Y-143724035D01*
X72321581Y-143750686D01*
X72000035Y-143750686D01*
X71905978Y-143750601D01*
X71831876Y-143750237D01*
X71775104Y-143749432D01*
X71733040Y-143748021D01*
X71703060Y-143745841D01*
X71682541Y-143742729D01*
X71668859Y-143738522D01*
X71659392Y-143733056D01*
X71654726Y-143729180D01*
X71634233Y-143697742D01*
X71635069Y-143661941D01*
X71652544Y-143630581D01*
X71674124Y-143603930D01*
X72321581Y-143603930D01*
X72343161Y-143630581D01*
X72358859Y-143656302D01*
X72364741Y-143677308D01*
X72357931Y-143700322D01*
X72357931Y-143700322D01*
G37*
X72357931Y-143700322D02*
X72343161Y-143724035D01*
X72321581Y-143750686D01*
X72000035Y-143750686D01*
X71905978Y-143750601D01*
X71831876Y-143750237D01*
X71775104Y-143749432D01*
X71733040Y-143748021D01*
X71703060Y-143745841D01*
X71682541Y-143742729D01*
X71668859Y-143738522D01*
X71659392Y-143733056D01*
X71654726Y-143729180D01*
X71634233Y-143697742D01*
X71635069Y-143661941D01*
X71652544Y-143630581D01*
X71674124Y-143603930D01*
X72321581Y-143603930D01*
X72343161Y-143630581D01*
X72358859Y-143656302D01*
X72364741Y-143677308D01*
X72357931Y-143700322D01*
G36*
X72364645Y-144474773D02*
G01*
X72364266Y-144553480D01*
X72363475Y-144614571D01*
X72362138Y-144660525D01*
X72360125Y-144693822D01*
X72357302Y-144716944D01*
X72353539Y-144732370D01*
X72348703Y-144742579D01*
X72344986Y-144747521D01*
X72312450Y-144773165D01*
X72278670Y-144776267D01*
X72247982Y-144760419D01*
X72235719Y-144750056D01*
X72227358Y-144738904D01*
X72222151Y-144722743D01*
X72219351Y-144697350D01*
X72218212Y-144658506D01*
X72217987Y-144601988D01*
X72217986Y-144590888D01*
X72217986Y-144444952D01*
X71947052Y-144444952D01*
X71861654Y-144444856D01*
X71795944Y-144444419D01*
X71747034Y-144443420D01*
X71712035Y-144441636D01*
X71688059Y-144438845D01*
X71672215Y-144434825D01*
X71661617Y-144429353D01*
X71653541Y-144422374D01*
X71633696Y-144389442D01*
X71635260Y-144355062D01*
X71657902Y-144323884D01*
X71660708Y-144321594D01*
X71671316Y-144314137D01*
X71683727Y-144308455D01*
X71700958Y-144304309D01*
X71726024Y-144301458D01*
X71761941Y-144299662D01*
X71811725Y-144298680D01*
X71878391Y-144298272D01*
X71954219Y-144298197D01*
X72217986Y-144298197D01*
X72217986Y-144158835D01*
X72218390Y-144099030D01*
X72219968Y-144057626D01*
X72223261Y-144030456D01*
X72228816Y-144013354D01*
X72237177Y-144002151D01*
X72238630Y-144000791D01*
X72271869Y-143984433D01*
X72309446Y-143985880D01*
X72342163Y-144004686D01*
X72348510Y-144011958D01*
X72353542Y-144021335D01*
X72357412Y-144035317D01*
X72360271Y-144056404D01*
X72362273Y-144087097D01*
X72363569Y-144129897D01*
X72364310Y-144187303D01*
X72364650Y-144261818D01*
X72364740Y-144355941D01*
X72364741Y-144375968D01*
X72364645Y-144474773D01*
X72364645Y-144474773D01*
G37*
X72364645Y-144474773D02*
X72364266Y-144553480D01*
X72363475Y-144614571D01*
X72362138Y-144660525D01*
X72360125Y-144693822D01*
X72357302Y-144716944D01*
X72353539Y-144732370D01*
X72348703Y-144742579D01*
X72344986Y-144747521D01*
X72312450Y-144773165D01*
X72278670Y-144776267D01*
X72247982Y-144760419D01*
X72235719Y-144750056D01*
X72227358Y-144738904D01*
X72222151Y-144722743D01*
X72219351Y-144697350D01*
X72218212Y-144658506D01*
X72217987Y-144601988D01*
X72217986Y-144590888D01*
X72217986Y-144444952D01*
X71947052Y-144444952D01*
X71861654Y-144444856D01*
X71795944Y-144444419D01*
X71747034Y-144443420D01*
X71712035Y-144441636D01*
X71688059Y-144438845D01*
X71672215Y-144434825D01*
X71661617Y-144429353D01*
X71653541Y-144422374D01*
X71633696Y-144389442D01*
X71635260Y-144355062D01*
X71657902Y-144323884D01*
X71660708Y-144321594D01*
X71671316Y-144314137D01*
X71683727Y-144308455D01*
X71700958Y-144304309D01*
X71726024Y-144301458D01*
X71761941Y-144299662D01*
X71811725Y-144298680D01*
X71878391Y-144298272D01*
X71954219Y-144298197D01*
X72217986Y-144298197D01*
X72217986Y-144158835D01*
X72218390Y-144099030D01*
X72219968Y-144057626D01*
X72223261Y-144030456D01*
X72228816Y-144013354D01*
X72237177Y-144002151D01*
X72238630Y-144000791D01*
X72271869Y-143984433D01*
X72309446Y-143985880D01*
X72342163Y-144004686D01*
X72348510Y-144011958D01*
X72353542Y-144021335D01*
X72357412Y-144035317D01*
X72360271Y-144056404D01*
X72362273Y-144087097D01*
X72363569Y-144129897D01*
X72364310Y-144187303D01*
X72364650Y-144261818D01*
X72364740Y-144355941D01*
X72364741Y-144375968D01*
X72364645Y-144474773D01*
G36*
X72359275Y-145740531D02*
G01*
X72337032Y-145771910D01*
X72309323Y-145799619D01*
X71999888Y-145799619D01*
X71908009Y-145799546D01*
X71835968Y-145799203D01*
X71781028Y-145798400D01*
X71740448Y-145796949D01*
X71711491Y-145794660D01*
X71691417Y-145791344D01*
X71677487Y-145786813D01*
X71666963Y-145780877D01*
X71660708Y-145776222D01*
X71636135Y-145745491D01*
X71633467Y-145710204D01*
X71648537Y-145677953D01*
X71657434Y-145667296D01*
X71669251Y-145660172D01*
X71688282Y-145655875D01*
X71718816Y-145653699D01*
X71765146Y-145652936D01*
X71800937Y-145652863D01*
X71935763Y-145652863D01*
X71935763Y-145156152D01*
X71813108Y-145156152D01*
X71757021Y-145155639D01*
X71718475Y-145153584D01*
X71692447Y-145149216D01*
X71673911Y-145141764D01*
X71660708Y-145132755D01*
X71636204Y-145101852D01*
X71633302Y-145066904D01*
X71650719Y-145033446D01*
X71659849Y-145024312D01*
X71671953Y-145017860D01*
X71690807Y-145013605D01*
X71720188Y-145011060D01*
X71763871Y-145009737D01*
X71825633Y-145009151D01*
X71839808Y-145009083D01*
X71956177Y-145008599D01*
X72052081Y-145008349D01*
X72129631Y-145008431D01*
X72190939Y-145008939D01*
X72238118Y-145009970D01*
X72273278Y-145011621D01*
X72298532Y-145013987D01*
X72315991Y-145017165D01*
X72327767Y-145021252D01*
X72335973Y-145026342D01*
X72342163Y-145031974D01*
X72361964Y-145063836D01*
X72359275Y-145097065D01*
X72337032Y-145128443D01*
X72322682Y-145141141D01*
X72306830Y-145149234D01*
X72284254Y-145153750D01*
X72249730Y-145155714D01*
X72198032Y-145156152D01*
X72082519Y-145156152D01*
X72082519Y-145652863D01*
X72201052Y-145652863D01*
X72255660Y-145653370D01*
X72292533Y-145655406D01*
X72316501Y-145659743D01*
X72332393Y-145667155D01*
X72342163Y-145675441D01*
X72361964Y-145707302D01*
X72359275Y-145740531D01*
X72359275Y-145740531D01*
G37*
X72359275Y-145740531D02*
X72337032Y-145771910D01*
X72309323Y-145799619D01*
X71999888Y-145799619D01*
X71908009Y-145799546D01*
X71835968Y-145799203D01*
X71781028Y-145798400D01*
X71740448Y-145796949D01*
X71711491Y-145794660D01*
X71691417Y-145791344D01*
X71677487Y-145786813D01*
X71666963Y-145780877D01*
X71660708Y-145776222D01*
X71636135Y-145745491D01*
X71633467Y-145710204D01*
X71648537Y-145677953D01*
X71657434Y-145667296D01*
X71669251Y-145660172D01*
X71688282Y-145655875D01*
X71718816Y-145653699D01*
X71765146Y-145652936D01*
X71800937Y-145652863D01*
X71935763Y-145652863D01*
X71935763Y-145156152D01*
X71813108Y-145156152D01*
X71757021Y-145155639D01*
X71718475Y-145153584D01*
X71692447Y-145149216D01*
X71673911Y-145141764D01*
X71660708Y-145132755D01*
X71636204Y-145101852D01*
X71633302Y-145066904D01*
X71650719Y-145033446D01*
X71659849Y-145024312D01*
X71671953Y-145017860D01*
X71690807Y-145013605D01*
X71720188Y-145011060D01*
X71763871Y-145009737D01*
X71825633Y-145009151D01*
X71839808Y-145009083D01*
X71956177Y-145008599D01*
X72052081Y-145008349D01*
X72129631Y-145008431D01*
X72190939Y-145008939D01*
X72238118Y-145009970D01*
X72273278Y-145011621D01*
X72298532Y-145013987D01*
X72315991Y-145017165D01*
X72327767Y-145021252D01*
X72335973Y-145026342D01*
X72342163Y-145031974D01*
X72361964Y-145063836D01*
X72359275Y-145097065D01*
X72337032Y-145128443D01*
X72322682Y-145141141D01*
X72306830Y-145149234D01*
X72284254Y-145153750D01*
X72249730Y-145155714D01*
X72198032Y-145156152D01*
X72082519Y-145156152D01*
X72082519Y-145652863D01*
X72201052Y-145652863D01*
X72255660Y-145653370D01*
X72292533Y-145655406D01*
X72316501Y-145659743D01*
X72332393Y-145667155D01*
X72342163Y-145675441D01*
X72361964Y-145707302D01*
X72359275Y-145740531D01*
G36*
X78963510Y-136773921D02*
G01*
X78927762Y-136877027D01*
X78871493Y-136973022D01*
X78794712Y-137058753D01*
X78697427Y-137131070D01*
X78636108Y-137163555D01*
X78550340Y-137191668D01*
X78451323Y-137205295D01*
X78349529Y-137203786D01*
X78257286Y-137187031D01*
X78144568Y-137141237D01*
X78046793Y-137074832D01*
X77965885Y-136991191D01*
X77903768Y-136893688D01*
X77862366Y-136785700D01*
X77843603Y-136670601D01*
X77849402Y-136551766D01*
X77861794Y-136493189D01*
X77906203Y-136379028D01*
X77973967Y-136277635D01*
X78062999Y-136191455D01*
X78171209Y-136122934D01*
X78183027Y-136117136D01*
X78227372Y-136097096D01*
X78264720Y-136084513D01*
X78304120Y-136077681D01*
X78354619Y-136074895D01*
X78409567Y-136074432D01*
X78475585Y-136075197D01*
X78523311Y-136078648D01*
X78561897Y-136086523D01*
X78600494Y-136100557D01*
X78638574Y-136117880D01*
X78746672Y-136182495D01*
X78834197Y-136262066D01*
X78901159Y-136353440D01*
X78947564Y-136453464D01*
X78973419Y-136558988D01*
X78978732Y-136666858D01*
X78963510Y-136773921D01*
X78963510Y-136773921D01*
G37*
X78963510Y-136773921D02*
X78927762Y-136877027D01*
X78871493Y-136973022D01*
X78794712Y-137058753D01*
X78697427Y-137131070D01*
X78636108Y-137163555D01*
X78550340Y-137191668D01*
X78451323Y-137205295D01*
X78349529Y-137203786D01*
X78257286Y-137187031D01*
X78144568Y-137141237D01*
X78046793Y-137074832D01*
X77965885Y-136991191D01*
X77903768Y-136893688D01*
X77862366Y-136785700D01*
X77843603Y-136670601D01*
X77849402Y-136551766D01*
X77861794Y-136493189D01*
X77906203Y-136379028D01*
X77973967Y-136277635D01*
X78062999Y-136191455D01*
X78171209Y-136122934D01*
X78183027Y-136117136D01*
X78227372Y-136097096D01*
X78264720Y-136084513D01*
X78304120Y-136077681D01*
X78354619Y-136074895D01*
X78409567Y-136074432D01*
X78475585Y-136075197D01*
X78523311Y-136078648D01*
X78561897Y-136086523D01*
X78600494Y-136100557D01*
X78638574Y-136117880D01*
X78746672Y-136182495D01*
X78834197Y-136262066D01*
X78901159Y-136353440D01*
X78947564Y-136453464D01*
X78973419Y-136558988D01*
X78978732Y-136666858D01*
X78963510Y-136773921D01*
G36*
X78043175Y-146342270D02*
G01*
X78042696Y-146459041D01*
X78042455Y-146498729D01*
X78038865Y-147044486D01*
X75945081Y-147051351D01*
X75661158Y-147052258D01*
X75403360Y-147053062D01*
X75170354Y-147053815D01*
X74960806Y-147054569D01*
X74773382Y-147055375D01*
X74606750Y-147056285D01*
X74459575Y-147057351D01*
X74330523Y-147058624D01*
X74218261Y-147060156D01*
X74121456Y-147061998D01*
X74038774Y-147064203D01*
X73968881Y-147066822D01*
X73910443Y-147069906D01*
X73862128Y-147073508D01*
X73822600Y-147077678D01*
X73790527Y-147082469D01*
X73764576Y-147087931D01*
X73743411Y-147094118D01*
X73725701Y-147101080D01*
X73710111Y-147108869D01*
X73695307Y-147117537D01*
X73679956Y-147127135D01*
X73662724Y-147137715D01*
X73659054Y-147139884D01*
X73596969Y-147176268D01*
X73600566Y-146650431D01*
X73604162Y-146124594D01*
X73719669Y-146117729D01*
X73775101Y-146113992D01*
X73807149Y-146110097D01*
X73819865Y-146104811D01*
X73817304Y-146096903D01*
X73809976Y-146090270D01*
X73783286Y-146061374D01*
X73748979Y-146014279D01*
X73711154Y-145955620D01*
X73673910Y-145892031D01*
X73641347Y-145830149D01*
X73619923Y-145782634D01*
X73584717Y-145671316D01*
X73559778Y-145543596D01*
X73546059Y-145408901D01*
X73544514Y-145276663D01*
X73556094Y-145156308D01*
X73556426Y-145154326D01*
X73597750Y-144989641D01*
X73663588Y-144835479D01*
X73752526Y-144693328D01*
X73863148Y-144564675D01*
X73994039Y-144451007D01*
X74143784Y-144353810D01*
X74310967Y-144274572D01*
X74434810Y-144231430D01*
X74538419Y-144202979D01*
X74638748Y-144181880D01*
X74741891Y-144167488D01*
X74853943Y-144159158D01*
X74980999Y-144156245D01*
X75084748Y-144157535D01*
X75084748Y-145170650D01*
X74910778Y-145175444D01*
X74761105Y-145190568D01*
X74634403Y-145216485D01*
X74529342Y-145253663D01*
X74444594Y-145302565D01*
X74378831Y-145363658D01*
X74332341Y-145434177D01*
X74314986Y-145470871D01*
X74304581Y-145502696D01*
X74299821Y-145538177D01*
X74299399Y-145585841D01*
X74301252Y-145637189D01*
X74310159Y-145738169D01*
X74327602Y-145818035D01*
X74336339Y-145843135D01*
X74362143Y-145900448D01*
X74394547Y-145960897D01*
X74410767Y-145987297D01*
X74455795Y-146055946D01*
X75883018Y-146055946D01*
X75928282Y-145980432D01*
X75979428Y-145875121D01*
X76009676Y-145767525D01*
X76019205Y-145661581D01*
X76008193Y-145561224D01*
X75976819Y-145470387D01*
X75925260Y-145393007D01*
X75900512Y-145368039D01*
X75819423Y-145307856D01*
X75721266Y-145259145D01*
X75604357Y-145221499D01*
X75467015Y-145194512D01*
X75307556Y-145177775D01*
X75124300Y-145170883D01*
X75084748Y-145170650D01*
X75084748Y-144157535D01*
X75127933Y-144158073D01*
X75353947Y-144169647D01*
X75557808Y-144192920D01*
X75742487Y-144228504D01*
X75910952Y-144277013D01*
X76066174Y-144339060D01*
X76112192Y-144361201D01*
X76262261Y-144450385D01*
X76395623Y-144558159D01*
X76510123Y-144681990D01*
X76603611Y-144819342D01*
X76673932Y-144967683D01*
X76702940Y-145056604D01*
X76720160Y-145143933D01*
X76730406Y-145249011D01*
X76733682Y-145363029D01*
X76729991Y-145477177D01*
X76719340Y-145582648D01*
X76702630Y-145667334D01*
X76669860Y-145768128D01*
X76627721Y-145865822D01*
X76580481Y-145951296D01*
X76548419Y-145996789D01*
X76524578Y-146028169D01*
X76510061Y-146050142D01*
X76508000Y-146055141D01*
X76521282Y-146056690D01*
X76559337Y-146058135D01*
X76619481Y-146059443D01*
X76699027Y-146060583D01*
X76795289Y-146061521D01*
X76905581Y-146062226D01*
X77027219Y-146062667D01*
X77151115Y-146062811D01*
X77309804Y-146062730D01*
X77443592Y-146062335D01*
X77555040Y-146061395D01*
X77646705Y-146059680D01*
X77721147Y-146056957D01*
X77780925Y-146052997D01*
X77828598Y-146047569D01*
X77866726Y-146040441D01*
X77897866Y-146031384D01*
X77924579Y-146020167D01*
X77949423Y-146006558D01*
X77974957Y-145990328D01*
X77978119Y-145988240D01*
X78011190Y-145967306D01*
X78033931Y-145954667D01*
X78038728Y-145952973D01*
X78040241Y-145966216D01*
X78041472Y-146004002D01*
X78042401Y-146063416D01*
X78043008Y-146141542D01*
X78043273Y-146235465D01*
X78043175Y-146342270D01*
X78043175Y-146342270D01*
G37*
X78043175Y-146342270D02*
X78042696Y-146459041D01*
X78042455Y-146498729D01*
X78038865Y-147044486D01*
X75945081Y-147051351D01*
X75661158Y-147052258D01*
X75403360Y-147053062D01*
X75170354Y-147053815D01*
X74960806Y-147054569D01*
X74773382Y-147055375D01*
X74606750Y-147056285D01*
X74459575Y-147057351D01*
X74330523Y-147058624D01*
X74218261Y-147060156D01*
X74121456Y-147061998D01*
X74038774Y-147064203D01*
X73968881Y-147066822D01*
X73910443Y-147069906D01*
X73862128Y-147073508D01*
X73822600Y-147077678D01*
X73790527Y-147082469D01*
X73764576Y-147087931D01*
X73743411Y-147094118D01*
X73725701Y-147101080D01*
X73710111Y-147108869D01*
X73695307Y-147117537D01*
X73679956Y-147127135D01*
X73662724Y-147137715D01*
X73659054Y-147139884D01*
X73596969Y-147176268D01*
X73600566Y-146650431D01*
X73604162Y-146124594D01*
X73719669Y-146117729D01*
X73775101Y-146113992D01*
X73807149Y-146110097D01*
X73819865Y-146104811D01*
X73817304Y-146096903D01*
X73809976Y-146090270D01*
X73783286Y-146061374D01*
X73748979Y-146014279D01*
X73711154Y-145955620D01*
X73673910Y-145892031D01*
X73641347Y-145830149D01*
X73619923Y-145782634D01*
X73584717Y-145671316D01*
X73559778Y-145543596D01*
X73546059Y-145408901D01*
X73544514Y-145276663D01*
X73556094Y-145156308D01*
X73556426Y-145154326D01*
X73597750Y-144989641D01*
X73663588Y-144835479D01*
X73752526Y-144693328D01*
X73863148Y-144564675D01*
X73994039Y-144451007D01*
X74143784Y-144353810D01*
X74310967Y-144274572D01*
X74434810Y-144231430D01*
X74538419Y-144202979D01*
X74638748Y-144181880D01*
X74741891Y-144167488D01*
X74853943Y-144159158D01*
X74980999Y-144156245D01*
X75084748Y-144157535D01*
X75084748Y-145170650D01*
X74910778Y-145175444D01*
X74761105Y-145190568D01*
X74634403Y-145216485D01*
X74529342Y-145253663D01*
X74444594Y-145302565D01*
X74378831Y-145363658D01*
X74332341Y-145434177D01*
X74314986Y-145470871D01*
X74304581Y-145502696D01*
X74299821Y-145538177D01*
X74299399Y-145585841D01*
X74301252Y-145637189D01*
X74310159Y-145738169D01*
X74327602Y-145818035D01*
X74336339Y-145843135D01*
X74362143Y-145900448D01*
X74394547Y-145960897D01*
X74410767Y-145987297D01*
X74455795Y-146055946D01*
X75883018Y-146055946D01*
X75928282Y-145980432D01*
X75979428Y-145875121D01*
X76009676Y-145767525D01*
X76019205Y-145661581D01*
X76008193Y-145561224D01*
X75976819Y-145470387D01*
X75925260Y-145393007D01*
X75900512Y-145368039D01*
X75819423Y-145307856D01*
X75721266Y-145259145D01*
X75604357Y-145221499D01*
X75467015Y-145194512D01*
X75307556Y-145177775D01*
X75124300Y-145170883D01*
X75084748Y-145170650D01*
X75084748Y-144157535D01*
X75127933Y-144158073D01*
X75353947Y-144169647D01*
X75557808Y-144192920D01*
X75742487Y-144228504D01*
X75910952Y-144277013D01*
X76066174Y-144339060D01*
X76112192Y-144361201D01*
X76262261Y-144450385D01*
X76395623Y-144558159D01*
X76510123Y-144681990D01*
X76603611Y-144819342D01*
X76673932Y-144967683D01*
X76702940Y-145056604D01*
X76720160Y-145143933D01*
X76730406Y-145249011D01*
X76733682Y-145363029D01*
X76729991Y-145477177D01*
X76719340Y-145582648D01*
X76702630Y-145667334D01*
X76669860Y-145768128D01*
X76627721Y-145865822D01*
X76580481Y-145951296D01*
X76548419Y-145996789D01*
X76524578Y-146028169D01*
X76510061Y-146050142D01*
X76508000Y-146055141D01*
X76521282Y-146056690D01*
X76559337Y-146058135D01*
X76619481Y-146059443D01*
X76699027Y-146060583D01*
X76795289Y-146061521D01*
X76905581Y-146062226D01*
X77027219Y-146062667D01*
X77151115Y-146062811D01*
X77309804Y-146062730D01*
X77443592Y-146062335D01*
X77555040Y-146061395D01*
X77646705Y-146059680D01*
X77721147Y-146056957D01*
X77780925Y-146052997D01*
X77828598Y-146047569D01*
X77866726Y-146040441D01*
X77897866Y-146031384D01*
X77924579Y-146020167D01*
X77949423Y-146006558D01*
X77974957Y-145990328D01*
X77978119Y-145988240D01*
X78011190Y-145967306D01*
X78033931Y-145954667D01*
X78038728Y-145952973D01*
X78040241Y-145966216D01*
X78041472Y-146004002D01*
X78042401Y-146063416D01*
X78043008Y-146141542D01*
X78043273Y-146235465D01*
X78043175Y-146342270D01*
G36*
X76735771Y-142667505D02*
G01*
X76730622Y-142735531D01*
X76704727Y-142930163D01*
X76663425Y-143102529D01*
X76606147Y-143253470D01*
X76532326Y-143383825D01*
X76441392Y-143494434D01*
X76332778Y-143586135D01*
X76205915Y-143659770D01*
X76068648Y-143713539D01*
X76024863Y-143727187D01*
X75983859Y-143739073D01*
X75943431Y-143749334D01*
X75901370Y-143758113D01*
X75855469Y-143765548D01*
X75803520Y-143771780D01*
X75743315Y-143776950D01*
X75672648Y-143781196D01*
X75589311Y-143784660D01*
X75491095Y-143787481D01*
X75375795Y-143789800D01*
X75241201Y-143791757D01*
X75085107Y-143793491D01*
X74905305Y-143795143D01*
X74764324Y-143796324D01*
X73796378Y-143804270D01*
X73703230Y-143855756D01*
X73658355Y-143880137D01*
X73623499Y-143898280D01*
X73604946Y-143906935D01*
X73603689Y-143907243D01*
X73602251Y-143894014D01*
X73600926Y-143856326D01*
X73599751Y-143797183D01*
X73598763Y-143719586D01*
X73598001Y-143626536D01*
X73597500Y-143521035D01*
X73597299Y-143406084D01*
X73597297Y-143392378D01*
X73597297Y-142877513D01*
X73714000Y-142877513D01*
X73766740Y-142876635D01*
X73807074Y-142874292D01*
X73828700Y-142870921D01*
X73830702Y-142869431D01*
X73822317Y-142855804D01*
X73800308Y-142827757D01*
X73769399Y-142791303D01*
X73768684Y-142790485D01*
X73719157Y-142723962D01*
X73669425Y-142639948D01*
X73624374Y-142547937D01*
X73588890Y-142457421D01*
X73576764Y-142417567D01*
X73561363Y-142338255D01*
X73551535Y-142240935D01*
X73547420Y-142134516D01*
X73549159Y-142027907D01*
X73556892Y-141930017D01*
X73568019Y-141861513D01*
X73617352Y-141693520D01*
X73687658Y-141542281D01*
X73778067Y-141408782D01*
X73887705Y-141294006D01*
X74015701Y-141198937D01*
X74161182Y-141124560D01*
X74249459Y-141092474D01*
X74335261Y-141072365D01*
X74438264Y-141059038D01*
X74548966Y-141052872D01*
X74565075Y-141053074D01*
X74565075Y-141981648D01*
X74482816Y-141989348D01*
X74414454Y-142014989D01*
X74351030Y-142062378D01*
X74332433Y-142080579D01*
X74282154Y-142145282D01*
X74249944Y-142220066D01*
X74234352Y-142309662D01*
X74233204Y-142404012D01*
X74240784Y-142493501D01*
X74255611Y-142562018D01*
X74266747Y-142591775D01*
X74297096Y-142645408D01*
X74339779Y-142702235D01*
X74387683Y-142754082D01*
X74433699Y-142792778D01*
X74450579Y-142803054D01*
X74474218Y-142811042D01*
X74511832Y-142816721D01*
X74567015Y-142820356D01*
X74643360Y-142822211D01*
X74716019Y-142822594D01*
X74800730Y-142822335D01*
X74861982Y-142821287D01*
X74903773Y-142819045D01*
X74930101Y-142815206D01*
X74944965Y-142809365D01*
X74952361Y-142801118D01*
X74953539Y-142798567D01*
X74957167Y-142776400D01*
X74960134Y-142732680D01*
X74962173Y-142673311D01*
X74963017Y-142604196D01*
X74963018Y-142589189D01*
X74961543Y-142496805D01*
X74957158Y-142425432D01*
X74949262Y-142368719D01*
X74937730Y-142321872D01*
X74893785Y-142205669D01*
X74839757Y-142114543D01*
X74774781Y-142047705D01*
X74697995Y-142004365D01*
X74608533Y-141983734D01*
X74565075Y-141981648D01*
X74565075Y-141053074D01*
X74657867Y-141054244D01*
X74755464Y-141063532D01*
X74794895Y-141070777D01*
X74941299Y-141117039D01*
X75076005Y-141187384D01*
X75197720Y-141280484D01*
X75305153Y-141395012D01*
X75397012Y-141529640D01*
X75472004Y-141683040D01*
X75517542Y-141813459D01*
X75541467Y-141900623D01*
X75560057Y-141983996D01*
X75573916Y-142068976D01*
X75583649Y-142160965D01*
X75589859Y-142265362D01*
X75593149Y-142387568D01*
X75594076Y-142498055D01*
X75594973Y-142825677D01*
X75693453Y-142819401D01*
X75800305Y-142801579D01*
X75892148Y-142763667D01*
X75966690Y-142707280D01*
X76021636Y-142634031D01*
X76048448Y-142569535D01*
X76065346Y-142477123D01*
X76067773Y-142367111D01*
X76056622Y-142244656D01*
X76032790Y-142114914D01*
X75997170Y-141983042D01*
X75950657Y-141854198D01*
X75908117Y-141760566D01*
X75886272Y-141715517D01*
X75871016Y-141681156D01*
X75865063Y-141663681D01*
X75865254Y-141662733D01*
X75878588Y-141656703D01*
X75913932Y-141641645D01*
X75967899Y-141618977D01*
X76037104Y-141590115D01*
X76118160Y-141556477D01*
X76200882Y-141522284D01*
X76532197Y-141385586D01*
X76548167Y-141482820D01*
X76556180Y-141524964D01*
X76569639Y-141588319D01*
X76587321Y-141667457D01*
X76608004Y-141756951D01*
X76630468Y-141851373D01*
X76639597Y-141888973D01*
X76677326Y-142051637D01*
X76705612Y-142194050D01*
X76725028Y-142321527D01*
X76736146Y-142439384D01*
X76739536Y-142552938D01*
X76735771Y-142667505D01*
X76735771Y-142667505D01*
G37*
X76735771Y-142667505D02*
X76730622Y-142735531D01*
X76704727Y-142930163D01*
X76663425Y-143102529D01*
X76606147Y-143253470D01*
X76532326Y-143383825D01*
X76441392Y-143494434D01*
X76332778Y-143586135D01*
X76205915Y-143659770D01*
X76068648Y-143713539D01*
X76024863Y-143727187D01*
X75983859Y-143739073D01*
X75943431Y-143749334D01*
X75901370Y-143758113D01*
X75855469Y-143765548D01*
X75803520Y-143771780D01*
X75743315Y-143776950D01*
X75672648Y-143781196D01*
X75589311Y-143784660D01*
X75491095Y-143787481D01*
X75375795Y-143789800D01*
X75241201Y-143791757D01*
X75085107Y-143793491D01*
X74905305Y-143795143D01*
X74764324Y-143796324D01*
X73796378Y-143804270D01*
X73703230Y-143855756D01*
X73658355Y-143880137D01*
X73623499Y-143898280D01*
X73604946Y-143906935D01*
X73603689Y-143907243D01*
X73602251Y-143894014D01*
X73600926Y-143856326D01*
X73599751Y-143797183D01*
X73598763Y-143719586D01*
X73598001Y-143626536D01*
X73597500Y-143521035D01*
X73597299Y-143406084D01*
X73597297Y-143392378D01*
X73597297Y-142877513D01*
X73714000Y-142877513D01*
X73766740Y-142876635D01*
X73807074Y-142874292D01*
X73828700Y-142870921D01*
X73830702Y-142869431D01*
X73822317Y-142855804D01*
X73800308Y-142827757D01*
X73769399Y-142791303D01*
X73768684Y-142790485D01*
X73719157Y-142723962D01*
X73669425Y-142639948D01*
X73624374Y-142547937D01*
X73588890Y-142457421D01*
X73576764Y-142417567D01*
X73561363Y-142338255D01*
X73551535Y-142240935D01*
X73547420Y-142134516D01*
X73549159Y-142027907D01*
X73556892Y-141930017D01*
X73568019Y-141861513D01*
X73617352Y-141693520D01*
X73687658Y-141542281D01*
X73778067Y-141408782D01*
X73887705Y-141294006D01*
X74015701Y-141198937D01*
X74161182Y-141124560D01*
X74249459Y-141092474D01*
X74335261Y-141072365D01*
X74438264Y-141059038D01*
X74548966Y-141052872D01*
X74565075Y-141053074D01*
X74565075Y-141981648D01*
X74482816Y-141989348D01*
X74414454Y-142014989D01*
X74351030Y-142062378D01*
X74332433Y-142080579D01*
X74282154Y-142145282D01*
X74249944Y-142220066D01*
X74234352Y-142309662D01*
X74233204Y-142404012D01*
X74240784Y-142493501D01*
X74255611Y-142562018D01*
X74266747Y-142591775D01*
X74297096Y-142645408D01*
X74339779Y-142702235D01*
X74387683Y-142754082D01*
X74433699Y-142792778D01*
X74450579Y-142803054D01*
X74474218Y-142811042D01*
X74511832Y-142816721D01*
X74567015Y-142820356D01*
X74643360Y-142822211D01*
X74716019Y-142822594D01*
X74800730Y-142822335D01*
X74861982Y-142821287D01*
X74903773Y-142819045D01*
X74930101Y-142815206D01*
X74944965Y-142809365D01*
X74952361Y-142801118D01*
X74953539Y-142798567D01*
X74957167Y-142776400D01*
X74960134Y-142732680D01*
X74962173Y-142673311D01*
X74963017Y-142604196D01*
X74963018Y-142589189D01*
X74961543Y-142496805D01*
X74957158Y-142425432D01*
X74949262Y-142368719D01*
X74937730Y-142321872D01*
X74893785Y-142205669D01*
X74839757Y-142114543D01*
X74774781Y-142047705D01*
X74697995Y-142004365D01*
X74608533Y-141983734D01*
X74565075Y-141981648D01*
X74565075Y-141053074D01*
X74657867Y-141054244D01*
X74755464Y-141063532D01*
X74794895Y-141070777D01*
X74941299Y-141117039D01*
X75076005Y-141187384D01*
X75197720Y-141280484D01*
X75305153Y-141395012D01*
X75397012Y-141529640D01*
X75472004Y-141683040D01*
X75517542Y-141813459D01*
X75541467Y-141900623D01*
X75560057Y-141983996D01*
X75573916Y-142068976D01*
X75583649Y-142160965D01*
X75589859Y-142265362D01*
X75593149Y-142387568D01*
X75594076Y-142498055D01*
X75594973Y-142825677D01*
X75693453Y-142819401D01*
X75800305Y-142801579D01*
X75892148Y-142763667D01*
X75966690Y-142707280D01*
X76021636Y-142634031D01*
X76048448Y-142569535D01*
X76065346Y-142477123D01*
X76067773Y-142367111D01*
X76056622Y-142244656D01*
X76032790Y-142114914D01*
X75997170Y-141983042D01*
X75950657Y-141854198D01*
X75908117Y-141760566D01*
X75886272Y-141715517D01*
X75871016Y-141681156D01*
X75865063Y-141663681D01*
X75865254Y-141662733D01*
X75878588Y-141656703D01*
X75913932Y-141641645D01*
X75967899Y-141618977D01*
X76037104Y-141590115D01*
X76118160Y-141556477D01*
X76200882Y-141522284D01*
X76532197Y-141385586D01*
X76548167Y-141482820D01*
X76556180Y-141524964D01*
X76569639Y-141588319D01*
X76587321Y-141667457D01*
X76608004Y-141756951D01*
X76630468Y-141851373D01*
X76639597Y-141888973D01*
X76677326Y-142051637D01*
X76705612Y-142194050D01*
X76725028Y-142321527D01*
X76736146Y-142439384D01*
X76739536Y-142552938D01*
X76735771Y-142667505D01*
G36*
X77839501Y-139939962D02*
G01*
X77823293Y-140088014D01*
X77794282Y-140231452D01*
X77750955Y-140376110D01*
X77691799Y-140527824D01*
X77615300Y-140692428D01*
X77600483Y-140722071D01*
X77566969Y-140790098D01*
X77536792Y-140854256D01*
X77512834Y-140908215D01*
X77497976Y-140945640D01*
X77496105Y-140951389D01*
X77479598Y-141006486D01*
X77120799Y-140759851D01*
X77033107Y-140699552D01*
X76952988Y-140644422D01*
X76883164Y-140596336D01*
X76826353Y-140557168D01*
X76785277Y-140528794D01*
X76762654Y-140513087D01*
X76759072Y-140510536D01*
X76766562Y-140500171D01*
X76789082Y-140474660D01*
X76822539Y-140438563D01*
X76841450Y-140418642D01*
X76931222Y-140305773D01*
X76999439Y-140179014D01*
X77036805Y-140069783D01*
X77048540Y-140004214D01*
X77055692Y-139922116D01*
X77058126Y-139833144D01*
X77055712Y-139746956D01*
X77048317Y-139673205D01*
X77042653Y-139643776D01*
X76997018Y-139511133D01*
X76927337Y-139391606D01*
X76833740Y-139285283D01*
X76716351Y-139192253D01*
X76575300Y-139112605D01*
X76410714Y-139046426D01*
X76222720Y-138993806D01*
X76061783Y-138962533D01*
X75990737Y-138954374D01*
X75898954Y-138948815D01*
X75793032Y-138945802D01*
X75679566Y-138945281D01*
X75565151Y-138947200D01*
X75456383Y-138951503D01*
X75359857Y-138958137D01*
X75282169Y-138967049D01*
X75270183Y-138968979D01*
X75077108Y-139011499D01*
X74906227Y-139069433D01*
X74756776Y-139143133D01*
X74627989Y-139232951D01*
X74558361Y-139296707D01*
X74463827Y-139411286D01*
X74393754Y-139536942D01*
X74348523Y-139671557D01*
X74328516Y-139813011D01*
X74334115Y-139959183D01*
X74365700Y-140107955D01*
X74396606Y-140195911D01*
X74458494Y-140317629D01*
X74547271Y-140443080D01*
X74607306Y-140513353D01*
X74642053Y-140552811D01*
X74667546Y-140583812D01*
X74679830Y-140601458D01*
X74680205Y-140603648D01*
X74667653Y-140611524D01*
X74634484Y-140631932D01*
X74583542Y-140663132D01*
X74517669Y-140703386D01*
X74439711Y-140750957D01*
X74352510Y-140804104D01*
X74303933Y-140833687D01*
X73932785Y-141059648D01*
X73793361Y-140777527D01*
X73743281Y-140675522D01*
X73703790Y-140592889D01*
X73672927Y-140524578D01*
X73648732Y-140465537D01*
X73629242Y-140410714D01*
X73612497Y-140355060D01*
X73596535Y-140293523D01*
X73582518Y-140234540D01*
X73571671Y-140182115D01*
X73563474Y-140127288D01*
X73557472Y-140064572D01*
X73553210Y-139988477D01*
X73550233Y-139893516D01*
X73548948Y-139829513D01*
X73548070Y-139738192D01*
X73548513Y-139650627D01*
X73550148Y-139572612D01*
X73552851Y-139509942D01*
X73556495Y-139468413D01*
X73556858Y-139465952D01*
X73603513Y-139250303D01*
X73674271Y-139047793D01*
X73769086Y-138858495D01*
X73887911Y-138682479D01*
X74030700Y-138519816D01*
X74197406Y-138370578D01*
X74345567Y-138262496D01*
X74539498Y-138147434D01*
X74744301Y-138054423D01*
X74961617Y-137983013D01*
X75193088Y-137932756D01*
X75440357Y-137903201D01*
X75691441Y-137893889D01*
X75934330Y-137901548D01*
X76158430Y-137925613D01*
X76367523Y-137966852D01*
X76565387Y-138026027D01*
X76755804Y-138103904D01*
X76775532Y-138113203D01*
X76959941Y-138215648D01*
X77135424Y-138341472D01*
X77298350Y-138487112D01*
X77445086Y-138649001D01*
X77571999Y-138823576D01*
X77665095Y-138986244D01*
X77738009Y-139150573D01*
X77790826Y-139315251D01*
X77824985Y-139486652D01*
X77841922Y-139671153D01*
X77844420Y-139781459D01*
X77839501Y-139939962D01*
X77839501Y-139939962D01*
G37*
X77839501Y-139939962D02*
X77823293Y-140088014D01*
X77794282Y-140231452D01*
X77750955Y-140376110D01*
X77691799Y-140527824D01*
X77615300Y-140692428D01*
X77600483Y-140722071D01*
X77566969Y-140790098D01*
X77536792Y-140854256D01*
X77512834Y-140908215D01*
X77497976Y-140945640D01*
X77496105Y-140951389D01*
X77479598Y-141006486D01*
X77120799Y-140759851D01*
X77033107Y-140699552D01*
X76952988Y-140644422D01*
X76883164Y-140596336D01*
X76826353Y-140557168D01*
X76785277Y-140528794D01*
X76762654Y-140513087D01*
X76759072Y-140510536D01*
X76766562Y-140500171D01*
X76789082Y-140474660D01*
X76822539Y-140438563D01*
X76841450Y-140418642D01*
X76931222Y-140305773D01*
X76999439Y-140179014D01*
X77036805Y-140069783D01*
X77048540Y-140004214D01*
X77055692Y-139922116D01*
X77058126Y-139833144D01*
X77055712Y-139746956D01*
X77048317Y-139673205D01*
X77042653Y-139643776D01*
X76997018Y-139511133D01*
X76927337Y-139391606D01*
X76833740Y-139285283D01*
X76716351Y-139192253D01*
X76575300Y-139112605D01*
X76410714Y-139046426D01*
X76222720Y-138993806D01*
X76061783Y-138962533D01*
X75990737Y-138954374D01*
X75898954Y-138948815D01*
X75793032Y-138945802D01*
X75679566Y-138945281D01*
X75565151Y-138947200D01*
X75456383Y-138951503D01*
X75359857Y-138958137D01*
X75282169Y-138967049D01*
X75270183Y-138968979D01*
X75077108Y-139011499D01*
X74906227Y-139069433D01*
X74756776Y-139143133D01*
X74627989Y-139232951D01*
X74558361Y-139296707D01*
X74463827Y-139411286D01*
X74393754Y-139536942D01*
X74348523Y-139671557D01*
X74328516Y-139813011D01*
X74334115Y-139959183D01*
X74365700Y-140107955D01*
X74396606Y-140195911D01*
X74458494Y-140317629D01*
X74547271Y-140443080D01*
X74607306Y-140513353D01*
X74642053Y-140552811D01*
X74667546Y-140583812D01*
X74679830Y-140601458D01*
X74680205Y-140603648D01*
X74667653Y-140611524D01*
X74634484Y-140631932D01*
X74583542Y-140663132D01*
X74517669Y-140703386D01*
X74439711Y-140750957D01*
X74352510Y-140804104D01*
X74303933Y-140833687D01*
X73932785Y-141059648D01*
X73793361Y-140777527D01*
X73743281Y-140675522D01*
X73703790Y-140592889D01*
X73672927Y-140524578D01*
X73648732Y-140465537D01*
X73629242Y-140410714D01*
X73612497Y-140355060D01*
X73596535Y-140293523D01*
X73582518Y-140234540D01*
X73571671Y-140182115D01*
X73563474Y-140127288D01*
X73557472Y-140064572D01*
X73553210Y-139988477D01*
X73550233Y-139893516D01*
X73548948Y-139829513D01*
X73548070Y-139738192D01*
X73548513Y-139650627D01*
X73550148Y-139572612D01*
X73552851Y-139509942D01*
X73556495Y-139468413D01*
X73556858Y-139465952D01*
X73603513Y-139250303D01*
X73674271Y-139047793D01*
X73769086Y-138858495D01*
X73887911Y-138682479D01*
X74030700Y-138519816D01*
X74197406Y-138370578D01*
X74345567Y-138262496D01*
X74539498Y-138147434D01*
X74744301Y-138054423D01*
X74961617Y-137983013D01*
X75193088Y-137932756D01*
X75440357Y-137903201D01*
X75691441Y-137893889D01*
X75934330Y-137901548D01*
X76158430Y-137925613D01*
X76367523Y-137966852D01*
X76565387Y-138026027D01*
X76755804Y-138103904D01*
X76775532Y-138113203D01*
X76959941Y-138215648D01*
X77135424Y-138341472D01*
X77298350Y-138487112D01*
X77445086Y-138649001D01*
X77571999Y-138823576D01*
X77665095Y-138986244D01*
X77738009Y-139150573D01*
X77790826Y-139315251D01*
X77824985Y-139486652D01*
X77841922Y-139671153D01*
X77844420Y-139781459D01*
X77839501Y-139939962D01*
G36*
X78526311Y-133544257D02*
G01*
X78526275Y-133808780D01*
X78526270Y-133931912D01*
X78526270Y-135902811D01*
X78410090Y-135902811D01*
X78268709Y-135915211D01*
X78138316Y-135952636D01*
X78018138Y-136015423D01*
X77907398Y-136103906D01*
X77877489Y-136133843D01*
X77792652Y-136241534D01*
X77730779Y-136360275D01*
X77691841Y-136486540D01*
X77675810Y-136616803D01*
X77682658Y-136747535D01*
X77712357Y-136875212D01*
X77764880Y-136996305D01*
X77840197Y-137107288D01*
X77885637Y-137157132D01*
X77997048Y-137250017D01*
X78119565Y-137318127D01*
X78251785Y-137360871D01*
X78392308Y-137377653D01*
X78406133Y-137377876D01*
X78526266Y-137378756D01*
X78526268Y-137431557D01*
X78519911Y-137478396D01*
X78504444Y-137521183D01*
X78502846Y-137524011D01*
X78497832Y-137533675D01*
X78493927Y-137542549D01*
X78489993Y-137550665D01*
X78484894Y-137558057D01*
X78477492Y-137564755D01*
X78466649Y-137570792D01*
X78451228Y-137576199D01*
X78430091Y-137581010D01*
X78402101Y-137585255D01*
X78366121Y-137588968D01*
X78321013Y-137592179D01*
X78265640Y-137594922D01*
X78198863Y-137597228D01*
X78119547Y-137599129D01*
X78026553Y-137600658D01*
X77918743Y-137601846D01*
X77794981Y-137602726D01*
X77654129Y-137603330D01*
X77495050Y-137603689D01*
X77316605Y-137603835D01*
X77117658Y-137603802D01*
X76897071Y-137603620D01*
X76653707Y-137603323D01*
X76386428Y-137602941D01*
X76094097Y-137602508D01*
X75775576Y-137602055D01*
X75736770Y-137602002D01*
X75416218Y-137601596D01*
X75121988Y-137601251D01*
X74852944Y-137600931D01*
X74607948Y-137600600D01*
X74385863Y-137600221D01*
X74185553Y-137599757D01*
X74005881Y-137599172D01*
X73845710Y-137598430D01*
X73703902Y-137597494D01*
X73579321Y-137596327D01*
X73470830Y-137594893D01*
X73377293Y-137593156D01*
X73297571Y-137591078D01*
X73230528Y-137588624D01*
X73175027Y-137585756D01*
X73129932Y-137582439D01*
X73094105Y-137578636D01*
X73066409Y-137574310D01*
X73045707Y-137569425D01*
X73030863Y-137563945D01*
X73020740Y-137557832D01*
X73014200Y-137551050D01*
X73010107Y-137543563D01*
X73007324Y-137535334D01*
X73004713Y-137526327D01*
X73001138Y-137516505D01*
X73000050Y-137514106D01*
X72997604Y-137506565D01*
X72995358Y-137493944D01*
X72993302Y-137475141D01*
X72991428Y-137449053D01*
X72989729Y-137414578D01*
X72988197Y-137370615D01*
X72986823Y-137316061D01*
X72985600Y-137249815D01*
X72984519Y-137170774D01*
X72983573Y-137077837D01*
X72982753Y-136969901D01*
X72982053Y-136845864D01*
X72981462Y-136704624D01*
X72980975Y-136545079D01*
X72980581Y-136366128D01*
X72980275Y-136166668D01*
X72980047Y-135945596D01*
X72979890Y-135701812D01*
X72979795Y-135434213D01*
X72979755Y-135141697D01*
X72979762Y-134823161D01*
X72979772Y-134719979D01*
X72979824Y-134394377D01*
X72979909Y-134095119D01*
X72980037Y-133821091D01*
X72980215Y-133571176D01*
X72980452Y-133344260D01*
X72980758Y-133139227D01*
X72981140Y-132954962D01*
X72981608Y-132790350D01*
X72982170Y-132644275D01*
X72982835Y-132515624D01*
X72983612Y-132403279D01*
X72984509Y-132306126D01*
X72985535Y-132223050D01*
X72986699Y-132152936D01*
X72988009Y-132094668D01*
X72989475Y-132047131D01*
X72991104Y-132009210D01*
X72992907Y-131979790D01*
X72994890Y-131957755D01*
X72997064Y-131941990D01*
X72999437Y-131931380D01*
X73001609Y-131925596D01*
X73005944Y-131915316D01*
X73009141Y-131905878D01*
X73012335Y-131897245D01*
X73016662Y-131889381D01*
X73023256Y-131882252D01*
X73033253Y-131875821D01*
X73047788Y-131870053D01*
X73067997Y-131864911D01*
X73095015Y-131860360D01*
X73129977Y-131856365D01*
X73174019Y-131852889D01*
X73228276Y-131849898D01*
X73293883Y-131847354D01*
X73371976Y-131845223D01*
X73463690Y-131843468D01*
X73570160Y-131842055D01*
X73611027Y-131841685D01*
X73611027Y-132208116D01*
X73611027Y-133503266D01*
X73648783Y-133478345D01*
X73687583Y-133453553D01*
X73724531Y-133432560D01*
X73762212Y-133415065D01*
X73803212Y-133400770D01*
X73850117Y-133389377D01*
X73905513Y-133380587D01*
X73971984Y-133374102D01*
X74052117Y-133369623D01*
X74148498Y-133366850D01*
X74263711Y-133365487D01*
X74400343Y-133365233D01*
X74560980Y-133365791D01*
X74620618Y-133366107D01*
X75259959Y-133369675D01*
X74708551Y-133774702D01*
X74552124Y-133889446D01*
X74415912Y-133988857D01*
X74298110Y-134074010D01*
X74196916Y-134145978D01*
X74110523Y-134205834D01*
X74037126Y-134254652D01*
X73974923Y-134293505D01*
X73922107Y-134323466D01*
X73876875Y-134345609D01*
X73837422Y-134361007D01*
X73801942Y-134370734D01*
X73768632Y-134375863D01*
X73735687Y-134377468D01*
X73701303Y-134376621D01*
X73696981Y-134376405D01*
X73610969Y-134371946D01*
X73611027Y-135791308D01*
X73717478Y-135685735D01*
X73746594Y-135657087D01*
X73774924Y-135629910D01*
X73804032Y-135603011D01*
X73835480Y-135575197D01*
X73870831Y-135545275D01*
X73911646Y-135512054D01*
X73959489Y-135474339D01*
X74015921Y-135430940D01*
X74082506Y-135380662D01*
X74160805Y-135322312D01*
X74252381Y-135254700D01*
X74358796Y-135176631D01*
X74481613Y-135086912D01*
X74622395Y-134984352D01*
X74782703Y-134867758D01*
X74914202Y-134772191D01*
X75079404Y-134652251D01*
X75223848Y-134547620D01*
X75348906Y-134457352D01*
X75455948Y-134380497D01*
X75546346Y-134316109D01*
X75621471Y-134263239D01*
X75682696Y-134220940D01*
X75731390Y-134188264D01*
X75768926Y-134164262D01*
X75796675Y-134147987D01*
X75816008Y-134138492D01*
X75828297Y-134134827D01*
X75834758Y-134135929D01*
X75851952Y-134149276D01*
X75888345Y-134178134D01*
X75941776Y-134220760D01*
X76010081Y-134275415D01*
X76091097Y-134340356D01*
X76182660Y-134413842D01*
X76282608Y-134494132D01*
X76388776Y-134579485D01*
X76499003Y-134668160D01*
X76611124Y-134758414D01*
X76672756Y-134808056D01*
X76672756Y-136040627D01*
X76580081Y-136091854D01*
X76487405Y-136143081D01*
X73796378Y-136143081D01*
X73703702Y-136091854D01*
X73611027Y-136040627D01*
X73611027Y-136646604D01*
X73611069Y-136791266D01*
X73611259Y-136910756D01*
X73611692Y-137007358D01*
X73612464Y-137083358D01*
X73613670Y-137141043D01*
X73615406Y-137182699D01*
X73617768Y-137210611D01*
X73620850Y-137227065D01*
X73624749Y-137234348D01*
X73629560Y-137234745D01*
X73635378Y-137230542D01*
X73635426Y-137230499D01*
X73660468Y-137213187D01*
X73701185Y-137190264D01*
X73741832Y-137170019D01*
X73823838Y-137131621D01*
X76672756Y-137123789D01*
X76672756Y-136040627D01*
X76672756Y-134808056D01*
X76722976Y-134848507D01*
X76832396Y-134936698D01*
X76937222Y-135021246D01*
X77035289Y-135100408D01*
X77124434Y-135172444D01*
X77202495Y-135235613D01*
X77267308Y-135288173D01*
X77316710Y-135328383D01*
X77345513Y-135352000D01*
X77453222Y-135443710D01*
X77550420Y-135531940D01*
X77633924Y-135613597D01*
X77700552Y-135685590D01*
X77741401Y-135736681D01*
X77784865Y-135797093D01*
X77784865Y-134407702D01*
X77703334Y-134408092D01*
X77643394Y-134404209D01*
X77587823Y-134389610D01*
X77535145Y-134367012D01*
X77505385Y-134352322D01*
X77475897Y-134336528D01*
X77444724Y-134318186D01*
X77409907Y-134295855D01*
X77369490Y-134268091D01*
X77321514Y-134233451D01*
X77264022Y-134190493D01*
X77195057Y-134137773D01*
X77112661Y-134073849D01*
X77014876Y-133997279D01*
X76899745Y-133906619D01*
X76765310Y-133800426D01*
X76750141Y-133788432D01*
X76220588Y-133369675D01*
X76807078Y-133365622D01*
X76982749Y-133364805D01*
X77131468Y-133364979D01*
X77253725Y-133366151D01*
X77350011Y-133368331D01*
X77420817Y-133371526D01*
X77466631Y-133375744D01*
X77475321Y-133377162D01*
X77566865Y-133399409D01*
X77649392Y-133428557D01*
X77715747Y-133461818D01*
X77743890Y-133481800D01*
X77784865Y-133516278D01*
X77784865Y-132862086D01*
X77784731Y-132706031D01*
X77784297Y-132575533D01*
X77783511Y-132468690D01*
X77782324Y-132383602D01*
X77780683Y-132318365D01*
X77778539Y-132271079D01*
X77775841Y-132239843D01*
X77772538Y-132222754D01*
X77768579Y-132217912D01*
X77767702Y-132218247D01*
X77746769Y-132232115D01*
X77713588Y-132255268D01*
X77696807Y-132267246D01*
X77680060Y-132279631D01*
X77665085Y-132290763D01*
X77650406Y-132300712D01*
X77634551Y-132309549D01*
X77616045Y-132317343D01*
X77593415Y-132324165D01*
X77565187Y-132330084D01*
X77529887Y-132335171D01*
X77486042Y-132339496D01*
X77432178Y-132343129D01*
X77366820Y-132346140D01*
X77288496Y-132348599D01*
X77195732Y-132350577D01*
X77087053Y-132352142D01*
X76960987Y-132353366D01*
X76816058Y-132354319D01*
X76650794Y-132355070D01*
X76463721Y-132355689D01*
X76253365Y-132356248D01*
X76018252Y-132356815D01*
X75802259Y-132357345D01*
X75561465Y-132357845D01*
X75331726Y-132358105D01*
X75114507Y-132358132D01*
X74911278Y-132357933D01*
X74723504Y-132357514D01*
X74552655Y-132356882D01*
X74400197Y-132356044D01*
X74267597Y-132355008D01*
X74156324Y-132353780D01*
X74067844Y-132352367D01*
X74003625Y-132350775D01*
X73965135Y-132349013D01*
X73961067Y-132348679D01*
X73867752Y-132336534D01*
X73792810Y-132317573D01*
X73727406Y-132288698D01*
X73662707Y-132246810D01*
X73655648Y-132241571D01*
X73611027Y-132208116D01*
X73611027Y-131841685D01*
X73692521Y-131840946D01*
X73831910Y-131840107D01*
X73989461Y-131839502D01*
X74166309Y-131839095D01*
X74363590Y-131838850D01*
X74582440Y-131838733D01*
X74823993Y-131838705D01*
X75089385Y-131838733D01*
X75379751Y-131838780D01*
X75696227Y-131838810D01*
X75759054Y-131838811D01*
X76078863Y-131838828D01*
X76372339Y-131838888D01*
X76640610Y-131838998D01*
X76884802Y-131839167D01*
X77106043Y-131839403D01*
X77305460Y-131839716D01*
X77484180Y-131840115D01*
X77643329Y-131840607D01*
X77784034Y-131841203D01*
X77907424Y-131841910D01*
X78014624Y-131842737D01*
X78106762Y-131843693D01*
X78184965Y-131844787D01*
X78250359Y-131846027D01*
X78304072Y-131847422D01*
X78347231Y-131848982D01*
X78380963Y-131850714D01*
X78406395Y-131852628D01*
X78424653Y-131854732D01*
X78436866Y-131857034D01*
X78444159Y-131859545D01*
X78444341Y-131859637D01*
X78455482Y-131864808D01*
X78465569Y-131869115D01*
X78474654Y-131873879D01*
X78482788Y-131880422D01*
X78490024Y-131890065D01*
X78496414Y-131904129D01*
X78502011Y-131923937D01*
X78506867Y-131950809D01*
X78511034Y-131986067D01*
X78514564Y-132031032D01*
X78517509Y-132087026D01*
X78519923Y-132155371D01*
X78521856Y-132237386D01*
X78523362Y-132334395D01*
X78524492Y-132447718D01*
X78525298Y-132578677D01*
X78525834Y-132728593D01*
X78526151Y-132898787D01*
X78526301Y-133090582D01*
X78526337Y-133305298D01*
X78526311Y-133544257D01*
X78526311Y-133544257D01*
G37*
X78526311Y-133544257D02*
X78526275Y-133808780D01*
X78526270Y-133931912D01*
X78526270Y-135902811D01*
X78410090Y-135902811D01*
X78268709Y-135915211D01*
X78138316Y-135952636D01*
X78018138Y-136015423D01*
X77907398Y-136103906D01*
X77877489Y-136133843D01*
X77792652Y-136241534D01*
X77730779Y-136360275D01*
X77691841Y-136486540D01*
X77675810Y-136616803D01*
X77682658Y-136747535D01*
X77712357Y-136875212D01*
X77764880Y-136996305D01*
X77840197Y-137107288D01*
X77885637Y-137157132D01*
X77997048Y-137250017D01*
X78119565Y-137318127D01*
X78251785Y-137360871D01*
X78392308Y-137377653D01*
X78406133Y-137377876D01*
X78526266Y-137378756D01*
X78526268Y-137431557D01*
X78519911Y-137478396D01*
X78504444Y-137521183D01*
X78502846Y-137524011D01*
X78497832Y-137533675D01*
X78493927Y-137542549D01*
X78489993Y-137550665D01*
X78484894Y-137558057D01*
X78477492Y-137564755D01*
X78466649Y-137570792D01*
X78451228Y-137576199D01*
X78430091Y-137581010D01*
X78402101Y-137585255D01*
X78366121Y-137588968D01*
X78321013Y-137592179D01*
X78265640Y-137594922D01*
X78198863Y-137597228D01*
X78119547Y-137599129D01*
X78026553Y-137600658D01*
X77918743Y-137601846D01*
X77794981Y-137602726D01*
X77654129Y-137603330D01*
X77495050Y-137603689D01*
X77316605Y-137603835D01*
X77117658Y-137603802D01*
X76897071Y-137603620D01*
X76653707Y-137603323D01*
X76386428Y-137602941D01*
X76094097Y-137602508D01*
X75775576Y-137602055D01*
X75736770Y-137602002D01*
X75416218Y-137601596D01*
X75121988Y-137601251D01*
X74852944Y-137600931D01*
X74607948Y-137600600D01*
X74385863Y-137600221D01*
X74185553Y-137599757D01*
X74005881Y-137599172D01*
X73845710Y-137598430D01*
X73703902Y-137597494D01*
X73579321Y-137596327D01*
X73470830Y-137594893D01*
X73377293Y-137593156D01*
X73297571Y-137591078D01*
X73230528Y-137588624D01*
X73175027Y-137585756D01*
X73129932Y-137582439D01*
X73094105Y-137578636D01*
X73066409Y-137574310D01*
X73045707Y-137569425D01*
X73030863Y-137563945D01*
X73020740Y-137557832D01*
X73014200Y-137551050D01*
X73010107Y-137543563D01*
X73007324Y-137535334D01*
X73004713Y-137526327D01*
X73001138Y-137516505D01*
X73000050Y-137514106D01*
X72997604Y-137506565D01*
X72995358Y-137493944D01*
X72993302Y-137475141D01*
X72991428Y-137449053D01*
X72989729Y-137414578D01*
X72988197Y-137370615D01*
X72986823Y-137316061D01*
X72985600Y-137249815D01*
X72984519Y-137170774D01*
X72983573Y-137077837D01*
X72982753Y-136969901D01*
X72982053Y-136845864D01*
X72981462Y-136704624D01*
X72980975Y-136545079D01*
X72980581Y-136366128D01*
X72980275Y-136166668D01*
X72980047Y-135945596D01*
X72979890Y-135701812D01*
X72979795Y-135434213D01*
X72979755Y-135141697D01*
X72979762Y-134823161D01*
X72979772Y-134719979D01*
X72979824Y-134394377D01*
X72979909Y-134095119D01*
X72980037Y-133821091D01*
X72980215Y-133571176D01*
X72980452Y-133344260D01*
X72980758Y-133139227D01*
X72981140Y-132954962D01*
X72981608Y-132790350D01*
X72982170Y-132644275D01*
X72982835Y-132515624D01*
X72983612Y-132403279D01*
X72984509Y-132306126D01*
X72985535Y-132223050D01*
X72986699Y-132152936D01*
X72988009Y-132094668D01*
X72989475Y-132047131D01*
X72991104Y-132009210D01*
X72992907Y-131979790D01*
X72994890Y-131957755D01*
X72997064Y-131941990D01*
X72999437Y-131931380D01*
X73001609Y-131925596D01*
X73005944Y-131915316D01*
X73009141Y-131905878D01*
X73012335Y-131897245D01*
X73016662Y-131889381D01*
X73023256Y-131882252D01*
X73033253Y-131875821D01*
X73047788Y-131870053D01*
X73067997Y-131864911D01*
X73095015Y-131860360D01*
X73129977Y-131856365D01*
X73174019Y-131852889D01*
X73228276Y-131849898D01*
X73293883Y-131847354D01*
X73371976Y-131845223D01*
X73463690Y-131843468D01*
X73570160Y-131842055D01*
X73611027Y-131841685D01*
X73611027Y-132208116D01*
X73611027Y-133503266D01*
X73648783Y-133478345D01*
X73687583Y-133453553D01*
X73724531Y-133432560D01*
X73762212Y-133415065D01*
X73803212Y-133400770D01*
X73850117Y-133389377D01*
X73905513Y-133380587D01*
X73971984Y-133374102D01*
X74052117Y-133369623D01*
X74148498Y-133366850D01*
X74263711Y-133365487D01*
X74400343Y-133365233D01*
X74560980Y-133365791D01*
X74620618Y-133366107D01*
X75259959Y-133369675D01*
X74708551Y-133774702D01*
X74552124Y-133889446D01*
X74415912Y-133988857D01*
X74298110Y-134074010D01*
X74196916Y-134145978D01*
X74110523Y-134205834D01*
X74037126Y-134254652D01*
X73974923Y-134293505D01*
X73922107Y-134323466D01*
X73876875Y-134345609D01*
X73837422Y-134361007D01*
X73801942Y-134370734D01*
X73768632Y-134375863D01*
X73735687Y-134377468D01*
X73701303Y-134376621D01*
X73696981Y-134376405D01*
X73610969Y-134371946D01*
X73611027Y-135791308D01*
X73717478Y-135685735D01*
X73746594Y-135657087D01*
X73774924Y-135629910D01*
X73804032Y-135603011D01*
X73835480Y-135575197D01*
X73870831Y-135545275D01*
X73911646Y-135512054D01*
X73959489Y-135474339D01*
X74015921Y-135430940D01*
X74082506Y-135380662D01*
X74160805Y-135322312D01*
X74252381Y-135254700D01*
X74358796Y-135176631D01*
X74481613Y-135086912D01*
X74622395Y-134984352D01*
X74782703Y-134867758D01*
X74914202Y-134772191D01*
X75079404Y-134652251D01*
X75223848Y-134547620D01*
X75348906Y-134457352D01*
X75455948Y-134380497D01*
X75546346Y-134316109D01*
X75621471Y-134263239D01*
X75682696Y-134220940D01*
X75731390Y-134188264D01*
X75768926Y-134164262D01*
X75796675Y-134147987D01*
X75816008Y-134138492D01*
X75828297Y-134134827D01*
X75834758Y-134135929D01*
X75851952Y-134149276D01*
X75888345Y-134178134D01*
X75941776Y-134220760D01*
X76010081Y-134275415D01*
X76091097Y-134340356D01*
X76182660Y-134413842D01*
X76282608Y-134494132D01*
X76388776Y-134579485D01*
X76499003Y-134668160D01*
X76611124Y-134758414D01*
X76672756Y-134808056D01*
X76672756Y-136040627D01*
X76580081Y-136091854D01*
X76487405Y-136143081D01*
X73796378Y-136143081D01*
X73703702Y-136091854D01*
X73611027Y-136040627D01*
X73611027Y-136646604D01*
X73611069Y-136791266D01*
X73611259Y-136910756D01*
X73611692Y-137007358D01*
X73612464Y-137083358D01*
X73613670Y-137141043D01*
X73615406Y-137182699D01*
X73617768Y-137210611D01*
X73620850Y-137227065D01*
X73624749Y-137234348D01*
X73629560Y-137234745D01*
X73635378Y-137230542D01*
X73635426Y-137230499D01*
X73660468Y-137213187D01*
X73701185Y-137190264D01*
X73741832Y-137170019D01*
X73823838Y-137131621D01*
X76672756Y-137123789D01*
X76672756Y-136040627D01*
X76672756Y-134808056D01*
X76722976Y-134848507D01*
X76832396Y-134936698D01*
X76937222Y-135021246D01*
X77035289Y-135100408D01*
X77124434Y-135172444D01*
X77202495Y-135235613D01*
X77267308Y-135288173D01*
X77316710Y-135328383D01*
X77345513Y-135352000D01*
X77453222Y-135443710D01*
X77550420Y-135531940D01*
X77633924Y-135613597D01*
X77700552Y-135685590D01*
X77741401Y-135736681D01*
X77784865Y-135797093D01*
X77784865Y-134407702D01*
X77703334Y-134408092D01*
X77643394Y-134404209D01*
X77587823Y-134389610D01*
X77535145Y-134367012D01*
X77505385Y-134352322D01*
X77475897Y-134336528D01*
X77444724Y-134318186D01*
X77409907Y-134295855D01*
X77369490Y-134268091D01*
X77321514Y-134233451D01*
X77264022Y-134190493D01*
X77195057Y-134137773D01*
X77112661Y-134073849D01*
X77014876Y-133997279D01*
X76899745Y-133906619D01*
X76765310Y-133800426D01*
X76750141Y-133788432D01*
X76220588Y-133369675D01*
X76807078Y-133365622D01*
X76982749Y-133364805D01*
X77131468Y-133364979D01*
X77253725Y-133366151D01*
X77350011Y-133368331D01*
X77420817Y-133371526D01*
X77466631Y-133375744D01*
X77475321Y-133377162D01*
X77566865Y-133399409D01*
X77649392Y-133428557D01*
X77715747Y-133461818D01*
X77743890Y-133481800D01*
X77784865Y-133516278D01*
X77784865Y-132862086D01*
X77784731Y-132706031D01*
X77784297Y-132575533D01*
X77783511Y-132468690D01*
X77782324Y-132383602D01*
X77780683Y-132318365D01*
X77778539Y-132271079D01*
X77775841Y-132239843D01*
X77772538Y-132222754D01*
X77768579Y-132217912D01*
X77767702Y-132218247D01*
X77746769Y-132232115D01*
X77713588Y-132255268D01*
X77696807Y-132267246D01*
X77680060Y-132279631D01*
X77665085Y-132290763D01*
X77650406Y-132300712D01*
X77634551Y-132309549D01*
X77616045Y-132317343D01*
X77593415Y-132324165D01*
X77565187Y-132330084D01*
X77529887Y-132335171D01*
X77486042Y-132339496D01*
X77432178Y-132343129D01*
X77366820Y-132346140D01*
X77288496Y-132348599D01*
X77195732Y-132350577D01*
X77087053Y-132352142D01*
X76960987Y-132353366D01*
X76816058Y-132354319D01*
X76650794Y-132355070D01*
X76463721Y-132355689D01*
X76253365Y-132356248D01*
X76018252Y-132356815D01*
X75802259Y-132357345D01*
X75561465Y-132357845D01*
X75331726Y-132358105D01*
X75114507Y-132358132D01*
X74911278Y-132357933D01*
X74723504Y-132357514D01*
X74552655Y-132356882D01*
X74400197Y-132356044D01*
X74267597Y-132355008D01*
X74156324Y-132353780D01*
X74067844Y-132352367D01*
X74003625Y-132350775D01*
X73965135Y-132349013D01*
X73961067Y-132348679D01*
X73867752Y-132336534D01*
X73792810Y-132317573D01*
X73727406Y-132288698D01*
X73662707Y-132246810D01*
X73655648Y-132241571D01*
X73611027Y-132208116D01*
X73611027Y-131841685D01*
X73692521Y-131840946D01*
X73831910Y-131840107D01*
X73989461Y-131839502D01*
X74166309Y-131839095D01*
X74363590Y-131838850D01*
X74582440Y-131838733D01*
X74823993Y-131838705D01*
X75089385Y-131838733D01*
X75379751Y-131838780D01*
X75696227Y-131838810D01*
X75759054Y-131838811D01*
X76078863Y-131838828D01*
X76372339Y-131838888D01*
X76640610Y-131838998D01*
X76884802Y-131839167D01*
X77106043Y-131839403D01*
X77305460Y-131839716D01*
X77484180Y-131840115D01*
X77643329Y-131840607D01*
X77784034Y-131841203D01*
X77907424Y-131841910D01*
X78014624Y-131842737D01*
X78106762Y-131843693D01*
X78184965Y-131844787D01*
X78250359Y-131846027D01*
X78304072Y-131847422D01*
X78347231Y-131848982D01*
X78380963Y-131850714D01*
X78406395Y-131852628D01*
X78424653Y-131854732D01*
X78436866Y-131857034D01*
X78444159Y-131859545D01*
X78444341Y-131859637D01*
X78455482Y-131864808D01*
X78465569Y-131869115D01*
X78474654Y-131873879D01*
X78482788Y-131880422D01*
X78490024Y-131890065D01*
X78496414Y-131904129D01*
X78502011Y-131923937D01*
X78506867Y-131950809D01*
X78511034Y-131986067D01*
X78514564Y-132031032D01*
X78517509Y-132087026D01*
X78519923Y-132155371D01*
X78521856Y-132237386D01*
X78523362Y-132334395D01*
X78524492Y-132447718D01*
X78525298Y-132578677D01*
X78525834Y-132728593D01*
X78526151Y-132898787D01*
X78526301Y-133090582D01*
X78526337Y-133305298D01*
X78526311Y-133544257D01*
D13*
X150015000Y-163985000D02*
X150015000Y-150015000D01*
X163985000Y-163985000D02*
X150015000Y-163985000D01*
X163985000Y-150015000D02*
X163985000Y-163985000D01*
X150015000Y-150015000D02*
X163985000Y-150015000D01*
X131015000Y-163985000D02*
X131015000Y-150015000D01*
X144985000Y-163985000D02*
X131015000Y-163985000D01*
X144985000Y-150015000D02*
X144985000Y-163985000D01*
X131015000Y-150015000D02*
X144985000Y-150015000D01*
X112015000Y-163985000D02*
X112015000Y-150015000D01*
X125985000Y-163985000D02*
X112015000Y-163985000D01*
X125985000Y-150015000D02*
X125985000Y-163985000D01*
X112015000Y-150015000D02*
X125985000Y-150015000D01*
X93015000Y-163985000D02*
X93015000Y-150015000D01*
X106985000Y-163985000D02*
X93015000Y-163985000D01*
X106985000Y-150015000D02*
X106985000Y-163985000D01*
X93015000Y-150015000D02*
X106985000Y-150015000D01*
X150015000Y-144985000D02*
X150015000Y-131015000D01*
X163985000Y-144985000D02*
X150015000Y-144985000D01*
X163985000Y-131015000D02*
X163985000Y-144985000D01*
X150015000Y-131015000D02*
X163985000Y-131015000D01*
X131015000Y-144985000D02*
X131015000Y-131015000D01*
X144985000Y-144985000D02*
X131015000Y-144985000D01*
X144985000Y-131015000D02*
X144985000Y-144985000D01*
X131015000Y-131015000D02*
X144985000Y-131015000D01*
X112015000Y-144985000D02*
X112015000Y-131015000D01*
X125985000Y-144985000D02*
X112015000Y-144985000D01*
X125985000Y-131015000D02*
X125985000Y-144985000D01*
X112015000Y-131015000D02*
X125985000Y-131015000D01*
X93015000Y-144985000D02*
X93015000Y-131015000D01*
X106985000Y-144985000D02*
X93015000Y-144985000D01*
X106985000Y-131015000D02*
X106985000Y-144985000D01*
X93015000Y-131015000D02*
X106985000Y-131015000D01*
X150015000Y-125985000D02*
X150015000Y-112015000D01*
X163985000Y-125985000D02*
X150015000Y-125985000D01*
X163985000Y-112015000D02*
X163985000Y-125985000D01*
X150015000Y-112015000D02*
X163985000Y-112015000D01*
X131015000Y-125985000D02*
X131015000Y-112015000D01*
X144985000Y-125985000D02*
X131015000Y-125985000D01*
X144985000Y-112015000D02*
X144985000Y-125985000D01*
X131015000Y-112015000D02*
X144985000Y-112015000D01*
X112015000Y-125985000D02*
X112015000Y-112015000D01*
X125985000Y-125985000D02*
X112015000Y-125985000D01*
X125985000Y-112015000D02*
X125985000Y-125985000D01*
X112015000Y-112015000D02*
X125985000Y-112015000D01*
X93015000Y-125985000D02*
X93015000Y-112015000D01*
X106985000Y-125985000D02*
X93015000Y-125985000D01*
X106985000Y-112015000D02*
X106985000Y-125985000D01*
X93015000Y-112015000D02*
X106985000Y-112015000D01*
X150015000Y-106985000D02*
X150015000Y-93015000D01*
X163985000Y-106985000D02*
X150015000Y-106985000D01*
X163985000Y-93015000D02*
X163985000Y-106985000D01*
X150015000Y-93015000D02*
X163985000Y-93015000D01*
X131015000Y-106985000D02*
X131015000Y-93015000D01*
X144985000Y-106985000D02*
X131015000Y-106985000D01*
X144985000Y-93015000D02*
X144985000Y-106985000D01*
X131015000Y-93015000D02*
X144985000Y-93015000D01*
X112015000Y-106985000D02*
X112015000Y-93015000D01*
X125985000Y-106985000D02*
X112015000Y-106985000D01*
X125985000Y-93015000D02*
X125985000Y-106985000D01*
X112015000Y-93015000D02*
X125985000Y-93015000D01*
X93015000Y-106985000D02*
X93015000Y-93015000D01*
X106985000Y-106985000D02*
X93015000Y-106985000D01*
X106985000Y-93015000D02*
X106985000Y-106985000D01*
X93015000Y-93015000D02*
X106985000Y-93015000D01*
X90330000Y-113344000D02*
X89000000Y-113344000D01*
X90330000Y-112014000D02*
X90330000Y-113344000D01*
X90330000Y-110744000D02*
X87670000Y-110744000D01*
X87670000Y-110744000D02*
X87670000Y-95444000D01*
X90330000Y-110744000D02*
X90330000Y-95444000D01*
X90330000Y-95444000D02*
X87670000Y-95444000D01*
D11*
X155190476Y-149530761D02*
X155333333Y-149578380D01*
X155571428Y-149578380D01*
X155666666Y-149530761D01*
X155714285Y-149483142D01*
X155761904Y-149387904D01*
X155761904Y-149292666D01*
X155714285Y-149197428D01*
X155666666Y-149149809D01*
X155571428Y-149102190D01*
X155380952Y-149054571D01*
X155285714Y-149006952D01*
X155238095Y-148959333D01*
X155190476Y-148864095D01*
X155190476Y-148768857D01*
X155238095Y-148673619D01*
X155285714Y-148626000D01*
X155380952Y-148578380D01*
X155619047Y-148578380D01*
X155761904Y-148626000D01*
X156095238Y-148578380D02*
X156333333Y-149578380D01*
X156523809Y-148864095D01*
X156714285Y-149578380D01*
X156952380Y-148578380D01*
X157857142Y-149578380D02*
X157285714Y-149578380D01*
X157571428Y-149578380D02*
X157571428Y-148578380D01*
X157476190Y-148721238D01*
X157380952Y-148816476D01*
X157285714Y-148864095D01*
X158714285Y-148578380D02*
X158523809Y-148578380D01*
X158428571Y-148626000D01*
X158380952Y-148673619D01*
X158285714Y-148816476D01*
X158238095Y-149006952D01*
X158238095Y-149387904D01*
X158285714Y-149483142D01*
X158333333Y-149530761D01*
X158428571Y-149578380D01*
X158619047Y-149578380D01*
X158714285Y-149530761D01*
X158761904Y-149483142D01*
X158809523Y-149387904D01*
X158809523Y-149149809D01*
X158761904Y-149054571D01*
X158714285Y-149006952D01*
X158619047Y-148959333D01*
X158428571Y-148959333D01*
X158333333Y-149006952D01*
X158285714Y-149054571D01*
X158238095Y-149149809D01*
X136190476Y-149530761D02*
X136333333Y-149578380D01*
X136571428Y-149578380D01*
X136666666Y-149530761D01*
X136714285Y-149483142D01*
X136761904Y-149387904D01*
X136761904Y-149292666D01*
X136714285Y-149197428D01*
X136666666Y-149149809D01*
X136571428Y-149102190D01*
X136380952Y-149054571D01*
X136285714Y-149006952D01*
X136238095Y-148959333D01*
X136190476Y-148864095D01*
X136190476Y-148768857D01*
X136238095Y-148673619D01*
X136285714Y-148626000D01*
X136380952Y-148578380D01*
X136619047Y-148578380D01*
X136761904Y-148626000D01*
X137095238Y-148578380D02*
X137333333Y-149578380D01*
X137523809Y-148864095D01*
X137714285Y-149578380D01*
X137952380Y-148578380D01*
X138857142Y-149578380D02*
X138285714Y-149578380D01*
X138571428Y-149578380D02*
X138571428Y-148578380D01*
X138476190Y-148721238D01*
X138380952Y-148816476D01*
X138285714Y-148864095D01*
X139761904Y-148578380D02*
X139285714Y-148578380D01*
X139238095Y-149054571D01*
X139285714Y-149006952D01*
X139380952Y-148959333D01*
X139619047Y-148959333D01*
X139714285Y-149006952D01*
X139761904Y-149054571D01*
X139809523Y-149149809D01*
X139809523Y-149387904D01*
X139761904Y-149483142D01*
X139714285Y-149530761D01*
X139619047Y-149578380D01*
X139380952Y-149578380D01*
X139285714Y-149530761D01*
X139238095Y-149483142D01*
X117190476Y-149530761D02*
X117333333Y-149578380D01*
X117571428Y-149578380D01*
X117666666Y-149530761D01*
X117714285Y-149483142D01*
X117761904Y-149387904D01*
X117761904Y-149292666D01*
X117714285Y-149197428D01*
X117666666Y-149149809D01*
X117571428Y-149102190D01*
X117380952Y-149054571D01*
X117285714Y-149006952D01*
X117238095Y-148959333D01*
X117190476Y-148864095D01*
X117190476Y-148768857D01*
X117238095Y-148673619D01*
X117285714Y-148626000D01*
X117380952Y-148578380D01*
X117619047Y-148578380D01*
X117761904Y-148626000D01*
X118095238Y-148578380D02*
X118333333Y-149578380D01*
X118523809Y-148864095D01*
X118714285Y-149578380D01*
X118952380Y-148578380D01*
X119857142Y-149578380D02*
X119285714Y-149578380D01*
X119571428Y-149578380D02*
X119571428Y-148578380D01*
X119476190Y-148721238D01*
X119380952Y-148816476D01*
X119285714Y-148864095D01*
X120714285Y-148911714D02*
X120714285Y-149578380D01*
X120476190Y-148530761D02*
X120238095Y-149245047D01*
X120857142Y-149245047D01*
X98190476Y-149530761D02*
X98333333Y-149578380D01*
X98571428Y-149578380D01*
X98666666Y-149530761D01*
X98714285Y-149483142D01*
X98761904Y-149387904D01*
X98761904Y-149292666D01*
X98714285Y-149197428D01*
X98666666Y-149149809D01*
X98571428Y-149102190D01*
X98380952Y-149054571D01*
X98285714Y-149006952D01*
X98238095Y-148959333D01*
X98190476Y-148864095D01*
X98190476Y-148768857D01*
X98238095Y-148673619D01*
X98285714Y-148626000D01*
X98380952Y-148578380D01*
X98619047Y-148578380D01*
X98761904Y-148626000D01*
X99095238Y-148578380D02*
X99333333Y-149578380D01*
X99523809Y-148864095D01*
X99714285Y-149578380D01*
X99952380Y-148578380D01*
X100857142Y-149578380D02*
X100285714Y-149578380D01*
X100571428Y-149578380D02*
X100571428Y-148578380D01*
X100476190Y-148721238D01*
X100380952Y-148816476D01*
X100285714Y-148864095D01*
X101190476Y-148578380D02*
X101809523Y-148578380D01*
X101476190Y-148959333D01*
X101619047Y-148959333D01*
X101714285Y-149006952D01*
X101761904Y-149054571D01*
X101809523Y-149149809D01*
X101809523Y-149387904D01*
X101761904Y-149483142D01*
X101714285Y-149530761D01*
X101619047Y-149578380D01*
X101333333Y-149578380D01*
X101238095Y-149530761D01*
X101190476Y-149483142D01*
X155190476Y-130530761D02*
X155333333Y-130578380D01*
X155571428Y-130578380D01*
X155666666Y-130530761D01*
X155714285Y-130483142D01*
X155761904Y-130387904D01*
X155761904Y-130292666D01*
X155714285Y-130197428D01*
X155666666Y-130149809D01*
X155571428Y-130102190D01*
X155380952Y-130054571D01*
X155285714Y-130006952D01*
X155238095Y-129959333D01*
X155190476Y-129864095D01*
X155190476Y-129768857D01*
X155238095Y-129673619D01*
X155285714Y-129626000D01*
X155380952Y-129578380D01*
X155619047Y-129578380D01*
X155761904Y-129626000D01*
X156095238Y-129578380D02*
X156333333Y-130578380D01*
X156523809Y-129864095D01*
X156714285Y-130578380D01*
X156952380Y-129578380D01*
X157857142Y-130578380D02*
X157285714Y-130578380D01*
X157571428Y-130578380D02*
X157571428Y-129578380D01*
X157476190Y-129721238D01*
X157380952Y-129816476D01*
X157285714Y-129864095D01*
X158238095Y-129673619D02*
X158285714Y-129626000D01*
X158380952Y-129578380D01*
X158619047Y-129578380D01*
X158714285Y-129626000D01*
X158761904Y-129673619D01*
X158809523Y-129768857D01*
X158809523Y-129864095D01*
X158761904Y-130006952D01*
X158190476Y-130578380D01*
X158809523Y-130578380D01*
X136190476Y-130530761D02*
X136333333Y-130578380D01*
X136571428Y-130578380D01*
X136666666Y-130530761D01*
X136714285Y-130483142D01*
X136761904Y-130387904D01*
X136761904Y-130292666D01*
X136714285Y-130197428D01*
X136666666Y-130149809D01*
X136571428Y-130102190D01*
X136380952Y-130054571D01*
X136285714Y-130006952D01*
X136238095Y-129959333D01*
X136190476Y-129864095D01*
X136190476Y-129768857D01*
X136238095Y-129673619D01*
X136285714Y-129626000D01*
X136380952Y-129578380D01*
X136619047Y-129578380D01*
X136761904Y-129626000D01*
X137095238Y-129578380D02*
X137333333Y-130578380D01*
X137523809Y-129864095D01*
X137714285Y-130578380D01*
X137952380Y-129578380D01*
X138857142Y-130578380D02*
X138285714Y-130578380D01*
X138571428Y-130578380D02*
X138571428Y-129578380D01*
X138476190Y-129721238D01*
X138380952Y-129816476D01*
X138285714Y-129864095D01*
X139809523Y-130578380D02*
X139238095Y-130578380D01*
X139523809Y-130578380D02*
X139523809Y-129578380D01*
X139428571Y-129721238D01*
X139333333Y-129816476D01*
X139238095Y-129864095D01*
X117190476Y-130530761D02*
X117333333Y-130578380D01*
X117571428Y-130578380D01*
X117666666Y-130530761D01*
X117714285Y-130483142D01*
X117761904Y-130387904D01*
X117761904Y-130292666D01*
X117714285Y-130197428D01*
X117666666Y-130149809D01*
X117571428Y-130102190D01*
X117380952Y-130054571D01*
X117285714Y-130006952D01*
X117238095Y-129959333D01*
X117190476Y-129864095D01*
X117190476Y-129768857D01*
X117238095Y-129673619D01*
X117285714Y-129626000D01*
X117380952Y-129578380D01*
X117619047Y-129578380D01*
X117761904Y-129626000D01*
X118095238Y-129578380D02*
X118333333Y-130578380D01*
X118523809Y-129864095D01*
X118714285Y-130578380D01*
X118952380Y-129578380D01*
X119857142Y-130578380D02*
X119285714Y-130578380D01*
X119571428Y-130578380D02*
X119571428Y-129578380D01*
X119476190Y-129721238D01*
X119380952Y-129816476D01*
X119285714Y-129864095D01*
X120476190Y-129578380D02*
X120571428Y-129578380D01*
X120666666Y-129626000D01*
X120714285Y-129673619D01*
X120761904Y-129768857D01*
X120809523Y-129959333D01*
X120809523Y-130197428D01*
X120761904Y-130387904D01*
X120714285Y-130483142D01*
X120666666Y-130530761D01*
X120571428Y-130578380D01*
X120476190Y-130578380D01*
X120380952Y-130530761D01*
X120333333Y-130483142D01*
X120285714Y-130387904D01*
X120238095Y-130197428D01*
X120238095Y-129959333D01*
X120285714Y-129768857D01*
X120333333Y-129673619D01*
X120380952Y-129626000D01*
X120476190Y-129578380D01*
X98666666Y-130530761D02*
X98809523Y-130578380D01*
X99047619Y-130578380D01*
X99142857Y-130530761D01*
X99190476Y-130483142D01*
X99238095Y-130387904D01*
X99238095Y-130292666D01*
X99190476Y-130197428D01*
X99142857Y-130149809D01*
X99047619Y-130102190D01*
X98857142Y-130054571D01*
X98761904Y-130006952D01*
X98714285Y-129959333D01*
X98666666Y-129864095D01*
X98666666Y-129768857D01*
X98714285Y-129673619D01*
X98761904Y-129626000D01*
X98857142Y-129578380D01*
X99095238Y-129578380D01*
X99238095Y-129626000D01*
X99571428Y-129578380D02*
X99809523Y-130578380D01*
X100000000Y-129864095D01*
X100190476Y-130578380D01*
X100428571Y-129578380D01*
X100857142Y-130578380D02*
X101047619Y-130578380D01*
X101142857Y-130530761D01*
X101190476Y-130483142D01*
X101285714Y-130340285D01*
X101333333Y-130149809D01*
X101333333Y-129768857D01*
X101285714Y-129673619D01*
X101238095Y-129626000D01*
X101142857Y-129578380D01*
X100952380Y-129578380D01*
X100857142Y-129626000D01*
X100809523Y-129673619D01*
X100761904Y-129768857D01*
X100761904Y-130006952D01*
X100809523Y-130102190D01*
X100857142Y-130149809D01*
X100952380Y-130197428D01*
X101142857Y-130197428D01*
X101238095Y-130149809D01*
X101285714Y-130102190D01*
X101333333Y-130006952D01*
X155666666Y-111530761D02*
X155809523Y-111578380D01*
X156047619Y-111578380D01*
X156142857Y-111530761D01*
X156190476Y-111483142D01*
X156238095Y-111387904D01*
X156238095Y-111292666D01*
X156190476Y-111197428D01*
X156142857Y-111149809D01*
X156047619Y-111102190D01*
X155857142Y-111054571D01*
X155761904Y-111006952D01*
X155714285Y-110959333D01*
X155666666Y-110864095D01*
X155666666Y-110768857D01*
X155714285Y-110673619D01*
X155761904Y-110626000D01*
X155857142Y-110578380D01*
X156095238Y-110578380D01*
X156238095Y-110626000D01*
X156571428Y-110578380D02*
X156809523Y-111578380D01*
X157000000Y-110864095D01*
X157190476Y-111578380D01*
X157428571Y-110578380D01*
X157952380Y-111006952D02*
X157857142Y-110959333D01*
X157809523Y-110911714D01*
X157761904Y-110816476D01*
X157761904Y-110768857D01*
X157809523Y-110673619D01*
X157857142Y-110626000D01*
X157952380Y-110578380D01*
X158142857Y-110578380D01*
X158238095Y-110626000D01*
X158285714Y-110673619D01*
X158333333Y-110768857D01*
X158333333Y-110816476D01*
X158285714Y-110911714D01*
X158238095Y-110959333D01*
X158142857Y-111006952D01*
X157952380Y-111006952D01*
X157857142Y-111054571D01*
X157809523Y-111102190D01*
X157761904Y-111197428D01*
X157761904Y-111387904D01*
X157809523Y-111483142D01*
X157857142Y-111530761D01*
X157952380Y-111578380D01*
X158142857Y-111578380D01*
X158238095Y-111530761D01*
X158285714Y-111483142D01*
X158333333Y-111387904D01*
X158333333Y-111197428D01*
X158285714Y-111102190D01*
X158238095Y-111054571D01*
X158142857Y-111006952D01*
X136666666Y-111530761D02*
X136809523Y-111578380D01*
X137047619Y-111578380D01*
X137142857Y-111530761D01*
X137190476Y-111483142D01*
X137238095Y-111387904D01*
X137238095Y-111292666D01*
X137190476Y-111197428D01*
X137142857Y-111149809D01*
X137047619Y-111102190D01*
X136857142Y-111054571D01*
X136761904Y-111006952D01*
X136714285Y-110959333D01*
X136666666Y-110864095D01*
X136666666Y-110768857D01*
X136714285Y-110673619D01*
X136761904Y-110626000D01*
X136857142Y-110578380D01*
X137095238Y-110578380D01*
X137238095Y-110626000D01*
X137571428Y-110578380D02*
X137809523Y-111578380D01*
X138000000Y-110864095D01*
X138190476Y-111578380D01*
X138428571Y-110578380D01*
X138714285Y-110578380D02*
X139380952Y-110578380D01*
X138952380Y-111578380D01*
X117666666Y-111530761D02*
X117809523Y-111578380D01*
X118047619Y-111578380D01*
X118142857Y-111530761D01*
X118190476Y-111483142D01*
X118238095Y-111387904D01*
X118238095Y-111292666D01*
X118190476Y-111197428D01*
X118142857Y-111149809D01*
X118047619Y-111102190D01*
X117857142Y-111054571D01*
X117761904Y-111006952D01*
X117714285Y-110959333D01*
X117666666Y-110864095D01*
X117666666Y-110768857D01*
X117714285Y-110673619D01*
X117761904Y-110626000D01*
X117857142Y-110578380D01*
X118095238Y-110578380D01*
X118238095Y-110626000D01*
X118571428Y-110578380D02*
X118809523Y-111578380D01*
X119000000Y-110864095D01*
X119190476Y-111578380D01*
X119428571Y-110578380D01*
X120238095Y-110578380D02*
X120047619Y-110578380D01*
X119952380Y-110626000D01*
X119904761Y-110673619D01*
X119809523Y-110816476D01*
X119761904Y-111006952D01*
X119761904Y-111387904D01*
X119809523Y-111483142D01*
X119857142Y-111530761D01*
X119952380Y-111578380D01*
X120142857Y-111578380D01*
X120238095Y-111530761D01*
X120285714Y-111483142D01*
X120333333Y-111387904D01*
X120333333Y-111149809D01*
X120285714Y-111054571D01*
X120238095Y-111006952D01*
X120142857Y-110959333D01*
X119952380Y-110959333D01*
X119857142Y-111006952D01*
X119809523Y-111054571D01*
X119761904Y-111149809D01*
X98666666Y-111530761D02*
X98809523Y-111578380D01*
X99047619Y-111578380D01*
X99142857Y-111530761D01*
X99190476Y-111483142D01*
X99238095Y-111387904D01*
X99238095Y-111292666D01*
X99190476Y-111197428D01*
X99142857Y-111149809D01*
X99047619Y-111102190D01*
X98857142Y-111054571D01*
X98761904Y-111006952D01*
X98714285Y-110959333D01*
X98666666Y-110864095D01*
X98666666Y-110768857D01*
X98714285Y-110673619D01*
X98761904Y-110626000D01*
X98857142Y-110578380D01*
X99095238Y-110578380D01*
X99238095Y-110626000D01*
X99571428Y-110578380D02*
X99809523Y-111578380D01*
X100000000Y-110864095D01*
X100190476Y-111578380D01*
X100428571Y-110578380D01*
X101285714Y-110578380D02*
X100809523Y-110578380D01*
X100761904Y-111054571D01*
X100809523Y-111006952D01*
X100904761Y-110959333D01*
X101142857Y-110959333D01*
X101238095Y-111006952D01*
X101285714Y-111054571D01*
X101333333Y-111149809D01*
X101333333Y-111387904D01*
X101285714Y-111483142D01*
X101238095Y-111530761D01*
X101142857Y-111578380D01*
X100904761Y-111578380D01*
X100809523Y-111530761D01*
X100761904Y-111483142D01*
X155666666Y-92530761D02*
X155809523Y-92578380D01*
X156047619Y-92578380D01*
X156142857Y-92530761D01*
X156190476Y-92483142D01*
X156238095Y-92387904D01*
X156238095Y-92292666D01*
X156190476Y-92197428D01*
X156142857Y-92149809D01*
X156047619Y-92102190D01*
X155857142Y-92054571D01*
X155761904Y-92006952D01*
X155714285Y-91959333D01*
X155666666Y-91864095D01*
X155666666Y-91768857D01*
X155714285Y-91673619D01*
X155761904Y-91626000D01*
X155857142Y-91578380D01*
X156095238Y-91578380D01*
X156238095Y-91626000D01*
X156571428Y-91578380D02*
X156809523Y-92578380D01*
X157000000Y-91864095D01*
X157190476Y-92578380D01*
X157428571Y-91578380D01*
X158238095Y-91911714D02*
X158238095Y-92578380D01*
X158000000Y-91530761D02*
X157761904Y-92245047D01*
X158380952Y-92245047D01*
X136666666Y-92530761D02*
X136809523Y-92578380D01*
X137047619Y-92578380D01*
X137142857Y-92530761D01*
X137190476Y-92483142D01*
X137238095Y-92387904D01*
X137238095Y-92292666D01*
X137190476Y-92197428D01*
X137142857Y-92149809D01*
X137047619Y-92102190D01*
X136857142Y-92054571D01*
X136761904Y-92006952D01*
X136714285Y-91959333D01*
X136666666Y-91864095D01*
X136666666Y-91768857D01*
X136714285Y-91673619D01*
X136761904Y-91626000D01*
X136857142Y-91578380D01*
X137095238Y-91578380D01*
X137238095Y-91626000D01*
X137571428Y-91578380D02*
X137809523Y-92578380D01*
X138000000Y-91864095D01*
X138190476Y-92578380D01*
X138428571Y-91578380D01*
X138714285Y-91578380D02*
X139333333Y-91578380D01*
X139000000Y-91959333D01*
X139142857Y-91959333D01*
X139238095Y-92006952D01*
X139285714Y-92054571D01*
X139333333Y-92149809D01*
X139333333Y-92387904D01*
X139285714Y-92483142D01*
X139238095Y-92530761D01*
X139142857Y-92578380D01*
X138857142Y-92578380D01*
X138761904Y-92530761D01*
X138714285Y-92483142D01*
X117666666Y-92530761D02*
X117809523Y-92578380D01*
X118047619Y-92578380D01*
X118142857Y-92530761D01*
X118190476Y-92483142D01*
X118238095Y-92387904D01*
X118238095Y-92292666D01*
X118190476Y-92197428D01*
X118142857Y-92149809D01*
X118047619Y-92102190D01*
X117857142Y-92054571D01*
X117761904Y-92006952D01*
X117714285Y-91959333D01*
X117666666Y-91864095D01*
X117666666Y-91768857D01*
X117714285Y-91673619D01*
X117761904Y-91626000D01*
X117857142Y-91578380D01*
X118095238Y-91578380D01*
X118238095Y-91626000D01*
X118571428Y-91578380D02*
X118809523Y-92578380D01*
X119000000Y-91864095D01*
X119190476Y-92578380D01*
X119428571Y-91578380D01*
X119761904Y-91673619D02*
X119809523Y-91626000D01*
X119904761Y-91578380D01*
X120142857Y-91578380D01*
X120238095Y-91626000D01*
X120285714Y-91673619D01*
X120333333Y-91768857D01*
X120333333Y-91864095D01*
X120285714Y-92006952D01*
X119714285Y-92578380D01*
X120333333Y-92578380D01*
X98666666Y-92530761D02*
X98809523Y-92578380D01*
X99047619Y-92578380D01*
X99142857Y-92530761D01*
X99190476Y-92483142D01*
X99238095Y-92387904D01*
X99238095Y-92292666D01*
X99190476Y-92197428D01*
X99142857Y-92149809D01*
X99047619Y-92102190D01*
X98857142Y-92054571D01*
X98761904Y-92006952D01*
X98714285Y-91959333D01*
X98666666Y-91864095D01*
X98666666Y-91768857D01*
X98714285Y-91673619D01*
X98761904Y-91626000D01*
X98857142Y-91578380D01*
X99095238Y-91578380D01*
X99238095Y-91626000D01*
X99571428Y-91578380D02*
X99809523Y-92578380D01*
X100000000Y-91864095D01*
X100190476Y-92578380D01*
X100428571Y-91578380D01*
X101333333Y-92578380D02*
X100761904Y-92578380D01*
X101047619Y-92578380D02*
X101047619Y-91578380D01*
X100952380Y-91721238D01*
X100857142Y-91816476D01*
X100761904Y-91864095D01*
X88666666Y-113796380D02*
X88666666Y-114510666D01*
X88619047Y-114653523D01*
X88523809Y-114748761D01*
X88380952Y-114796380D01*
X88285714Y-114796380D01*
X89666666Y-114796380D02*
X89095238Y-114796380D01*
X89380952Y-114796380D02*
X89380952Y-113796380D01*
X89285714Y-113939238D01*
X89190476Y-114034476D01*
X89095238Y-114082095D01*
M02*
