M48
; DRILL file {KiCad (5.1.2-1)-1} date Friday, November 15, 2019 at 08:19:54 PM
; FORMAT={-:-/ absolute / metric / decimal}
; #@! TF.CreationDate,2019-11-15T20:19:54-06:00
; #@! TF.GenerationSoftware,Kicad,Pcbnew,(5.1.2-1)-1
; #@! TF.FileFunction,NonPlated,1,2,NPTH
FMAT,2
METRIC
T1C1.700
T2C4.000
%
G90
G05
T1
X94.92Y-138.0
X105.08Y-138.0
X94.92Y-119.0
X105.08Y-119.0
X132.92Y-119.0
X143.08Y-119.0
X94.92Y-157.0
X105.08Y-157.0
X132.92Y-100.0
X143.08Y-100.0
X113.92Y-138.0
X124.08Y-138.0
X151.92Y-157.0
X162.08Y-157.0
X132.92Y-138.0
X143.08Y-138.0
X151.92Y-119.0
X162.08Y-119.0
X113.92Y-157.0
X124.08Y-157.0
X151.92Y-138.0
X162.08Y-138.0
X151.92Y-100.0
X162.08Y-100.0
X94.92Y-100.0
X105.08Y-100.0
X113.92Y-119.0
X124.08Y-119.0
X113.92Y-100.0
X124.08Y-100.0
X132.92Y-157.0
X143.08Y-157.0
T2
X100.0Y-157.0
X119.0Y-138.0
X157.0Y-138.0
X100.0Y-138.0
X138.0Y-119.0
X138.0Y-138.0
X157.0Y-119.0
X119.0Y-157.0
X157.0Y-100.0
X119.0Y-119.0
X138.0Y-157.0
X100.0Y-119.0
X138.0Y-100.0
X157.0Y-157.0
X100.0Y-100.0
X119.0Y-100.0
T0
M30
