G04 #@! TF.GenerationSoftware,KiCad,Pcbnew,(5.1.2-1)-1*
G04 #@! TF.CreationDate,2019-11-15T20:19:46-06:00*
G04 #@! TF.ProjectId,cherry-huzzah32,63686572-7279-42d6-9875-7a7a61683332,rev?*
G04 #@! TF.SameCoordinates,Original*
G04 #@! TF.FileFunction,Copper,L1,Top*
G04 #@! TF.FilePolarity,Positive*
%FSLAX46Y46*%
G04 Gerber Fmt 4.6, Leading zero omitted, Abs format (unit mm)*
G04 Created by KiCad (PCBNEW (5.1.2-1)-1) date 2019-11-15 20:19:46*
%MOMM*%
%LPD*%
G04 APERTURE LIST*
%ADD10C,1.574800*%
%ADD11C,2.200000*%
%ADD12O,1.700000X1.700000*%
%ADD13R,1.700000X1.700000*%
%ADD14C,0.800000*%
%ADD15C,0.304800*%
%ADD16C,0.254000*%
G04 APERTURE END LIST*
D10*
X129286000Y-117602000D03*
X129286000Y-115062000D03*
X129286000Y-112522000D03*
X129286000Y-109982000D03*
X129286000Y-107442000D03*
X129286000Y-104902000D03*
X129286000Y-102362000D03*
X129286000Y-99822000D03*
X129286000Y-97282000D03*
X129286000Y-94742000D03*
X129286000Y-92202000D03*
X129286000Y-120142000D03*
X108966000Y-92202000D03*
X108966000Y-94742000D03*
X108966000Y-97282000D03*
X108966000Y-99822000D03*
X108966000Y-102362000D03*
X108966000Y-104902000D03*
X108966000Y-107442000D03*
X108966000Y-109982000D03*
X108966000Y-112522000D03*
X108966000Y-115062000D03*
X108966000Y-117602000D03*
X108966000Y-120142000D03*
X108966000Y-122682000D03*
X108966000Y-125222000D03*
X108966000Y-127762000D03*
X108966000Y-130302000D03*
D11*
X153190000Y-154460000D03*
X159540000Y-151920000D03*
X134190000Y-154460000D03*
X140540000Y-151920000D03*
X115190000Y-154460000D03*
X121540000Y-151920000D03*
X96190000Y-154460000D03*
X102540000Y-151920000D03*
X153190000Y-135460000D03*
X159540000Y-132920000D03*
X134190000Y-135460000D03*
X140540000Y-132920000D03*
X115190000Y-135460000D03*
X121540000Y-132920000D03*
X96190000Y-135460000D03*
X102540000Y-132920000D03*
X153190000Y-116460000D03*
X159540000Y-113920000D03*
X134190000Y-116460000D03*
X140540000Y-113920000D03*
X115190000Y-116460000D03*
X121540000Y-113920000D03*
X96190000Y-116460000D03*
X102540000Y-113920000D03*
X153190000Y-97460000D03*
X159540000Y-94920000D03*
X134190000Y-97460000D03*
X140540000Y-94920000D03*
X115190000Y-97460000D03*
X121540000Y-94920000D03*
X96190000Y-97460000D03*
X102540000Y-94920000D03*
D12*
X89000000Y-96774000D03*
X89000000Y-99314000D03*
X89000000Y-101854000D03*
X89000000Y-104394000D03*
X89000000Y-106934000D03*
X89000000Y-109474000D03*
D13*
X89000000Y-112014000D03*
D14*
X81788000Y-109474000D03*
X81788000Y-101854000D03*
X83566000Y-113411000D03*
D15*
X81788000Y-109474000D02*
X81788000Y-101854000D01*
X81788000Y-113284000D02*
X81788000Y-109474000D01*
X81788000Y-115824000D02*
X81788000Y-113284000D01*
X104140000Y-135128000D02*
X101092000Y-135128000D01*
X101092000Y-135128000D02*
X81788000Y-115824000D01*
X107721399Y-131546601D02*
X104140000Y-135128000D01*
X107721399Y-129006601D02*
X107721399Y-131546601D01*
X108966000Y-127762000D02*
X107721399Y-129006601D01*
X107721399Y-104304591D02*
X107721399Y-114930950D01*
X108368591Y-103657399D02*
X107721399Y-104304591D01*
X107852449Y-115062000D02*
X108966000Y-115062000D01*
X109512611Y-103657399D02*
X108368591Y-103657399D01*
X110210601Y-102959409D02*
X109512611Y-103657399D01*
X107721399Y-114930950D02*
X107852449Y-115062000D01*
X110210601Y-101774741D02*
X110210601Y-102959409D01*
X113425343Y-98559999D02*
X110210601Y-101774741D01*
X114090001Y-98559999D02*
X113425343Y-98559999D01*
X115190000Y-97460000D02*
X114090001Y-98559999D01*
X102540000Y-94920000D02*
X102540000Y-96475634D01*
X102540000Y-132920000D02*
X102540000Y-113920000D01*
X102540000Y-94920000D02*
X102540000Y-113920000D01*
X130073399Y-106654601D02*
X129286000Y-107442000D01*
X103962601Y-93497399D02*
X120657943Y-93497399D01*
X128688591Y-103606601D02*
X129832611Y-103606601D01*
X130530601Y-104304591D02*
X130530601Y-106197399D01*
X129832611Y-103606601D02*
X130530601Y-104304591D01*
X130530601Y-106197399D02*
X130073399Y-106654601D01*
X126492000Y-97567342D02*
X126492000Y-101410010D01*
X126492000Y-101410010D02*
X128688591Y-103606601D01*
X120792543Y-93362799D02*
X122287457Y-93362799D01*
X120657943Y-93497399D02*
X120792543Y-93362799D01*
X122287457Y-93362799D02*
X126492000Y-97567342D01*
X102540000Y-94920000D02*
X103962601Y-93497399D01*
X121540000Y-112648000D02*
X121540000Y-113920000D01*
X129286000Y-104902000D02*
X121540000Y-112648000D01*
X121540000Y-96475634D02*
X121540000Y-94920000D01*
X121540000Y-99394658D02*
X121540000Y-96475634D01*
X127047342Y-104902000D02*
X121540000Y-99394658D01*
X129286000Y-104902000D02*
X127047342Y-104902000D01*
X121540000Y-132920000D02*
X125730000Y-137110000D01*
X125730000Y-147730000D02*
X121540000Y-151920000D01*
X125730000Y-137110000D02*
X125730000Y-147730000D01*
X121540000Y-113920000D02*
X125857000Y-118237000D01*
X125857000Y-128603000D02*
X121540000Y-132920000D01*
X125857000Y-118237000D02*
X125857000Y-128603000D01*
X140540000Y-151920000D02*
X140540000Y-103300000D01*
X140540000Y-103300000D02*
X140540000Y-94920000D01*
X134425342Y-94920000D02*
X138984366Y-94920000D01*
X132632799Y-96712543D02*
X134425342Y-94920000D01*
X130530601Y-99466399D02*
X132632799Y-97364201D01*
X129286000Y-102362000D02*
X130530601Y-101117399D01*
X138984366Y-94920000D02*
X140540000Y-94920000D01*
X130530601Y-101117399D02*
X130530601Y-99466399D01*
X132632799Y-97364201D02*
X132632799Y-96712543D01*
X159540000Y-94920000D02*
X159540000Y-113920000D01*
X159540000Y-115475634D02*
X159540000Y-151920000D01*
X159540000Y-113920000D02*
X159540000Y-115475634D01*
X156949000Y-92329000D02*
X136154222Y-92329000D01*
X130073399Y-98409823D02*
X130073399Y-99034601D01*
X159540000Y-94920000D02*
X156949000Y-92329000D01*
X136154222Y-92329000D02*
X130073399Y-98409823D01*
X130073399Y-99034601D02*
X129286000Y-99822000D01*
X112904000Y-116460000D02*
X108966000Y-112522000D01*
X115190000Y-116460000D02*
X112904000Y-116460000D01*
X116747201Y-117207457D02*
X116747201Y-115223201D01*
X116459000Y-117495658D02*
X116747201Y-117207457D01*
X116747201Y-120383859D02*
X116459000Y-120095658D01*
X116747201Y-136207457D02*
X116747201Y-120383859D01*
X116459000Y-120095658D02*
X116459000Y-117495658D01*
X116289999Y-136664659D02*
X116747201Y-136207457D01*
X109753399Y-108229399D02*
X108966000Y-107442000D01*
X116747201Y-115223201D02*
X109753399Y-108229399D01*
X116289999Y-153360001D02*
X116289999Y-136664659D01*
X115190000Y-154460000D02*
X116289999Y-153360001D01*
X105664000Y-125984000D02*
X108966000Y-122682000D01*
X101584201Y-134477201D02*
X103287457Y-134477201D01*
X105664000Y-132100658D02*
X105664000Y-125984000D01*
X103287457Y-134477201D02*
X105664000Y-132100658D01*
X83566000Y-116459000D02*
X101584201Y-134477201D01*
X83566000Y-113411000D02*
X83566000Y-116459000D01*
D16*
G36*
X164453893Y-90707670D02*
G01*
X164890498Y-90839489D01*
X165293185Y-91053600D01*
X165646612Y-91341848D01*
X165937327Y-91693261D01*
X166154242Y-92094439D01*
X166289106Y-92530113D01*
X166340000Y-93014344D01*
X166340001Y-163967711D01*
X166292330Y-164453894D01*
X166160512Y-164890497D01*
X165946399Y-165293186D01*
X165658150Y-165646613D01*
X165306739Y-165937327D01*
X164905564Y-166154240D01*
X164469886Y-166289106D01*
X163985664Y-166340000D01*
X92967581Y-166340000D01*
X92937937Y-166342920D01*
X92919238Y-166342789D01*
X92910067Y-166343689D01*
X92327777Y-166404890D01*
X92269191Y-166416916D01*
X92210420Y-166428127D01*
X92201598Y-166430790D01*
X91642285Y-166603928D01*
X91587167Y-166627098D01*
X91531678Y-166649516D01*
X91523542Y-166653843D01*
X91118218Y-166873000D01*
X90000000Y-166873000D01*
X89975224Y-166875440D01*
X89951399Y-166882667D01*
X89929443Y-166894403D01*
X89910197Y-166910197D01*
X89894403Y-166929443D01*
X89882667Y-166951399D01*
X89875440Y-166975224D01*
X89873000Y-167000000D01*
X89873000Y-168115528D01*
X89643616Y-168546938D01*
X89620812Y-168602265D01*
X89597256Y-168657225D01*
X89594531Y-168666029D01*
X89425304Y-169226536D01*
X89413682Y-169285231D01*
X89401248Y-169343727D01*
X89400285Y-169352892D01*
X89343150Y-169935595D01*
X89340000Y-169967582D01*
X89340001Y-176967711D01*
X89292330Y-177453894D01*
X89160512Y-177890497D01*
X88946399Y-178293186D01*
X88658150Y-178646613D01*
X88306739Y-178937327D01*
X87905564Y-179154240D01*
X87469886Y-179289106D01*
X86985664Y-179340000D01*
X66032279Y-179340000D01*
X65546106Y-179292330D01*
X65109503Y-179160512D01*
X64706814Y-178946399D01*
X64353387Y-178658150D01*
X64062673Y-178306739D01*
X63845760Y-177905564D01*
X63710894Y-177469886D01*
X63660000Y-176985664D01*
X63660000Y-156853740D01*
X93435000Y-156853740D01*
X93435000Y-157146260D01*
X93492068Y-157433158D01*
X93604010Y-157703411D01*
X93766525Y-157946632D01*
X93973368Y-158153475D01*
X94216589Y-158315990D01*
X94486842Y-158427932D01*
X94773740Y-158485000D01*
X95066260Y-158485000D01*
X95353158Y-158427932D01*
X95623411Y-158315990D01*
X95866632Y-158153475D01*
X96073475Y-157946632D01*
X96235990Y-157703411D01*
X96347932Y-157433158D01*
X96405000Y-157146260D01*
X96405000Y-156853740D01*
X96382471Y-156740475D01*
X97365000Y-156740475D01*
X97365000Y-157259525D01*
X97466261Y-157768601D01*
X97664893Y-158248141D01*
X97953262Y-158679715D01*
X98320285Y-159046738D01*
X98751859Y-159335107D01*
X99231399Y-159533739D01*
X99740475Y-159635000D01*
X100259525Y-159635000D01*
X100768601Y-159533739D01*
X101248141Y-159335107D01*
X101679715Y-159046738D01*
X102046738Y-158679715D01*
X102335107Y-158248141D01*
X102533739Y-157768601D01*
X102635000Y-157259525D01*
X102635000Y-156853740D01*
X103595000Y-156853740D01*
X103595000Y-157146260D01*
X103652068Y-157433158D01*
X103764010Y-157703411D01*
X103926525Y-157946632D01*
X104133368Y-158153475D01*
X104376589Y-158315990D01*
X104646842Y-158427932D01*
X104933740Y-158485000D01*
X105226260Y-158485000D01*
X105513158Y-158427932D01*
X105783411Y-158315990D01*
X106026632Y-158153475D01*
X106233475Y-157946632D01*
X106395990Y-157703411D01*
X106507932Y-157433158D01*
X106565000Y-157146260D01*
X106565000Y-156853740D01*
X106507932Y-156566842D01*
X106395990Y-156296589D01*
X106233475Y-156053368D01*
X106026632Y-155846525D01*
X105783411Y-155684010D01*
X105513158Y-155572068D01*
X105226260Y-155515000D01*
X104933740Y-155515000D01*
X104646842Y-155572068D01*
X104376589Y-155684010D01*
X104133368Y-155846525D01*
X103926525Y-156053368D01*
X103764010Y-156296589D01*
X103652068Y-156566842D01*
X103595000Y-156853740D01*
X102635000Y-156853740D01*
X102635000Y-156740475D01*
X102533739Y-156231399D01*
X102335107Y-155751859D01*
X102046738Y-155320285D01*
X101679715Y-154953262D01*
X101248141Y-154664893D01*
X100768601Y-154466261D01*
X100259525Y-154365000D01*
X99740475Y-154365000D01*
X99231399Y-154466261D01*
X98751859Y-154664893D01*
X98320285Y-154953262D01*
X97953262Y-155320285D01*
X97664893Y-155751859D01*
X97466261Y-156231399D01*
X97365000Y-156740475D01*
X96382471Y-156740475D01*
X96347932Y-156566842D01*
X96235990Y-156296589D01*
X96168110Y-156195000D01*
X96360883Y-156195000D01*
X96696081Y-156128325D01*
X97011831Y-155997537D01*
X97295998Y-155807663D01*
X97537663Y-155565998D01*
X97727537Y-155281831D01*
X97858325Y-154966081D01*
X97925000Y-154630883D01*
X97925000Y-154289117D01*
X97858325Y-153953919D01*
X97727537Y-153638169D01*
X97537663Y-153354002D01*
X97295998Y-153112337D01*
X97011831Y-152922463D01*
X96696081Y-152791675D01*
X96360883Y-152725000D01*
X96019117Y-152725000D01*
X95683919Y-152791675D01*
X95368169Y-152922463D01*
X95084002Y-153112337D01*
X94842337Y-153354002D01*
X94652463Y-153638169D01*
X94521675Y-153953919D01*
X94455000Y-154289117D01*
X94455000Y-154630883D01*
X94521675Y-154966081D01*
X94652463Y-155281831D01*
X94808261Y-155515000D01*
X94773740Y-155515000D01*
X94486842Y-155572068D01*
X94216589Y-155684010D01*
X93973368Y-155846525D01*
X93766525Y-156053368D01*
X93604010Y-156296589D01*
X93492068Y-156566842D01*
X93435000Y-156853740D01*
X63660000Y-156853740D01*
X63660000Y-151749117D01*
X100805000Y-151749117D01*
X100805000Y-152090883D01*
X100871675Y-152426081D01*
X101002463Y-152741831D01*
X101192337Y-153025998D01*
X101434002Y-153267663D01*
X101718169Y-153457537D01*
X102033919Y-153588325D01*
X102369117Y-153655000D01*
X102710883Y-153655000D01*
X103046081Y-153588325D01*
X103361831Y-153457537D01*
X103645998Y-153267663D01*
X103887663Y-153025998D01*
X104077537Y-152741831D01*
X104208325Y-152426081D01*
X104275000Y-152090883D01*
X104275000Y-151749117D01*
X104208325Y-151413919D01*
X104077537Y-151098169D01*
X103887663Y-150814002D01*
X103645998Y-150572337D01*
X103361831Y-150382463D01*
X103046081Y-150251675D01*
X102710883Y-150185000D01*
X102369117Y-150185000D01*
X102033919Y-150251675D01*
X101718169Y-150382463D01*
X101434002Y-150572337D01*
X101192337Y-150814002D01*
X101002463Y-151098169D01*
X100871675Y-151413919D01*
X100805000Y-151749117D01*
X63660000Y-151749117D01*
X63660000Y-137853740D01*
X93435000Y-137853740D01*
X93435000Y-138146260D01*
X93492068Y-138433158D01*
X93604010Y-138703411D01*
X93766525Y-138946632D01*
X93973368Y-139153475D01*
X94216589Y-139315990D01*
X94486842Y-139427932D01*
X94773740Y-139485000D01*
X95066260Y-139485000D01*
X95353158Y-139427932D01*
X95623411Y-139315990D01*
X95866632Y-139153475D01*
X96073475Y-138946632D01*
X96235990Y-138703411D01*
X96347932Y-138433158D01*
X96405000Y-138146260D01*
X96405000Y-137853740D01*
X96347932Y-137566842D01*
X96235990Y-137296589D01*
X96168110Y-137195000D01*
X96360883Y-137195000D01*
X96696081Y-137128325D01*
X97011831Y-136997537D01*
X97295998Y-136807663D01*
X97537663Y-136565998D01*
X97727537Y-136281831D01*
X97858325Y-135966081D01*
X97925000Y-135630883D01*
X97925000Y-135289117D01*
X97858325Y-134953919D01*
X97727537Y-134638169D01*
X97537663Y-134354002D01*
X97295998Y-134112337D01*
X97011831Y-133922463D01*
X96696081Y-133791675D01*
X96360883Y-133725000D01*
X96019117Y-133725000D01*
X95683919Y-133791675D01*
X95368169Y-133922463D01*
X95084002Y-134112337D01*
X94842337Y-134354002D01*
X94652463Y-134638169D01*
X94521675Y-134953919D01*
X94455000Y-135289117D01*
X94455000Y-135630883D01*
X94521675Y-135966081D01*
X94652463Y-136281831D01*
X94808261Y-136515000D01*
X94773740Y-136515000D01*
X94486842Y-136572068D01*
X94216589Y-136684010D01*
X93973368Y-136846525D01*
X93766525Y-137053368D01*
X93604010Y-137296589D01*
X93492068Y-137566842D01*
X93435000Y-137853740D01*
X63660000Y-137853740D01*
X63660000Y-101752061D01*
X80753000Y-101752061D01*
X80753000Y-101955939D01*
X80792774Y-102155898D01*
X80870795Y-102344256D01*
X80984063Y-102513774D01*
X81000601Y-102530312D01*
X81000600Y-108797689D01*
X80984063Y-108814226D01*
X80870795Y-108983744D01*
X80792774Y-109172102D01*
X80753000Y-109372061D01*
X80753000Y-109575939D01*
X80792774Y-109775898D01*
X80870795Y-109964256D01*
X80984063Y-110133774D01*
X81000601Y-110150312D01*
X81000600Y-113322672D01*
X81000601Y-113322682D01*
X81000600Y-115785337D01*
X80996792Y-115824000D01*
X81000600Y-115862663D01*
X81000600Y-115862672D01*
X81011994Y-115978356D01*
X81057018Y-116126782D01*
X81130134Y-116263571D01*
X81228531Y-116383469D01*
X81258578Y-116408128D01*
X100215448Y-135365000D01*
X99740475Y-135365000D01*
X99231399Y-135466261D01*
X98751859Y-135664893D01*
X98320285Y-135953262D01*
X97953262Y-136320285D01*
X97664893Y-136751859D01*
X97466261Y-137231399D01*
X97365000Y-137740475D01*
X97365000Y-138259525D01*
X97466261Y-138768601D01*
X97664893Y-139248141D01*
X97953262Y-139679715D01*
X98320285Y-140046738D01*
X98751859Y-140335107D01*
X99231399Y-140533739D01*
X99740475Y-140635000D01*
X100259525Y-140635000D01*
X100768601Y-140533739D01*
X101248141Y-140335107D01*
X101679715Y-140046738D01*
X102046738Y-139679715D01*
X102335107Y-139248141D01*
X102533739Y-138768601D01*
X102635000Y-138259525D01*
X102635000Y-137853740D01*
X103595000Y-137853740D01*
X103595000Y-138146260D01*
X103652068Y-138433158D01*
X103764010Y-138703411D01*
X103926525Y-138946632D01*
X104133368Y-139153475D01*
X104376589Y-139315990D01*
X104646842Y-139427932D01*
X104933740Y-139485000D01*
X105226260Y-139485000D01*
X105513158Y-139427932D01*
X105783411Y-139315990D01*
X106026632Y-139153475D01*
X106233475Y-138946632D01*
X106395990Y-138703411D01*
X106507932Y-138433158D01*
X106565000Y-138146260D01*
X106565000Y-137853740D01*
X106507932Y-137566842D01*
X106395990Y-137296589D01*
X106233475Y-137053368D01*
X106026632Y-136846525D01*
X105783411Y-136684010D01*
X105513158Y-136572068D01*
X105226260Y-136515000D01*
X104933740Y-136515000D01*
X104646842Y-136572068D01*
X104376589Y-136684010D01*
X104133368Y-136846525D01*
X103926525Y-137053368D01*
X103764010Y-137296589D01*
X103652068Y-137566842D01*
X103595000Y-137853740D01*
X102635000Y-137853740D01*
X102635000Y-137740475D01*
X102533739Y-137231399D01*
X102335107Y-136751859D01*
X102046738Y-136320285D01*
X101679715Y-135953262D01*
X101623051Y-135915400D01*
X104101337Y-135915400D01*
X104140000Y-135919208D01*
X104178663Y-135915400D01*
X104178673Y-135915400D01*
X104294357Y-135904006D01*
X104442783Y-135858982D01*
X104579572Y-135785866D01*
X104699469Y-135687469D01*
X104724128Y-135657422D01*
X108250827Y-132130724D01*
X108280868Y-132106070D01*
X108379265Y-131986173D01*
X108452381Y-131849384D01*
X108497405Y-131700958D01*
X108502464Y-131649592D01*
X108551101Y-131669738D01*
X108825906Y-131724400D01*
X109106094Y-131724400D01*
X109380899Y-131669738D01*
X109639759Y-131562514D01*
X109872727Y-131406850D01*
X110070850Y-131208727D01*
X110226514Y-130975759D01*
X110333738Y-130716899D01*
X110388400Y-130442094D01*
X110388400Y-130161906D01*
X110333738Y-129887101D01*
X110226514Y-129628241D01*
X110070850Y-129395273D01*
X109872727Y-129197150D01*
X109639759Y-129041486D01*
X109616858Y-129032000D01*
X109639759Y-129022514D01*
X109872727Y-128866850D01*
X110070850Y-128668727D01*
X110226514Y-128435759D01*
X110333738Y-128176899D01*
X110388400Y-127902094D01*
X110388400Y-127621906D01*
X110333738Y-127347101D01*
X110226514Y-127088241D01*
X110070850Y-126855273D01*
X109872727Y-126657150D01*
X109639759Y-126501486D01*
X109616858Y-126492000D01*
X109639759Y-126482514D01*
X109872727Y-126326850D01*
X110070850Y-126128727D01*
X110226514Y-125895759D01*
X110333738Y-125636899D01*
X110388400Y-125362094D01*
X110388400Y-125081906D01*
X110333738Y-124807101D01*
X110226514Y-124548241D01*
X110070850Y-124315273D01*
X109872727Y-124117150D01*
X109639759Y-123961486D01*
X109617755Y-123952372D01*
X109700043Y-123908388D01*
X109770100Y-123665705D01*
X108966000Y-122861605D01*
X108161900Y-123665705D01*
X108231957Y-123908388D01*
X108320028Y-123949976D01*
X108292241Y-123961486D01*
X108059273Y-124117150D01*
X107861150Y-124315273D01*
X107705486Y-124548241D01*
X107598262Y-124807101D01*
X107543600Y-125081906D01*
X107543600Y-125362094D01*
X107598262Y-125636899D01*
X107705486Y-125895759D01*
X107861150Y-126128727D01*
X108059273Y-126326850D01*
X108292241Y-126482514D01*
X108315142Y-126492000D01*
X108292241Y-126501486D01*
X108059273Y-126657150D01*
X107861150Y-126855273D01*
X107705486Y-127088241D01*
X107598262Y-127347101D01*
X107543600Y-127621906D01*
X107543600Y-127902094D01*
X107571598Y-128042851D01*
X107191976Y-128422474D01*
X107161930Y-128447132D01*
X107063533Y-128567030D01*
X106990417Y-128703819D01*
X106945393Y-128852245D01*
X106933999Y-128967929D01*
X106933999Y-128967938D01*
X106930191Y-129006601D01*
X106933999Y-129045264D01*
X106934000Y-131220449D01*
X103813850Y-134340600D01*
X103536840Y-134340600D01*
X103645998Y-134267663D01*
X103887663Y-134025998D01*
X104077537Y-133741831D01*
X104208325Y-133426081D01*
X104275000Y-133090883D01*
X104275000Y-132749117D01*
X104208325Y-132413919D01*
X104077537Y-132098169D01*
X103887663Y-131814002D01*
X103645998Y-131572337D01*
X103361831Y-131382463D01*
X103327400Y-131368201D01*
X103327400Y-122753010D01*
X107538483Y-122753010D01*
X107579766Y-123030140D01*
X107674321Y-123293892D01*
X107739612Y-123416043D01*
X107982295Y-123486100D01*
X108786395Y-122682000D01*
X109145605Y-122682000D01*
X109949705Y-123486100D01*
X110192388Y-123416043D01*
X110312028Y-123162682D01*
X110379941Y-122890849D01*
X110393517Y-122610990D01*
X110352234Y-122333860D01*
X110257679Y-122070108D01*
X110192388Y-121947957D01*
X109949705Y-121877900D01*
X109145605Y-122682000D01*
X108786395Y-122682000D01*
X107982295Y-121877900D01*
X107739612Y-121947957D01*
X107619972Y-122201318D01*
X107552059Y-122473151D01*
X107538483Y-122753010D01*
X103327400Y-122753010D01*
X103327400Y-118853740D01*
X103595000Y-118853740D01*
X103595000Y-119146260D01*
X103652068Y-119433158D01*
X103764010Y-119703411D01*
X103926525Y-119946632D01*
X104133368Y-120153475D01*
X104376589Y-120315990D01*
X104646842Y-120427932D01*
X104933740Y-120485000D01*
X105226260Y-120485000D01*
X105513158Y-120427932D01*
X105783411Y-120315990D01*
X106026632Y-120153475D01*
X106233475Y-119946632D01*
X106395990Y-119703411D01*
X106507932Y-119433158D01*
X106565000Y-119146260D01*
X106565000Y-118853740D01*
X106507932Y-118566842D01*
X106395990Y-118296589D01*
X106233475Y-118053368D01*
X106026632Y-117846525D01*
X105783411Y-117684010D01*
X105513158Y-117572068D01*
X105226260Y-117515000D01*
X104933740Y-117515000D01*
X104646842Y-117572068D01*
X104376589Y-117684010D01*
X104133368Y-117846525D01*
X103926525Y-118053368D01*
X103764010Y-118296589D01*
X103652068Y-118566842D01*
X103595000Y-118853740D01*
X103327400Y-118853740D01*
X103327400Y-115471799D01*
X103361831Y-115457537D01*
X103645998Y-115267663D01*
X103887663Y-115025998D01*
X104077537Y-114741831D01*
X104208325Y-114426081D01*
X104275000Y-114090883D01*
X104275000Y-113749117D01*
X104208325Y-113413919D01*
X104077537Y-113098169D01*
X103887663Y-112814002D01*
X103645998Y-112572337D01*
X103361831Y-112382463D01*
X103327400Y-112368201D01*
X103327400Y-99853740D01*
X103595000Y-99853740D01*
X103595000Y-100146260D01*
X103652068Y-100433158D01*
X103764010Y-100703411D01*
X103926525Y-100946632D01*
X104133368Y-101153475D01*
X104376589Y-101315990D01*
X104646842Y-101427932D01*
X104933740Y-101485000D01*
X105226260Y-101485000D01*
X105513158Y-101427932D01*
X105783411Y-101315990D01*
X106026632Y-101153475D01*
X106233475Y-100946632D01*
X106395990Y-100703411D01*
X106507932Y-100433158D01*
X106565000Y-100146260D01*
X106565000Y-99853740D01*
X106507932Y-99566842D01*
X106395990Y-99296589D01*
X106233475Y-99053368D01*
X106026632Y-98846525D01*
X105783411Y-98684010D01*
X105513158Y-98572068D01*
X105226260Y-98515000D01*
X104933740Y-98515000D01*
X104646842Y-98572068D01*
X104376589Y-98684010D01*
X104133368Y-98846525D01*
X103926525Y-99053368D01*
X103764010Y-99296589D01*
X103652068Y-99566842D01*
X103595000Y-99853740D01*
X103327400Y-99853740D01*
X103327400Y-96471799D01*
X103361831Y-96457537D01*
X103645998Y-96267663D01*
X103887663Y-96025998D01*
X104077537Y-95741831D01*
X104208325Y-95426081D01*
X104275000Y-95090883D01*
X104275000Y-94749117D01*
X104208325Y-94413919D01*
X104194063Y-94379488D01*
X104288753Y-94284799D01*
X107615784Y-94284799D01*
X107598262Y-94327101D01*
X107543600Y-94601906D01*
X107543600Y-94882094D01*
X107598262Y-95156899D01*
X107705486Y-95415759D01*
X107861150Y-95648727D01*
X108059273Y-95846850D01*
X108292241Y-96002514D01*
X108315142Y-96012000D01*
X108292241Y-96021486D01*
X108059273Y-96177150D01*
X107861150Y-96375273D01*
X107705486Y-96608241D01*
X107598262Y-96867101D01*
X107543600Y-97141906D01*
X107543600Y-97422094D01*
X107598262Y-97696899D01*
X107705486Y-97955759D01*
X107861150Y-98188727D01*
X108059273Y-98386850D01*
X108292241Y-98542514D01*
X108315142Y-98552000D01*
X108292241Y-98561486D01*
X108059273Y-98717150D01*
X107861150Y-98915273D01*
X107705486Y-99148241D01*
X107598262Y-99407101D01*
X107543600Y-99681906D01*
X107543600Y-99962094D01*
X107598262Y-100236899D01*
X107705486Y-100495759D01*
X107861150Y-100728727D01*
X108059273Y-100926850D01*
X108292241Y-101082514D01*
X108315142Y-101092000D01*
X108292241Y-101101486D01*
X108059273Y-101257150D01*
X107861150Y-101455273D01*
X107705486Y-101688241D01*
X107598262Y-101947101D01*
X107543600Y-102221906D01*
X107543600Y-102502094D01*
X107598262Y-102776899D01*
X107705486Y-103035759D01*
X107774056Y-103138382D01*
X107191976Y-103720464D01*
X107161930Y-103745122D01*
X107063533Y-103865020D01*
X106990417Y-104001809D01*
X106945393Y-104150235D01*
X106933999Y-104265919D01*
X106933999Y-104265928D01*
X106930191Y-104304591D01*
X106933999Y-104343254D01*
X106934000Y-114892277D01*
X106930191Y-114930950D01*
X106945394Y-115085307D01*
X106990417Y-115233732D01*
X106990418Y-115233733D01*
X107063534Y-115370522D01*
X107161931Y-115490419D01*
X107191971Y-115515072D01*
X107268324Y-115591426D01*
X107292980Y-115621469D01*
X107412877Y-115719866D01*
X107549666Y-115792982D01*
X107698092Y-115838006D01*
X107779139Y-115845989D01*
X107861150Y-115968727D01*
X108059273Y-116166850D01*
X108292241Y-116322514D01*
X108315142Y-116332000D01*
X108292241Y-116341486D01*
X108059273Y-116497150D01*
X107861150Y-116695273D01*
X107705486Y-116928241D01*
X107598262Y-117187101D01*
X107543600Y-117461906D01*
X107543600Y-117742094D01*
X107598262Y-118016899D01*
X107705486Y-118275759D01*
X107861150Y-118508727D01*
X108059273Y-118706850D01*
X108292241Y-118862514D01*
X108315142Y-118872000D01*
X108292241Y-118881486D01*
X108059273Y-119037150D01*
X107861150Y-119235273D01*
X107705486Y-119468241D01*
X107598262Y-119727101D01*
X107543600Y-120001906D01*
X107543600Y-120282094D01*
X107598262Y-120556899D01*
X107705486Y-120815759D01*
X107861150Y-121048727D01*
X108059273Y-121246850D01*
X108292241Y-121402514D01*
X108314245Y-121411628D01*
X108231957Y-121455612D01*
X108161900Y-121698295D01*
X108966000Y-122502395D01*
X109770100Y-121698295D01*
X109700043Y-121455612D01*
X109611972Y-121414024D01*
X109639759Y-121402514D01*
X109872727Y-121246850D01*
X110070850Y-121048727D01*
X110226514Y-120815759D01*
X110333738Y-120556899D01*
X110388400Y-120282094D01*
X110388400Y-120001906D01*
X110333738Y-119727101D01*
X110226514Y-119468241D01*
X110070850Y-119235273D01*
X109872727Y-119037150D01*
X109639759Y-118881486D01*
X109616858Y-118872000D01*
X109639759Y-118862514D01*
X109872727Y-118706850D01*
X110070850Y-118508727D01*
X110226514Y-118275759D01*
X110333738Y-118016899D01*
X110388400Y-117742094D01*
X110388400Y-117461906D01*
X110333738Y-117187101D01*
X110226514Y-116928241D01*
X110070850Y-116695273D01*
X109872727Y-116497150D01*
X109639759Y-116341486D01*
X109616858Y-116332000D01*
X109639759Y-116322514D01*
X109872727Y-116166850D01*
X110070850Y-115968727D01*
X110226514Y-115735759D01*
X110333738Y-115476899D01*
X110388400Y-115202094D01*
X110388400Y-115057951D01*
X112319877Y-116989428D01*
X112344531Y-117019469D01*
X112464428Y-117117866D01*
X112601217Y-117190982D01*
X112749643Y-117236006D01*
X112865327Y-117247400D01*
X112865336Y-117247400D01*
X112903999Y-117251208D01*
X112942662Y-117247400D01*
X113638201Y-117247400D01*
X113652463Y-117281831D01*
X113808261Y-117515000D01*
X113773740Y-117515000D01*
X113486842Y-117572068D01*
X113216589Y-117684010D01*
X112973368Y-117846525D01*
X112766525Y-118053368D01*
X112604010Y-118296589D01*
X112492068Y-118566842D01*
X112435000Y-118853740D01*
X112435000Y-119146260D01*
X112492068Y-119433158D01*
X112604010Y-119703411D01*
X112766525Y-119946632D01*
X112973368Y-120153475D01*
X113216589Y-120315990D01*
X113486842Y-120427932D01*
X113773740Y-120485000D01*
X114066260Y-120485000D01*
X114353158Y-120427932D01*
X114623411Y-120315990D01*
X114866632Y-120153475D01*
X115073475Y-119946632D01*
X115235990Y-119703411D01*
X115347932Y-119433158D01*
X115405000Y-119146260D01*
X115405000Y-118853740D01*
X115347932Y-118566842D01*
X115235990Y-118296589D01*
X115168110Y-118195000D01*
X115360883Y-118195000D01*
X115671601Y-118133194D01*
X115671600Y-120056995D01*
X115667792Y-120095658D01*
X115671600Y-120134321D01*
X115671600Y-120134330D01*
X115682994Y-120250014D01*
X115728018Y-120398440D01*
X115801134Y-120535229D01*
X115899531Y-120655127D01*
X115929578Y-120679786D01*
X115959802Y-120710010D01*
X115959801Y-133900912D01*
X115696081Y-133791675D01*
X115360883Y-133725000D01*
X115019117Y-133725000D01*
X114683919Y-133791675D01*
X114368169Y-133922463D01*
X114084002Y-134112337D01*
X113842337Y-134354002D01*
X113652463Y-134638169D01*
X113521675Y-134953919D01*
X113455000Y-135289117D01*
X113455000Y-135630883D01*
X113521675Y-135966081D01*
X113652463Y-136281831D01*
X113808261Y-136515000D01*
X113773740Y-136515000D01*
X113486842Y-136572068D01*
X113216589Y-136684010D01*
X112973368Y-136846525D01*
X112766525Y-137053368D01*
X112604010Y-137296589D01*
X112492068Y-137566842D01*
X112435000Y-137853740D01*
X112435000Y-138146260D01*
X112492068Y-138433158D01*
X112604010Y-138703411D01*
X112766525Y-138946632D01*
X112973368Y-139153475D01*
X113216589Y-139315990D01*
X113486842Y-139427932D01*
X113773740Y-139485000D01*
X114066260Y-139485000D01*
X114353158Y-139427932D01*
X114623411Y-139315990D01*
X114866632Y-139153475D01*
X115073475Y-138946632D01*
X115235990Y-138703411D01*
X115347932Y-138433158D01*
X115405000Y-138146260D01*
X115405000Y-137853740D01*
X115347932Y-137566842D01*
X115235990Y-137296589D01*
X115168110Y-137195000D01*
X115360883Y-137195000D01*
X115502600Y-137166811D01*
X115502599Y-152753189D01*
X115360883Y-152725000D01*
X115019117Y-152725000D01*
X114683919Y-152791675D01*
X114368169Y-152922463D01*
X114084002Y-153112337D01*
X113842337Y-153354002D01*
X113652463Y-153638169D01*
X113521675Y-153953919D01*
X113455000Y-154289117D01*
X113455000Y-154630883D01*
X113521675Y-154966081D01*
X113652463Y-155281831D01*
X113808261Y-155515000D01*
X113773740Y-155515000D01*
X113486842Y-155572068D01*
X113216589Y-155684010D01*
X112973368Y-155846525D01*
X112766525Y-156053368D01*
X112604010Y-156296589D01*
X112492068Y-156566842D01*
X112435000Y-156853740D01*
X112435000Y-157146260D01*
X112492068Y-157433158D01*
X112604010Y-157703411D01*
X112766525Y-157946632D01*
X112973368Y-158153475D01*
X113216589Y-158315990D01*
X113486842Y-158427932D01*
X113773740Y-158485000D01*
X114066260Y-158485000D01*
X114353158Y-158427932D01*
X114623411Y-158315990D01*
X114866632Y-158153475D01*
X115073475Y-157946632D01*
X115235990Y-157703411D01*
X115347932Y-157433158D01*
X115405000Y-157146260D01*
X115405000Y-156853740D01*
X115382471Y-156740475D01*
X116365000Y-156740475D01*
X116365000Y-157259525D01*
X116466261Y-157768601D01*
X116664893Y-158248141D01*
X116953262Y-158679715D01*
X117320285Y-159046738D01*
X117751859Y-159335107D01*
X118231399Y-159533739D01*
X118740475Y-159635000D01*
X119259525Y-159635000D01*
X119768601Y-159533739D01*
X120248141Y-159335107D01*
X120679715Y-159046738D01*
X121046738Y-158679715D01*
X121335107Y-158248141D01*
X121533739Y-157768601D01*
X121635000Y-157259525D01*
X121635000Y-156853740D01*
X122595000Y-156853740D01*
X122595000Y-157146260D01*
X122652068Y-157433158D01*
X122764010Y-157703411D01*
X122926525Y-157946632D01*
X123133368Y-158153475D01*
X123376589Y-158315990D01*
X123646842Y-158427932D01*
X123933740Y-158485000D01*
X124226260Y-158485000D01*
X124513158Y-158427932D01*
X124783411Y-158315990D01*
X125026632Y-158153475D01*
X125233475Y-157946632D01*
X125395990Y-157703411D01*
X125507932Y-157433158D01*
X125565000Y-157146260D01*
X125565000Y-156853740D01*
X131435000Y-156853740D01*
X131435000Y-157146260D01*
X131492068Y-157433158D01*
X131604010Y-157703411D01*
X131766525Y-157946632D01*
X131973368Y-158153475D01*
X132216589Y-158315990D01*
X132486842Y-158427932D01*
X132773740Y-158485000D01*
X133066260Y-158485000D01*
X133353158Y-158427932D01*
X133623411Y-158315990D01*
X133866632Y-158153475D01*
X134073475Y-157946632D01*
X134235990Y-157703411D01*
X134347932Y-157433158D01*
X134405000Y-157146260D01*
X134405000Y-156853740D01*
X134382471Y-156740475D01*
X135365000Y-156740475D01*
X135365000Y-157259525D01*
X135466261Y-157768601D01*
X135664893Y-158248141D01*
X135953262Y-158679715D01*
X136320285Y-159046738D01*
X136751859Y-159335107D01*
X137231399Y-159533739D01*
X137740475Y-159635000D01*
X138259525Y-159635000D01*
X138768601Y-159533739D01*
X139248141Y-159335107D01*
X139679715Y-159046738D01*
X140046738Y-158679715D01*
X140335107Y-158248141D01*
X140533739Y-157768601D01*
X140635000Y-157259525D01*
X140635000Y-156853740D01*
X141595000Y-156853740D01*
X141595000Y-157146260D01*
X141652068Y-157433158D01*
X141764010Y-157703411D01*
X141926525Y-157946632D01*
X142133368Y-158153475D01*
X142376589Y-158315990D01*
X142646842Y-158427932D01*
X142933740Y-158485000D01*
X143226260Y-158485000D01*
X143513158Y-158427932D01*
X143783411Y-158315990D01*
X144026632Y-158153475D01*
X144233475Y-157946632D01*
X144395990Y-157703411D01*
X144507932Y-157433158D01*
X144565000Y-157146260D01*
X144565000Y-156853740D01*
X150435000Y-156853740D01*
X150435000Y-157146260D01*
X150492068Y-157433158D01*
X150604010Y-157703411D01*
X150766525Y-157946632D01*
X150973368Y-158153475D01*
X151216589Y-158315990D01*
X151486842Y-158427932D01*
X151773740Y-158485000D01*
X152066260Y-158485000D01*
X152353158Y-158427932D01*
X152623411Y-158315990D01*
X152866632Y-158153475D01*
X153073475Y-157946632D01*
X153235990Y-157703411D01*
X153347932Y-157433158D01*
X153405000Y-157146260D01*
X153405000Y-156853740D01*
X153382471Y-156740475D01*
X154365000Y-156740475D01*
X154365000Y-157259525D01*
X154466261Y-157768601D01*
X154664893Y-158248141D01*
X154953262Y-158679715D01*
X155320285Y-159046738D01*
X155751859Y-159335107D01*
X156231399Y-159533739D01*
X156740475Y-159635000D01*
X157259525Y-159635000D01*
X157768601Y-159533739D01*
X158248141Y-159335107D01*
X158679715Y-159046738D01*
X159046738Y-158679715D01*
X159335107Y-158248141D01*
X159533739Y-157768601D01*
X159635000Y-157259525D01*
X159635000Y-156853740D01*
X160595000Y-156853740D01*
X160595000Y-157146260D01*
X160652068Y-157433158D01*
X160764010Y-157703411D01*
X160926525Y-157946632D01*
X161133368Y-158153475D01*
X161376589Y-158315990D01*
X161646842Y-158427932D01*
X161933740Y-158485000D01*
X162226260Y-158485000D01*
X162513158Y-158427932D01*
X162783411Y-158315990D01*
X163026632Y-158153475D01*
X163233475Y-157946632D01*
X163395990Y-157703411D01*
X163507932Y-157433158D01*
X163565000Y-157146260D01*
X163565000Y-156853740D01*
X163507932Y-156566842D01*
X163395990Y-156296589D01*
X163233475Y-156053368D01*
X163026632Y-155846525D01*
X162783411Y-155684010D01*
X162513158Y-155572068D01*
X162226260Y-155515000D01*
X161933740Y-155515000D01*
X161646842Y-155572068D01*
X161376589Y-155684010D01*
X161133368Y-155846525D01*
X160926525Y-156053368D01*
X160764010Y-156296589D01*
X160652068Y-156566842D01*
X160595000Y-156853740D01*
X159635000Y-156853740D01*
X159635000Y-156740475D01*
X159533739Y-156231399D01*
X159335107Y-155751859D01*
X159046738Y-155320285D01*
X158679715Y-154953262D01*
X158248141Y-154664893D01*
X157768601Y-154466261D01*
X157259525Y-154365000D01*
X156740475Y-154365000D01*
X156231399Y-154466261D01*
X155751859Y-154664893D01*
X155320285Y-154953262D01*
X154953262Y-155320285D01*
X154664893Y-155751859D01*
X154466261Y-156231399D01*
X154365000Y-156740475D01*
X153382471Y-156740475D01*
X153347932Y-156566842D01*
X153235990Y-156296589D01*
X153168110Y-156195000D01*
X153360883Y-156195000D01*
X153696081Y-156128325D01*
X154011831Y-155997537D01*
X154295998Y-155807663D01*
X154537663Y-155565998D01*
X154727537Y-155281831D01*
X154858325Y-154966081D01*
X154925000Y-154630883D01*
X154925000Y-154289117D01*
X154858325Y-153953919D01*
X154727537Y-153638169D01*
X154537663Y-153354002D01*
X154295998Y-153112337D01*
X154011831Y-152922463D01*
X153696081Y-152791675D01*
X153360883Y-152725000D01*
X153019117Y-152725000D01*
X152683919Y-152791675D01*
X152368169Y-152922463D01*
X152084002Y-153112337D01*
X151842337Y-153354002D01*
X151652463Y-153638169D01*
X151521675Y-153953919D01*
X151455000Y-154289117D01*
X151455000Y-154630883D01*
X151521675Y-154966081D01*
X151652463Y-155281831D01*
X151808261Y-155515000D01*
X151773740Y-155515000D01*
X151486842Y-155572068D01*
X151216589Y-155684010D01*
X150973368Y-155846525D01*
X150766525Y-156053368D01*
X150604010Y-156296589D01*
X150492068Y-156566842D01*
X150435000Y-156853740D01*
X144565000Y-156853740D01*
X144507932Y-156566842D01*
X144395990Y-156296589D01*
X144233475Y-156053368D01*
X144026632Y-155846525D01*
X143783411Y-155684010D01*
X143513158Y-155572068D01*
X143226260Y-155515000D01*
X142933740Y-155515000D01*
X142646842Y-155572068D01*
X142376589Y-155684010D01*
X142133368Y-155846525D01*
X141926525Y-156053368D01*
X141764010Y-156296589D01*
X141652068Y-156566842D01*
X141595000Y-156853740D01*
X140635000Y-156853740D01*
X140635000Y-156740475D01*
X140533739Y-156231399D01*
X140335107Y-155751859D01*
X140046738Y-155320285D01*
X139679715Y-154953262D01*
X139248141Y-154664893D01*
X138768601Y-154466261D01*
X138259525Y-154365000D01*
X137740475Y-154365000D01*
X137231399Y-154466261D01*
X136751859Y-154664893D01*
X136320285Y-154953262D01*
X135953262Y-155320285D01*
X135664893Y-155751859D01*
X135466261Y-156231399D01*
X135365000Y-156740475D01*
X134382471Y-156740475D01*
X134347932Y-156566842D01*
X134235990Y-156296589D01*
X134168110Y-156195000D01*
X134360883Y-156195000D01*
X134696081Y-156128325D01*
X135011831Y-155997537D01*
X135295998Y-155807663D01*
X135537663Y-155565998D01*
X135727537Y-155281831D01*
X135858325Y-154966081D01*
X135925000Y-154630883D01*
X135925000Y-154289117D01*
X135858325Y-153953919D01*
X135727537Y-153638169D01*
X135537663Y-153354002D01*
X135295998Y-153112337D01*
X135011831Y-152922463D01*
X134696081Y-152791675D01*
X134360883Y-152725000D01*
X134019117Y-152725000D01*
X133683919Y-152791675D01*
X133368169Y-152922463D01*
X133084002Y-153112337D01*
X132842337Y-153354002D01*
X132652463Y-153638169D01*
X132521675Y-153953919D01*
X132455000Y-154289117D01*
X132455000Y-154630883D01*
X132521675Y-154966081D01*
X132652463Y-155281831D01*
X132808261Y-155515000D01*
X132773740Y-155515000D01*
X132486842Y-155572068D01*
X132216589Y-155684010D01*
X131973368Y-155846525D01*
X131766525Y-156053368D01*
X131604010Y-156296589D01*
X131492068Y-156566842D01*
X131435000Y-156853740D01*
X125565000Y-156853740D01*
X125507932Y-156566842D01*
X125395990Y-156296589D01*
X125233475Y-156053368D01*
X125026632Y-155846525D01*
X124783411Y-155684010D01*
X124513158Y-155572068D01*
X124226260Y-155515000D01*
X123933740Y-155515000D01*
X123646842Y-155572068D01*
X123376589Y-155684010D01*
X123133368Y-155846525D01*
X122926525Y-156053368D01*
X122764010Y-156296589D01*
X122652068Y-156566842D01*
X122595000Y-156853740D01*
X121635000Y-156853740D01*
X121635000Y-156740475D01*
X121533739Y-156231399D01*
X121335107Y-155751859D01*
X121046738Y-155320285D01*
X120679715Y-154953262D01*
X120248141Y-154664893D01*
X119768601Y-154466261D01*
X119259525Y-154365000D01*
X118740475Y-154365000D01*
X118231399Y-154466261D01*
X117751859Y-154664893D01*
X117320285Y-154953262D01*
X116953262Y-155320285D01*
X116664893Y-155751859D01*
X116466261Y-156231399D01*
X116365000Y-156740475D01*
X115382471Y-156740475D01*
X115347932Y-156566842D01*
X115235990Y-156296589D01*
X115168110Y-156195000D01*
X115360883Y-156195000D01*
X115696081Y-156128325D01*
X116011831Y-155997537D01*
X116295998Y-155807663D01*
X116537663Y-155565998D01*
X116727537Y-155281831D01*
X116858325Y-154966081D01*
X116925000Y-154630883D01*
X116925000Y-154289117D01*
X116858325Y-153953919D01*
X116845429Y-153922785D01*
X116849468Y-153919470D01*
X116874118Y-153889434D01*
X116874121Y-153889431D01*
X116947865Y-153799573D01*
X117020981Y-153662784D01*
X117066005Y-153514358D01*
X117071601Y-153457537D01*
X117077399Y-153398674D01*
X117077399Y-153398666D01*
X117081207Y-153360001D01*
X117077399Y-153321336D01*
X117077399Y-139803852D01*
X117320285Y-140046738D01*
X117751859Y-140335107D01*
X118231399Y-140533739D01*
X118740475Y-140635000D01*
X119259525Y-140635000D01*
X119768601Y-140533739D01*
X120248141Y-140335107D01*
X120679715Y-140046738D01*
X121046738Y-139679715D01*
X121335107Y-139248141D01*
X121533739Y-138768601D01*
X121635000Y-138259525D01*
X121635000Y-137740475D01*
X121533739Y-137231399D01*
X121335107Y-136751859D01*
X121046738Y-136320285D01*
X120679715Y-135953262D01*
X120248141Y-135664893D01*
X119768601Y-135466261D01*
X119259525Y-135365000D01*
X118740475Y-135365000D01*
X118231399Y-135466261D01*
X117751859Y-135664893D01*
X117534601Y-135810060D01*
X117534601Y-121189940D01*
X117751859Y-121335107D01*
X118231399Y-121533739D01*
X118740475Y-121635000D01*
X119259525Y-121635000D01*
X119768601Y-121533739D01*
X120248141Y-121335107D01*
X120679715Y-121046738D01*
X121046738Y-120679715D01*
X121335107Y-120248141D01*
X121533739Y-119768601D01*
X121635000Y-119259525D01*
X121635000Y-118740475D01*
X121533739Y-118231399D01*
X121335107Y-117751859D01*
X121046738Y-117320285D01*
X120679715Y-116953262D01*
X120248141Y-116664893D01*
X119768601Y-116466261D01*
X119259525Y-116365000D01*
X118740475Y-116365000D01*
X118231399Y-116466261D01*
X117751859Y-116664893D01*
X117534601Y-116810060D01*
X117534601Y-115261866D01*
X117538409Y-115223201D01*
X117534601Y-115184536D01*
X117534601Y-115184528D01*
X117523207Y-115068844D01*
X117478183Y-114920418D01*
X117405067Y-114783629D01*
X117399293Y-114776593D01*
X117331323Y-114693771D01*
X117331320Y-114693768D01*
X117306670Y-114663732D01*
X117276634Y-114639082D01*
X110360402Y-107722852D01*
X110388400Y-107582094D01*
X110388400Y-107301906D01*
X110333738Y-107027101D01*
X110226514Y-106768241D01*
X110070850Y-106535273D01*
X109872727Y-106337150D01*
X109639759Y-106181486D01*
X109616858Y-106172000D01*
X109639759Y-106162514D01*
X109872727Y-106006850D01*
X110070850Y-105808727D01*
X110226514Y-105575759D01*
X110333738Y-105316899D01*
X110388400Y-105042094D01*
X110388400Y-104761906D01*
X110333738Y-104487101D01*
X110226514Y-104228241D01*
X110157943Y-104125617D01*
X110740028Y-103543533D01*
X110770070Y-103518878D01*
X110824756Y-103452243D01*
X110868467Y-103398982D01*
X110941583Y-103262192D01*
X110974616Y-103153294D01*
X110986607Y-103113766D01*
X110998001Y-102998082D01*
X110998001Y-102998072D01*
X111001809Y-102959409D01*
X110998001Y-102920746D01*
X110998001Y-102100891D01*
X112542934Y-100555959D01*
X112604010Y-100703411D01*
X112766525Y-100946632D01*
X112973368Y-101153475D01*
X113216589Y-101315990D01*
X113486842Y-101427932D01*
X113773740Y-101485000D01*
X114066260Y-101485000D01*
X114353158Y-101427932D01*
X114623411Y-101315990D01*
X114866632Y-101153475D01*
X115073475Y-100946632D01*
X115235990Y-100703411D01*
X115347932Y-100433158D01*
X115405000Y-100146260D01*
X115405000Y-99853740D01*
X115347932Y-99566842D01*
X115235990Y-99296589D01*
X115168110Y-99195000D01*
X115360883Y-99195000D01*
X115696081Y-99128325D01*
X116011831Y-98997537D01*
X116295998Y-98807663D01*
X116537663Y-98565998D01*
X116727537Y-98281831D01*
X116858325Y-97966081D01*
X116925000Y-97630883D01*
X116925000Y-97289117D01*
X116858325Y-96953919D01*
X116727537Y-96638169D01*
X116537663Y-96354002D01*
X116295998Y-96112337D01*
X116011831Y-95922463D01*
X115696081Y-95791675D01*
X115360883Y-95725000D01*
X115019117Y-95725000D01*
X114683919Y-95791675D01*
X114368169Y-95922463D01*
X114084002Y-96112337D01*
X113842337Y-96354002D01*
X113652463Y-96638169D01*
X113521675Y-96953919D01*
X113455000Y-97289117D01*
X113455000Y-97630883D01*
X113483189Y-97772599D01*
X113464008Y-97772599D01*
X113425343Y-97768791D01*
X113386678Y-97772599D01*
X113386670Y-97772599D01*
X113270986Y-97783993D01*
X113122560Y-97829017D01*
X112985770Y-97902133D01*
X112895913Y-97975877D01*
X112895910Y-97975880D01*
X112865874Y-98000530D01*
X112841224Y-98030566D01*
X109718016Y-101153776D01*
X109639759Y-101101486D01*
X109616858Y-101092000D01*
X109639759Y-101082514D01*
X109872727Y-100926850D01*
X110070850Y-100728727D01*
X110226514Y-100495759D01*
X110333738Y-100236899D01*
X110388400Y-99962094D01*
X110388400Y-99681906D01*
X110333738Y-99407101D01*
X110226514Y-99148241D01*
X110070850Y-98915273D01*
X109872727Y-98717150D01*
X109639759Y-98561486D01*
X109616858Y-98552000D01*
X109639759Y-98542514D01*
X109872727Y-98386850D01*
X110070850Y-98188727D01*
X110226514Y-97955759D01*
X110333738Y-97696899D01*
X110388400Y-97422094D01*
X110388400Y-97141906D01*
X110333738Y-96867101D01*
X110226514Y-96608241D01*
X110070850Y-96375273D01*
X109872727Y-96177150D01*
X109639759Y-96021486D01*
X109616858Y-96012000D01*
X109639759Y-96002514D01*
X109872727Y-95846850D01*
X110070850Y-95648727D01*
X110226514Y-95415759D01*
X110333738Y-95156899D01*
X110388400Y-94882094D01*
X110388400Y-94601906D01*
X110333738Y-94327101D01*
X110316216Y-94284799D01*
X119925158Y-94284799D01*
X119871675Y-94413919D01*
X119805000Y-94749117D01*
X119805000Y-95090883D01*
X119871675Y-95426081D01*
X120002463Y-95741831D01*
X120192337Y-96025998D01*
X120434002Y-96267663D01*
X120718169Y-96457537D01*
X120752600Y-96471799D01*
X120752600Y-96514306D01*
X120752601Y-96514316D01*
X120752600Y-98026147D01*
X120679715Y-97953262D01*
X120248141Y-97664893D01*
X119768601Y-97466261D01*
X119259525Y-97365000D01*
X118740475Y-97365000D01*
X118231399Y-97466261D01*
X117751859Y-97664893D01*
X117320285Y-97953262D01*
X116953262Y-98320285D01*
X116664893Y-98751859D01*
X116466261Y-99231399D01*
X116365000Y-99740475D01*
X116365000Y-100259525D01*
X116466261Y-100768601D01*
X116664893Y-101248141D01*
X116953262Y-101679715D01*
X117320285Y-102046738D01*
X117751859Y-102335107D01*
X118231399Y-102533739D01*
X118740475Y-102635000D01*
X119259525Y-102635000D01*
X119768601Y-102533739D01*
X120248141Y-102335107D01*
X120679715Y-102046738D01*
X121046738Y-101679715D01*
X121335107Y-101248141D01*
X121533739Y-100768601D01*
X121577980Y-100546188D01*
X126463219Y-105431428D01*
X126487873Y-105461469D01*
X126517912Y-105486121D01*
X126607769Y-105559866D01*
X126637503Y-105575759D01*
X126744559Y-105632982D01*
X126892985Y-105678006D01*
X127008669Y-105689400D01*
X127008677Y-105689400D01*
X127047342Y-105693208D01*
X127086007Y-105689400D01*
X127385048Y-105689400D01*
X121010578Y-112063872D01*
X120980531Y-112088531D01*
X120882134Y-112208429D01*
X120809283Y-112344722D01*
X120718169Y-112382463D01*
X120434002Y-112572337D01*
X120192337Y-112814002D01*
X120002463Y-113098169D01*
X119871675Y-113413919D01*
X119805000Y-113749117D01*
X119805000Y-114090883D01*
X119871675Y-114426081D01*
X120002463Y-114741831D01*
X120192337Y-115025998D01*
X120434002Y-115267663D01*
X120718169Y-115457537D01*
X121033919Y-115588325D01*
X121369117Y-115655000D01*
X121710883Y-115655000D01*
X122046081Y-115588325D01*
X122080513Y-115574063D01*
X124021449Y-117515000D01*
X123933740Y-117515000D01*
X123646842Y-117572068D01*
X123376589Y-117684010D01*
X123133368Y-117846525D01*
X122926525Y-118053368D01*
X122764010Y-118296589D01*
X122652068Y-118566842D01*
X122595000Y-118853740D01*
X122595000Y-119146260D01*
X122652068Y-119433158D01*
X122764010Y-119703411D01*
X122926525Y-119946632D01*
X123133368Y-120153475D01*
X123376589Y-120315990D01*
X123646842Y-120427932D01*
X123933740Y-120485000D01*
X124226260Y-120485000D01*
X124513158Y-120427932D01*
X124783411Y-120315990D01*
X125026632Y-120153475D01*
X125069600Y-120110507D01*
X125069601Y-128276848D01*
X122080513Y-131265937D01*
X122046081Y-131251675D01*
X121710883Y-131185000D01*
X121369117Y-131185000D01*
X121033919Y-131251675D01*
X120718169Y-131382463D01*
X120434002Y-131572337D01*
X120192337Y-131814002D01*
X120002463Y-132098169D01*
X119871675Y-132413919D01*
X119805000Y-132749117D01*
X119805000Y-133090883D01*
X119871675Y-133426081D01*
X120002463Y-133741831D01*
X120192337Y-134025998D01*
X120434002Y-134267663D01*
X120718169Y-134457537D01*
X121033919Y-134588325D01*
X121369117Y-134655000D01*
X121710883Y-134655000D01*
X122046081Y-134588325D01*
X122080513Y-134574063D01*
X124021449Y-136515000D01*
X123933740Y-136515000D01*
X123646842Y-136572068D01*
X123376589Y-136684010D01*
X123133368Y-136846525D01*
X122926525Y-137053368D01*
X122764010Y-137296589D01*
X122652068Y-137566842D01*
X122595000Y-137853740D01*
X122595000Y-138146260D01*
X122652068Y-138433158D01*
X122764010Y-138703411D01*
X122926525Y-138946632D01*
X123133368Y-139153475D01*
X123376589Y-139315990D01*
X123646842Y-139427932D01*
X123933740Y-139485000D01*
X124226260Y-139485000D01*
X124513158Y-139427932D01*
X124783411Y-139315990D01*
X124942600Y-139209623D01*
X124942601Y-147403848D01*
X122080513Y-150265937D01*
X122046081Y-150251675D01*
X121710883Y-150185000D01*
X121369117Y-150185000D01*
X121033919Y-150251675D01*
X120718169Y-150382463D01*
X120434002Y-150572337D01*
X120192337Y-150814002D01*
X120002463Y-151098169D01*
X119871675Y-151413919D01*
X119805000Y-151749117D01*
X119805000Y-152090883D01*
X119871675Y-152426081D01*
X120002463Y-152741831D01*
X120192337Y-153025998D01*
X120434002Y-153267663D01*
X120718169Y-153457537D01*
X121033919Y-153588325D01*
X121369117Y-153655000D01*
X121710883Y-153655000D01*
X122046081Y-153588325D01*
X122361831Y-153457537D01*
X122645998Y-153267663D01*
X122887663Y-153025998D01*
X123077537Y-152741831D01*
X123208325Y-152426081D01*
X123275000Y-152090883D01*
X123275000Y-151749117D01*
X123208325Y-151413919D01*
X123194063Y-151379487D01*
X126259428Y-148314123D01*
X126289469Y-148289469D01*
X126337835Y-148230535D01*
X126387866Y-148169573D01*
X126460982Y-148032783D01*
X126506006Y-147884357D01*
X126517400Y-147768673D01*
X126517400Y-147768663D01*
X126521208Y-147730000D01*
X126517400Y-147691337D01*
X126517400Y-137853740D01*
X131435000Y-137853740D01*
X131435000Y-138146260D01*
X131492068Y-138433158D01*
X131604010Y-138703411D01*
X131766525Y-138946632D01*
X131973368Y-139153475D01*
X132216589Y-139315990D01*
X132486842Y-139427932D01*
X132773740Y-139485000D01*
X133066260Y-139485000D01*
X133353158Y-139427932D01*
X133623411Y-139315990D01*
X133866632Y-139153475D01*
X134073475Y-138946632D01*
X134235990Y-138703411D01*
X134347932Y-138433158D01*
X134405000Y-138146260D01*
X134405000Y-137853740D01*
X134347932Y-137566842D01*
X134235990Y-137296589D01*
X134168110Y-137195000D01*
X134360883Y-137195000D01*
X134696081Y-137128325D01*
X135011831Y-136997537D01*
X135295998Y-136807663D01*
X135537663Y-136565998D01*
X135727537Y-136281831D01*
X135858325Y-135966081D01*
X135925000Y-135630883D01*
X135925000Y-135289117D01*
X135858325Y-134953919D01*
X135727537Y-134638169D01*
X135537663Y-134354002D01*
X135295998Y-134112337D01*
X135011831Y-133922463D01*
X134696081Y-133791675D01*
X134360883Y-133725000D01*
X134019117Y-133725000D01*
X133683919Y-133791675D01*
X133368169Y-133922463D01*
X133084002Y-134112337D01*
X132842337Y-134354002D01*
X132652463Y-134638169D01*
X132521675Y-134953919D01*
X132455000Y-135289117D01*
X132455000Y-135630883D01*
X132521675Y-135966081D01*
X132652463Y-136281831D01*
X132808261Y-136515000D01*
X132773740Y-136515000D01*
X132486842Y-136572068D01*
X132216589Y-136684010D01*
X131973368Y-136846525D01*
X131766525Y-137053368D01*
X131604010Y-137296589D01*
X131492068Y-137566842D01*
X131435000Y-137853740D01*
X126517400Y-137853740D01*
X126517400Y-137148663D01*
X126521208Y-137110000D01*
X126517400Y-137071337D01*
X126517400Y-137071327D01*
X126506006Y-136955643D01*
X126460982Y-136807217D01*
X126431392Y-136751859D01*
X126387866Y-136670427D01*
X126314121Y-136580570D01*
X126289469Y-136550531D01*
X126259429Y-136525878D01*
X123194063Y-133460513D01*
X123208325Y-133426081D01*
X123275000Y-133090883D01*
X123275000Y-132749117D01*
X123208325Y-132413919D01*
X123194063Y-132379487D01*
X126386428Y-129187123D01*
X126416469Y-129162469D01*
X126464835Y-129103535D01*
X126514866Y-129042573D01*
X126587982Y-128905783D01*
X126604222Y-128852245D01*
X126633006Y-128757357D01*
X126644400Y-128641673D01*
X126644400Y-128641663D01*
X126648208Y-128603000D01*
X126644400Y-128564337D01*
X126644400Y-118275663D01*
X126648208Y-118237000D01*
X126644400Y-118198337D01*
X126644400Y-118198327D01*
X126633006Y-118082643D01*
X126587982Y-117934217D01*
X126551157Y-117865323D01*
X126514866Y-117797427D01*
X126441121Y-117707570D01*
X126416469Y-117677531D01*
X126386429Y-117652878D01*
X123194063Y-114460513D01*
X123208325Y-114426081D01*
X123275000Y-114090883D01*
X123275000Y-113749117D01*
X123208325Y-113413919D01*
X123077537Y-113098169D01*
X122887663Y-112814002D01*
X122687606Y-112613945D01*
X127863600Y-107437951D01*
X127863600Y-107582094D01*
X127918262Y-107856899D01*
X128025486Y-108115759D01*
X128181150Y-108348727D01*
X128379273Y-108546850D01*
X128612241Y-108702514D01*
X128635142Y-108712000D01*
X128612241Y-108721486D01*
X128379273Y-108877150D01*
X128181150Y-109075273D01*
X128025486Y-109308241D01*
X127918262Y-109567101D01*
X127863600Y-109841906D01*
X127863600Y-110122094D01*
X127918262Y-110396899D01*
X128025486Y-110655759D01*
X128181150Y-110888727D01*
X128379273Y-111086850D01*
X128612241Y-111242514D01*
X128635142Y-111252000D01*
X128612241Y-111261486D01*
X128379273Y-111417150D01*
X128181150Y-111615273D01*
X128025486Y-111848241D01*
X127918262Y-112107101D01*
X127863600Y-112381906D01*
X127863600Y-112662094D01*
X127918262Y-112936899D01*
X128025486Y-113195759D01*
X128181150Y-113428727D01*
X128379273Y-113626850D01*
X128612241Y-113782514D01*
X128635142Y-113792000D01*
X128612241Y-113801486D01*
X128379273Y-113957150D01*
X128181150Y-114155273D01*
X128025486Y-114388241D01*
X127918262Y-114647101D01*
X127863600Y-114921906D01*
X127863600Y-115202094D01*
X127918262Y-115476899D01*
X128025486Y-115735759D01*
X128181150Y-115968727D01*
X128379273Y-116166850D01*
X128612241Y-116322514D01*
X128635142Y-116332000D01*
X128612241Y-116341486D01*
X128379273Y-116497150D01*
X128181150Y-116695273D01*
X128025486Y-116928241D01*
X127918262Y-117187101D01*
X127863600Y-117461906D01*
X127863600Y-117742094D01*
X127918262Y-118016899D01*
X128025486Y-118275759D01*
X128181150Y-118508727D01*
X128379273Y-118706850D01*
X128612241Y-118862514D01*
X128635142Y-118872000D01*
X128612241Y-118881486D01*
X128379273Y-119037150D01*
X128181150Y-119235273D01*
X128025486Y-119468241D01*
X127918262Y-119727101D01*
X127863600Y-120001906D01*
X127863600Y-120282094D01*
X127918262Y-120556899D01*
X128025486Y-120815759D01*
X128181150Y-121048727D01*
X128379273Y-121246850D01*
X128612241Y-121402514D01*
X128871101Y-121509738D01*
X129145906Y-121564400D01*
X129426094Y-121564400D01*
X129700899Y-121509738D01*
X129959759Y-121402514D01*
X130192727Y-121246850D01*
X130390850Y-121048727D01*
X130546514Y-120815759D01*
X130653738Y-120556899D01*
X130708400Y-120282094D01*
X130708400Y-120001906D01*
X130653738Y-119727101D01*
X130546514Y-119468241D01*
X130390850Y-119235273D01*
X130192727Y-119037150D01*
X129959759Y-118881486D01*
X129936858Y-118872000D01*
X129959759Y-118862514D01*
X129972890Y-118853740D01*
X131435000Y-118853740D01*
X131435000Y-119146260D01*
X131492068Y-119433158D01*
X131604010Y-119703411D01*
X131766525Y-119946632D01*
X131973368Y-120153475D01*
X132216589Y-120315990D01*
X132486842Y-120427932D01*
X132773740Y-120485000D01*
X133066260Y-120485000D01*
X133353158Y-120427932D01*
X133623411Y-120315990D01*
X133866632Y-120153475D01*
X134073475Y-119946632D01*
X134235990Y-119703411D01*
X134347932Y-119433158D01*
X134405000Y-119146260D01*
X134405000Y-118853740D01*
X134347932Y-118566842D01*
X134235990Y-118296589D01*
X134168110Y-118195000D01*
X134360883Y-118195000D01*
X134696081Y-118128325D01*
X135011831Y-117997537D01*
X135295998Y-117807663D01*
X135537663Y-117565998D01*
X135727537Y-117281831D01*
X135858325Y-116966081D01*
X135925000Y-116630883D01*
X135925000Y-116289117D01*
X135858325Y-115953919D01*
X135727537Y-115638169D01*
X135537663Y-115354002D01*
X135295998Y-115112337D01*
X135011831Y-114922463D01*
X134696081Y-114791675D01*
X134360883Y-114725000D01*
X134019117Y-114725000D01*
X133683919Y-114791675D01*
X133368169Y-114922463D01*
X133084002Y-115112337D01*
X132842337Y-115354002D01*
X132652463Y-115638169D01*
X132521675Y-115953919D01*
X132455000Y-116289117D01*
X132455000Y-116630883D01*
X132521675Y-116966081D01*
X132652463Y-117281831D01*
X132808261Y-117515000D01*
X132773740Y-117515000D01*
X132486842Y-117572068D01*
X132216589Y-117684010D01*
X131973368Y-117846525D01*
X131766525Y-118053368D01*
X131604010Y-118296589D01*
X131492068Y-118566842D01*
X131435000Y-118853740D01*
X129972890Y-118853740D01*
X130192727Y-118706850D01*
X130390850Y-118508727D01*
X130546514Y-118275759D01*
X130653738Y-118016899D01*
X130708400Y-117742094D01*
X130708400Y-117461906D01*
X130653738Y-117187101D01*
X130546514Y-116928241D01*
X130390850Y-116695273D01*
X130192727Y-116497150D01*
X129959759Y-116341486D01*
X129936858Y-116332000D01*
X129959759Y-116322514D01*
X130192727Y-116166850D01*
X130390850Y-115968727D01*
X130546514Y-115735759D01*
X130653738Y-115476899D01*
X130708400Y-115202094D01*
X130708400Y-114921906D01*
X130653738Y-114647101D01*
X130546514Y-114388241D01*
X130390850Y-114155273D01*
X130192727Y-113957150D01*
X129959759Y-113801486D01*
X129936858Y-113792000D01*
X129959759Y-113782514D01*
X130192727Y-113626850D01*
X130390850Y-113428727D01*
X130546514Y-113195759D01*
X130653738Y-112936899D01*
X130708400Y-112662094D01*
X130708400Y-112381906D01*
X130653738Y-112107101D01*
X130546514Y-111848241D01*
X130390850Y-111615273D01*
X130192727Y-111417150D01*
X129959759Y-111261486D01*
X129936858Y-111252000D01*
X129959759Y-111242514D01*
X130192727Y-111086850D01*
X130390850Y-110888727D01*
X130546514Y-110655759D01*
X130653738Y-110396899D01*
X130708400Y-110122094D01*
X130708400Y-109841906D01*
X130653738Y-109567101D01*
X130546514Y-109308241D01*
X130390850Y-109075273D01*
X130192727Y-108877150D01*
X129959759Y-108721486D01*
X129936858Y-108712000D01*
X129959759Y-108702514D01*
X130192727Y-108546850D01*
X130390850Y-108348727D01*
X130546514Y-108115759D01*
X130653738Y-107856899D01*
X130708400Y-107582094D01*
X130708400Y-107301906D01*
X130680402Y-107161149D01*
X131060028Y-106781523D01*
X131090070Y-106756868D01*
X131188467Y-106636971D01*
X131261583Y-106500182D01*
X131306607Y-106351756D01*
X131318001Y-106236072D01*
X131318001Y-106236063D01*
X131321809Y-106197400D01*
X131318001Y-106158737D01*
X131318001Y-104343254D01*
X131321809Y-104304591D01*
X131318001Y-104265928D01*
X131318001Y-104265918D01*
X131306607Y-104150234D01*
X131261583Y-104001808D01*
X131212181Y-103909384D01*
X131188467Y-103865018D01*
X131132768Y-103797150D01*
X131090070Y-103745122D01*
X131060030Y-103720469D01*
X130477943Y-103138383D01*
X130546514Y-103035759D01*
X130653738Y-102776899D01*
X130708400Y-102502094D01*
X130708400Y-102221906D01*
X130680402Y-102081149D01*
X131060035Y-101701517D01*
X131090070Y-101676868D01*
X131114720Y-101646832D01*
X131114723Y-101646829D01*
X131188467Y-101556971D01*
X131261583Y-101420182D01*
X131306607Y-101271756D01*
X131306607Y-101271755D01*
X131318001Y-101156072D01*
X131318001Y-101156064D01*
X131321809Y-101117399D01*
X131318001Y-101078734D01*
X131318001Y-99792549D01*
X131479245Y-99631305D01*
X131435000Y-99853740D01*
X131435000Y-100146260D01*
X131492068Y-100433158D01*
X131604010Y-100703411D01*
X131766525Y-100946632D01*
X131973368Y-101153475D01*
X132216589Y-101315990D01*
X132486842Y-101427932D01*
X132773740Y-101485000D01*
X133066260Y-101485000D01*
X133353158Y-101427932D01*
X133623411Y-101315990D01*
X133866632Y-101153475D01*
X134073475Y-100946632D01*
X134235990Y-100703411D01*
X134347932Y-100433158D01*
X134405000Y-100146260D01*
X134405000Y-99853740D01*
X134347932Y-99566842D01*
X134235990Y-99296589D01*
X134168110Y-99195000D01*
X134360883Y-99195000D01*
X134696081Y-99128325D01*
X135011831Y-98997537D01*
X135295998Y-98807663D01*
X135537663Y-98565998D01*
X135727537Y-98281831D01*
X135858325Y-97966081D01*
X135925000Y-97630883D01*
X135925000Y-97289117D01*
X135858325Y-96953919D01*
X135727537Y-96638169D01*
X135537663Y-96354002D01*
X135295998Y-96112337D01*
X135011831Y-95922463D01*
X134696081Y-95791675D01*
X134672007Y-95786886D01*
X134751494Y-95707400D01*
X138988201Y-95707400D01*
X139002463Y-95741831D01*
X139192337Y-96025998D01*
X139434002Y-96267663D01*
X139718169Y-96457537D01*
X139752601Y-96471799D01*
X139752601Y-98026148D01*
X139679715Y-97953262D01*
X139248141Y-97664893D01*
X138768601Y-97466261D01*
X138259525Y-97365000D01*
X137740475Y-97365000D01*
X137231399Y-97466261D01*
X136751859Y-97664893D01*
X136320285Y-97953262D01*
X135953262Y-98320285D01*
X135664893Y-98751859D01*
X135466261Y-99231399D01*
X135365000Y-99740475D01*
X135365000Y-100259525D01*
X135466261Y-100768601D01*
X135664893Y-101248141D01*
X135953262Y-101679715D01*
X136320285Y-102046738D01*
X136751859Y-102335107D01*
X137231399Y-102533739D01*
X137740475Y-102635000D01*
X138259525Y-102635000D01*
X138768601Y-102533739D01*
X139248141Y-102335107D01*
X139679715Y-102046738D01*
X139752600Y-101973853D01*
X139752600Y-103338672D01*
X139752601Y-103338682D01*
X139752601Y-112368201D01*
X139718169Y-112382463D01*
X139434002Y-112572337D01*
X139192337Y-112814002D01*
X139002463Y-113098169D01*
X138871675Y-113413919D01*
X138805000Y-113749117D01*
X138805000Y-114090883D01*
X138871675Y-114426081D01*
X139002463Y-114741831D01*
X139192337Y-115025998D01*
X139434002Y-115267663D01*
X139718169Y-115457537D01*
X139752601Y-115471799D01*
X139752601Y-117026148D01*
X139679715Y-116953262D01*
X139248141Y-116664893D01*
X138768601Y-116466261D01*
X138259525Y-116365000D01*
X137740475Y-116365000D01*
X137231399Y-116466261D01*
X136751859Y-116664893D01*
X136320285Y-116953262D01*
X135953262Y-117320285D01*
X135664893Y-117751859D01*
X135466261Y-118231399D01*
X135365000Y-118740475D01*
X135365000Y-119259525D01*
X135466261Y-119768601D01*
X135664893Y-120248141D01*
X135953262Y-120679715D01*
X136320285Y-121046738D01*
X136751859Y-121335107D01*
X137231399Y-121533739D01*
X137740475Y-121635000D01*
X138259525Y-121635000D01*
X138768601Y-121533739D01*
X139248141Y-121335107D01*
X139679715Y-121046738D01*
X139752601Y-120973852D01*
X139752600Y-131368201D01*
X139718169Y-131382463D01*
X139434002Y-131572337D01*
X139192337Y-131814002D01*
X139002463Y-132098169D01*
X138871675Y-132413919D01*
X138805000Y-132749117D01*
X138805000Y-133090883D01*
X138871675Y-133426081D01*
X139002463Y-133741831D01*
X139192337Y-134025998D01*
X139434002Y-134267663D01*
X139718169Y-134457537D01*
X139752600Y-134471799D01*
X139752600Y-136026147D01*
X139679715Y-135953262D01*
X139248141Y-135664893D01*
X138768601Y-135466261D01*
X138259525Y-135365000D01*
X137740475Y-135365000D01*
X137231399Y-135466261D01*
X136751859Y-135664893D01*
X136320285Y-135953262D01*
X135953262Y-136320285D01*
X135664893Y-136751859D01*
X135466261Y-137231399D01*
X135365000Y-137740475D01*
X135365000Y-138259525D01*
X135466261Y-138768601D01*
X135664893Y-139248141D01*
X135953262Y-139679715D01*
X136320285Y-140046738D01*
X136751859Y-140335107D01*
X137231399Y-140533739D01*
X137740475Y-140635000D01*
X138259525Y-140635000D01*
X138768601Y-140533739D01*
X139248141Y-140335107D01*
X139679715Y-140046738D01*
X139752600Y-139973853D01*
X139752600Y-150368201D01*
X139718169Y-150382463D01*
X139434002Y-150572337D01*
X139192337Y-150814002D01*
X139002463Y-151098169D01*
X138871675Y-151413919D01*
X138805000Y-151749117D01*
X138805000Y-152090883D01*
X138871675Y-152426081D01*
X139002463Y-152741831D01*
X139192337Y-153025998D01*
X139434002Y-153267663D01*
X139718169Y-153457537D01*
X140033919Y-153588325D01*
X140369117Y-153655000D01*
X140710883Y-153655000D01*
X141046081Y-153588325D01*
X141361831Y-153457537D01*
X141645998Y-153267663D01*
X141887663Y-153025998D01*
X142077537Y-152741831D01*
X142208325Y-152426081D01*
X142275000Y-152090883D01*
X142275000Y-151749117D01*
X142208325Y-151413919D01*
X142077537Y-151098169D01*
X141887663Y-150814002D01*
X141645998Y-150572337D01*
X141361831Y-150382463D01*
X141327400Y-150368201D01*
X141327400Y-137853740D01*
X141595000Y-137853740D01*
X141595000Y-138146260D01*
X141652068Y-138433158D01*
X141764010Y-138703411D01*
X141926525Y-138946632D01*
X142133368Y-139153475D01*
X142376589Y-139315990D01*
X142646842Y-139427932D01*
X142933740Y-139485000D01*
X143226260Y-139485000D01*
X143513158Y-139427932D01*
X143783411Y-139315990D01*
X144026632Y-139153475D01*
X144233475Y-138946632D01*
X144395990Y-138703411D01*
X144507932Y-138433158D01*
X144565000Y-138146260D01*
X144565000Y-137853740D01*
X150435000Y-137853740D01*
X150435000Y-138146260D01*
X150492068Y-138433158D01*
X150604010Y-138703411D01*
X150766525Y-138946632D01*
X150973368Y-139153475D01*
X151216589Y-139315990D01*
X151486842Y-139427932D01*
X151773740Y-139485000D01*
X152066260Y-139485000D01*
X152353158Y-139427932D01*
X152623411Y-139315990D01*
X152866632Y-139153475D01*
X153073475Y-138946632D01*
X153235990Y-138703411D01*
X153347932Y-138433158D01*
X153405000Y-138146260D01*
X153405000Y-137853740D01*
X153347932Y-137566842D01*
X153235990Y-137296589D01*
X153168110Y-137195000D01*
X153360883Y-137195000D01*
X153696081Y-137128325D01*
X154011831Y-136997537D01*
X154295998Y-136807663D01*
X154537663Y-136565998D01*
X154727537Y-136281831D01*
X154858325Y-135966081D01*
X154925000Y-135630883D01*
X154925000Y-135289117D01*
X154858325Y-134953919D01*
X154727537Y-134638169D01*
X154537663Y-134354002D01*
X154295998Y-134112337D01*
X154011831Y-133922463D01*
X153696081Y-133791675D01*
X153360883Y-133725000D01*
X153019117Y-133725000D01*
X152683919Y-133791675D01*
X152368169Y-133922463D01*
X152084002Y-134112337D01*
X151842337Y-134354002D01*
X151652463Y-134638169D01*
X151521675Y-134953919D01*
X151455000Y-135289117D01*
X151455000Y-135630883D01*
X151521675Y-135966081D01*
X151652463Y-136281831D01*
X151808261Y-136515000D01*
X151773740Y-136515000D01*
X151486842Y-136572068D01*
X151216589Y-136684010D01*
X150973368Y-136846525D01*
X150766525Y-137053368D01*
X150604010Y-137296589D01*
X150492068Y-137566842D01*
X150435000Y-137853740D01*
X144565000Y-137853740D01*
X144507932Y-137566842D01*
X144395990Y-137296589D01*
X144233475Y-137053368D01*
X144026632Y-136846525D01*
X143783411Y-136684010D01*
X143513158Y-136572068D01*
X143226260Y-136515000D01*
X142933740Y-136515000D01*
X142646842Y-136572068D01*
X142376589Y-136684010D01*
X142133368Y-136846525D01*
X141926525Y-137053368D01*
X141764010Y-137296589D01*
X141652068Y-137566842D01*
X141595000Y-137853740D01*
X141327400Y-137853740D01*
X141327400Y-134471799D01*
X141361831Y-134457537D01*
X141645998Y-134267663D01*
X141887663Y-134025998D01*
X142077537Y-133741831D01*
X142208325Y-133426081D01*
X142275000Y-133090883D01*
X142275000Y-132749117D01*
X142208325Y-132413919D01*
X142077537Y-132098169D01*
X141887663Y-131814002D01*
X141645998Y-131572337D01*
X141361831Y-131382463D01*
X141327400Y-131368201D01*
X141327400Y-118853740D01*
X141595000Y-118853740D01*
X141595000Y-119146260D01*
X141652068Y-119433158D01*
X141764010Y-119703411D01*
X141926525Y-119946632D01*
X142133368Y-120153475D01*
X142376589Y-120315990D01*
X142646842Y-120427932D01*
X142933740Y-120485000D01*
X143226260Y-120485000D01*
X143513158Y-120427932D01*
X143783411Y-120315990D01*
X144026632Y-120153475D01*
X144233475Y-119946632D01*
X144395990Y-119703411D01*
X144507932Y-119433158D01*
X144565000Y-119146260D01*
X144565000Y-118853740D01*
X150435000Y-118853740D01*
X150435000Y-119146260D01*
X150492068Y-119433158D01*
X150604010Y-119703411D01*
X150766525Y-119946632D01*
X150973368Y-120153475D01*
X151216589Y-120315990D01*
X151486842Y-120427932D01*
X151773740Y-120485000D01*
X152066260Y-120485000D01*
X152353158Y-120427932D01*
X152623411Y-120315990D01*
X152866632Y-120153475D01*
X153073475Y-119946632D01*
X153235990Y-119703411D01*
X153347932Y-119433158D01*
X153405000Y-119146260D01*
X153405000Y-118853740D01*
X153347932Y-118566842D01*
X153235990Y-118296589D01*
X153168110Y-118195000D01*
X153360883Y-118195000D01*
X153696081Y-118128325D01*
X154011831Y-117997537D01*
X154295998Y-117807663D01*
X154537663Y-117565998D01*
X154727537Y-117281831D01*
X154858325Y-116966081D01*
X154925000Y-116630883D01*
X154925000Y-116289117D01*
X154858325Y-115953919D01*
X154727537Y-115638169D01*
X154537663Y-115354002D01*
X154295998Y-115112337D01*
X154011831Y-114922463D01*
X153696081Y-114791675D01*
X153360883Y-114725000D01*
X153019117Y-114725000D01*
X152683919Y-114791675D01*
X152368169Y-114922463D01*
X152084002Y-115112337D01*
X151842337Y-115354002D01*
X151652463Y-115638169D01*
X151521675Y-115953919D01*
X151455000Y-116289117D01*
X151455000Y-116630883D01*
X151521675Y-116966081D01*
X151652463Y-117281831D01*
X151808261Y-117515000D01*
X151773740Y-117515000D01*
X151486842Y-117572068D01*
X151216589Y-117684010D01*
X150973368Y-117846525D01*
X150766525Y-118053368D01*
X150604010Y-118296589D01*
X150492068Y-118566842D01*
X150435000Y-118853740D01*
X144565000Y-118853740D01*
X144507932Y-118566842D01*
X144395990Y-118296589D01*
X144233475Y-118053368D01*
X144026632Y-117846525D01*
X143783411Y-117684010D01*
X143513158Y-117572068D01*
X143226260Y-117515000D01*
X142933740Y-117515000D01*
X142646842Y-117572068D01*
X142376589Y-117684010D01*
X142133368Y-117846525D01*
X141926525Y-118053368D01*
X141764010Y-118296589D01*
X141652068Y-118566842D01*
X141595000Y-118853740D01*
X141327400Y-118853740D01*
X141327400Y-115471799D01*
X141361831Y-115457537D01*
X141645998Y-115267663D01*
X141887663Y-115025998D01*
X142077537Y-114741831D01*
X142208325Y-114426081D01*
X142275000Y-114090883D01*
X142275000Y-113749117D01*
X142208325Y-113413919D01*
X142077537Y-113098169D01*
X141887663Y-112814002D01*
X141645998Y-112572337D01*
X141361831Y-112382463D01*
X141327400Y-112368201D01*
X141327400Y-99853740D01*
X141595000Y-99853740D01*
X141595000Y-100146260D01*
X141652068Y-100433158D01*
X141764010Y-100703411D01*
X141926525Y-100946632D01*
X142133368Y-101153475D01*
X142376589Y-101315990D01*
X142646842Y-101427932D01*
X142933740Y-101485000D01*
X143226260Y-101485000D01*
X143513158Y-101427932D01*
X143783411Y-101315990D01*
X144026632Y-101153475D01*
X144233475Y-100946632D01*
X144395990Y-100703411D01*
X144507932Y-100433158D01*
X144565000Y-100146260D01*
X144565000Y-99853740D01*
X150435000Y-99853740D01*
X150435000Y-100146260D01*
X150492068Y-100433158D01*
X150604010Y-100703411D01*
X150766525Y-100946632D01*
X150973368Y-101153475D01*
X151216589Y-101315990D01*
X151486842Y-101427932D01*
X151773740Y-101485000D01*
X152066260Y-101485000D01*
X152353158Y-101427932D01*
X152623411Y-101315990D01*
X152866632Y-101153475D01*
X153073475Y-100946632D01*
X153235990Y-100703411D01*
X153347932Y-100433158D01*
X153405000Y-100146260D01*
X153405000Y-99853740D01*
X153347932Y-99566842D01*
X153235990Y-99296589D01*
X153168110Y-99195000D01*
X153360883Y-99195000D01*
X153696081Y-99128325D01*
X154011831Y-98997537D01*
X154295998Y-98807663D01*
X154537663Y-98565998D01*
X154727537Y-98281831D01*
X154858325Y-97966081D01*
X154925000Y-97630883D01*
X154925000Y-97289117D01*
X154858325Y-96953919D01*
X154727537Y-96638169D01*
X154537663Y-96354002D01*
X154295998Y-96112337D01*
X154011831Y-95922463D01*
X153696081Y-95791675D01*
X153360883Y-95725000D01*
X153019117Y-95725000D01*
X152683919Y-95791675D01*
X152368169Y-95922463D01*
X152084002Y-96112337D01*
X151842337Y-96354002D01*
X151652463Y-96638169D01*
X151521675Y-96953919D01*
X151455000Y-97289117D01*
X151455000Y-97630883D01*
X151521675Y-97966081D01*
X151652463Y-98281831D01*
X151808261Y-98515000D01*
X151773740Y-98515000D01*
X151486842Y-98572068D01*
X151216589Y-98684010D01*
X150973368Y-98846525D01*
X150766525Y-99053368D01*
X150604010Y-99296589D01*
X150492068Y-99566842D01*
X150435000Y-99853740D01*
X144565000Y-99853740D01*
X144507932Y-99566842D01*
X144395990Y-99296589D01*
X144233475Y-99053368D01*
X144026632Y-98846525D01*
X143783411Y-98684010D01*
X143513158Y-98572068D01*
X143226260Y-98515000D01*
X142933740Y-98515000D01*
X142646842Y-98572068D01*
X142376589Y-98684010D01*
X142133368Y-98846525D01*
X141926525Y-99053368D01*
X141764010Y-99296589D01*
X141652068Y-99566842D01*
X141595000Y-99853740D01*
X141327400Y-99853740D01*
X141327400Y-96471799D01*
X141361831Y-96457537D01*
X141645998Y-96267663D01*
X141887663Y-96025998D01*
X142077537Y-95741831D01*
X142208325Y-95426081D01*
X142275000Y-95090883D01*
X142275000Y-94749117D01*
X142208325Y-94413919D01*
X142077537Y-94098169D01*
X141887663Y-93814002D01*
X141645998Y-93572337D01*
X141361831Y-93382463D01*
X141046081Y-93251675D01*
X140710883Y-93185000D01*
X140369117Y-93185000D01*
X140033919Y-93251675D01*
X139718169Y-93382463D01*
X139434002Y-93572337D01*
X139192337Y-93814002D01*
X139002463Y-94098169D01*
X138988201Y-94132600D01*
X135464174Y-94132600D01*
X136480374Y-93116400D01*
X156622850Y-93116400D01*
X157885937Y-94379488D01*
X157871675Y-94413919D01*
X157805000Y-94749117D01*
X157805000Y-95090883D01*
X157871675Y-95426081D01*
X158002463Y-95741831D01*
X158192337Y-96025998D01*
X158434002Y-96267663D01*
X158718169Y-96457537D01*
X158752600Y-96471799D01*
X158752600Y-98026147D01*
X158679715Y-97953262D01*
X158248141Y-97664893D01*
X157768601Y-97466261D01*
X157259525Y-97365000D01*
X156740475Y-97365000D01*
X156231399Y-97466261D01*
X155751859Y-97664893D01*
X155320285Y-97953262D01*
X154953262Y-98320285D01*
X154664893Y-98751859D01*
X154466261Y-99231399D01*
X154365000Y-99740475D01*
X154365000Y-100259525D01*
X154466261Y-100768601D01*
X154664893Y-101248141D01*
X154953262Y-101679715D01*
X155320285Y-102046738D01*
X155751859Y-102335107D01*
X156231399Y-102533739D01*
X156740475Y-102635000D01*
X157259525Y-102635000D01*
X157768601Y-102533739D01*
X158248141Y-102335107D01*
X158679715Y-102046738D01*
X158752600Y-101973853D01*
X158752601Y-112368201D01*
X158718169Y-112382463D01*
X158434002Y-112572337D01*
X158192337Y-112814002D01*
X158002463Y-113098169D01*
X157871675Y-113413919D01*
X157805000Y-113749117D01*
X157805000Y-114090883D01*
X157871675Y-114426081D01*
X158002463Y-114741831D01*
X158192337Y-115025998D01*
X158434002Y-115267663D01*
X158718169Y-115457537D01*
X158752600Y-115471799D01*
X158752600Y-117026147D01*
X158679715Y-116953262D01*
X158248141Y-116664893D01*
X157768601Y-116466261D01*
X157259525Y-116365000D01*
X156740475Y-116365000D01*
X156231399Y-116466261D01*
X155751859Y-116664893D01*
X155320285Y-116953262D01*
X154953262Y-117320285D01*
X154664893Y-117751859D01*
X154466261Y-118231399D01*
X154365000Y-118740475D01*
X154365000Y-119259525D01*
X154466261Y-119768601D01*
X154664893Y-120248141D01*
X154953262Y-120679715D01*
X155320285Y-121046738D01*
X155751859Y-121335107D01*
X156231399Y-121533739D01*
X156740475Y-121635000D01*
X157259525Y-121635000D01*
X157768601Y-121533739D01*
X158248141Y-121335107D01*
X158679715Y-121046738D01*
X158752600Y-120973853D01*
X158752600Y-131368201D01*
X158718169Y-131382463D01*
X158434002Y-131572337D01*
X158192337Y-131814002D01*
X158002463Y-132098169D01*
X157871675Y-132413919D01*
X157805000Y-132749117D01*
X157805000Y-133090883D01*
X157871675Y-133426081D01*
X158002463Y-133741831D01*
X158192337Y-134025998D01*
X158434002Y-134267663D01*
X158718169Y-134457537D01*
X158752601Y-134471799D01*
X158752601Y-136026148D01*
X158679715Y-135953262D01*
X158248141Y-135664893D01*
X157768601Y-135466261D01*
X157259525Y-135365000D01*
X156740475Y-135365000D01*
X156231399Y-135466261D01*
X155751859Y-135664893D01*
X155320285Y-135953262D01*
X154953262Y-136320285D01*
X154664893Y-136751859D01*
X154466261Y-137231399D01*
X154365000Y-137740475D01*
X154365000Y-138259525D01*
X154466261Y-138768601D01*
X154664893Y-139248141D01*
X154953262Y-139679715D01*
X155320285Y-140046738D01*
X155751859Y-140335107D01*
X156231399Y-140533739D01*
X156740475Y-140635000D01*
X157259525Y-140635000D01*
X157768601Y-140533739D01*
X158248141Y-140335107D01*
X158679715Y-140046738D01*
X158752601Y-139973852D01*
X158752601Y-150368201D01*
X158718169Y-150382463D01*
X158434002Y-150572337D01*
X158192337Y-150814002D01*
X158002463Y-151098169D01*
X157871675Y-151413919D01*
X157805000Y-151749117D01*
X157805000Y-152090883D01*
X157871675Y-152426081D01*
X158002463Y-152741831D01*
X158192337Y-153025998D01*
X158434002Y-153267663D01*
X158718169Y-153457537D01*
X159033919Y-153588325D01*
X159369117Y-153655000D01*
X159710883Y-153655000D01*
X160046081Y-153588325D01*
X160361831Y-153457537D01*
X160645998Y-153267663D01*
X160887663Y-153025998D01*
X161077537Y-152741831D01*
X161208325Y-152426081D01*
X161275000Y-152090883D01*
X161275000Y-151749117D01*
X161208325Y-151413919D01*
X161077537Y-151098169D01*
X160887663Y-150814002D01*
X160645998Y-150572337D01*
X160361831Y-150382463D01*
X160327400Y-150368201D01*
X160327400Y-137853740D01*
X160595000Y-137853740D01*
X160595000Y-138146260D01*
X160652068Y-138433158D01*
X160764010Y-138703411D01*
X160926525Y-138946632D01*
X161133368Y-139153475D01*
X161376589Y-139315990D01*
X161646842Y-139427932D01*
X161933740Y-139485000D01*
X162226260Y-139485000D01*
X162513158Y-139427932D01*
X162783411Y-139315990D01*
X163026632Y-139153475D01*
X163233475Y-138946632D01*
X163395990Y-138703411D01*
X163507932Y-138433158D01*
X163565000Y-138146260D01*
X163565000Y-137853740D01*
X163507932Y-137566842D01*
X163395990Y-137296589D01*
X163233475Y-137053368D01*
X163026632Y-136846525D01*
X162783411Y-136684010D01*
X162513158Y-136572068D01*
X162226260Y-136515000D01*
X161933740Y-136515000D01*
X161646842Y-136572068D01*
X161376589Y-136684010D01*
X161133368Y-136846525D01*
X160926525Y-137053368D01*
X160764010Y-137296589D01*
X160652068Y-137566842D01*
X160595000Y-137853740D01*
X160327400Y-137853740D01*
X160327400Y-134471799D01*
X160361831Y-134457537D01*
X160645998Y-134267663D01*
X160887663Y-134025998D01*
X161077537Y-133741831D01*
X161208325Y-133426081D01*
X161275000Y-133090883D01*
X161275000Y-132749117D01*
X161208325Y-132413919D01*
X161077537Y-132098169D01*
X160887663Y-131814002D01*
X160645998Y-131572337D01*
X160361831Y-131382463D01*
X160327400Y-131368201D01*
X160327400Y-118853740D01*
X160595000Y-118853740D01*
X160595000Y-119146260D01*
X160652068Y-119433158D01*
X160764010Y-119703411D01*
X160926525Y-119946632D01*
X161133368Y-120153475D01*
X161376589Y-120315990D01*
X161646842Y-120427932D01*
X161933740Y-120485000D01*
X162226260Y-120485000D01*
X162513158Y-120427932D01*
X162783411Y-120315990D01*
X163026632Y-120153475D01*
X163233475Y-119946632D01*
X163395990Y-119703411D01*
X163507932Y-119433158D01*
X163565000Y-119146260D01*
X163565000Y-118853740D01*
X163507932Y-118566842D01*
X163395990Y-118296589D01*
X163233475Y-118053368D01*
X163026632Y-117846525D01*
X162783411Y-117684010D01*
X162513158Y-117572068D01*
X162226260Y-117515000D01*
X161933740Y-117515000D01*
X161646842Y-117572068D01*
X161376589Y-117684010D01*
X161133368Y-117846525D01*
X160926525Y-118053368D01*
X160764010Y-118296589D01*
X160652068Y-118566842D01*
X160595000Y-118853740D01*
X160327400Y-118853740D01*
X160327400Y-115471799D01*
X160361831Y-115457537D01*
X160645998Y-115267663D01*
X160887663Y-115025998D01*
X161077537Y-114741831D01*
X161208325Y-114426081D01*
X161275000Y-114090883D01*
X161275000Y-113749117D01*
X161208325Y-113413919D01*
X161077537Y-113098169D01*
X160887663Y-112814002D01*
X160645998Y-112572337D01*
X160361831Y-112382463D01*
X160327400Y-112368201D01*
X160327400Y-99853740D01*
X160595000Y-99853740D01*
X160595000Y-100146260D01*
X160652068Y-100433158D01*
X160764010Y-100703411D01*
X160926525Y-100946632D01*
X161133368Y-101153475D01*
X161376589Y-101315990D01*
X161646842Y-101427932D01*
X161933740Y-101485000D01*
X162226260Y-101485000D01*
X162513158Y-101427932D01*
X162783411Y-101315990D01*
X163026632Y-101153475D01*
X163233475Y-100946632D01*
X163395990Y-100703411D01*
X163507932Y-100433158D01*
X163565000Y-100146260D01*
X163565000Y-99853740D01*
X163507932Y-99566842D01*
X163395990Y-99296589D01*
X163233475Y-99053368D01*
X163026632Y-98846525D01*
X162783411Y-98684010D01*
X162513158Y-98572068D01*
X162226260Y-98515000D01*
X161933740Y-98515000D01*
X161646842Y-98572068D01*
X161376589Y-98684010D01*
X161133368Y-98846525D01*
X160926525Y-99053368D01*
X160764010Y-99296589D01*
X160652068Y-99566842D01*
X160595000Y-99853740D01*
X160327400Y-99853740D01*
X160327400Y-96471799D01*
X160361831Y-96457537D01*
X160645998Y-96267663D01*
X160887663Y-96025998D01*
X161077537Y-95741831D01*
X161208325Y-95426081D01*
X161275000Y-95090883D01*
X161275000Y-94749117D01*
X161208325Y-94413919D01*
X161077537Y-94098169D01*
X160887663Y-93814002D01*
X160645998Y-93572337D01*
X160361831Y-93382463D01*
X160046081Y-93251675D01*
X159710883Y-93185000D01*
X159369117Y-93185000D01*
X159033919Y-93251675D01*
X158999488Y-93265937D01*
X157533128Y-91799578D01*
X157508469Y-91769531D01*
X157388572Y-91671134D01*
X157251783Y-91598018D01*
X157103357Y-91552994D01*
X156987673Y-91541600D01*
X156987663Y-91541600D01*
X156949000Y-91537792D01*
X156910337Y-91541600D01*
X136192884Y-91541600D01*
X136154221Y-91537792D01*
X136115558Y-91541600D01*
X136115549Y-91541600D01*
X135999865Y-91552994D01*
X135851439Y-91598018D01*
X135714650Y-91671134D01*
X135714648Y-91671135D01*
X135714649Y-91671135D01*
X135624791Y-91744879D01*
X135624789Y-91744881D01*
X135594753Y-91769531D01*
X135570103Y-91799567D01*
X130609462Y-96760210D01*
X130546514Y-96608241D01*
X130390850Y-96375273D01*
X130192727Y-96177150D01*
X129959759Y-96021486D01*
X129936858Y-96012000D01*
X129959759Y-96002514D01*
X130192727Y-95846850D01*
X130390850Y-95648727D01*
X130546514Y-95415759D01*
X130653738Y-95156899D01*
X130708400Y-94882094D01*
X130708400Y-94601906D01*
X130653738Y-94327101D01*
X130546514Y-94068241D01*
X130390850Y-93835273D01*
X130192727Y-93637150D01*
X129959759Y-93481486D01*
X129936858Y-93472000D01*
X129959759Y-93462514D01*
X130192727Y-93306850D01*
X130390850Y-93108727D01*
X130546514Y-92875759D01*
X130653738Y-92616899D01*
X130708400Y-92342094D01*
X130708400Y-92061906D01*
X130653738Y-91787101D01*
X130546514Y-91528241D01*
X130390850Y-91295273D01*
X130192727Y-91097150D01*
X129959759Y-90941486D01*
X129700899Y-90834262D01*
X129426094Y-90779600D01*
X129145906Y-90779600D01*
X128871101Y-90834262D01*
X128612241Y-90941486D01*
X128379273Y-91097150D01*
X128181150Y-91295273D01*
X128025486Y-91528241D01*
X127918262Y-91787101D01*
X127863600Y-92061906D01*
X127863600Y-92342094D01*
X127918262Y-92616899D01*
X128025486Y-92875759D01*
X128181150Y-93108727D01*
X128379273Y-93306850D01*
X128612241Y-93462514D01*
X128635142Y-93472000D01*
X128612241Y-93481486D01*
X128379273Y-93637150D01*
X128181150Y-93835273D01*
X128025486Y-94068241D01*
X127918262Y-94327101D01*
X127863600Y-94601906D01*
X127863600Y-94882094D01*
X127918262Y-95156899D01*
X128025486Y-95415759D01*
X128181150Y-95648727D01*
X128379273Y-95846850D01*
X128612241Y-96002514D01*
X128635142Y-96012000D01*
X128612241Y-96021486D01*
X128379273Y-96177150D01*
X128181150Y-96375273D01*
X128025486Y-96608241D01*
X127918262Y-96867101D01*
X127863600Y-97141906D01*
X127863600Y-97422094D01*
X127918262Y-97696899D01*
X128025486Y-97955759D01*
X128181150Y-98188727D01*
X128379273Y-98386850D01*
X128612241Y-98542514D01*
X128635142Y-98552000D01*
X128612241Y-98561486D01*
X128379273Y-98717150D01*
X128181150Y-98915273D01*
X128025486Y-99148241D01*
X127918262Y-99407101D01*
X127863600Y-99681906D01*
X127863600Y-99962094D01*
X127918262Y-100236899D01*
X128025486Y-100495759D01*
X128181150Y-100728727D01*
X128379273Y-100926850D01*
X128612241Y-101082514D01*
X128635142Y-101092000D01*
X128612241Y-101101486D01*
X128379273Y-101257150D01*
X128181150Y-101455273D01*
X128025486Y-101688241D01*
X127983982Y-101788441D01*
X127279400Y-101083860D01*
X127279400Y-97606007D01*
X127283208Y-97567342D01*
X127279400Y-97528677D01*
X127279400Y-97528669D01*
X127268006Y-97412985D01*
X127222982Y-97264559D01*
X127192011Y-97206616D01*
X127149866Y-97127769D01*
X127076122Y-97037912D01*
X127076119Y-97037909D01*
X127051469Y-97007873D01*
X127021434Y-96983224D01*
X122871585Y-92833377D01*
X122846926Y-92803330D01*
X122727029Y-92704933D01*
X122590240Y-92631817D01*
X122441814Y-92586793D01*
X122326130Y-92575399D01*
X122326120Y-92575399D01*
X122287457Y-92571591D01*
X122248794Y-92575399D01*
X120831205Y-92575399D01*
X120792542Y-92571591D01*
X120753879Y-92575399D01*
X120753870Y-92575399D01*
X120638186Y-92586793D01*
X120489760Y-92631817D01*
X120352971Y-92704933D01*
X120346798Y-92709999D01*
X110295174Y-92709999D01*
X110333738Y-92616899D01*
X110388400Y-92342094D01*
X110388400Y-92061906D01*
X110333738Y-91787101D01*
X110226514Y-91528241D01*
X110070850Y-91295273D01*
X109872727Y-91097150D01*
X109639759Y-90941486D01*
X109380899Y-90834262D01*
X109106094Y-90779600D01*
X108825906Y-90779600D01*
X108551101Y-90834262D01*
X108292241Y-90941486D01*
X108059273Y-91097150D01*
X107861150Y-91295273D01*
X107705486Y-91528241D01*
X107598262Y-91787101D01*
X107543600Y-92061906D01*
X107543600Y-92342094D01*
X107598262Y-92616899D01*
X107636826Y-92709999D01*
X104001266Y-92709999D01*
X103962601Y-92706191D01*
X103923936Y-92709999D01*
X103923928Y-92709999D01*
X103810508Y-92721170D01*
X103808244Y-92721393D01*
X103659818Y-92766417D01*
X103523029Y-92839533D01*
X103433171Y-92913277D01*
X103433168Y-92913280D01*
X103403132Y-92937930D01*
X103378482Y-92967966D01*
X103080512Y-93265937D01*
X103046081Y-93251675D01*
X102710883Y-93185000D01*
X102369117Y-93185000D01*
X102033919Y-93251675D01*
X101718169Y-93382463D01*
X101434002Y-93572337D01*
X101192337Y-93814002D01*
X101002463Y-94098169D01*
X100871675Y-94413919D01*
X100805000Y-94749117D01*
X100805000Y-95090883D01*
X100871675Y-95426081D01*
X101002463Y-95741831D01*
X101192337Y-96025998D01*
X101434002Y-96267663D01*
X101718169Y-96457537D01*
X101752600Y-96471799D01*
X101752600Y-98026147D01*
X101679715Y-97953262D01*
X101248141Y-97664893D01*
X100768601Y-97466261D01*
X100259525Y-97365000D01*
X99740475Y-97365000D01*
X99231399Y-97466261D01*
X98751859Y-97664893D01*
X98320285Y-97953262D01*
X97953262Y-98320285D01*
X97664893Y-98751859D01*
X97466261Y-99231399D01*
X97365000Y-99740475D01*
X97365000Y-100259525D01*
X97466261Y-100768601D01*
X97664893Y-101248141D01*
X97953262Y-101679715D01*
X98320285Y-102046738D01*
X98751859Y-102335107D01*
X99231399Y-102533739D01*
X99740475Y-102635000D01*
X100259525Y-102635000D01*
X100768601Y-102533739D01*
X101248141Y-102335107D01*
X101679715Y-102046738D01*
X101752600Y-101973853D01*
X101752601Y-112368201D01*
X101718169Y-112382463D01*
X101434002Y-112572337D01*
X101192337Y-112814002D01*
X101002463Y-113098169D01*
X100871675Y-113413919D01*
X100805000Y-113749117D01*
X100805000Y-114090883D01*
X100871675Y-114426081D01*
X101002463Y-114741831D01*
X101192337Y-115025998D01*
X101434002Y-115267663D01*
X101718169Y-115457537D01*
X101752601Y-115471799D01*
X101752601Y-117026148D01*
X101679715Y-116953262D01*
X101248141Y-116664893D01*
X100768601Y-116466261D01*
X100259525Y-116365000D01*
X99740475Y-116365000D01*
X99231399Y-116466261D01*
X98751859Y-116664893D01*
X98320285Y-116953262D01*
X97953262Y-117320285D01*
X97664893Y-117751859D01*
X97466261Y-118231399D01*
X97365000Y-118740475D01*
X97365000Y-119259525D01*
X97466261Y-119768601D01*
X97664893Y-120248141D01*
X97953262Y-120679715D01*
X98320285Y-121046738D01*
X98751859Y-121335107D01*
X99231399Y-121533739D01*
X99740475Y-121635000D01*
X100259525Y-121635000D01*
X100768601Y-121533739D01*
X101248141Y-121335107D01*
X101679715Y-121046738D01*
X101752601Y-120973852D01*
X101752600Y-131368201D01*
X101718169Y-131382463D01*
X101434002Y-131572337D01*
X101192337Y-131814002D01*
X101002463Y-132098169D01*
X100871675Y-132413919D01*
X100805000Y-132749117D01*
X100805000Y-133090883D01*
X100871675Y-133426081D01*
X101002463Y-133741831D01*
X101192337Y-134025998D01*
X101434002Y-134267663D01*
X101543160Y-134340600D01*
X101418152Y-134340600D01*
X85931291Y-118853740D01*
X93435000Y-118853740D01*
X93435000Y-119146260D01*
X93492068Y-119433158D01*
X93604010Y-119703411D01*
X93766525Y-119946632D01*
X93973368Y-120153475D01*
X94216589Y-120315990D01*
X94486842Y-120427932D01*
X94773740Y-120485000D01*
X95066260Y-120485000D01*
X95353158Y-120427932D01*
X95623411Y-120315990D01*
X95866632Y-120153475D01*
X96073475Y-119946632D01*
X96235990Y-119703411D01*
X96347932Y-119433158D01*
X96405000Y-119146260D01*
X96405000Y-118853740D01*
X96347932Y-118566842D01*
X96235990Y-118296589D01*
X96168110Y-118195000D01*
X96360883Y-118195000D01*
X96696081Y-118128325D01*
X97011831Y-117997537D01*
X97295998Y-117807663D01*
X97537663Y-117565998D01*
X97727537Y-117281831D01*
X97858325Y-116966081D01*
X97925000Y-116630883D01*
X97925000Y-116289117D01*
X97858325Y-115953919D01*
X97727537Y-115638169D01*
X97537663Y-115354002D01*
X97295998Y-115112337D01*
X97011831Y-114922463D01*
X96696081Y-114791675D01*
X96360883Y-114725000D01*
X96019117Y-114725000D01*
X95683919Y-114791675D01*
X95368169Y-114922463D01*
X95084002Y-115112337D01*
X94842337Y-115354002D01*
X94652463Y-115638169D01*
X94521675Y-115953919D01*
X94455000Y-116289117D01*
X94455000Y-116630883D01*
X94521675Y-116966081D01*
X94652463Y-117281831D01*
X94808261Y-117515000D01*
X94773740Y-117515000D01*
X94486842Y-117572068D01*
X94216589Y-117684010D01*
X93973368Y-117846525D01*
X93766525Y-118053368D01*
X93604010Y-118296589D01*
X93492068Y-118566842D01*
X93435000Y-118853740D01*
X85931291Y-118853740D01*
X82575400Y-115497850D01*
X82575400Y-110150311D01*
X82591937Y-110133774D01*
X82705205Y-109964256D01*
X82783226Y-109775898D01*
X82823000Y-109575939D01*
X82823000Y-109372061D01*
X82783226Y-109172102D01*
X82705205Y-108983744D01*
X82591937Y-108814226D01*
X82575400Y-108797689D01*
X82575400Y-102530311D01*
X82591937Y-102513774D01*
X82705205Y-102344256D01*
X82783226Y-102155898D01*
X82823000Y-101955939D01*
X82823000Y-101752061D01*
X82783226Y-101552102D01*
X82705205Y-101363744D01*
X82591937Y-101194226D01*
X82447774Y-101050063D01*
X82278256Y-100936795D01*
X82089898Y-100858774D01*
X81889939Y-100819000D01*
X81686061Y-100819000D01*
X81486102Y-100858774D01*
X81297744Y-100936795D01*
X81128226Y-101050063D01*
X80984063Y-101194226D01*
X80870795Y-101363744D01*
X80792774Y-101552102D01*
X80753000Y-101752061D01*
X63660000Y-101752061D01*
X63660000Y-96774000D01*
X87507815Y-96774000D01*
X87536487Y-97065111D01*
X87621401Y-97345034D01*
X87759294Y-97603014D01*
X87944866Y-97829134D01*
X88170986Y-98014706D01*
X88225791Y-98044000D01*
X88170986Y-98073294D01*
X87944866Y-98258866D01*
X87759294Y-98484986D01*
X87621401Y-98742966D01*
X87536487Y-99022889D01*
X87507815Y-99314000D01*
X87536487Y-99605111D01*
X87621401Y-99885034D01*
X87759294Y-100143014D01*
X87944866Y-100369134D01*
X88170986Y-100554706D01*
X88225791Y-100584000D01*
X88170986Y-100613294D01*
X87944866Y-100798866D01*
X87759294Y-101024986D01*
X87621401Y-101282966D01*
X87536487Y-101562889D01*
X87507815Y-101854000D01*
X87536487Y-102145111D01*
X87621401Y-102425034D01*
X87759294Y-102683014D01*
X87944866Y-102909134D01*
X88170986Y-103094706D01*
X88225791Y-103124000D01*
X88170986Y-103153294D01*
X87944866Y-103338866D01*
X87759294Y-103564986D01*
X87621401Y-103822966D01*
X87536487Y-104102889D01*
X87507815Y-104394000D01*
X87536487Y-104685111D01*
X87621401Y-104965034D01*
X87759294Y-105223014D01*
X87944866Y-105449134D01*
X88170986Y-105634706D01*
X88225791Y-105664000D01*
X88170986Y-105693294D01*
X87944866Y-105878866D01*
X87759294Y-106104986D01*
X87621401Y-106362966D01*
X87536487Y-106642889D01*
X87507815Y-106934000D01*
X87536487Y-107225111D01*
X87621401Y-107505034D01*
X87759294Y-107763014D01*
X87944866Y-107989134D01*
X88170986Y-108174706D01*
X88225791Y-108204000D01*
X88170986Y-108233294D01*
X87944866Y-108418866D01*
X87759294Y-108644986D01*
X87621401Y-108902966D01*
X87536487Y-109182889D01*
X87507815Y-109474000D01*
X87536487Y-109765111D01*
X87621401Y-110045034D01*
X87759294Y-110303014D01*
X87944866Y-110529134D01*
X87974687Y-110553607D01*
X87905820Y-110574498D01*
X87795506Y-110633463D01*
X87698815Y-110712815D01*
X87619463Y-110809506D01*
X87560498Y-110919820D01*
X87524188Y-111039518D01*
X87511928Y-111164000D01*
X87511928Y-112864000D01*
X87524188Y-112988482D01*
X87560498Y-113108180D01*
X87619463Y-113218494D01*
X87698815Y-113315185D01*
X87795506Y-113394537D01*
X87905820Y-113453502D01*
X88025518Y-113489812D01*
X88150000Y-113502072D01*
X89850000Y-113502072D01*
X89974482Y-113489812D01*
X90094180Y-113453502D01*
X90204494Y-113394537D01*
X90301185Y-113315185D01*
X90380537Y-113218494D01*
X90439502Y-113108180D01*
X90475812Y-112988482D01*
X90488072Y-112864000D01*
X90488072Y-111164000D01*
X90475812Y-111039518D01*
X90439502Y-110919820D01*
X90380537Y-110809506D01*
X90301185Y-110712815D01*
X90204494Y-110633463D01*
X90094180Y-110574498D01*
X90025313Y-110553607D01*
X90055134Y-110529134D01*
X90240706Y-110303014D01*
X90378599Y-110045034D01*
X90463513Y-109765111D01*
X90492185Y-109474000D01*
X90463513Y-109182889D01*
X90378599Y-108902966D01*
X90240706Y-108644986D01*
X90055134Y-108418866D01*
X89829014Y-108233294D01*
X89774209Y-108204000D01*
X89829014Y-108174706D01*
X90055134Y-107989134D01*
X90240706Y-107763014D01*
X90378599Y-107505034D01*
X90463513Y-107225111D01*
X90492185Y-106934000D01*
X90463513Y-106642889D01*
X90378599Y-106362966D01*
X90240706Y-106104986D01*
X90055134Y-105878866D01*
X89829014Y-105693294D01*
X89774209Y-105664000D01*
X89829014Y-105634706D01*
X90055134Y-105449134D01*
X90240706Y-105223014D01*
X90378599Y-104965034D01*
X90463513Y-104685111D01*
X90492185Y-104394000D01*
X90463513Y-104102889D01*
X90378599Y-103822966D01*
X90240706Y-103564986D01*
X90055134Y-103338866D01*
X89829014Y-103153294D01*
X89774209Y-103124000D01*
X89829014Y-103094706D01*
X90055134Y-102909134D01*
X90240706Y-102683014D01*
X90378599Y-102425034D01*
X90463513Y-102145111D01*
X90492185Y-101854000D01*
X90463513Y-101562889D01*
X90378599Y-101282966D01*
X90240706Y-101024986D01*
X90055134Y-100798866D01*
X89829014Y-100613294D01*
X89774209Y-100584000D01*
X89829014Y-100554706D01*
X90055134Y-100369134D01*
X90240706Y-100143014D01*
X90378599Y-99885034D01*
X90388091Y-99853740D01*
X93435000Y-99853740D01*
X93435000Y-100146260D01*
X93492068Y-100433158D01*
X93604010Y-100703411D01*
X93766525Y-100946632D01*
X93973368Y-101153475D01*
X94216589Y-101315990D01*
X94486842Y-101427932D01*
X94773740Y-101485000D01*
X95066260Y-101485000D01*
X95353158Y-101427932D01*
X95623411Y-101315990D01*
X95866632Y-101153475D01*
X96073475Y-100946632D01*
X96235990Y-100703411D01*
X96347932Y-100433158D01*
X96405000Y-100146260D01*
X96405000Y-99853740D01*
X96347932Y-99566842D01*
X96235990Y-99296589D01*
X96168110Y-99195000D01*
X96360883Y-99195000D01*
X96696081Y-99128325D01*
X97011831Y-98997537D01*
X97295998Y-98807663D01*
X97537663Y-98565998D01*
X97727537Y-98281831D01*
X97858325Y-97966081D01*
X97925000Y-97630883D01*
X97925000Y-97289117D01*
X97858325Y-96953919D01*
X97727537Y-96638169D01*
X97537663Y-96354002D01*
X97295998Y-96112337D01*
X97011831Y-95922463D01*
X96696081Y-95791675D01*
X96360883Y-95725000D01*
X96019117Y-95725000D01*
X95683919Y-95791675D01*
X95368169Y-95922463D01*
X95084002Y-96112337D01*
X94842337Y-96354002D01*
X94652463Y-96638169D01*
X94521675Y-96953919D01*
X94455000Y-97289117D01*
X94455000Y-97630883D01*
X94521675Y-97966081D01*
X94652463Y-98281831D01*
X94808261Y-98515000D01*
X94773740Y-98515000D01*
X94486842Y-98572068D01*
X94216589Y-98684010D01*
X93973368Y-98846525D01*
X93766525Y-99053368D01*
X93604010Y-99296589D01*
X93492068Y-99566842D01*
X93435000Y-99853740D01*
X90388091Y-99853740D01*
X90463513Y-99605111D01*
X90492185Y-99314000D01*
X90463513Y-99022889D01*
X90378599Y-98742966D01*
X90240706Y-98484986D01*
X90055134Y-98258866D01*
X89829014Y-98073294D01*
X89774209Y-98044000D01*
X89829014Y-98014706D01*
X90055134Y-97829134D01*
X90240706Y-97603014D01*
X90378599Y-97345034D01*
X90463513Y-97065111D01*
X90492185Y-96774000D01*
X90463513Y-96482889D01*
X90378599Y-96202966D01*
X90240706Y-95944986D01*
X90055134Y-95718866D01*
X89829014Y-95533294D01*
X89571034Y-95395401D01*
X89291111Y-95310487D01*
X89072950Y-95289000D01*
X88927050Y-95289000D01*
X88708889Y-95310487D01*
X88428966Y-95395401D01*
X88170986Y-95533294D01*
X87944866Y-95718866D01*
X87759294Y-95944986D01*
X87621401Y-96202966D01*
X87536487Y-96482889D01*
X87507815Y-96774000D01*
X63660000Y-96774000D01*
X63660000Y-93032279D01*
X63707670Y-92546107D01*
X63839489Y-92109502D01*
X64053600Y-91706815D01*
X64341848Y-91353388D01*
X64693261Y-91062673D01*
X65094439Y-90845758D01*
X65530113Y-90710894D01*
X66014344Y-90660000D01*
X163967721Y-90660000D01*
X164453893Y-90707670D01*
X164453893Y-90707670D01*
G37*
X164453893Y-90707670D02*
X164890498Y-90839489D01*
X165293185Y-91053600D01*
X165646612Y-91341848D01*
X165937327Y-91693261D01*
X166154242Y-92094439D01*
X166289106Y-92530113D01*
X166340000Y-93014344D01*
X166340001Y-163967711D01*
X166292330Y-164453894D01*
X166160512Y-164890497D01*
X165946399Y-165293186D01*
X165658150Y-165646613D01*
X165306739Y-165937327D01*
X164905564Y-166154240D01*
X164469886Y-166289106D01*
X163985664Y-166340000D01*
X92967581Y-166340000D01*
X92937937Y-166342920D01*
X92919238Y-166342789D01*
X92910067Y-166343689D01*
X92327777Y-166404890D01*
X92269191Y-166416916D01*
X92210420Y-166428127D01*
X92201598Y-166430790D01*
X91642285Y-166603928D01*
X91587167Y-166627098D01*
X91531678Y-166649516D01*
X91523542Y-166653843D01*
X91118218Y-166873000D01*
X90000000Y-166873000D01*
X89975224Y-166875440D01*
X89951399Y-166882667D01*
X89929443Y-166894403D01*
X89910197Y-166910197D01*
X89894403Y-166929443D01*
X89882667Y-166951399D01*
X89875440Y-166975224D01*
X89873000Y-167000000D01*
X89873000Y-168115528D01*
X89643616Y-168546938D01*
X89620812Y-168602265D01*
X89597256Y-168657225D01*
X89594531Y-168666029D01*
X89425304Y-169226536D01*
X89413682Y-169285231D01*
X89401248Y-169343727D01*
X89400285Y-169352892D01*
X89343150Y-169935595D01*
X89340000Y-169967582D01*
X89340001Y-176967711D01*
X89292330Y-177453894D01*
X89160512Y-177890497D01*
X88946399Y-178293186D01*
X88658150Y-178646613D01*
X88306739Y-178937327D01*
X87905564Y-179154240D01*
X87469886Y-179289106D01*
X86985664Y-179340000D01*
X66032279Y-179340000D01*
X65546106Y-179292330D01*
X65109503Y-179160512D01*
X64706814Y-178946399D01*
X64353387Y-178658150D01*
X64062673Y-178306739D01*
X63845760Y-177905564D01*
X63710894Y-177469886D01*
X63660000Y-176985664D01*
X63660000Y-156853740D01*
X93435000Y-156853740D01*
X93435000Y-157146260D01*
X93492068Y-157433158D01*
X93604010Y-157703411D01*
X93766525Y-157946632D01*
X93973368Y-158153475D01*
X94216589Y-158315990D01*
X94486842Y-158427932D01*
X94773740Y-158485000D01*
X95066260Y-158485000D01*
X95353158Y-158427932D01*
X95623411Y-158315990D01*
X95866632Y-158153475D01*
X96073475Y-157946632D01*
X96235990Y-157703411D01*
X96347932Y-157433158D01*
X96405000Y-157146260D01*
X96405000Y-156853740D01*
X96382471Y-156740475D01*
X97365000Y-156740475D01*
X97365000Y-157259525D01*
X97466261Y-157768601D01*
X97664893Y-158248141D01*
X97953262Y-158679715D01*
X98320285Y-159046738D01*
X98751859Y-159335107D01*
X99231399Y-159533739D01*
X99740475Y-159635000D01*
X100259525Y-159635000D01*
X100768601Y-159533739D01*
X101248141Y-159335107D01*
X101679715Y-159046738D01*
X102046738Y-158679715D01*
X102335107Y-158248141D01*
X102533739Y-157768601D01*
X102635000Y-157259525D01*
X102635000Y-156853740D01*
X103595000Y-156853740D01*
X103595000Y-157146260D01*
X103652068Y-157433158D01*
X103764010Y-157703411D01*
X103926525Y-157946632D01*
X104133368Y-158153475D01*
X104376589Y-158315990D01*
X104646842Y-158427932D01*
X104933740Y-158485000D01*
X105226260Y-158485000D01*
X105513158Y-158427932D01*
X105783411Y-158315990D01*
X106026632Y-158153475D01*
X106233475Y-157946632D01*
X106395990Y-157703411D01*
X106507932Y-157433158D01*
X106565000Y-157146260D01*
X106565000Y-156853740D01*
X106507932Y-156566842D01*
X106395990Y-156296589D01*
X106233475Y-156053368D01*
X106026632Y-155846525D01*
X105783411Y-155684010D01*
X105513158Y-155572068D01*
X105226260Y-155515000D01*
X104933740Y-155515000D01*
X104646842Y-155572068D01*
X104376589Y-155684010D01*
X104133368Y-155846525D01*
X103926525Y-156053368D01*
X103764010Y-156296589D01*
X103652068Y-156566842D01*
X103595000Y-156853740D01*
X102635000Y-156853740D01*
X102635000Y-156740475D01*
X102533739Y-156231399D01*
X102335107Y-155751859D01*
X102046738Y-155320285D01*
X101679715Y-154953262D01*
X101248141Y-154664893D01*
X100768601Y-154466261D01*
X100259525Y-154365000D01*
X99740475Y-154365000D01*
X99231399Y-154466261D01*
X98751859Y-154664893D01*
X98320285Y-154953262D01*
X97953262Y-155320285D01*
X97664893Y-155751859D01*
X97466261Y-156231399D01*
X97365000Y-156740475D01*
X96382471Y-156740475D01*
X96347932Y-156566842D01*
X96235990Y-156296589D01*
X96168110Y-156195000D01*
X96360883Y-156195000D01*
X96696081Y-156128325D01*
X97011831Y-155997537D01*
X97295998Y-155807663D01*
X97537663Y-155565998D01*
X97727537Y-155281831D01*
X97858325Y-154966081D01*
X97925000Y-154630883D01*
X97925000Y-154289117D01*
X97858325Y-153953919D01*
X97727537Y-153638169D01*
X97537663Y-153354002D01*
X97295998Y-153112337D01*
X97011831Y-152922463D01*
X96696081Y-152791675D01*
X96360883Y-152725000D01*
X96019117Y-152725000D01*
X95683919Y-152791675D01*
X95368169Y-152922463D01*
X95084002Y-153112337D01*
X94842337Y-153354002D01*
X94652463Y-153638169D01*
X94521675Y-153953919D01*
X94455000Y-154289117D01*
X94455000Y-154630883D01*
X94521675Y-154966081D01*
X94652463Y-155281831D01*
X94808261Y-155515000D01*
X94773740Y-155515000D01*
X94486842Y-155572068D01*
X94216589Y-155684010D01*
X93973368Y-155846525D01*
X93766525Y-156053368D01*
X93604010Y-156296589D01*
X93492068Y-156566842D01*
X93435000Y-156853740D01*
X63660000Y-156853740D01*
X63660000Y-151749117D01*
X100805000Y-151749117D01*
X100805000Y-152090883D01*
X100871675Y-152426081D01*
X101002463Y-152741831D01*
X101192337Y-153025998D01*
X101434002Y-153267663D01*
X101718169Y-153457537D01*
X102033919Y-153588325D01*
X102369117Y-153655000D01*
X102710883Y-153655000D01*
X103046081Y-153588325D01*
X103361831Y-153457537D01*
X103645998Y-153267663D01*
X103887663Y-153025998D01*
X104077537Y-152741831D01*
X104208325Y-152426081D01*
X104275000Y-152090883D01*
X104275000Y-151749117D01*
X104208325Y-151413919D01*
X104077537Y-151098169D01*
X103887663Y-150814002D01*
X103645998Y-150572337D01*
X103361831Y-150382463D01*
X103046081Y-150251675D01*
X102710883Y-150185000D01*
X102369117Y-150185000D01*
X102033919Y-150251675D01*
X101718169Y-150382463D01*
X101434002Y-150572337D01*
X101192337Y-150814002D01*
X101002463Y-151098169D01*
X100871675Y-151413919D01*
X100805000Y-151749117D01*
X63660000Y-151749117D01*
X63660000Y-137853740D01*
X93435000Y-137853740D01*
X93435000Y-138146260D01*
X93492068Y-138433158D01*
X93604010Y-138703411D01*
X93766525Y-138946632D01*
X93973368Y-139153475D01*
X94216589Y-139315990D01*
X94486842Y-139427932D01*
X94773740Y-139485000D01*
X95066260Y-139485000D01*
X95353158Y-139427932D01*
X95623411Y-139315990D01*
X95866632Y-139153475D01*
X96073475Y-138946632D01*
X96235990Y-138703411D01*
X96347932Y-138433158D01*
X96405000Y-138146260D01*
X96405000Y-137853740D01*
X96347932Y-137566842D01*
X96235990Y-137296589D01*
X96168110Y-137195000D01*
X96360883Y-137195000D01*
X96696081Y-137128325D01*
X97011831Y-136997537D01*
X97295998Y-136807663D01*
X97537663Y-136565998D01*
X97727537Y-136281831D01*
X97858325Y-135966081D01*
X97925000Y-135630883D01*
X97925000Y-135289117D01*
X97858325Y-134953919D01*
X97727537Y-134638169D01*
X97537663Y-134354002D01*
X97295998Y-134112337D01*
X97011831Y-133922463D01*
X96696081Y-133791675D01*
X96360883Y-133725000D01*
X96019117Y-133725000D01*
X95683919Y-133791675D01*
X95368169Y-133922463D01*
X95084002Y-134112337D01*
X94842337Y-134354002D01*
X94652463Y-134638169D01*
X94521675Y-134953919D01*
X94455000Y-135289117D01*
X94455000Y-135630883D01*
X94521675Y-135966081D01*
X94652463Y-136281831D01*
X94808261Y-136515000D01*
X94773740Y-136515000D01*
X94486842Y-136572068D01*
X94216589Y-136684010D01*
X93973368Y-136846525D01*
X93766525Y-137053368D01*
X93604010Y-137296589D01*
X93492068Y-137566842D01*
X93435000Y-137853740D01*
X63660000Y-137853740D01*
X63660000Y-101752061D01*
X80753000Y-101752061D01*
X80753000Y-101955939D01*
X80792774Y-102155898D01*
X80870795Y-102344256D01*
X80984063Y-102513774D01*
X81000601Y-102530312D01*
X81000600Y-108797689D01*
X80984063Y-108814226D01*
X80870795Y-108983744D01*
X80792774Y-109172102D01*
X80753000Y-109372061D01*
X80753000Y-109575939D01*
X80792774Y-109775898D01*
X80870795Y-109964256D01*
X80984063Y-110133774D01*
X81000601Y-110150312D01*
X81000600Y-113322672D01*
X81000601Y-113322682D01*
X81000600Y-115785337D01*
X80996792Y-115824000D01*
X81000600Y-115862663D01*
X81000600Y-115862672D01*
X81011994Y-115978356D01*
X81057018Y-116126782D01*
X81130134Y-116263571D01*
X81228531Y-116383469D01*
X81258578Y-116408128D01*
X100215448Y-135365000D01*
X99740475Y-135365000D01*
X99231399Y-135466261D01*
X98751859Y-135664893D01*
X98320285Y-135953262D01*
X97953262Y-136320285D01*
X97664893Y-136751859D01*
X97466261Y-137231399D01*
X97365000Y-137740475D01*
X97365000Y-138259525D01*
X97466261Y-138768601D01*
X97664893Y-139248141D01*
X97953262Y-139679715D01*
X98320285Y-140046738D01*
X98751859Y-140335107D01*
X99231399Y-140533739D01*
X99740475Y-140635000D01*
X100259525Y-140635000D01*
X100768601Y-140533739D01*
X101248141Y-140335107D01*
X101679715Y-140046738D01*
X102046738Y-139679715D01*
X102335107Y-139248141D01*
X102533739Y-138768601D01*
X102635000Y-138259525D01*
X102635000Y-137853740D01*
X103595000Y-137853740D01*
X103595000Y-138146260D01*
X103652068Y-138433158D01*
X103764010Y-138703411D01*
X103926525Y-138946632D01*
X104133368Y-139153475D01*
X104376589Y-139315990D01*
X104646842Y-139427932D01*
X104933740Y-139485000D01*
X105226260Y-139485000D01*
X105513158Y-139427932D01*
X105783411Y-139315990D01*
X106026632Y-139153475D01*
X106233475Y-138946632D01*
X106395990Y-138703411D01*
X106507932Y-138433158D01*
X106565000Y-138146260D01*
X106565000Y-137853740D01*
X106507932Y-137566842D01*
X106395990Y-137296589D01*
X106233475Y-137053368D01*
X106026632Y-136846525D01*
X105783411Y-136684010D01*
X105513158Y-136572068D01*
X105226260Y-136515000D01*
X104933740Y-136515000D01*
X104646842Y-136572068D01*
X104376589Y-136684010D01*
X104133368Y-136846525D01*
X103926525Y-137053368D01*
X103764010Y-137296589D01*
X103652068Y-137566842D01*
X103595000Y-137853740D01*
X102635000Y-137853740D01*
X102635000Y-137740475D01*
X102533739Y-137231399D01*
X102335107Y-136751859D01*
X102046738Y-136320285D01*
X101679715Y-135953262D01*
X101623051Y-135915400D01*
X104101337Y-135915400D01*
X104140000Y-135919208D01*
X104178663Y-135915400D01*
X104178673Y-135915400D01*
X104294357Y-135904006D01*
X104442783Y-135858982D01*
X104579572Y-135785866D01*
X104699469Y-135687469D01*
X104724128Y-135657422D01*
X108250827Y-132130724D01*
X108280868Y-132106070D01*
X108379265Y-131986173D01*
X108452381Y-131849384D01*
X108497405Y-131700958D01*
X108502464Y-131649592D01*
X108551101Y-131669738D01*
X108825906Y-131724400D01*
X109106094Y-131724400D01*
X109380899Y-131669738D01*
X109639759Y-131562514D01*
X109872727Y-131406850D01*
X110070850Y-131208727D01*
X110226514Y-130975759D01*
X110333738Y-130716899D01*
X110388400Y-130442094D01*
X110388400Y-130161906D01*
X110333738Y-129887101D01*
X110226514Y-129628241D01*
X110070850Y-129395273D01*
X109872727Y-129197150D01*
X109639759Y-129041486D01*
X109616858Y-129032000D01*
X109639759Y-129022514D01*
X109872727Y-128866850D01*
X110070850Y-128668727D01*
X110226514Y-128435759D01*
X110333738Y-128176899D01*
X110388400Y-127902094D01*
X110388400Y-127621906D01*
X110333738Y-127347101D01*
X110226514Y-127088241D01*
X110070850Y-126855273D01*
X109872727Y-126657150D01*
X109639759Y-126501486D01*
X109616858Y-126492000D01*
X109639759Y-126482514D01*
X109872727Y-126326850D01*
X110070850Y-126128727D01*
X110226514Y-125895759D01*
X110333738Y-125636899D01*
X110388400Y-125362094D01*
X110388400Y-125081906D01*
X110333738Y-124807101D01*
X110226514Y-124548241D01*
X110070850Y-124315273D01*
X109872727Y-124117150D01*
X109639759Y-123961486D01*
X109617755Y-123952372D01*
X109700043Y-123908388D01*
X109770100Y-123665705D01*
X108966000Y-122861605D01*
X108161900Y-123665705D01*
X108231957Y-123908388D01*
X108320028Y-123949976D01*
X108292241Y-123961486D01*
X108059273Y-124117150D01*
X107861150Y-124315273D01*
X107705486Y-124548241D01*
X107598262Y-124807101D01*
X107543600Y-125081906D01*
X107543600Y-125362094D01*
X107598262Y-125636899D01*
X107705486Y-125895759D01*
X107861150Y-126128727D01*
X108059273Y-126326850D01*
X108292241Y-126482514D01*
X108315142Y-126492000D01*
X108292241Y-126501486D01*
X108059273Y-126657150D01*
X107861150Y-126855273D01*
X107705486Y-127088241D01*
X107598262Y-127347101D01*
X107543600Y-127621906D01*
X107543600Y-127902094D01*
X107571598Y-128042851D01*
X107191976Y-128422474D01*
X107161930Y-128447132D01*
X107063533Y-128567030D01*
X106990417Y-128703819D01*
X106945393Y-128852245D01*
X106933999Y-128967929D01*
X106933999Y-128967938D01*
X106930191Y-129006601D01*
X106933999Y-129045264D01*
X106934000Y-131220449D01*
X103813850Y-134340600D01*
X103536840Y-134340600D01*
X103645998Y-134267663D01*
X103887663Y-134025998D01*
X104077537Y-133741831D01*
X104208325Y-133426081D01*
X104275000Y-133090883D01*
X104275000Y-132749117D01*
X104208325Y-132413919D01*
X104077537Y-132098169D01*
X103887663Y-131814002D01*
X103645998Y-131572337D01*
X103361831Y-131382463D01*
X103327400Y-131368201D01*
X103327400Y-122753010D01*
X107538483Y-122753010D01*
X107579766Y-123030140D01*
X107674321Y-123293892D01*
X107739612Y-123416043D01*
X107982295Y-123486100D01*
X108786395Y-122682000D01*
X109145605Y-122682000D01*
X109949705Y-123486100D01*
X110192388Y-123416043D01*
X110312028Y-123162682D01*
X110379941Y-122890849D01*
X110393517Y-122610990D01*
X110352234Y-122333860D01*
X110257679Y-122070108D01*
X110192388Y-121947957D01*
X109949705Y-121877900D01*
X109145605Y-122682000D01*
X108786395Y-122682000D01*
X107982295Y-121877900D01*
X107739612Y-121947957D01*
X107619972Y-122201318D01*
X107552059Y-122473151D01*
X107538483Y-122753010D01*
X103327400Y-122753010D01*
X103327400Y-118853740D01*
X103595000Y-118853740D01*
X103595000Y-119146260D01*
X103652068Y-119433158D01*
X103764010Y-119703411D01*
X103926525Y-119946632D01*
X104133368Y-120153475D01*
X104376589Y-120315990D01*
X104646842Y-120427932D01*
X104933740Y-120485000D01*
X105226260Y-120485000D01*
X105513158Y-120427932D01*
X105783411Y-120315990D01*
X106026632Y-120153475D01*
X106233475Y-119946632D01*
X106395990Y-119703411D01*
X106507932Y-119433158D01*
X106565000Y-119146260D01*
X106565000Y-118853740D01*
X106507932Y-118566842D01*
X106395990Y-118296589D01*
X106233475Y-118053368D01*
X106026632Y-117846525D01*
X105783411Y-117684010D01*
X105513158Y-117572068D01*
X105226260Y-117515000D01*
X104933740Y-117515000D01*
X104646842Y-117572068D01*
X104376589Y-117684010D01*
X104133368Y-117846525D01*
X103926525Y-118053368D01*
X103764010Y-118296589D01*
X103652068Y-118566842D01*
X103595000Y-118853740D01*
X103327400Y-118853740D01*
X103327400Y-115471799D01*
X103361831Y-115457537D01*
X103645998Y-115267663D01*
X103887663Y-115025998D01*
X104077537Y-114741831D01*
X104208325Y-114426081D01*
X104275000Y-114090883D01*
X104275000Y-113749117D01*
X104208325Y-113413919D01*
X104077537Y-113098169D01*
X103887663Y-112814002D01*
X103645998Y-112572337D01*
X103361831Y-112382463D01*
X103327400Y-112368201D01*
X103327400Y-99853740D01*
X103595000Y-99853740D01*
X103595000Y-100146260D01*
X103652068Y-100433158D01*
X103764010Y-100703411D01*
X103926525Y-100946632D01*
X104133368Y-101153475D01*
X104376589Y-101315990D01*
X104646842Y-101427932D01*
X104933740Y-101485000D01*
X105226260Y-101485000D01*
X105513158Y-101427932D01*
X105783411Y-101315990D01*
X106026632Y-101153475D01*
X106233475Y-100946632D01*
X106395990Y-100703411D01*
X106507932Y-100433158D01*
X106565000Y-100146260D01*
X106565000Y-99853740D01*
X106507932Y-99566842D01*
X106395990Y-99296589D01*
X106233475Y-99053368D01*
X106026632Y-98846525D01*
X105783411Y-98684010D01*
X105513158Y-98572068D01*
X105226260Y-98515000D01*
X104933740Y-98515000D01*
X104646842Y-98572068D01*
X104376589Y-98684010D01*
X104133368Y-98846525D01*
X103926525Y-99053368D01*
X103764010Y-99296589D01*
X103652068Y-99566842D01*
X103595000Y-99853740D01*
X103327400Y-99853740D01*
X103327400Y-96471799D01*
X103361831Y-96457537D01*
X103645998Y-96267663D01*
X103887663Y-96025998D01*
X104077537Y-95741831D01*
X104208325Y-95426081D01*
X104275000Y-95090883D01*
X104275000Y-94749117D01*
X104208325Y-94413919D01*
X104194063Y-94379488D01*
X104288753Y-94284799D01*
X107615784Y-94284799D01*
X107598262Y-94327101D01*
X107543600Y-94601906D01*
X107543600Y-94882094D01*
X107598262Y-95156899D01*
X107705486Y-95415759D01*
X107861150Y-95648727D01*
X108059273Y-95846850D01*
X108292241Y-96002514D01*
X108315142Y-96012000D01*
X108292241Y-96021486D01*
X108059273Y-96177150D01*
X107861150Y-96375273D01*
X107705486Y-96608241D01*
X107598262Y-96867101D01*
X107543600Y-97141906D01*
X107543600Y-97422094D01*
X107598262Y-97696899D01*
X107705486Y-97955759D01*
X107861150Y-98188727D01*
X108059273Y-98386850D01*
X108292241Y-98542514D01*
X108315142Y-98552000D01*
X108292241Y-98561486D01*
X108059273Y-98717150D01*
X107861150Y-98915273D01*
X107705486Y-99148241D01*
X107598262Y-99407101D01*
X107543600Y-99681906D01*
X107543600Y-99962094D01*
X107598262Y-100236899D01*
X107705486Y-100495759D01*
X107861150Y-100728727D01*
X108059273Y-100926850D01*
X108292241Y-101082514D01*
X108315142Y-101092000D01*
X108292241Y-101101486D01*
X108059273Y-101257150D01*
X107861150Y-101455273D01*
X107705486Y-101688241D01*
X107598262Y-101947101D01*
X107543600Y-102221906D01*
X107543600Y-102502094D01*
X107598262Y-102776899D01*
X107705486Y-103035759D01*
X107774056Y-103138382D01*
X107191976Y-103720464D01*
X107161930Y-103745122D01*
X107063533Y-103865020D01*
X106990417Y-104001809D01*
X106945393Y-104150235D01*
X106933999Y-104265919D01*
X106933999Y-104265928D01*
X106930191Y-104304591D01*
X106933999Y-104343254D01*
X106934000Y-114892277D01*
X106930191Y-114930950D01*
X106945394Y-115085307D01*
X106990417Y-115233732D01*
X106990418Y-115233733D01*
X107063534Y-115370522D01*
X107161931Y-115490419D01*
X107191971Y-115515072D01*
X107268324Y-115591426D01*
X107292980Y-115621469D01*
X107412877Y-115719866D01*
X107549666Y-115792982D01*
X107698092Y-115838006D01*
X107779139Y-115845989D01*
X107861150Y-115968727D01*
X108059273Y-116166850D01*
X108292241Y-116322514D01*
X108315142Y-116332000D01*
X108292241Y-116341486D01*
X108059273Y-116497150D01*
X107861150Y-116695273D01*
X107705486Y-116928241D01*
X107598262Y-117187101D01*
X107543600Y-117461906D01*
X107543600Y-117742094D01*
X107598262Y-118016899D01*
X107705486Y-118275759D01*
X107861150Y-118508727D01*
X108059273Y-118706850D01*
X108292241Y-118862514D01*
X108315142Y-118872000D01*
X108292241Y-118881486D01*
X108059273Y-119037150D01*
X107861150Y-119235273D01*
X107705486Y-119468241D01*
X107598262Y-119727101D01*
X107543600Y-120001906D01*
X107543600Y-120282094D01*
X107598262Y-120556899D01*
X107705486Y-120815759D01*
X107861150Y-121048727D01*
X108059273Y-121246850D01*
X108292241Y-121402514D01*
X108314245Y-121411628D01*
X108231957Y-121455612D01*
X108161900Y-121698295D01*
X108966000Y-122502395D01*
X109770100Y-121698295D01*
X109700043Y-121455612D01*
X109611972Y-121414024D01*
X109639759Y-121402514D01*
X109872727Y-121246850D01*
X110070850Y-121048727D01*
X110226514Y-120815759D01*
X110333738Y-120556899D01*
X110388400Y-120282094D01*
X110388400Y-120001906D01*
X110333738Y-119727101D01*
X110226514Y-119468241D01*
X110070850Y-119235273D01*
X109872727Y-119037150D01*
X109639759Y-118881486D01*
X109616858Y-118872000D01*
X109639759Y-118862514D01*
X109872727Y-118706850D01*
X110070850Y-118508727D01*
X110226514Y-118275759D01*
X110333738Y-118016899D01*
X110388400Y-117742094D01*
X110388400Y-117461906D01*
X110333738Y-117187101D01*
X110226514Y-116928241D01*
X110070850Y-116695273D01*
X109872727Y-116497150D01*
X109639759Y-116341486D01*
X109616858Y-116332000D01*
X109639759Y-116322514D01*
X109872727Y-116166850D01*
X110070850Y-115968727D01*
X110226514Y-115735759D01*
X110333738Y-115476899D01*
X110388400Y-115202094D01*
X110388400Y-115057951D01*
X112319877Y-116989428D01*
X112344531Y-117019469D01*
X112464428Y-117117866D01*
X112601217Y-117190982D01*
X112749643Y-117236006D01*
X112865327Y-117247400D01*
X112865336Y-117247400D01*
X112903999Y-117251208D01*
X112942662Y-117247400D01*
X113638201Y-117247400D01*
X113652463Y-117281831D01*
X113808261Y-117515000D01*
X113773740Y-117515000D01*
X113486842Y-117572068D01*
X113216589Y-117684010D01*
X112973368Y-117846525D01*
X112766525Y-118053368D01*
X112604010Y-118296589D01*
X112492068Y-118566842D01*
X112435000Y-118853740D01*
X112435000Y-119146260D01*
X112492068Y-119433158D01*
X112604010Y-119703411D01*
X112766525Y-119946632D01*
X112973368Y-120153475D01*
X113216589Y-120315990D01*
X113486842Y-120427932D01*
X113773740Y-120485000D01*
X114066260Y-120485000D01*
X114353158Y-120427932D01*
X114623411Y-120315990D01*
X114866632Y-120153475D01*
X115073475Y-119946632D01*
X115235990Y-119703411D01*
X115347932Y-119433158D01*
X115405000Y-119146260D01*
X115405000Y-118853740D01*
X115347932Y-118566842D01*
X115235990Y-118296589D01*
X115168110Y-118195000D01*
X115360883Y-118195000D01*
X115671601Y-118133194D01*
X115671600Y-120056995D01*
X115667792Y-120095658D01*
X115671600Y-120134321D01*
X115671600Y-120134330D01*
X115682994Y-120250014D01*
X115728018Y-120398440D01*
X115801134Y-120535229D01*
X115899531Y-120655127D01*
X115929578Y-120679786D01*
X115959802Y-120710010D01*
X115959801Y-133900912D01*
X115696081Y-133791675D01*
X115360883Y-133725000D01*
X115019117Y-133725000D01*
X114683919Y-133791675D01*
X114368169Y-133922463D01*
X114084002Y-134112337D01*
X113842337Y-134354002D01*
X113652463Y-134638169D01*
X113521675Y-134953919D01*
X113455000Y-135289117D01*
X113455000Y-135630883D01*
X113521675Y-135966081D01*
X113652463Y-136281831D01*
X113808261Y-136515000D01*
X113773740Y-136515000D01*
X113486842Y-136572068D01*
X113216589Y-136684010D01*
X112973368Y-136846525D01*
X112766525Y-137053368D01*
X112604010Y-137296589D01*
X112492068Y-137566842D01*
X112435000Y-137853740D01*
X112435000Y-138146260D01*
X112492068Y-138433158D01*
X112604010Y-138703411D01*
X112766525Y-138946632D01*
X112973368Y-139153475D01*
X113216589Y-139315990D01*
X113486842Y-139427932D01*
X113773740Y-139485000D01*
X114066260Y-139485000D01*
X114353158Y-139427932D01*
X114623411Y-139315990D01*
X114866632Y-139153475D01*
X115073475Y-138946632D01*
X115235990Y-138703411D01*
X115347932Y-138433158D01*
X115405000Y-138146260D01*
X115405000Y-137853740D01*
X115347932Y-137566842D01*
X115235990Y-137296589D01*
X115168110Y-137195000D01*
X115360883Y-137195000D01*
X115502600Y-137166811D01*
X115502599Y-152753189D01*
X115360883Y-152725000D01*
X115019117Y-152725000D01*
X114683919Y-152791675D01*
X114368169Y-152922463D01*
X114084002Y-153112337D01*
X113842337Y-153354002D01*
X113652463Y-153638169D01*
X113521675Y-153953919D01*
X113455000Y-154289117D01*
X113455000Y-154630883D01*
X113521675Y-154966081D01*
X113652463Y-155281831D01*
X113808261Y-155515000D01*
X113773740Y-155515000D01*
X113486842Y-155572068D01*
X113216589Y-155684010D01*
X112973368Y-155846525D01*
X112766525Y-156053368D01*
X112604010Y-156296589D01*
X112492068Y-156566842D01*
X112435000Y-156853740D01*
X112435000Y-157146260D01*
X112492068Y-157433158D01*
X112604010Y-157703411D01*
X112766525Y-157946632D01*
X112973368Y-158153475D01*
X113216589Y-158315990D01*
X113486842Y-158427932D01*
X113773740Y-158485000D01*
X114066260Y-158485000D01*
X114353158Y-158427932D01*
X114623411Y-158315990D01*
X114866632Y-158153475D01*
X115073475Y-157946632D01*
X115235990Y-157703411D01*
X115347932Y-157433158D01*
X115405000Y-157146260D01*
X115405000Y-156853740D01*
X115382471Y-156740475D01*
X116365000Y-156740475D01*
X116365000Y-157259525D01*
X116466261Y-157768601D01*
X116664893Y-158248141D01*
X116953262Y-158679715D01*
X117320285Y-159046738D01*
X117751859Y-159335107D01*
X118231399Y-159533739D01*
X118740475Y-159635000D01*
X119259525Y-159635000D01*
X119768601Y-159533739D01*
X120248141Y-159335107D01*
X120679715Y-159046738D01*
X121046738Y-158679715D01*
X121335107Y-158248141D01*
X121533739Y-157768601D01*
X121635000Y-157259525D01*
X121635000Y-156853740D01*
X122595000Y-156853740D01*
X122595000Y-157146260D01*
X122652068Y-157433158D01*
X122764010Y-157703411D01*
X122926525Y-157946632D01*
X123133368Y-158153475D01*
X123376589Y-158315990D01*
X123646842Y-158427932D01*
X123933740Y-158485000D01*
X124226260Y-158485000D01*
X124513158Y-158427932D01*
X124783411Y-158315990D01*
X125026632Y-158153475D01*
X125233475Y-157946632D01*
X125395990Y-157703411D01*
X125507932Y-157433158D01*
X125565000Y-157146260D01*
X125565000Y-156853740D01*
X131435000Y-156853740D01*
X131435000Y-157146260D01*
X131492068Y-157433158D01*
X131604010Y-157703411D01*
X131766525Y-157946632D01*
X131973368Y-158153475D01*
X132216589Y-158315990D01*
X132486842Y-158427932D01*
X132773740Y-158485000D01*
X133066260Y-158485000D01*
X133353158Y-158427932D01*
X133623411Y-158315990D01*
X133866632Y-158153475D01*
X134073475Y-157946632D01*
X134235990Y-157703411D01*
X134347932Y-157433158D01*
X134405000Y-157146260D01*
X134405000Y-156853740D01*
X134382471Y-156740475D01*
X135365000Y-156740475D01*
X135365000Y-157259525D01*
X135466261Y-157768601D01*
X135664893Y-158248141D01*
X135953262Y-158679715D01*
X136320285Y-159046738D01*
X136751859Y-159335107D01*
X137231399Y-159533739D01*
X137740475Y-159635000D01*
X138259525Y-159635000D01*
X138768601Y-159533739D01*
X139248141Y-159335107D01*
X139679715Y-159046738D01*
X140046738Y-158679715D01*
X140335107Y-158248141D01*
X140533739Y-157768601D01*
X140635000Y-157259525D01*
X140635000Y-156853740D01*
X141595000Y-156853740D01*
X141595000Y-157146260D01*
X141652068Y-157433158D01*
X141764010Y-157703411D01*
X141926525Y-157946632D01*
X142133368Y-158153475D01*
X142376589Y-158315990D01*
X142646842Y-158427932D01*
X142933740Y-158485000D01*
X143226260Y-158485000D01*
X143513158Y-158427932D01*
X143783411Y-158315990D01*
X144026632Y-158153475D01*
X144233475Y-157946632D01*
X144395990Y-157703411D01*
X144507932Y-157433158D01*
X144565000Y-157146260D01*
X144565000Y-156853740D01*
X150435000Y-156853740D01*
X150435000Y-157146260D01*
X150492068Y-157433158D01*
X150604010Y-157703411D01*
X150766525Y-157946632D01*
X150973368Y-158153475D01*
X151216589Y-158315990D01*
X151486842Y-158427932D01*
X151773740Y-158485000D01*
X152066260Y-158485000D01*
X152353158Y-158427932D01*
X152623411Y-158315990D01*
X152866632Y-158153475D01*
X153073475Y-157946632D01*
X153235990Y-157703411D01*
X153347932Y-157433158D01*
X153405000Y-157146260D01*
X153405000Y-156853740D01*
X153382471Y-156740475D01*
X154365000Y-156740475D01*
X154365000Y-157259525D01*
X154466261Y-157768601D01*
X154664893Y-158248141D01*
X154953262Y-158679715D01*
X155320285Y-159046738D01*
X155751859Y-159335107D01*
X156231399Y-159533739D01*
X156740475Y-159635000D01*
X157259525Y-159635000D01*
X157768601Y-159533739D01*
X158248141Y-159335107D01*
X158679715Y-159046738D01*
X159046738Y-158679715D01*
X159335107Y-158248141D01*
X159533739Y-157768601D01*
X159635000Y-157259525D01*
X159635000Y-156853740D01*
X160595000Y-156853740D01*
X160595000Y-157146260D01*
X160652068Y-157433158D01*
X160764010Y-157703411D01*
X160926525Y-157946632D01*
X161133368Y-158153475D01*
X161376589Y-158315990D01*
X161646842Y-158427932D01*
X161933740Y-158485000D01*
X162226260Y-158485000D01*
X162513158Y-158427932D01*
X162783411Y-158315990D01*
X163026632Y-158153475D01*
X163233475Y-157946632D01*
X163395990Y-157703411D01*
X163507932Y-157433158D01*
X163565000Y-157146260D01*
X163565000Y-156853740D01*
X163507932Y-156566842D01*
X163395990Y-156296589D01*
X163233475Y-156053368D01*
X163026632Y-155846525D01*
X162783411Y-155684010D01*
X162513158Y-155572068D01*
X162226260Y-155515000D01*
X161933740Y-155515000D01*
X161646842Y-155572068D01*
X161376589Y-155684010D01*
X161133368Y-155846525D01*
X160926525Y-156053368D01*
X160764010Y-156296589D01*
X160652068Y-156566842D01*
X160595000Y-156853740D01*
X159635000Y-156853740D01*
X159635000Y-156740475D01*
X159533739Y-156231399D01*
X159335107Y-155751859D01*
X159046738Y-155320285D01*
X158679715Y-154953262D01*
X158248141Y-154664893D01*
X157768601Y-154466261D01*
X157259525Y-154365000D01*
X156740475Y-154365000D01*
X156231399Y-154466261D01*
X155751859Y-154664893D01*
X155320285Y-154953262D01*
X154953262Y-155320285D01*
X154664893Y-155751859D01*
X154466261Y-156231399D01*
X154365000Y-156740475D01*
X153382471Y-156740475D01*
X153347932Y-156566842D01*
X153235990Y-156296589D01*
X153168110Y-156195000D01*
X153360883Y-156195000D01*
X153696081Y-156128325D01*
X154011831Y-155997537D01*
X154295998Y-155807663D01*
X154537663Y-155565998D01*
X154727537Y-155281831D01*
X154858325Y-154966081D01*
X154925000Y-154630883D01*
X154925000Y-154289117D01*
X154858325Y-153953919D01*
X154727537Y-153638169D01*
X154537663Y-153354002D01*
X154295998Y-153112337D01*
X154011831Y-152922463D01*
X153696081Y-152791675D01*
X153360883Y-152725000D01*
X153019117Y-152725000D01*
X152683919Y-152791675D01*
X152368169Y-152922463D01*
X152084002Y-153112337D01*
X151842337Y-153354002D01*
X151652463Y-153638169D01*
X151521675Y-153953919D01*
X151455000Y-154289117D01*
X151455000Y-154630883D01*
X151521675Y-154966081D01*
X151652463Y-155281831D01*
X151808261Y-155515000D01*
X151773740Y-155515000D01*
X151486842Y-155572068D01*
X151216589Y-155684010D01*
X150973368Y-155846525D01*
X150766525Y-156053368D01*
X150604010Y-156296589D01*
X150492068Y-156566842D01*
X150435000Y-156853740D01*
X144565000Y-156853740D01*
X144507932Y-156566842D01*
X144395990Y-156296589D01*
X144233475Y-156053368D01*
X144026632Y-155846525D01*
X143783411Y-155684010D01*
X143513158Y-155572068D01*
X143226260Y-155515000D01*
X142933740Y-155515000D01*
X142646842Y-155572068D01*
X142376589Y-155684010D01*
X142133368Y-155846525D01*
X141926525Y-156053368D01*
X141764010Y-156296589D01*
X141652068Y-156566842D01*
X141595000Y-156853740D01*
X140635000Y-156853740D01*
X140635000Y-156740475D01*
X140533739Y-156231399D01*
X140335107Y-155751859D01*
X140046738Y-155320285D01*
X139679715Y-154953262D01*
X139248141Y-154664893D01*
X138768601Y-154466261D01*
X138259525Y-154365000D01*
X137740475Y-154365000D01*
X137231399Y-154466261D01*
X136751859Y-154664893D01*
X136320285Y-154953262D01*
X135953262Y-155320285D01*
X135664893Y-155751859D01*
X135466261Y-156231399D01*
X135365000Y-156740475D01*
X134382471Y-156740475D01*
X134347932Y-156566842D01*
X134235990Y-156296589D01*
X134168110Y-156195000D01*
X134360883Y-156195000D01*
X134696081Y-156128325D01*
X135011831Y-155997537D01*
X135295998Y-155807663D01*
X135537663Y-155565998D01*
X135727537Y-155281831D01*
X135858325Y-154966081D01*
X135925000Y-154630883D01*
X135925000Y-154289117D01*
X135858325Y-153953919D01*
X135727537Y-153638169D01*
X135537663Y-153354002D01*
X135295998Y-153112337D01*
X135011831Y-152922463D01*
X134696081Y-152791675D01*
X134360883Y-152725000D01*
X134019117Y-152725000D01*
X133683919Y-152791675D01*
X133368169Y-152922463D01*
X133084002Y-153112337D01*
X132842337Y-153354002D01*
X132652463Y-153638169D01*
X132521675Y-153953919D01*
X132455000Y-154289117D01*
X132455000Y-154630883D01*
X132521675Y-154966081D01*
X132652463Y-155281831D01*
X132808261Y-155515000D01*
X132773740Y-155515000D01*
X132486842Y-155572068D01*
X132216589Y-155684010D01*
X131973368Y-155846525D01*
X131766525Y-156053368D01*
X131604010Y-156296589D01*
X131492068Y-156566842D01*
X131435000Y-156853740D01*
X125565000Y-156853740D01*
X125507932Y-156566842D01*
X125395990Y-156296589D01*
X125233475Y-156053368D01*
X125026632Y-155846525D01*
X124783411Y-155684010D01*
X124513158Y-155572068D01*
X124226260Y-155515000D01*
X123933740Y-155515000D01*
X123646842Y-155572068D01*
X123376589Y-155684010D01*
X123133368Y-155846525D01*
X122926525Y-156053368D01*
X122764010Y-156296589D01*
X122652068Y-156566842D01*
X122595000Y-156853740D01*
X121635000Y-156853740D01*
X121635000Y-156740475D01*
X121533739Y-156231399D01*
X121335107Y-155751859D01*
X121046738Y-155320285D01*
X120679715Y-154953262D01*
X120248141Y-154664893D01*
X119768601Y-154466261D01*
X119259525Y-154365000D01*
X118740475Y-154365000D01*
X118231399Y-154466261D01*
X117751859Y-154664893D01*
X117320285Y-154953262D01*
X116953262Y-155320285D01*
X116664893Y-155751859D01*
X116466261Y-156231399D01*
X116365000Y-156740475D01*
X115382471Y-156740475D01*
X115347932Y-156566842D01*
X115235990Y-156296589D01*
X115168110Y-156195000D01*
X115360883Y-156195000D01*
X115696081Y-156128325D01*
X116011831Y-155997537D01*
X116295998Y-155807663D01*
X116537663Y-155565998D01*
X116727537Y-155281831D01*
X116858325Y-154966081D01*
X116925000Y-154630883D01*
X116925000Y-154289117D01*
X116858325Y-153953919D01*
X116845429Y-153922785D01*
X116849468Y-153919470D01*
X116874118Y-153889434D01*
X116874121Y-153889431D01*
X116947865Y-153799573D01*
X117020981Y-153662784D01*
X117066005Y-153514358D01*
X117071601Y-153457537D01*
X117077399Y-153398674D01*
X117077399Y-153398666D01*
X117081207Y-153360001D01*
X117077399Y-153321336D01*
X117077399Y-139803852D01*
X117320285Y-140046738D01*
X117751859Y-140335107D01*
X118231399Y-140533739D01*
X118740475Y-140635000D01*
X119259525Y-140635000D01*
X119768601Y-140533739D01*
X120248141Y-140335107D01*
X120679715Y-140046738D01*
X121046738Y-139679715D01*
X121335107Y-139248141D01*
X121533739Y-138768601D01*
X121635000Y-138259525D01*
X121635000Y-137740475D01*
X121533739Y-137231399D01*
X121335107Y-136751859D01*
X121046738Y-136320285D01*
X120679715Y-135953262D01*
X120248141Y-135664893D01*
X119768601Y-135466261D01*
X119259525Y-135365000D01*
X118740475Y-135365000D01*
X118231399Y-135466261D01*
X117751859Y-135664893D01*
X117534601Y-135810060D01*
X117534601Y-121189940D01*
X117751859Y-121335107D01*
X118231399Y-121533739D01*
X118740475Y-121635000D01*
X119259525Y-121635000D01*
X119768601Y-121533739D01*
X120248141Y-121335107D01*
X120679715Y-121046738D01*
X121046738Y-120679715D01*
X121335107Y-120248141D01*
X121533739Y-119768601D01*
X121635000Y-119259525D01*
X121635000Y-118740475D01*
X121533739Y-118231399D01*
X121335107Y-117751859D01*
X121046738Y-117320285D01*
X120679715Y-116953262D01*
X120248141Y-116664893D01*
X119768601Y-116466261D01*
X119259525Y-116365000D01*
X118740475Y-116365000D01*
X118231399Y-116466261D01*
X117751859Y-116664893D01*
X117534601Y-116810060D01*
X117534601Y-115261866D01*
X117538409Y-115223201D01*
X117534601Y-115184536D01*
X117534601Y-115184528D01*
X117523207Y-115068844D01*
X117478183Y-114920418D01*
X117405067Y-114783629D01*
X117399293Y-114776593D01*
X117331323Y-114693771D01*
X117331320Y-114693768D01*
X117306670Y-114663732D01*
X117276634Y-114639082D01*
X110360402Y-107722852D01*
X110388400Y-107582094D01*
X110388400Y-107301906D01*
X110333738Y-107027101D01*
X110226514Y-106768241D01*
X110070850Y-106535273D01*
X109872727Y-106337150D01*
X109639759Y-106181486D01*
X109616858Y-106172000D01*
X109639759Y-106162514D01*
X109872727Y-106006850D01*
X110070850Y-105808727D01*
X110226514Y-105575759D01*
X110333738Y-105316899D01*
X110388400Y-105042094D01*
X110388400Y-104761906D01*
X110333738Y-104487101D01*
X110226514Y-104228241D01*
X110157943Y-104125617D01*
X110740028Y-103543533D01*
X110770070Y-103518878D01*
X110824756Y-103452243D01*
X110868467Y-103398982D01*
X110941583Y-103262192D01*
X110974616Y-103153294D01*
X110986607Y-103113766D01*
X110998001Y-102998082D01*
X110998001Y-102998072D01*
X111001809Y-102959409D01*
X110998001Y-102920746D01*
X110998001Y-102100891D01*
X112542934Y-100555959D01*
X112604010Y-100703411D01*
X112766525Y-100946632D01*
X112973368Y-101153475D01*
X113216589Y-101315990D01*
X113486842Y-101427932D01*
X113773740Y-101485000D01*
X114066260Y-101485000D01*
X114353158Y-101427932D01*
X114623411Y-101315990D01*
X114866632Y-101153475D01*
X115073475Y-100946632D01*
X115235990Y-100703411D01*
X115347932Y-100433158D01*
X115405000Y-100146260D01*
X115405000Y-99853740D01*
X115347932Y-99566842D01*
X115235990Y-99296589D01*
X115168110Y-99195000D01*
X115360883Y-99195000D01*
X115696081Y-99128325D01*
X116011831Y-98997537D01*
X116295998Y-98807663D01*
X116537663Y-98565998D01*
X116727537Y-98281831D01*
X116858325Y-97966081D01*
X116925000Y-97630883D01*
X116925000Y-97289117D01*
X116858325Y-96953919D01*
X116727537Y-96638169D01*
X116537663Y-96354002D01*
X116295998Y-96112337D01*
X116011831Y-95922463D01*
X115696081Y-95791675D01*
X115360883Y-95725000D01*
X115019117Y-95725000D01*
X114683919Y-95791675D01*
X114368169Y-95922463D01*
X114084002Y-96112337D01*
X113842337Y-96354002D01*
X113652463Y-96638169D01*
X113521675Y-96953919D01*
X113455000Y-97289117D01*
X113455000Y-97630883D01*
X113483189Y-97772599D01*
X113464008Y-97772599D01*
X113425343Y-97768791D01*
X113386678Y-97772599D01*
X113386670Y-97772599D01*
X113270986Y-97783993D01*
X113122560Y-97829017D01*
X112985770Y-97902133D01*
X112895913Y-97975877D01*
X112895910Y-97975880D01*
X112865874Y-98000530D01*
X112841224Y-98030566D01*
X109718016Y-101153776D01*
X109639759Y-101101486D01*
X109616858Y-101092000D01*
X109639759Y-101082514D01*
X109872727Y-100926850D01*
X110070850Y-100728727D01*
X110226514Y-100495759D01*
X110333738Y-100236899D01*
X110388400Y-99962094D01*
X110388400Y-99681906D01*
X110333738Y-99407101D01*
X110226514Y-99148241D01*
X110070850Y-98915273D01*
X109872727Y-98717150D01*
X109639759Y-98561486D01*
X109616858Y-98552000D01*
X109639759Y-98542514D01*
X109872727Y-98386850D01*
X110070850Y-98188727D01*
X110226514Y-97955759D01*
X110333738Y-97696899D01*
X110388400Y-97422094D01*
X110388400Y-97141906D01*
X110333738Y-96867101D01*
X110226514Y-96608241D01*
X110070850Y-96375273D01*
X109872727Y-96177150D01*
X109639759Y-96021486D01*
X109616858Y-96012000D01*
X109639759Y-96002514D01*
X109872727Y-95846850D01*
X110070850Y-95648727D01*
X110226514Y-95415759D01*
X110333738Y-95156899D01*
X110388400Y-94882094D01*
X110388400Y-94601906D01*
X110333738Y-94327101D01*
X110316216Y-94284799D01*
X119925158Y-94284799D01*
X119871675Y-94413919D01*
X119805000Y-94749117D01*
X119805000Y-95090883D01*
X119871675Y-95426081D01*
X120002463Y-95741831D01*
X120192337Y-96025998D01*
X120434002Y-96267663D01*
X120718169Y-96457537D01*
X120752600Y-96471799D01*
X120752600Y-96514306D01*
X120752601Y-96514316D01*
X120752600Y-98026147D01*
X120679715Y-97953262D01*
X120248141Y-97664893D01*
X119768601Y-97466261D01*
X119259525Y-97365000D01*
X118740475Y-97365000D01*
X118231399Y-97466261D01*
X117751859Y-97664893D01*
X117320285Y-97953262D01*
X116953262Y-98320285D01*
X116664893Y-98751859D01*
X116466261Y-99231399D01*
X116365000Y-99740475D01*
X116365000Y-100259525D01*
X116466261Y-100768601D01*
X116664893Y-101248141D01*
X116953262Y-101679715D01*
X117320285Y-102046738D01*
X117751859Y-102335107D01*
X118231399Y-102533739D01*
X118740475Y-102635000D01*
X119259525Y-102635000D01*
X119768601Y-102533739D01*
X120248141Y-102335107D01*
X120679715Y-102046738D01*
X121046738Y-101679715D01*
X121335107Y-101248141D01*
X121533739Y-100768601D01*
X121577980Y-100546188D01*
X126463219Y-105431428D01*
X126487873Y-105461469D01*
X126517912Y-105486121D01*
X126607769Y-105559866D01*
X126637503Y-105575759D01*
X126744559Y-105632982D01*
X126892985Y-105678006D01*
X127008669Y-105689400D01*
X127008677Y-105689400D01*
X127047342Y-105693208D01*
X127086007Y-105689400D01*
X127385048Y-105689400D01*
X121010578Y-112063872D01*
X120980531Y-112088531D01*
X120882134Y-112208429D01*
X120809283Y-112344722D01*
X120718169Y-112382463D01*
X120434002Y-112572337D01*
X120192337Y-112814002D01*
X120002463Y-113098169D01*
X119871675Y-113413919D01*
X119805000Y-113749117D01*
X119805000Y-114090883D01*
X119871675Y-114426081D01*
X120002463Y-114741831D01*
X120192337Y-115025998D01*
X120434002Y-115267663D01*
X120718169Y-115457537D01*
X121033919Y-115588325D01*
X121369117Y-115655000D01*
X121710883Y-115655000D01*
X122046081Y-115588325D01*
X122080513Y-115574063D01*
X124021449Y-117515000D01*
X123933740Y-117515000D01*
X123646842Y-117572068D01*
X123376589Y-117684010D01*
X123133368Y-117846525D01*
X122926525Y-118053368D01*
X122764010Y-118296589D01*
X122652068Y-118566842D01*
X122595000Y-118853740D01*
X122595000Y-119146260D01*
X122652068Y-119433158D01*
X122764010Y-119703411D01*
X122926525Y-119946632D01*
X123133368Y-120153475D01*
X123376589Y-120315990D01*
X123646842Y-120427932D01*
X123933740Y-120485000D01*
X124226260Y-120485000D01*
X124513158Y-120427932D01*
X124783411Y-120315990D01*
X125026632Y-120153475D01*
X125069600Y-120110507D01*
X125069601Y-128276848D01*
X122080513Y-131265937D01*
X122046081Y-131251675D01*
X121710883Y-131185000D01*
X121369117Y-131185000D01*
X121033919Y-131251675D01*
X120718169Y-131382463D01*
X120434002Y-131572337D01*
X120192337Y-131814002D01*
X120002463Y-132098169D01*
X119871675Y-132413919D01*
X119805000Y-132749117D01*
X119805000Y-133090883D01*
X119871675Y-133426081D01*
X120002463Y-133741831D01*
X120192337Y-134025998D01*
X120434002Y-134267663D01*
X120718169Y-134457537D01*
X121033919Y-134588325D01*
X121369117Y-134655000D01*
X121710883Y-134655000D01*
X122046081Y-134588325D01*
X122080513Y-134574063D01*
X124021449Y-136515000D01*
X123933740Y-136515000D01*
X123646842Y-136572068D01*
X123376589Y-136684010D01*
X123133368Y-136846525D01*
X122926525Y-137053368D01*
X122764010Y-137296589D01*
X122652068Y-137566842D01*
X122595000Y-137853740D01*
X122595000Y-138146260D01*
X122652068Y-138433158D01*
X122764010Y-138703411D01*
X122926525Y-138946632D01*
X123133368Y-139153475D01*
X123376589Y-139315990D01*
X123646842Y-139427932D01*
X123933740Y-139485000D01*
X124226260Y-139485000D01*
X124513158Y-139427932D01*
X124783411Y-139315990D01*
X124942600Y-139209623D01*
X124942601Y-147403848D01*
X122080513Y-150265937D01*
X122046081Y-150251675D01*
X121710883Y-150185000D01*
X121369117Y-150185000D01*
X121033919Y-150251675D01*
X120718169Y-150382463D01*
X120434002Y-150572337D01*
X120192337Y-150814002D01*
X120002463Y-151098169D01*
X119871675Y-151413919D01*
X119805000Y-151749117D01*
X119805000Y-152090883D01*
X119871675Y-152426081D01*
X120002463Y-152741831D01*
X120192337Y-153025998D01*
X120434002Y-153267663D01*
X120718169Y-153457537D01*
X121033919Y-153588325D01*
X121369117Y-153655000D01*
X121710883Y-153655000D01*
X122046081Y-153588325D01*
X122361831Y-153457537D01*
X122645998Y-153267663D01*
X122887663Y-153025998D01*
X123077537Y-152741831D01*
X123208325Y-152426081D01*
X123275000Y-152090883D01*
X123275000Y-151749117D01*
X123208325Y-151413919D01*
X123194063Y-151379487D01*
X126259428Y-148314123D01*
X126289469Y-148289469D01*
X126337835Y-148230535D01*
X126387866Y-148169573D01*
X126460982Y-148032783D01*
X126506006Y-147884357D01*
X126517400Y-147768673D01*
X126517400Y-147768663D01*
X126521208Y-147730000D01*
X126517400Y-147691337D01*
X126517400Y-137853740D01*
X131435000Y-137853740D01*
X131435000Y-138146260D01*
X131492068Y-138433158D01*
X131604010Y-138703411D01*
X131766525Y-138946632D01*
X131973368Y-139153475D01*
X132216589Y-139315990D01*
X132486842Y-139427932D01*
X132773740Y-139485000D01*
X133066260Y-139485000D01*
X133353158Y-139427932D01*
X133623411Y-139315990D01*
X133866632Y-139153475D01*
X134073475Y-138946632D01*
X134235990Y-138703411D01*
X134347932Y-138433158D01*
X134405000Y-138146260D01*
X134405000Y-137853740D01*
X134347932Y-137566842D01*
X134235990Y-137296589D01*
X134168110Y-137195000D01*
X134360883Y-137195000D01*
X134696081Y-137128325D01*
X135011831Y-136997537D01*
X135295998Y-136807663D01*
X135537663Y-136565998D01*
X135727537Y-136281831D01*
X135858325Y-135966081D01*
X135925000Y-135630883D01*
X135925000Y-135289117D01*
X135858325Y-134953919D01*
X135727537Y-134638169D01*
X135537663Y-134354002D01*
X135295998Y-134112337D01*
X135011831Y-133922463D01*
X134696081Y-133791675D01*
X134360883Y-133725000D01*
X134019117Y-133725000D01*
X133683919Y-133791675D01*
X133368169Y-133922463D01*
X133084002Y-134112337D01*
X132842337Y-134354002D01*
X132652463Y-134638169D01*
X132521675Y-134953919D01*
X132455000Y-135289117D01*
X132455000Y-135630883D01*
X132521675Y-135966081D01*
X132652463Y-136281831D01*
X132808261Y-136515000D01*
X132773740Y-136515000D01*
X132486842Y-136572068D01*
X132216589Y-136684010D01*
X131973368Y-136846525D01*
X131766525Y-137053368D01*
X131604010Y-137296589D01*
X131492068Y-137566842D01*
X131435000Y-137853740D01*
X126517400Y-137853740D01*
X126517400Y-137148663D01*
X126521208Y-137110000D01*
X126517400Y-137071337D01*
X126517400Y-137071327D01*
X126506006Y-136955643D01*
X126460982Y-136807217D01*
X126431392Y-136751859D01*
X126387866Y-136670427D01*
X126314121Y-136580570D01*
X126289469Y-136550531D01*
X126259429Y-136525878D01*
X123194063Y-133460513D01*
X123208325Y-133426081D01*
X123275000Y-133090883D01*
X123275000Y-132749117D01*
X123208325Y-132413919D01*
X123194063Y-132379487D01*
X126386428Y-129187123D01*
X126416469Y-129162469D01*
X126464835Y-129103535D01*
X126514866Y-129042573D01*
X126587982Y-128905783D01*
X126604222Y-128852245D01*
X126633006Y-128757357D01*
X126644400Y-128641673D01*
X126644400Y-128641663D01*
X126648208Y-128603000D01*
X126644400Y-128564337D01*
X126644400Y-118275663D01*
X126648208Y-118237000D01*
X126644400Y-118198337D01*
X126644400Y-118198327D01*
X126633006Y-118082643D01*
X126587982Y-117934217D01*
X126551157Y-117865323D01*
X126514866Y-117797427D01*
X126441121Y-117707570D01*
X126416469Y-117677531D01*
X126386429Y-117652878D01*
X123194063Y-114460513D01*
X123208325Y-114426081D01*
X123275000Y-114090883D01*
X123275000Y-113749117D01*
X123208325Y-113413919D01*
X123077537Y-113098169D01*
X122887663Y-112814002D01*
X122687606Y-112613945D01*
X127863600Y-107437951D01*
X127863600Y-107582094D01*
X127918262Y-107856899D01*
X128025486Y-108115759D01*
X128181150Y-108348727D01*
X128379273Y-108546850D01*
X128612241Y-108702514D01*
X128635142Y-108712000D01*
X128612241Y-108721486D01*
X128379273Y-108877150D01*
X128181150Y-109075273D01*
X128025486Y-109308241D01*
X127918262Y-109567101D01*
X127863600Y-109841906D01*
X127863600Y-110122094D01*
X127918262Y-110396899D01*
X128025486Y-110655759D01*
X128181150Y-110888727D01*
X128379273Y-111086850D01*
X128612241Y-111242514D01*
X128635142Y-111252000D01*
X128612241Y-111261486D01*
X128379273Y-111417150D01*
X128181150Y-111615273D01*
X128025486Y-111848241D01*
X127918262Y-112107101D01*
X127863600Y-112381906D01*
X127863600Y-112662094D01*
X127918262Y-112936899D01*
X128025486Y-113195759D01*
X128181150Y-113428727D01*
X128379273Y-113626850D01*
X128612241Y-113782514D01*
X128635142Y-113792000D01*
X128612241Y-113801486D01*
X128379273Y-113957150D01*
X128181150Y-114155273D01*
X128025486Y-114388241D01*
X127918262Y-114647101D01*
X127863600Y-114921906D01*
X127863600Y-115202094D01*
X127918262Y-115476899D01*
X128025486Y-115735759D01*
X128181150Y-115968727D01*
X128379273Y-116166850D01*
X128612241Y-116322514D01*
X128635142Y-116332000D01*
X128612241Y-116341486D01*
X128379273Y-116497150D01*
X128181150Y-116695273D01*
X128025486Y-116928241D01*
X127918262Y-117187101D01*
X127863600Y-117461906D01*
X127863600Y-117742094D01*
X127918262Y-118016899D01*
X128025486Y-118275759D01*
X128181150Y-118508727D01*
X128379273Y-118706850D01*
X128612241Y-118862514D01*
X128635142Y-118872000D01*
X128612241Y-118881486D01*
X128379273Y-119037150D01*
X128181150Y-119235273D01*
X128025486Y-119468241D01*
X127918262Y-119727101D01*
X127863600Y-120001906D01*
X127863600Y-120282094D01*
X127918262Y-120556899D01*
X128025486Y-120815759D01*
X128181150Y-121048727D01*
X128379273Y-121246850D01*
X128612241Y-121402514D01*
X128871101Y-121509738D01*
X129145906Y-121564400D01*
X129426094Y-121564400D01*
X129700899Y-121509738D01*
X129959759Y-121402514D01*
X130192727Y-121246850D01*
X130390850Y-121048727D01*
X130546514Y-120815759D01*
X130653738Y-120556899D01*
X130708400Y-120282094D01*
X130708400Y-120001906D01*
X130653738Y-119727101D01*
X130546514Y-119468241D01*
X130390850Y-119235273D01*
X130192727Y-119037150D01*
X129959759Y-118881486D01*
X129936858Y-118872000D01*
X129959759Y-118862514D01*
X129972890Y-118853740D01*
X131435000Y-118853740D01*
X131435000Y-119146260D01*
X131492068Y-119433158D01*
X131604010Y-119703411D01*
X131766525Y-119946632D01*
X131973368Y-120153475D01*
X132216589Y-120315990D01*
X132486842Y-120427932D01*
X132773740Y-120485000D01*
X133066260Y-120485000D01*
X133353158Y-120427932D01*
X133623411Y-120315990D01*
X133866632Y-120153475D01*
X134073475Y-119946632D01*
X134235990Y-119703411D01*
X134347932Y-119433158D01*
X134405000Y-119146260D01*
X134405000Y-118853740D01*
X134347932Y-118566842D01*
X134235990Y-118296589D01*
X134168110Y-118195000D01*
X134360883Y-118195000D01*
X134696081Y-118128325D01*
X135011831Y-117997537D01*
X135295998Y-117807663D01*
X135537663Y-117565998D01*
X135727537Y-117281831D01*
X135858325Y-116966081D01*
X135925000Y-116630883D01*
X135925000Y-116289117D01*
X135858325Y-115953919D01*
X135727537Y-115638169D01*
X135537663Y-115354002D01*
X135295998Y-115112337D01*
X135011831Y-114922463D01*
X134696081Y-114791675D01*
X134360883Y-114725000D01*
X134019117Y-114725000D01*
X133683919Y-114791675D01*
X133368169Y-114922463D01*
X133084002Y-115112337D01*
X132842337Y-115354002D01*
X132652463Y-115638169D01*
X132521675Y-115953919D01*
X132455000Y-116289117D01*
X132455000Y-116630883D01*
X132521675Y-116966081D01*
X132652463Y-117281831D01*
X132808261Y-117515000D01*
X132773740Y-117515000D01*
X132486842Y-117572068D01*
X132216589Y-117684010D01*
X131973368Y-117846525D01*
X131766525Y-118053368D01*
X131604010Y-118296589D01*
X131492068Y-118566842D01*
X131435000Y-118853740D01*
X129972890Y-118853740D01*
X130192727Y-118706850D01*
X130390850Y-118508727D01*
X130546514Y-118275759D01*
X130653738Y-118016899D01*
X130708400Y-117742094D01*
X130708400Y-117461906D01*
X130653738Y-117187101D01*
X130546514Y-116928241D01*
X130390850Y-116695273D01*
X130192727Y-116497150D01*
X129959759Y-116341486D01*
X129936858Y-116332000D01*
X129959759Y-116322514D01*
X130192727Y-116166850D01*
X130390850Y-115968727D01*
X130546514Y-115735759D01*
X130653738Y-115476899D01*
X130708400Y-115202094D01*
X130708400Y-114921906D01*
X130653738Y-114647101D01*
X130546514Y-114388241D01*
X130390850Y-114155273D01*
X130192727Y-113957150D01*
X129959759Y-113801486D01*
X129936858Y-113792000D01*
X129959759Y-113782514D01*
X130192727Y-113626850D01*
X130390850Y-113428727D01*
X130546514Y-113195759D01*
X130653738Y-112936899D01*
X130708400Y-112662094D01*
X130708400Y-112381906D01*
X130653738Y-112107101D01*
X130546514Y-111848241D01*
X130390850Y-111615273D01*
X130192727Y-111417150D01*
X129959759Y-111261486D01*
X129936858Y-111252000D01*
X129959759Y-111242514D01*
X130192727Y-111086850D01*
X130390850Y-110888727D01*
X130546514Y-110655759D01*
X130653738Y-110396899D01*
X130708400Y-110122094D01*
X130708400Y-109841906D01*
X130653738Y-109567101D01*
X130546514Y-109308241D01*
X130390850Y-109075273D01*
X130192727Y-108877150D01*
X129959759Y-108721486D01*
X129936858Y-108712000D01*
X129959759Y-108702514D01*
X130192727Y-108546850D01*
X130390850Y-108348727D01*
X130546514Y-108115759D01*
X130653738Y-107856899D01*
X130708400Y-107582094D01*
X130708400Y-107301906D01*
X130680402Y-107161149D01*
X131060028Y-106781523D01*
X131090070Y-106756868D01*
X131188467Y-106636971D01*
X131261583Y-106500182D01*
X131306607Y-106351756D01*
X131318001Y-106236072D01*
X131318001Y-106236063D01*
X131321809Y-106197400D01*
X131318001Y-106158737D01*
X131318001Y-104343254D01*
X131321809Y-104304591D01*
X131318001Y-104265928D01*
X131318001Y-104265918D01*
X131306607Y-104150234D01*
X131261583Y-104001808D01*
X131212181Y-103909384D01*
X131188467Y-103865018D01*
X131132768Y-103797150D01*
X131090070Y-103745122D01*
X131060030Y-103720469D01*
X130477943Y-103138383D01*
X130546514Y-103035759D01*
X130653738Y-102776899D01*
X130708400Y-102502094D01*
X130708400Y-102221906D01*
X130680402Y-102081149D01*
X131060035Y-101701517D01*
X131090070Y-101676868D01*
X131114720Y-101646832D01*
X131114723Y-101646829D01*
X131188467Y-101556971D01*
X131261583Y-101420182D01*
X131306607Y-101271756D01*
X131306607Y-101271755D01*
X131318001Y-101156072D01*
X131318001Y-101156064D01*
X131321809Y-101117399D01*
X131318001Y-101078734D01*
X131318001Y-99792549D01*
X131479245Y-99631305D01*
X131435000Y-99853740D01*
X131435000Y-100146260D01*
X131492068Y-100433158D01*
X131604010Y-100703411D01*
X131766525Y-100946632D01*
X131973368Y-101153475D01*
X132216589Y-101315990D01*
X132486842Y-101427932D01*
X132773740Y-101485000D01*
X133066260Y-101485000D01*
X133353158Y-101427932D01*
X133623411Y-101315990D01*
X133866632Y-101153475D01*
X134073475Y-100946632D01*
X134235990Y-100703411D01*
X134347932Y-100433158D01*
X134405000Y-100146260D01*
X134405000Y-99853740D01*
X134347932Y-99566842D01*
X134235990Y-99296589D01*
X134168110Y-99195000D01*
X134360883Y-99195000D01*
X134696081Y-99128325D01*
X135011831Y-98997537D01*
X135295998Y-98807663D01*
X135537663Y-98565998D01*
X135727537Y-98281831D01*
X135858325Y-97966081D01*
X135925000Y-97630883D01*
X135925000Y-97289117D01*
X135858325Y-96953919D01*
X135727537Y-96638169D01*
X135537663Y-96354002D01*
X135295998Y-96112337D01*
X135011831Y-95922463D01*
X134696081Y-95791675D01*
X134672007Y-95786886D01*
X134751494Y-95707400D01*
X138988201Y-95707400D01*
X139002463Y-95741831D01*
X139192337Y-96025998D01*
X139434002Y-96267663D01*
X139718169Y-96457537D01*
X139752601Y-96471799D01*
X139752601Y-98026148D01*
X139679715Y-97953262D01*
X139248141Y-97664893D01*
X138768601Y-97466261D01*
X138259525Y-97365000D01*
X137740475Y-97365000D01*
X137231399Y-97466261D01*
X136751859Y-97664893D01*
X136320285Y-97953262D01*
X135953262Y-98320285D01*
X135664893Y-98751859D01*
X135466261Y-99231399D01*
X135365000Y-99740475D01*
X135365000Y-100259525D01*
X135466261Y-100768601D01*
X135664893Y-101248141D01*
X135953262Y-101679715D01*
X136320285Y-102046738D01*
X136751859Y-102335107D01*
X137231399Y-102533739D01*
X137740475Y-102635000D01*
X138259525Y-102635000D01*
X138768601Y-102533739D01*
X139248141Y-102335107D01*
X139679715Y-102046738D01*
X139752600Y-101973853D01*
X139752600Y-103338672D01*
X139752601Y-103338682D01*
X139752601Y-112368201D01*
X139718169Y-112382463D01*
X139434002Y-112572337D01*
X139192337Y-112814002D01*
X139002463Y-113098169D01*
X138871675Y-113413919D01*
X138805000Y-113749117D01*
X138805000Y-114090883D01*
X138871675Y-114426081D01*
X139002463Y-114741831D01*
X139192337Y-115025998D01*
X139434002Y-115267663D01*
X139718169Y-115457537D01*
X139752601Y-115471799D01*
X139752601Y-117026148D01*
X139679715Y-116953262D01*
X139248141Y-116664893D01*
X138768601Y-116466261D01*
X138259525Y-116365000D01*
X137740475Y-116365000D01*
X137231399Y-116466261D01*
X136751859Y-116664893D01*
X136320285Y-116953262D01*
X135953262Y-117320285D01*
X135664893Y-117751859D01*
X135466261Y-118231399D01*
X135365000Y-118740475D01*
X135365000Y-119259525D01*
X135466261Y-119768601D01*
X135664893Y-120248141D01*
X135953262Y-120679715D01*
X136320285Y-121046738D01*
X136751859Y-121335107D01*
X137231399Y-121533739D01*
X137740475Y-121635000D01*
X138259525Y-121635000D01*
X138768601Y-121533739D01*
X139248141Y-121335107D01*
X139679715Y-121046738D01*
X139752601Y-120973852D01*
X139752600Y-131368201D01*
X139718169Y-131382463D01*
X139434002Y-131572337D01*
X139192337Y-131814002D01*
X139002463Y-132098169D01*
X138871675Y-132413919D01*
X138805000Y-132749117D01*
X138805000Y-133090883D01*
X138871675Y-133426081D01*
X139002463Y-133741831D01*
X139192337Y-134025998D01*
X139434002Y-134267663D01*
X139718169Y-134457537D01*
X139752600Y-134471799D01*
X139752600Y-136026147D01*
X139679715Y-135953262D01*
X139248141Y-135664893D01*
X138768601Y-135466261D01*
X138259525Y-135365000D01*
X137740475Y-135365000D01*
X137231399Y-135466261D01*
X136751859Y-135664893D01*
X136320285Y-135953262D01*
X135953262Y-136320285D01*
X135664893Y-136751859D01*
X135466261Y-137231399D01*
X135365000Y-137740475D01*
X135365000Y-138259525D01*
X135466261Y-138768601D01*
X135664893Y-139248141D01*
X135953262Y-139679715D01*
X136320285Y-140046738D01*
X136751859Y-140335107D01*
X137231399Y-140533739D01*
X137740475Y-140635000D01*
X138259525Y-140635000D01*
X138768601Y-140533739D01*
X139248141Y-140335107D01*
X139679715Y-140046738D01*
X139752600Y-139973853D01*
X139752600Y-150368201D01*
X139718169Y-150382463D01*
X139434002Y-150572337D01*
X139192337Y-150814002D01*
X139002463Y-151098169D01*
X138871675Y-151413919D01*
X138805000Y-151749117D01*
X138805000Y-152090883D01*
X138871675Y-152426081D01*
X139002463Y-152741831D01*
X139192337Y-153025998D01*
X139434002Y-153267663D01*
X139718169Y-153457537D01*
X140033919Y-153588325D01*
X140369117Y-153655000D01*
X140710883Y-153655000D01*
X141046081Y-153588325D01*
X141361831Y-153457537D01*
X141645998Y-153267663D01*
X141887663Y-153025998D01*
X142077537Y-152741831D01*
X142208325Y-152426081D01*
X142275000Y-152090883D01*
X142275000Y-151749117D01*
X142208325Y-151413919D01*
X142077537Y-151098169D01*
X141887663Y-150814002D01*
X141645998Y-150572337D01*
X141361831Y-150382463D01*
X141327400Y-150368201D01*
X141327400Y-137853740D01*
X141595000Y-137853740D01*
X141595000Y-138146260D01*
X141652068Y-138433158D01*
X141764010Y-138703411D01*
X141926525Y-138946632D01*
X142133368Y-139153475D01*
X142376589Y-139315990D01*
X142646842Y-139427932D01*
X142933740Y-139485000D01*
X143226260Y-139485000D01*
X143513158Y-139427932D01*
X143783411Y-139315990D01*
X144026632Y-139153475D01*
X144233475Y-138946632D01*
X144395990Y-138703411D01*
X144507932Y-138433158D01*
X144565000Y-138146260D01*
X144565000Y-137853740D01*
X150435000Y-137853740D01*
X150435000Y-138146260D01*
X150492068Y-138433158D01*
X150604010Y-138703411D01*
X150766525Y-138946632D01*
X150973368Y-139153475D01*
X151216589Y-139315990D01*
X151486842Y-139427932D01*
X151773740Y-139485000D01*
X152066260Y-139485000D01*
X152353158Y-139427932D01*
X152623411Y-139315990D01*
X152866632Y-139153475D01*
X153073475Y-138946632D01*
X153235990Y-138703411D01*
X153347932Y-138433158D01*
X153405000Y-138146260D01*
X153405000Y-137853740D01*
X153347932Y-137566842D01*
X153235990Y-137296589D01*
X153168110Y-137195000D01*
X153360883Y-137195000D01*
X153696081Y-137128325D01*
X154011831Y-136997537D01*
X154295998Y-136807663D01*
X154537663Y-136565998D01*
X154727537Y-136281831D01*
X154858325Y-135966081D01*
X154925000Y-135630883D01*
X154925000Y-135289117D01*
X154858325Y-134953919D01*
X154727537Y-134638169D01*
X154537663Y-134354002D01*
X154295998Y-134112337D01*
X154011831Y-133922463D01*
X153696081Y-133791675D01*
X153360883Y-133725000D01*
X153019117Y-133725000D01*
X152683919Y-133791675D01*
X152368169Y-133922463D01*
X152084002Y-134112337D01*
X151842337Y-134354002D01*
X151652463Y-134638169D01*
X151521675Y-134953919D01*
X151455000Y-135289117D01*
X151455000Y-135630883D01*
X151521675Y-135966081D01*
X151652463Y-136281831D01*
X151808261Y-136515000D01*
X151773740Y-136515000D01*
X151486842Y-136572068D01*
X151216589Y-136684010D01*
X150973368Y-136846525D01*
X150766525Y-137053368D01*
X150604010Y-137296589D01*
X150492068Y-137566842D01*
X150435000Y-137853740D01*
X144565000Y-137853740D01*
X144507932Y-137566842D01*
X144395990Y-137296589D01*
X144233475Y-137053368D01*
X144026632Y-136846525D01*
X143783411Y-136684010D01*
X143513158Y-136572068D01*
X143226260Y-136515000D01*
X142933740Y-136515000D01*
X142646842Y-136572068D01*
X142376589Y-136684010D01*
X142133368Y-136846525D01*
X141926525Y-137053368D01*
X141764010Y-137296589D01*
X141652068Y-137566842D01*
X141595000Y-137853740D01*
X141327400Y-137853740D01*
X141327400Y-134471799D01*
X141361831Y-134457537D01*
X141645998Y-134267663D01*
X141887663Y-134025998D01*
X142077537Y-133741831D01*
X142208325Y-133426081D01*
X142275000Y-133090883D01*
X142275000Y-132749117D01*
X142208325Y-132413919D01*
X142077537Y-132098169D01*
X141887663Y-131814002D01*
X141645998Y-131572337D01*
X141361831Y-131382463D01*
X141327400Y-131368201D01*
X141327400Y-118853740D01*
X141595000Y-118853740D01*
X141595000Y-119146260D01*
X141652068Y-119433158D01*
X141764010Y-119703411D01*
X141926525Y-119946632D01*
X142133368Y-120153475D01*
X142376589Y-120315990D01*
X142646842Y-120427932D01*
X142933740Y-120485000D01*
X143226260Y-120485000D01*
X143513158Y-120427932D01*
X143783411Y-120315990D01*
X144026632Y-120153475D01*
X144233475Y-119946632D01*
X144395990Y-119703411D01*
X144507932Y-119433158D01*
X144565000Y-119146260D01*
X144565000Y-118853740D01*
X150435000Y-118853740D01*
X150435000Y-119146260D01*
X150492068Y-119433158D01*
X150604010Y-119703411D01*
X150766525Y-119946632D01*
X150973368Y-120153475D01*
X151216589Y-120315990D01*
X151486842Y-120427932D01*
X151773740Y-120485000D01*
X152066260Y-120485000D01*
X152353158Y-120427932D01*
X152623411Y-120315990D01*
X152866632Y-120153475D01*
X153073475Y-119946632D01*
X153235990Y-119703411D01*
X153347932Y-119433158D01*
X153405000Y-119146260D01*
X153405000Y-118853740D01*
X153347932Y-118566842D01*
X153235990Y-118296589D01*
X153168110Y-118195000D01*
X153360883Y-118195000D01*
X153696081Y-118128325D01*
X154011831Y-117997537D01*
X154295998Y-117807663D01*
X154537663Y-117565998D01*
X154727537Y-117281831D01*
X154858325Y-116966081D01*
X154925000Y-116630883D01*
X154925000Y-116289117D01*
X154858325Y-115953919D01*
X154727537Y-115638169D01*
X154537663Y-115354002D01*
X154295998Y-115112337D01*
X154011831Y-114922463D01*
X153696081Y-114791675D01*
X153360883Y-114725000D01*
X153019117Y-114725000D01*
X152683919Y-114791675D01*
X152368169Y-114922463D01*
X152084002Y-115112337D01*
X151842337Y-115354002D01*
X151652463Y-115638169D01*
X151521675Y-115953919D01*
X151455000Y-116289117D01*
X151455000Y-116630883D01*
X151521675Y-116966081D01*
X151652463Y-117281831D01*
X151808261Y-117515000D01*
X151773740Y-117515000D01*
X151486842Y-117572068D01*
X151216589Y-117684010D01*
X150973368Y-117846525D01*
X150766525Y-118053368D01*
X150604010Y-118296589D01*
X150492068Y-118566842D01*
X150435000Y-118853740D01*
X144565000Y-118853740D01*
X144507932Y-118566842D01*
X144395990Y-118296589D01*
X144233475Y-118053368D01*
X144026632Y-117846525D01*
X143783411Y-117684010D01*
X143513158Y-117572068D01*
X143226260Y-117515000D01*
X142933740Y-117515000D01*
X142646842Y-117572068D01*
X142376589Y-117684010D01*
X142133368Y-117846525D01*
X141926525Y-118053368D01*
X141764010Y-118296589D01*
X141652068Y-118566842D01*
X141595000Y-118853740D01*
X141327400Y-118853740D01*
X141327400Y-115471799D01*
X141361831Y-115457537D01*
X141645998Y-115267663D01*
X141887663Y-115025998D01*
X142077537Y-114741831D01*
X142208325Y-114426081D01*
X142275000Y-114090883D01*
X142275000Y-113749117D01*
X142208325Y-113413919D01*
X142077537Y-113098169D01*
X141887663Y-112814002D01*
X141645998Y-112572337D01*
X141361831Y-112382463D01*
X141327400Y-112368201D01*
X141327400Y-99853740D01*
X141595000Y-99853740D01*
X141595000Y-100146260D01*
X141652068Y-100433158D01*
X141764010Y-100703411D01*
X141926525Y-100946632D01*
X142133368Y-101153475D01*
X142376589Y-101315990D01*
X142646842Y-101427932D01*
X142933740Y-101485000D01*
X143226260Y-101485000D01*
X143513158Y-101427932D01*
X143783411Y-101315990D01*
X144026632Y-101153475D01*
X144233475Y-100946632D01*
X144395990Y-100703411D01*
X144507932Y-100433158D01*
X144565000Y-100146260D01*
X144565000Y-99853740D01*
X150435000Y-99853740D01*
X150435000Y-100146260D01*
X150492068Y-100433158D01*
X150604010Y-100703411D01*
X150766525Y-100946632D01*
X150973368Y-101153475D01*
X151216589Y-101315990D01*
X151486842Y-101427932D01*
X151773740Y-101485000D01*
X152066260Y-101485000D01*
X152353158Y-101427932D01*
X152623411Y-101315990D01*
X152866632Y-101153475D01*
X153073475Y-100946632D01*
X153235990Y-100703411D01*
X153347932Y-100433158D01*
X153405000Y-100146260D01*
X153405000Y-99853740D01*
X153347932Y-99566842D01*
X153235990Y-99296589D01*
X153168110Y-99195000D01*
X153360883Y-99195000D01*
X153696081Y-99128325D01*
X154011831Y-98997537D01*
X154295998Y-98807663D01*
X154537663Y-98565998D01*
X154727537Y-98281831D01*
X154858325Y-97966081D01*
X154925000Y-97630883D01*
X154925000Y-97289117D01*
X154858325Y-96953919D01*
X154727537Y-96638169D01*
X154537663Y-96354002D01*
X154295998Y-96112337D01*
X154011831Y-95922463D01*
X153696081Y-95791675D01*
X153360883Y-95725000D01*
X153019117Y-95725000D01*
X152683919Y-95791675D01*
X152368169Y-95922463D01*
X152084002Y-96112337D01*
X151842337Y-96354002D01*
X151652463Y-96638169D01*
X151521675Y-96953919D01*
X151455000Y-97289117D01*
X151455000Y-97630883D01*
X151521675Y-97966081D01*
X151652463Y-98281831D01*
X151808261Y-98515000D01*
X151773740Y-98515000D01*
X151486842Y-98572068D01*
X151216589Y-98684010D01*
X150973368Y-98846525D01*
X150766525Y-99053368D01*
X150604010Y-99296589D01*
X150492068Y-99566842D01*
X150435000Y-99853740D01*
X144565000Y-99853740D01*
X144507932Y-99566842D01*
X144395990Y-99296589D01*
X144233475Y-99053368D01*
X144026632Y-98846525D01*
X143783411Y-98684010D01*
X143513158Y-98572068D01*
X143226260Y-98515000D01*
X142933740Y-98515000D01*
X142646842Y-98572068D01*
X142376589Y-98684010D01*
X142133368Y-98846525D01*
X141926525Y-99053368D01*
X141764010Y-99296589D01*
X141652068Y-99566842D01*
X141595000Y-99853740D01*
X141327400Y-99853740D01*
X141327400Y-96471799D01*
X141361831Y-96457537D01*
X141645998Y-96267663D01*
X141887663Y-96025998D01*
X142077537Y-95741831D01*
X142208325Y-95426081D01*
X142275000Y-95090883D01*
X142275000Y-94749117D01*
X142208325Y-94413919D01*
X142077537Y-94098169D01*
X141887663Y-93814002D01*
X141645998Y-93572337D01*
X141361831Y-93382463D01*
X141046081Y-93251675D01*
X140710883Y-93185000D01*
X140369117Y-93185000D01*
X140033919Y-93251675D01*
X139718169Y-93382463D01*
X139434002Y-93572337D01*
X139192337Y-93814002D01*
X139002463Y-94098169D01*
X138988201Y-94132600D01*
X135464174Y-94132600D01*
X136480374Y-93116400D01*
X156622850Y-93116400D01*
X157885937Y-94379488D01*
X157871675Y-94413919D01*
X157805000Y-94749117D01*
X157805000Y-95090883D01*
X157871675Y-95426081D01*
X158002463Y-95741831D01*
X158192337Y-96025998D01*
X158434002Y-96267663D01*
X158718169Y-96457537D01*
X158752600Y-96471799D01*
X158752600Y-98026147D01*
X158679715Y-97953262D01*
X158248141Y-97664893D01*
X157768601Y-97466261D01*
X157259525Y-97365000D01*
X156740475Y-97365000D01*
X156231399Y-97466261D01*
X155751859Y-97664893D01*
X155320285Y-97953262D01*
X154953262Y-98320285D01*
X154664893Y-98751859D01*
X154466261Y-99231399D01*
X154365000Y-99740475D01*
X154365000Y-100259525D01*
X154466261Y-100768601D01*
X154664893Y-101248141D01*
X154953262Y-101679715D01*
X155320285Y-102046738D01*
X155751859Y-102335107D01*
X156231399Y-102533739D01*
X156740475Y-102635000D01*
X157259525Y-102635000D01*
X157768601Y-102533739D01*
X158248141Y-102335107D01*
X158679715Y-102046738D01*
X158752600Y-101973853D01*
X158752601Y-112368201D01*
X158718169Y-112382463D01*
X158434002Y-112572337D01*
X158192337Y-112814002D01*
X158002463Y-113098169D01*
X157871675Y-113413919D01*
X157805000Y-113749117D01*
X157805000Y-114090883D01*
X157871675Y-114426081D01*
X158002463Y-114741831D01*
X158192337Y-115025998D01*
X158434002Y-115267663D01*
X158718169Y-115457537D01*
X158752600Y-115471799D01*
X158752600Y-117026147D01*
X158679715Y-116953262D01*
X158248141Y-116664893D01*
X157768601Y-116466261D01*
X157259525Y-116365000D01*
X156740475Y-116365000D01*
X156231399Y-116466261D01*
X155751859Y-116664893D01*
X155320285Y-116953262D01*
X154953262Y-117320285D01*
X154664893Y-117751859D01*
X154466261Y-118231399D01*
X154365000Y-118740475D01*
X154365000Y-119259525D01*
X154466261Y-119768601D01*
X154664893Y-120248141D01*
X154953262Y-120679715D01*
X155320285Y-121046738D01*
X155751859Y-121335107D01*
X156231399Y-121533739D01*
X156740475Y-121635000D01*
X157259525Y-121635000D01*
X157768601Y-121533739D01*
X158248141Y-121335107D01*
X158679715Y-121046738D01*
X158752600Y-120973853D01*
X158752600Y-131368201D01*
X158718169Y-131382463D01*
X158434002Y-131572337D01*
X158192337Y-131814002D01*
X158002463Y-132098169D01*
X157871675Y-132413919D01*
X157805000Y-132749117D01*
X157805000Y-133090883D01*
X157871675Y-133426081D01*
X158002463Y-133741831D01*
X158192337Y-134025998D01*
X158434002Y-134267663D01*
X158718169Y-134457537D01*
X158752601Y-134471799D01*
X158752601Y-136026148D01*
X158679715Y-135953262D01*
X158248141Y-135664893D01*
X157768601Y-135466261D01*
X157259525Y-135365000D01*
X156740475Y-135365000D01*
X156231399Y-135466261D01*
X155751859Y-135664893D01*
X155320285Y-135953262D01*
X154953262Y-136320285D01*
X154664893Y-136751859D01*
X154466261Y-137231399D01*
X154365000Y-137740475D01*
X154365000Y-138259525D01*
X154466261Y-138768601D01*
X154664893Y-139248141D01*
X154953262Y-139679715D01*
X155320285Y-140046738D01*
X155751859Y-140335107D01*
X156231399Y-140533739D01*
X156740475Y-140635000D01*
X157259525Y-140635000D01*
X157768601Y-140533739D01*
X158248141Y-140335107D01*
X158679715Y-140046738D01*
X158752601Y-139973852D01*
X158752601Y-150368201D01*
X158718169Y-150382463D01*
X158434002Y-150572337D01*
X158192337Y-150814002D01*
X158002463Y-151098169D01*
X157871675Y-151413919D01*
X157805000Y-151749117D01*
X157805000Y-152090883D01*
X157871675Y-152426081D01*
X158002463Y-152741831D01*
X158192337Y-153025998D01*
X158434002Y-153267663D01*
X158718169Y-153457537D01*
X159033919Y-153588325D01*
X159369117Y-153655000D01*
X159710883Y-153655000D01*
X160046081Y-153588325D01*
X160361831Y-153457537D01*
X160645998Y-153267663D01*
X160887663Y-153025998D01*
X161077537Y-152741831D01*
X161208325Y-152426081D01*
X161275000Y-152090883D01*
X161275000Y-151749117D01*
X161208325Y-151413919D01*
X161077537Y-151098169D01*
X160887663Y-150814002D01*
X160645998Y-150572337D01*
X160361831Y-150382463D01*
X160327400Y-150368201D01*
X160327400Y-137853740D01*
X160595000Y-137853740D01*
X160595000Y-138146260D01*
X160652068Y-138433158D01*
X160764010Y-138703411D01*
X160926525Y-138946632D01*
X161133368Y-139153475D01*
X161376589Y-139315990D01*
X161646842Y-139427932D01*
X161933740Y-139485000D01*
X162226260Y-139485000D01*
X162513158Y-139427932D01*
X162783411Y-139315990D01*
X163026632Y-139153475D01*
X163233475Y-138946632D01*
X163395990Y-138703411D01*
X163507932Y-138433158D01*
X163565000Y-138146260D01*
X163565000Y-137853740D01*
X163507932Y-137566842D01*
X163395990Y-137296589D01*
X163233475Y-137053368D01*
X163026632Y-136846525D01*
X162783411Y-136684010D01*
X162513158Y-136572068D01*
X162226260Y-136515000D01*
X161933740Y-136515000D01*
X161646842Y-136572068D01*
X161376589Y-136684010D01*
X161133368Y-136846525D01*
X160926525Y-137053368D01*
X160764010Y-137296589D01*
X160652068Y-137566842D01*
X160595000Y-137853740D01*
X160327400Y-137853740D01*
X160327400Y-134471799D01*
X160361831Y-134457537D01*
X160645998Y-134267663D01*
X160887663Y-134025998D01*
X161077537Y-133741831D01*
X161208325Y-133426081D01*
X161275000Y-133090883D01*
X161275000Y-132749117D01*
X161208325Y-132413919D01*
X161077537Y-132098169D01*
X160887663Y-131814002D01*
X160645998Y-131572337D01*
X160361831Y-131382463D01*
X160327400Y-131368201D01*
X160327400Y-118853740D01*
X160595000Y-118853740D01*
X160595000Y-119146260D01*
X160652068Y-119433158D01*
X160764010Y-119703411D01*
X160926525Y-119946632D01*
X161133368Y-120153475D01*
X161376589Y-120315990D01*
X161646842Y-120427932D01*
X161933740Y-120485000D01*
X162226260Y-120485000D01*
X162513158Y-120427932D01*
X162783411Y-120315990D01*
X163026632Y-120153475D01*
X163233475Y-119946632D01*
X163395990Y-119703411D01*
X163507932Y-119433158D01*
X163565000Y-119146260D01*
X163565000Y-118853740D01*
X163507932Y-118566842D01*
X163395990Y-118296589D01*
X163233475Y-118053368D01*
X163026632Y-117846525D01*
X162783411Y-117684010D01*
X162513158Y-117572068D01*
X162226260Y-117515000D01*
X161933740Y-117515000D01*
X161646842Y-117572068D01*
X161376589Y-117684010D01*
X161133368Y-117846525D01*
X160926525Y-118053368D01*
X160764010Y-118296589D01*
X160652068Y-118566842D01*
X160595000Y-118853740D01*
X160327400Y-118853740D01*
X160327400Y-115471799D01*
X160361831Y-115457537D01*
X160645998Y-115267663D01*
X160887663Y-115025998D01*
X161077537Y-114741831D01*
X161208325Y-114426081D01*
X161275000Y-114090883D01*
X161275000Y-113749117D01*
X161208325Y-113413919D01*
X161077537Y-113098169D01*
X160887663Y-112814002D01*
X160645998Y-112572337D01*
X160361831Y-112382463D01*
X160327400Y-112368201D01*
X160327400Y-99853740D01*
X160595000Y-99853740D01*
X160595000Y-100146260D01*
X160652068Y-100433158D01*
X160764010Y-100703411D01*
X160926525Y-100946632D01*
X161133368Y-101153475D01*
X161376589Y-101315990D01*
X161646842Y-101427932D01*
X161933740Y-101485000D01*
X162226260Y-101485000D01*
X162513158Y-101427932D01*
X162783411Y-101315990D01*
X163026632Y-101153475D01*
X163233475Y-100946632D01*
X163395990Y-100703411D01*
X163507932Y-100433158D01*
X163565000Y-100146260D01*
X163565000Y-99853740D01*
X163507932Y-99566842D01*
X163395990Y-99296589D01*
X163233475Y-99053368D01*
X163026632Y-98846525D01*
X162783411Y-98684010D01*
X162513158Y-98572068D01*
X162226260Y-98515000D01*
X161933740Y-98515000D01*
X161646842Y-98572068D01*
X161376589Y-98684010D01*
X161133368Y-98846525D01*
X160926525Y-99053368D01*
X160764010Y-99296589D01*
X160652068Y-99566842D01*
X160595000Y-99853740D01*
X160327400Y-99853740D01*
X160327400Y-96471799D01*
X160361831Y-96457537D01*
X160645998Y-96267663D01*
X160887663Y-96025998D01*
X161077537Y-95741831D01*
X161208325Y-95426081D01*
X161275000Y-95090883D01*
X161275000Y-94749117D01*
X161208325Y-94413919D01*
X161077537Y-94098169D01*
X160887663Y-93814002D01*
X160645998Y-93572337D01*
X160361831Y-93382463D01*
X160046081Y-93251675D01*
X159710883Y-93185000D01*
X159369117Y-93185000D01*
X159033919Y-93251675D01*
X158999488Y-93265937D01*
X157533128Y-91799578D01*
X157508469Y-91769531D01*
X157388572Y-91671134D01*
X157251783Y-91598018D01*
X157103357Y-91552994D01*
X156987673Y-91541600D01*
X156987663Y-91541600D01*
X156949000Y-91537792D01*
X156910337Y-91541600D01*
X136192884Y-91541600D01*
X136154221Y-91537792D01*
X136115558Y-91541600D01*
X136115549Y-91541600D01*
X135999865Y-91552994D01*
X135851439Y-91598018D01*
X135714650Y-91671134D01*
X135714648Y-91671135D01*
X135714649Y-91671135D01*
X135624791Y-91744879D01*
X135624789Y-91744881D01*
X135594753Y-91769531D01*
X135570103Y-91799567D01*
X130609462Y-96760210D01*
X130546514Y-96608241D01*
X130390850Y-96375273D01*
X130192727Y-96177150D01*
X129959759Y-96021486D01*
X129936858Y-96012000D01*
X129959759Y-96002514D01*
X130192727Y-95846850D01*
X130390850Y-95648727D01*
X130546514Y-95415759D01*
X130653738Y-95156899D01*
X130708400Y-94882094D01*
X130708400Y-94601906D01*
X130653738Y-94327101D01*
X130546514Y-94068241D01*
X130390850Y-93835273D01*
X130192727Y-93637150D01*
X129959759Y-93481486D01*
X129936858Y-93472000D01*
X129959759Y-93462514D01*
X130192727Y-93306850D01*
X130390850Y-93108727D01*
X130546514Y-92875759D01*
X130653738Y-92616899D01*
X130708400Y-92342094D01*
X130708400Y-92061906D01*
X130653738Y-91787101D01*
X130546514Y-91528241D01*
X130390850Y-91295273D01*
X130192727Y-91097150D01*
X129959759Y-90941486D01*
X129700899Y-90834262D01*
X129426094Y-90779600D01*
X129145906Y-90779600D01*
X128871101Y-90834262D01*
X128612241Y-90941486D01*
X128379273Y-91097150D01*
X128181150Y-91295273D01*
X128025486Y-91528241D01*
X127918262Y-91787101D01*
X127863600Y-92061906D01*
X127863600Y-92342094D01*
X127918262Y-92616899D01*
X128025486Y-92875759D01*
X128181150Y-93108727D01*
X128379273Y-93306850D01*
X128612241Y-93462514D01*
X128635142Y-93472000D01*
X128612241Y-93481486D01*
X128379273Y-93637150D01*
X128181150Y-93835273D01*
X128025486Y-94068241D01*
X127918262Y-94327101D01*
X127863600Y-94601906D01*
X127863600Y-94882094D01*
X127918262Y-95156899D01*
X128025486Y-95415759D01*
X128181150Y-95648727D01*
X128379273Y-95846850D01*
X128612241Y-96002514D01*
X128635142Y-96012000D01*
X128612241Y-96021486D01*
X128379273Y-96177150D01*
X128181150Y-96375273D01*
X128025486Y-96608241D01*
X127918262Y-96867101D01*
X127863600Y-97141906D01*
X127863600Y-97422094D01*
X127918262Y-97696899D01*
X128025486Y-97955759D01*
X128181150Y-98188727D01*
X128379273Y-98386850D01*
X128612241Y-98542514D01*
X128635142Y-98552000D01*
X128612241Y-98561486D01*
X128379273Y-98717150D01*
X128181150Y-98915273D01*
X128025486Y-99148241D01*
X127918262Y-99407101D01*
X127863600Y-99681906D01*
X127863600Y-99962094D01*
X127918262Y-100236899D01*
X128025486Y-100495759D01*
X128181150Y-100728727D01*
X128379273Y-100926850D01*
X128612241Y-101082514D01*
X128635142Y-101092000D01*
X128612241Y-101101486D01*
X128379273Y-101257150D01*
X128181150Y-101455273D01*
X128025486Y-101688241D01*
X127983982Y-101788441D01*
X127279400Y-101083860D01*
X127279400Y-97606007D01*
X127283208Y-97567342D01*
X127279400Y-97528677D01*
X127279400Y-97528669D01*
X127268006Y-97412985D01*
X127222982Y-97264559D01*
X127192011Y-97206616D01*
X127149866Y-97127769D01*
X127076122Y-97037912D01*
X127076119Y-97037909D01*
X127051469Y-97007873D01*
X127021434Y-96983224D01*
X122871585Y-92833377D01*
X122846926Y-92803330D01*
X122727029Y-92704933D01*
X122590240Y-92631817D01*
X122441814Y-92586793D01*
X122326130Y-92575399D01*
X122326120Y-92575399D01*
X122287457Y-92571591D01*
X122248794Y-92575399D01*
X120831205Y-92575399D01*
X120792542Y-92571591D01*
X120753879Y-92575399D01*
X120753870Y-92575399D01*
X120638186Y-92586793D01*
X120489760Y-92631817D01*
X120352971Y-92704933D01*
X120346798Y-92709999D01*
X110295174Y-92709999D01*
X110333738Y-92616899D01*
X110388400Y-92342094D01*
X110388400Y-92061906D01*
X110333738Y-91787101D01*
X110226514Y-91528241D01*
X110070850Y-91295273D01*
X109872727Y-91097150D01*
X109639759Y-90941486D01*
X109380899Y-90834262D01*
X109106094Y-90779600D01*
X108825906Y-90779600D01*
X108551101Y-90834262D01*
X108292241Y-90941486D01*
X108059273Y-91097150D01*
X107861150Y-91295273D01*
X107705486Y-91528241D01*
X107598262Y-91787101D01*
X107543600Y-92061906D01*
X107543600Y-92342094D01*
X107598262Y-92616899D01*
X107636826Y-92709999D01*
X104001266Y-92709999D01*
X103962601Y-92706191D01*
X103923936Y-92709999D01*
X103923928Y-92709999D01*
X103810508Y-92721170D01*
X103808244Y-92721393D01*
X103659818Y-92766417D01*
X103523029Y-92839533D01*
X103433171Y-92913277D01*
X103433168Y-92913280D01*
X103403132Y-92937930D01*
X103378482Y-92967966D01*
X103080512Y-93265937D01*
X103046081Y-93251675D01*
X102710883Y-93185000D01*
X102369117Y-93185000D01*
X102033919Y-93251675D01*
X101718169Y-93382463D01*
X101434002Y-93572337D01*
X101192337Y-93814002D01*
X101002463Y-94098169D01*
X100871675Y-94413919D01*
X100805000Y-94749117D01*
X100805000Y-95090883D01*
X100871675Y-95426081D01*
X101002463Y-95741831D01*
X101192337Y-96025998D01*
X101434002Y-96267663D01*
X101718169Y-96457537D01*
X101752600Y-96471799D01*
X101752600Y-98026147D01*
X101679715Y-97953262D01*
X101248141Y-97664893D01*
X100768601Y-97466261D01*
X100259525Y-97365000D01*
X99740475Y-97365000D01*
X99231399Y-97466261D01*
X98751859Y-97664893D01*
X98320285Y-97953262D01*
X97953262Y-98320285D01*
X97664893Y-98751859D01*
X97466261Y-99231399D01*
X97365000Y-99740475D01*
X97365000Y-100259525D01*
X97466261Y-100768601D01*
X97664893Y-101248141D01*
X97953262Y-101679715D01*
X98320285Y-102046738D01*
X98751859Y-102335107D01*
X99231399Y-102533739D01*
X99740475Y-102635000D01*
X100259525Y-102635000D01*
X100768601Y-102533739D01*
X101248141Y-102335107D01*
X101679715Y-102046738D01*
X101752600Y-101973853D01*
X101752601Y-112368201D01*
X101718169Y-112382463D01*
X101434002Y-112572337D01*
X101192337Y-112814002D01*
X101002463Y-113098169D01*
X100871675Y-113413919D01*
X100805000Y-113749117D01*
X100805000Y-114090883D01*
X100871675Y-114426081D01*
X101002463Y-114741831D01*
X101192337Y-115025998D01*
X101434002Y-115267663D01*
X101718169Y-115457537D01*
X101752601Y-115471799D01*
X101752601Y-117026148D01*
X101679715Y-116953262D01*
X101248141Y-116664893D01*
X100768601Y-116466261D01*
X100259525Y-116365000D01*
X99740475Y-116365000D01*
X99231399Y-116466261D01*
X98751859Y-116664893D01*
X98320285Y-116953262D01*
X97953262Y-117320285D01*
X97664893Y-117751859D01*
X97466261Y-118231399D01*
X97365000Y-118740475D01*
X97365000Y-119259525D01*
X97466261Y-119768601D01*
X97664893Y-120248141D01*
X97953262Y-120679715D01*
X98320285Y-121046738D01*
X98751859Y-121335107D01*
X99231399Y-121533739D01*
X99740475Y-121635000D01*
X100259525Y-121635000D01*
X100768601Y-121533739D01*
X101248141Y-121335107D01*
X101679715Y-121046738D01*
X101752601Y-120973852D01*
X101752600Y-131368201D01*
X101718169Y-131382463D01*
X101434002Y-131572337D01*
X101192337Y-131814002D01*
X101002463Y-132098169D01*
X100871675Y-132413919D01*
X100805000Y-132749117D01*
X100805000Y-133090883D01*
X100871675Y-133426081D01*
X101002463Y-133741831D01*
X101192337Y-134025998D01*
X101434002Y-134267663D01*
X101543160Y-134340600D01*
X101418152Y-134340600D01*
X85931291Y-118853740D01*
X93435000Y-118853740D01*
X93435000Y-119146260D01*
X93492068Y-119433158D01*
X93604010Y-119703411D01*
X93766525Y-119946632D01*
X93973368Y-120153475D01*
X94216589Y-120315990D01*
X94486842Y-120427932D01*
X94773740Y-120485000D01*
X95066260Y-120485000D01*
X95353158Y-120427932D01*
X95623411Y-120315990D01*
X95866632Y-120153475D01*
X96073475Y-119946632D01*
X96235990Y-119703411D01*
X96347932Y-119433158D01*
X96405000Y-119146260D01*
X96405000Y-118853740D01*
X96347932Y-118566842D01*
X96235990Y-118296589D01*
X96168110Y-118195000D01*
X96360883Y-118195000D01*
X96696081Y-118128325D01*
X97011831Y-117997537D01*
X97295998Y-117807663D01*
X97537663Y-117565998D01*
X97727537Y-117281831D01*
X97858325Y-116966081D01*
X97925000Y-116630883D01*
X97925000Y-116289117D01*
X97858325Y-115953919D01*
X97727537Y-115638169D01*
X97537663Y-115354002D01*
X97295998Y-115112337D01*
X97011831Y-114922463D01*
X96696081Y-114791675D01*
X96360883Y-114725000D01*
X96019117Y-114725000D01*
X95683919Y-114791675D01*
X95368169Y-114922463D01*
X95084002Y-115112337D01*
X94842337Y-115354002D01*
X94652463Y-115638169D01*
X94521675Y-115953919D01*
X94455000Y-116289117D01*
X94455000Y-116630883D01*
X94521675Y-116966081D01*
X94652463Y-117281831D01*
X94808261Y-117515000D01*
X94773740Y-117515000D01*
X94486842Y-117572068D01*
X94216589Y-117684010D01*
X93973368Y-117846525D01*
X93766525Y-118053368D01*
X93604010Y-118296589D01*
X93492068Y-118566842D01*
X93435000Y-118853740D01*
X85931291Y-118853740D01*
X82575400Y-115497850D01*
X82575400Y-110150311D01*
X82591937Y-110133774D01*
X82705205Y-109964256D01*
X82783226Y-109775898D01*
X82823000Y-109575939D01*
X82823000Y-109372061D01*
X82783226Y-109172102D01*
X82705205Y-108983744D01*
X82591937Y-108814226D01*
X82575400Y-108797689D01*
X82575400Y-102530311D01*
X82591937Y-102513774D01*
X82705205Y-102344256D01*
X82783226Y-102155898D01*
X82823000Y-101955939D01*
X82823000Y-101752061D01*
X82783226Y-101552102D01*
X82705205Y-101363744D01*
X82591937Y-101194226D01*
X82447774Y-101050063D01*
X82278256Y-100936795D01*
X82089898Y-100858774D01*
X81889939Y-100819000D01*
X81686061Y-100819000D01*
X81486102Y-100858774D01*
X81297744Y-100936795D01*
X81128226Y-101050063D01*
X80984063Y-101194226D01*
X80870795Y-101363744D01*
X80792774Y-101552102D01*
X80753000Y-101752061D01*
X63660000Y-101752061D01*
X63660000Y-96774000D01*
X87507815Y-96774000D01*
X87536487Y-97065111D01*
X87621401Y-97345034D01*
X87759294Y-97603014D01*
X87944866Y-97829134D01*
X88170986Y-98014706D01*
X88225791Y-98044000D01*
X88170986Y-98073294D01*
X87944866Y-98258866D01*
X87759294Y-98484986D01*
X87621401Y-98742966D01*
X87536487Y-99022889D01*
X87507815Y-99314000D01*
X87536487Y-99605111D01*
X87621401Y-99885034D01*
X87759294Y-100143014D01*
X87944866Y-100369134D01*
X88170986Y-100554706D01*
X88225791Y-100584000D01*
X88170986Y-100613294D01*
X87944866Y-100798866D01*
X87759294Y-101024986D01*
X87621401Y-101282966D01*
X87536487Y-101562889D01*
X87507815Y-101854000D01*
X87536487Y-102145111D01*
X87621401Y-102425034D01*
X87759294Y-102683014D01*
X87944866Y-102909134D01*
X88170986Y-103094706D01*
X88225791Y-103124000D01*
X88170986Y-103153294D01*
X87944866Y-103338866D01*
X87759294Y-103564986D01*
X87621401Y-103822966D01*
X87536487Y-104102889D01*
X87507815Y-104394000D01*
X87536487Y-104685111D01*
X87621401Y-104965034D01*
X87759294Y-105223014D01*
X87944866Y-105449134D01*
X88170986Y-105634706D01*
X88225791Y-105664000D01*
X88170986Y-105693294D01*
X87944866Y-105878866D01*
X87759294Y-106104986D01*
X87621401Y-106362966D01*
X87536487Y-106642889D01*
X87507815Y-106934000D01*
X87536487Y-107225111D01*
X87621401Y-107505034D01*
X87759294Y-107763014D01*
X87944866Y-107989134D01*
X88170986Y-108174706D01*
X88225791Y-108204000D01*
X88170986Y-108233294D01*
X87944866Y-108418866D01*
X87759294Y-108644986D01*
X87621401Y-108902966D01*
X87536487Y-109182889D01*
X87507815Y-109474000D01*
X87536487Y-109765111D01*
X87621401Y-110045034D01*
X87759294Y-110303014D01*
X87944866Y-110529134D01*
X87974687Y-110553607D01*
X87905820Y-110574498D01*
X87795506Y-110633463D01*
X87698815Y-110712815D01*
X87619463Y-110809506D01*
X87560498Y-110919820D01*
X87524188Y-111039518D01*
X87511928Y-111164000D01*
X87511928Y-112864000D01*
X87524188Y-112988482D01*
X87560498Y-113108180D01*
X87619463Y-113218494D01*
X87698815Y-113315185D01*
X87795506Y-113394537D01*
X87905820Y-113453502D01*
X88025518Y-113489812D01*
X88150000Y-113502072D01*
X89850000Y-113502072D01*
X89974482Y-113489812D01*
X90094180Y-113453502D01*
X90204494Y-113394537D01*
X90301185Y-113315185D01*
X90380537Y-113218494D01*
X90439502Y-113108180D01*
X90475812Y-112988482D01*
X90488072Y-112864000D01*
X90488072Y-111164000D01*
X90475812Y-111039518D01*
X90439502Y-110919820D01*
X90380537Y-110809506D01*
X90301185Y-110712815D01*
X90204494Y-110633463D01*
X90094180Y-110574498D01*
X90025313Y-110553607D01*
X90055134Y-110529134D01*
X90240706Y-110303014D01*
X90378599Y-110045034D01*
X90463513Y-109765111D01*
X90492185Y-109474000D01*
X90463513Y-109182889D01*
X90378599Y-108902966D01*
X90240706Y-108644986D01*
X90055134Y-108418866D01*
X89829014Y-108233294D01*
X89774209Y-108204000D01*
X89829014Y-108174706D01*
X90055134Y-107989134D01*
X90240706Y-107763014D01*
X90378599Y-107505034D01*
X90463513Y-107225111D01*
X90492185Y-106934000D01*
X90463513Y-106642889D01*
X90378599Y-106362966D01*
X90240706Y-106104986D01*
X90055134Y-105878866D01*
X89829014Y-105693294D01*
X89774209Y-105664000D01*
X89829014Y-105634706D01*
X90055134Y-105449134D01*
X90240706Y-105223014D01*
X90378599Y-104965034D01*
X90463513Y-104685111D01*
X90492185Y-104394000D01*
X90463513Y-104102889D01*
X90378599Y-103822966D01*
X90240706Y-103564986D01*
X90055134Y-103338866D01*
X89829014Y-103153294D01*
X89774209Y-103124000D01*
X89829014Y-103094706D01*
X90055134Y-102909134D01*
X90240706Y-102683014D01*
X90378599Y-102425034D01*
X90463513Y-102145111D01*
X90492185Y-101854000D01*
X90463513Y-101562889D01*
X90378599Y-101282966D01*
X90240706Y-101024986D01*
X90055134Y-100798866D01*
X89829014Y-100613294D01*
X89774209Y-100584000D01*
X89829014Y-100554706D01*
X90055134Y-100369134D01*
X90240706Y-100143014D01*
X90378599Y-99885034D01*
X90388091Y-99853740D01*
X93435000Y-99853740D01*
X93435000Y-100146260D01*
X93492068Y-100433158D01*
X93604010Y-100703411D01*
X93766525Y-100946632D01*
X93973368Y-101153475D01*
X94216589Y-101315990D01*
X94486842Y-101427932D01*
X94773740Y-101485000D01*
X95066260Y-101485000D01*
X95353158Y-101427932D01*
X95623411Y-101315990D01*
X95866632Y-101153475D01*
X96073475Y-100946632D01*
X96235990Y-100703411D01*
X96347932Y-100433158D01*
X96405000Y-100146260D01*
X96405000Y-99853740D01*
X96347932Y-99566842D01*
X96235990Y-99296589D01*
X96168110Y-99195000D01*
X96360883Y-99195000D01*
X96696081Y-99128325D01*
X97011831Y-98997537D01*
X97295998Y-98807663D01*
X97537663Y-98565998D01*
X97727537Y-98281831D01*
X97858325Y-97966081D01*
X97925000Y-97630883D01*
X97925000Y-97289117D01*
X97858325Y-96953919D01*
X97727537Y-96638169D01*
X97537663Y-96354002D01*
X97295998Y-96112337D01*
X97011831Y-95922463D01*
X96696081Y-95791675D01*
X96360883Y-95725000D01*
X96019117Y-95725000D01*
X95683919Y-95791675D01*
X95368169Y-95922463D01*
X95084002Y-96112337D01*
X94842337Y-96354002D01*
X94652463Y-96638169D01*
X94521675Y-96953919D01*
X94455000Y-97289117D01*
X94455000Y-97630883D01*
X94521675Y-97966081D01*
X94652463Y-98281831D01*
X94808261Y-98515000D01*
X94773740Y-98515000D01*
X94486842Y-98572068D01*
X94216589Y-98684010D01*
X93973368Y-98846525D01*
X93766525Y-99053368D01*
X93604010Y-99296589D01*
X93492068Y-99566842D01*
X93435000Y-99853740D01*
X90388091Y-99853740D01*
X90463513Y-99605111D01*
X90492185Y-99314000D01*
X90463513Y-99022889D01*
X90378599Y-98742966D01*
X90240706Y-98484986D01*
X90055134Y-98258866D01*
X89829014Y-98073294D01*
X89774209Y-98044000D01*
X89829014Y-98014706D01*
X90055134Y-97829134D01*
X90240706Y-97603014D01*
X90378599Y-97345034D01*
X90463513Y-97065111D01*
X90492185Y-96774000D01*
X90463513Y-96482889D01*
X90378599Y-96202966D01*
X90240706Y-95944986D01*
X90055134Y-95718866D01*
X89829014Y-95533294D01*
X89571034Y-95395401D01*
X89291111Y-95310487D01*
X89072950Y-95289000D01*
X88927050Y-95289000D01*
X88708889Y-95310487D01*
X88428966Y-95395401D01*
X88170986Y-95533294D01*
X87944866Y-95718866D01*
X87759294Y-95944986D01*
X87621401Y-96202966D01*
X87536487Y-96482889D01*
X87507815Y-96774000D01*
X63660000Y-96774000D01*
X63660000Y-93032279D01*
X63707670Y-92546107D01*
X63839489Y-92109502D01*
X64053600Y-91706815D01*
X64341848Y-91353388D01*
X64693261Y-91062673D01*
X65094439Y-90845758D01*
X65530113Y-90710894D01*
X66014344Y-90660000D01*
X163967721Y-90660000D01*
X164453893Y-90707670D01*
M02*
