G04 #@! TF.GenerationSoftware,KiCad,Pcbnew,(5.1.2-1)-1*
G04 #@! TF.CreationDate,2019-11-15T20:19:46-06:00*
G04 #@! TF.ProjectId,cherry-huzzah32,63686572-7279-42d6-9875-7a7a61683332,rev?*
G04 #@! TF.SameCoordinates,Original*
G04 #@! TF.FileFunction,Copper,L2,Bot*
G04 #@! TF.FilePolarity,Positive*
%FSLAX46Y46*%
G04 Gerber Fmt 4.6, Leading zero omitted, Abs format (unit mm)*
G04 Created by KiCad (PCBNEW (5.1.2-1)-1) date 2019-11-15 20:19:46*
%MOMM*%
%LPD*%
G04 APERTURE LIST*
%ADD10C,0.100000*%
%ADD11C,1.574800*%
%ADD12C,2.200000*%
%ADD13C,0.500000*%
%ADD14O,1.700000X1.700000*%
%ADD15R,1.700000X1.700000*%
%ADD16C,0.800000*%
%ADD17C,0.304800*%
%ADD18C,0.254000*%
G04 APERTURE END LIST*
D10*
G36*
X84436000Y-96174000D02*
G01*
X83936000Y-96174000D01*
X83936000Y-96574000D01*
X84436000Y-96574000D01*
X84436000Y-96174000D01*
G37*
G36*
X84436000Y-96974000D02*
G01*
X83936000Y-96974000D01*
X83936000Y-97374000D01*
X84436000Y-97374000D01*
X84436000Y-96974000D01*
G37*
G36*
X84436000Y-98714000D02*
G01*
X83936000Y-98714000D01*
X83936000Y-99114000D01*
X84436000Y-99114000D01*
X84436000Y-98714000D01*
G37*
G36*
X84436000Y-99514000D02*
G01*
X83936000Y-99514000D01*
X83936000Y-99914000D01*
X84436000Y-99914000D01*
X84436000Y-99514000D01*
G37*
G36*
X84436000Y-101254000D02*
G01*
X83936000Y-101254000D01*
X83936000Y-101654000D01*
X84436000Y-101654000D01*
X84436000Y-101254000D01*
G37*
G36*
X84436000Y-102054000D02*
G01*
X83936000Y-102054000D01*
X83936000Y-102454000D01*
X84436000Y-102454000D01*
X84436000Y-102054000D01*
G37*
G36*
X84436000Y-103794000D02*
G01*
X83936000Y-103794000D01*
X83936000Y-104194000D01*
X84436000Y-104194000D01*
X84436000Y-103794000D01*
G37*
G36*
X84436000Y-104594000D02*
G01*
X83936000Y-104594000D01*
X83936000Y-104994000D01*
X84436000Y-104994000D01*
X84436000Y-104594000D01*
G37*
G36*
X84436000Y-106334000D02*
G01*
X83936000Y-106334000D01*
X83936000Y-106734000D01*
X84436000Y-106734000D01*
X84436000Y-106334000D01*
G37*
G36*
X84436000Y-107134000D02*
G01*
X83936000Y-107134000D01*
X83936000Y-107534000D01*
X84436000Y-107534000D01*
X84436000Y-107134000D01*
G37*
G36*
X84436000Y-108874000D02*
G01*
X83936000Y-108874000D01*
X83936000Y-109274000D01*
X84436000Y-109274000D01*
X84436000Y-108874000D01*
G37*
G36*
X84436000Y-109674000D02*
G01*
X83936000Y-109674000D01*
X83936000Y-110074000D01*
X84436000Y-110074000D01*
X84436000Y-109674000D01*
G37*
G36*
X84436000Y-111414000D02*
G01*
X83936000Y-111414000D01*
X83936000Y-111814000D01*
X84436000Y-111814000D01*
X84436000Y-111414000D01*
G37*
G36*
X84436000Y-112214000D02*
G01*
X83936000Y-112214000D01*
X83936000Y-112614000D01*
X84436000Y-112614000D01*
X84436000Y-112214000D01*
G37*
D11*
X129286000Y-117602000D03*
X129286000Y-115062000D03*
X129286000Y-112522000D03*
X129286000Y-109982000D03*
X129286000Y-107442000D03*
X129286000Y-104902000D03*
X129286000Y-102362000D03*
X129286000Y-99822000D03*
X129286000Y-97282000D03*
X129286000Y-94742000D03*
X129286000Y-92202000D03*
X129286000Y-120142000D03*
X108966000Y-92202000D03*
X108966000Y-94742000D03*
X108966000Y-97282000D03*
X108966000Y-99822000D03*
X108966000Y-102362000D03*
X108966000Y-104902000D03*
X108966000Y-107442000D03*
X108966000Y-109982000D03*
X108966000Y-112522000D03*
X108966000Y-115062000D03*
X108966000Y-117602000D03*
X108966000Y-120142000D03*
X108966000Y-122682000D03*
X108966000Y-125222000D03*
X108966000Y-127762000D03*
X108966000Y-130302000D03*
D12*
X153190000Y-154460000D03*
X159540000Y-151920000D03*
X134190000Y-154460000D03*
X140540000Y-151920000D03*
X115190000Y-154460000D03*
X121540000Y-151920000D03*
X96190000Y-154460000D03*
X102540000Y-151920000D03*
X153190000Y-135460000D03*
X159540000Y-132920000D03*
X134190000Y-135460000D03*
X140540000Y-132920000D03*
X115190000Y-135460000D03*
X121540000Y-132920000D03*
X96190000Y-135460000D03*
X102540000Y-132920000D03*
X153190000Y-116460000D03*
X159540000Y-113920000D03*
X134190000Y-116460000D03*
X140540000Y-113920000D03*
X115190000Y-116460000D03*
X121540000Y-113920000D03*
X96190000Y-116460000D03*
X102540000Y-113920000D03*
X153190000Y-97460000D03*
X159540000Y-94920000D03*
X134190000Y-97460000D03*
X140540000Y-94920000D03*
X115190000Y-97460000D03*
X121540000Y-94920000D03*
X96190000Y-97460000D03*
X102540000Y-94920000D03*
D13*
X84836000Y-96774000D03*
D10*
G36*
X84336000Y-96024000D02*
G01*
X84836000Y-96024000D01*
X84836000Y-96024602D01*
X84860534Y-96024602D01*
X84909365Y-96029412D01*
X84957490Y-96038984D01*
X85004445Y-96053228D01*
X85049778Y-96072005D01*
X85093051Y-96095136D01*
X85133850Y-96122396D01*
X85171779Y-96153524D01*
X85206476Y-96188221D01*
X85237604Y-96226150D01*
X85264864Y-96266949D01*
X85287995Y-96310222D01*
X85306772Y-96355555D01*
X85321016Y-96402510D01*
X85330588Y-96450635D01*
X85335398Y-96499466D01*
X85335398Y-96524000D01*
X85336000Y-96524000D01*
X85336000Y-97024000D01*
X85335398Y-97024000D01*
X85335398Y-97048534D01*
X85330588Y-97097365D01*
X85321016Y-97145490D01*
X85306772Y-97192445D01*
X85287995Y-97237778D01*
X85264864Y-97281051D01*
X85237604Y-97321850D01*
X85206476Y-97359779D01*
X85171779Y-97394476D01*
X85133850Y-97425604D01*
X85093051Y-97452864D01*
X85049778Y-97475995D01*
X85004445Y-97494772D01*
X84957490Y-97509016D01*
X84909365Y-97518588D01*
X84860534Y-97523398D01*
X84836000Y-97523398D01*
X84836000Y-97524000D01*
X84336000Y-97524000D01*
X84336000Y-96024000D01*
X84336000Y-96024000D01*
G37*
D13*
X83536000Y-96774000D03*
D10*
G36*
X83536000Y-97523398D02*
G01*
X83511466Y-97523398D01*
X83462635Y-97518588D01*
X83414510Y-97509016D01*
X83367555Y-97494772D01*
X83322222Y-97475995D01*
X83278949Y-97452864D01*
X83238150Y-97425604D01*
X83200221Y-97394476D01*
X83165524Y-97359779D01*
X83134396Y-97321850D01*
X83107136Y-97281051D01*
X83084005Y-97237778D01*
X83065228Y-97192445D01*
X83050984Y-97145490D01*
X83041412Y-97097365D01*
X83036602Y-97048534D01*
X83036602Y-97024000D01*
X83036000Y-97024000D01*
X83036000Y-96524000D01*
X83036602Y-96524000D01*
X83036602Y-96499466D01*
X83041412Y-96450635D01*
X83050984Y-96402510D01*
X83065228Y-96355555D01*
X83084005Y-96310222D01*
X83107136Y-96266949D01*
X83134396Y-96226150D01*
X83165524Y-96188221D01*
X83200221Y-96153524D01*
X83238150Y-96122396D01*
X83278949Y-96095136D01*
X83322222Y-96072005D01*
X83367555Y-96053228D01*
X83414510Y-96038984D01*
X83462635Y-96029412D01*
X83511466Y-96024602D01*
X83536000Y-96024602D01*
X83536000Y-96024000D01*
X84036000Y-96024000D01*
X84036000Y-97524000D01*
X83536000Y-97524000D01*
X83536000Y-97523398D01*
X83536000Y-97523398D01*
G37*
D13*
X84836000Y-99314000D03*
D10*
G36*
X84336000Y-98564000D02*
G01*
X84836000Y-98564000D01*
X84836000Y-98564602D01*
X84860534Y-98564602D01*
X84909365Y-98569412D01*
X84957490Y-98578984D01*
X85004445Y-98593228D01*
X85049778Y-98612005D01*
X85093051Y-98635136D01*
X85133850Y-98662396D01*
X85171779Y-98693524D01*
X85206476Y-98728221D01*
X85237604Y-98766150D01*
X85264864Y-98806949D01*
X85287995Y-98850222D01*
X85306772Y-98895555D01*
X85321016Y-98942510D01*
X85330588Y-98990635D01*
X85335398Y-99039466D01*
X85335398Y-99064000D01*
X85336000Y-99064000D01*
X85336000Y-99564000D01*
X85335398Y-99564000D01*
X85335398Y-99588534D01*
X85330588Y-99637365D01*
X85321016Y-99685490D01*
X85306772Y-99732445D01*
X85287995Y-99777778D01*
X85264864Y-99821051D01*
X85237604Y-99861850D01*
X85206476Y-99899779D01*
X85171779Y-99934476D01*
X85133850Y-99965604D01*
X85093051Y-99992864D01*
X85049778Y-100015995D01*
X85004445Y-100034772D01*
X84957490Y-100049016D01*
X84909365Y-100058588D01*
X84860534Y-100063398D01*
X84836000Y-100063398D01*
X84836000Y-100064000D01*
X84336000Y-100064000D01*
X84336000Y-98564000D01*
X84336000Y-98564000D01*
G37*
D13*
X83536000Y-99314000D03*
D10*
G36*
X83536000Y-100063398D02*
G01*
X83511466Y-100063398D01*
X83462635Y-100058588D01*
X83414510Y-100049016D01*
X83367555Y-100034772D01*
X83322222Y-100015995D01*
X83278949Y-99992864D01*
X83238150Y-99965604D01*
X83200221Y-99934476D01*
X83165524Y-99899779D01*
X83134396Y-99861850D01*
X83107136Y-99821051D01*
X83084005Y-99777778D01*
X83065228Y-99732445D01*
X83050984Y-99685490D01*
X83041412Y-99637365D01*
X83036602Y-99588534D01*
X83036602Y-99564000D01*
X83036000Y-99564000D01*
X83036000Y-99064000D01*
X83036602Y-99064000D01*
X83036602Y-99039466D01*
X83041412Y-98990635D01*
X83050984Y-98942510D01*
X83065228Y-98895555D01*
X83084005Y-98850222D01*
X83107136Y-98806949D01*
X83134396Y-98766150D01*
X83165524Y-98728221D01*
X83200221Y-98693524D01*
X83238150Y-98662396D01*
X83278949Y-98635136D01*
X83322222Y-98612005D01*
X83367555Y-98593228D01*
X83414510Y-98578984D01*
X83462635Y-98569412D01*
X83511466Y-98564602D01*
X83536000Y-98564602D01*
X83536000Y-98564000D01*
X84036000Y-98564000D01*
X84036000Y-100064000D01*
X83536000Y-100064000D01*
X83536000Y-100063398D01*
X83536000Y-100063398D01*
G37*
D13*
X84836000Y-101854000D03*
D10*
G36*
X84336000Y-101104000D02*
G01*
X84836000Y-101104000D01*
X84836000Y-101104602D01*
X84860534Y-101104602D01*
X84909365Y-101109412D01*
X84957490Y-101118984D01*
X85004445Y-101133228D01*
X85049778Y-101152005D01*
X85093051Y-101175136D01*
X85133850Y-101202396D01*
X85171779Y-101233524D01*
X85206476Y-101268221D01*
X85237604Y-101306150D01*
X85264864Y-101346949D01*
X85287995Y-101390222D01*
X85306772Y-101435555D01*
X85321016Y-101482510D01*
X85330588Y-101530635D01*
X85335398Y-101579466D01*
X85335398Y-101604000D01*
X85336000Y-101604000D01*
X85336000Y-102104000D01*
X85335398Y-102104000D01*
X85335398Y-102128534D01*
X85330588Y-102177365D01*
X85321016Y-102225490D01*
X85306772Y-102272445D01*
X85287995Y-102317778D01*
X85264864Y-102361051D01*
X85237604Y-102401850D01*
X85206476Y-102439779D01*
X85171779Y-102474476D01*
X85133850Y-102505604D01*
X85093051Y-102532864D01*
X85049778Y-102555995D01*
X85004445Y-102574772D01*
X84957490Y-102589016D01*
X84909365Y-102598588D01*
X84860534Y-102603398D01*
X84836000Y-102603398D01*
X84836000Y-102604000D01*
X84336000Y-102604000D01*
X84336000Y-101104000D01*
X84336000Y-101104000D01*
G37*
D13*
X83536000Y-101854000D03*
D10*
G36*
X83536000Y-102603398D02*
G01*
X83511466Y-102603398D01*
X83462635Y-102598588D01*
X83414510Y-102589016D01*
X83367555Y-102574772D01*
X83322222Y-102555995D01*
X83278949Y-102532864D01*
X83238150Y-102505604D01*
X83200221Y-102474476D01*
X83165524Y-102439779D01*
X83134396Y-102401850D01*
X83107136Y-102361051D01*
X83084005Y-102317778D01*
X83065228Y-102272445D01*
X83050984Y-102225490D01*
X83041412Y-102177365D01*
X83036602Y-102128534D01*
X83036602Y-102104000D01*
X83036000Y-102104000D01*
X83036000Y-101604000D01*
X83036602Y-101604000D01*
X83036602Y-101579466D01*
X83041412Y-101530635D01*
X83050984Y-101482510D01*
X83065228Y-101435555D01*
X83084005Y-101390222D01*
X83107136Y-101346949D01*
X83134396Y-101306150D01*
X83165524Y-101268221D01*
X83200221Y-101233524D01*
X83238150Y-101202396D01*
X83278949Y-101175136D01*
X83322222Y-101152005D01*
X83367555Y-101133228D01*
X83414510Y-101118984D01*
X83462635Y-101109412D01*
X83511466Y-101104602D01*
X83536000Y-101104602D01*
X83536000Y-101104000D01*
X84036000Y-101104000D01*
X84036000Y-102604000D01*
X83536000Y-102604000D01*
X83536000Y-102603398D01*
X83536000Y-102603398D01*
G37*
D13*
X84836000Y-104394000D03*
D10*
G36*
X84336000Y-103644000D02*
G01*
X84836000Y-103644000D01*
X84836000Y-103644602D01*
X84860534Y-103644602D01*
X84909365Y-103649412D01*
X84957490Y-103658984D01*
X85004445Y-103673228D01*
X85049778Y-103692005D01*
X85093051Y-103715136D01*
X85133850Y-103742396D01*
X85171779Y-103773524D01*
X85206476Y-103808221D01*
X85237604Y-103846150D01*
X85264864Y-103886949D01*
X85287995Y-103930222D01*
X85306772Y-103975555D01*
X85321016Y-104022510D01*
X85330588Y-104070635D01*
X85335398Y-104119466D01*
X85335398Y-104144000D01*
X85336000Y-104144000D01*
X85336000Y-104644000D01*
X85335398Y-104644000D01*
X85335398Y-104668534D01*
X85330588Y-104717365D01*
X85321016Y-104765490D01*
X85306772Y-104812445D01*
X85287995Y-104857778D01*
X85264864Y-104901051D01*
X85237604Y-104941850D01*
X85206476Y-104979779D01*
X85171779Y-105014476D01*
X85133850Y-105045604D01*
X85093051Y-105072864D01*
X85049778Y-105095995D01*
X85004445Y-105114772D01*
X84957490Y-105129016D01*
X84909365Y-105138588D01*
X84860534Y-105143398D01*
X84836000Y-105143398D01*
X84836000Y-105144000D01*
X84336000Y-105144000D01*
X84336000Y-103644000D01*
X84336000Y-103644000D01*
G37*
D13*
X83536000Y-104394000D03*
D10*
G36*
X83536000Y-105143398D02*
G01*
X83511466Y-105143398D01*
X83462635Y-105138588D01*
X83414510Y-105129016D01*
X83367555Y-105114772D01*
X83322222Y-105095995D01*
X83278949Y-105072864D01*
X83238150Y-105045604D01*
X83200221Y-105014476D01*
X83165524Y-104979779D01*
X83134396Y-104941850D01*
X83107136Y-104901051D01*
X83084005Y-104857778D01*
X83065228Y-104812445D01*
X83050984Y-104765490D01*
X83041412Y-104717365D01*
X83036602Y-104668534D01*
X83036602Y-104644000D01*
X83036000Y-104644000D01*
X83036000Y-104144000D01*
X83036602Y-104144000D01*
X83036602Y-104119466D01*
X83041412Y-104070635D01*
X83050984Y-104022510D01*
X83065228Y-103975555D01*
X83084005Y-103930222D01*
X83107136Y-103886949D01*
X83134396Y-103846150D01*
X83165524Y-103808221D01*
X83200221Y-103773524D01*
X83238150Y-103742396D01*
X83278949Y-103715136D01*
X83322222Y-103692005D01*
X83367555Y-103673228D01*
X83414510Y-103658984D01*
X83462635Y-103649412D01*
X83511466Y-103644602D01*
X83536000Y-103644602D01*
X83536000Y-103644000D01*
X84036000Y-103644000D01*
X84036000Y-105144000D01*
X83536000Y-105144000D01*
X83536000Y-105143398D01*
X83536000Y-105143398D01*
G37*
D13*
X84836000Y-106934000D03*
D10*
G36*
X84336000Y-106184000D02*
G01*
X84836000Y-106184000D01*
X84836000Y-106184602D01*
X84860534Y-106184602D01*
X84909365Y-106189412D01*
X84957490Y-106198984D01*
X85004445Y-106213228D01*
X85049778Y-106232005D01*
X85093051Y-106255136D01*
X85133850Y-106282396D01*
X85171779Y-106313524D01*
X85206476Y-106348221D01*
X85237604Y-106386150D01*
X85264864Y-106426949D01*
X85287995Y-106470222D01*
X85306772Y-106515555D01*
X85321016Y-106562510D01*
X85330588Y-106610635D01*
X85335398Y-106659466D01*
X85335398Y-106684000D01*
X85336000Y-106684000D01*
X85336000Y-107184000D01*
X85335398Y-107184000D01*
X85335398Y-107208534D01*
X85330588Y-107257365D01*
X85321016Y-107305490D01*
X85306772Y-107352445D01*
X85287995Y-107397778D01*
X85264864Y-107441051D01*
X85237604Y-107481850D01*
X85206476Y-107519779D01*
X85171779Y-107554476D01*
X85133850Y-107585604D01*
X85093051Y-107612864D01*
X85049778Y-107635995D01*
X85004445Y-107654772D01*
X84957490Y-107669016D01*
X84909365Y-107678588D01*
X84860534Y-107683398D01*
X84836000Y-107683398D01*
X84836000Y-107684000D01*
X84336000Y-107684000D01*
X84336000Y-106184000D01*
X84336000Y-106184000D01*
G37*
D13*
X83536000Y-106934000D03*
D10*
G36*
X83536000Y-107683398D02*
G01*
X83511466Y-107683398D01*
X83462635Y-107678588D01*
X83414510Y-107669016D01*
X83367555Y-107654772D01*
X83322222Y-107635995D01*
X83278949Y-107612864D01*
X83238150Y-107585604D01*
X83200221Y-107554476D01*
X83165524Y-107519779D01*
X83134396Y-107481850D01*
X83107136Y-107441051D01*
X83084005Y-107397778D01*
X83065228Y-107352445D01*
X83050984Y-107305490D01*
X83041412Y-107257365D01*
X83036602Y-107208534D01*
X83036602Y-107184000D01*
X83036000Y-107184000D01*
X83036000Y-106684000D01*
X83036602Y-106684000D01*
X83036602Y-106659466D01*
X83041412Y-106610635D01*
X83050984Y-106562510D01*
X83065228Y-106515555D01*
X83084005Y-106470222D01*
X83107136Y-106426949D01*
X83134396Y-106386150D01*
X83165524Y-106348221D01*
X83200221Y-106313524D01*
X83238150Y-106282396D01*
X83278949Y-106255136D01*
X83322222Y-106232005D01*
X83367555Y-106213228D01*
X83414510Y-106198984D01*
X83462635Y-106189412D01*
X83511466Y-106184602D01*
X83536000Y-106184602D01*
X83536000Y-106184000D01*
X84036000Y-106184000D01*
X84036000Y-107684000D01*
X83536000Y-107684000D01*
X83536000Y-107683398D01*
X83536000Y-107683398D01*
G37*
D13*
X84836000Y-109474000D03*
D10*
G36*
X84336000Y-108724000D02*
G01*
X84836000Y-108724000D01*
X84836000Y-108724602D01*
X84860534Y-108724602D01*
X84909365Y-108729412D01*
X84957490Y-108738984D01*
X85004445Y-108753228D01*
X85049778Y-108772005D01*
X85093051Y-108795136D01*
X85133850Y-108822396D01*
X85171779Y-108853524D01*
X85206476Y-108888221D01*
X85237604Y-108926150D01*
X85264864Y-108966949D01*
X85287995Y-109010222D01*
X85306772Y-109055555D01*
X85321016Y-109102510D01*
X85330588Y-109150635D01*
X85335398Y-109199466D01*
X85335398Y-109224000D01*
X85336000Y-109224000D01*
X85336000Y-109724000D01*
X85335398Y-109724000D01*
X85335398Y-109748534D01*
X85330588Y-109797365D01*
X85321016Y-109845490D01*
X85306772Y-109892445D01*
X85287995Y-109937778D01*
X85264864Y-109981051D01*
X85237604Y-110021850D01*
X85206476Y-110059779D01*
X85171779Y-110094476D01*
X85133850Y-110125604D01*
X85093051Y-110152864D01*
X85049778Y-110175995D01*
X85004445Y-110194772D01*
X84957490Y-110209016D01*
X84909365Y-110218588D01*
X84860534Y-110223398D01*
X84836000Y-110223398D01*
X84836000Y-110224000D01*
X84336000Y-110224000D01*
X84336000Y-108724000D01*
X84336000Y-108724000D01*
G37*
D13*
X83536000Y-109474000D03*
D10*
G36*
X83536000Y-110223398D02*
G01*
X83511466Y-110223398D01*
X83462635Y-110218588D01*
X83414510Y-110209016D01*
X83367555Y-110194772D01*
X83322222Y-110175995D01*
X83278949Y-110152864D01*
X83238150Y-110125604D01*
X83200221Y-110094476D01*
X83165524Y-110059779D01*
X83134396Y-110021850D01*
X83107136Y-109981051D01*
X83084005Y-109937778D01*
X83065228Y-109892445D01*
X83050984Y-109845490D01*
X83041412Y-109797365D01*
X83036602Y-109748534D01*
X83036602Y-109724000D01*
X83036000Y-109724000D01*
X83036000Y-109224000D01*
X83036602Y-109224000D01*
X83036602Y-109199466D01*
X83041412Y-109150635D01*
X83050984Y-109102510D01*
X83065228Y-109055555D01*
X83084005Y-109010222D01*
X83107136Y-108966949D01*
X83134396Y-108926150D01*
X83165524Y-108888221D01*
X83200221Y-108853524D01*
X83238150Y-108822396D01*
X83278949Y-108795136D01*
X83322222Y-108772005D01*
X83367555Y-108753228D01*
X83414510Y-108738984D01*
X83462635Y-108729412D01*
X83511466Y-108724602D01*
X83536000Y-108724602D01*
X83536000Y-108724000D01*
X84036000Y-108724000D01*
X84036000Y-110224000D01*
X83536000Y-110224000D01*
X83536000Y-110223398D01*
X83536000Y-110223398D01*
G37*
D13*
X84836000Y-112014000D03*
D10*
G36*
X84336000Y-111264000D02*
G01*
X84836000Y-111264000D01*
X84836000Y-111264602D01*
X84860534Y-111264602D01*
X84909365Y-111269412D01*
X84957490Y-111278984D01*
X85004445Y-111293228D01*
X85049778Y-111312005D01*
X85093051Y-111335136D01*
X85133850Y-111362396D01*
X85171779Y-111393524D01*
X85206476Y-111428221D01*
X85237604Y-111466150D01*
X85264864Y-111506949D01*
X85287995Y-111550222D01*
X85306772Y-111595555D01*
X85321016Y-111642510D01*
X85330588Y-111690635D01*
X85335398Y-111739466D01*
X85335398Y-111764000D01*
X85336000Y-111764000D01*
X85336000Y-112264000D01*
X85335398Y-112264000D01*
X85335398Y-112288534D01*
X85330588Y-112337365D01*
X85321016Y-112385490D01*
X85306772Y-112432445D01*
X85287995Y-112477778D01*
X85264864Y-112521051D01*
X85237604Y-112561850D01*
X85206476Y-112599779D01*
X85171779Y-112634476D01*
X85133850Y-112665604D01*
X85093051Y-112692864D01*
X85049778Y-112715995D01*
X85004445Y-112734772D01*
X84957490Y-112749016D01*
X84909365Y-112758588D01*
X84860534Y-112763398D01*
X84836000Y-112763398D01*
X84836000Y-112764000D01*
X84336000Y-112764000D01*
X84336000Y-111264000D01*
X84336000Y-111264000D01*
G37*
D13*
X83536000Y-112014000D03*
D10*
G36*
X83536000Y-112763398D02*
G01*
X83511466Y-112763398D01*
X83462635Y-112758588D01*
X83414510Y-112749016D01*
X83367555Y-112734772D01*
X83322222Y-112715995D01*
X83278949Y-112692864D01*
X83238150Y-112665604D01*
X83200221Y-112634476D01*
X83165524Y-112599779D01*
X83134396Y-112561850D01*
X83107136Y-112521051D01*
X83084005Y-112477778D01*
X83065228Y-112432445D01*
X83050984Y-112385490D01*
X83041412Y-112337365D01*
X83036602Y-112288534D01*
X83036602Y-112264000D01*
X83036000Y-112264000D01*
X83036000Y-111764000D01*
X83036602Y-111764000D01*
X83036602Y-111739466D01*
X83041412Y-111690635D01*
X83050984Y-111642510D01*
X83065228Y-111595555D01*
X83084005Y-111550222D01*
X83107136Y-111506949D01*
X83134396Y-111466150D01*
X83165524Y-111428221D01*
X83200221Y-111393524D01*
X83238150Y-111362396D01*
X83278949Y-111335136D01*
X83322222Y-111312005D01*
X83367555Y-111293228D01*
X83414510Y-111278984D01*
X83462635Y-111269412D01*
X83511466Y-111264602D01*
X83536000Y-111264602D01*
X83536000Y-111264000D01*
X84036000Y-111264000D01*
X84036000Y-112764000D01*
X83536000Y-112764000D01*
X83536000Y-112763398D01*
X83536000Y-112763398D01*
G37*
D14*
X89000000Y-96774000D03*
X89000000Y-99314000D03*
X89000000Y-101854000D03*
X89000000Y-104394000D03*
X89000000Y-106934000D03*
X89000000Y-109474000D03*
D15*
X89000000Y-112014000D03*
D16*
X81788000Y-109474000D03*
X81788000Y-101854000D03*
X83566000Y-113411000D03*
D17*
X85436000Y-96774000D02*
X89000000Y-96774000D01*
X84836000Y-96774000D02*
X85436000Y-96774000D01*
X89000000Y-99314000D02*
X84836000Y-99314000D01*
X85028118Y-101854000D02*
X84932059Y-101757941D01*
X89000000Y-101854000D02*
X85028118Y-101854000D01*
X87797919Y-104394000D02*
X84836000Y-104394000D01*
X89000000Y-104394000D02*
X87797919Y-104394000D01*
X87797919Y-106934000D02*
X84836000Y-106934000D01*
X89000000Y-106934000D02*
X87797919Y-106934000D01*
X87797919Y-109474000D02*
X84836000Y-109474000D01*
X89000000Y-109474000D02*
X87797919Y-109474000D01*
X89000000Y-112014000D02*
X84836000Y-112014000D01*
X83536000Y-109474000D02*
X82936000Y-109474000D01*
X82936000Y-109474000D02*
X81788000Y-109474000D01*
X83536000Y-101854000D02*
X81788000Y-101854000D01*
X132767399Y-96037399D02*
X134190000Y-97460000D01*
X125704601Y-96037399D02*
X132767399Y-96037399D01*
X124282000Y-97460000D02*
X125704601Y-96037399D01*
X115190000Y-97460000D02*
X124282000Y-97460000D01*
X134190000Y-97460000D02*
X153190000Y-97460000D01*
X97745634Y-97460000D02*
X96190000Y-97460000D01*
X101096658Y-97460000D02*
X97745634Y-97460000D01*
X102196657Y-98559999D02*
X101096658Y-97460000D01*
X114090001Y-98559999D02*
X102196657Y-98559999D01*
X115190000Y-97460000D02*
X114090001Y-98559999D01*
X102540000Y-132920000D02*
X102540000Y-151920000D01*
X153190000Y-116460000D02*
X134190000Y-116460000D01*
X132634366Y-116460000D02*
X132506366Y-116332000D01*
X134190000Y-116460000D02*
X132634366Y-116460000D01*
X132506366Y-116332000D02*
X118110000Y-116332000D01*
X117728000Y-116460000D02*
X115190000Y-116460000D01*
X117856000Y-116332000D02*
X117728000Y-116460000D01*
X118110000Y-116332000D02*
X117856000Y-116332000D01*
X117856000Y-116332000D02*
X117601999Y-116332000D01*
X96190000Y-116460000D02*
X100915399Y-111734601D01*
X108178601Y-111734601D02*
X108966000Y-112522000D01*
X100915399Y-111734601D02*
X108178601Y-111734601D01*
X115190000Y-135460000D02*
X134190000Y-135460000D01*
X134190000Y-135460000D02*
X153190000Y-135460000D01*
X108966000Y-109982000D02*
X99795120Y-109982000D01*
X99795120Y-109982000D02*
X93612799Y-116164321D01*
X93612799Y-116164321D02*
X93612799Y-132882799D01*
X93612799Y-132882799D02*
X96190000Y-135460000D01*
X108966000Y-109982000D02*
X110871000Y-111887000D01*
X110871000Y-131141000D02*
X111912000Y-132182000D01*
X110871000Y-111887000D02*
X110871000Y-131141000D01*
X111912000Y-132182000D02*
X115190000Y-135460000D01*
X151634366Y-154460000D02*
X96190000Y-154460000D01*
X153190000Y-154460000D02*
X151634366Y-154460000D01*
X83536000Y-113381000D02*
X83566000Y-113411000D01*
X83536000Y-112014000D02*
X83536000Y-113381000D01*
X100610880Y-104902000D02*
X107852449Y-104902000D01*
X83058000Y-115316000D02*
X90196880Y-115316000D01*
X83536000Y-106934000D02*
X82936000Y-106934000D01*
X82936000Y-106934000D02*
X80930798Y-108939202D01*
X80930798Y-113188798D02*
X83058000Y-115316000D01*
X80930798Y-108939202D02*
X80930798Y-113188798D01*
X107852449Y-104902000D02*
X108966000Y-104902000D01*
X90196880Y-115316000D02*
X100610880Y-104902000D01*
X109753399Y-103149399D02*
X108966000Y-102362000D01*
X110210601Y-103606601D02*
X109753399Y-103149399D01*
X100228399Y-106146601D02*
X109563409Y-106146601D01*
X82805491Y-115925611D02*
X90449389Y-115925611D01*
X80321188Y-107608812D02*
X80321188Y-113441308D01*
X90449389Y-115925611D02*
X100228399Y-106146601D01*
X110210601Y-105499409D02*
X110210601Y-103606601D01*
X109563409Y-106146601D02*
X110210601Y-105499409D01*
X83536000Y-104394000D02*
X80321188Y-107608812D01*
X80321188Y-113441308D02*
X82805491Y-115925611D01*
X89879967Y-94857189D02*
X90932000Y-95909222D01*
X82578790Y-96021500D02*
X83743100Y-94857188D01*
X83743100Y-94857188D02*
X89879967Y-94857189D01*
X90932000Y-97946658D02*
X95442543Y-102457201D01*
X107852449Y-99822000D02*
X108966000Y-99822000D01*
X83536000Y-99314000D02*
X82578790Y-98356790D01*
X82578790Y-98356790D02*
X82578790Y-96021500D01*
X95442543Y-102457201D02*
X105217248Y-102457201D01*
X105217248Y-102457201D02*
X107852449Y-99822000D01*
X90932000Y-95909222D02*
X90932000Y-97946658D01*
X109563409Y-101117399D02*
X112052611Y-103606601D01*
X89627457Y-95466799D02*
X90322389Y-96161731D01*
X128498601Y-98069399D02*
X129286000Y-97282000D01*
X83536000Y-96774000D02*
X83536000Y-95926408D01*
X90322389Y-96161731D02*
X90322389Y-99312509D01*
X90322389Y-99312509D02*
X94159270Y-103149390D01*
X106336600Y-103149390D02*
X108368591Y-101117399D01*
X83995609Y-95466799D02*
X89627457Y-95466799D01*
X108368591Y-101117399D02*
X109563409Y-101117399D01*
X124485399Y-103606601D02*
X126492000Y-101600000D01*
X126492000Y-100076000D02*
X128498601Y-98069399D01*
X83536000Y-95926408D02*
X83995609Y-95466799D01*
X94159270Y-103149390D02*
X106336600Y-103149390D01*
X112052611Y-103606601D02*
X124485399Y-103606601D01*
X126492000Y-101600000D02*
X126492000Y-100076000D01*
D18*
G36*
X164453893Y-90707670D02*
G01*
X164890498Y-90839489D01*
X165293185Y-91053600D01*
X165646612Y-91341848D01*
X165937327Y-91693261D01*
X166154242Y-92094439D01*
X166289106Y-92530113D01*
X166340000Y-93014344D01*
X166340001Y-163967711D01*
X166292330Y-164453894D01*
X166160512Y-164890497D01*
X165946399Y-165293186D01*
X165658150Y-165646613D01*
X165306739Y-165937327D01*
X164905564Y-166154240D01*
X164469886Y-166289106D01*
X163985664Y-166340000D01*
X92967581Y-166340000D01*
X92937937Y-166342920D01*
X92919238Y-166342789D01*
X92910067Y-166343689D01*
X92327777Y-166404890D01*
X92269191Y-166416916D01*
X92210420Y-166428127D01*
X92201598Y-166430790D01*
X91642285Y-166603928D01*
X91587167Y-166627098D01*
X91531678Y-166649516D01*
X91523542Y-166653843D01*
X91118218Y-166873000D01*
X90000000Y-166873000D01*
X89975224Y-166875440D01*
X89951399Y-166882667D01*
X89929443Y-166894403D01*
X89910197Y-166910197D01*
X89894403Y-166929443D01*
X89882667Y-166951399D01*
X89875440Y-166975224D01*
X89873000Y-167000000D01*
X89873000Y-168115528D01*
X89643616Y-168546938D01*
X89620812Y-168602265D01*
X89597256Y-168657225D01*
X89594531Y-168666029D01*
X89425304Y-169226536D01*
X89413682Y-169285231D01*
X89401248Y-169343727D01*
X89400285Y-169352892D01*
X89343150Y-169935595D01*
X89340000Y-169967582D01*
X89340001Y-176967711D01*
X89292330Y-177453894D01*
X89160512Y-177890497D01*
X88946399Y-178293186D01*
X88658150Y-178646613D01*
X88306739Y-178937327D01*
X87905564Y-179154240D01*
X87469886Y-179289106D01*
X86985664Y-179340000D01*
X66032279Y-179340000D01*
X65546106Y-179292330D01*
X65109503Y-179160512D01*
X64706814Y-178946399D01*
X64353387Y-178658150D01*
X64062673Y-178306739D01*
X63845760Y-177905564D01*
X63710894Y-177469886D01*
X63660000Y-176985664D01*
X63660000Y-156853740D01*
X93435000Y-156853740D01*
X93435000Y-157146260D01*
X93492068Y-157433158D01*
X93604010Y-157703411D01*
X93766525Y-157946632D01*
X93973368Y-158153475D01*
X94216589Y-158315990D01*
X94486842Y-158427932D01*
X94773740Y-158485000D01*
X95066260Y-158485000D01*
X95353158Y-158427932D01*
X95623411Y-158315990D01*
X95866632Y-158153475D01*
X96073475Y-157946632D01*
X96235990Y-157703411D01*
X96347932Y-157433158D01*
X96405000Y-157146260D01*
X96405000Y-156853740D01*
X96347932Y-156566842D01*
X96235990Y-156296589D01*
X96168110Y-156195000D01*
X96360883Y-156195000D01*
X96696081Y-156128325D01*
X97011831Y-155997537D01*
X97295998Y-155807663D01*
X97537663Y-155565998D01*
X97727537Y-155281831D01*
X97741799Y-155247400D01*
X98026147Y-155247400D01*
X97953262Y-155320285D01*
X97664893Y-155751859D01*
X97466261Y-156231399D01*
X97365000Y-156740475D01*
X97365000Y-157259525D01*
X97466261Y-157768601D01*
X97664893Y-158248141D01*
X97953262Y-158679715D01*
X98320285Y-159046738D01*
X98751859Y-159335107D01*
X99231399Y-159533739D01*
X99740475Y-159635000D01*
X100259525Y-159635000D01*
X100768601Y-159533739D01*
X101248141Y-159335107D01*
X101679715Y-159046738D01*
X102046738Y-158679715D01*
X102335107Y-158248141D01*
X102533739Y-157768601D01*
X102635000Y-157259525D01*
X102635000Y-156853740D01*
X103595000Y-156853740D01*
X103595000Y-157146260D01*
X103652068Y-157433158D01*
X103764010Y-157703411D01*
X103926525Y-157946632D01*
X104133368Y-158153475D01*
X104376589Y-158315990D01*
X104646842Y-158427932D01*
X104933740Y-158485000D01*
X105226260Y-158485000D01*
X105513158Y-158427932D01*
X105783411Y-158315990D01*
X106026632Y-158153475D01*
X106233475Y-157946632D01*
X106395990Y-157703411D01*
X106507932Y-157433158D01*
X106565000Y-157146260D01*
X106565000Y-156853740D01*
X106507932Y-156566842D01*
X106395990Y-156296589D01*
X106233475Y-156053368D01*
X106026632Y-155846525D01*
X105783411Y-155684010D01*
X105513158Y-155572068D01*
X105226260Y-155515000D01*
X104933740Y-155515000D01*
X104646842Y-155572068D01*
X104376589Y-155684010D01*
X104133368Y-155846525D01*
X103926525Y-156053368D01*
X103764010Y-156296589D01*
X103652068Y-156566842D01*
X103595000Y-156853740D01*
X102635000Y-156853740D01*
X102635000Y-156740475D01*
X102533739Y-156231399D01*
X102335107Y-155751859D01*
X102046738Y-155320285D01*
X101973853Y-155247400D01*
X113638201Y-155247400D01*
X113652463Y-155281831D01*
X113808261Y-155515000D01*
X113773740Y-155515000D01*
X113486842Y-155572068D01*
X113216589Y-155684010D01*
X112973368Y-155846525D01*
X112766525Y-156053368D01*
X112604010Y-156296589D01*
X112492068Y-156566842D01*
X112435000Y-156853740D01*
X112435000Y-157146260D01*
X112492068Y-157433158D01*
X112604010Y-157703411D01*
X112766525Y-157946632D01*
X112973368Y-158153475D01*
X113216589Y-158315990D01*
X113486842Y-158427932D01*
X113773740Y-158485000D01*
X114066260Y-158485000D01*
X114353158Y-158427932D01*
X114623411Y-158315990D01*
X114866632Y-158153475D01*
X115073475Y-157946632D01*
X115235990Y-157703411D01*
X115347932Y-157433158D01*
X115405000Y-157146260D01*
X115405000Y-156853740D01*
X115347932Y-156566842D01*
X115235990Y-156296589D01*
X115168110Y-156195000D01*
X115360883Y-156195000D01*
X115696081Y-156128325D01*
X116011831Y-155997537D01*
X116295998Y-155807663D01*
X116537663Y-155565998D01*
X116727537Y-155281831D01*
X116741799Y-155247400D01*
X117026147Y-155247400D01*
X116953262Y-155320285D01*
X116664893Y-155751859D01*
X116466261Y-156231399D01*
X116365000Y-156740475D01*
X116365000Y-157259525D01*
X116466261Y-157768601D01*
X116664893Y-158248141D01*
X116953262Y-158679715D01*
X117320285Y-159046738D01*
X117751859Y-159335107D01*
X118231399Y-159533739D01*
X118740475Y-159635000D01*
X119259525Y-159635000D01*
X119768601Y-159533739D01*
X120248141Y-159335107D01*
X120679715Y-159046738D01*
X121046738Y-158679715D01*
X121335107Y-158248141D01*
X121533739Y-157768601D01*
X121635000Y-157259525D01*
X121635000Y-156853740D01*
X122595000Y-156853740D01*
X122595000Y-157146260D01*
X122652068Y-157433158D01*
X122764010Y-157703411D01*
X122926525Y-157946632D01*
X123133368Y-158153475D01*
X123376589Y-158315990D01*
X123646842Y-158427932D01*
X123933740Y-158485000D01*
X124226260Y-158485000D01*
X124513158Y-158427932D01*
X124783411Y-158315990D01*
X125026632Y-158153475D01*
X125233475Y-157946632D01*
X125395990Y-157703411D01*
X125507932Y-157433158D01*
X125565000Y-157146260D01*
X125565000Y-156853740D01*
X125507932Y-156566842D01*
X125395990Y-156296589D01*
X125233475Y-156053368D01*
X125026632Y-155846525D01*
X124783411Y-155684010D01*
X124513158Y-155572068D01*
X124226260Y-155515000D01*
X123933740Y-155515000D01*
X123646842Y-155572068D01*
X123376589Y-155684010D01*
X123133368Y-155846525D01*
X122926525Y-156053368D01*
X122764010Y-156296589D01*
X122652068Y-156566842D01*
X122595000Y-156853740D01*
X121635000Y-156853740D01*
X121635000Y-156740475D01*
X121533739Y-156231399D01*
X121335107Y-155751859D01*
X121046738Y-155320285D01*
X120973853Y-155247400D01*
X132638201Y-155247400D01*
X132652463Y-155281831D01*
X132808261Y-155515000D01*
X132773740Y-155515000D01*
X132486842Y-155572068D01*
X132216589Y-155684010D01*
X131973368Y-155846525D01*
X131766525Y-156053368D01*
X131604010Y-156296589D01*
X131492068Y-156566842D01*
X131435000Y-156853740D01*
X131435000Y-157146260D01*
X131492068Y-157433158D01*
X131604010Y-157703411D01*
X131766525Y-157946632D01*
X131973368Y-158153475D01*
X132216589Y-158315990D01*
X132486842Y-158427932D01*
X132773740Y-158485000D01*
X133066260Y-158485000D01*
X133353158Y-158427932D01*
X133623411Y-158315990D01*
X133866632Y-158153475D01*
X134073475Y-157946632D01*
X134235990Y-157703411D01*
X134347932Y-157433158D01*
X134405000Y-157146260D01*
X134405000Y-156853740D01*
X134347932Y-156566842D01*
X134235990Y-156296589D01*
X134168110Y-156195000D01*
X134360883Y-156195000D01*
X134696081Y-156128325D01*
X135011831Y-155997537D01*
X135295998Y-155807663D01*
X135537663Y-155565998D01*
X135727537Y-155281831D01*
X135741799Y-155247400D01*
X136026147Y-155247400D01*
X135953262Y-155320285D01*
X135664893Y-155751859D01*
X135466261Y-156231399D01*
X135365000Y-156740475D01*
X135365000Y-157259525D01*
X135466261Y-157768601D01*
X135664893Y-158248141D01*
X135953262Y-158679715D01*
X136320285Y-159046738D01*
X136751859Y-159335107D01*
X137231399Y-159533739D01*
X137740475Y-159635000D01*
X138259525Y-159635000D01*
X138768601Y-159533739D01*
X139248141Y-159335107D01*
X139679715Y-159046738D01*
X140046738Y-158679715D01*
X140335107Y-158248141D01*
X140533739Y-157768601D01*
X140635000Y-157259525D01*
X140635000Y-156853740D01*
X141595000Y-156853740D01*
X141595000Y-157146260D01*
X141652068Y-157433158D01*
X141764010Y-157703411D01*
X141926525Y-157946632D01*
X142133368Y-158153475D01*
X142376589Y-158315990D01*
X142646842Y-158427932D01*
X142933740Y-158485000D01*
X143226260Y-158485000D01*
X143513158Y-158427932D01*
X143783411Y-158315990D01*
X144026632Y-158153475D01*
X144233475Y-157946632D01*
X144395990Y-157703411D01*
X144507932Y-157433158D01*
X144565000Y-157146260D01*
X144565000Y-156853740D01*
X144507932Y-156566842D01*
X144395990Y-156296589D01*
X144233475Y-156053368D01*
X144026632Y-155846525D01*
X143783411Y-155684010D01*
X143513158Y-155572068D01*
X143226260Y-155515000D01*
X142933740Y-155515000D01*
X142646842Y-155572068D01*
X142376589Y-155684010D01*
X142133368Y-155846525D01*
X141926525Y-156053368D01*
X141764010Y-156296589D01*
X141652068Y-156566842D01*
X141595000Y-156853740D01*
X140635000Y-156853740D01*
X140635000Y-156740475D01*
X140533739Y-156231399D01*
X140335107Y-155751859D01*
X140046738Y-155320285D01*
X139973853Y-155247400D01*
X151638201Y-155247400D01*
X151652463Y-155281831D01*
X151808261Y-155515000D01*
X151773740Y-155515000D01*
X151486842Y-155572068D01*
X151216589Y-155684010D01*
X150973368Y-155846525D01*
X150766525Y-156053368D01*
X150604010Y-156296589D01*
X150492068Y-156566842D01*
X150435000Y-156853740D01*
X150435000Y-157146260D01*
X150492068Y-157433158D01*
X150604010Y-157703411D01*
X150766525Y-157946632D01*
X150973368Y-158153475D01*
X151216589Y-158315990D01*
X151486842Y-158427932D01*
X151773740Y-158485000D01*
X152066260Y-158485000D01*
X152353158Y-158427932D01*
X152623411Y-158315990D01*
X152866632Y-158153475D01*
X153073475Y-157946632D01*
X153235990Y-157703411D01*
X153347932Y-157433158D01*
X153405000Y-157146260D01*
X153405000Y-156853740D01*
X153382471Y-156740475D01*
X154365000Y-156740475D01*
X154365000Y-157259525D01*
X154466261Y-157768601D01*
X154664893Y-158248141D01*
X154953262Y-158679715D01*
X155320285Y-159046738D01*
X155751859Y-159335107D01*
X156231399Y-159533739D01*
X156740475Y-159635000D01*
X157259525Y-159635000D01*
X157768601Y-159533739D01*
X158248141Y-159335107D01*
X158679715Y-159046738D01*
X159046738Y-158679715D01*
X159335107Y-158248141D01*
X159533739Y-157768601D01*
X159635000Y-157259525D01*
X159635000Y-156853740D01*
X160595000Y-156853740D01*
X160595000Y-157146260D01*
X160652068Y-157433158D01*
X160764010Y-157703411D01*
X160926525Y-157946632D01*
X161133368Y-158153475D01*
X161376589Y-158315990D01*
X161646842Y-158427932D01*
X161933740Y-158485000D01*
X162226260Y-158485000D01*
X162513158Y-158427932D01*
X162783411Y-158315990D01*
X163026632Y-158153475D01*
X163233475Y-157946632D01*
X163395990Y-157703411D01*
X163507932Y-157433158D01*
X163565000Y-157146260D01*
X163565000Y-156853740D01*
X163507932Y-156566842D01*
X163395990Y-156296589D01*
X163233475Y-156053368D01*
X163026632Y-155846525D01*
X162783411Y-155684010D01*
X162513158Y-155572068D01*
X162226260Y-155515000D01*
X161933740Y-155515000D01*
X161646842Y-155572068D01*
X161376589Y-155684010D01*
X161133368Y-155846525D01*
X160926525Y-156053368D01*
X160764010Y-156296589D01*
X160652068Y-156566842D01*
X160595000Y-156853740D01*
X159635000Y-156853740D01*
X159635000Y-156740475D01*
X159533739Y-156231399D01*
X159335107Y-155751859D01*
X159046738Y-155320285D01*
X158679715Y-154953262D01*
X158248141Y-154664893D01*
X157768601Y-154466261D01*
X157259525Y-154365000D01*
X156740475Y-154365000D01*
X156231399Y-154466261D01*
X155751859Y-154664893D01*
X155320285Y-154953262D01*
X154953262Y-155320285D01*
X154664893Y-155751859D01*
X154466261Y-156231399D01*
X154365000Y-156740475D01*
X153382471Y-156740475D01*
X153347932Y-156566842D01*
X153235990Y-156296589D01*
X153168110Y-156195000D01*
X153360883Y-156195000D01*
X153696081Y-156128325D01*
X154011831Y-155997537D01*
X154295998Y-155807663D01*
X154537663Y-155565998D01*
X154727537Y-155281831D01*
X154858325Y-154966081D01*
X154925000Y-154630883D01*
X154925000Y-154289117D01*
X154858325Y-153953919D01*
X154727537Y-153638169D01*
X154537663Y-153354002D01*
X154295998Y-153112337D01*
X154011831Y-152922463D01*
X153696081Y-152791675D01*
X153360883Y-152725000D01*
X153019117Y-152725000D01*
X152683919Y-152791675D01*
X152368169Y-152922463D01*
X152084002Y-153112337D01*
X151842337Y-153354002D01*
X151652463Y-153638169D01*
X151638201Y-153672600D01*
X135741799Y-153672600D01*
X135727537Y-153638169D01*
X135537663Y-153354002D01*
X135295998Y-153112337D01*
X135011831Y-152922463D01*
X134696081Y-152791675D01*
X134360883Y-152725000D01*
X134019117Y-152725000D01*
X133683919Y-152791675D01*
X133368169Y-152922463D01*
X133084002Y-153112337D01*
X132842337Y-153354002D01*
X132652463Y-153638169D01*
X132638201Y-153672600D01*
X116741799Y-153672600D01*
X116727537Y-153638169D01*
X116537663Y-153354002D01*
X116295998Y-153112337D01*
X116011831Y-152922463D01*
X115696081Y-152791675D01*
X115360883Y-152725000D01*
X115019117Y-152725000D01*
X114683919Y-152791675D01*
X114368169Y-152922463D01*
X114084002Y-153112337D01*
X113842337Y-153354002D01*
X113652463Y-153638169D01*
X113638201Y-153672600D01*
X97741799Y-153672600D01*
X97727537Y-153638169D01*
X97537663Y-153354002D01*
X97295998Y-153112337D01*
X97011831Y-152922463D01*
X96696081Y-152791675D01*
X96360883Y-152725000D01*
X96019117Y-152725000D01*
X95683919Y-152791675D01*
X95368169Y-152922463D01*
X95084002Y-153112337D01*
X94842337Y-153354002D01*
X94652463Y-153638169D01*
X94521675Y-153953919D01*
X94455000Y-154289117D01*
X94455000Y-154630883D01*
X94521675Y-154966081D01*
X94652463Y-155281831D01*
X94808261Y-155515000D01*
X94773740Y-155515000D01*
X94486842Y-155572068D01*
X94216589Y-155684010D01*
X93973368Y-155846525D01*
X93766525Y-156053368D01*
X93604010Y-156296589D01*
X93492068Y-156566842D01*
X93435000Y-156853740D01*
X63660000Y-156853740D01*
X63660000Y-107608812D01*
X79529980Y-107608812D01*
X79533788Y-107647475D01*
X79533789Y-113402635D01*
X79529980Y-113441308D01*
X79545183Y-113595665D01*
X79590206Y-113744090D01*
X79645034Y-113846664D01*
X79663323Y-113880880D01*
X79761720Y-114000777D01*
X79791761Y-114025431D01*
X82221368Y-116455039D01*
X82246022Y-116485080D01*
X82365919Y-116583477D01*
X82502708Y-116656593D01*
X82651134Y-116701617D01*
X82766818Y-116713011D01*
X82766828Y-116713011D01*
X82805491Y-116716819D01*
X82844154Y-116713011D01*
X90410726Y-116713011D01*
X90449389Y-116716819D01*
X90488052Y-116713011D01*
X90488062Y-116713011D01*
X90603746Y-116701617D01*
X90752172Y-116656593D01*
X90888961Y-116583477D01*
X91008858Y-116485080D01*
X91033517Y-116455033D01*
X100554551Y-106934001D01*
X107636826Y-106934001D01*
X107598262Y-107027101D01*
X107543600Y-107301906D01*
X107543600Y-107582094D01*
X107598262Y-107856899D01*
X107705486Y-108115759D01*
X107861150Y-108348727D01*
X108059273Y-108546850D01*
X108292241Y-108702514D01*
X108315142Y-108712000D01*
X108292241Y-108721486D01*
X108059273Y-108877150D01*
X107861150Y-109075273D01*
X107781418Y-109194600D01*
X99833782Y-109194600D01*
X99795119Y-109190792D01*
X99756456Y-109194600D01*
X99756447Y-109194600D01*
X99640763Y-109205994D01*
X99492337Y-109251018D01*
X99355548Y-109324134D01*
X99329175Y-109345778D01*
X99265689Y-109397879D01*
X99265687Y-109397881D01*
X99235651Y-109422531D01*
X99211001Y-109452567D01*
X93083377Y-115580193D01*
X93053330Y-115604852D01*
X92954933Y-115724750D01*
X92881817Y-115861539D01*
X92836793Y-116009965D01*
X92825399Y-116125649D01*
X92825399Y-116125658D01*
X92821591Y-116164321D01*
X92825399Y-116202984D01*
X92825400Y-132844126D01*
X92821591Y-132882799D01*
X92836794Y-133037156D01*
X92881817Y-133185581D01*
X92881818Y-133185582D01*
X92954934Y-133322371D01*
X93053331Y-133442268D01*
X93083372Y-133466922D01*
X94535937Y-134919488D01*
X94521675Y-134953919D01*
X94455000Y-135289117D01*
X94455000Y-135630883D01*
X94521675Y-135966081D01*
X94652463Y-136281831D01*
X94808261Y-136515000D01*
X94773740Y-136515000D01*
X94486842Y-136572068D01*
X94216589Y-136684010D01*
X93973368Y-136846525D01*
X93766525Y-137053368D01*
X93604010Y-137296589D01*
X93492068Y-137566842D01*
X93435000Y-137853740D01*
X93435000Y-138146260D01*
X93492068Y-138433158D01*
X93604010Y-138703411D01*
X93766525Y-138946632D01*
X93973368Y-139153475D01*
X94216589Y-139315990D01*
X94486842Y-139427932D01*
X94773740Y-139485000D01*
X95066260Y-139485000D01*
X95353158Y-139427932D01*
X95623411Y-139315990D01*
X95866632Y-139153475D01*
X96073475Y-138946632D01*
X96235990Y-138703411D01*
X96347932Y-138433158D01*
X96405000Y-138146260D01*
X96405000Y-137853740D01*
X96382471Y-137740475D01*
X97365000Y-137740475D01*
X97365000Y-138259525D01*
X97466261Y-138768601D01*
X97664893Y-139248141D01*
X97953262Y-139679715D01*
X98320285Y-140046738D01*
X98751859Y-140335107D01*
X99231399Y-140533739D01*
X99740475Y-140635000D01*
X100259525Y-140635000D01*
X100768601Y-140533739D01*
X101248141Y-140335107D01*
X101679715Y-140046738D01*
X101752600Y-139973853D01*
X101752601Y-150368201D01*
X101718169Y-150382463D01*
X101434002Y-150572337D01*
X101192337Y-150814002D01*
X101002463Y-151098169D01*
X100871675Y-151413919D01*
X100805000Y-151749117D01*
X100805000Y-152090883D01*
X100871675Y-152426081D01*
X101002463Y-152741831D01*
X101192337Y-153025998D01*
X101434002Y-153267663D01*
X101718169Y-153457537D01*
X102033919Y-153588325D01*
X102369117Y-153655000D01*
X102710883Y-153655000D01*
X103046081Y-153588325D01*
X103361831Y-153457537D01*
X103645998Y-153267663D01*
X103887663Y-153025998D01*
X104077537Y-152741831D01*
X104208325Y-152426081D01*
X104275000Y-152090883D01*
X104275000Y-151749117D01*
X119805000Y-151749117D01*
X119805000Y-152090883D01*
X119871675Y-152426081D01*
X120002463Y-152741831D01*
X120192337Y-153025998D01*
X120434002Y-153267663D01*
X120718169Y-153457537D01*
X121033919Y-153588325D01*
X121369117Y-153655000D01*
X121710883Y-153655000D01*
X122046081Y-153588325D01*
X122361831Y-153457537D01*
X122645998Y-153267663D01*
X122887663Y-153025998D01*
X123077537Y-152741831D01*
X123208325Y-152426081D01*
X123275000Y-152090883D01*
X123275000Y-151749117D01*
X138805000Y-151749117D01*
X138805000Y-152090883D01*
X138871675Y-152426081D01*
X139002463Y-152741831D01*
X139192337Y-153025998D01*
X139434002Y-153267663D01*
X139718169Y-153457537D01*
X140033919Y-153588325D01*
X140369117Y-153655000D01*
X140710883Y-153655000D01*
X141046081Y-153588325D01*
X141361831Y-153457537D01*
X141645998Y-153267663D01*
X141887663Y-153025998D01*
X142077537Y-152741831D01*
X142208325Y-152426081D01*
X142275000Y-152090883D01*
X142275000Y-151749117D01*
X157805000Y-151749117D01*
X157805000Y-152090883D01*
X157871675Y-152426081D01*
X158002463Y-152741831D01*
X158192337Y-153025998D01*
X158434002Y-153267663D01*
X158718169Y-153457537D01*
X159033919Y-153588325D01*
X159369117Y-153655000D01*
X159710883Y-153655000D01*
X160046081Y-153588325D01*
X160361831Y-153457537D01*
X160645998Y-153267663D01*
X160887663Y-153025998D01*
X161077537Y-152741831D01*
X161208325Y-152426081D01*
X161275000Y-152090883D01*
X161275000Y-151749117D01*
X161208325Y-151413919D01*
X161077537Y-151098169D01*
X160887663Y-150814002D01*
X160645998Y-150572337D01*
X160361831Y-150382463D01*
X160046081Y-150251675D01*
X159710883Y-150185000D01*
X159369117Y-150185000D01*
X159033919Y-150251675D01*
X158718169Y-150382463D01*
X158434002Y-150572337D01*
X158192337Y-150814002D01*
X158002463Y-151098169D01*
X157871675Y-151413919D01*
X157805000Y-151749117D01*
X142275000Y-151749117D01*
X142208325Y-151413919D01*
X142077537Y-151098169D01*
X141887663Y-150814002D01*
X141645998Y-150572337D01*
X141361831Y-150382463D01*
X141046081Y-150251675D01*
X140710883Y-150185000D01*
X140369117Y-150185000D01*
X140033919Y-150251675D01*
X139718169Y-150382463D01*
X139434002Y-150572337D01*
X139192337Y-150814002D01*
X139002463Y-151098169D01*
X138871675Y-151413919D01*
X138805000Y-151749117D01*
X123275000Y-151749117D01*
X123208325Y-151413919D01*
X123077537Y-151098169D01*
X122887663Y-150814002D01*
X122645998Y-150572337D01*
X122361831Y-150382463D01*
X122046081Y-150251675D01*
X121710883Y-150185000D01*
X121369117Y-150185000D01*
X121033919Y-150251675D01*
X120718169Y-150382463D01*
X120434002Y-150572337D01*
X120192337Y-150814002D01*
X120002463Y-151098169D01*
X119871675Y-151413919D01*
X119805000Y-151749117D01*
X104275000Y-151749117D01*
X104208325Y-151413919D01*
X104077537Y-151098169D01*
X103887663Y-150814002D01*
X103645998Y-150572337D01*
X103361831Y-150382463D01*
X103327400Y-150368201D01*
X103327400Y-137853740D01*
X103595000Y-137853740D01*
X103595000Y-138146260D01*
X103652068Y-138433158D01*
X103764010Y-138703411D01*
X103926525Y-138946632D01*
X104133368Y-139153475D01*
X104376589Y-139315990D01*
X104646842Y-139427932D01*
X104933740Y-139485000D01*
X105226260Y-139485000D01*
X105513158Y-139427932D01*
X105783411Y-139315990D01*
X106026632Y-139153475D01*
X106233475Y-138946632D01*
X106395990Y-138703411D01*
X106507932Y-138433158D01*
X106565000Y-138146260D01*
X106565000Y-137853740D01*
X106507932Y-137566842D01*
X106395990Y-137296589D01*
X106233475Y-137053368D01*
X106026632Y-136846525D01*
X105783411Y-136684010D01*
X105513158Y-136572068D01*
X105226260Y-136515000D01*
X104933740Y-136515000D01*
X104646842Y-136572068D01*
X104376589Y-136684010D01*
X104133368Y-136846525D01*
X103926525Y-137053368D01*
X103764010Y-137296589D01*
X103652068Y-137566842D01*
X103595000Y-137853740D01*
X103327400Y-137853740D01*
X103327400Y-134471799D01*
X103361831Y-134457537D01*
X103645998Y-134267663D01*
X103887663Y-134025998D01*
X104077537Y-133741831D01*
X104208325Y-133426081D01*
X104275000Y-133090883D01*
X104275000Y-132749117D01*
X104208325Y-132413919D01*
X104077537Y-132098169D01*
X103887663Y-131814002D01*
X103645998Y-131572337D01*
X103361831Y-131382463D01*
X103046081Y-131251675D01*
X102710883Y-131185000D01*
X102369117Y-131185000D01*
X102033919Y-131251675D01*
X101718169Y-131382463D01*
X101434002Y-131572337D01*
X101192337Y-131814002D01*
X101002463Y-132098169D01*
X100871675Y-132413919D01*
X100805000Y-132749117D01*
X100805000Y-133090883D01*
X100871675Y-133426081D01*
X101002463Y-133741831D01*
X101192337Y-134025998D01*
X101434002Y-134267663D01*
X101718169Y-134457537D01*
X101752600Y-134471799D01*
X101752600Y-136026147D01*
X101679715Y-135953262D01*
X101248141Y-135664893D01*
X100768601Y-135466261D01*
X100259525Y-135365000D01*
X99740475Y-135365000D01*
X99231399Y-135466261D01*
X98751859Y-135664893D01*
X98320285Y-135953262D01*
X97953262Y-136320285D01*
X97664893Y-136751859D01*
X97466261Y-137231399D01*
X97365000Y-137740475D01*
X96382471Y-137740475D01*
X96347932Y-137566842D01*
X96235990Y-137296589D01*
X96168110Y-137195000D01*
X96360883Y-137195000D01*
X96696081Y-137128325D01*
X97011831Y-136997537D01*
X97295998Y-136807663D01*
X97537663Y-136565998D01*
X97727537Y-136281831D01*
X97858325Y-135966081D01*
X97925000Y-135630883D01*
X97925000Y-135289117D01*
X97858325Y-134953919D01*
X97727537Y-134638169D01*
X97537663Y-134354002D01*
X97295998Y-134112337D01*
X97011831Y-133922463D01*
X96696081Y-133791675D01*
X96360883Y-133725000D01*
X96019117Y-133725000D01*
X95683919Y-133791675D01*
X95649488Y-133805937D01*
X94400199Y-132556649D01*
X94400199Y-122753010D01*
X107538483Y-122753010D01*
X107579766Y-123030140D01*
X107674321Y-123293892D01*
X107739612Y-123416043D01*
X107982295Y-123486100D01*
X108786395Y-122682000D01*
X107982295Y-121877900D01*
X107739612Y-121947957D01*
X107619972Y-122201318D01*
X107552059Y-122473151D01*
X107538483Y-122753010D01*
X94400199Y-122753010D01*
X94400199Y-120392043D01*
X94486842Y-120427932D01*
X94773740Y-120485000D01*
X95066260Y-120485000D01*
X95353158Y-120427932D01*
X95623411Y-120315990D01*
X95866632Y-120153475D01*
X96073475Y-119946632D01*
X96235990Y-119703411D01*
X96347932Y-119433158D01*
X96405000Y-119146260D01*
X96405000Y-118853740D01*
X96382471Y-118740475D01*
X97365000Y-118740475D01*
X97365000Y-119259525D01*
X97466261Y-119768601D01*
X97664893Y-120248141D01*
X97953262Y-120679715D01*
X98320285Y-121046738D01*
X98751859Y-121335107D01*
X99231399Y-121533739D01*
X99740475Y-121635000D01*
X100259525Y-121635000D01*
X100768601Y-121533739D01*
X101248141Y-121335107D01*
X101679715Y-121046738D01*
X102046738Y-120679715D01*
X102335107Y-120248141D01*
X102533739Y-119768601D01*
X102635000Y-119259525D01*
X102635000Y-118853740D01*
X103595000Y-118853740D01*
X103595000Y-119146260D01*
X103652068Y-119433158D01*
X103764010Y-119703411D01*
X103926525Y-119946632D01*
X104133368Y-120153475D01*
X104376589Y-120315990D01*
X104646842Y-120427932D01*
X104933740Y-120485000D01*
X105226260Y-120485000D01*
X105513158Y-120427932D01*
X105783411Y-120315990D01*
X106026632Y-120153475D01*
X106233475Y-119946632D01*
X106395990Y-119703411D01*
X106507932Y-119433158D01*
X106565000Y-119146260D01*
X106565000Y-118853740D01*
X106507932Y-118566842D01*
X106395990Y-118296589D01*
X106233475Y-118053368D01*
X106026632Y-117846525D01*
X105783411Y-117684010D01*
X105513158Y-117572068D01*
X105226260Y-117515000D01*
X104933740Y-117515000D01*
X104646842Y-117572068D01*
X104376589Y-117684010D01*
X104133368Y-117846525D01*
X103926525Y-118053368D01*
X103764010Y-118296589D01*
X103652068Y-118566842D01*
X103595000Y-118853740D01*
X102635000Y-118853740D01*
X102635000Y-118740475D01*
X102533739Y-118231399D01*
X102335107Y-117751859D01*
X102046738Y-117320285D01*
X101679715Y-116953262D01*
X101248141Y-116664893D01*
X100768601Y-116466261D01*
X100259525Y-116365000D01*
X99740475Y-116365000D01*
X99231399Y-116466261D01*
X98751859Y-116664893D01*
X98320285Y-116953262D01*
X97953262Y-117320285D01*
X97664893Y-117751859D01*
X97466261Y-118231399D01*
X97365000Y-118740475D01*
X96382471Y-118740475D01*
X96347932Y-118566842D01*
X96235990Y-118296589D01*
X96168110Y-118195000D01*
X96360883Y-118195000D01*
X96696081Y-118128325D01*
X97011831Y-117997537D01*
X97295998Y-117807663D01*
X97537663Y-117565998D01*
X97727537Y-117281831D01*
X97858325Y-116966081D01*
X97925000Y-116630883D01*
X97925000Y-116289117D01*
X97858325Y-115953919D01*
X97844063Y-115919487D01*
X101241551Y-112522001D01*
X101509335Y-112522001D01*
X101434002Y-112572337D01*
X101192337Y-112814002D01*
X101002463Y-113098169D01*
X100871675Y-113413919D01*
X100805000Y-113749117D01*
X100805000Y-114090883D01*
X100871675Y-114426081D01*
X101002463Y-114741831D01*
X101192337Y-115025998D01*
X101434002Y-115267663D01*
X101718169Y-115457537D01*
X102033919Y-115588325D01*
X102369117Y-115655000D01*
X102710883Y-115655000D01*
X103046081Y-115588325D01*
X103361831Y-115457537D01*
X103645998Y-115267663D01*
X103887663Y-115025998D01*
X104077537Y-114741831D01*
X104208325Y-114426081D01*
X104275000Y-114090883D01*
X104275000Y-113749117D01*
X104208325Y-113413919D01*
X104077537Y-113098169D01*
X103887663Y-112814002D01*
X103645998Y-112572337D01*
X103570665Y-112522001D01*
X107543600Y-112522001D01*
X107543600Y-112662094D01*
X107598262Y-112936899D01*
X107705486Y-113195759D01*
X107861150Y-113428727D01*
X108059273Y-113626850D01*
X108292241Y-113782514D01*
X108315142Y-113792000D01*
X108292241Y-113801486D01*
X108059273Y-113957150D01*
X107861150Y-114155273D01*
X107705486Y-114388241D01*
X107598262Y-114647101D01*
X107543600Y-114921906D01*
X107543600Y-115202094D01*
X107598262Y-115476899D01*
X107705486Y-115735759D01*
X107861150Y-115968727D01*
X108059273Y-116166850D01*
X108292241Y-116322514D01*
X108315142Y-116332000D01*
X108292241Y-116341486D01*
X108059273Y-116497150D01*
X107861150Y-116695273D01*
X107705486Y-116928241D01*
X107598262Y-117187101D01*
X107543600Y-117461906D01*
X107543600Y-117742094D01*
X107598262Y-118016899D01*
X107705486Y-118275759D01*
X107861150Y-118508727D01*
X108059273Y-118706850D01*
X108292241Y-118862514D01*
X108315142Y-118872000D01*
X108292241Y-118881486D01*
X108059273Y-119037150D01*
X107861150Y-119235273D01*
X107705486Y-119468241D01*
X107598262Y-119727101D01*
X107543600Y-120001906D01*
X107543600Y-120282094D01*
X107598262Y-120556899D01*
X107705486Y-120815759D01*
X107861150Y-121048727D01*
X108059273Y-121246850D01*
X108292241Y-121402514D01*
X108314245Y-121411628D01*
X108231957Y-121455612D01*
X108161900Y-121698295D01*
X108966000Y-122502395D01*
X109770100Y-121698295D01*
X109700043Y-121455612D01*
X109611972Y-121414024D01*
X109639759Y-121402514D01*
X109872727Y-121246850D01*
X110070850Y-121048727D01*
X110083600Y-121029645D01*
X110083601Y-121916553D01*
X109949705Y-121877900D01*
X109145605Y-122682000D01*
X109949705Y-123486100D01*
X110083601Y-123447447D01*
X110083601Y-124334356D01*
X110070850Y-124315273D01*
X109872727Y-124117150D01*
X109639759Y-123961486D01*
X109617755Y-123952372D01*
X109700043Y-123908388D01*
X109770100Y-123665705D01*
X108966000Y-122861605D01*
X108161900Y-123665705D01*
X108231957Y-123908388D01*
X108320028Y-123949976D01*
X108292241Y-123961486D01*
X108059273Y-124117150D01*
X107861150Y-124315273D01*
X107705486Y-124548241D01*
X107598262Y-124807101D01*
X107543600Y-125081906D01*
X107543600Y-125362094D01*
X107598262Y-125636899D01*
X107705486Y-125895759D01*
X107861150Y-126128727D01*
X108059273Y-126326850D01*
X108292241Y-126482514D01*
X108315142Y-126492000D01*
X108292241Y-126501486D01*
X108059273Y-126657150D01*
X107861150Y-126855273D01*
X107705486Y-127088241D01*
X107598262Y-127347101D01*
X107543600Y-127621906D01*
X107543600Y-127902094D01*
X107598262Y-128176899D01*
X107705486Y-128435759D01*
X107861150Y-128668727D01*
X108059273Y-128866850D01*
X108292241Y-129022514D01*
X108315142Y-129032000D01*
X108292241Y-129041486D01*
X108059273Y-129197150D01*
X107861150Y-129395273D01*
X107705486Y-129628241D01*
X107598262Y-129887101D01*
X107543600Y-130161906D01*
X107543600Y-130442094D01*
X107598262Y-130716899D01*
X107705486Y-130975759D01*
X107861150Y-131208727D01*
X108059273Y-131406850D01*
X108292241Y-131562514D01*
X108551101Y-131669738D01*
X108825906Y-131724400D01*
X109106094Y-131724400D01*
X109380899Y-131669738D01*
X109639759Y-131562514D01*
X109872727Y-131406850D01*
X110070850Y-131208727D01*
X110084457Y-131188363D01*
X110094995Y-131295357D01*
X110140018Y-131443782D01*
X110140019Y-131443783D01*
X110213135Y-131580572D01*
X110311532Y-131700469D01*
X110341573Y-131725123D01*
X111382569Y-132766121D01*
X111382580Y-132766130D01*
X113535937Y-134919488D01*
X113521675Y-134953919D01*
X113455000Y-135289117D01*
X113455000Y-135630883D01*
X113521675Y-135966081D01*
X113652463Y-136281831D01*
X113808261Y-136515000D01*
X113773740Y-136515000D01*
X113486842Y-136572068D01*
X113216589Y-136684010D01*
X112973368Y-136846525D01*
X112766525Y-137053368D01*
X112604010Y-137296589D01*
X112492068Y-137566842D01*
X112435000Y-137853740D01*
X112435000Y-138146260D01*
X112492068Y-138433158D01*
X112604010Y-138703411D01*
X112766525Y-138946632D01*
X112973368Y-139153475D01*
X113216589Y-139315990D01*
X113486842Y-139427932D01*
X113773740Y-139485000D01*
X114066260Y-139485000D01*
X114353158Y-139427932D01*
X114623411Y-139315990D01*
X114866632Y-139153475D01*
X115073475Y-138946632D01*
X115235990Y-138703411D01*
X115347932Y-138433158D01*
X115405000Y-138146260D01*
X115405000Y-137853740D01*
X115347932Y-137566842D01*
X115235990Y-137296589D01*
X115168110Y-137195000D01*
X115360883Y-137195000D01*
X115696081Y-137128325D01*
X116011831Y-136997537D01*
X116295998Y-136807663D01*
X116537663Y-136565998D01*
X116727537Y-136281831D01*
X116741799Y-136247400D01*
X117026147Y-136247400D01*
X116953262Y-136320285D01*
X116664893Y-136751859D01*
X116466261Y-137231399D01*
X116365000Y-137740475D01*
X116365000Y-138259525D01*
X116466261Y-138768601D01*
X116664893Y-139248141D01*
X116953262Y-139679715D01*
X117320285Y-140046738D01*
X117751859Y-140335107D01*
X118231399Y-140533739D01*
X118740475Y-140635000D01*
X119259525Y-140635000D01*
X119768601Y-140533739D01*
X120248141Y-140335107D01*
X120679715Y-140046738D01*
X121046738Y-139679715D01*
X121335107Y-139248141D01*
X121533739Y-138768601D01*
X121635000Y-138259525D01*
X121635000Y-137853740D01*
X122595000Y-137853740D01*
X122595000Y-138146260D01*
X122652068Y-138433158D01*
X122764010Y-138703411D01*
X122926525Y-138946632D01*
X123133368Y-139153475D01*
X123376589Y-139315990D01*
X123646842Y-139427932D01*
X123933740Y-139485000D01*
X124226260Y-139485000D01*
X124513158Y-139427932D01*
X124783411Y-139315990D01*
X125026632Y-139153475D01*
X125233475Y-138946632D01*
X125395990Y-138703411D01*
X125507932Y-138433158D01*
X125565000Y-138146260D01*
X125565000Y-137853740D01*
X125507932Y-137566842D01*
X125395990Y-137296589D01*
X125233475Y-137053368D01*
X125026632Y-136846525D01*
X124783411Y-136684010D01*
X124513158Y-136572068D01*
X124226260Y-136515000D01*
X123933740Y-136515000D01*
X123646842Y-136572068D01*
X123376589Y-136684010D01*
X123133368Y-136846525D01*
X122926525Y-137053368D01*
X122764010Y-137296589D01*
X122652068Y-137566842D01*
X122595000Y-137853740D01*
X121635000Y-137853740D01*
X121635000Y-137740475D01*
X121533739Y-137231399D01*
X121335107Y-136751859D01*
X121046738Y-136320285D01*
X120973853Y-136247400D01*
X132638201Y-136247400D01*
X132652463Y-136281831D01*
X132808261Y-136515000D01*
X132773740Y-136515000D01*
X132486842Y-136572068D01*
X132216589Y-136684010D01*
X131973368Y-136846525D01*
X131766525Y-137053368D01*
X131604010Y-137296589D01*
X131492068Y-137566842D01*
X131435000Y-137853740D01*
X131435000Y-138146260D01*
X131492068Y-138433158D01*
X131604010Y-138703411D01*
X131766525Y-138946632D01*
X131973368Y-139153475D01*
X132216589Y-139315990D01*
X132486842Y-139427932D01*
X132773740Y-139485000D01*
X133066260Y-139485000D01*
X133353158Y-139427932D01*
X133623411Y-139315990D01*
X133866632Y-139153475D01*
X134073475Y-138946632D01*
X134235990Y-138703411D01*
X134347932Y-138433158D01*
X134405000Y-138146260D01*
X134405000Y-137853740D01*
X134347932Y-137566842D01*
X134235990Y-137296589D01*
X134168110Y-137195000D01*
X134360883Y-137195000D01*
X134696081Y-137128325D01*
X135011831Y-136997537D01*
X135295998Y-136807663D01*
X135537663Y-136565998D01*
X135727537Y-136281831D01*
X135741799Y-136247400D01*
X136026147Y-136247400D01*
X135953262Y-136320285D01*
X135664893Y-136751859D01*
X135466261Y-137231399D01*
X135365000Y-137740475D01*
X135365000Y-138259525D01*
X135466261Y-138768601D01*
X135664893Y-139248141D01*
X135953262Y-139679715D01*
X136320285Y-140046738D01*
X136751859Y-140335107D01*
X137231399Y-140533739D01*
X137740475Y-140635000D01*
X138259525Y-140635000D01*
X138768601Y-140533739D01*
X139248141Y-140335107D01*
X139679715Y-140046738D01*
X140046738Y-139679715D01*
X140335107Y-139248141D01*
X140533739Y-138768601D01*
X140635000Y-138259525D01*
X140635000Y-137853740D01*
X141595000Y-137853740D01*
X141595000Y-138146260D01*
X141652068Y-138433158D01*
X141764010Y-138703411D01*
X141926525Y-138946632D01*
X142133368Y-139153475D01*
X142376589Y-139315990D01*
X142646842Y-139427932D01*
X142933740Y-139485000D01*
X143226260Y-139485000D01*
X143513158Y-139427932D01*
X143783411Y-139315990D01*
X144026632Y-139153475D01*
X144233475Y-138946632D01*
X144395990Y-138703411D01*
X144507932Y-138433158D01*
X144565000Y-138146260D01*
X144565000Y-137853740D01*
X144507932Y-137566842D01*
X144395990Y-137296589D01*
X144233475Y-137053368D01*
X144026632Y-136846525D01*
X143783411Y-136684010D01*
X143513158Y-136572068D01*
X143226260Y-136515000D01*
X142933740Y-136515000D01*
X142646842Y-136572068D01*
X142376589Y-136684010D01*
X142133368Y-136846525D01*
X141926525Y-137053368D01*
X141764010Y-137296589D01*
X141652068Y-137566842D01*
X141595000Y-137853740D01*
X140635000Y-137853740D01*
X140635000Y-137740475D01*
X140533739Y-137231399D01*
X140335107Y-136751859D01*
X140046738Y-136320285D01*
X139973853Y-136247400D01*
X151638201Y-136247400D01*
X151652463Y-136281831D01*
X151808261Y-136515000D01*
X151773740Y-136515000D01*
X151486842Y-136572068D01*
X151216589Y-136684010D01*
X150973368Y-136846525D01*
X150766525Y-137053368D01*
X150604010Y-137296589D01*
X150492068Y-137566842D01*
X150435000Y-137853740D01*
X150435000Y-138146260D01*
X150492068Y-138433158D01*
X150604010Y-138703411D01*
X150766525Y-138946632D01*
X150973368Y-139153475D01*
X151216589Y-139315990D01*
X151486842Y-139427932D01*
X151773740Y-139485000D01*
X152066260Y-139485000D01*
X152353158Y-139427932D01*
X152623411Y-139315990D01*
X152866632Y-139153475D01*
X153073475Y-138946632D01*
X153235990Y-138703411D01*
X153347932Y-138433158D01*
X153405000Y-138146260D01*
X153405000Y-137853740D01*
X153382471Y-137740475D01*
X154365000Y-137740475D01*
X154365000Y-138259525D01*
X154466261Y-138768601D01*
X154664893Y-139248141D01*
X154953262Y-139679715D01*
X155320285Y-140046738D01*
X155751859Y-140335107D01*
X156231399Y-140533739D01*
X156740475Y-140635000D01*
X157259525Y-140635000D01*
X157768601Y-140533739D01*
X158248141Y-140335107D01*
X158679715Y-140046738D01*
X159046738Y-139679715D01*
X159335107Y-139248141D01*
X159533739Y-138768601D01*
X159635000Y-138259525D01*
X159635000Y-137853740D01*
X160595000Y-137853740D01*
X160595000Y-138146260D01*
X160652068Y-138433158D01*
X160764010Y-138703411D01*
X160926525Y-138946632D01*
X161133368Y-139153475D01*
X161376589Y-139315990D01*
X161646842Y-139427932D01*
X161933740Y-139485000D01*
X162226260Y-139485000D01*
X162513158Y-139427932D01*
X162783411Y-139315990D01*
X163026632Y-139153475D01*
X163233475Y-138946632D01*
X163395990Y-138703411D01*
X163507932Y-138433158D01*
X163565000Y-138146260D01*
X163565000Y-137853740D01*
X163507932Y-137566842D01*
X163395990Y-137296589D01*
X163233475Y-137053368D01*
X163026632Y-136846525D01*
X162783411Y-136684010D01*
X162513158Y-136572068D01*
X162226260Y-136515000D01*
X161933740Y-136515000D01*
X161646842Y-136572068D01*
X161376589Y-136684010D01*
X161133368Y-136846525D01*
X160926525Y-137053368D01*
X160764010Y-137296589D01*
X160652068Y-137566842D01*
X160595000Y-137853740D01*
X159635000Y-137853740D01*
X159635000Y-137740475D01*
X159533739Y-137231399D01*
X159335107Y-136751859D01*
X159046738Y-136320285D01*
X158679715Y-135953262D01*
X158248141Y-135664893D01*
X157768601Y-135466261D01*
X157259525Y-135365000D01*
X156740475Y-135365000D01*
X156231399Y-135466261D01*
X155751859Y-135664893D01*
X155320285Y-135953262D01*
X154953262Y-136320285D01*
X154664893Y-136751859D01*
X154466261Y-137231399D01*
X154365000Y-137740475D01*
X153382471Y-137740475D01*
X153347932Y-137566842D01*
X153235990Y-137296589D01*
X153168110Y-137195000D01*
X153360883Y-137195000D01*
X153696081Y-137128325D01*
X154011831Y-136997537D01*
X154295998Y-136807663D01*
X154537663Y-136565998D01*
X154727537Y-136281831D01*
X154858325Y-135966081D01*
X154925000Y-135630883D01*
X154925000Y-135289117D01*
X154858325Y-134953919D01*
X154727537Y-134638169D01*
X154537663Y-134354002D01*
X154295998Y-134112337D01*
X154011831Y-133922463D01*
X153696081Y-133791675D01*
X153360883Y-133725000D01*
X153019117Y-133725000D01*
X152683919Y-133791675D01*
X152368169Y-133922463D01*
X152084002Y-134112337D01*
X151842337Y-134354002D01*
X151652463Y-134638169D01*
X151638201Y-134672600D01*
X135741799Y-134672600D01*
X135727537Y-134638169D01*
X135537663Y-134354002D01*
X135295998Y-134112337D01*
X135011831Y-133922463D01*
X134696081Y-133791675D01*
X134360883Y-133725000D01*
X134019117Y-133725000D01*
X133683919Y-133791675D01*
X133368169Y-133922463D01*
X133084002Y-134112337D01*
X132842337Y-134354002D01*
X132652463Y-134638169D01*
X132638201Y-134672600D01*
X116741799Y-134672600D01*
X116727537Y-134638169D01*
X116537663Y-134354002D01*
X116295998Y-134112337D01*
X116011831Y-133922463D01*
X115696081Y-133791675D01*
X115360883Y-133725000D01*
X115019117Y-133725000D01*
X114683919Y-133791675D01*
X114649488Y-133805937D01*
X113592668Y-132749117D01*
X119805000Y-132749117D01*
X119805000Y-133090883D01*
X119871675Y-133426081D01*
X120002463Y-133741831D01*
X120192337Y-134025998D01*
X120434002Y-134267663D01*
X120718169Y-134457537D01*
X121033919Y-134588325D01*
X121369117Y-134655000D01*
X121710883Y-134655000D01*
X122046081Y-134588325D01*
X122361831Y-134457537D01*
X122645998Y-134267663D01*
X122887663Y-134025998D01*
X123077537Y-133741831D01*
X123208325Y-133426081D01*
X123275000Y-133090883D01*
X123275000Y-132749117D01*
X138805000Y-132749117D01*
X138805000Y-133090883D01*
X138871675Y-133426081D01*
X139002463Y-133741831D01*
X139192337Y-134025998D01*
X139434002Y-134267663D01*
X139718169Y-134457537D01*
X140033919Y-134588325D01*
X140369117Y-134655000D01*
X140710883Y-134655000D01*
X141046081Y-134588325D01*
X141361831Y-134457537D01*
X141645998Y-134267663D01*
X141887663Y-134025998D01*
X142077537Y-133741831D01*
X142208325Y-133426081D01*
X142275000Y-133090883D01*
X142275000Y-132749117D01*
X157805000Y-132749117D01*
X157805000Y-133090883D01*
X157871675Y-133426081D01*
X158002463Y-133741831D01*
X158192337Y-134025998D01*
X158434002Y-134267663D01*
X158718169Y-134457537D01*
X159033919Y-134588325D01*
X159369117Y-134655000D01*
X159710883Y-134655000D01*
X160046081Y-134588325D01*
X160361831Y-134457537D01*
X160645998Y-134267663D01*
X160887663Y-134025998D01*
X161077537Y-133741831D01*
X161208325Y-133426081D01*
X161275000Y-133090883D01*
X161275000Y-132749117D01*
X161208325Y-132413919D01*
X161077537Y-132098169D01*
X160887663Y-131814002D01*
X160645998Y-131572337D01*
X160361831Y-131382463D01*
X160046081Y-131251675D01*
X159710883Y-131185000D01*
X159369117Y-131185000D01*
X159033919Y-131251675D01*
X158718169Y-131382463D01*
X158434002Y-131572337D01*
X158192337Y-131814002D01*
X158002463Y-132098169D01*
X157871675Y-132413919D01*
X157805000Y-132749117D01*
X142275000Y-132749117D01*
X142208325Y-132413919D01*
X142077537Y-132098169D01*
X141887663Y-131814002D01*
X141645998Y-131572337D01*
X141361831Y-131382463D01*
X141046081Y-131251675D01*
X140710883Y-131185000D01*
X140369117Y-131185000D01*
X140033919Y-131251675D01*
X139718169Y-131382463D01*
X139434002Y-131572337D01*
X139192337Y-131814002D01*
X139002463Y-132098169D01*
X138871675Y-132413919D01*
X138805000Y-132749117D01*
X123275000Y-132749117D01*
X123208325Y-132413919D01*
X123077537Y-132098169D01*
X122887663Y-131814002D01*
X122645998Y-131572337D01*
X122361831Y-131382463D01*
X122046081Y-131251675D01*
X121710883Y-131185000D01*
X121369117Y-131185000D01*
X121033919Y-131251675D01*
X120718169Y-131382463D01*
X120434002Y-131572337D01*
X120192337Y-131814002D01*
X120002463Y-132098169D01*
X119871675Y-132413919D01*
X119805000Y-132749117D01*
X113592668Y-132749117D01*
X112496130Y-131652580D01*
X112496121Y-131652569D01*
X111658400Y-130814850D01*
X111658400Y-111925663D01*
X111662208Y-111887000D01*
X111658400Y-111848337D01*
X111658400Y-111848327D01*
X111647006Y-111732643D01*
X111601982Y-111584217D01*
X111593275Y-111567928D01*
X111528866Y-111447427D01*
X111469164Y-111374681D01*
X111430469Y-111327531D01*
X111400429Y-111302878D01*
X110360402Y-110262851D01*
X110388400Y-110122094D01*
X110388400Y-109841906D01*
X110333738Y-109567101D01*
X110226514Y-109308241D01*
X110070850Y-109075273D01*
X109872727Y-108877150D01*
X109639759Y-108721486D01*
X109616858Y-108712000D01*
X109639759Y-108702514D01*
X109872727Y-108546850D01*
X110070850Y-108348727D01*
X110226514Y-108115759D01*
X110333738Y-107856899D01*
X110388400Y-107582094D01*
X110388400Y-107301906D01*
X110333738Y-107027101D01*
X110226514Y-106768241D01*
X110157943Y-106665617D01*
X110740035Y-106083527D01*
X110770070Y-106058878D01*
X110794720Y-106028842D01*
X110794723Y-106028839D01*
X110868467Y-105938982D01*
X110941583Y-105802192D01*
X110986607Y-105653766D01*
X110990237Y-105616907D01*
X110998001Y-105538082D01*
X110998001Y-105538074D01*
X111001809Y-105499409D01*
X110998001Y-105460744D01*
X110998001Y-103665543D01*
X111468492Y-104136034D01*
X111493142Y-104166070D01*
X111523178Y-104190720D01*
X111523180Y-104190722D01*
X111577433Y-104235246D01*
X111613039Y-104264467D01*
X111749828Y-104337583D01*
X111898254Y-104382607D01*
X112013938Y-104394001D01*
X112013947Y-104394001D01*
X112052610Y-104397809D01*
X112091273Y-104394001D01*
X124446736Y-104394001D01*
X124485399Y-104397809D01*
X124524062Y-104394001D01*
X124524072Y-104394001D01*
X124639756Y-104382607D01*
X124788182Y-104337583D01*
X124924971Y-104264467D01*
X125044868Y-104166070D01*
X125069527Y-104136024D01*
X127021434Y-102184118D01*
X127051469Y-102159469D01*
X127096992Y-102104000D01*
X127149865Y-102039573D01*
X127149866Y-102039572D01*
X127222982Y-101902783D01*
X127268006Y-101754357D01*
X127279400Y-101638673D01*
X127279400Y-101638664D01*
X127283208Y-101600001D01*
X127279400Y-101561338D01*
X127279400Y-100402150D01*
X127863600Y-99817951D01*
X127863600Y-99962094D01*
X127918262Y-100236899D01*
X128025486Y-100495759D01*
X128181150Y-100728727D01*
X128379273Y-100926850D01*
X128612241Y-101082514D01*
X128635142Y-101092000D01*
X128612241Y-101101486D01*
X128379273Y-101257150D01*
X128181150Y-101455273D01*
X128025486Y-101688241D01*
X127918262Y-101947101D01*
X127863600Y-102221906D01*
X127863600Y-102502094D01*
X127918262Y-102776899D01*
X128025486Y-103035759D01*
X128181150Y-103268727D01*
X128379273Y-103466850D01*
X128612241Y-103622514D01*
X128635142Y-103632000D01*
X128612241Y-103641486D01*
X128379273Y-103797150D01*
X128181150Y-103995273D01*
X128025486Y-104228241D01*
X127918262Y-104487101D01*
X127863600Y-104761906D01*
X127863600Y-105042094D01*
X127918262Y-105316899D01*
X128025486Y-105575759D01*
X128181150Y-105808727D01*
X128379273Y-106006850D01*
X128612241Y-106162514D01*
X128635142Y-106172000D01*
X128612241Y-106181486D01*
X128379273Y-106337150D01*
X128181150Y-106535273D01*
X128025486Y-106768241D01*
X127918262Y-107027101D01*
X127863600Y-107301906D01*
X127863600Y-107582094D01*
X127918262Y-107856899D01*
X128025486Y-108115759D01*
X128181150Y-108348727D01*
X128379273Y-108546850D01*
X128612241Y-108702514D01*
X128635142Y-108712000D01*
X128612241Y-108721486D01*
X128379273Y-108877150D01*
X128181150Y-109075273D01*
X128025486Y-109308241D01*
X127918262Y-109567101D01*
X127863600Y-109841906D01*
X127863600Y-110122094D01*
X127918262Y-110396899D01*
X128025486Y-110655759D01*
X128181150Y-110888727D01*
X128379273Y-111086850D01*
X128612241Y-111242514D01*
X128635142Y-111252000D01*
X128612241Y-111261486D01*
X128379273Y-111417150D01*
X128181150Y-111615273D01*
X128025486Y-111848241D01*
X127918262Y-112107101D01*
X127863600Y-112381906D01*
X127863600Y-112662094D01*
X127918262Y-112936899D01*
X128025486Y-113195759D01*
X128181150Y-113428727D01*
X128379273Y-113626850D01*
X128612241Y-113782514D01*
X128635142Y-113792000D01*
X128612241Y-113801486D01*
X128379273Y-113957150D01*
X128181150Y-114155273D01*
X128025486Y-114388241D01*
X127918262Y-114647101D01*
X127863600Y-114921906D01*
X127863600Y-115202094D01*
X127918262Y-115476899D01*
X127946305Y-115544600D01*
X122151642Y-115544600D01*
X122361831Y-115457537D01*
X122645998Y-115267663D01*
X122887663Y-115025998D01*
X123077537Y-114741831D01*
X123208325Y-114426081D01*
X123275000Y-114090883D01*
X123275000Y-113749117D01*
X123208325Y-113413919D01*
X123077537Y-113098169D01*
X122887663Y-112814002D01*
X122645998Y-112572337D01*
X122361831Y-112382463D01*
X122046081Y-112251675D01*
X121710883Y-112185000D01*
X121369117Y-112185000D01*
X121033919Y-112251675D01*
X120718169Y-112382463D01*
X120434002Y-112572337D01*
X120192337Y-112814002D01*
X120002463Y-113098169D01*
X119871675Y-113413919D01*
X119805000Y-113749117D01*
X119805000Y-114090883D01*
X119871675Y-114426081D01*
X120002463Y-114741831D01*
X120192337Y-115025998D01*
X120434002Y-115267663D01*
X120718169Y-115457537D01*
X120928358Y-115544600D01*
X117894662Y-115544600D01*
X117855999Y-115540792D01*
X117817336Y-115544600D01*
X117563326Y-115544600D01*
X117447642Y-115555994D01*
X117299216Y-115601018D01*
X117165297Y-115672600D01*
X116741799Y-115672600D01*
X116727537Y-115638169D01*
X116537663Y-115354002D01*
X116295998Y-115112337D01*
X116011831Y-114922463D01*
X115696081Y-114791675D01*
X115360883Y-114725000D01*
X115019117Y-114725000D01*
X114683919Y-114791675D01*
X114368169Y-114922463D01*
X114084002Y-115112337D01*
X113842337Y-115354002D01*
X113652463Y-115638169D01*
X113521675Y-115953919D01*
X113455000Y-116289117D01*
X113455000Y-116630883D01*
X113521675Y-116966081D01*
X113652463Y-117281831D01*
X113808261Y-117515000D01*
X113773740Y-117515000D01*
X113486842Y-117572068D01*
X113216589Y-117684010D01*
X112973368Y-117846525D01*
X112766525Y-118053368D01*
X112604010Y-118296589D01*
X112492068Y-118566842D01*
X112435000Y-118853740D01*
X112435000Y-119146260D01*
X112492068Y-119433158D01*
X112604010Y-119703411D01*
X112766525Y-119946632D01*
X112973368Y-120153475D01*
X113216589Y-120315990D01*
X113486842Y-120427932D01*
X113773740Y-120485000D01*
X114066260Y-120485000D01*
X114353158Y-120427932D01*
X114623411Y-120315990D01*
X114866632Y-120153475D01*
X115073475Y-119946632D01*
X115235990Y-119703411D01*
X115347932Y-119433158D01*
X115405000Y-119146260D01*
X115405000Y-118853740D01*
X115347932Y-118566842D01*
X115235990Y-118296589D01*
X115168110Y-118195000D01*
X115360883Y-118195000D01*
X115696081Y-118128325D01*
X116011831Y-117997537D01*
X116295998Y-117807663D01*
X116537663Y-117565998D01*
X116727537Y-117281831D01*
X116741799Y-117247400D01*
X117026147Y-117247400D01*
X116953262Y-117320285D01*
X116664893Y-117751859D01*
X116466261Y-118231399D01*
X116365000Y-118740475D01*
X116365000Y-119259525D01*
X116466261Y-119768601D01*
X116664893Y-120248141D01*
X116953262Y-120679715D01*
X117320285Y-121046738D01*
X117751859Y-121335107D01*
X118231399Y-121533739D01*
X118740475Y-121635000D01*
X119259525Y-121635000D01*
X119768601Y-121533739D01*
X120248141Y-121335107D01*
X120679715Y-121046738D01*
X121046738Y-120679715D01*
X121335107Y-120248141D01*
X121533739Y-119768601D01*
X121635000Y-119259525D01*
X121635000Y-118853740D01*
X122595000Y-118853740D01*
X122595000Y-119146260D01*
X122652068Y-119433158D01*
X122764010Y-119703411D01*
X122926525Y-119946632D01*
X123133368Y-120153475D01*
X123376589Y-120315990D01*
X123646842Y-120427932D01*
X123933740Y-120485000D01*
X124226260Y-120485000D01*
X124513158Y-120427932D01*
X124783411Y-120315990D01*
X125026632Y-120153475D01*
X125233475Y-119946632D01*
X125395990Y-119703411D01*
X125507932Y-119433158D01*
X125565000Y-119146260D01*
X125565000Y-118853740D01*
X125507932Y-118566842D01*
X125395990Y-118296589D01*
X125233475Y-118053368D01*
X125026632Y-117846525D01*
X124783411Y-117684010D01*
X124513158Y-117572068D01*
X124226260Y-117515000D01*
X123933740Y-117515000D01*
X123646842Y-117572068D01*
X123376589Y-117684010D01*
X123133368Y-117846525D01*
X122926525Y-118053368D01*
X122764010Y-118296589D01*
X122652068Y-118566842D01*
X122595000Y-118853740D01*
X121635000Y-118853740D01*
X121635000Y-118740475D01*
X121533739Y-118231399D01*
X121335107Y-117751859D01*
X121046738Y-117320285D01*
X120845853Y-117119400D01*
X127946305Y-117119400D01*
X127918262Y-117187101D01*
X127863600Y-117461906D01*
X127863600Y-117742094D01*
X127918262Y-118016899D01*
X128025486Y-118275759D01*
X128181150Y-118508727D01*
X128379273Y-118706850D01*
X128612241Y-118862514D01*
X128635142Y-118872000D01*
X128612241Y-118881486D01*
X128379273Y-119037150D01*
X128181150Y-119235273D01*
X128025486Y-119468241D01*
X127918262Y-119727101D01*
X127863600Y-120001906D01*
X127863600Y-120282094D01*
X127918262Y-120556899D01*
X128025486Y-120815759D01*
X128181150Y-121048727D01*
X128379273Y-121246850D01*
X128612241Y-121402514D01*
X128871101Y-121509738D01*
X129145906Y-121564400D01*
X129426094Y-121564400D01*
X129700899Y-121509738D01*
X129959759Y-121402514D01*
X130192727Y-121246850D01*
X130390850Y-121048727D01*
X130546514Y-120815759D01*
X130653738Y-120556899D01*
X130708400Y-120282094D01*
X130708400Y-120001906D01*
X130653738Y-119727101D01*
X130546514Y-119468241D01*
X130390850Y-119235273D01*
X130192727Y-119037150D01*
X129959759Y-118881486D01*
X129936858Y-118872000D01*
X129959759Y-118862514D01*
X130192727Y-118706850D01*
X130390850Y-118508727D01*
X130546514Y-118275759D01*
X130653738Y-118016899D01*
X130708400Y-117742094D01*
X130708400Y-117461906D01*
X130653738Y-117187101D01*
X130625695Y-117119400D01*
X132197664Y-117119400D01*
X132331583Y-117190982D01*
X132480009Y-117236006D01*
X132595693Y-117247400D01*
X132595702Y-117247400D01*
X132634365Y-117251208D01*
X132639566Y-117250696D01*
X132652463Y-117281831D01*
X132808261Y-117515000D01*
X132773740Y-117515000D01*
X132486842Y-117572068D01*
X132216589Y-117684010D01*
X131973368Y-117846525D01*
X131766525Y-118053368D01*
X131604010Y-118296589D01*
X131492068Y-118566842D01*
X131435000Y-118853740D01*
X131435000Y-119146260D01*
X131492068Y-119433158D01*
X131604010Y-119703411D01*
X131766525Y-119946632D01*
X131973368Y-120153475D01*
X132216589Y-120315990D01*
X132486842Y-120427932D01*
X132773740Y-120485000D01*
X133066260Y-120485000D01*
X133353158Y-120427932D01*
X133623411Y-120315990D01*
X133866632Y-120153475D01*
X134073475Y-119946632D01*
X134235990Y-119703411D01*
X134347932Y-119433158D01*
X134405000Y-119146260D01*
X134405000Y-118853740D01*
X134347932Y-118566842D01*
X134235990Y-118296589D01*
X134168110Y-118195000D01*
X134360883Y-118195000D01*
X134696081Y-118128325D01*
X135011831Y-117997537D01*
X135295998Y-117807663D01*
X135537663Y-117565998D01*
X135727537Y-117281831D01*
X135741799Y-117247400D01*
X136026147Y-117247400D01*
X135953262Y-117320285D01*
X135664893Y-117751859D01*
X135466261Y-118231399D01*
X135365000Y-118740475D01*
X135365000Y-119259525D01*
X135466261Y-119768601D01*
X135664893Y-120248141D01*
X135953262Y-120679715D01*
X136320285Y-121046738D01*
X136751859Y-121335107D01*
X137231399Y-121533739D01*
X137740475Y-121635000D01*
X138259525Y-121635000D01*
X138768601Y-121533739D01*
X139248141Y-121335107D01*
X139679715Y-121046738D01*
X140046738Y-120679715D01*
X140335107Y-120248141D01*
X140533739Y-119768601D01*
X140635000Y-119259525D01*
X140635000Y-118853740D01*
X141595000Y-118853740D01*
X141595000Y-119146260D01*
X141652068Y-119433158D01*
X141764010Y-119703411D01*
X141926525Y-119946632D01*
X142133368Y-120153475D01*
X142376589Y-120315990D01*
X142646842Y-120427932D01*
X142933740Y-120485000D01*
X143226260Y-120485000D01*
X143513158Y-120427932D01*
X143783411Y-120315990D01*
X144026632Y-120153475D01*
X144233475Y-119946632D01*
X144395990Y-119703411D01*
X144507932Y-119433158D01*
X144565000Y-119146260D01*
X144565000Y-118853740D01*
X144507932Y-118566842D01*
X144395990Y-118296589D01*
X144233475Y-118053368D01*
X144026632Y-117846525D01*
X143783411Y-117684010D01*
X143513158Y-117572068D01*
X143226260Y-117515000D01*
X142933740Y-117515000D01*
X142646842Y-117572068D01*
X142376589Y-117684010D01*
X142133368Y-117846525D01*
X141926525Y-118053368D01*
X141764010Y-118296589D01*
X141652068Y-118566842D01*
X141595000Y-118853740D01*
X140635000Y-118853740D01*
X140635000Y-118740475D01*
X140533739Y-118231399D01*
X140335107Y-117751859D01*
X140046738Y-117320285D01*
X139973853Y-117247400D01*
X151638201Y-117247400D01*
X151652463Y-117281831D01*
X151808261Y-117515000D01*
X151773740Y-117515000D01*
X151486842Y-117572068D01*
X151216589Y-117684010D01*
X150973368Y-117846525D01*
X150766525Y-118053368D01*
X150604010Y-118296589D01*
X150492068Y-118566842D01*
X150435000Y-118853740D01*
X150435000Y-119146260D01*
X150492068Y-119433158D01*
X150604010Y-119703411D01*
X150766525Y-119946632D01*
X150973368Y-120153475D01*
X151216589Y-120315990D01*
X151486842Y-120427932D01*
X151773740Y-120485000D01*
X152066260Y-120485000D01*
X152353158Y-120427932D01*
X152623411Y-120315990D01*
X152866632Y-120153475D01*
X153073475Y-119946632D01*
X153235990Y-119703411D01*
X153347932Y-119433158D01*
X153405000Y-119146260D01*
X153405000Y-118853740D01*
X153382471Y-118740475D01*
X154365000Y-118740475D01*
X154365000Y-119259525D01*
X154466261Y-119768601D01*
X154664893Y-120248141D01*
X154953262Y-120679715D01*
X155320285Y-121046738D01*
X155751859Y-121335107D01*
X156231399Y-121533739D01*
X156740475Y-121635000D01*
X157259525Y-121635000D01*
X157768601Y-121533739D01*
X158248141Y-121335107D01*
X158679715Y-121046738D01*
X159046738Y-120679715D01*
X159335107Y-120248141D01*
X159533739Y-119768601D01*
X159635000Y-119259525D01*
X159635000Y-118853740D01*
X160595000Y-118853740D01*
X160595000Y-119146260D01*
X160652068Y-119433158D01*
X160764010Y-119703411D01*
X160926525Y-119946632D01*
X161133368Y-120153475D01*
X161376589Y-120315990D01*
X161646842Y-120427932D01*
X161933740Y-120485000D01*
X162226260Y-120485000D01*
X162513158Y-120427932D01*
X162783411Y-120315990D01*
X163026632Y-120153475D01*
X163233475Y-119946632D01*
X163395990Y-119703411D01*
X163507932Y-119433158D01*
X163565000Y-119146260D01*
X163565000Y-118853740D01*
X163507932Y-118566842D01*
X163395990Y-118296589D01*
X163233475Y-118053368D01*
X163026632Y-117846525D01*
X162783411Y-117684010D01*
X162513158Y-117572068D01*
X162226260Y-117515000D01*
X161933740Y-117515000D01*
X161646842Y-117572068D01*
X161376589Y-117684010D01*
X161133368Y-117846525D01*
X160926525Y-118053368D01*
X160764010Y-118296589D01*
X160652068Y-118566842D01*
X160595000Y-118853740D01*
X159635000Y-118853740D01*
X159635000Y-118740475D01*
X159533739Y-118231399D01*
X159335107Y-117751859D01*
X159046738Y-117320285D01*
X158679715Y-116953262D01*
X158248141Y-116664893D01*
X157768601Y-116466261D01*
X157259525Y-116365000D01*
X156740475Y-116365000D01*
X156231399Y-116466261D01*
X155751859Y-116664893D01*
X155320285Y-116953262D01*
X154953262Y-117320285D01*
X154664893Y-117751859D01*
X154466261Y-118231399D01*
X154365000Y-118740475D01*
X153382471Y-118740475D01*
X153347932Y-118566842D01*
X153235990Y-118296589D01*
X153168110Y-118195000D01*
X153360883Y-118195000D01*
X153696081Y-118128325D01*
X154011831Y-117997537D01*
X154295998Y-117807663D01*
X154537663Y-117565998D01*
X154727537Y-117281831D01*
X154858325Y-116966081D01*
X154925000Y-116630883D01*
X154925000Y-116289117D01*
X154858325Y-115953919D01*
X154727537Y-115638169D01*
X154537663Y-115354002D01*
X154295998Y-115112337D01*
X154011831Y-114922463D01*
X153696081Y-114791675D01*
X153360883Y-114725000D01*
X153019117Y-114725000D01*
X152683919Y-114791675D01*
X152368169Y-114922463D01*
X152084002Y-115112337D01*
X151842337Y-115354002D01*
X151652463Y-115638169D01*
X151638201Y-115672600D01*
X135741799Y-115672600D01*
X135727537Y-115638169D01*
X135537663Y-115354002D01*
X135295998Y-115112337D01*
X135011831Y-114922463D01*
X134696081Y-114791675D01*
X134360883Y-114725000D01*
X134019117Y-114725000D01*
X133683919Y-114791675D01*
X133368169Y-114922463D01*
X133084002Y-115112337D01*
X132842337Y-115354002D01*
X132699509Y-115567759D01*
X132660723Y-115555994D01*
X132545039Y-115544600D01*
X132545029Y-115544600D01*
X132506366Y-115540792D01*
X132467703Y-115544600D01*
X130625695Y-115544600D01*
X130653738Y-115476899D01*
X130708400Y-115202094D01*
X130708400Y-114921906D01*
X130653738Y-114647101D01*
X130546514Y-114388241D01*
X130390850Y-114155273D01*
X130192727Y-113957150D01*
X129959759Y-113801486D01*
X129936858Y-113792000D01*
X129959759Y-113782514D01*
X130009741Y-113749117D01*
X138805000Y-113749117D01*
X138805000Y-114090883D01*
X138871675Y-114426081D01*
X139002463Y-114741831D01*
X139192337Y-115025998D01*
X139434002Y-115267663D01*
X139718169Y-115457537D01*
X140033919Y-115588325D01*
X140369117Y-115655000D01*
X140710883Y-115655000D01*
X141046081Y-115588325D01*
X141361831Y-115457537D01*
X141645998Y-115267663D01*
X141887663Y-115025998D01*
X142077537Y-114741831D01*
X142208325Y-114426081D01*
X142275000Y-114090883D01*
X142275000Y-113749117D01*
X157805000Y-113749117D01*
X157805000Y-114090883D01*
X157871675Y-114426081D01*
X158002463Y-114741831D01*
X158192337Y-115025998D01*
X158434002Y-115267663D01*
X158718169Y-115457537D01*
X159033919Y-115588325D01*
X159369117Y-115655000D01*
X159710883Y-115655000D01*
X160046081Y-115588325D01*
X160361831Y-115457537D01*
X160645998Y-115267663D01*
X160887663Y-115025998D01*
X161077537Y-114741831D01*
X161208325Y-114426081D01*
X161275000Y-114090883D01*
X161275000Y-113749117D01*
X161208325Y-113413919D01*
X161077537Y-113098169D01*
X160887663Y-112814002D01*
X160645998Y-112572337D01*
X160361831Y-112382463D01*
X160046081Y-112251675D01*
X159710883Y-112185000D01*
X159369117Y-112185000D01*
X159033919Y-112251675D01*
X158718169Y-112382463D01*
X158434002Y-112572337D01*
X158192337Y-112814002D01*
X158002463Y-113098169D01*
X157871675Y-113413919D01*
X157805000Y-113749117D01*
X142275000Y-113749117D01*
X142208325Y-113413919D01*
X142077537Y-113098169D01*
X141887663Y-112814002D01*
X141645998Y-112572337D01*
X141361831Y-112382463D01*
X141046081Y-112251675D01*
X140710883Y-112185000D01*
X140369117Y-112185000D01*
X140033919Y-112251675D01*
X139718169Y-112382463D01*
X139434002Y-112572337D01*
X139192337Y-112814002D01*
X139002463Y-113098169D01*
X138871675Y-113413919D01*
X138805000Y-113749117D01*
X130009741Y-113749117D01*
X130192727Y-113626850D01*
X130390850Y-113428727D01*
X130546514Y-113195759D01*
X130653738Y-112936899D01*
X130708400Y-112662094D01*
X130708400Y-112381906D01*
X130653738Y-112107101D01*
X130546514Y-111848241D01*
X130390850Y-111615273D01*
X130192727Y-111417150D01*
X129959759Y-111261486D01*
X129936858Y-111252000D01*
X129959759Y-111242514D01*
X130192727Y-111086850D01*
X130390850Y-110888727D01*
X130546514Y-110655759D01*
X130653738Y-110396899D01*
X130708400Y-110122094D01*
X130708400Y-109841906D01*
X130653738Y-109567101D01*
X130546514Y-109308241D01*
X130390850Y-109075273D01*
X130192727Y-108877150D01*
X129959759Y-108721486D01*
X129936858Y-108712000D01*
X129959759Y-108702514D01*
X130192727Y-108546850D01*
X130390850Y-108348727D01*
X130546514Y-108115759D01*
X130653738Y-107856899D01*
X130708400Y-107582094D01*
X130708400Y-107301906D01*
X130653738Y-107027101D01*
X130546514Y-106768241D01*
X130390850Y-106535273D01*
X130192727Y-106337150D01*
X129959759Y-106181486D01*
X129936858Y-106172000D01*
X129959759Y-106162514D01*
X130192727Y-106006850D01*
X130390850Y-105808727D01*
X130546514Y-105575759D01*
X130653738Y-105316899D01*
X130708400Y-105042094D01*
X130708400Y-104761906D01*
X130653738Y-104487101D01*
X130546514Y-104228241D01*
X130390850Y-103995273D01*
X130192727Y-103797150D01*
X129959759Y-103641486D01*
X129936858Y-103632000D01*
X129959759Y-103622514D01*
X130192727Y-103466850D01*
X130390850Y-103268727D01*
X130546514Y-103035759D01*
X130653738Y-102776899D01*
X130708400Y-102502094D01*
X130708400Y-102221906D01*
X130653738Y-101947101D01*
X130546514Y-101688241D01*
X130390850Y-101455273D01*
X130192727Y-101257150D01*
X129959759Y-101101486D01*
X129936858Y-101092000D01*
X129959759Y-101082514D01*
X130192727Y-100926850D01*
X130390850Y-100728727D01*
X130546514Y-100495759D01*
X130653738Y-100236899D01*
X130708400Y-99962094D01*
X130708400Y-99681906D01*
X130653738Y-99407101D01*
X130546514Y-99148241D01*
X130390850Y-98915273D01*
X130192727Y-98717150D01*
X129959759Y-98561486D01*
X129936858Y-98552000D01*
X129959759Y-98542514D01*
X130192727Y-98386850D01*
X130390850Y-98188727D01*
X130546514Y-97955759D01*
X130653738Y-97696899D01*
X130708400Y-97422094D01*
X130708400Y-97141906D01*
X130653738Y-96867101D01*
X130636216Y-96824799D01*
X132441249Y-96824799D01*
X132535937Y-96919487D01*
X132521675Y-96953919D01*
X132455000Y-97289117D01*
X132455000Y-97630883D01*
X132521675Y-97966081D01*
X132652463Y-98281831D01*
X132808261Y-98515000D01*
X132773740Y-98515000D01*
X132486842Y-98572068D01*
X132216589Y-98684010D01*
X131973368Y-98846525D01*
X131766525Y-99053368D01*
X131604010Y-99296589D01*
X131492068Y-99566842D01*
X131435000Y-99853740D01*
X131435000Y-100146260D01*
X131492068Y-100433158D01*
X131604010Y-100703411D01*
X131766525Y-100946632D01*
X131973368Y-101153475D01*
X132216589Y-101315990D01*
X132486842Y-101427932D01*
X132773740Y-101485000D01*
X133066260Y-101485000D01*
X133353158Y-101427932D01*
X133623411Y-101315990D01*
X133866632Y-101153475D01*
X134073475Y-100946632D01*
X134235990Y-100703411D01*
X134347932Y-100433158D01*
X134405000Y-100146260D01*
X134405000Y-99853740D01*
X134347932Y-99566842D01*
X134235990Y-99296589D01*
X134168110Y-99195000D01*
X134360883Y-99195000D01*
X134696081Y-99128325D01*
X135011831Y-98997537D01*
X135295998Y-98807663D01*
X135537663Y-98565998D01*
X135727537Y-98281831D01*
X135741799Y-98247400D01*
X136026147Y-98247400D01*
X135953262Y-98320285D01*
X135664893Y-98751859D01*
X135466261Y-99231399D01*
X135365000Y-99740475D01*
X135365000Y-100259525D01*
X135466261Y-100768601D01*
X135664893Y-101248141D01*
X135953262Y-101679715D01*
X136320285Y-102046738D01*
X136751859Y-102335107D01*
X137231399Y-102533739D01*
X137740475Y-102635000D01*
X138259525Y-102635000D01*
X138768601Y-102533739D01*
X139248141Y-102335107D01*
X139679715Y-102046738D01*
X140046738Y-101679715D01*
X140335107Y-101248141D01*
X140533739Y-100768601D01*
X140635000Y-100259525D01*
X140635000Y-99853740D01*
X141595000Y-99853740D01*
X141595000Y-100146260D01*
X141652068Y-100433158D01*
X141764010Y-100703411D01*
X141926525Y-100946632D01*
X142133368Y-101153475D01*
X142376589Y-101315990D01*
X142646842Y-101427932D01*
X142933740Y-101485000D01*
X143226260Y-101485000D01*
X143513158Y-101427932D01*
X143783411Y-101315990D01*
X144026632Y-101153475D01*
X144233475Y-100946632D01*
X144395990Y-100703411D01*
X144507932Y-100433158D01*
X144565000Y-100146260D01*
X144565000Y-99853740D01*
X144507932Y-99566842D01*
X144395990Y-99296589D01*
X144233475Y-99053368D01*
X144026632Y-98846525D01*
X143783411Y-98684010D01*
X143513158Y-98572068D01*
X143226260Y-98515000D01*
X142933740Y-98515000D01*
X142646842Y-98572068D01*
X142376589Y-98684010D01*
X142133368Y-98846525D01*
X141926525Y-99053368D01*
X141764010Y-99296589D01*
X141652068Y-99566842D01*
X141595000Y-99853740D01*
X140635000Y-99853740D01*
X140635000Y-99740475D01*
X140533739Y-99231399D01*
X140335107Y-98751859D01*
X140046738Y-98320285D01*
X139973853Y-98247400D01*
X151638201Y-98247400D01*
X151652463Y-98281831D01*
X151808261Y-98515000D01*
X151773740Y-98515000D01*
X151486842Y-98572068D01*
X151216589Y-98684010D01*
X150973368Y-98846525D01*
X150766525Y-99053368D01*
X150604010Y-99296589D01*
X150492068Y-99566842D01*
X150435000Y-99853740D01*
X150435000Y-100146260D01*
X150492068Y-100433158D01*
X150604010Y-100703411D01*
X150766525Y-100946632D01*
X150973368Y-101153475D01*
X151216589Y-101315990D01*
X151486842Y-101427932D01*
X151773740Y-101485000D01*
X152066260Y-101485000D01*
X152353158Y-101427932D01*
X152623411Y-101315990D01*
X152866632Y-101153475D01*
X153073475Y-100946632D01*
X153235990Y-100703411D01*
X153347932Y-100433158D01*
X153405000Y-100146260D01*
X153405000Y-99853740D01*
X153382471Y-99740475D01*
X154365000Y-99740475D01*
X154365000Y-100259525D01*
X154466261Y-100768601D01*
X154664893Y-101248141D01*
X154953262Y-101679715D01*
X155320285Y-102046738D01*
X155751859Y-102335107D01*
X156231399Y-102533739D01*
X156740475Y-102635000D01*
X157259525Y-102635000D01*
X157768601Y-102533739D01*
X158248141Y-102335107D01*
X158679715Y-102046738D01*
X159046738Y-101679715D01*
X159335107Y-101248141D01*
X159533739Y-100768601D01*
X159635000Y-100259525D01*
X159635000Y-99853740D01*
X160595000Y-99853740D01*
X160595000Y-100146260D01*
X160652068Y-100433158D01*
X160764010Y-100703411D01*
X160926525Y-100946632D01*
X161133368Y-101153475D01*
X161376589Y-101315990D01*
X161646842Y-101427932D01*
X161933740Y-101485000D01*
X162226260Y-101485000D01*
X162513158Y-101427932D01*
X162783411Y-101315990D01*
X163026632Y-101153475D01*
X163233475Y-100946632D01*
X163395990Y-100703411D01*
X163507932Y-100433158D01*
X163565000Y-100146260D01*
X163565000Y-99853740D01*
X163507932Y-99566842D01*
X163395990Y-99296589D01*
X163233475Y-99053368D01*
X163026632Y-98846525D01*
X162783411Y-98684010D01*
X162513158Y-98572068D01*
X162226260Y-98515000D01*
X161933740Y-98515000D01*
X161646842Y-98572068D01*
X161376589Y-98684010D01*
X161133368Y-98846525D01*
X160926525Y-99053368D01*
X160764010Y-99296589D01*
X160652068Y-99566842D01*
X160595000Y-99853740D01*
X159635000Y-99853740D01*
X159635000Y-99740475D01*
X159533739Y-99231399D01*
X159335107Y-98751859D01*
X159046738Y-98320285D01*
X158679715Y-97953262D01*
X158248141Y-97664893D01*
X157768601Y-97466261D01*
X157259525Y-97365000D01*
X156740475Y-97365000D01*
X156231399Y-97466261D01*
X155751859Y-97664893D01*
X155320285Y-97953262D01*
X154953262Y-98320285D01*
X154664893Y-98751859D01*
X154466261Y-99231399D01*
X154365000Y-99740475D01*
X153382471Y-99740475D01*
X153347932Y-99566842D01*
X153235990Y-99296589D01*
X153168110Y-99195000D01*
X153360883Y-99195000D01*
X153696081Y-99128325D01*
X154011831Y-98997537D01*
X154295998Y-98807663D01*
X154537663Y-98565998D01*
X154727537Y-98281831D01*
X154858325Y-97966081D01*
X154925000Y-97630883D01*
X154925000Y-97289117D01*
X154858325Y-96953919D01*
X154727537Y-96638169D01*
X154537663Y-96354002D01*
X154295998Y-96112337D01*
X154011831Y-95922463D01*
X153696081Y-95791675D01*
X153360883Y-95725000D01*
X153019117Y-95725000D01*
X152683919Y-95791675D01*
X152368169Y-95922463D01*
X152084002Y-96112337D01*
X151842337Y-96354002D01*
X151652463Y-96638169D01*
X151638201Y-96672600D01*
X135741799Y-96672600D01*
X135727537Y-96638169D01*
X135537663Y-96354002D01*
X135295998Y-96112337D01*
X135011831Y-95922463D01*
X134696081Y-95791675D01*
X134360883Y-95725000D01*
X134019117Y-95725000D01*
X133683919Y-95791675D01*
X133649487Y-95805937D01*
X133351526Y-95507976D01*
X133326868Y-95477930D01*
X133206971Y-95379533D01*
X133070182Y-95306417D01*
X132921756Y-95261393D01*
X132806072Y-95249999D01*
X132806062Y-95249999D01*
X132767399Y-95246191D01*
X132728736Y-95249999D01*
X130615174Y-95249999D01*
X130653738Y-95156899D01*
X130708400Y-94882094D01*
X130708400Y-94749117D01*
X138805000Y-94749117D01*
X138805000Y-95090883D01*
X138871675Y-95426081D01*
X139002463Y-95741831D01*
X139192337Y-96025998D01*
X139434002Y-96267663D01*
X139718169Y-96457537D01*
X140033919Y-96588325D01*
X140369117Y-96655000D01*
X140710883Y-96655000D01*
X141046081Y-96588325D01*
X141361831Y-96457537D01*
X141645998Y-96267663D01*
X141887663Y-96025998D01*
X142077537Y-95741831D01*
X142208325Y-95426081D01*
X142275000Y-95090883D01*
X142275000Y-94749117D01*
X157805000Y-94749117D01*
X157805000Y-95090883D01*
X157871675Y-95426081D01*
X158002463Y-95741831D01*
X158192337Y-96025998D01*
X158434002Y-96267663D01*
X158718169Y-96457537D01*
X159033919Y-96588325D01*
X159369117Y-96655000D01*
X159710883Y-96655000D01*
X160046081Y-96588325D01*
X160361831Y-96457537D01*
X160645998Y-96267663D01*
X160887663Y-96025998D01*
X161077537Y-95741831D01*
X161208325Y-95426081D01*
X161275000Y-95090883D01*
X161275000Y-94749117D01*
X161208325Y-94413919D01*
X161077537Y-94098169D01*
X160887663Y-93814002D01*
X160645998Y-93572337D01*
X160361831Y-93382463D01*
X160046081Y-93251675D01*
X159710883Y-93185000D01*
X159369117Y-93185000D01*
X159033919Y-93251675D01*
X158718169Y-93382463D01*
X158434002Y-93572337D01*
X158192337Y-93814002D01*
X158002463Y-94098169D01*
X157871675Y-94413919D01*
X157805000Y-94749117D01*
X142275000Y-94749117D01*
X142208325Y-94413919D01*
X142077537Y-94098169D01*
X141887663Y-93814002D01*
X141645998Y-93572337D01*
X141361831Y-93382463D01*
X141046081Y-93251675D01*
X140710883Y-93185000D01*
X140369117Y-93185000D01*
X140033919Y-93251675D01*
X139718169Y-93382463D01*
X139434002Y-93572337D01*
X139192337Y-93814002D01*
X139002463Y-94098169D01*
X138871675Y-94413919D01*
X138805000Y-94749117D01*
X130708400Y-94749117D01*
X130708400Y-94601906D01*
X130653738Y-94327101D01*
X130546514Y-94068241D01*
X130390850Y-93835273D01*
X130192727Y-93637150D01*
X129959759Y-93481486D01*
X129936858Y-93472000D01*
X129959759Y-93462514D01*
X130192727Y-93306850D01*
X130390850Y-93108727D01*
X130546514Y-92875759D01*
X130653738Y-92616899D01*
X130708400Y-92342094D01*
X130708400Y-92061906D01*
X130653738Y-91787101D01*
X130546514Y-91528241D01*
X130390850Y-91295273D01*
X130192727Y-91097150D01*
X129959759Y-90941486D01*
X129700899Y-90834262D01*
X129426094Y-90779600D01*
X129145906Y-90779600D01*
X128871101Y-90834262D01*
X128612241Y-90941486D01*
X128379273Y-91097150D01*
X128181150Y-91295273D01*
X128025486Y-91528241D01*
X127918262Y-91787101D01*
X127863600Y-92061906D01*
X127863600Y-92342094D01*
X127918262Y-92616899D01*
X128025486Y-92875759D01*
X128181150Y-93108727D01*
X128379273Y-93306850D01*
X128612241Y-93462514D01*
X128635142Y-93472000D01*
X128612241Y-93481486D01*
X128379273Y-93637150D01*
X128181150Y-93835273D01*
X128025486Y-94068241D01*
X127918262Y-94327101D01*
X127863600Y-94601906D01*
X127863600Y-94882094D01*
X127918262Y-95156899D01*
X127956826Y-95249999D01*
X125743266Y-95249999D01*
X125704601Y-95246191D01*
X125665936Y-95249999D01*
X125665928Y-95249999D01*
X125550244Y-95261393D01*
X125401818Y-95306417D01*
X125265029Y-95379533D01*
X125175171Y-95453277D01*
X125175168Y-95453280D01*
X125145132Y-95477930D01*
X125120482Y-95507966D01*
X123955850Y-96672600D01*
X116741799Y-96672600D01*
X116727537Y-96638169D01*
X116537663Y-96354002D01*
X116295998Y-96112337D01*
X116011831Y-95922463D01*
X115696081Y-95791675D01*
X115360883Y-95725000D01*
X115019117Y-95725000D01*
X114683919Y-95791675D01*
X114368169Y-95922463D01*
X114084002Y-96112337D01*
X113842337Y-96354002D01*
X113652463Y-96638169D01*
X113521675Y-96953919D01*
X113455000Y-97289117D01*
X113455000Y-97630883D01*
X113483189Y-97772599D01*
X110302382Y-97772599D01*
X110333738Y-97696899D01*
X110388400Y-97422094D01*
X110388400Y-97141906D01*
X110333738Y-96867101D01*
X110226514Y-96608241D01*
X110070850Y-96375273D01*
X109872727Y-96177150D01*
X109639759Y-96021486D01*
X109616858Y-96012000D01*
X109639759Y-96002514D01*
X109872727Y-95846850D01*
X110070850Y-95648727D01*
X110226514Y-95415759D01*
X110333738Y-95156899D01*
X110388400Y-94882094D01*
X110388400Y-94749117D01*
X119805000Y-94749117D01*
X119805000Y-95090883D01*
X119871675Y-95426081D01*
X120002463Y-95741831D01*
X120192337Y-96025998D01*
X120434002Y-96267663D01*
X120718169Y-96457537D01*
X121033919Y-96588325D01*
X121369117Y-96655000D01*
X121710883Y-96655000D01*
X122046081Y-96588325D01*
X122361831Y-96457537D01*
X122645998Y-96267663D01*
X122887663Y-96025998D01*
X123077537Y-95741831D01*
X123208325Y-95426081D01*
X123275000Y-95090883D01*
X123275000Y-94749117D01*
X123208325Y-94413919D01*
X123077537Y-94098169D01*
X122887663Y-93814002D01*
X122645998Y-93572337D01*
X122361831Y-93382463D01*
X122046081Y-93251675D01*
X121710883Y-93185000D01*
X121369117Y-93185000D01*
X121033919Y-93251675D01*
X120718169Y-93382463D01*
X120434002Y-93572337D01*
X120192337Y-93814002D01*
X120002463Y-94098169D01*
X119871675Y-94413919D01*
X119805000Y-94749117D01*
X110388400Y-94749117D01*
X110388400Y-94601906D01*
X110333738Y-94327101D01*
X110226514Y-94068241D01*
X110070850Y-93835273D01*
X109872727Y-93637150D01*
X109639759Y-93481486D01*
X109616858Y-93472000D01*
X109639759Y-93462514D01*
X109872727Y-93306850D01*
X110070850Y-93108727D01*
X110226514Y-92875759D01*
X110333738Y-92616899D01*
X110388400Y-92342094D01*
X110388400Y-92061906D01*
X110333738Y-91787101D01*
X110226514Y-91528241D01*
X110070850Y-91295273D01*
X109872727Y-91097150D01*
X109639759Y-90941486D01*
X109380899Y-90834262D01*
X109106094Y-90779600D01*
X108825906Y-90779600D01*
X108551101Y-90834262D01*
X108292241Y-90941486D01*
X108059273Y-91097150D01*
X107861150Y-91295273D01*
X107705486Y-91528241D01*
X107598262Y-91787101D01*
X107543600Y-92061906D01*
X107543600Y-92342094D01*
X107598262Y-92616899D01*
X107705486Y-92875759D01*
X107861150Y-93108727D01*
X108059273Y-93306850D01*
X108292241Y-93462514D01*
X108315142Y-93472000D01*
X108292241Y-93481486D01*
X108059273Y-93637150D01*
X107861150Y-93835273D01*
X107705486Y-94068241D01*
X107598262Y-94327101D01*
X107543600Y-94601906D01*
X107543600Y-94882094D01*
X107598262Y-95156899D01*
X107705486Y-95415759D01*
X107861150Y-95648727D01*
X108059273Y-95846850D01*
X108292241Y-96002514D01*
X108315142Y-96012000D01*
X108292241Y-96021486D01*
X108059273Y-96177150D01*
X107861150Y-96375273D01*
X107705486Y-96608241D01*
X107598262Y-96867101D01*
X107543600Y-97141906D01*
X107543600Y-97422094D01*
X107598262Y-97696899D01*
X107629618Y-97772599D01*
X102522809Y-97772599D01*
X101680785Y-96930577D01*
X101656127Y-96900531D01*
X101536230Y-96802134D01*
X101399441Y-96729018D01*
X101251015Y-96683994D01*
X101135331Y-96672600D01*
X101135321Y-96672600D01*
X101096658Y-96668792D01*
X101057995Y-96672600D01*
X97741799Y-96672600D01*
X97727537Y-96638169D01*
X97537663Y-96354002D01*
X97295998Y-96112337D01*
X97011831Y-95922463D01*
X96696081Y-95791675D01*
X96360883Y-95725000D01*
X96019117Y-95725000D01*
X95683919Y-95791675D01*
X95368169Y-95922463D01*
X95084002Y-96112337D01*
X94842337Y-96354002D01*
X94652463Y-96638169D01*
X94521675Y-96953919D01*
X94455000Y-97289117D01*
X94455000Y-97630883D01*
X94521675Y-97966081D01*
X94652463Y-98281831D01*
X94808261Y-98515000D01*
X94773740Y-98515000D01*
X94486842Y-98572068D01*
X94216589Y-98684010D01*
X93973368Y-98846525D01*
X93766525Y-99053368D01*
X93604010Y-99296589D01*
X93542934Y-99444041D01*
X91719400Y-97620508D01*
X91719400Y-95947884D01*
X91723208Y-95909221D01*
X91719400Y-95870558D01*
X91719400Y-95870549D01*
X91708006Y-95754865D01*
X91662982Y-95606439D01*
X91589866Y-95469650D01*
X91568222Y-95443277D01*
X91516121Y-95379791D01*
X91516119Y-95379789D01*
X91491469Y-95349753D01*
X91461434Y-95325104D01*
X90885446Y-94749117D01*
X100805000Y-94749117D01*
X100805000Y-95090883D01*
X100871675Y-95426081D01*
X101002463Y-95741831D01*
X101192337Y-96025998D01*
X101434002Y-96267663D01*
X101718169Y-96457537D01*
X102033919Y-96588325D01*
X102369117Y-96655000D01*
X102710883Y-96655000D01*
X103046081Y-96588325D01*
X103361831Y-96457537D01*
X103645998Y-96267663D01*
X103887663Y-96025998D01*
X104077537Y-95741831D01*
X104208325Y-95426081D01*
X104275000Y-95090883D01*
X104275000Y-94749117D01*
X104208325Y-94413919D01*
X104077537Y-94098169D01*
X103887663Y-93814002D01*
X103645998Y-93572337D01*
X103361831Y-93382463D01*
X103046081Y-93251675D01*
X102710883Y-93185000D01*
X102369117Y-93185000D01*
X102033919Y-93251675D01*
X101718169Y-93382463D01*
X101434002Y-93572337D01*
X101192337Y-93814002D01*
X101002463Y-94098169D01*
X100871675Y-94413919D01*
X100805000Y-94749117D01*
X90885446Y-94749117D01*
X90464090Y-94327762D01*
X90439436Y-94297721D01*
X90319539Y-94199324D01*
X90319535Y-94199322D01*
X90182749Y-94126207D01*
X90034324Y-94081184D01*
X89879967Y-94065981D01*
X89841294Y-94069790D01*
X83781762Y-94069788D01*
X83743099Y-94065980D01*
X83704436Y-94069788D01*
X83704428Y-94069788D01*
X83588744Y-94081182D01*
X83440318Y-94126206D01*
X83440316Y-94126207D01*
X83303526Y-94199323D01*
X83213669Y-94273067D01*
X83213662Y-94273074D01*
X83183632Y-94297719D01*
X83158986Y-94327750D01*
X82049357Y-95437382D01*
X82019322Y-95462031D01*
X81994672Y-95492067D01*
X81994668Y-95492071D01*
X81920924Y-95581929D01*
X81847808Y-95718719D01*
X81829274Y-95779820D01*
X81802785Y-95867143D01*
X81801219Y-95883042D01*
X81787582Y-96021500D01*
X81791391Y-96060173D01*
X81791390Y-98318127D01*
X81787582Y-98356790D01*
X81791390Y-98395453D01*
X81791390Y-98395462D01*
X81802784Y-98511146D01*
X81847808Y-98659572D01*
X81920924Y-98796361D01*
X82019321Y-98916259D01*
X82049367Y-98940917D01*
X82397928Y-99289479D01*
X82397928Y-99564000D01*
X82400336Y-99588450D01*
X82400336Y-99613009D01*
X82412596Y-99737490D01*
X82431718Y-99833623D01*
X82468027Y-99953319D01*
X82505536Y-100043875D01*
X82564502Y-100154192D01*
X82618958Y-100235691D01*
X82698310Y-100332382D01*
X82767618Y-100401690D01*
X82864309Y-100481042D01*
X82945808Y-100535498D01*
X83036548Y-100584000D01*
X82945808Y-100632502D01*
X82864309Y-100686958D01*
X82767618Y-100766310D01*
X82698310Y-100835618D01*
X82618958Y-100932309D01*
X82564502Y-101013808D01*
X82536284Y-101066600D01*
X82464311Y-101066600D01*
X82447774Y-101050063D01*
X82278256Y-100936795D01*
X82089898Y-100858774D01*
X81889939Y-100819000D01*
X81686061Y-100819000D01*
X81486102Y-100858774D01*
X81297744Y-100936795D01*
X81128226Y-101050063D01*
X80984063Y-101194226D01*
X80870795Y-101363744D01*
X80792774Y-101552102D01*
X80753000Y-101752061D01*
X80753000Y-101955939D01*
X80792774Y-102155898D01*
X80870795Y-102344256D01*
X80984063Y-102513774D01*
X81128226Y-102657937D01*
X81297744Y-102771205D01*
X81486102Y-102849226D01*
X81686061Y-102889000D01*
X81889939Y-102889000D01*
X82089898Y-102849226D01*
X82278256Y-102771205D01*
X82447774Y-102657937D01*
X82464311Y-102641400D01*
X82536284Y-102641400D01*
X82564502Y-102694192D01*
X82618958Y-102775691D01*
X82698310Y-102872382D01*
X82767618Y-102941690D01*
X82864309Y-103021042D01*
X82945808Y-103075498D01*
X83036548Y-103124000D01*
X82945808Y-103172502D01*
X82864309Y-103226958D01*
X82767618Y-103306310D01*
X82698310Y-103375618D01*
X82618958Y-103472309D01*
X82564502Y-103553808D01*
X82505536Y-103664125D01*
X82468027Y-103754681D01*
X82431718Y-103874377D01*
X82412596Y-103970510D01*
X82400336Y-104094991D01*
X82400336Y-104119550D01*
X82397928Y-104144000D01*
X82397928Y-104418520D01*
X79791766Y-107024684D01*
X79761719Y-107049343D01*
X79663322Y-107169241D01*
X79590206Y-107306030D01*
X79545182Y-107454456D01*
X79533788Y-107570140D01*
X79533788Y-107570149D01*
X79529980Y-107608812D01*
X63660000Y-107608812D01*
X63660000Y-93032279D01*
X63707670Y-92546107D01*
X63839489Y-92109502D01*
X64053600Y-91706815D01*
X64341848Y-91353388D01*
X64693261Y-91062673D01*
X65094439Y-90845758D01*
X65530113Y-90710894D01*
X66014344Y-90660000D01*
X163967721Y-90660000D01*
X164453893Y-90707670D01*
X164453893Y-90707670D01*
G37*
X164453893Y-90707670D02*
X164890498Y-90839489D01*
X165293185Y-91053600D01*
X165646612Y-91341848D01*
X165937327Y-91693261D01*
X166154242Y-92094439D01*
X166289106Y-92530113D01*
X166340000Y-93014344D01*
X166340001Y-163967711D01*
X166292330Y-164453894D01*
X166160512Y-164890497D01*
X165946399Y-165293186D01*
X165658150Y-165646613D01*
X165306739Y-165937327D01*
X164905564Y-166154240D01*
X164469886Y-166289106D01*
X163985664Y-166340000D01*
X92967581Y-166340000D01*
X92937937Y-166342920D01*
X92919238Y-166342789D01*
X92910067Y-166343689D01*
X92327777Y-166404890D01*
X92269191Y-166416916D01*
X92210420Y-166428127D01*
X92201598Y-166430790D01*
X91642285Y-166603928D01*
X91587167Y-166627098D01*
X91531678Y-166649516D01*
X91523542Y-166653843D01*
X91118218Y-166873000D01*
X90000000Y-166873000D01*
X89975224Y-166875440D01*
X89951399Y-166882667D01*
X89929443Y-166894403D01*
X89910197Y-166910197D01*
X89894403Y-166929443D01*
X89882667Y-166951399D01*
X89875440Y-166975224D01*
X89873000Y-167000000D01*
X89873000Y-168115528D01*
X89643616Y-168546938D01*
X89620812Y-168602265D01*
X89597256Y-168657225D01*
X89594531Y-168666029D01*
X89425304Y-169226536D01*
X89413682Y-169285231D01*
X89401248Y-169343727D01*
X89400285Y-169352892D01*
X89343150Y-169935595D01*
X89340000Y-169967582D01*
X89340001Y-176967711D01*
X89292330Y-177453894D01*
X89160512Y-177890497D01*
X88946399Y-178293186D01*
X88658150Y-178646613D01*
X88306739Y-178937327D01*
X87905564Y-179154240D01*
X87469886Y-179289106D01*
X86985664Y-179340000D01*
X66032279Y-179340000D01*
X65546106Y-179292330D01*
X65109503Y-179160512D01*
X64706814Y-178946399D01*
X64353387Y-178658150D01*
X64062673Y-178306739D01*
X63845760Y-177905564D01*
X63710894Y-177469886D01*
X63660000Y-176985664D01*
X63660000Y-156853740D01*
X93435000Y-156853740D01*
X93435000Y-157146260D01*
X93492068Y-157433158D01*
X93604010Y-157703411D01*
X93766525Y-157946632D01*
X93973368Y-158153475D01*
X94216589Y-158315990D01*
X94486842Y-158427932D01*
X94773740Y-158485000D01*
X95066260Y-158485000D01*
X95353158Y-158427932D01*
X95623411Y-158315990D01*
X95866632Y-158153475D01*
X96073475Y-157946632D01*
X96235990Y-157703411D01*
X96347932Y-157433158D01*
X96405000Y-157146260D01*
X96405000Y-156853740D01*
X96347932Y-156566842D01*
X96235990Y-156296589D01*
X96168110Y-156195000D01*
X96360883Y-156195000D01*
X96696081Y-156128325D01*
X97011831Y-155997537D01*
X97295998Y-155807663D01*
X97537663Y-155565998D01*
X97727537Y-155281831D01*
X97741799Y-155247400D01*
X98026147Y-155247400D01*
X97953262Y-155320285D01*
X97664893Y-155751859D01*
X97466261Y-156231399D01*
X97365000Y-156740475D01*
X97365000Y-157259525D01*
X97466261Y-157768601D01*
X97664893Y-158248141D01*
X97953262Y-158679715D01*
X98320285Y-159046738D01*
X98751859Y-159335107D01*
X99231399Y-159533739D01*
X99740475Y-159635000D01*
X100259525Y-159635000D01*
X100768601Y-159533739D01*
X101248141Y-159335107D01*
X101679715Y-159046738D01*
X102046738Y-158679715D01*
X102335107Y-158248141D01*
X102533739Y-157768601D01*
X102635000Y-157259525D01*
X102635000Y-156853740D01*
X103595000Y-156853740D01*
X103595000Y-157146260D01*
X103652068Y-157433158D01*
X103764010Y-157703411D01*
X103926525Y-157946632D01*
X104133368Y-158153475D01*
X104376589Y-158315990D01*
X104646842Y-158427932D01*
X104933740Y-158485000D01*
X105226260Y-158485000D01*
X105513158Y-158427932D01*
X105783411Y-158315990D01*
X106026632Y-158153475D01*
X106233475Y-157946632D01*
X106395990Y-157703411D01*
X106507932Y-157433158D01*
X106565000Y-157146260D01*
X106565000Y-156853740D01*
X106507932Y-156566842D01*
X106395990Y-156296589D01*
X106233475Y-156053368D01*
X106026632Y-155846525D01*
X105783411Y-155684010D01*
X105513158Y-155572068D01*
X105226260Y-155515000D01*
X104933740Y-155515000D01*
X104646842Y-155572068D01*
X104376589Y-155684010D01*
X104133368Y-155846525D01*
X103926525Y-156053368D01*
X103764010Y-156296589D01*
X103652068Y-156566842D01*
X103595000Y-156853740D01*
X102635000Y-156853740D01*
X102635000Y-156740475D01*
X102533739Y-156231399D01*
X102335107Y-155751859D01*
X102046738Y-155320285D01*
X101973853Y-155247400D01*
X113638201Y-155247400D01*
X113652463Y-155281831D01*
X113808261Y-155515000D01*
X113773740Y-155515000D01*
X113486842Y-155572068D01*
X113216589Y-155684010D01*
X112973368Y-155846525D01*
X112766525Y-156053368D01*
X112604010Y-156296589D01*
X112492068Y-156566842D01*
X112435000Y-156853740D01*
X112435000Y-157146260D01*
X112492068Y-157433158D01*
X112604010Y-157703411D01*
X112766525Y-157946632D01*
X112973368Y-158153475D01*
X113216589Y-158315990D01*
X113486842Y-158427932D01*
X113773740Y-158485000D01*
X114066260Y-158485000D01*
X114353158Y-158427932D01*
X114623411Y-158315990D01*
X114866632Y-158153475D01*
X115073475Y-157946632D01*
X115235990Y-157703411D01*
X115347932Y-157433158D01*
X115405000Y-157146260D01*
X115405000Y-156853740D01*
X115347932Y-156566842D01*
X115235990Y-156296589D01*
X115168110Y-156195000D01*
X115360883Y-156195000D01*
X115696081Y-156128325D01*
X116011831Y-155997537D01*
X116295998Y-155807663D01*
X116537663Y-155565998D01*
X116727537Y-155281831D01*
X116741799Y-155247400D01*
X117026147Y-155247400D01*
X116953262Y-155320285D01*
X116664893Y-155751859D01*
X116466261Y-156231399D01*
X116365000Y-156740475D01*
X116365000Y-157259525D01*
X116466261Y-157768601D01*
X116664893Y-158248141D01*
X116953262Y-158679715D01*
X117320285Y-159046738D01*
X117751859Y-159335107D01*
X118231399Y-159533739D01*
X118740475Y-159635000D01*
X119259525Y-159635000D01*
X119768601Y-159533739D01*
X120248141Y-159335107D01*
X120679715Y-159046738D01*
X121046738Y-158679715D01*
X121335107Y-158248141D01*
X121533739Y-157768601D01*
X121635000Y-157259525D01*
X121635000Y-156853740D01*
X122595000Y-156853740D01*
X122595000Y-157146260D01*
X122652068Y-157433158D01*
X122764010Y-157703411D01*
X122926525Y-157946632D01*
X123133368Y-158153475D01*
X123376589Y-158315990D01*
X123646842Y-158427932D01*
X123933740Y-158485000D01*
X124226260Y-158485000D01*
X124513158Y-158427932D01*
X124783411Y-158315990D01*
X125026632Y-158153475D01*
X125233475Y-157946632D01*
X125395990Y-157703411D01*
X125507932Y-157433158D01*
X125565000Y-157146260D01*
X125565000Y-156853740D01*
X125507932Y-156566842D01*
X125395990Y-156296589D01*
X125233475Y-156053368D01*
X125026632Y-155846525D01*
X124783411Y-155684010D01*
X124513158Y-155572068D01*
X124226260Y-155515000D01*
X123933740Y-155515000D01*
X123646842Y-155572068D01*
X123376589Y-155684010D01*
X123133368Y-155846525D01*
X122926525Y-156053368D01*
X122764010Y-156296589D01*
X122652068Y-156566842D01*
X122595000Y-156853740D01*
X121635000Y-156853740D01*
X121635000Y-156740475D01*
X121533739Y-156231399D01*
X121335107Y-155751859D01*
X121046738Y-155320285D01*
X120973853Y-155247400D01*
X132638201Y-155247400D01*
X132652463Y-155281831D01*
X132808261Y-155515000D01*
X132773740Y-155515000D01*
X132486842Y-155572068D01*
X132216589Y-155684010D01*
X131973368Y-155846525D01*
X131766525Y-156053368D01*
X131604010Y-156296589D01*
X131492068Y-156566842D01*
X131435000Y-156853740D01*
X131435000Y-157146260D01*
X131492068Y-157433158D01*
X131604010Y-157703411D01*
X131766525Y-157946632D01*
X131973368Y-158153475D01*
X132216589Y-158315990D01*
X132486842Y-158427932D01*
X132773740Y-158485000D01*
X133066260Y-158485000D01*
X133353158Y-158427932D01*
X133623411Y-158315990D01*
X133866632Y-158153475D01*
X134073475Y-157946632D01*
X134235990Y-157703411D01*
X134347932Y-157433158D01*
X134405000Y-157146260D01*
X134405000Y-156853740D01*
X134347932Y-156566842D01*
X134235990Y-156296589D01*
X134168110Y-156195000D01*
X134360883Y-156195000D01*
X134696081Y-156128325D01*
X135011831Y-155997537D01*
X135295998Y-155807663D01*
X135537663Y-155565998D01*
X135727537Y-155281831D01*
X135741799Y-155247400D01*
X136026147Y-155247400D01*
X135953262Y-155320285D01*
X135664893Y-155751859D01*
X135466261Y-156231399D01*
X135365000Y-156740475D01*
X135365000Y-157259525D01*
X135466261Y-157768601D01*
X135664893Y-158248141D01*
X135953262Y-158679715D01*
X136320285Y-159046738D01*
X136751859Y-159335107D01*
X137231399Y-159533739D01*
X137740475Y-159635000D01*
X138259525Y-159635000D01*
X138768601Y-159533739D01*
X139248141Y-159335107D01*
X139679715Y-159046738D01*
X140046738Y-158679715D01*
X140335107Y-158248141D01*
X140533739Y-157768601D01*
X140635000Y-157259525D01*
X140635000Y-156853740D01*
X141595000Y-156853740D01*
X141595000Y-157146260D01*
X141652068Y-157433158D01*
X141764010Y-157703411D01*
X141926525Y-157946632D01*
X142133368Y-158153475D01*
X142376589Y-158315990D01*
X142646842Y-158427932D01*
X142933740Y-158485000D01*
X143226260Y-158485000D01*
X143513158Y-158427932D01*
X143783411Y-158315990D01*
X144026632Y-158153475D01*
X144233475Y-157946632D01*
X144395990Y-157703411D01*
X144507932Y-157433158D01*
X144565000Y-157146260D01*
X144565000Y-156853740D01*
X144507932Y-156566842D01*
X144395990Y-156296589D01*
X144233475Y-156053368D01*
X144026632Y-155846525D01*
X143783411Y-155684010D01*
X143513158Y-155572068D01*
X143226260Y-155515000D01*
X142933740Y-155515000D01*
X142646842Y-155572068D01*
X142376589Y-155684010D01*
X142133368Y-155846525D01*
X141926525Y-156053368D01*
X141764010Y-156296589D01*
X141652068Y-156566842D01*
X141595000Y-156853740D01*
X140635000Y-156853740D01*
X140635000Y-156740475D01*
X140533739Y-156231399D01*
X140335107Y-155751859D01*
X140046738Y-155320285D01*
X139973853Y-155247400D01*
X151638201Y-155247400D01*
X151652463Y-155281831D01*
X151808261Y-155515000D01*
X151773740Y-155515000D01*
X151486842Y-155572068D01*
X151216589Y-155684010D01*
X150973368Y-155846525D01*
X150766525Y-156053368D01*
X150604010Y-156296589D01*
X150492068Y-156566842D01*
X150435000Y-156853740D01*
X150435000Y-157146260D01*
X150492068Y-157433158D01*
X150604010Y-157703411D01*
X150766525Y-157946632D01*
X150973368Y-158153475D01*
X151216589Y-158315990D01*
X151486842Y-158427932D01*
X151773740Y-158485000D01*
X152066260Y-158485000D01*
X152353158Y-158427932D01*
X152623411Y-158315990D01*
X152866632Y-158153475D01*
X153073475Y-157946632D01*
X153235990Y-157703411D01*
X153347932Y-157433158D01*
X153405000Y-157146260D01*
X153405000Y-156853740D01*
X153382471Y-156740475D01*
X154365000Y-156740475D01*
X154365000Y-157259525D01*
X154466261Y-157768601D01*
X154664893Y-158248141D01*
X154953262Y-158679715D01*
X155320285Y-159046738D01*
X155751859Y-159335107D01*
X156231399Y-159533739D01*
X156740475Y-159635000D01*
X157259525Y-159635000D01*
X157768601Y-159533739D01*
X158248141Y-159335107D01*
X158679715Y-159046738D01*
X159046738Y-158679715D01*
X159335107Y-158248141D01*
X159533739Y-157768601D01*
X159635000Y-157259525D01*
X159635000Y-156853740D01*
X160595000Y-156853740D01*
X160595000Y-157146260D01*
X160652068Y-157433158D01*
X160764010Y-157703411D01*
X160926525Y-157946632D01*
X161133368Y-158153475D01*
X161376589Y-158315990D01*
X161646842Y-158427932D01*
X161933740Y-158485000D01*
X162226260Y-158485000D01*
X162513158Y-158427932D01*
X162783411Y-158315990D01*
X163026632Y-158153475D01*
X163233475Y-157946632D01*
X163395990Y-157703411D01*
X163507932Y-157433158D01*
X163565000Y-157146260D01*
X163565000Y-156853740D01*
X163507932Y-156566842D01*
X163395990Y-156296589D01*
X163233475Y-156053368D01*
X163026632Y-155846525D01*
X162783411Y-155684010D01*
X162513158Y-155572068D01*
X162226260Y-155515000D01*
X161933740Y-155515000D01*
X161646842Y-155572068D01*
X161376589Y-155684010D01*
X161133368Y-155846525D01*
X160926525Y-156053368D01*
X160764010Y-156296589D01*
X160652068Y-156566842D01*
X160595000Y-156853740D01*
X159635000Y-156853740D01*
X159635000Y-156740475D01*
X159533739Y-156231399D01*
X159335107Y-155751859D01*
X159046738Y-155320285D01*
X158679715Y-154953262D01*
X158248141Y-154664893D01*
X157768601Y-154466261D01*
X157259525Y-154365000D01*
X156740475Y-154365000D01*
X156231399Y-154466261D01*
X155751859Y-154664893D01*
X155320285Y-154953262D01*
X154953262Y-155320285D01*
X154664893Y-155751859D01*
X154466261Y-156231399D01*
X154365000Y-156740475D01*
X153382471Y-156740475D01*
X153347932Y-156566842D01*
X153235990Y-156296589D01*
X153168110Y-156195000D01*
X153360883Y-156195000D01*
X153696081Y-156128325D01*
X154011831Y-155997537D01*
X154295998Y-155807663D01*
X154537663Y-155565998D01*
X154727537Y-155281831D01*
X154858325Y-154966081D01*
X154925000Y-154630883D01*
X154925000Y-154289117D01*
X154858325Y-153953919D01*
X154727537Y-153638169D01*
X154537663Y-153354002D01*
X154295998Y-153112337D01*
X154011831Y-152922463D01*
X153696081Y-152791675D01*
X153360883Y-152725000D01*
X153019117Y-152725000D01*
X152683919Y-152791675D01*
X152368169Y-152922463D01*
X152084002Y-153112337D01*
X151842337Y-153354002D01*
X151652463Y-153638169D01*
X151638201Y-153672600D01*
X135741799Y-153672600D01*
X135727537Y-153638169D01*
X135537663Y-153354002D01*
X135295998Y-153112337D01*
X135011831Y-152922463D01*
X134696081Y-152791675D01*
X134360883Y-152725000D01*
X134019117Y-152725000D01*
X133683919Y-152791675D01*
X133368169Y-152922463D01*
X133084002Y-153112337D01*
X132842337Y-153354002D01*
X132652463Y-153638169D01*
X132638201Y-153672600D01*
X116741799Y-153672600D01*
X116727537Y-153638169D01*
X116537663Y-153354002D01*
X116295998Y-153112337D01*
X116011831Y-152922463D01*
X115696081Y-152791675D01*
X115360883Y-152725000D01*
X115019117Y-152725000D01*
X114683919Y-152791675D01*
X114368169Y-152922463D01*
X114084002Y-153112337D01*
X113842337Y-153354002D01*
X113652463Y-153638169D01*
X113638201Y-153672600D01*
X97741799Y-153672600D01*
X97727537Y-153638169D01*
X97537663Y-153354002D01*
X97295998Y-153112337D01*
X97011831Y-152922463D01*
X96696081Y-152791675D01*
X96360883Y-152725000D01*
X96019117Y-152725000D01*
X95683919Y-152791675D01*
X95368169Y-152922463D01*
X95084002Y-153112337D01*
X94842337Y-153354002D01*
X94652463Y-153638169D01*
X94521675Y-153953919D01*
X94455000Y-154289117D01*
X94455000Y-154630883D01*
X94521675Y-154966081D01*
X94652463Y-155281831D01*
X94808261Y-155515000D01*
X94773740Y-155515000D01*
X94486842Y-155572068D01*
X94216589Y-155684010D01*
X93973368Y-155846525D01*
X93766525Y-156053368D01*
X93604010Y-156296589D01*
X93492068Y-156566842D01*
X93435000Y-156853740D01*
X63660000Y-156853740D01*
X63660000Y-107608812D01*
X79529980Y-107608812D01*
X79533788Y-107647475D01*
X79533789Y-113402635D01*
X79529980Y-113441308D01*
X79545183Y-113595665D01*
X79590206Y-113744090D01*
X79645034Y-113846664D01*
X79663323Y-113880880D01*
X79761720Y-114000777D01*
X79791761Y-114025431D01*
X82221368Y-116455039D01*
X82246022Y-116485080D01*
X82365919Y-116583477D01*
X82502708Y-116656593D01*
X82651134Y-116701617D01*
X82766818Y-116713011D01*
X82766828Y-116713011D01*
X82805491Y-116716819D01*
X82844154Y-116713011D01*
X90410726Y-116713011D01*
X90449389Y-116716819D01*
X90488052Y-116713011D01*
X90488062Y-116713011D01*
X90603746Y-116701617D01*
X90752172Y-116656593D01*
X90888961Y-116583477D01*
X91008858Y-116485080D01*
X91033517Y-116455033D01*
X100554551Y-106934001D01*
X107636826Y-106934001D01*
X107598262Y-107027101D01*
X107543600Y-107301906D01*
X107543600Y-107582094D01*
X107598262Y-107856899D01*
X107705486Y-108115759D01*
X107861150Y-108348727D01*
X108059273Y-108546850D01*
X108292241Y-108702514D01*
X108315142Y-108712000D01*
X108292241Y-108721486D01*
X108059273Y-108877150D01*
X107861150Y-109075273D01*
X107781418Y-109194600D01*
X99833782Y-109194600D01*
X99795119Y-109190792D01*
X99756456Y-109194600D01*
X99756447Y-109194600D01*
X99640763Y-109205994D01*
X99492337Y-109251018D01*
X99355548Y-109324134D01*
X99329175Y-109345778D01*
X99265689Y-109397879D01*
X99265687Y-109397881D01*
X99235651Y-109422531D01*
X99211001Y-109452567D01*
X93083377Y-115580193D01*
X93053330Y-115604852D01*
X92954933Y-115724750D01*
X92881817Y-115861539D01*
X92836793Y-116009965D01*
X92825399Y-116125649D01*
X92825399Y-116125658D01*
X92821591Y-116164321D01*
X92825399Y-116202984D01*
X92825400Y-132844126D01*
X92821591Y-132882799D01*
X92836794Y-133037156D01*
X92881817Y-133185581D01*
X92881818Y-133185582D01*
X92954934Y-133322371D01*
X93053331Y-133442268D01*
X93083372Y-133466922D01*
X94535937Y-134919488D01*
X94521675Y-134953919D01*
X94455000Y-135289117D01*
X94455000Y-135630883D01*
X94521675Y-135966081D01*
X94652463Y-136281831D01*
X94808261Y-136515000D01*
X94773740Y-136515000D01*
X94486842Y-136572068D01*
X94216589Y-136684010D01*
X93973368Y-136846525D01*
X93766525Y-137053368D01*
X93604010Y-137296589D01*
X93492068Y-137566842D01*
X93435000Y-137853740D01*
X93435000Y-138146260D01*
X93492068Y-138433158D01*
X93604010Y-138703411D01*
X93766525Y-138946632D01*
X93973368Y-139153475D01*
X94216589Y-139315990D01*
X94486842Y-139427932D01*
X94773740Y-139485000D01*
X95066260Y-139485000D01*
X95353158Y-139427932D01*
X95623411Y-139315990D01*
X95866632Y-139153475D01*
X96073475Y-138946632D01*
X96235990Y-138703411D01*
X96347932Y-138433158D01*
X96405000Y-138146260D01*
X96405000Y-137853740D01*
X96382471Y-137740475D01*
X97365000Y-137740475D01*
X97365000Y-138259525D01*
X97466261Y-138768601D01*
X97664893Y-139248141D01*
X97953262Y-139679715D01*
X98320285Y-140046738D01*
X98751859Y-140335107D01*
X99231399Y-140533739D01*
X99740475Y-140635000D01*
X100259525Y-140635000D01*
X100768601Y-140533739D01*
X101248141Y-140335107D01*
X101679715Y-140046738D01*
X101752600Y-139973853D01*
X101752601Y-150368201D01*
X101718169Y-150382463D01*
X101434002Y-150572337D01*
X101192337Y-150814002D01*
X101002463Y-151098169D01*
X100871675Y-151413919D01*
X100805000Y-151749117D01*
X100805000Y-152090883D01*
X100871675Y-152426081D01*
X101002463Y-152741831D01*
X101192337Y-153025998D01*
X101434002Y-153267663D01*
X101718169Y-153457537D01*
X102033919Y-153588325D01*
X102369117Y-153655000D01*
X102710883Y-153655000D01*
X103046081Y-153588325D01*
X103361831Y-153457537D01*
X103645998Y-153267663D01*
X103887663Y-153025998D01*
X104077537Y-152741831D01*
X104208325Y-152426081D01*
X104275000Y-152090883D01*
X104275000Y-151749117D01*
X119805000Y-151749117D01*
X119805000Y-152090883D01*
X119871675Y-152426081D01*
X120002463Y-152741831D01*
X120192337Y-153025998D01*
X120434002Y-153267663D01*
X120718169Y-153457537D01*
X121033919Y-153588325D01*
X121369117Y-153655000D01*
X121710883Y-153655000D01*
X122046081Y-153588325D01*
X122361831Y-153457537D01*
X122645998Y-153267663D01*
X122887663Y-153025998D01*
X123077537Y-152741831D01*
X123208325Y-152426081D01*
X123275000Y-152090883D01*
X123275000Y-151749117D01*
X138805000Y-151749117D01*
X138805000Y-152090883D01*
X138871675Y-152426081D01*
X139002463Y-152741831D01*
X139192337Y-153025998D01*
X139434002Y-153267663D01*
X139718169Y-153457537D01*
X140033919Y-153588325D01*
X140369117Y-153655000D01*
X140710883Y-153655000D01*
X141046081Y-153588325D01*
X141361831Y-153457537D01*
X141645998Y-153267663D01*
X141887663Y-153025998D01*
X142077537Y-152741831D01*
X142208325Y-152426081D01*
X142275000Y-152090883D01*
X142275000Y-151749117D01*
X157805000Y-151749117D01*
X157805000Y-152090883D01*
X157871675Y-152426081D01*
X158002463Y-152741831D01*
X158192337Y-153025998D01*
X158434002Y-153267663D01*
X158718169Y-153457537D01*
X159033919Y-153588325D01*
X159369117Y-153655000D01*
X159710883Y-153655000D01*
X160046081Y-153588325D01*
X160361831Y-153457537D01*
X160645998Y-153267663D01*
X160887663Y-153025998D01*
X161077537Y-152741831D01*
X161208325Y-152426081D01*
X161275000Y-152090883D01*
X161275000Y-151749117D01*
X161208325Y-151413919D01*
X161077537Y-151098169D01*
X160887663Y-150814002D01*
X160645998Y-150572337D01*
X160361831Y-150382463D01*
X160046081Y-150251675D01*
X159710883Y-150185000D01*
X159369117Y-150185000D01*
X159033919Y-150251675D01*
X158718169Y-150382463D01*
X158434002Y-150572337D01*
X158192337Y-150814002D01*
X158002463Y-151098169D01*
X157871675Y-151413919D01*
X157805000Y-151749117D01*
X142275000Y-151749117D01*
X142208325Y-151413919D01*
X142077537Y-151098169D01*
X141887663Y-150814002D01*
X141645998Y-150572337D01*
X141361831Y-150382463D01*
X141046081Y-150251675D01*
X140710883Y-150185000D01*
X140369117Y-150185000D01*
X140033919Y-150251675D01*
X139718169Y-150382463D01*
X139434002Y-150572337D01*
X139192337Y-150814002D01*
X139002463Y-151098169D01*
X138871675Y-151413919D01*
X138805000Y-151749117D01*
X123275000Y-151749117D01*
X123208325Y-151413919D01*
X123077537Y-151098169D01*
X122887663Y-150814002D01*
X122645998Y-150572337D01*
X122361831Y-150382463D01*
X122046081Y-150251675D01*
X121710883Y-150185000D01*
X121369117Y-150185000D01*
X121033919Y-150251675D01*
X120718169Y-150382463D01*
X120434002Y-150572337D01*
X120192337Y-150814002D01*
X120002463Y-151098169D01*
X119871675Y-151413919D01*
X119805000Y-151749117D01*
X104275000Y-151749117D01*
X104208325Y-151413919D01*
X104077537Y-151098169D01*
X103887663Y-150814002D01*
X103645998Y-150572337D01*
X103361831Y-150382463D01*
X103327400Y-150368201D01*
X103327400Y-137853740D01*
X103595000Y-137853740D01*
X103595000Y-138146260D01*
X103652068Y-138433158D01*
X103764010Y-138703411D01*
X103926525Y-138946632D01*
X104133368Y-139153475D01*
X104376589Y-139315990D01*
X104646842Y-139427932D01*
X104933740Y-139485000D01*
X105226260Y-139485000D01*
X105513158Y-139427932D01*
X105783411Y-139315990D01*
X106026632Y-139153475D01*
X106233475Y-138946632D01*
X106395990Y-138703411D01*
X106507932Y-138433158D01*
X106565000Y-138146260D01*
X106565000Y-137853740D01*
X106507932Y-137566842D01*
X106395990Y-137296589D01*
X106233475Y-137053368D01*
X106026632Y-136846525D01*
X105783411Y-136684010D01*
X105513158Y-136572068D01*
X105226260Y-136515000D01*
X104933740Y-136515000D01*
X104646842Y-136572068D01*
X104376589Y-136684010D01*
X104133368Y-136846525D01*
X103926525Y-137053368D01*
X103764010Y-137296589D01*
X103652068Y-137566842D01*
X103595000Y-137853740D01*
X103327400Y-137853740D01*
X103327400Y-134471799D01*
X103361831Y-134457537D01*
X103645998Y-134267663D01*
X103887663Y-134025998D01*
X104077537Y-133741831D01*
X104208325Y-133426081D01*
X104275000Y-133090883D01*
X104275000Y-132749117D01*
X104208325Y-132413919D01*
X104077537Y-132098169D01*
X103887663Y-131814002D01*
X103645998Y-131572337D01*
X103361831Y-131382463D01*
X103046081Y-131251675D01*
X102710883Y-131185000D01*
X102369117Y-131185000D01*
X102033919Y-131251675D01*
X101718169Y-131382463D01*
X101434002Y-131572337D01*
X101192337Y-131814002D01*
X101002463Y-132098169D01*
X100871675Y-132413919D01*
X100805000Y-132749117D01*
X100805000Y-133090883D01*
X100871675Y-133426081D01*
X101002463Y-133741831D01*
X101192337Y-134025998D01*
X101434002Y-134267663D01*
X101718169Y-134457537D01*
X101752600Y-134471799D01*
X101752600Y-136026147D01*
X101679715Y-135953262D01*
X101248141Y-135664893D01*
X100768601Y-135466261D01*
X100259525Y-135365000D01*
X99740475Y-135365000D01*
X99231399Y-135466261D01*
X98751859Y-135664893D01*
X98320285Y-135953262D01*
X97953262Y-136320285D01*
X97664893Y-136751859D01*
X97466261Y-137231399D01*
X97365000Y-137740475D01*
X96382471Y-137740475D01*
X96347932Y-137566842D01*
X96235990Y-137296589D01*
X96168110Y-137195000D01*
X96360883Y-137195000D01*
X96696081Y-137128325D01*
X97011831Y-136997537D01*
X97295998Y-136807663D01*
X97537663Y-136565998D01*
X97727537Y-136281831D01*
X97858325Y-135966081D01*
X97925000Y-135630883D01*
X97925000Y-135289117D01*
X97858325Y-134953919D01*
X97727537Y-134638169D01*
X97537663Y-134354002D01*
X97295998Y-134112337D01*
X97011831Y-133922463D01*
X96696081Y-133791675D01*
X96360883Y-133725000D01*
X96019117Y-133725000D01*
X95683919Y-133791675D01*
X95649488Y-133805937D01*
X94400199Y-132556649D01*
X94400199Y-122753010D01*
X107538483Y-122753010D01*
X107579766Y-123030140D01*
X107674321Y-123293892D01*
X107739612Y-123416043D01*
X107982295Y-123486100D01*
X108786395Y-122682000D01*
X107982295Y-121877900D01*
X107739612Y-121947957D01*
X107619972Y-122201318D01*
X107552059Y-122473151D01*
X107538483Y-122753010D01*
X94400199Y-122753010D01*
X94400199Y-120392043D01*
X94486842Y-120427932D01*
X94773740Y-120485000D01*
X95066260Y-120485000D01*
X95353158Y-120427932D01*
X95623411Y-120315990D01*
X95866632Y-120153475D01*
X96073475Y-119946632D01*
X96235990Y-119703411D01*
X96347932Y-119433158D01*
X96405000Y-119146260D01*
X96405000Y-118853740D01*
X96382471Y-118740475D01*
X97365000Y-118740475D01*
X97365000Y-119259525D01*
X97466261Y-119768601D01*
X97664893Y-120248141D01*
X97953262Y-120679715D01*
X98320285Y-121046738D01*
X98751859Y-121335107D01*
X99231399Y-121533739D01*
X99740475Y-121635000D01*
X100259525Y-121635000D01*
X100768601Y-121533739D01*
X101248141Y-121335107D01*
X101679715Y-121046738D01*
X102046738Y-120679715D01*
X102335107Y-120248141D01*
X102533739Y-119768601D01*
X102635000Y-119259525D01*
X102635000Y-118853740D01*
X103595000Y-118853740D01*
X103595000Y-119146260D01*
X103652068Y-119433158D01*
X103764010Y-119703411D01*
X103926525Y-119946632D01*
X104133368Y-120153475D01*
X104376589Y-120315990D01*
X104646842Y-120427932D01*
X104933740Y-120485000D01*
X105226260Y-120485000D01*
X105513158Y-120427932D01*
X105783411Y-120315990D01*
X106026632Y-120153475D01*
X106233475Y-119946632D01*
X106395990Y-119703411D01*
X106507932Y-119433158D01*
X106565000Y-119146260D01*
X106565000Y-118853740D01*
X106507932Y-118566842D01*
X106395990Y-118296589D01*
X106233475Y-118053368D01*
X106026632Y-117846525D01*
X105783411Y-117684010D01*
X105513158Y-117572068D01*
X105226260Y-117515000D01*
X104933740Y-117515000D01*
X104646842Y-117572068D01*
X104376589Y-117684010D01*
X104133368Y-117846525D01*
X103926525Y-118053368D01*
X103764010Y-118296589D01*
X103652068Y-118566842D01*
X103595000Y-118853740D01*
X102635000Y-118853740D01*
X102635000Y-118740475D01*
X102533739Y-118231399D01*
X102335107Y-117751859D01*
X102046738Y-117320285D01*
X101679715Y-116953262D01*
X101248141Y-116664893D01*
X100768601Y-116466261D01*
X100259525Y-116365000D01*
X99740475Y-116365000D01*
X99231399Y-116466261D01*
X98751859Y-116664893D01*
X98320285Y-116953262D01*
X97953262Y-117320285D01*
X97664893Y-117751859D01*
X97466261Y-118231399D01*
X97365000Y-118740475D01*
X96382471Y-118740475D01*
X96347932Y-118566842D01*
X96235990Y-118296589D01*
X96168110Y-118195000D01*
X96360883Y-118195000D01*
X96696081Y-118128325D01*
X97011831Y-117997537D01*
X97295998Y-117807663D01*
X97537663Y-117565998D01*
X97727537Y-117281831D01*
X97858325Y-116966081D01*
X97925000Y-116630883D01*
X97925000Y-116289117D01*
X97858325Y-115953919D01*
X97844063Y-115919487D01*
X101241551Y-112522001D01*
X101509335Y-112522001D01*
X101434002Y-112572337D01*
X101192337Y-112814002D01*
X101002463Y-113098169D01*
X100871675Y-113413919D01*
X100805000Y-113749117D01*
X100805000Y-114090883D01*
X100871675Y-114426081D01*
X101002463Y-114741831D01*
X101192337Y-115025998D01*
X101434002Y-115267663D01*
X101718169Y-115457537D01*
X102033919Y-115588325D01*
X102369117Y-115655000D01*
X102710883Y-115655000D01*
X103046081Y-115588325D01*
X103361831Y-115457537D01*
X103645998Y-115267663D01*
X103887663Y-115025998D01*
X104077537Y-114741831D01*
X104208325Y-114426081D01*
X104275000Y-114090883D01*
X104275000Y-113749117D01*
X104208325Y-113413919D01*
X104077537Y-113098169D01*
X103887663Y-112814002D01*
X103645998Y-112572337D01*
X103570665Y-112522001D01*
X107543600Y-112522001D01*
X107543600Y-112662094D01*
X107598262Y-112936899D01*
X107705486Y-113195759D01*
X107861150Y-113428727D01*
X108059273Y-113626850D01*
X108292241Y-113782514D01*
X108315142Y-113792000D01*
X108292241Y-113801486D01*
X108059273Y-113957150D01*
X107861150Y-114155273D01*
X107705486Y-114388241D01*
X107598262Y-114647101D01*
X107543600Y-114921906D01*
X107543600Y-115202094D01*
X107598262Y-115476899D01*
X107705486Y-115735759D01*
X107861150Y-115968727D01*
X108059273Y-116166850D01*
X108292241Y-116322514D01*
X108315142Y-116332000D01*
X108292241Y-116341486D01*
X108059273Y-116497150D01*
X107861150Y-116695273D01*
X107705486Y-116928241D01*
X107598262Y-117187101D01*
X107543600Y-117461906D01*
X107543600Y-117742094D01*
X107598262Y-118016899D01*
X107705486Y-118275759D01*
X107861150Y-118508727D01*
X108059273Y-118706850D01*
X108292241Y-118862514D01*
X108315142Y-118872000D01*
X108292241Y-118881486D01*
X108059273Y-119037150D01*
X107861150Y-119235273D01*
X107705486Y-119468241D01*
X107598262Y-119727101D01*
X107543600Y-120001906D01*
X107543600Y-120282094D01*
X107598262Y-120556899D01*
X107705486Y-120815759D01*
X107861150Y-121048727D01*
X108059273Y-121246850D01*
X108292241Y-121402514D01*
X108314245Y-121411628D01*
X108231957Y-121455612D01*
X108161900Y-121698295D01*
X108966000Y-122502395D01*
X109770100Y-121698295D01*
X109700043Y-121455612D01*
X109611972Y-121414024D01*
X109639759Y-121402514D01*
X109872727Y-121246850D01*
X110070850Y-121048727D01*
X110083600Y-121029645D01*
X110083601Y-121916553D01*
X109949705Y-121877900D01*
X109145605Y-122682000D01*
X109949705Y-123486100D01*
X110083601Y-123447447D01*
X110083601Y-124334356D01*
X110070850Y-124315273D01*
X109872727Y-124117150D01*
X109639759Y-123961486D01*
X109617755Y-123952372D01*
X109700043Y-123908388D01*
X109770100Y-123665705D01*
X108966000Y-122861605D01*
X108161900Y-123665705D01*
X108231957Y-123908388D01*
X108320028Y-123949976D01*
X108292241Y-123961486D01*
X108059273Y-124117150D01*
X107861150Y-124315273D01*
X107705486Y-124548241D01*
X107598262Y-124807101D01*
X107543600Y-125081906D01*
X107543600Y-125362094D01*
X107598262Y-125636899D01*
X107705486Y-125895759D01*
X107861150Y-126128727D01*
X108059273Y-126326850D01*
X108292241Y-126482514D01*
X108315142Y-126492000D01*
X108292241Y-126501486D01*
X108059273Y-126657150D01*
X107861150Y-126855273D01*
X107705486Y-127088241D01*
X107598262Y-127347101D01*
X107543600Y-127621906D01*
X107543600Y-127902094D01*
X107598262Y-128176899D01*
X107705486Y-128435759D01*
X107861150Y-128668727D01*
X108059273Y-128866850D01*
X108292241Y-129022514D01*
X108315142Y-129032000D01*
X108292241Y-129041486D01*
X108059273Y-129197150D01*
X107861150Y-129395273D01*
X107705486Y-129628241D01*
X107598262Y-129887101D01*
X107543600Y-130161906D01*
X107543600Y-130442094D01*
X107598262Y-130716899D01*
X107705486Y-130975759D01*
X107861150Y-131208727D01*
X108059273Y-131406850D01*
X108292241Y-131562514D01*
X108551101Y-131669738D01*
X108825906Y-131724400D01*
X109106094Y-131724400D01*
X109380899Y-131669738D01*
X109639759Y-131562514D01*
X109872727Y-131406850D01*
X110070850Y-131208727D01*
X110084457Y-131188363D01*
X110094995Y-131295357D01*
X110140018Y-131443782D01*
X110140019Y-131443783D01*
X110213135Y-131580572D01*
X110311532Y-131700469D01*
X110341573Y-131725123D01*
X111382569Y-132766121D01*
X111382580Y-132766130D01*
X113535937Y-134919488D01*
X113521675Y-134953919D01*
X113455000Y-135289117D01*
X113455000Y-135630883D01*
X113521675Y-135966081D01*
X113652463Y-136281831D01*
X113808261Y-136515000D01*
X113773740Y-136515000D01*
X113486842Y-136572068D01*
X113216589Y-136684010D01*
X112973368Y-136846525D01*
X112766525Y-137053368D01*
X112604010Y-137296589D01*
X112492068Y-137566842D01*
X112435000Y-137853740D01*
X112435000Y-138146260D01*
X112492068Y-138433158D01*
X112604010Y-138703411D01*
X112766525Y-138946632D01*
X112973368Y-139153475D01*
X113216589Y-139315990D01*
X113486842Y-139427932D01*
X113773740Y-139485000D01*
X114066260Y-139485000D01*
X114353158Y-139427932D01*
X114623411Y-139315990D01*
X114866632Y-139153475D01*
X115073475Y-138946632D01*
X115235990Y-138703411D01*
X115347932Y-138433158D01*
X115405000Y-138146260D01*
X115405000Y-137853740D01*
X115347932Y-137566842D01*
X115235990Y-137296589D01*
X115168110Y-137195000D01*
X115360883Y-137195000D01*
X115696081Y-137128325D01*
X116011831Y-136997537D01*
X116295998Y-136807663D01*
X116537663Y-136565998D01*
X116727537Y-136281831D01*
X116741799Y-136247400D01*
X117026147Y-136247400D01*
X116953262Y-136320285D01*
X116664893Y-136751859D01*
X116466261Y-137231399D01*
X116365000Y-137740475D01*
X116365000Y-138259525D01*
X116466261Y-138768601D01*
X116664893Y-139248141D01*
X116953262Y-139679715D01*
X117320285Y-140046738D01*
X117751859Y-140335107D01*
X118231399Y-140533739D01*
X118740475Y-140635000D01*
X119259525Y-140635000D01*
X119768601Y-140533739D01*
X120248141Y-140335107D01*
X120679715Y-140046738D01*
X121046738Y-139679715D01*
X121335107Y-139248141D01*
X121533739Y-138768601D01*
X121635000Y-138259525D01*
X121635000Y-137853740D01*
X122595000Y-137853740D01*
X122595000Y-138146260D01*
X122652068Y-138433158D01*
X122764010Y-138703411D01*
X122926525Y-138946632D01*
X123133368Y-139153475D01*
X123376589Y-139315990D01*
X123646842Y-139427932D01*
X123933740Y-139485000D01*
X124226260Y-139485000D01*
X124513158Y-139427932D01*
X124783411Y-139315990D01*
X125026632Y-139153475D01*
X125233475Y-138946632D01*
X125395990Y-138703411D01*
X125507932Y-138433158D01*
X125565000Y-138146260D01*
X125565000Y-137853740D01*
X125507932Y-137566842D01*
X125395990Y-137296589D01*
X125233475Y-137053368D01*
X125026632Y-136846525D01*
X124783411Y-136684010D01*
X124513158Y-136572068D01*
X124226260Y-136515000D01*
X123933740Y-136515000D01*
X123646842Y-136572068D01*
X123376589Y-136684010D01*
X123133368Y-136846525D01*
X122926525Y-137053368D01*
X122764010Y-137296589D01*
X122652068Y-137566842D01*
X122595000Y-137853740D01*
X121635000Y-137853740D01*
X121635000Y-137740475D01*
X121533739Y-137231399D01*
X121335107Y-136751859D01*
X121046738Y-136320285D01*
X120973853Y-136247400D01*
X132638201Y-136247400D01*
X132652463Y-136281831D01*
X132808261Y-136515000D01*
X132773740Y-136515000D01*
X132486842Y-136572068D01*
X132216589Y-136684010D01*
X131973368Y-136846525D01*
X131766525Y-137053368D01*
X131604010Y-137296589D01*
X131492068Y-137566842D01*
X131435000Y-137853740D01*
X131435000Y-138146260D01*
X131492068Y-138433158D01*
X131604010Y-138703411D01*
X131766525Y-138946632D01*
X131973368Y-139153475D01*
X132216589Y-139315990D01*
X132486842Y-139427932D01*
X132773740Y-139485000D01*
X133066260Y-139485000D01*
X133353158Y-139427932D01*
X133623411Y-139315990D01*
X133866632Y-139153475D01*
X134073475Y-138946632D01*
X134235990Y-138703411D01*
X134347932Y-138433158D01*
X134405000Y-138146260D01*
X134405000Y-137853740D01*
X134347932Y-137566842D01*
X134235990Y-137296589D01*
X134168110Y-137195000D01*
X134360883Y-137195000D01*
X134696081Y-137128325D01*
X135011831Y-136997537D01*
X135295998Y-136807663D01*
X135537663Y-136565998D01*
X135727537Y-136281831D01*
X135741799Y-136247400D01*
X136026147Y-136247400D01*
X135953262Y-136320285D01*
X135664893Y-136751859D01*
X135466261Y-137231399D01*
X135365000Y-137740475D01*
X135365000Y-138259525D01*
X135466261Y-138768601D01*
X135664893Y-139248141D01*
X135953262Y-139679715D01*
X136320285Y-140046738D01*
X136751859Y-140335107D01*
X137231399Y-140533739D01*
X137740475Y-140635000D01*
X138259525Y-140635000D01*
X138768601Y-140533739D01*
X139248141Y-140335107D01*
X139679715Y-140046738D01*
X140046738Y-139679715D01*
X140335107Y-139248141D01*
X140533739Y-138768601D01*
X140635000Y-138259525D01*
X140635000Y-137853740D01*
X141595000Y-137853740D01*
X141595000Y-138146260D01*
X141652068Y-138433158D01*
X141764010Y-138703411D01*
X141926525Y-138946632D01*
X142133368Y-139153475D01*
X142376589Y-139315990D01*
X142646842Y-139427932D01*
X142933740Y-139485000D01*
X143226260Y-139485000D01*
X143513158Y-139427932D01*
X143783411Y-139315990D01*
X144026632Y-139153475D01*
X144233475Y-138946632D01*
X144395990Y-138703411D01*
X144507932Y-138433158D01*
X144565000Y-138146260D01*
X144565000Y-137853740D01*
X144507932Y-137566842D01*
X144395990Y-137296589D01*
X144233475Y-137053368D01*
X144026632Y-136846525D01*
X143783411Y-136684010D01*
X143513158Y-136572068D01*
X143226260Y-136515000D01*
X142933740Y-136515000D01*
X142646842Y-136572068D01*
X142376589Y-136684010D01*
X142133368Y-136846525D01*
X141926525Y-137053368D01*
X141764010Y-137296589D01*
X141652068Y-137566842D01*
X141595000Y-137853740D01*
X140635000Y-137853740D01*
X140635000Y-137740475D01*
X140533739Y-137231399D01*
X140335107Y-136751859D01*
X140046738Y-136320285D01*
X139973853Y-136247400D01*
X151638201Y-136247400D01*
X151652463Y-136281831D01*
X151808261Y-136515000D01*
X151773740Y-136515000D01*
X151486842Y-136572068D01*
X151216589Y-136684010D01*
X150973368Y-136846525D01*
X150766525Y-137053368D01*
X150604010Y-137296589D01*
X150492068Y-137566842D01*
X150435000Y-137853740D01*
X150435000Y-138146260D01*
X150492068Y-138433158D01*
X150604010Y-138703411D01*
X150766525Y-138946632D01*
X150973368Y-139153475D01*
X151216589Y-139315990D01*
X151486842Y-139427932D01*
X151773740Y-139485000D01*
X152066260Y-139485000D01*
X152353158Y-139427932D01*
X152623411Y-139315990D01*
X152866632Y-139153475D01*
X153073475Y-138946632D01*
X153235990Y-138703411D01*
X153347932Y-138433158D01*
X153405000Y-138146260D01*
X153405000Y-137853740D01*
X153382471Y-137740475D01*
X154365000Y-137740475D01*
X154365000Y-138259525D01*
X154466261Y-138768601D01*
X154664893Y-139248141D01*
X154953262Y-139679715D01*
X155320285Y-140046738D01*
X155751859Y-140335107D01*
X156231399Y-140533739D01*
X156740475Y-140635000D01*
X157259525Y-140635000D01*
X157768601Y-140533739D01*
X158248141Y-140335107D01*
X158679715Y-140046738D01*
X159046738Y-139679715D01*
X159335107Y-139248141D01*
X159533739Y-138768601D01*
X159635000Y-138259525D01*
X159635000Y-137853740D01*
X160595000Y-137853740D01*
X160595000Y-138146260D01*
X160652068Y-138433158D01*
X160764010Y-138703411D01*
X160926525Y-138946632D01*
X161133368Y-139153475D01*
X161376589Y-139315990D01*
X161646842Y-139427932D01*
X161933740Y-139485000D01*
X162226260Y-139485000D01*
X162513158Y-139427932D01*
X162783411Y-139315990D01*
X163026632Y-139153475D01*
X163233475Y-138946632D01*
X163395990Y-138703411D01*
X163507932Y-138433158D01*
X163565000Y-138146260D01*
X163565000Y-137853740D01*
X163507932Y-137566842D01*
X163395990Y-137296589D01*
X163233475Y-137053368D01*
X163026632Y-136846525D01*
X162783411Y-136684010D01*
X162513158Y-136572068D01*
X162226260Y-136515000D01*
X161933740Y-136515000D01*
X161646842Y-136572068D01*
X161376589Y-136684010D01*
X161133368Y-136846525D01*
X160926525Y-137053368D01*
X160764010Y-137296589D01*
X160652068Y-137566842D01*
X160595000Y-137853740D01*
X159635000Y-137853740D01*
X159635000Y-137740475D01*
X159533739Y-137231399D01*
X159335107Y-136751859D01*
X159046738Y-136320285D01*
X158679715Y-135953262D01*
X158248141Y-135664893D01*
X157768601Y-135466261D01*
X157259525Y-135365000D01*
X156740475Y-135365000D01*
X156231399Y-135466261D01*
X155751859Y-135664893D01*
X155320285Y-135953262D01*
X154953262Y-136320285D01*
X154664893Y-136751859D01*
X154466261Y-137231399D01*
X154365000Y-137740475D01*
X153382471Y-137740475D01*
X153347932Y-137566842D01*
X153235990Y-137296589D01*
X153168110Y-137195000D01*
X153360883Y-137195000D01*
X153696081Y-137128325D01*
X154011831Y-136997537D01*
X154295998Y-136807663D01*
X154537663Y-136565998D01*
X154727537Y-136281831D01*
X154858325Y-135966081D01*
X154925000Y-135630883D01*
X154925000Y-135289117D01*
X154858325Y-134953919D01*
X154727537Y-134638169D01*
X154537663Y-134354002D01*
X154295998Y-134112337D01*
X154011831Y-133922463D01*
X153696081Y-133791675D01*
X153360883Y-133725000D01*
X153019117Y-133725000D01*
X152683919Y-133791675D01*
X152368169Y-133922463D01*
X152084002Y-134112337D01*
X151842337Y-134354002D01*
X151652463Y-134638169D01*
X151638201Y-134672600D01*
X135741799Y-134672600D01*
X135727537Y-134638169D01*
X135537663Y-134354002D01*
X135295998Y-134112337D01*
X135011831Y-133922463D01*
X134696081Y-133791675D01*
X134360883Y-133725000D01*
X134019117Y-133725000D01*
X133683919Y-133791675D01*
X133368169Y-133922463D01*
X133084002Y-134112337D01*
X132842337Y-134354002D01*
X132652463Y-134638169D01*
X132638201Y-134672600D01*
X116741799Y-134672600D01*
X116727537Y-134638169D01*
X116537663Y-134354002D01*
X116295998Y-134112337D01*
X116011831Y-133922463D01*
X115696081Y-133791675D01*
X115360883Y-133725000D01*
X115019117Y-133725000D01*
X114683919Y-133791675D01*
X114649488Y-133805937D01*
X113592668Y-132749117D01*
X119805000Y-132749117D01*
X119805000Y-133090883D01*
X119871675Y-133426081D01*
X120002463Y-133741831D01*
X120192337Y-134025998D01*
X120434002Y-134267663D01*
X120718169Y-134457537D01*
X121033919Y-134588325D01*
X121369117Y-134655000D01*
X121710883Y-134655000D01*
X122046081Y-134588325D01*
X122361831Y-134457537D01*
X122645998Y-134267663D01*
X122887663Y-134025998D01*
X123077537Y-133741831D01*
X123208325Y-133426081D01*
X123275000Y-133090883D01*
X123275000Y-132749117D01*
X138805000Y-132749117D01*
X138805000Y-133090883D01*
X138871675Y-133426081D01*
X139002463Y-133741831D01*
X139192337Y-134025998D01*
X139434002Y-134267663D01*
X139718169Y-134457537D01*
X140033919Y-134588325D01*
X140369117Y-134655000D01*
X140710883Y-134655000D01*
X141046081Y-134588325D01*
X141361831Y-134457537D01*
X141645998Y-134267663D01*
X141887663Y-134025998D01*
X142077537Y-133741831D01*
X142208325Y-133426081D01*
X142275000Y-133090883D01*
X142275000Y-132749117D01*
X157805000Y-132749117D01*
X157805000Y-133090883D01*
X157871675Y-133426081D01*
X158002463Y-133741831D01*
X158192337Y-134025998D01*
X158434002Y-134267663D01*
X158718169Y-134457537D01*
X159033919Y-134588325D01*
X159369117Y-134655000D01*
X159710883Y-134655000D01*
X160046081Y-134588325D01*
X160361831Y-134457537D01*
X160645998Y-134267663D01*
X160887663Y-134025998D01*
X161077537Y-133741831D01*
X161208325Y-133426081D01*
X161275000Y-133090883D01*
X161275000Y-132749117D01*
X161208325Y-132413919D01*
X161077537Y-132098169D01*
X160887663Y-131814002D01*
X160645998Y-131572337D01*
X160361831Y-131382463D01*
X160046081Y-131251675D01*
X159710883Y-131185000D01*
X159369117Y-131185000D01*
X159033919Y-131251675D01*
X158718169Y-131382463D01*
X158434002Y-131572337D01*
X158192337Y-131814002D01*
X158002463Y-132098169D01*
X157871675Y-132413919D01*
X157805000Y-132749117D01*
X142275000Y-132749117D01*
X142208325Y-132413919D01*
X142077537Y-132098169D01*
X141887663Y-131814002D01*
X141645998Y-131572337D01*
X141361831Y-131382463D01*
X141046081Y-131251675D01*
X140710883Y-131185000D01*
X140369117Y-131185000D01*
X140033919Y-131251675D01*
X139718169Y-131382463D01*
X139434002Y-131572337D01*
X139192337Y-131814002D01*
X139002463Y-132098169D01*
X138871675Y-132413919D01*
X138805000Y-132749117D01*
X123275000Y-132749117D01*
X123208325Y-132413919D01*
X123077537Y-132098169D01*
X122887663Y-131814002D01*
X122645998Y-131572337D01*
X122361831Y-131382463D01*
X122046081Y-131251675D01*
X121710883Y-131185000D01*
X121369117Y-131185000D01*
X121033919Y-131251675D01*
X120718169Y-131382463D01*
X120434002Y-131572337D01*
X120192337Y-131814002D01*
X120002463Y-132098169D01*
X119871675Y-132413919D01*
X119805000Y-132749117D01*
X113592668Y-132749117D01*
X112496130Y-131652580D01*
X112496121Y-131652569D01*
X111658400Y-130814850D01*
X111658400Y-111925663D01*
X111662208Y-111887000D01*
X111658400Y-111848337D01*
X111658400Y-111848327D01*
X111647006Y-111732643D01*
X111601982Y-111584217D01*
X111593275Y-111567928D01*
X111528866Y-111447427D01*
X111469164Y-111374681D01*
X111430469Y-111327531D01*
X111400429Y-111302878D01*
X110360402Y-110262851D01*
X110388400Y-110122094D01*
X110388400Y-109841906D01*
X110333738Y-109567101D01*
X110226514Y-109308241D01*
X110070850Y-109075273D01*
X109872727Y-108877150D01*
X109639759Y-108721486D01*
X109616858Y-108712000D01*
X109639759Y-108702514D01*
X109872727Y-108546850D01*
X110070850Y-108348727D01*
X110226514Y-108115759D01*
X110333738Y-107856899D01*
X110388400Y-107582094D01*
X110388400Y-107301906D01*
X110333738Y-107027101D01*
X110226514Y-106768241D01*
X110157943Y-106665617D01*
X110740035Y-106083527D01*
X110770070Y-106058878D01*
X110794720Y-106028842D01*
X110794723Y-106028839D01*
X110868467Y-105938982D01*
X110941583Y-105802192D01*
X110986607Y-105653766D01*
X110990237Y-105616907D01*
X110998001Y-105538082D01*
X110998001Y-105538074D01*
X111001809Y-105499409D01*
X110998001Y-105460744D01*
X110998001Y-103665543D01*
X111468492Y-104136034D01*
X111493142Y-104166070D01*
X111523178Y-104190720D01*
X111523180Y-104190722D01*
X111577433Y-104235246D01*
X111613039Y-104264467D01*
X111749828Y-104337583D01*
X111898254Y-104382607D01*
X112013938Y-104394001D01*
X112013947Y-104394001D01*
X112052610Y-104397809D01*
X112091273Y-104394001D01*
X124446736Y-104394001D01*
X124485399Y-104397809D01*
X124524062Y-104394001D01*
X124524072Y-104394001D01*
X124639756Y-104382607D01*
X124788182Y-104337583D01*
X124924971Y-104264467D01*
X125044868Y-104166070D01*
X125069527Y-104136024D01*
X127021434Y-102184118D01*
X127051469Y-102159469D01*
X127096992Y-102104000D01*
X127149865Y-102039573D01*
X127149866Y-102039572D01*
X127222982Y-101902783D01*
X127268006Y-101754357D01*
X127279400Y-101638673D01*
X127279400Y-101638664D01*
X127283208Y-101600001D01*
X127279400Y-101561338D01*
X127279400Y-100402150D01*
X127863600Y-99817951D01*
X127863600Y-99962094D01*
X127918262Y-100236899D01*
X128025486Y-100495759D01*
X128181150Y-100728727D01*
X128379273Y-100926850D01*
X128612241Y-101082514D01*
X128635142Y-101092000D01*
X128612241Y-101101486D01*
X128379273Y-101257150D01*
X128181150Y-101455273D01*
X128025486Y-101688241D01*
X127918262Y-101947101D01*
X127863600Y-102221906D01*
X127863600Y-102502094D01*
X127918262Y-102776899D01*
X128025486Y-103035759D01*
X128181150Y-103268727D01*
X128379273Y-103466850D01*
X128612241Y-103622514D01*
X128635142Y-103632000D01*
X128612241Y-103641486D01*
X128379273Y-103797150D01*
X128181150Y-103995273D01*
X128025486Y-104228241D01*
X127918262Y-104487101D01*
X127863600Y-104761906D01*
X127863600Y-105042094D01*
X127918262Y-105316899D01*
X128025486Y-105575759D01*
X128181150Y-105808727D01*
X128379273Y-106006850D01*
X128612241Y-106162514D01*
X128635142Y-106172000D01*
X128612241Y-106181486D01*
X128379273Y-106337150D01*
X128181150Y-106535273D01*
X128025486Y-106768241D01*
X127918262Y-107027101D01*
X127863600Y-107301906D01*
X127863600Y-107582094D01*
X127918262Y-107856899D01*
X128025486Y-108115759D01*
X128181150Y-108348727D01*
X128379273Y-108546850D01*
X128612241Y-108702514D01*
X128635142Y-108712000D01*
X128612241Y-108721486D01*
X128379273Y-108877150D01*
X128181150Y-109075273D01*
X128025486Y-109308241D01*
X127918262Y-109567101D01*
X127863600Y-109841906D01*
X127863600Y-110122094D01*
X127918262Y-110396899D01*
X128025486Y-110655759D01*
X128181150Y-110888727D01*
X128379273Y-111086850D01*
X128612241Y-111242514D01*
X128635142Y-111252000D01*
X128612241Y-111261486D01*
X128379273Y-111417150D01*
X128181150Y-111615273D01*
X128025486Y-111848241D01*
X127918262Y-112107101D01*
X127863600Y-112381906D01*
X127863600Y-112662094D01*
X127918262Y-112936899D01*
X128025486Y-113195759D01*
X128181150Y-113428727D01*
X128379273Y-113626850D01*
X128612241Y-113782514D01*
X128635142Y-113792000D01*
X128612241Y-113801486D01*
X128379273Y-113957150D01*
X128181150Y-114155273D01*
X128025486Y-114388241D01*
X127918262Y-114647101D01*
X127863600Y-114921906D01*
X127863600Y-115202094D01*
X127918262Y-115476899D01*
X127946305Y-115544600D01*
X122151642Y-115544600D01*
X122361831Y-115457537D01*
X122645998Y-115267663D01*
X122887663Y-115025998D01*
X123077537Y-114741831D01*
X123208325Y-114426081D01*
X123275000Y-114090883D01*
X123275000Y-113749117D01*
X123208325Y-113413919D01*
X123077537Y-113098169D01*
X122887663Y-112814002D01*
X122645998Y-112572337D01*
X122361831Y-112382463D01*
X122046081Y-112251675D01*
X121710883Y-112185000D01*
X121369117Y-112185000D01*
X121033919Y-112251675D01*
X120718169Y-112382463D01*
X120434002Y-112572337D01*
X120192337Y-112814002D01*
X120002463Y-113098169D01*
X119871675Y-113413919D01*
X119805000Y-113749117D01*
X119805000Y-114090883D01*
X119871675Y-114426081D01*
X120002463Y-114741831D01*
X120192337Y-115025998D01*
X120434002Y-115267663D01*
X120718169Y-115457537D01*
X120928358Y-115544600D01*
X117894662Y-115544600D01*
X117855999Y-115540792D01*
X117817336Y-115544600D01*
X117563326Y-115544600D01*
X117447642Y-115555994D01*
X117299216Y-115601018D01*
X117165297Y-115672600D01*
X116741799Y-115672600D01*
X116727537Y-115638169D01*
X116537663Y-115354002D01*
X116295998Y-115112337D01*
X116011831Y-114922463D01*
X115696081Y-114791675D01*
X115360883Y-114725000D01*
X115019117Y-114725000D01*
X114683919Y-114791675D01*
X114368169Y-114922463D01*
X114084002Y-115112337D01*
X113842337Y-115354002D01*
X113652463Y-115638169D01*
X113521675Y-115953919D01*
X113455000Y-116289117D01*
X113455000Y-116630883D01*
X113521675Y-116966081D01*
X113652463Y-117281831D01*
X113808261Y-117515000D01*
X113773740Y-117515000D01*
X113486842Y-117572068D01*
X113216589Y-117684010D01*
X112973368Y-117846525D01*
X112766525Y-118053368D01*
X112604010Y-118296589D01*
X112492068Y-118566842D01*
X112435000Y-118853740D01*
X112435000Y-119146260D01*
X112492068Y-119433158D01*
X112604010Y-119703411D01*
X112766525Y-119946632D01*
X112973368Y-120153475D01*
X113216589Y-120315990D01*
X113486842Y-120427932D01*
X113773740Y-120485000D01*
X114066260Y-120485000D01*
X114353158Y-120427932D01*
X114623411Y-120315990D01*
X114866632Y-120153475D01*
X115073475Y-119946632D01*
X115235990Y-119703411D01*
X115347932Y-119433158D01*
X115405000Y-119146260D01*
X115405000Y-118853740D01*
X115347932Y-118566842D01*
X115235990Y-118296589D01*
X115168110Y-118195000D01*
X115360883Y-118195000D01*
X115696081Y-118128325D01*
X116011831Y-117997537D01*
X116295998Y-117807663D01*
X116537663Y-117565998D01*
X116727537Y-117281831D01*
X116741799Y-117247400D01*
X117026147Y-117247400D01*
X116953262Y-117320285D01*
X116664893Y-117751859D01*
X116466261Y-118231399D01*
X116365000Y-118740475D01*
X116365000Y-119259525D01*
X116466261Y-119768601D01*
X116664893Y-120248141D01*
X116953262Y-120679715D01*
X117320285Y-121046738D01*
X117751859Y-121335107D01*
X118231399Y-121533739D01*
X118740475Y-121635000D01*
X119259525Y-121635000D01*
X119768601Y-121533739D01*
X120248141Y-121335107D01*
X120679715Y-121046738D01*
X121046738Y-120679715D01*
X121335107Y-120248141D01*
X121533739Y-119768601D01*
X121635000Y-119259525D01*
X121635000Y-118853740D01*
X122595000Y-118853740D01*
X122595000Y-119146260D01*
X122652068Y-119433158D01*
X122764010Y-119703411D01*
X122926525Y-119946632D01*
X123133368Y-120153475D01*
X123376589Y-120315990D01*
X123646842Y-120427932D01*
X123933740Y-120485000D01*
X124226260Y-120485000D01*
X124513158Y-120427932D01*
X124783411Y-120315990D01*
X125026632Y-120153475D01*
X125233475Y-119946632D01*
X125395990Y-119703411D01*
X125507932Y-119433158D01*
X125565000Y-119146260D01*
X125565000Y-118853740D01*
X125507932Y-118566842D01*
X125395990Y-118296589D01*
X125233475Y-118053368D01*
X125026632Y-117846525D01*
X124783411Y-117684010D01*
X124513158Y-117572068D01*
X124226260Y-117515000D01*
X123933740Y-117515000D01*
X123646842Y-117572068D01*
X123376589Y-117684010D01*
X123133368Y-117846525D01*
X122926525Y-118053368D01*
X122764010Y-118296589D01*
X122652068Y-118566842D01*
X122595000Y-118853740D01*
X121635000Y-118853740D01*
X121635000Y-118740475D01*
X121533739Y-118231399D01*
X121335107Y-117751859D01*
X121046738Y-117320285D01*
X120845853Y-117119400D01*
X127946305Y-117119400D01*
X127918262Y-117187101D01*
X127863600Y-117461906D01*
X127863600Y-117742094D01*
X127918262Y-118016899D01*
X128025486Y-118275759D01*
X128181150Y-118508727D01*
X128379273Y-118706850D01*
X128612241Y-118862514D01*
X128635142Y-118872000D01*
X128612241Y-118881486D01*
X128379273Y-119037150D01*
X128181150Y-119235273D01*
X128025486Y-119468241D01*
X127918262Y-119727101D01*
X127863600Y-120001906D01*
X127863600Y-120282094D01*
X127918262Y-120556899D01*
X128025486Y-120815759D01*
X128181150Y-121048727D01*
X128379273Y-121246850D01*
X128612241Y-121402514D01*
X128871101Y-121509738D01*
X129145906Y-121564400D01*
X129426094Y-121564400D01*
X129700899Y-121509738D01*
X129959759Y-121402514D01*
X130192727Y-121246850D01*
X130390850Y-121048727D01*
X130546514Y-120815759D01*
X130653738Y-120556899D01*
X130708400Y-120282094D01*
X130708400Y-120001906D01*
X130653738Y-119727101D01*
X130546514Y-119468241D01*
X130390850Y-119235273D01*
X130192727Y-119037150D01*
X129959759Y-118881486D01*
X129936858Y-118872000D01*
X129959759Y-118862514D01*
X130192727Y-118706850D01*
X130390850Y-118508727D01*
X130546514Y-118275759D01*
X130653738Y-118016899D01*
X130708400Y-117742094D01*
X130708400Y-117461906D01*
X130653738Y-117187101D01*
X130625695Y-117119400D01*
X132197664Y-117119400D01*
X132331583Y-117190982D01*
X132480009Y-117236006D01*
X132595693Y-117247400D01*
X132595702Y-117247400D01*
X132634365Y-117251208D01*
X132639566Y-117250696D01*
X132652463Y-117281831D01*
X132808261Y-117515000D01*
X132773740Y-117515000D01*
X132486842Y-117572068D01*
X132216589Y-117684010D01*
X131973368Y-117846525D01*
X131766525Y-118053368D01*
X131604010Y-118296589D01*
X131492068Y-118566842D01*
X131435000Y-118853740D01*
X131435000Y-119146260D01*
X131492068Y-119433158D01*
X131604010Y-119703411D01*
X131766525Y-119946632D01*
X131973368Y-120153475D01*
X132216589Y-120315990D01*
X132486842Y-120427932D01*
X132773740Y-120485000D01*
X133066260Y-120485000D01*
X133353158Y-120427932D01*
X133623411Y-120315990D01*
X133866632Y-120153475D01*
X134073475Y-119946632D01*
X134235990Y-119703411D01*
X134347932Y-119433158D01*
X134405000Y-119146260D01*
X134405000Y-118853740D01*
X134347932Y-118566842D01*
X134235990Y-118296589D01*
X134168110Y-118195000D01*
X134360883Y-118195000D01*
X134696081Y-118128325D01*
X135011831Y-117997537D01*
X135295998Y-117807663D01*
X135537663Y-117565998D01*
X135727537Y-117281831D01*
X135741799Y-117247400D01*
X136026147Y-117247400D01*
X135953262Y-117320285D01*
X135664893Y-117751859D01*
X135466261Y-118231399D01*
X135365000Y-118740475D01*
X135365000Y-119259525D01*
X135466261Y-119768601D01*
X135664893Y-120248141D01*
X135953262Y-120679715D01*
X136320285Y-121046738D01*
X136751859Y-121335107D01*
X137231399Y-121533739D01*
X137740475Y-121635000D01*
X138259525Y-121635000D01*
X138768601Y-121533739D01*
X139248141Y-121335107D01*
X139679715Y-121046738D01*
X140046738Y-120679715D01*
X140335107Y-120248141D01*
X140533739Y-119768601D01*
X140635000Y-119259525D01*
X140635000Y-118853740D01*
X141595000Y-118853740D01*
X141595000Y-119146260D01*
X141652068Y-119433158D01*
X141764010Y-119703411D01*
X141926525Y-119946632D01*
X142133368Y-120153475D01*
X142376589Y-120315990D01*
X142646842Y-120427932D01*
X142933740Y-120485000D01*
X143226260Y-120485000D01*
X143513158Y-120427932D01*
X143783411Y-120315990D01*
X144026632Y-120153475D01*
X144233475Y-119946632D01*
X144395990Y-119703411D01*
X144507932Y-119433158D01*
X144565000Y-119146260D01*
X144565000Y-118853740D01*
X144507932Y-118566842D01*
X144395990Y-118296589D01*
X144233475Y-118053368D01*
X144026632Y-117846525D01*
X143783411Y-117684010D01*
X143513158Y-117572068D01*
X143226260Y-117515000D01*
X142933740Y-117515000D01*
X142646842Y-117572068D01*
X142376589Y-117684010D01*
X142133368Y-117846525D01*
X141926525Y-118053368D01*
X141764010Y-118296589D01*
X141652068Y-118566842D01*
X141595000Y-118853740D01*
X140635000Y-118853740D01*
X140635000Y-118740475D01*
X140533739Y-118231399D01*
X140335107Y-117751859D01*
X140046738Y-117320285D01*
X139973853Y-117247400D01*
X151638201Y-117247400D01*
X151652463Y-117281831D01*
X151808261Y-117515000D01*
X151773740Y-117515000D01*
X151486842Y-117572068D01*
X151216589Y-117684010D01*
X150973368Y-117846525D01*
X150766525Y-118053368D01*
X150604010Y-118296589D01*
X150492068Y-118566842D01*
X150435000Y-118853740D01*
X150435000Y-119146260D01*
X150492068Y-119433158D01*
X150604010Y-119703411D01*
X150766525Y-119946632D01*
X150973368Y-120153475D01*
X151216589Y-120315990D01*
X151486842Y-120427932D01*
X151773740Y-120485000D01*
X152066260Y-120485000D01*
X152353158Y-120427932D01*
X152623411Y-120315990D01*
X152866632Y-120153475D01*
X153073475Y-119946632D01*
X153235990Y-119703411D01*
X153347932Y-119433158D01*
X153405000Y-119146260D01*
X153405000Y-118853740D01*
X153382471Y-118740475D01*
X154365000Y-118740475D01*
X154365000Y-119259525D01*
X154466261Y-119768601D01*
X154664893Y-120248141D01*
X154953262Y-120679715D01*
X155320285Y-121046738D01*
X155751859Y-121335107D01*
X156231399Y-121533739D01*
X156740475Y-121635000D01*
X157259525Y-121635000D01*
X157768601Y-121533739D01*
X158248141Y-121335107D01*
X158679715Y-121046738D01*
X159046738Y-120679715D01*
X159335107Y-120248141D01*
X159533739Y-119768601D01*
X159635000Y-119259525D01*
X159635000Y-118853740D01*
X160595000Y-118853740D01*
X160595000Y-119146260D01*
X160652068Y-119433158D01*
X160764010Y-119703411D01*
X160926525Y-119946632D01*
X161133368Y-120153475D01*
X161376589Y-120315990D01*
X161646842Y-120427932D01*
X161933740Y-120485000D01*
X162226260Y-120485000D01*
X162513158Y-120427932D01*
X162783411Y-120315990D01*
X163026632Y-120153475D01*
X163233475Y-119946632D01*
X163395990Y-119703411D01*
X163507932Y-119433158D01*
X163565000Y-119146260D01*
X163565000Y-118853740D01*
X163507932Y-118566842D01*
X163395990Y-118296589D01*
X163233475Y-118053368D01*
X163026632Y-117846525D01*
X162783411Y-117684010D01*
X162513158Y-117572068D01*
X162226260Y-117515000D01*
X161933740Y-117515000D01*
X161646842Y-117572068D01*
X161376589Y-117684010D01*
X161133368Y-117846525D01*
X160926525Y-118053368D01*
X160764010Y-118296589D01*
X160652068Y-118566842D01*
X160595000Y-118853740D01*
X159635000Y-118853740D01*
X159635000Y-118740475D01*
X159533739Y-118231399D01*
X159335107Y-117751859D01*
X159046738Y-117320285D01*
X158679715Y-116953262D01*
X158248141Y-116664893D01*
X157768601Y-116466261D01*
X157259525Y-116365000D01*
X156740475Y-116365000D01*
X156231399Y-116466261D01*
X155751859Y-116664893D01*
X155320285Y-116953262D01*
X154953262Y-117320285D01*
X154664893Y-117751859D01*
X154466261Y-118231399D01*
X154365000Y-118740475D01*
X153382471Y-118740475D01*
X153347932Y-118566842D01*
X153235990Y-118296589D01*
X153168110Y-118195000D01*
X153360883Y-118195000D01*
X153696081Y-118128325D01*
X154011831Y-117997537D01*
X154295998Y-117807663D01*
X154537663Y-117565998D01*
X154727537Y-117281831D01*
X154858325Y-116966081D01*
X154925000Y-116630883D01*
X154925000Y-116289117D01*
X154858325Y-115953919D01*
X154727537Y-115638169D01*
X154537663Y-115354002D01*
X154295998Y-115112337D01*
X154011831Y-114922463D01*
X153696081Y-114791675D01*
X153360883Y-114725000D01*
X153019117Y-114725000D01*
X152683919Y-114791675D01*
X152368169Y-114922463D01*
X152084002Y-115112337D01*
X151842337Y-115354002D01*
X151652463Y-115638169D01*
X151638201Y-115672600D01*
X135741799Y-115672600D01*
X135727537Y-115638169D01*
X135537663Y-115354002D01*
X135295998Y-115112337D01*
X135011831Y-114922463D01*
X134696081Y-114791675D01*
X134360883Y-114725000D01*
X134019117Y-114725000D01*
X133683919Y-114791675D01*
X133368169Y-114922463D01*
X133084002Y-115112337D01*
X132842337Y-115354002D01*
X132699509Y-115567759D01*
X132660723Y-115555994D01*
X132545039Y-115544600D01*
X132545029Y-115544600D01*
X132506366Y-115540792D01*
X132467703Y-115544600D01*
X130625695Y-115544600D01*
X130653738Y-115476899D01*
X130708400Y-115202094D01*
X130708400Y-114921906D01*
X130653738Y-114647101D01*
X130546514Y-114388241D01*
X130390850Y-114155273D01*
X130192727Y-113957150D01*
X129959759Y-113801486D01*
X129936858Y-113792000D01*
X129959759Y-113782514D01*
X130009741Y-113749117D01*
X138805000Y-113749117D01*
X138805000Y-114090883D01*
X138871675Y-114426081D01*
X139002463Y-114741831D01*
X139192337Y-115025998D01*
X139434002Y-115267663D01*
X139718169Y-115457537D01*
X140033919Y-115588325D01*
X140369117Y-115655000D01*
X140710883Y-115655000D01*
X141046081Y-115588325D01*
X141361831Y-115457537D01*
X141645998Y-115267663D01*
X141887663Y-115025998D01*
X142077537Y-114741831D01*
X142208325Y-114426081D01*
X142275000Y-114090883D01*
X142275000Y-113749117D01*
X157805000Y-113749117D01*
X157805000Y-114090883D01*
X157871675Y-114426081D01*
X158002463Y-114741831D01*
X158192337Y-115025998D01*
X158434002Y-115267663D01*
X158718169Y-115457537D01*
X159033919Y-115588325D01*
X159369117Y-115655000D01*
X159710883Y-115655000D01*
X160046081Y-115588325D01*
X160361831Y-115457537D01*
X160645998Y-115267663D01*
X160887663Y-115025998D01*
X161077537Y-114741831D01*
X161208325Y-114426081D01*
X161275000Y-114090883D01*
X161275000Y-113749117D01*
X161208325Y-113413919D01*
X161077537Y-113098169D01*
X160887663Y-112814002D01*
X160645998Y-112572337D01*
X160361831Y-112382463D01*
X160046081Y-112251675D01*
X159710883Y-112185000D01*
X159369117Y-112185000D01*
X159033919Y-112251675D01*
X158718169Y-112382463D01*
X158434002Y-112572337D01*
X158192337Y-112814002D01*
X158002463Y-113098169D01*
X157871675Y-113413919D01*
X157805000Y-113749117D01*
X142275000Y-113749117D01*
X142208325Y-113413919D01*
X142077537Y-113098169D01*
X141887663Y-112814002D01*
X141645998Y-112572337D01*
X141361831Y-112382463D01*
X141046081Y-112251675D01*
X140710883Y-112185000D01*
X140369117Y-112185000D01*
X140033919Y-112251675D01*
X139718169Y-112382463D01*
X139434002Y-112572337D01*
X139192337Y-112814002D01*
X139002463Y-113098169D01*
X138871675Y-113413919D01*
X138805000Y-113749117D01*
X130009741Y-113749117D01*
X130192727Y-113626850D01*
X130390850Y-113428727D01*
X130546514Y-113195759D01*
X130653738Y-112936899D01*
X130708400Y-112662094D01*
X130708400Y-112381906D01*
X130653738Y-112107101D01*
X130546514Y-111848241D01*
X130390850Y-111615273D01*
X130192727Y-111417150D01*
X129959759Y-111261486D01*
X129936858Y-111252000D01*
X129959759Y-111242514D01*
X130192727Y-111086850D01*
X130390850Y-110888727D01*
X130546514Y-110655759D01*
X130653738Y-110396899D01*
X130708400Y-110122094D01*
X130708400Y-109841906D01*
X130653738Y-109567101D01*
X130546514Y-109308241D01*
X130390850Y-109075273D01*
X130192727Y-108877150D01*
X129959759Y-108721486D01*
X129936858Y-108712000D01*
X129959759Y-108702514D01*
X130192727Y-108546850D01*
X130390850Y-108348727D01*
X130546514Y-108115759D01*
X130653738Y-107856899D01*
X130708400Y-107582094D01*
X130708400Y-107301906D01*
X130653738Y-107027101D01*
X130546514Y-106768241D01*
X130390850Y-106535273D01*
X130192727Y-106337150D01*
X129959759Y-106181486D01*
X129936858Y-106172000D01*
X129959759Y-106162514D01*
X130192727Y-106006850D01*
X130390850Y-105808727D01*
X130546514Y-105575759D01*
X130653738Y-105316899D01*
X130708400Y-105042094D01*
X130708400Y-104761906D01*
X130653738Y-104487101D01*
X130546514Y-104228241D01*
X130390850Y-103995273D01*
X130192727Y-103797150D01*
X129959759Y-103641486D01*
X129936858Y-103632000D01*
X129959759Y-103622514D01*
X130192727Y-103466850D01*
X130390850Y-103268727D01*
X130546514Y-103035759D01*
X130653738Y-102776899D01*
X130708400Y-102502094D01*
X130708400Y-102221906D01*
X130653738Y-101947101D01*
X130546514Y-101688241D01*
X130390850Y-101455273D01*
X130192727Y-101257150D01*
X129959759Y-101101486D01*
X129936858Y-101092000D01*
X129959759Y-101082514D01*
X130192727Y-100926850D01*
X130390850Y-100728727D01*
X130546514Y-100495759D01*
X130653738Y-100236899D01*
X130708400Y-99962094D01*
X130708400Y-99681906D01*
X130653738Y-99407101D01*
X130546514Y-99148241D01*
X130390850Y-98915273D01*
X130192727Y-98717150D01*
X129959759Y-98561486D01*
X129936858Y-98552000D01*
X129959759Y-98542514D01*
X130192727Y-98386850D01*
X130390850Y-98188727D01*
X130546514Y-97955759D01*
X130653738Y-97696899D01*
X130708400Y-97422094D01*
X130708400Y-97141906D01*
X130653738Y-96867101D01*
X130636216Y-96824799D01*
X132441249Y-96824799D01*
X132535937Y-96919487D01*
X132521675Y-96953919D01*
X132455000Y-97289117D01*
X132455000Y-97630883D01*
X132521675Y-97966081D01*
X132652463Y-98281831D01*
X132808261Y-98515000D01*
X132773740Y-98515000D01*
X132486842Y-98572068D01*
X132216589Y-98684010D01*
X131973368Y-98846525D01*
X131766525Y-99053368D01*
X131604010Y-99296589D01*
X131492068Y-99566842D01*
X131435000Y-99853740D01*
X131435000Y-100146260D01*
X131492068Y-100433158D01*
X131604010Y-100703411D01*
X131766525Y-100946632D01*
X131973368Y-101153475D01*
X132216589Y-101315990D01*
X132486842Y-101427932D01*
X132773740Y-101485000D01*
X133066260Y-101485000D01*
X133353158Y-101427932D01*
X133623411Y-101315990D01*
X133866632Y-101153475D01*
X134073475Y-100946632D01*
X134235990Y-100703411D01*
X134347932Y-100433158D01*
X134405000Y-100146260D01*
X134405000Y-99853740D01*
X134347932Y-99566842D01*
X134235990Y-99296589D01*
X134168110Y-99195000D01*
X134360883Y-99195000D01*
X134696081Y-99128325D01*
X135011831Y-98997537D01*
X135295998Y-98807663D01*
X135537663Y-98565998D01*
X135727537Y-98281831D01*
X135741799Y-98247400D01*
X136026147Y-98247400D01*
X135953262Y-98320285D01*
X135664893Y-98751859D01*
X135466261Y-99231399D01*
X135365000Y-99740475D01*
X135365000Y-100259525D01*
X135466261Y-100768601D01*
X135664893Y-101248141D01*
X135953262Y-101679715D01*
X136320285Y-102046738D01*
X136751859Y-102335107D01*
X137231399Y-102533739D01*
X137740475Y-102635000D01*
X138259525Y-102635000D01*
X138768601Y-102533739D01*
X139248141Y-102335107D01*
X139679715Y-102046738D01*
X140046738Y-101679715D01*
X140335107Y-101248141D01*
X140533739Y-100768601D01*
X140635000Y-100259525D01*
X140635000Y-99853740D01*
X141595000Y-99853740D01*
X141595000Y-100146260D01*
X141652068Y-100433158D01*
X141764010Y-100703411D01*
X141926525Y-100946632D01*
X142133368Y-101153475D01*
X142376589Y-101315990D01*
X142646842Y-101427932D01*
X142933740Y-101485000D01*
X143226260Y-101485000D01*
X143513158Y-101427932D01*
X143783411Y-101315990D01*
X144026632Y-101153475D01*
X144233475Y-100946632D01*
X144395990Y-100703411D01*
X144507932Y-100433158D01*
X144565000Y-100146260D01*
X144565000Y-99853740D01*
X144507932Y-99566842D01*
X144395990Y-99296589D01*
X144233475Y-99053368D01*
X144026632Y-98846525D01*
X143783411Y-98684010D01*
X143513158Y-98572068D01*
X143226260Y-98515000D01*
X142933740Y-98515000D01*
X142646842Y-98572068D01*
X142376589Y-98684010D01*
X142133368Y-98846525D01*
X141926525Y-99053368D01*
X141764010Y-99296589D01*
X141652068Y-99566842D01*
X141595000Y-99853740D01*
X140635000Y-99853740D01*
X140635000Y-99740475D01*
X140533739Y-99231399D01*
X140335107Y-98751859D01*
X140046738Y-98320285D01*
X139973853Y-98247400D01*
X151638201Y-98247400D01*
X151652463Y-98281831D01*
X151808261Y-98515000D01*
X151773740Y-98515000D01*
X151486842Y-98572068D01*
X151216589Y-98684010D01*
X150973368Y-98846525D01*
X150766525Y-99053368D01*
X150604010Y-99296589D01*
X150492068Y-99566842D01*
X150435000Y-99853740D01*
X150435000Y-100146260D01*
X150492068Y-100433158D01*
X150604010Y-100703411D01*
X150766525Y-100946632D01*
X150973368Y-101153475D01*
X151216589Y-101315990D01*
X151486842Y-101427932D01*
X151773740Y-101485000D01*
X152066260Y-101485000D01*
X152353158Y-101427932D01*
X152623411Y-101315990D01*
X152866632Y-101153475D01*
X153073475Y-100946632D01*
X153235990Y-100703411D01*
X153347932Y-100433158D01*
X153405000Y-100146260D01*
X153405000Y-99853740D01*
X153382471Y-99740475D01*
X154365000Y-99740475D01*
X154365000Y-100259525D01*
X154466261Y-100768601D01*
X154664893Y-101248141D01*
X154953262Y-101679715D01*
X155320285Y-102046738D01*
X155751859Y-102335107D01*
X156231399Y-102533739D01*
X156740475Y-102635000D01*
X157259525Y-102635000D01*
X157768601Y-102533739D01*
X158248141Y-102335107D01*
X158679715Y-102046738D01*
X159046738Y-101679715D01*
X159335107Y-101248141D01*
X159533739Y-100768601D01*
X159635000Y-100259525D01*
X159635000Y-99853740D01*
X160595000Y-99853740D01*
X160595000Y-100146260D01*
X160652068Y-100433158D01*
X160764010Y-100703411D01*
X160926525Y-100946632D01*
X161133368Y-101153475D01*
X161376589Y-101315990D01*
X161646842Y-101427932D01*
X161933740Y-101485000D01*
X162226260Y-101485000D01*
X162513158Y-101427932D01*
X162783411Y-101315990D01*
X163026632Y-101153475D01*
X163233475Y-100946632D01*
X163395990Y-100703411D01*
X163507932Y-100433158D01*
X163565000Y-100146260D01*
X163565000Y-99853740D01*
X163507932Y-99566842D01*
X163395990Y-99296589D01*
X163233475Y-99053368D01*
X163026632Y-98846525D01*
X162783411Y-98684010D01*
X162513158Y-98572068D01*
X162226260Y-98515000D01*
X161933740Y-98515000D01*
X161646842Y-98572068D01*
X161376589Y-98684010D01*
X161133368Y-98846525D01*
X160926525Y-99053368D01*
X160764010Y-99296589D01*
X160652068Y-99566842D01*
X160595000Y-99853740D01*
X159635000Y-99853740D01*
X159635000Y-99740475D01*
X159533739Y-99231399D01*
X159335107Y-98751859D01*
X159046738Y-98320285D01*
X158679715Y-97953262D01*
X158248141Y-97664893D01*
X157768601Y-97466261D01*
X157259525Y-97365000D01*
X156740475Y-97365000D01*
X156231399Y-97466261D01*
X155751859Y-97664893D01*
X155320285Y-97953262D01*
X154953262Y-98320285D01*
X154664893Y-98751859D01*
X154466261Y-99231399D01*
X154365000Y-99740475D01*
X153382471Y-99740475D01*
X153347932Y-99566842D01*
X153235990Y-99296589D01*
X153168110Y-99195000D01*
X153360883Y-99195000D01*
X153696081Y-99128325D01*
X154011831Y-98997537D01*
X154295998Y-98807663D01*
X154537663Y-98565998D01*
X154727537Y-98281831D01*
X154858325Y-97966081D01*
X154925000Y-97630883D01*
X154925000Y-97289117D01*
X154858325Y-96953919D01*
X154727537Y-96638169D01*
X154537663Y-96354002D01*
X154295998Y-96112337D01*
X154011831Y-95922463D01*
X153696081Y-95791675D01*
X153360883Y-95725000D01*
X153019117Y-95725000D01*
X152683919Y-95791675D01*
X152368169Y-95922463D01*
X152084002Y-96112337D01*
X151842337Y-96354002D01*
X151652463Y-96638169D01*
X151638201Y-96672600D01*
X135741799Y-96672600D01*
X135727537Y-96638169D01*
X135537663Y-96354002D01*
X135295998Y-96112337D01*
X135011831Y-95922463D01*
X134696081Y-95791675D01*
X134360883Y-95725000D01*
X134019117Y-95725000D01*
X133683919Y-95791675D01*
X133649487Y-95805937D01*
X133351526Y-95507976D01*
X133326868Y-95477930D01*
X133206971Y-95379533D01*
X133070182Y-95306417D01*
X132921756Y-95261393D01*
X132806072Y-95249999D01*
X132806062Y-95249999D01*
X132767399Y-95246191D01*
X132728736Y-95249999D01*
X130615174Y-95249999D01*
X130653738Y-95156899D01*
X130708400Y-94882094D01*
X130708400Y-94749117D01*
X138805000Y-94749117D01*
X138805000Y-95090883D01*
X138871675Y-95426081D01*
X139002463Y-95741831D01*
X139192337Y-96025998D01*
X139434002Y-96267663D01*
X139718169Y-96457537D01*
X140033919Y-96588325D01*
X140369117Y-96655000D01*
X140710883Y-96655000D01*
X141046081Y-96588325D01*
X141361831Y-96457537D01*
X141645998Y-96267663D01*
X141887663Y-96025998D01*
X142077537Y-95741831D01*
X142208325Y-95426081D01*
X142275000Y-95090883D01*
X142275000Y-94749117D01*
X157805000Y-94749117D01*
X157805000Y-95090883D01*
X157871675Y-95426081D01*
X158002463Y-95741831D01*
X158192337Y-96025998D01*
X158434002Y-96267663D01*
X158718169Y-96457537D01*
X159033919Y-96588325D01*
X159369117Y-96655000D01*
X159710883Y-96655000D01*
X160046081Y-96588325D01*
X160361831Y-96457537D01*
X160645998Y-96267663D01*
X160887663Y-96025998D01*
X161077537Y-95741831D01*
X161208325Y-95426081D01*
X161275000Y-95090883D01*
X161275000Y-94749117D01*
X161208325Y-94413919D01*
X161077537Y-94098169D01*
X160887663Y-93814002D01*
X160645998Y-93572337D01*
X160361831Y-93382463D01*
X160046081Y-93251675D01*
X159710883Y-93185000D01*
X159369117Y-93185000D01*
X159033919Y-93251675D01*
X158718169Y-93382463D01*
X158434002Y-93572337D01*
X158192337Y-93814002D01*
X158002463Y-94098169D01*
X157871675Y-94413919D01*
X157805000Y-94749117D01*
X142275000Y-94749117D01*
X142208325Y-94413919D01*
X142077537Y-94098169D01*
X141887663Y-93814002D01*
X141645998Y-93572337D01*
X141361831Y-93382463D01*
X141046081Y-93251675D01*
X140710883Y-93185000D01*
X140369117Y-93185000D01*
X140033919Y-93251675D01*
X139718169Y-93382463D01*
X139434002Y-93572337D01*
X139192337Y-93814002D01*
X139002463Y-94098169D01*
X138871675Y-94413919D01*
X138805000Y-94749117D01*
X130708400Y-94749117D01*
X130708400Y-94601906D01*
X130653738Y-94327101D01*
X130546514Y-94068241D01*
X130390850Y-93835273D01*
X130192727Y-93637150D01*
X129959759Y-93481486D01*
X129936858Y-93472000D01*
X129959759Y-93462514D01*
X130192727Y-93306850D01*
X130390850Y-93108727D01*
X130546514Y-92875759D01*
X130653738Y-92616899D01*
X130708400Y-92342094D01*
X130708400Y-92061906D01*
X130653738Y-91787101D01*
X130546514Y-91528241D01*
X130390850Y-91295273D01*
X130192727Y-91097150D01*
X129959759Y-90941486D01*
X129700899Y-90834262D01*
X129426094Y-90779600D01*
X129145906Y-90779600D01*
X128871101Y-90834262D01*
X128612241Y-90941486D01*
X128379273Y-91097150D01*
X128181150Y-91295273D01*
X128025486Y-91528241D01*
X127918262Y-91787101D01*
X127863600Y-92061906D01*
X127863600Y-92342094D01*
X127918262Y-92616899D01*
X128025486Y-92875759D01*
X128181150Y-93108727D01*
X128379273Y-93306850D01*
X128612241Y-93462514D01*
X128635142Y-93472000D01*
X128612241Y-93481486D01*
X128379273Y-93637150D01*
X128181150Y-93835273D01*
X128025486Y-94068241D01*
X127918262Y-94327101D01*
X127863600Y-94601906D01*
X127863600Y-94882094D01*
X127918262Y-95156899D01*
X127956826Y-95249999D01*
X125743266Y-95249999D01*
X125704601Y-95246191D01*
X125665936Y-95249999D01*
X125665928Y-95249999D01*
X125550244Y-95261393D01*
X125401818Y-95306417D01*
X125265029Y-95379533D01*
X125175171Y-95453277D01*
X125175168Y-95453280D01*
X125145132Y-95477930D01*
X125120482Y-95507966D01*
X123955850Y-96672600D01*
X116741799Y-96672600D01*
X116727537Y-96638169D01*
X116537663Y-96354002D01*
X116295998Y-96112337D01*
X116011831Y-95922463D01*
X115696081Y-95791675D01*
X115360883Y-95725000D01*
X115019117Y-95725000D01*
X114683919Y-95791675D01*
X114368169Y-95922463D01*
X114084002Y-96112337D01*
X113842337Y-96354002D01*
X113652463Y-96638169D01*
X113521675Y-96953919D01*
X113455000Y-97289117D01*
X113455000Y-97630883D01*
X113483189Y-97772599D01*
X110302382Y-97772599D01*
X110333738Y-97696899D01*
X110388400Y-97422094D01*
X110388400Y-97141906D01*
X110333738Y-96867101D01*
X110226514Y-96608241D01*
X110070850Y-96375273D01*
X109872727Y-96177150D01*
X109639759Y-96021486D01*
X109616858Y-96012000D01*
X109639759Y-96002514D01*
X109872727Y-95846850D01*
X110070850Y-95648727D01*
X110226514Y-95415759D01*
X110333738Y-95156899D01*
X110388400Y-94882094D01*
X110388400Y-94749117D01*
X119805000Y-94749117D01*
X119805000Y-95090883D01*
X119871675Y-95426081D01*
X120002463Y-95741831D01*
X120192337Y-96025998D01*
X120434002Y-96267663D01*
X120718169Y-96457537D01*
X121033919Y-96588325D01*
X121369117Y-96655000D01*
X121710883Y-96655000D01*
X122046081Y-96588325D01*
X122361831Y-96457537D01*
X122645998Y-96267663D01*
X122887663Y-96025998D01*
X123077537Y-95741831D01*
X123208325Y-95426081D01*
X123275000Y-95090883D01*
X123275000Y-94749117D01*
X123208325Y-94413919D01*
X123077537Y-94098169D01*
X122887663Y-93814002D01*
X122645998Y-93572337D01*
X122361831Y-93382463D01*
X122046081Y-93251675D01*
X121710883Y-93185000D01*
X121369117Y-93185000D01*
X121033919Y-93251675D01*
X120718169Y-93382463D01*
X120434002Y-93572337D01*
X120192337Y-93814002D01*
X120002463Y-94098169D01*
X119871675Y-94413919D01*
X119805000Y-94749117D01*
X110388400Y-94749117D01*
X110388400Y-94601906D01*
X110333738Y-94327101D01*
X110226514Y-94068241D01*
X110070850Y-93835273D01*
X109872727Y-93637150D01*
X109639759Y-93481486D01*
X109616858Y-93472000D01*
X109639759Y-93462514D01*
X109872727Y-93306850D01*
X110070850Y-93108727D01*
X110226514Y-92875759D01*
X110333738Y-92616899D01*
X110388400Y-92342094D01*
X110388400Y-92061906D01*
X110333738Y-91787101D01*
X110226514Y-91528241D01*
X110070850Y-91295273D01*
X109872727Y-91097150D01*
X109639759Y-90941486D01*
X109380899Y-90834262D01*
X109106094Y-90779600D01*
X108825906Y-90779600D01*
X108551101Y-90834262D01*
X108292241Y-90941486D01*
X108059273Y-91097150D01*
X107861150Y-91295273D01*
X107705486Y-91528241D01*
X107598262Y-91787101D01*
X107543600Y-92061906D01*
X107543600Y-92342094D01*
X107598262Y-92616899D01*
X107705486Y-92875759D01*
X107861150Y-93108727D01*
X108059273Y-93306850D01*
X108292241Y-93462514D01*
X108315142Y-93472000D01*
X108292241Y-93481486D01*
X108059273Y-93637150D01*
X107861150Y-93835273D01*
X107705486Y-94068241D01*
X107598262Y-94327101D01*
X107543600Y-94601906D01*
X107543600Y-94882094D01*
X107598262Y-95156899D01*
X107705486Y-95415759D01*
X107861150Y-95648727D01*
X108059273Y-95846850D01*
X108292241Y-96002514D01*
X108315142Y-96012000D01*
X108292241Y-96021486D01*
X108059273Y-96177150D01*
X107861150Y-96375273D01*
X107705486Y-96608241D01*
X107598262Y-96867101D01*
X107543600Y-97141906D01*
X107543600Y-97422094D01*
X107598262Y-97696899D01*
X107629618Y-97772599D01*
X102522809Y-97772599D01*
X101680785Y-96930577D01*
X101656127Y-96900531D01*
X101536230Y-96802134D01*
X101399441Y-96729018D01*
X101251015Y-96683994D01*
X101135331Y-96672600D01*
X101135321Y-96672600D01*
X101096658Y-96668792D01*
X101057995Y-96672600D01*
X97741799Y-96672600D01*
X97727537Y-96638169D01*
X97537663Y-96354002D01*
X97295998Y-96112337D01*
X97011831Y-95922463D01*
X96696081Y-95791675D01*
X96360883Y-95725000D01*
X96019117Y-95725000D01*
X95683919Y-95791675D01*
X95368169Y-95922463D01*
X95084002Y-96112337D01*
X94842337Y-96354002D01*
X94652463Y-96638169D01*
X94521675Y-96953919D01*
X94455000Y-97289117D01*
X94455000Y-97630883D01*
X94521675Y-97966081D01*
X94652463Y-98281831D01*
X94808261Y-98515000D01*
X94773740Y-98515000D01*
X94486842Y-98572068D01*
X94216589Y-98684010D01*
X93973368Y-98846525D01*
X93766525Y-99053368D01*
X93604010Y-99296589D01*
X93542934Y-99444041D01*
X91719400Y-97620508D01*
X91719400Y-95947884D01*
X91723208Y-95909221D01*
X91719400Y-95870558D01*
X91719400Y-95870549D01*
X91708006Y-95754865D01*
X91662982Y-95606439D01*
X91589866Y-95469650D01*
X91568222Y-95443277D01*
X91516121Y-95379791D01*
X91516119Y-95379789D01*
X91491469Y-95349753D01*
X91461434Y-95325104D01*
X90885446Y-94749117D01*
X100805000Y-94749117D01*
X100805000Y-95090883D01*
X100871675Y-95426081D01*
X101002463Y-95741831D01*
X101192337Y-96025998D01*
X101434002Y-96267663D01*
X101718169Y-96457537D01*
X102033919Y-96588325D01*
X102369117Y-96655000D01*
X102710883Y-96655000D01*
X103046081Y-96588325D01*
X103361831Y-96457537D01*
X103645998Y-96267663D01*
X103887663Y-96025998D01*
X104077537Y-95741831D01*
X104208325Y-95426081D01*
X104275000Y-95090883D01*
X104275000Y-94749117D01*
X104208325Y-94413919D01*
X104077537Y-94098169D01*
X103887663Y-93814002D01*
X103645998Y-93572337D01*
X103361831Y-93382463D01*
X103046081Y-93251675D01*
X102710883Y-93185000D01*
X102369117Y-93185000D01*
X102033919Y-93251675D01*
X101718169Y-93382463D01*
X101434002Y-93572337D01*
X101192337Y-93814002D01*
X101002463Y-94098169D01*
X100871675Y-94413919D01*
X100805000Y-94749117D01*
X90885446Y-94749117D01*
X90464090Y-94327762D01*
X90439436Y-94297721D01*
X90319539Y-94199324D01*
X90319535Y-94199322D01*
X90182749Y-94126207D01*
X90034324Y-94081184D01*
X89879967Y-94065981D01*
X89841294Y-94069790D01*
X83781762Y-94069788D01*
X83743099Y-94065980D01*
X83704436Y-94069788D01*
X83704428Y-94069788D01*
X83588744Y-94081182D01*
X83440318Y-94126206D01*
X83440316Y-94126207D01*
X83303526Y-94199323D01*
X83213669Y-94273067D01*
X83213662Y-94273074D01*
X83183632Y-94297719D01*
X83158986Y-94327750D01*
X82049357Y-95437382D01*
X82019322Y-95462031D01*
X81994672Y-95492067D01*
X81994668Y-95492071D01*
X81920924Y-95581929D01*
X81847808Y-95718719D01*
X81829274Y-95779820D01*
X81802785Y-95867143D01*
X81801219Y-95883042D01*
X81787582Y-96021500D01*
X81791391Y-96060173D01*
X81791390Y-98318127D01*
X81787582Y-98356790D01*
X81791390Y-98395453D01*
X81791390Y-98395462D01*
X81802784Y-98511146D01*
X81847808Y-98659572D01*
X81920924Y-98796361D01*
X82019321Y-98916259D01*
X82049367Y-98940917D01*
X82397928Y-99289479D01*
X82397928Y-99564000D01*
X82400336Y-99588450D01*
X82400336Y-99613009D01*
X82412596Y-99737490D01*
X82431718Y-99833623D01*
X82468027Y-99953319D01*
X82505536Y-100043875D01*
X82564502Y-100154192D01*
X82618958Y-100235691D01*
X82698310Y-100332382D01*
X82767618Y-100401690D01*
X82864309Y-100481042D01*
X82945808Y-100535498D01*
X83036548Y-100584000D01*
X82945808Y-100632502D01*
X82864309Y-100686958D01*
X82767618Y-100766310D01*
X82698310Y-100835618D01*
X82618958Y-100932309D01*
X82564502Y-101013808D01*
X82536284Y-101066600D01*
X82464311Y-101066600D01*
X82447774Y-101050063D01*
X82278256Y-100936795D01*
X82089898Y-100858774D01*
X81889939Y-100819000D01*
X81686061Y-100819000D01*
X81486102Y-100858774D01*
X81297744Y-100936795D01*
X81128226Y-101050063D01*
X80984063Y-101194226D01*
X80870795Y-101363744D01*
X80792774Y-101552102D01*
X80753000Y-101752061D01*
X80753000Y-101955939D01*
X80792774Y-102155898D01*
X80870795Y-102344256D01*
X80984063Y-102513774D01*
X81128226Y-102657937D01*
X81297744Y-102771205D01*
X81486102Y-102849226D01*
X81686061Y-102889000D01*
X81889939Y-102889000D01*
X82089898Y-102849226D01*
X82278256Y-102771205D01*
X82447774Y-102657937D01*
X82464311Y-102641400D01*
X82536284Y-102641400D01*
X82564502Y-102694192D01*
X82618958Y-102775691D01*
X82698310Y-102872382D01*
X82767618Y-102941690D01*
X82864309Y-103021042D01*
X82945808Y-103075498D01*
X83036548Y-103124000D01*
X82945808Y-103172502D01*
X82864309Y-103226958D01*
X82767618Y-103306310D01*
X82698310Y-103375618D01*
X82618958Y-103472309D01*
X82564502Y-103553808D01*
X82505536Y-103664125D01*
X82468027Y-103754681D01*
X82431718Y-103874377D01*
X82412596Y-103970510D01*
X82400336Y-104094991D01*
X82400336Y-104119550D01*
X82397928Y-104144000D01*
X82397928Y-104418520D01*
X79791766Y-107024684D01*
X79761719Y-107049343D01*
X79663322Y-107169241D01*
X79590206Y-107306030D01*
X79545182Y-107454456D01*
X79533788Y-107570140D01*
X79533788Y-107570149D01*
X79529980Y-107608812D01*
X63660000Y-107608812D01*
X63660000Y-93032279D01*
X63707670Y-92546107D01*
X63839489Y-92109502D01*
X64053600Y-91706815D01*
X64341848Y-91353388D01*
X64693261Y-91062673D01*
X65094439Y-90845758D01*
X65530113Y-90710894D01*
X66014344Y-90660000D01*
X163967721Y-90660000D01*
X164453893Y-90707670D01*
G36*
X93575151Y-103678823D02*
G01*
X93599801Y-103708859D01*
X93629837Y-103733509D01*
X93629839Y-103733511D01*
X93663284Y-103760958D01*
X93719698Y-103807256D01*
X93856487Y-103880372D01*
X94004913Y-103925396D01*
X94120597Y-103936790D01*
X94120606Y-103936790D01*
X94159269Y-103940598D01*
X94197932Y-103936790D01*
X106297937Y-103936790D01*
X106336600Y-103940598D01*
X106375263Y-103936790D01*
X106375273Y-103936790D01*
X106490957Y-103925396D01*
X106639383Y-103880372D01*
X106776172Y-103807256D01*
X106896069Y-103708859D01*
X106920728Y-103678813D01*
X107663982Y-102935559D01*
X107705486Y-103035759D01*
X107861150Y-103268727D01*
X108059273Y-103466850D01*
X108292241Y-103622514D01*
X108315142Y-103632000D01*
X108292241Y-103641486D01*
X108059273Y-103797150D01*
X107861150Y-103995273D01*
X107781418Y-104114600D01*
X100649542Y-104114600D01*
X100610879Y-104110792D01*
X100572216Y-104114600D01*
X100572207Y-104114600D01*
X100456523Y-104125994D01*
X100308097Y-104171018D01*
X100171308Y-104244134D01*
X100051411Y-104342531D01*
X100026757Y-104372572D01*
X89870730Y-114528600D01*
X83384151Y-114528600D01*
X81718198Y-112862648D01*
X81718198Y-110509000D01*
X81889939Y-110509000D01*
X82089898Y-110469226D01*
X82278256Y-110391205D01*
X82447774Y-110277937D01*
X82464311Y-110261400D01*
X82536284Y-110261400D01*
X82564502Y-110314192D01*
X82618958Y-110395691D01*
X82698310Y-110492382D01*
X82767618Y-110561690D01*
X82864309Y-110641042D01*
X82945808Y-110695498D01*
X83056125Y-110754464D01*
X83146681Y-110791973D01*
X83266377Y-110828282D01*
X83362510Y-110847404D01*
X83486991Y-110859664D01*
X83511550Y-110859664D01*
X83536000Y-110862072D01*
X83627668Y-110862072D01*
X83588297Y-110882655D01*
X83586563Y-110884049D01*
X83584596Y-110885095D01*
X83538263Y-110922883D01*
X83491714Y-110960310D01*
X83490283Y-110962015D01*
X83488557Y-110963423D01*
X83450461Y-111009473D01*
X83412053Y-111055246D01*
X83410980Y-111057198D01*
X83409561Y-111058913D01*
X83381149Y-111111461D01*
X83352349Y-111163847D01*
X83351675Y-111165971D01*
X83350617Y-111167928D01*
X83332966Y-111224950D01*
X83314876Y-111281976D01*
X83314627Y-111284192D01*
X83313970Y-111286316D01*
X83307724Y-111345743D01*
X83301062Y-111405134D01*
X83301032Y-111409404D01*
X83301015Y-111409567D01*
X83301030Y-111409730D01*
X83301000Y-111414000D01*
X83301000Y-111814000D01*
X83306834Y-111873505D01*
X83312248Y-111932987D01*
X83312875Y-111935118D01*
X83313093Y-111937339D01*
X83330388Y-111994621D01*
X83336220Y-112014438D01*
X83332966Y-112024950D01*
X83314876Y-112081976D01*
X83314627Y-112084192D01*
X83313970Y-112086316D01*
X83307724Y-112145743D01*
X83301062Y-112205134D01*
X83301032Y-112209404D01*
X83301015Y-112209567D01*
X83301030Y-112209730D01*
X83301000Y-112214000D01*
X83301000Y-112614000D01*
X83306834Y-112673505D01*
X83312248Y-112732987D01*
X83312875Y-112735118D01*
X83313093Y-112737339D01*
X83330388Y-112794621D01*
X83347238Y-112851875D01*
X83348269Y-112853847D01*
X83348913Y-112855980D01*
X83376988Y-112908781D01*
X83404655Y-112961703D01*
X83406049Y-112963437D01*
X83407095Y-112965404D01*
X83444883Y-113011737D01*
X83482310Y-113058286D01*
X83484015Y-113059717D01*
X83485423Y-113061443D01*
X83531473Y-113099539D01*
X83577246Y-113137947D01*
X83579198Y-113139020D01*
X83580913Y-113140439D01*
X83633461Y-113168851D01*
X83685847Y-113197651D01*
X83687971Y-113198325D01*
X83689928Y-113199383D01*
X83746950Y-113217034D01*
X83803976Y-113235124D01*
X83806192Y-113235373D01*
X83808316Y-113236030D01*
X83867743Y-113242276D01*
X83925755Y-113248783D01*
X83981506Y-113294537D01*
X84091820Y-113353502D01*
X84211518Y-113389812D01*
X84336000Y-113402072D01*
X84836000Y-113402072D01*
X84860450Y-113399664D01*
X84885009Y-113399664D01*
X85009490Y-113387404D01*
X85105623Y-113368282D01*
X85225319Y-113331973D01*
X85315875Y-113294464D01*
X85426192Y-113235498D01*
X85507691Y-113181042D01*
X85604382Y-113101690D01*
X85673690Y-113032382D01*
X85753042Y-112935691D01*
X85807498Y-112854192D01*
X85835716Y-112801400D01*
X87511928Y-112801400D01*
X87511928Y-112864000D01*
X87524188Y-112988482D01*
X87560498Y-113108180D01*
X87619463Y-113218494D01*
X87698815Y-113315185D01*
X87795506Y-113394537D01*
X87905820Y-113453502D01*
X88025518Y-113489812D01*
X88150000Y-113502072D01*
X89850000Y-113502072D01*
X89974482Y-113489812D01*
X90094180Y-113453502D01*
X90204494Y-113394537D01*
X90301185Y-113315185D01*
X90380537Y-113218494D01*
X90439502Y-113108180D01*
X90475812Y-112988482D01*
X90488072Y-112864000D01*
X90488072Y-111164000D01*
X90475812Y-111039518D01*
X90439502Y-110919820D01*
X90380537Y-110809506D01*
X90301185Y-110712815D01*
X90204494Y-110633463D01*
X90094180Y-110574498D01*
X90025313Y-110553607D01*
X90055134Y-110529134D01*
X90240706Y-110303014D01*
X90378599Y-110045034D01*
X90463513Y-109765111D01*
X90492185Y-109474000D01*
X90463513Y-109182889D01*
X90378599Y-108902966D01*
X90240706Y-108644986D01*
X90055134Y-108418866D01*
X89829014Y-108233294D01*
X89774209Y-108204000D01*
X89829014Y-108174706D01*
X90055134Y-107989134D01*
X90240706Y-107763014D01*
X90378599Y-107505034D01*
X90463513Y-107225111D01*
X90492185Y-106934000D01*
X90463513Y-106642889D01*
X90378599Y-106362966D01*
X90240706Y-106104986D01*
X90055134Y-105878866D01*
X89829014Y-105693294D01*
X89774209Y-105664000D01*
X89829014Y-105634706D01*
X90055134Y-105449134D01*
X90240706Y-105223014D01*
X90378599Y-104965034D01*
X90463513Y-104685111D01*
X90492185Y-104394000D01*
X90463513Y-104102889D01*
X90378599Y-103822966D01*
X90240706Y-103564986D01*
X90055134Y-103338866D01*
X89829014Y-103153294D01*
X89774209Y-103124000D01*
X89829014Y-103094706D01*
X90055134Y-102909134D01*
X90240706Y-102683014D01*
X90378599Y-102425034D01*
X90463513Y-102145111D01*
X90492185Y-101854000D01*
X90463513Y-101562889D01*
X90378599Y-101282966D01*
X90240706Y-101024986D01*
X90055134Y-100798866D01*
X89829014Y-100613294D01*
X89774209Y-100584000D01*
X89829014Y-100554706D01*
X90055134Y-100369134D01*
X90149941Y-100253611D01*
X93575151Y-103678823D01*
X93575151Y-103678823D01*
G37*
X93575151Y-103678823D02*
X93599801Y-103708859D01*
X93629837Y-103733509D01*
X93629839Y-103733511D01*
X93663284Y-103760958D01*
X93719698Y-103807256D01*
X93856487Y-103880372D01*
X94004913Y-103925396D01*
X94120597Y-103936790D01*
X94120606Y-103936790D01*
X94159269Y-103940598D01*
X94197932Y-103936790D01*
X106297937Y-103936790D01*
X106336600Y-103940598D01*
X106375263Y-103936790D01*
X106375273Y-103936790D01*
X106490957Y-103925396D01*
X106639383Y-103880372D01*
X106776172Y-103807256D01*
X106896069Y-103708859D01*
X106920728Y-103678813D01*
X107663982Y-102935559D01*
X107705486Y-103035759D01*
X107861150Y-103268727D01*
X108059273Y-103466850D01*
X108292241Y-103622514D01*
X108315142Y-103632000D01*
X108292241Y-103641486D01*
X108059273Y-103797150D01*
X107861150Y-103995273D01*
X107781418Y-104114600D01*
X100649542Y-104114600D01*
X100610879Y-104110792D01*
X100572216Y-104114600D01*
X100572207Y-104114600D01*
X100456523Y-104125994D01*
X100308097Y-104171018D01*
X100171308Y-104244134D01*
X100051411Y-104342531D01*
X100026757Y-104372572D01*
X89870730Y-114528600D01*
X83384151Y-114528600D01*
X81718198Y-112862648D01*
X81718198Y-110509000D01*
X81889939Y-110509000D01*
X82089898Y-110469226D01*
X82278256Y-110391205D01*
X82447774Y-110277937D01*
X82464311Y-110261400D01*
X82536284Y-110261400D01*
X82564502Y-110314192D01*
X82618958Y-110395691D01*
X82698310Y-110492382D01*
X82767618Y-110561690D01*
X82864309Y-110641042D01*
X82945808Y-110695498D01*
X83056125Y-110754464D01*
X83146681Y-110791973D01*
X83266377Y-110828282D01*
X83362510Y-110847404D01*
X83486991Y-110859664D01*
X83511550Y-110859664D01*
X83536000Y-110862072D01*
X83627668Y-110862072D01*
X83588297Y-110882655D01*
X83586563Y-110884049D01*
X83584596Y-110885095D01*
X83538263Y-110922883D01*
X83491714Y-110960310D01*
X83490283Y-110962015D01*
X83488557Y-110963423D01*
X83450461Y-111009473D01*
X83412053Y-111055246D01*
X83410980Y-111057198D01*
X83409561Y-111058913D01*
X83381149Y-111111461D01*
X83352349Y-111163847D01*
X83351675Y-111165971D01*
X83350617Y-111167928D01*
X83332966Y-111224950D01*
X83314876Y-111281976D01*
X83314627Y-111284192D01*
X83313970Y-111286316D01*
X83307724Y-111345743D01*
X83301062Y-111405134D01*
X83301032Y-111409404D01*
X83301015Y-111409567D01*
X83301030Y-111409730D01*
X83301000Y-111414000D01*
X83301000Y-111814000D01*
X83306834Y-111873505D01*
X83312248Y-111932987D01*
X83312875Y-111935118D01*
X83313093Y-111937339D01*
X83330388Y-111994621D01*
X83336220Y-112014438D01*
X83332966Y-112024950D01*
X83314876Y-112081976D01*
X83314627Y-112084192D01*
X83313970Y-112086316D01*
X83307724Y-112145743D01*
X83301062Y-112205134D01*
X83301032Y-112209404D01*
X83301015Y-112209567D01*
X83301030Y-112209730D01*
X83301000Y-112214000D01*
X83301000Y-112614000D01*
X83306834Y-112673505D01*
X83312248Y-112732987D01*
X83312875Y-112735118D01*
X83313093Y-112737339D01*
X83330388Y-112794621D01*
X83347238Y-112851875D01*
X83348269Y-112853847D01*
X83348913Y-112855980D01*
X83376988Y-112908781D01*
X83404655Y-112961703D01*
X83406049Y-112963437D01*
X83407095Y-112965404D01*
X83444883Y-113011737D01*
X83482310Y-113058286D01*
X83484015Y-113059717D01*
X83485423Y-113061443D01*
X83531473Y-113099539D01*
X83577246Y-113137947D01*
X83579198Y-113139020D01*
X83580913Y-113140439D01*
X83633461Y-113168851D01*
X83685847Y-113197651D01*
X83687971Y-113198325D01*
X83689928Y-113199383D01*
X83746950Y-113217034D01*
X83803976Y-113235124D01*
X83806192Y-113235373D01*
X83808316Y-113236030D01*
X83867743Y-113242276D01*
X83925755Y-113248783D01*
X83981506Y-113294537D01*
X84091820Y-113353502D01*
X84211518Y-113389812D01*
X84336000Y-113402072D01*
X84836000Y-113402072D01*
X84860450Y-113399664D01*
X84885009Y-113399664D01*
X85009490Y-113387404D01*
X85105623Y-113368282D01*
X85225319Y-113331973D01*
X85315875Y-113294464D01*
X85426192Y-113235498D01*
X85507691Y-113181042D01*
X85604382Y-113101690D01*
X85673690Y-113032382D01*
X85753042Y-112935691D01*
X85807498Y-112854192D01*
X85835716Y-112801400D01*
X87511928Y-112801400D01*
X87511928Y-112864000D01*
X87524188Y-112988482D01*
X87560498Y-113108180D01*
X87619463Y-113218494D01*
X87698815Y-113315185D01*
X87795506Y-113394537D01*
X87905820Y-113453502D01*
X88025518Y-113489812D01*
X88150000Y-113502072D01*
X89850000Y-113502072D01*
X89974482Y-113489812D01*
X90094180Y-113453502D01*
X90204494Y-113394537D01*
X90301185Y-113315185D01*
X90380537Y-113218494D01*
X90439502Y-113108180D01*
X90475812Y-112988482D01*
X90488072Y-112864000D01*
X90488072Y-111164000D01*
X90475812Y-111039518D01*
X90439502Y-110919820D01*
X90380537Y-110809506D01*
X90301185Y-110712815D01*
X90204494Y-110633463D01*
X90094180Y-110574498D01*
X90025313Y-110553607D01*
X90055134Y-110529134D01*
X90240706Y-110303014D01*
X90378599Y-110045034D01*
X90463513Y-109765111D01*
X90492185Y-109474000D01*
X90463513Y-109182889D01*
X90378599Y-108902966D01*
X90240706Y-108644986D01*
X90055134Y-108418866D01*
X89829014Y-108233294D01*
X89774209Y-108204000D01*
X89829014Y-108174706D01*
X90055134Y-107989134D01*
X90240706Y-107763014D01*
X90378599Y-107505034D01*
X90463513Y-107225111D01*
X90492185Y-106934000D01*
X90463513Y-106642889D01*
X90378599Y-106362966D01*
X90240706Y-106104986D01*
X90055134Y-105878866D01*
X89829014Y-105693294D01*
X89774209Y-105664000D01*
X89829014Y-105634706D01*
X90055134Y-105449134D01*
X90240706Y-105223014D01*
X90378599Y-104965034D01*
X90463513Y-104685111D01*
X90492185Y-104394000D01*
X90463513Y-104102889D01*
X90378599Y-103822966D01*
X90240706Y-103564986D01*
X90055134Y-103338866D01*
X89829014Y-103153294D01*
X89774209Y-103124000D01*
X89829014Y-103094706D01*
X90055134Y-102909134D01*
X90240706Y-102683014D01*
X90378599Y-102425034D01*
X90463513Y-102145111D01*
X90492185Y-101854000D01*
X90463513Y-101562889D01*
X90378599Y-101282966D01*
X90240706Y-101024986D01*
X90055134Y-100798866D01*
X89829014Y-100613294D01*
X89774209Y-100584000D01*
X89829014Y-100554706D01*
X90055134Y-100369134D01*
X90149941Y-100253611D01*
X93575151Y-103678823D01*
M02*
