G04 #@! TF.GenerationSoftware,KiCad,Pcbnew,(5.1.2-1)-1*
G04 #@! TF.CreationDate,2019-11-15T20:19:46-06:00*
G04 #@! TF.ProjectId,cherry-huzzah32,63686572-7279-42d6-9875-7a7a61683332,rev?*
G04 #@! TF.SameCoordinates,Original*
G04 #@! TF.FileFunction,Soldermask,Top*
G04 #@! TF.FilePolarity,Negative*
%FSLAX46Y46*%
G04 Gerber Fmt 4.6, Leading zero omitted, Abs format (unit mm)*
G04 Created by KiCad (PCBNEW (5.1.2-1)-1) date 2019-11-15 20:19:46*
%MOMM*%
%LPD*%
G04 APERTURE LIST*
%ADD10C,0.100000*%
G04 APERTURE END LIST*
D10*
G36*
X157598254Y-155027818D02*
G01*
X157971511Y-155182426D01*
X157971513Y-155182427D01*
X158307436Y-155406884D01*
X158593116Y-155692564D01*
X158817574Y-156028489D01*
X158972182Y-156401746D01*
X159051000Y-156797993D01*
X159051000Y-157202007D01*
X158972182Y-157598254D01*
X158817574Y-157971511D01*
X158817573Y-157971513D01*
X158593116Y-158307436D01*
X158307436Y-158593116D01*
X157971513Y-158817573D01*
X157971512Y-158817574D01*
X157971511Y-158817574D01*
X157598254Y-158972182D01*
X157202007Y-159051000D01*
X156797993Y-159051000D01*
X156401746Y-158972182D01*
X156028489Y-158817574D01*
X156028488Y-158817574D01*
X156028487Y-158817573D01*
X155692564Y-158593116D01*
X155406884Y-158307436D01*
X155182427Y-157971513D01*
X155182426Y-157971511D01*
X155027818Y-157598254D01*
X154949000Y-157202007D01*
X154949000Y-156797993D01*
X155027818Y-156401746D01*
X155182426Y-156028489D01*
X155406884Y-155692564D01*
X155692564Y-155406884D01*
X156028487Y-155182427D01*
X156028489Y-155182426D01*
X156401746Y-155027818D01*
X156797993Y-154949000D01*
X157202007Y-154949000D01*
X157598254Y-155027818D01*
X157598254Y-155027818D01*
G37*
G36*
X138598254Y-155027818D02*
G01*
X138971511Y-155182426D01*
X138971513Y-155182427D01*
X139307436Y-155406884D01*
X139593116Y-155692564D01*
X139817574Y-156028489D01*
X139972182Y-156401746D01*
X140051000Y-156797993D01*
X140051000Y-157202007D01*
X139972182Y-157598254D01*
X139817574Y-157971511D01*
X139817573Y-157971513D01*
X139593116Y-158307436D01*
X139307436Y-158593116D01*
X138971513Y-158817573D01*
X138971512Y-158817574D01*
X138971511Y-158817574D01*
X138598254Y-158972182D01*
X138202007Y-159051000D01*
X137797993Y-159051000D01*
X137401746Y-158972182D01*
X137028489Y-158817574D01*
X137028488Y-158817574D01*
X137028487Y-158817573D01*
X136692564Y-158593116D01*
X136406884Y-158307436D01*
X136182427Y-157971513D01*
X136182426Y-157971511D01*
X136027818Y-157598254D01*
X135949000Y-157202007D01*
X135949000Y-156797993D01*
X136027818Y-156401746D01*
X136182426Y-156028489D01*
X136406884Y-155692564D01*
X136692564Y-155406884D01*
X137028487Y-155182427D01*
X137028489Y-155182426D01*
X137401746Y-155027818D01*
X137797993Y-154949000D01*
X138202007Y-154949000D01*
X138598254Y-155027818D01*
X138598254Y-155027818D01*
G37*
G36*
X119598254Y-155027818D02*
G01*
X119971511Y-155182426D01*
X119971513Y-155182427D01*
X120307436Y-155406884D01*
X120593116Y-155692564D01*
X120817574Y-156028489D01*
X120972182Y-156401746D01*
X121051000Y-156797993D01*
X121051000Y-157202007D01*
X120972182Y-157598254D01*
X120817574Y-157971511D01*
X120817573Y-157971513D01*
X120593116Y-158307436D01*
X120307436Y-158593116D01*
X119971513Y-158817573D01*
X119971512Y-158817574D01*
X119971511Y-158817574D01*
X119598254Y-158972182D01*
X119202007Y-159051000D01*
X118797993Y-159051000D01*
X118401746Y-158972182D01*
X118028489Y-158817574D01*
X118028488Y-158817574D01*
X118028487Y-158817573D01*
X117692564Y-158593116D01*
X117406884Y-158307436D01*
X117182427Y-157971513D01*
X117182426Y-157971511D01*
X117027818Y-157598254D01*
X116949000Y-157202007D01*
X116949000Y-156797993D01*
X117027818Y-156401746D01*
X117182426Y-156028489D01*
X117406884Y-155692564D01*
X117692564Y-155406884D01*
X118028487Y-155182427D01*
X118028489Y-155182426D01*
X118401746Y-155027818D01*
X118797993Y-154949000D01*
X119202007Y-154949000D01*
X119598254Y-155027818D01*
X119598254Y-155027818D01*
G37*
G36*
X100598254Y-155027818D02*
G01*
X100971511Y-155182426D01*
X100971513Y-155182427D01*
X101307436Y-155406884D01*
X101593116Y-155692564D01*
X101817574Y-156028489D01*
X101972182Y-156401746D01*
X102051000Y-156797993D01*
X102051000Y-157202007D01*
X101972182Y-157598254D01*
X101817574Y-157971511D01*
X101817573Y-157971513D01*
X101593116Y-158307436D01*
X101307436Y-158593116D01*
X100971513Y-158817573D01*
X100971512Y-158817574D01*
X100971511Y-158817574D01*
X100598254Y-158972182D01*
X100202007Y-159051000D01*
X99797993Y-159051000D01*
X99401746Y-158972182D01*
X99028489Y-158817574D01*
X99028488Y-158817574D01*
X99028487Y-158817573D01*
X98692564Y-158593116D01*
X98406884Y-158307436D01*
X98182427Y-157971513D01*
X98182426Y-157971511D01*
X98027818Y-157598254D01*
X97949000Y-157202007D01*
X97949000Y-156797993D01*
X98027818Y-156401746D01*
X98182426Y-156028489D01*
X98406884Y-155692564D01*
X98692564Y-155406884D01*
X99028487Y-155182427D01*
X99028489Y-155182426D01*
X99401746Y-155027818D01*
X99797993Y-154949000D01*
X100202007Y-154949000D01*
X100598254Y-155027818D01*
X100598254Y-155027818D01*
G37*
G36*
X124193512Y-156103927D02*
G01*
X124342812Y-156133624D01*
X124506784Y-156201544D01*
X124654354Y-156300147D01*
X124779853Y-156425646D01*
X124878456Y-156573216D01*
X124946376Y-156737188D01*
X124981000Y-156911259D01*
X124981000Y-157088741D01*
X124946376Y-157262812D01*
X124878456Y-157426784D01*
X124779853Y-157574354D01*
X124654354Y-157699853D01*
X124506784Y-157798456D01*
X124342812Y-157866376D01*
X124193512Y-157896073D01*
X124168742Y-157901000D01*
X123991258Y-157901000D01*
X123966488Y-157896073D01*
X123817188Y-157866376D01*
X123653216Y-157798456D01*
X123505646Y-157699853D01*
X123380147Y-157574354D01*
X123281544Y-157426784D01*
X123213624Y-157262812D01*
X123179000Y-157088741D01*
X123179000Y-156911259D01*
X123213624Y-156737188D01*
X123281544Y-156573216D01*
X123380147Y-156425646D01*
X123505646Y-156300147D01*
X123653216Y-156201544D01*
X123817188Y-156133624D01*
X123966488Y-156103927D01*
X123991258Y-156099000D01*
X124168742Y-156099000D01*
X124193512Y-156103927D01*
X124193512Y-156103927D01*
G37*
G36*
X114033512Y-156103927D02*
G01*
X114182812Y-156133624D01*
X114346784Y-156201544D01*
X114494354Y-156300147D01*
X114619853Y-156425646D01*
X114718456Y-156573216D01*
X114786376Y-156737188D01*
X114821000Y-156911259D01*
X114821000Y-157088741D01*
X114786376Y-157262812D01*
X114718456Y-157426784D01*
X114619853Y-157574354D01*
X114494354Y-157699853D01*
X114346784Y-157798456D01*
X114182812Y-157866376D01*
X114033512Y-157896073D01*
X114008742Y-157901000D01*
X113831258Y-157901000D01*
X113806488Y-157896073D01*
X113657188Y-157866376D01*
X113493216Y-157798456D01*
X113345646Y-157699853D01*
X113220147Y-157574354D01*
X113121544Y-157426784D01*
X113053624Y-157262812D01*
X113019000Y-157088741D01*
X113019000Y-156911259D01*
X113053624Y-156737188D01*
X113121544Y-156573216D01*
X113220147Y-156425646D01*
X113345646Y-156300147D01*
X113493216Y-156201544D01*
X113657188Y-156133624D01*
X113806488Y-156103927D01*
X113831258Y-156099000D01*
X114008742Y-156099000D01*
X114033512Y-156103927D01*
X114033512Y-156103927D01*
G37*
G36*
X105193512Y-156103927D02*
G01*
X105342812Y-156133624D01*
X105506784Y-156201544D01*
X105654354Y-156300147D01*
X105779853Y-156425646D01*
X105878456Y-156573216D01*
X105946376Y-156737188D01*
X105981000Y-156911259D01*
X105981000Y-157088741D01*
X105946376Y-157262812D01*
X105878456Y-157426784D01*
X105779853Y-157574354D01*
X105654354Y-157699853D01*
X105506784Y-157798456D01*
X105342812Y-157866376D01*
X105193512Y-157896073D01*
X105168742Y-157901000D01*
X104991258Y-157901000D01*
X104966488Y-157896073D01*
X104817188Y-157866376D01*
X104653216Y-157798456D01*
X104505646Y-157699853D01*
X104380147Y-157574354D01*
X104281544Y-157426784D01*
X104213624Y-157262812D01*
X104179000Y-157088741D01*
X104179000Y-156911259D01*
X104213624Y-156737188D01*
X104281544Y-156573216D01*
X104380147Y-156425646D01*
X104505646Y-156300147D01*
X104653216Y-156201544D01*
X104817188Y-156133624D01*
X104966488Y-156103927D01*
X104991258Y-156099000D01*
X105168742Y-156099000D01*
X105193512Y-156103927D01*
X105193512Y-156103927D01*
G37*
G36*
X95033512Y-156103927D02*
G01*
X95182812Y-156133624D01*
X95346784Y-156201544D01*
X95494354Y-156300147D01*
X95619853Y-156425646D01*
X95718456Y-156573216D01*
X95786376Y-156737188D01*
X95821000Y-156911259D01*
X95821000Y-157088741D01*
X95786376Y-157262812D01*
X95718456Y-157426784D01*
X95619853Y-157574354D01*
X95494354Y-157699853D01*
X95346784Y-157798456D01*
X95182812Y-157866376D01*
X95033512Y-157896073D01*
X95008742Y-157901000D01*
X94831258Y-157901000D01*
X94806488Y-157896073D01*
X94657188Y-157866376D01*
X94493216Y-157798456D01*
X94345646Y-157699853D01*
X94220147Y-157574354D01*
X94121544Y-157426784D01*
X94053624Y-157262812D01*
X94019000Y-157088741D01*
X94019000Y-156911259D01*
X94053624Y-156737188D01*
X94121544Y-156573216D01*
X94220147Y-156425646D01*
X94345646Y-156300147D01*
X94493216Y-156201544D01*
X94657188Y-156133624D01*
X94806488Y-156103927D01*
X94831258Y-156099000D01*
X95008742Y-156099000D01*
X95033512Y-156103927D01*
X95033512Y-156103927D01*
G37*
G36*
X152033512Y-156103927D02*
G01*
X152182812Y-156133624D01*
X152346784Y-156201544D01*
X152494354Y-156300147D01*
X152619853Y-156425646D01*
X152718456Y-156573216D01*
X152786376Y-156737188D01*
X152821000Y-156911259D01*
X152821000Y-157088741D01*
X152786376Y-157262812D01*
X152718456Y-157426784D01*
X152619853Y-157574354D01*
X152494354Y-157699853D01*
X152346784Y-157798456D01*
X152182812Y-157866376D01*
X152033512Y-157896073D01*
X152008742Y-157901000D01*
X151831258Y-157901000D01*
X151806488Y-157896073D01*
X151657188Y-157866376D01*
X151493216Y-157798456D01*
X151345646Y-157699853D01*
X151220147Y-157574354D01*
X151121544Y-157426784D01*
X151053624Y-157262812D01*
X151019000Y-157088741D01*
X151019000Y-156911259D01*
X151053624Y-156737188D01*
X151121544Y-156573216D01*
X151220147Y-156425646D01*
X151345646Y-156300147D01*
X151493216Y-156201544D01*
X151657188Y-156133624D01*
X151806488Y-156103927D01*
X151831258Y-156099000D01*
X152008742Y-156099000D01*
X152033512Y-156103927D01*
X152033512Y-156103927D01*
G37*
G36*
X162193512Y-156103927D02*
G01*
X162342812Y-156133624D01*
X162506784Y-156201544D01*
X162654354Y-156300147D01*
X162779853Y-156425646D01*
X162878456Y-156573216D01*
X162946376Y-156737188D01*
X162981000Y-156911259D01*
X162981000Y-157088741D01*
X162946376Y-157262812D01*
X162878456Y-157426784D01*
X162779853Y-157574354D01*
X162654354Y-157699853D01*
X162506784Y-157798456D01*
X162342812Y-157866376D01*
X162193512Y-157896073D01*
X162168742Y-157901000D01*
X161991258Y-157901000D01*
X161966488Y-157896073D01*
X161817188Y-157866376D01*
X161653216Y-157798456D01*
X161505646Y-157699853D01*
X161380147Y-157574354D01*
X161281544Y-157426784D01*
X161213624Y-157262812D01*
X161179000Y-157088741D01*
X161179000Y-156911259D01*
X161213624Y-156737188D01*
X161281544Y-156573216D01*
X161380147Y-156425646D01*
X161505646Y-156300147D01*
X161653216Y-156201544D01*
X161817188Y-156133624D01*
X161966488Y-156103927D01*
X161991258Y-156099000D01*
X162168742Y-156099000D01*
X162193512Y-156103927D01*
X162193512Y-156103927D01*
G37*
G36*
X143193512Y-156103927D02*
G01*
X143342812Y-156133624D01*
X143506784Y-156201544D01*
X143654354Y-156300147D01*
X143779853Y-156425646D01*
X143878456Y-156573216D01*
X143946376Y-156737188D01*
X143981000Y-156911259D01*
X143981000Y-157088741D01*
X143946376Y-157262812D01*
X143878456Y-157426784D01*
X143779853Y-157574354D01*
X143654354Y-157699853D01*
X143506784Y-157798456D01*
X143342812Y-157866376D01*
X143193512Y-157896073D01*
X143168742Y-157901000D01*
X142991258Y-157901000D01*
X142966488Y-157896073D01*
X142817188Y-157866376D01*
X142653216Y-157798456D01*
X142505646Y-157699853D01*
X142380147Y-157574354D01*
X142281544Y-157426784D01*
X142213624Y-157262812D01*
X142179000Y-157088741D01*
X142179000Y-156911259D01*
X142213624Y-156737188D01*
X142281544Y-156573216D01*
X142380147Y-156425646D01*
X142505646Y-156300147D01*
X142653216Y-156201544D01*
X142817188Y-156133624D01*
X142966488Y-156103927D01*
X142991258Y-156099000D01*
X143168742Y-156099000D01*
X143193512Y-156103927D01*
X143193512Y-156103927D01*
G37*
G36*
X133033512Y-156103927D02*
G01*
X133182812Y-156133624D01*
X133346784Y-156201544D01*
X133494354Y-156300147D01*
X133619853Y-156425646D01*
X133718456Y-156573216D01*
X133786376Y-156737188D01*
X133821000Y-156911259D01*
X133821000Y-157088741D01*
X133786376Y-157262812D01*
X133718456Y-157426784D01*
X133619853Y-157574354D01*
X133494354Y-157699853D01*
X133346784Y-157798456D01*
X133182812Y-157866376D01*
X133033512Y-157896073D01*
X133008742Y-157901000D01*
X132831258Y-157901000D01*
X132806488Y-157896073D01*
X132657188Y-157866376D01*
X132493216Y-157798456D01*
X132345646Y-157699853D01*
X132220147Y-157574354D01*
X132121544Y-157426784D01*
X132053624Y-157262812D01*
X132019000Y-157088741D01*
X132019000Y-156911259D01*
X132053624Y-156737188D01*
X132121544Y-156573216D01*
X132220147Y-156425646D01*
X132345646Y-156300147D01*
X132493216Y-156201544D01*
X132657188Y-156133624D01*
X132806488Y-156103927D01*
X132831258Y-156099000D01*
X133008742Y-156099000D01*
X133033512Y-156103927D01*
X133033512Y-156103927D01*
G37*
G36*
X96414549Y-153331116D02*
G01*
X96525734Y-153353232D01*
X96735203Y-153439997D01*
X96923720Y-153565960D01*
X97084040Y-153726280D01*
X97210003Y-153914797D01*
X97296768Y-154124266D01*
X97341000Y-154346636D01*
X97341000Y-154573364D01*
X97296768Y-154795734D01*
X97210003Y-155005203D01*
X97084040Y-155193720D01*
X96923720Y-155354040D01*
X96735203Y-155480003D01*
X96525734Y-155566768D01*
X96414549Y-155588884D01*
X96303365Y-155611000D01*
X96076635Y-155611000D01*
X95965451Y-155588884D01*
X95854266Y-155566768D01*
X95644797Y-155480003D01*
X95456280Y-155354040D01*
X95295960Y-155193720D01*
X95169997Y-155005203D01*
X95083232Y-154795734D01*
X95039000Y-154573364D01*
X95039000Y-154346636D01*
X95083232Y-154124266D01*
X95169997Y-153914797D01*
X95295960Y-153726280D01*
X95456280Y-153565960D01*
X95644797Y-153439997D01*
X95854266Y-153353232D01*
X95965451Y-153331116D01*
X96076635Y-153309000D01*
X96303365Y-153309000D01*
X96414549Y-153331116D01*
X96414549Y-153331116D01*
G37*
G36*
X115414549Y-153331116D02*
G01*
X115525734Y-153353232D01*
X115735203Y-153439997D01*
X115923720Y-153565960D01*
X116084040Y-153726280D01*
X116210003Y-153914797D01*
X116296768Y-154124266D01*
X116341000Y-154346636D01*
X116341000Y-154573364D01*
X116296768Y-154795734D01*
X116210003Y-155005203D01*
X116084040Y-155193720D01*
X115923720Y-155354040D01*
X115735203Y-155480003D01*
X115525734Y-155566768D01*
X115414549Y-155588884D01*
X115303365Y-155611000D01*
X115076635Y-155611000D01*
X114965451Y-155588884D01*
X114854266Y-155566768D01*
X114644797Y-155480003D01*
X114456280Y-155354040D01*
X114295960Y-155193720D01*
X114169997Y-155005203D01*
X114083232Y-154795734D01*
X114039000Y-154573364D01*
X114039000Y-154346636D01*
X114083232Y-154124266D01*
X114169997Y-153914797D01*
X114295960Y-153726280D01*
X114456280Y-153565960D01*
X114644797Y-153439997D01*
X114854266Y-153353232D01*
X114965451Y-153331116D01*
X115076635Y-153309000D01*
X115303365Y-153309000D01*
X115414549Y-153331116D01*
X115414549Y-153331116D01*
G37*
G36*
X134414549Y-153331116D02*
G01*
X134525734Y-153353232D01*
X134735203Y-153439997D01*
X134923720Y-153565960D01*
X135084040Y-153726280D01*
X135210003Y-153914797D01*
X135296768Y-154124266D01*
X135341000Y-154346636D01*
X135341000Y-154573364D01*
X135296768Y-154795734D01*
X135210003Y-155005203D01*
X135084040Y-155193720D01*
X134923720Y-155354040D01*
X134735203Y-155480003D01*
X134525734Y-155566768D01*
X134414549Y-155588884D01*
X134303365Y-155611000D01*
X134076635Y-155611000D01*
X133965451Y-155588884D01*
X133854266Y-155566768D01*
X133644797Y-155480003D01*
X133456280Y-155354040D01*
X133295960Y-155193720D01*
X133169997Y-155005203D01*
X133083232Y-154795734D01*
X133039000Y-154573364D01*
X133039000Y-154346636D01*
X133083232Y-154124266D01*
X133169997Y-153914797D01*
X133295960Y-153726280D01*
X133456280Y-153565960D01*
X133644797Y-153439997D01*
X133854266Y-153353232D01*
X133965451Y-153331116D01*
X134076635Y-153309000D01*
X134303365Y-153309000D01*
X134414549Y-153331116D01*
X134414549Y-153331116D01*
G37*
G36*
X153414549Y-153331116D02*
G01*
X153525734Y-153353232D01*
X153735203Y-153439997D01*
X153923720Y-153565960D01*
X154084040Y-153726280D01*
X154210003Y-153914797D01*
X154296768Y-154124266D01*
X154341000Y-154346636D01*
X154341000Y-154573364D01*
X154296768Y-154795734D01*
X154210003Y-155005203D01*
X154084040Y-155193720D01*
X153923720Y-155354040D01*
X153735203Y-155480003D01*
X153525734Y-155566768D01*
X153414549Y-155588884D01*
X153303365Y-155611000D01*
X153076635Y-155611000D01*
X152965451Y-155588884D01*
X152854266Y-155566768D01*
X152644797Y-155480003D01*
X152456280Y-155354040D01*
X152295960Y-155193720D01*
X152169997Y-155005203D01*
X152083232Y-154795734D01*
X152039000Y-154573364D01*
X152039000Y-154346636D01*
X152083232Y-154124266D01*
X152169997Y-153914797D01*
X152295960Y-153726280D01*
X152456280Y-153565960D01*
X152644797Y-153439997D01*
X152854266Y-153353232D01*
X152965451Y-153331116D01*
X153076635Y-153309000D01*
X153303365Y-153309000D01*
X153414549Y-153331116D01*
X153414549Y-153331116D01*
G37*
G36*
X121764549Y-150791116D02*
G01*
X121875734Y-150813232D01*
X122085203Y-150899997D01*
X122273720Y-151025960D01*
X122434040Y-151186280D01*
X122560003Y-151374797D01*
X122646768Y-151584266D01*
X122691000Y-151806636D01*
X122691000Y-152033364D01*
X122646768Y-152255734D01*
X122560003Y-152465203D01*
X122434040Y-152653720D01*
X122273720Y-152814040D01*
X122085203Y-152940003D01*
X121875734Y-153026768D01*
X121764549Y-153048884D01*
X121653365Y-153071000D01*
X121426635Y-153071000D01*
X121315451Y-153048884D01*
X121204266Y-153026768D01*
X120994797Y-152940003D01*
X120806280Y-152814040D01*
X120645960Y-152653720D01*
X120519997Y-152465203D01*
X120433232Y-152255734D01*
X120389000Y-152033364D01*
X120389000Y-151806636D01*
X120433232Y-151584266D01*
X120519997Y-151374797D01*
X120645960Y-151186280D01*
X120806280Y-151025960D01*
X120994797Y-150899997D01*
X121204266Y-150813232D01*
X121315451Y-150791116D01*
X121426635Y-150769000D01*
X121653365Y-150769000D01*
X121764549Y-150791116D01*
X121764549Y-150791116D01*
G37*
G36*
X102764549Y-150791116D02*
G01*
X102875734Y-150813232D01*
X103085203Y-150899997D01*
X103273720Y-151025960D01*
X103434040Y-151186280D01*
X103560003Y-151374797D01*
X103646768Y-151584266D01*
X103691000Y-151806636D01*
X103691000Y-152033364D01*
X103646768Y-152255734D01*
X103560003Y-152465203D01*
X103434040Y-152653720D01*
X103273720Y-152814040D01*
X103085203Y-152940003D01*
X102875734Y-153026768D01*
X102764549Y-153048884D01*
X102653365Y-153071000D01*
X102426635Y-153071000D01*
X102315451Y-153048884D01*
X102204266Y-153026768D01*
X101994797Y-152940003D01*
X101806280Y-152814040D01*
X101645960Y-152653720D01*
X101519997Y-152465203D01*
X101433232Y-152255734D01*
X101389000Y-152033364D01*
X101389000Y-151806636D01*
X101433232Y-151584266D01*
X101519997Y-151374797D01*
X101645960Y-151186280D01*
X101806280Y-151025960D01*
X101994797Y-150899997D01*
X102204266Y-150813232D01*
X102315451Y-150791116D01*
X102426635Y-150769000D01*
X102653365Y-150769000D01*
X102764549Y-150791116D01*
X102764549Y-150791116D01*
G37*
G36*
X140764549Y-150791116D02*
G01*
X140875734Y-150813232D01*
X141085203Y-150899997D01*
X141273720Y-151025960D01*
X141434040Y-151186280D01*
X141560003Y-151374797D01*
X141646768Y-151584266D01*
X141691000Y-151806636D01*
X141691000Y-152033364D01*
X141646768Y-152255734D01*
X141560003Y-152465203D01*
X141434040Y-152653720D01*
X141273720Y-152814040D01*
X141085203Y-152940003D01*
X140875734Y-153026768D01*
X140764549Y-153048884D01*
X140653365Y-153071000D01*
X140426635Y-153071000D01*
X140315451Y-153048884D01*
X140204266Y-153026768D01*
X139994797Y-152940003D01*
X139806280Y-152814040D01*
X139645960Y-152653720D01*
X139519997Y-152465203D01*
X139433232Y-152255734D01*
X139389000Y-152033364D01*
X139389000Y-151806636D01*
X139433232Y-151584266D01*
X139519997Y-151374797D01*
X139645960Y-151186280D01*
X139806280Y-151025960D01*
X139994797Y-150899997D01*
X140204266Y-150813232D01*
X140315451Y-150791116D01*
X140426635Y-150769000D01*
X140653365Y-150769000D01*
X140764549Y-150791116D01*
X140764549Y-150791116D01*
G37*
G36*
X159764549Y-150791116D02*
G01*
X159875734Y-150813232D01*
X160085203Y-150899997D01*
X160273720Y-151025960D01*
X160434040Y-151186280D01*
X160560003Y-151374797D01*
X160646768Y-151584266D01*
X160691000Y-151806636D01*
X160691000Y-152033364D01*
X160646768Y-152255734D01*
X160560003Y-152465203D01*
X160434040Y-152653720D01*
X160273720Y-152814040D01*
X160085203Y-152940003D01*
X159875734Y-153026768D01*
X159764549Y-153048884D01*
X159653365Y-153071000D01*
X159426635Y-153071000D01*
X159315451Y-153048884D01*
X159204266Y-153026768D01*
X158994797Y-152940003D01*
X158806280Y-152814040D01*
X158645960Y-152653720D01*
X158519997Y-152465203D01*
X158433232Y-152255734D01*
X158389000Y-152033364D01*
X158389000Y-151806636D01*
X158433232Y-151584266D01*
X158519997Y-151374797D01*
X158645960Y-151186280D01*
X158806280Y-151025960D01*
X158994797Y-150899997D01*
X159204266Y-150813232D01*
X159315451Y-150791116D01*
X159426635Y-150769000D01*
X159653365Y-150769000D01*
X159764549Y-150791116D01*
X159764549Y-150791116D01*
G37*
G36*
X157598254Y-136027818D02*
G01*
X157971511Y-136182426D01*
X157971513Y-136182427D01*
X158307436Y-136406884D01*
X158593116Y-136692564D01*
X158817574Y-137028489D01*
X158972182Y-137401746D01*
X159051000Y-137797993D01*
X159051000Y-138202007D01*
X158972182Y-138598254D01*
X158817574Y-138971511D01*
X158817573Y-138971513D01*
X158593116Y-139307436D01*
X158307436Y-139593116D01*
X157971513Y-139817573D01*
X157971512Y-139817574D01*
X157971511Y-139817574D01*
X157598254Y-139972182D01*
X157202007Y-140051000D01*
X156797993Y-140051000D01*
X156401746Y-139972182D01*
X156028489Y-139817574D01*
X156028488Y-139817574D01*
X156028487Y-139817573D01*
X155692564Y-139593116D01*
X155406884Y-139307436D01*
X155182427Y-138971513D01*
X155182426Y-138971511D01*
X155027818Y-138598254D01*
X154949000Y-138202007D01*
X154949000Y-137797993D01*
X155027818Y-137401746D01*
X155182426Y-137028489D01*
X155406884Y-136692564D01*
X155692564Y-136406884D01*
X156028487Y-136182427D01*
X156028489Y-136182426D01*
X156401746Y-136027818D01*
X156797993Y-135949000D01*
X157202007Y-135949000D01*
X157598254Y-136027818D01*
X157598254Y-136027818D01*
G37*
G36*
X100598254Y-136027818D02*
G01*
X100971511Y-136182426D01*
X100971513Y-136182427D01*
X101307436Y-136406884D01*
X101593116Y-136692564D01*
X101817574Y-137028489D01*
X101972182Y-137401746D01*
X102051000Y-137797993D01*
X102051000Y-138202007D01*
X101972182Y-138598254D01*
X101817574Y-138971511D01*
X101817573Y-138971513D01*
X101593116Y-139307436D01*
X101307436Y-139593116D01*
X100971513Y-139817573D01*
X100971512Y-139817574D01*
X100971511Y-139817574D01*
X100598254Y-139972182D01*
X100202007Y-140051000D01*
X99797993Y-140051000D01*
X99401746Y-139972182D01*
X99028489Y-139817574D01*
X99028488Y-139817574D01*
X99028487Y-139817573D01*
X98692564Y-139593116D01*
X98406884Y-139307436D01*
X98182427Y-138971513D01*
X98182426Y-138971511D01*
X98027818Y-138598254D01*
X97949000Y-138202007D01*
X97949000Y-137797993D01*
X98027818Y-137401746D01*
X98182426Y-137028489D01*
X98406884Y-136692564D01*
X98692564Y-136406884D01*
X99028487Y-136182427D01*
X99028489Y-136182426D01*
X99401746Y-136027818D01*
X99797993Y-135949000D01*
X100202007Y-135949000D01*
X100598254Y-136027818D01*
X100598254Y-136027818D01*
G37*
G36*
X119598254Y-136027818D02*
G01*
X119971511Y-136182426D01*
X119971513Y-136182427D01*
X120307436Y-136406884D01*
X120593116Y-136692564D01*
X120817574Y-137028489D01*
X120972182Y-137401746D01*
X121051000Y-137797993D01*
X121051000Y-138202007D01*
X120972182Y-138598254D01*
X120817574Y-138971511D01*
X120817573Y-138971513D01*
X120593116Y-139307436D01*
X120307436Y-139593116D01*
X119971513Y-139817573D01*
X119971512Y-139817574D01*
X119971511Y-139817574D01*
X119598254Y-139972182D01*
X119202007Y-140051000D01*
X118797993Y-140051000D01*
X118401746Y-139972182D01*
X118028489Y-139817574D01*
X118028488Y-139817574D01*
X118028487Y-139817573D01*
X117692564Y-139593116D01*
X117406884Y-139307436D01*
X117182427Y-138971513D01*
X117182426Y-138971511D01*
X117027818Y-138598254D01*
X116949000Y-138202007D01*
X116949000Y-137797993D01*
X117027818Y-137401746D01*
X117182426Y-137028489D01*
X117406884Y-136692564D01*
X117692564Y-136406884D01*
X118028487Y-136182427D01*
X118028489Y-136182426D01*
X118401746Y-136027818D01*
X118797993Y-135949000D01*
X119202007Y-135949000D01*
X119598254Y-136027818D01*
X119598254Y-136027818D01*
G37*
G36*
X138598254Y-136027818D02*
G01*
X138971511Y-136182426D01*
X138971513Y-136182427D01*
X139307436Y-136406884D01*
X139593116Y-136692564D01*
X139817574Y-137028489D01*
X139972182Y-137401746D01*
X140051000Y-137797993D01*
X140051000Y-138202007D01*
X139972182Y-138598254D01*
X139817574Y-138971511D01*
X139817573Y-138971513D01*
X139593116Y-139307436D01*
X139307436Y-139593116D01*
X138971513Y-139817573D01*
X138971512Y-139817574D01*
X138971511Y-139817574D01*
X138598254Y-139972182D01*
X138202007Y-140051000D01*
X137797993Y-140051000D01*
X137401746Y-139972182D01*
X137028489Y-139817574D01*
X137028488Y-139817574D01*
X137028487Y-139817573D01*
X136692564Y-139593116D01*
X136406884Y-139307436D01*
X136182427Y-138971513D01*
X136182426Y-138971511D01*
X136027818Y-138598254D01*
X135949000Y-138202007D01*
X135949000Y-137797993D01*
X136027818Y-137401746D01*
X136182426Y-137028489D01*
X136406884Y-136692564D01*
X136692564Y-136406884D01*
X137028487Y-136182427D01*
X137028489Y-136182426D01*
X137401746Y-136027818D01*
X137797993Y-135949000D01*
X138202007Y-135949000D01*
X138598254Y-136027818D01*
X138598254Y-136027818D01*
G37*
G36*
X143193512Y-137103927D02*
G01*
X143342812Y-137133624D01*
X143506784Y-137201544D01*
X143654354Y-137300147D01*
X143779853Y-137425646D01*
X143878456Y-137573216D01*
X143946376Y-137737188D01*
X143981000Y-137911259D01*
X143981000Y-138088741D01*
X143946376Y-138262812D01*
X143878456Y-138426784D01*
X143779853Y-138574354D01*
X143654354Y-138699853D01*
X143506784Y-138798456D01*
X143342812Y-138866376D01*
X143193512Y-138896073D01*
X143168742Y-138901000D01*
X142991258Y-138901000D01*
X142966488Y-138896073D01*
X142817188Y-138866376D01*
X142653216Y-138798456D01*
X142505646Y-138699853D01*
X142380147Y-138574354D01*
X142281544Y-138426784D01*
X142213624Y-138262812D01*
X142179000Y-138088741D01*
X142179000Y-137911259D01*
X142213624Y-137737188D01*
X142281544Y-137573216D01*
X142380147Y-137425646D01*
X142505646Y-137300147D01*
X142653216Y-137201544D01*
X142817188Y-137133624D01*
X142966488Y-137103927D01*
X142991258Y-137099000D01*
X143168742Y-137099000D01*
X143193512Y-137103927D01*
X143193512Y-137103927D01*
G37*
G36*
X133033512Y-137103927D02*
G01*
X133182812Y-137133624D01*
X133346784Y-137201544D01*
X133494354Y-137300147D01*
X133619853Y-137425646D01*
X133718456Y-137573216D01*
X133786376Y-137737188D01*
X133821000Y-137911259D01*
X133821000Y-138088741D01*
X133786376Y-138262812D01*
X133718456Y-138426784D01*
X133619853Y-138574354D01*
X133494354Y-138699853D01*
X133346784Y-138798456D01*
X133182812Y-138866376D01*
X133033512Y-138896073D01*
X133008742Y-138901000D01*
X132831258Y-138901000D01*
X132806488Y-138896073D01*
X132657188Y-138866376D01*
X132493216Y-138798456D01*
X132345646Y-138699853D01*
X132220147Y-138574354D01*
X132121544Y-138426784D01*
X132053624Y-138262812D01*
X132019000Y-138088741D01*
X132019000Y-137911259D01*
X132053624Y-137737188D01*
X132121544Y-137573216D01*
X132220147Y-137425646D01*
X132345646Y-137300147D01*
X132493216Y-137201544D01*
X132657188Y-137133624D01*
X132806488Y-137103927D01*
X132831258Y-137099000D01*
X133008742Y-137099000D01*
X133033512Y-137103927D01*
X133033512Y-137103927D01*
G37*
G36*
X124193512Y-137103927D02*
G01*
X124342812Y-137133624D01*
X124506784Y-137201544D01*
X124654354Y-137300147D01*
X124779853Y-137425646D01*
X124878456Y-137573216D01*
X124946376Y-137737188D01*
X124981000Y-137911259D01*
X124981000Y-138088741D01*
X124946376Y-138262812D01*
X124878456Y-138426784D01*
X124779853Y-138574354D01*
X124654354Y-138699853D01*
X124506784Y-138798456D01*
X124342812Y-138866376D01*
X124193512Y-138896073D01*
X124168742Y-138901000D01*
X123991258Y-138901000D01*
X123966488Y-138896073D01*
X123817188Y-138866376D01*
X123653216Y-138798456D01*
X123505646Y-138699853D01*
X123380147Y-138574354D01*
X123281544Y-138426784D01*
X123213624Y-138262812D01*
X123179000Y-138088741D01*
X123179000Y-137911259D01*
X123213624Y-137737188D01*
X123281544Y-137573216D01*
X123380147Y-137425646D01*
X123505646Y-137300147D01*
X123653216Y-137201544D01*
X123817188Y-137133624D01*
X123966488Y-137103927D01*
X123991258Y-137099000D01*
X124168742Y-137099000D01*
X124193512Y-137103927D01*
X124193512Y-137103927D01*
G37*
G36*
X114033512Y-137103927D02*
G01*
X114182812Y-137133624D01*
X114346784Y-137201544D01*
X114494354Y-137300147D01*
X114619853Y-137425646D01*
X114718456Y-137573216D01*
X114786376Y-137737188D01*
X114821000Y-137911259D01*
X114821000Y-138088741D01*
X114786376Y-138262812D01*
X114718456Y-138426784D01*
X114619853Y-138574354D01*
X114494354Y-138699853D01*
X114346784Y-138798456D01*
X114182812Y-138866376D01*
X114033512Y-138896073D01*
X114008742Y-138901000D01*
X113831258Y-138901000D01*
X113806488Y-138896073D01*
X113657188Y-138866376D01*
X113493216Y-138798456D01*
X113345646Y-138699853D01*
X113220147Y-138574354D01*
X113121544Y-138426784D01*
X113053624Y-138262812D01*
X113019000Y-138088741D01*
X113019000Y-137911259D01*
X113053624Y-137737188D01*
X113121544Y-137573216D01*
X113220147Y-137425646D01*
X113345646Y-137300147D01*
X113493216Y-137201544D01*
X113657188Y-137133624D01*
X113806488Y-137103927D01*
X113831258Y-137099000D01*
X114008742Y-137099000D01*
X114033512Y-137103927D01*
X114033512Y-137103927D01*
G37*
G36*
X105193512Y-137103927D02*
G01*
X105342812Y-137133624D01*
X105506784Y-137201544D01*
X105654354Y-137300147D01*
X105779853Y-137425646D01*
X105878456Y-137573216D01*
X105946376Y-137737188D01*
X105981000Y-137911259D01*
X105981000Y-138088741D01*
X105946376Y-138262812D01*
X105878456Y-138426784D01*
X105779853Y-138574354D01*
X105654354Y-138699853D01*
X105506784Y-138798456D01*
X105342812Y-138866376D01*
X105193512Y-138896073D01*
X105168742Y-138901000D01*
X104991258Y-138901000D01*
X104966488Y-138896073D01*
X104817188Y-138866376D01*
X104653216Y-138798456D01*
X104505646Y-138699853D01*
X104380147Y-138574354D01*
X104281544Y-138426784D01*
X104213624Y-138262812D01*
X104179000Y-138088741D01*
X104179000Y-137911259D01*
X104213624Y-137737188D01*
X104281544Y-137573216D01*
X104380147Y-137425646D01*
X104505646Y-137300147D01*
X104653216Y-137201544D01*
X104817188Y-137133624D01*
X104966488Y-137103927D01*
X104991258Y-137099000D01*
X105168742Y-137099000D01*
X105193512Y-137103927D01*
X105193512Y-137103927D01*
G37*
G36*
X95033512Y-137103927D02*
G01*
X95182812Y-137133624D01*
X95346784Y-137201544D01*
X95494354Y-137300147D01*
X95619853Y-137425646D01*
X95718456Y-137573216D01*
X95786376Y-137737188D01*
X95821000Y-137911259D01*
X95821000Y-138088741D01*
X95786376Y-138262812D01*
X95718456Y-138426784D01*
X95619853Y-138574354D01*
X95494354Y-138699853D01*
X95346784Y-138798456D01*
X95182812Y-138866376D01*
X95033512Y-138896073D01*
X95008742Y-138901000D01*
X94831258Y-138901000D01*
X94806488Y-138896073D01*
X94657188Y-138866376D01*
X94493216Y-138798456D01*
X94345646Y-138699853D01*
X94220147Y-138574354D01*
X94121544Y-138426784D01*
X94053624Y-138262812D01*
X94019000Y-138088741D01*
X94019000Y-137911259D01*
X94053624Y-137737188D01*
X94121544Y-137573216D01*
X94220147Y-137425646D01*
X94345646Y-137300147D01*
X94493216Y-137201544D01*
X94657188Y-137133624D01*
X94806488Y-137103927D01*
X94831258Y-137099000D01*
X95008742Y-137099000D01*
X95033512Y-137103927D01*
X95033512Y-137103927D01*
G37*
G36*
X152033512Y-137103927D02*
G01*
X152182812Y-137133624D01*
X152346784Y-137201544D01*
X152494354Y-137300147D01*
X152619853Y-137425646D01*
X152718456Y-137573216D01*
X152786376Y-137737188D01*
X152821000Y-137911259D01*
X152821000Y-138088741D01*
X152786376Y-138262812D01*
X152718456Y-138426784D01*
X152619853Y-138574354D01*
X152494354Y-138699853D01*
X152346784Y-138798456D01*
X152182812Y-138866376D01*
X152033512Y-138896073D01*
X152008742Y-138901000D01*
X151831258Y-138901000D01*
X151806488Y-138896073D01*
X151657188Y-138866376D01*
X151493216Y-138798456D01*
X151345646Y-138699853D01*
X151220147Y-138574354D01*
X151121544Y-138426784D01*
X151053624Y-138262812D01*
X151019000Y-138088741D01*
X151019000Y-137911259D01*
X151053624Y-137737188D01*
X151121544Y-137573216D01*
X151220147Y-137425646D01*
X151345646Y-137300147D01*
X151493216Y-137201544D01*
X151657188Y-137133624D01*
X151806488Y-137103927D01*
X151831258Y-137099000D01*
X152008742Y-137099000D01*
X152033512Y-137103927D01*
X152033512Y-137103927D01*
G37*
G36*
X162193512Y-137103927D02*
G01*
X162342812Y-137133624D01*
X162506784Y-137201544D01*
X162654354Y-137300147D01*
X162779853Y-137425646D01*
X162878456Y-137573216D01*
X162946376Y-137737188D01*
X162981000Y-137911259D01*
X162981000Y-138088741D01*
X162946376Y-138262812D01*
X162878456Y-138426784D01*
X162779853Y-138574354D01*
X162654354Y-138699853D01*
X162506784Y-138798456D01*
X162342812Y-138866376D01*
X162193512Y-138896073D01*
X162168742Y-138901000D01*
X161991258Y-138901000D01*
X161966488Y-138896073D01*
X161817188Y-138866376D01*
X161653216Y-138798456D01*
X161505646Y-138699853D01*
X161380147Y-138574354D01*
X161281544Y-138426784D01*
X161213624Y-138262812D01*
X161179000Y-138088741D01*
X161179000Y-137911259D01*
X161213624Y-137737188D01*
X161281544Y-137573216D01*
X161380147Y-137425646D01*
X161505646Y-137300147D01*
X161653216Y-137201544D01*
X161817188Y-137133624D01*
X161966488Y-137103927D01*
X161991258Y-137099000D01*
X162168742Y-137099000D01*
X162193512Y-137103927D01*
X162193512Y-137103927D01*
G37*
G36*
X134414549Y-134331116D02*
G01*
X134525734Y-134353232D01*
X134735203Y-134439997D01*
X134923720Y-134565960D01*
X135084040Y-134726280D01*
X135210003Y-134914797D01*
X135296768Y-135124266D01*
X135341000Y-135346636D01*
X135341000Y-135573364D01*
X135296768Y-135795734D01*
X135210003Y-136005203D01*
X135084040Y-136193720D01*
X134923720Y-136354040D01*
X134735203Y-136480003D01*
X134525734Y-136566768D01*
X134414549Y-136588884D01*
X134303365Y-136611000D01*
X134076635Y-136611000D01*
X133965451Y-136588884D01*
X133854266Y-136566768D01*
X133644797Y-136480003D01*
X133456280Y-136354040D01*
X133295960Y-136193720D01*
X133169997Y-136005203D01*
X133083232Y-135795734D01*
X133039000Y-135573364D01*
X133039000Y-135346636D01*
X133083232Y-135124266D01*
X133169997Y-134914797D01*
X133295960Y-134726280D01*
X133456280Y-134565960D01*
X133644797Y-134439997D01*
X133854266Y-134353232D01*
X133965451Y-134331116D01*
X134076635Y-134309000D01*
X134303365Y-134309000D01*
X134414549Y-134331116D01*
X134414549Y-134331116D01*
G37*
G36*
X153414549Y-134331116D02*
G01*
X153525734Y-134353232D01*
X153735203Y-134439997D01*
X153923720Y-134565960D01*
X154084040Y-134726280D01*
X154210003Y-134914797D01*
X154296768Y-135124266D01*
X154341000Y-135346636D01*
X154341000Y-135573364D01*
X154296768Y-135795734D01*
X154210003Y-136005203D01*
X154084040Y-136193720D01*
X153923720Y-136354040D01*
X153735203Y-136480003D01*
X153525734Y-136566768D01*
X153414549Y-136588884D01*
X153303365Y-136611000D01*
X153076635Y-136611000D01*
X152965451Y-136588884D01*
X152854266Y-136566768D01*
X152644797Y-136480003D01*
X152456280Y-136354040D01*
X152295960Y-136193720D01*
X152169997Y-136005203D01*
X152083232Y-135795734D01*
X152039000Y-135573364D01*
X152039000Y-135346636D01*
X152083232Y-135124266D01*
X152169997Y-134914797D01*
X152295960Y-134726280D01*
X152456280Y-134565960D01*
X152644797Y-134439997D01*
X152854266Y-134353232D01*
X152965451Y-134331116D01*
X153076635Y-134309000D01*
X153303365Y-134309000D01*
X153414549Y-134331116D01*
X153414549Y-134331116D01*
G37*
G36*
X96414549Y-134331116D02*
G01*
X96525734Y-134353232D01*
X96735203Y-134439997D01*
X96923720Y-134565960D01*
X97084040Y-134726280D01*
X97210003Y-134914797D01*
X97296768Y-135124266D01*
X97341000Y-135346636D01*
X97341000Y-135573364D01*
X97296768Y-135795734D01*
X97210003Y-136005203D01*
X97084040Y-136193720D01*
X96923720Y-136354040D01*
X96735203Y-136480003D01*
X96525734Y-136566768D01*
X96414549Y-136588884D01*
X96303365Y-136611000D01*
X96076635Y-136611000D01*
X95965451Y-136588884D01*
X95854266Y-136566768D01*
X95644797Y-136480003D01*
X95456280Y-136354040D01*
X95295960Y-136193720D01*
X95169997Y-136005203D01*
X95083232Y-135795734D01*
X95039000Y-135573364D01*
X95039000Y-135346636D01*
X95083232Y-135124266D01*
X95169997Y-134914797D01*
X95295960Y-134726280D01*
X95456280Y-134565960D01*
X95644797Y-134439997D01*
X95854266Y-134353232D01*
X95965451Y-134331116D01*
X96076635Y-134309000D01*
X96303365Y-134309000D01*
X96414549Y-134331116D01*
X96414549Y-134331116D01*
G37*
G36*
X115414549Y-134331116D02*
G01*
X115525734Y-134353232D01*
X115735203Y-134439997D01*
X115923720Y-134565960D01*
X116084040Y-134726280D01*
X116210003Y-134914797D01*
X116296768Y-135124266D01*
X116341000Y-135346636D01*
X116341000Y-135573364D01*
X116296768Y-135795734D01*
X116210003Y-136005203D01*
X116084040Y-136193720D01*
X115923720Y-136354040D01*
X115735203Y-136480003D01*
X115525734Y-136566768D01*
X115414549Y-136588884D01*
X115303365Y-136611000D01*
X115076635Y-136611000D01*
X114965451Y-136588884D01*
X114854266Y-136566768D01*
X114644797Y-136480003D01*
X114456280Y-136354040D01*
X114295960Y-136193720D01*
X114169997Y-136005203D01*
X114083232Y-135795734D01*
X114039000Y-135573364D01*
X114039000Y-135346636D01*
X114083232Y-135124266D01*
X114169997Y-134914797D01*
X114295960Y-134726280D01*
X114456280Y-134565960D01*
X114644797Y-134439997D01*
X114854266Y-134353232D01*
X114965451Y-134331116D01*
X115076635Y-134309000D01*
X115303365Y-134309000D01*
X115414549Y-134331116D01*
X115414549Y-134331116D01*
G37*
G36*
X102764549Y-131791116D02*
G01*
X102875734Y-131813232D01*
X103085203Y-131899997D01*
X103273720Y-132025960D01*
X103434040Y-132186280D01*
X103560003Y-132374797D01*
X103646768Y-132584266D01*
X103691000Y-132806636D01*
X103691000Y-133033364D01*
X103646768Y-133255734D01*
X103560003Y-133465203D01*
X103434040Y-133653720D01*
X103273720Y-133814040D01*
X103085203Y-133940003D01*
X102875734Y-134026768D01*
X102764549Y-134048884D01*
X102653365Y-134071000D01*
X102426635Y-134071000D01*
X102315451Y-134048884D01*
X102204266Y-134026768D01*
X101994797Y-133940003D01*
X101806280Y-133814040D01*
X101645960Y-133653720D01*
X101519997Y-133465203D01*
X101433232Y-133255734D01*
X101389000Y-133033364D01*
X101389000Y-132806636D01*
X101433232Y-132584266D01*
X101519997Y-132374797D01*
X101645960Y-132186280D01*
X101806280Y-132025960D01*
X101994797Y-131899997D01*
X102204266Y-131813232D01*
X102315451Y-131791116D01*
X102426635Y-131769000D01*
X102653365Y-131769000D01*
X102764549Y-131791116D01*
X102764549Y-131791116D01*
G37*
G36*
X159764549Y-131791116D02*
G01*
X159875734Y-131813232D01*
X160085203Y-131899997D01*
X160273720Y-132025960D01*
X160434040Y-132186280D01*
X160560003Y-132374797D01*
X160646768Y-132584266D01*
X160691000Y-132806636D01*
X160691000Y-133033364D01*
X160646768Y-133255734D01*
X160560003Y-133465203D01*
X160434040Y-133653720D01*
X160273720Y-133814040D01*
X160085203Y-133940003D01*
X159875734Y-134026768D01*
X159764549Y-134048884D01*
X159653365Y-134071000D01*
X159426635Y-134071000D01*
X159315451Y-134048884D01*
X159204266Y-134026768D01*
X158994797Y-133940003D01*
X158806280Y-133814040D01*
X158645960Y-133653720D01*
X158519997Y-133465203D01*
X158433232Y-133255734D01*
X158389000Y-133033364D01*
X158389000Y-132806636D01*
X158433232Y-132584266D01*
X158519997Y-132374797D01*
X158645960Y-132186280D01*
X158806280Y-132025960D01*
X158994797Y-131899997D01*
X159204266Y-131813232D01*
X159315451Y-131791116D01*
X159426635Y-131769000D01*
X159653365Y-131769000D01*
X159764549Y-131791116D01*
X159764549Y-131791116D01*
G37*
G36*
X121764549Y-131791116D02*
G01*
X121875734Y-131813232D01*
X122085203Y-131899997D01*
X122273720Y-132025960D01*
X122434040Y-132186280D01*
X122560003Y-132374797D01*
X122646768Y-132584266D01*
X122691000Y-132806636D01*
X122691000Y-133033364D01*
X122646768Y-133255734D01*
X122560003Y-133465203D01*
X122434040Y-133653720D01*
X122273720Y-133814040D01*
X122085203Y-133940003D01*
X121875734Y-134026768D01*
X121764549Y-134048884D01*
X121653365Y-134071000D01*
X121426635Y-134071000D01*
X121315451Y-134048884D01*
X121204266Y-134026768D01*
X120994797Y-133940003D01*
X120806280Y-133814040D01*
X120645960Y-133653720D01*
X120519997Y-133465203D01*
X120433232Y-133255734D01*
X120389000Y-133033364D01*
X120389000Y-132806636D01*
X120433232Y-132584266D01*
X120519997Y-132374797D01*
X120645960Y-132186280D01*
X120806280Y-132025960D01*
X120994797Y-131899997D01*
X121204266Y-131813232D01*
X121315451Y-131791116D01*
X121426635Y-131769000D01*
X121653365Y-131769000D01*
X121764549Y-131791116D01*
X121764549Y-131791116D01*
G37*
G36*
X140764549Y-131791116D02*
G01*
X140875734Y-131813232D01*
X141085203Y-131899997D01*
X141273720Y-132025960D01*
X141434040Y-132186280D01*
X141560003Y-132374797D01*
X141646768Y-132584266D01*
X141691000Y-132806636D01*
X141691000Y-133033364D01*
X141646768Y-133255734D01*
X141560003Y-133465203D01*
X141434040Y-133653720D01*
X141273720Y-133814040D01*
X141085203Y-133940003D01*
X140875734Y-134026768D01*
X140764549Y-134048884D01*
X140653365Y-134071000D01*
X140426635Y-134071000D01*
X140315451Y-134048884D01*
X140204266Y-134026768D01*
X139994797Y-133940003D01*
X139806280Y-133814040D01*
X139645960Y-133653720D01*
X139519997Y-133465203D01*
X139433232Y-133255734D01*
X139389000Y-133033364D01*
X139389000Y-132806636D01*
X139433232Y-132584266D01*
X139519997Y-132374797D01*
X139645960Y-132186280D01*
X139806280Y-132025960D01*
X139994797Y-131899997D01*
X140204266Y-131813232D01*
X140315451Y-131791116D01*
X140426635Y-131769000D01*
X140653365Y-131769000D01*
X140764549Y-131791116D01*
X140764549Y-131791116D01*
G37*
G36*
X109129525Y-129479905D02*
G01*
X109210494Y-129496011D01*
X109286765Y-129527604D01*
X109363038Y-129559197D01*
X109499397Y-129650309D01*
X109500322Y-129650927D01*
X109617073Y-129767678D01*
X109617075Y-129767681D01*
X109708803Y-129904962D01*
X109771989Y-130057507D01*
X109804200Y-130219443D01*
X109804200Y-130384557D01*
X109771989Y-130546493D01*
X109708803Y-130699038D01*
X109617691Y-130835397D01*
X109617073Y-130836322D01*
X109500322Y-130953073D01*
X109500319Y-130953075D01*
X109363038Y-131044803D01*
X109210494Y-131107989D01*
X109129525Y-131124094D01*
X109048557Y-131140200D01*
X108883443Y-131140200D01*
X108802475Y-131124094D01*
X108721506Y-131107989D01*
X108568962Y-131044803D01*
X108431681Y-130953075D01*
X108431678Y-130953073D01*
X108314927Y-130836322D01*
X108314309Y-130835397D01*
X108223197Y-130699038D01*
X108160011Y-130546493D01*
X108127800Y-130384557D01*
X108127800Y-130219443D01*
X108160011Y-130057507D01*
X108223197Y-129904962D01*
X108314925Y-129767681D01*
X108314927Y-129767678D01*
X108431678Y-129650927D01*
X108432603Y-129650309D01*
X108568962Y-129559197D01*
X108645235Y-129527604D01*
X108721506Y-129496011D01*
X108802475Y-129479905D01*
X108883443Y-129463800D01*
X109048557Y-129463800D01*
X109129525Y-129479905D01*
X109129525Y-129479905D01*
G37*
G36*
X109129525Y-126939905D02*
G01*
X109210494Y-126956011D01*
X109286765Y-126987604D01*
X109363038Y-127019197D01*
X109499397Y-127110309D01*
X109500322Y-127110927D01*
X109617073Y-127227678D01*
X109617075Y-127227681D01*
X109708803Y-127364962D01*
X109771989Y-127517507D01*
X109804200Y-127679443D01*
X109804200Y-127844557D01*
X109771989Y-128006493D01*
X109708803Y-128159038D01*
X109617691Y-128295397D01*
X109617073Y-128296322D01*
X109500322Y-128413073D01*
X109500319Y-128413075D01*
X109363038Y-128504803D01*
X109210494Y-128567989D01*
X109129525Y-128584094D01*
X109048557Y-128600200D01*
X108883443Y-128600200D01*
X108802475Y-128584094D01*
X108721506Y-128567989D01*
X108568962Y-128504803D01*
X108431681Y-128413075D01*
X108431678Y-128413073D01*
X108314927Y-128296322D01*
X108314309Y-128295397D01*
X108223197Y-128159038D01*
X108160011Y-128006493D01*
X108127800Y-127844557D01*
X108127800Y-127679443D01*
X108160011Y-127517507D01*
X108223197Y-127364962D01*
X108314925Y-127227681D01*
X108314927Y-127227678D01*
X108431678Y-127110927D01*
X108432603Y-127110309D01*
X108568962Y-127019197D01*
X108645235Y-126987604D01*
X108721506Y-126956011D01*
X108802475Y-126939905D01*
X108883443Y-126923800D01*
X109048557Y-126923800D01*
X109129525Y-126939905D01*
X109129525Y-126939905D01*
G37*
G36*
X109129525Y-124399906D02*
G01*
X109210494Y-124416011D01*
X109286765Y-124447604D01*
X109363038Y-124479197D01*
X109499397Y-124570309D01*
X109500322Y-124570927D01*
X109617073Y-124687678D01*
X109617075Y-124687681D01*
X109708803Y-124824962D01*
X109771989Y-124977507D01*
X109804200Y-125139443D01*
X109804200Y-125304557D01*
X109771989Y-125466493D01*
X109708803Y-125619038D01*
X109617691Y-125755397D01*
X109617073Y-125756322D01*
X109500322Y-125873073D01*
X109500319Y-125873075D01*
X109363038Y-125964803D01*
X109210494Y-126027989D01*
X109129525Y-126044094D01*
X109048557Y-126060200D01*
X108883443Y-126060200D01*
X108802475Y-126044094D01*
X108721506Y-126027989D01*
X108568962Y-125964803D01*
X108431681Y-125873075D01*
X108431678Y-125873073D01*
X108314927Y-125756322D01*
X108314309Y-125755397D01*
X108223197Y-125619038D01*
X108160011Y-125466493D01*
X108127800Y-125304557D01*
X108127800Y-125139443D01*
X108160011Y-124977507D01*
X108223197Y-124824962D01*
X108314925Y-124687681D01*
X108314927Y-124687678D01*
X108431678Y-124570927D01*
X108432603Y-124570309D01*
X108568962Y-124479197D01*
X108645235Y-124447604D01*
X108721506Y-124416011D01*
X108802475Y-124399906D01*
X108883443Y-124383800D01*
X109048557Y-124383800D01*
X109129525Y-124399906D01*
X109129525Y-124399906D01*
G37*
G36*
X109129525Y-121859906D02*
G01*
X109210494Y-121876011D01*
X109286765Y-121907604D01*
X109363038Y-121939197D01*
X109499397Y-122030309D01*
X109500322Y-122030927D01*
X109617073Y-122147678D01*
X109617075Y-122147681D01*
X109708803Y-122284962D01*
X109771989Y-122437507D01*
X109804200Y-122599443D01*
X109804200Y-122764557D01*
X109771989Y-122926493D01*
X109708803Y-123079038D01*
X109617691Y-123215397D01*
X109617073Y-123216322D01*
X109500322Y-123333073D01*
X109500319Y-123333075D01*
X109363038Y-123424803D01*
X109210494Y-123487989D01*
X109129525Y-123504094D01*
X109048557Y-123520200D01*
X108883443Y-123520200D01*
X108802475Y-123504094D01*
X108721506Y-123487989D01*
X108568962Y-123424803D01*
X108431681Y-123333075D01*
X108431678Y-123333073D01*
X108314927Y-123216322D01*
X108314309Y-123215397D01*
X108223197Y-123079038D01*
X108160011Y-122926493D01*
X108127800Y-122764557D01*
X108127800Y-122599443D01*
X108160011Y-122437507D01*
X108223197Y-122284962D01*
X108314925Y-122147681D01*
X108314927Y-122147678D01*
X108431678Y-122030927D01*
X108432603Y-122030309D01*
X108568962Y-121939197D01*
X108645235Y-121907604D01*
X108721506Y-121876011D01*
X108802475Y-121859906D01*
X108883443Y-121843800D01*
X109048557Y-121843800D01*
X109129525Y-121859906D01*
X109129525Y-121859906D01*
G37*
G36*
X100598254Y-117027818D02*
G01*
X100971511Y-117182426D01*
X100971513Y-117182427D01*
X101307436Y-117406884D01*
X101593116Y-117692564D01*
X101797896Y-117999038D01*
X101817574Y-118028489D01*
X101972182Y-118401746D01*
X102051000Y-118797993D01*
X102051000Y-119202007D01*
X101972182Y-119598254D01*
X101817574Y-119971511D01*
X101817573Y-119971513D01*
X101593116Y-120307436D01*
X101307436Y-120593116D01*
X100971513Y-120817573D01*
X100971512Y-120817574D01*
X100971511Y-120817574D01*
X100598254Y-120972182D01*
X100202007Y-121051000D01*
X99797993Y-121051000D01*
X99401746Y-120972182D01*
X99028489Y-120817574D01*
X99028488Y-120817574D01*
X99028487Y-120817573D01*
X98692564Y-120593116D01*
X98406884Y-120307436D01*
X98182427Y-119971513D01*
X98182426Y-119971511D01*
X98027818Y-119598254D01*
X97949000Y-119202007D01*
X97949000Y-118797993D01*
X98027818Y-118401746D01*
X98182426Y-118028489D01*
X98202105Y-117999038D01*
X98406884Y-117692564D01*
X98692564Y-117406884D01*
X99028487Y-117182427D01*
X99028489Y-117182426D01*
X99401746Y-117027818D01*
X99797993Y-116949000D01*
X100202007Y-116949000D01*
X100598254Y-117027818D01*
X100598254Y-117027818D01*
G37*
G36*
X157598254Y-117027818D02*
G01*
X157971511Y-117182426D01*
X157971513Y-117182427D01*
X158307436Y-117406884D01*
X158593116Y-117692564D01*
X158797896Y-117999038D01*
X158817574Y-118028489D01*
X158972182Y-118401746D01*
X159051000Y-118797993D01*
X159051000Y-119202007D01*
X158972182Y-119598254D01*
X158817574Y-119971511D01*
X158817573Y-119971513D01*
X158593116Y-120307436D01*
X158307436Y-120593116D01*
X157971513Y-120817573D01*
X157971512Y-120817574D01*
X157971511Y-120817574D01*
X157598254Y-120972182D01*
X157202007Y-121051000D01*
X156797993Y-121051000D01*
X156401746Y-120972182D01*
X156028489Y-120817574D01*
X156028488Y-120817574D01*
X156028487Y-120817573D01*
X155692564Y-120593116D01*
X155406884Y-120307436D01*
X155182427Y-119971513D01*
X155182426Y-119971511D01*
X155027818Y-119598254D01*
X154949000Y-119202007D01*
X154949000Y-118797993D01*
X155027818Y-118401746D01*
X155182426Y-118028489D01*
X155202105Y-117999038D01*
X155406884Y-117692564D01*
X155692564Y-117406884D01*
X156028487Y-117182427D01*
X156028489Y-117182426D01*
X156401746Y-117027818D01*
X156797993Y-116949000D01*
X157202007Y-116949000D01*
X157598254Y-117027818D01*
X157598254Y-117027818D01*
G37*
G36*
X138598254Y-117027818D02*
G01*
X138971511Y-117182426D01*
X138971513Y-117182427D01*
X139307436Y-117406884D01*
X139593116Y-117692564D01*
X139797896Y-117999038D01*
X139817574Y-118028489D01*
X139972182Y-118401746D01*
X140051000Y-118797993D01*
X140051000Y-119202007D01*
X139972182Y-119598254D01*
X139817574Y-119971511D01*
X139817573Y-119971513D01*
X139593116Y-120307436D01*
X139307436Y-120593116D01*
X138971513Y-120817573D01*
X138971512Y-120817574D01*
X138971511Y-120817574D01*
X138598254Y-120972182D01*
X138202007Y-121051000D01*
X137797993Y-121051000D01*
X137401746Y-120972182D01*
X137028489Y-120817574D01*
X137028488Y-120817574D01*
X137028487Y-120817573D01*
X136692564Y-120593116D01*
X136406884Y-120307436D01*
X136182427Y-119971513D01*
X136182426Y-119971511D01*
X136027818Y-119598254D01*
X135949000Y-119202007D01*
X135949000Y-118797993D01*
X136027818Y-118401746D01*
X136182426Y-118028489D01*
X136202105Y-117999038D01*
X136406884Y-117692564D01*
X136692564Y-117406884D01*
X137028487Y-117182427D01*
X137028489Y-117182426D01*
X137401746Y-117027818D01*
X137797993Y-116949000D01*
X138202007Y-116949000D01*
X138598254Y-117027818D01*
X138598254Y-117027818D01*
G37*
G36*
X119598254Y-117027818D02*
G01*
X119971511Y-117182426D01*
X119971513Y-117182427D01*
X120307436Y-117406884D01*
X120593116Y-117692564D01*
X120797896Y-117999038D01*
X120817574Y-118028489D01*
X120972182Y-118401746D01*
X121051000Y-118797993D01*
X121051000Y-119202007D01*
X120972182Y-119598254D01*
X120817574Y-119971511D01*
X120817573Y-119971513D01*
X120593116Y-120307436D01*
X120307436Y-120593116D01*
X119971513Y-120817573D01*
X119971512Y-120817574D01*
X119971511Y-120817574D01*
X119598254Y-120972182D01*
X119202007Y-121051000D01*
X118797993Y-121051000D01*
X118401746Y-120972182D01*
X118028489Y-120817574D01*
X118028488Y-120817574D01*
X118028487Y-120817573D01*
X117692564Y-120593116D01*
X117406884Y-120307436D01*
X117182427Y-119971513D01*
X117182426Y-119971511D01*
X117027818Y-119598254D01*
X116949000Y-119202007D01*
X116949000Y-118797993D01*
X117027818Y-118401746D01*
X117182426Y-118028489D01*
X117202105Y-117999038D01*
X117406884Y-117692564D01*
X117692564Y-117406884D01*
X118028487Y-117182427D01*
X118028489Y-117182426D01*
X118401746Y-117027818D01*
X118797993Y-116949000D01*
X119202007Y-116949000D01*
X119598254Y-117027818D01*
X119598254Y-117027818D01*
G37*
G36*
X109129525Y-119319906D02*
G01*
X109210494Y-119336011D01*
X109363038Y-119399197D01*
X109499397Y-119490309D01*
X109500322Y-119490927D01*
X109617073Y-119607678D01*
X109617075Y-119607681D01*
X109708803Y-119744962D01*
X109771989Y-119897507D01*
X109804200Y-120059443D01*
X109804200Y-120224557D01*
X109771989Y-120386493D01*
X109708803Y-120539038D01*
X109672669Y-120593116D01*
X109617073Y-120676322D01*
X109500322Y-120793073D01*
X109500319Y-120793075D01*
X109363038Y-120884803D01*
X109286765Y-120916396D01*
X109210494Y-120947989D01*
X109129525Y-120964095D01*
X109048557Y-120980200D01*
X108883443Y-120980200D01*
X108802475Y-120964095D01*
X108721506Y-120947989D01*
X108645235Y-120916396D01*
X108568962Y-120884803D01*
X108431681Y-120793075D01*
X108431678Y-120793073D01*
X108314927Y-120676322D01*
X108259331Y-120593116D01*
X108223197Y-120539038D01*
X108160011Y-120386493D01*
X108127800Y-120224557D01*
X108127800Y-120059443D01*
X108160011Y-119897507D01*
X108223197Y-119744962D01*
X108314925Y-119607681D01*
X108314927Y-119607678D01*
X108431678Y-119490927D01*
X108432603Y-119490309D01*
X108568962Y-119399197D01*
X108721506Y-119336011D01*
X108802475Y-119319906D01*
X108883443Y-119303800D01*
X109048557Y-119303800D01*
X109129525Y-119319906D01*
X109129525Y-119319906D01*
G37*
G36*
X129449525Y-119319906D02*
G01*
X129530494Y-119336011D01*
X129683038Y-119399197D01*
X129819397Y-119490309D01*
X129820322Y-119490927D01*
X129937073Y-119607678D01*
X129937075Y-119607681D01*
X130028803Y-119744962D01*
X130091989Y-119897507D01*
X130124200Y-120059443D01*
X130124200Y-120224557D01*
X130091989Y-120386493D01*
X130028803Y-120539038D01*
X129992669Y-120593116D01*
X129937073Y-120676322D01*
X129820322Y-120793073D01*
X129820319Y-120793075D01*
X129683038Y-120884803D01*
X129606765Y-120916396D01*
X129530494Y-120947989D01*
X129449525Y-120964095D01*
X129368557Y-120980200D01*
X129203443Y-120980200D01*
X129122475Y-120964095D01*
X129041506Y-120947989D01*
X128965235Y-120916396D01*
X128888962Y-120884803D01*
X128751681Y-120793075D01*
X128751678Y-120793073D01*
X128634927Y-120676322D01*
X128579331Y-120593116D01*
X128543197Y-120539038D01*
X128480011Y-120386493D01*
X128447800Y-120224557D01*
X128447800Y-120059443D01*
X128480011Y-119897507D01*
X128543197Y-119744962D01*
X128634925Y-119607681D01*
X128634927Y-119607678D01*
X128751678Y-119490927D01*
X128752603Y-119490309D01*
X128888962Y-119399197D01*
X129041506Y-119336011D01*
X129122475Y-119319906D01*
X129203443Y-119303800D01*
X129368557Y-119303800D01*
X129449525Y-119319906D01*
X129449525Y-119319906D01*
G37*
G36*
X152033512Y-118103927D02*
G01*
X152182812Y-118133624D01*
X152346784Y-118201544D01*
X152494354Y-118300147D01*
X152619853Y-118425646D01*
X152718456Y-118573216D01*
X152786376Y-118737188D01*
X152821000Y-118911259D01*
X152821000Y-119088741D01*
X152786376Y-119262812D01*
X152718456Y-119426784D01*
X152619853Y-119574354D01*
X152494354Y-119699853D01*
X152346784Y-119798456D01*
X152182812Y-119866376D01*
X152033512Y-119896073D01*
X152008742Y-119901000D01*
X151831258Y-119901000D01*
X151806488Y-119896073D01*
X151657188Y-119866376D01*
X151493216Y-119798456D01*
X151345646Y-119699853D01*
X151220147Y-119574354D01*
X151121544Y-119426784D01*
X151053624Y-119262812D01*
X151019000Y-119088741D01*
X151019000Y-118911259D01*
X151053624Y-118737188D01*
X151121544Y-118573216D01*
X151220147Y-118425646D01*
X151345646Y-118300147D01*
X151493216Y-118201544D01*
X151657188Y-118133624D01*
X151806488Y-118103927D01*
X151831258Y-118099000D01*
X152008742Y-118099000D01*
X152033512Y-118103927D01*
X152033512Y-118103927D01*
G37*
G36*
X143193512Y-118103927D02*
G01*
X143342812Y-118133624D01*
X143506784Y-118201544D01*
X143654354Y-118300147D01*
X143779853Y-118425646D01*
X143878456Y-118573216D01*
X143946376Y-118737188D01*
X143981000Y-118911259D01*
X143981000Y-119088741D01*
X143946376Y-119262812D01*
X143878456Y-119426784D01*
X143779853Y-119574354D01*
X143654354Y-119699853D01*
X143506784Y-119798456D01*
X143342812Y-119866376D01*
X143193512Y-119896073D01*
X143168742Y-119901000D01*
X142991258Y-119901000D01*
X142966488Y-119896073D01*
X142817188Y-119866376D01*
X142653216Y-119798456D01*
X142505646Y-119699853D01*
X142380147Y-119574354D01*
X142281544Y-119426784D01*
X142213624Y-119262812D01*
X142179000Y-119088741D01*
X142179000Y-118911259D01*
X142213624Y-118737188D01*
X142281544Y-118573216D01*
X142380147Y-118425646D01*
X142505646Y-118300147D01*
X142653216Y-118201544D01*
X142817188Y-118133624D01*
X142966488Y-118103927D01*
X142991258Y-118099000D01*
X143168742Y-118099000D01*
X143193512Y-118103927D01*
X143193512Y-118103927D01*
G37*
G36*
X133033512Y-118103927D02*
G01*
X133182812Y-118133624D01*
X133346784Y-118201544D01*
X133494354Y-118300147D01*
X133619853Y-118425646D01*
X133718456Y-118573216D01*
X133786376Y-118737188D01*
X133821000Y-118911259D01*
X133821000Y-119088741D01*
X133786376Y-119262812D01*
X133718456Y-119426784D01*
X133619853Y-119574354D01*
X133494354Y-119699853D01*
X133346784Y-119798456D01*
X133182812Y-119866376D01*
X133033512Y-119896073D01*
X133008742Y-119901000D01*
X132831258Y-119901000D01*
X132806488Y-119896073D01*
X132657188Y-119866376D01*
X132493216Y-119798456D01*
X132345646Y-119699853D01*
X132220147Y-119574354D01*
X132121544Y-119426784D01*
X132053624Y-119262812D01*
X132019000Y-119088741D01*
X132019000Y-118911259D01*
X132053624Y-118737188D01*
X132121544Y-118573216D01*
X132220147Y-118425646D01*
X132345646Y-118300147D01*
X132493216Y-118201544D01*
X132657188Y-118133624D01*
X132806488Y-118103927D01*
X132831258Y-118099000D01*
X133008742Y-118099000D01*
X133033512Y-118103927D01*
X133033512Y-118103927D01*
G37*
G36*
X124193512Y-118103927D02*
G01*
X124342812Y-118133624D01*
X124506784Y-118201544D01*
X124654354Y-118300147D01*
X124779853Y-118425646D01*
X124878456Y-118573216D01*
X124946376Y-118737188D01*
X124981000Y-118911259D01*
X124981000Y-119088741D01*
X124946376Y-119262812D01*
X124878456Y-119426784D01*
X124779853Y-119574354D01*
X124654354Y-119699853D01*
X124506784Y-119798456D01*
X124342812Y-119866376D01*
X124193512Y-119896073D01*
X124168742Y-119901000D01*
X123991258Y-119901000D01*
X123966488Y-119896073D01*
X123817188Y-119866376D01*
X123653216Y-119798456D01*
X123505646Y-119699853D01*
X123380147Y-119574354D01*
X123281544Y-119426784D01*
X123213624Y-119262812D01*
X123179000Y-119088741D01*
X123179000Y-118911259D01*
X123213624Y-118737188D01*
X123281544Y-118573216D01*
X123380147Y-118425646D01*
X123505646Y-118300147D01*
X123653216Y-118201544D01*
X123817188Y-118133624D01*
X123966488Y-118103927D01*
X123991258Y-118099000D01*
X124168742Y-118099000D01*
X124193512Y-118103927D01*
X124193512Y-118103927D01*
G37*
G36*
X114033512Y-118103927D02*
G01*
X114182812Y-118133624D01*
X114346784Y-118201544D01*
X114494354Y-118300147D01*
X114619853Y-118425646D01*
X114718456Y-118573216D01*
X114786376Y-118737188D01*
X114821000Y-118911259D01*
X114821000Y-119088741D01*
X114786376Y-119262812D01*
X114718456Y-119426784D01*
X114619853Y-119574354D01*
X114494354Y-119699853D01*
X114346784Y-119798456D01*
X114182812Y-119866376D01*
X114033512Y-119896073D01*
X114008742Y-119901000D01*
X113831258Y-119901000D01*
X113806488Y-119896073D01*
X113657188Y-119866376D01*
X113493216Y-119798456D01*
X113345646Y-119699853D01*
X113220147Y-119574354D01*
X113121544Y-119426784D01*
X113053624Y-119262812D01*
X113019000Y-119088741D01*
X113019000Y-118911259D01*
X113053624Y-118737188D01*
X113121544Y-118573216D01*
X113220147Y-118425646D01*
X113345646Y-118300147D01*
X113493216Y-118201544D01*
X113657188Y-118133624D01*
X113806488Y-118103927D01*
X113831258Y-118099000D01*
X114008742Y-118099000D01*
X114033512Y-118103927D01*
X114033512Y-118103927D01*
G37*
G36*
X105193512Y-118103927D02*
G01*
X105342812Y-118133624D01*
X105506784Y-118201544D01*
X105654354Y-118300147D01*
X105779853Y-118425646D01*
X105878456Y-118573216D01*
X105946376Y-118737188D01*
X105981000Y-118911259D01*
X105981000Y-119088741D01*
X105946376Y-119262812D01*
X105878456Y-119426784D01*
X105779853Y-119574354D01*
X105654354Y-119699853D01*
X105506784Y-119798456D01*
X105342812Y-119866376D01*
X105193512Y-119896073D01*
X105168742Y-119901000D01*
X104991258Y-119901000D01*
X104966488Y-119896073D01*
X104817188Y-119866376D01*
X104653216Y-119798456D01*
X104505646Y-119699853D01*
X104380147Y-119574354D01*
X104281544Y-119426784D01*
X104213624Y-119262812D01*
X104179000Y-119088741D01*
X104179000Y-118911259D01*
X104213624Y-118737188D01*
X104281544Y-118573216D01*
X104380147Y-118425646D01*
X104505646Y-118300147D01*
X104653216Y-118201544D01*
X104817188Y-118133624D01*
X104966488Y-118103927D01*
X104991258Y-118099000D01*
X105168742Y-118099000D01*
X105193512Y-118103927D01*
X105193512Y-118103927D01*
G37*
G36*
X95033512Y-118103927D02*
G01*
X95182812Y-118133624D01*
X95346784Y-118201544D01*
X95494354Y-118300147D01*
X95619853Y-118425646D01*
X95718456Y-118573216D01*
X95786376Y-118737188D01*
X95821000Y-118911259D01*
X95821000Y-119088741D01*
X95786376Y-119262812D01*
X95718456Y-119426784D01*
X95619853Y-119574354D01*
X95494354Y-119699853D01*
X95346784Y-119798456D01*
X95182812Y-119866376D01*
X95033512Y-119896073D01*
X95008742Y-119901000D01*
X94831258Y-119901000D01*
X94806488Y-119896073D01*
X94657188Y-119866376D01*
X94493216Y-119798456D01*
X94345646Y-119699853D01*
X94220147Y-119574354D01*
X94121544Y-119426784D01*
X94053624Y-119262812D01*
X94019000Y-119088741D01*
X94019000Y-118911259D01*
X94053624Y-118737188D01*
X94121544Y-118573216D01*
X94220147Y-118425646D01*
X94345646Y-118300147D01*
X94493216Y-118201544D01*
X94657188Y-118133624D01*
X94806488Y-118103927D01*
X94831258Y-118099000D01*
X95008742Y-118099000D01*
X95033512Y-118103927D01*
X95033512Y-118103927D01*
G37*
G36*
X162193512Y-118103927D02*
G01*
X162342812Y-118133624D01*
X162506784Y-118201544D01*
X162654354Y-118300147D01*
X162779853Y-118425646D01*
X162878456Y-118573216D01*
X162946376Y-118737188D01*
X162981000Y-118911259D01*
X162981000Y-119088741D01*
X162946376Y-119262812D01*
X162878456Y-119426784D01*
X162779853Y-119574354D01*
X162654354Y-119699853D01*
X162506784Y-119798456D01*
X162342812Y-119866376D01*
X162193512Y-119896073D01*
X162168742Y-119901000D01*
X161991258Y-119901000D01*
X161966488Y-119896073D01*
X161817188Y-119866376D01*
X161653216Y-119798456D01*
X161505646Y-119699853D01*
X161380147Y-119574354D01*
X161281544Y-119426784D01*
X161213624Y-119262812D01*
X161179000Y-119088741D01*
X161179000Y-118911259D01*
X161213624Y-118737188D01*
X161281544Y-118573216D01*
X161380147Y-118425646D01*
X161505646Y-118300147D01*
X161653216Y-118201544D01*
X161817188Y-118133624D01*
X161966488Y-118103927D01*
X161991258Y-118099000D01*
X162168742Y-118099000D01*
X162193512Y-118103927D01*
X162193512Y-118103927D01*
G37*
G36*
X129449525Y-116779906D02*
G01*
X129530494Y-116796011D01*
X129606765Y-116827604D01*
X129683038Y-116859197D01*
X129817438Y-116949000D01*
X129820322Y-116950927D01*
X129937073Y-117067678D01*
X129937075Y-117067681D01*
X130028803Y-117204962D01*
X130091989Y-117357507D01*
X130124200Y-117519443D01*
X130124200Y-117684557D01*
X130091989Y-117846493D01*
X130028803Y-117999038D01*
X129962011Y-118099000D01*
X129937073Y-118136322D01*
X129820322Y-118253073D01*
X129820319Y-118253075D01*
X129683038Y-118344803D01*
X129530494Y-118407989D01*
X129449525Y-118424095D01*
X129368557Y-118440200D01*
X129203443Y-118440200D01*
X129122475Y-118424095D01*
X129041506Y-118407989D01*
X128888962Y-118344803D01*
X128751681Y-118253075D01*
X128751678Y-118253073D01*
X128634927Y-118136322D01*
X128609989Y-118099000D01*
X128543197Y-117999038D01*
X128480011Y-117846493D01*
X128447800Y-117684557D01*
X128447800Y-117519443D01*
X128480011Y-117357507D01*
X128543197Y-117204962D01*
X128634925Y-117067681D01*
X128634927Y-117067678D01*
X128751678Y-116950927D01*
X128754562Y-116949000D01*
X128888962Y-116859197D01*
X128965235Y-116827604D01*
X129041506Y-116796011D01*
X129122475Y-116779906D01*
X129203443Y-116763800D01*
X129368557Y-116763800D01*
X129449525Y-116779906D01*
X129449525Y-116779906D01*
G37*
G36*
X109129525Y-116779906D02*
G01*
X109210494Y-116796011D01*
X109286765Y-116827604D01*
X109363038Y-116859197D01*
X109497438Y-116949000D01*
X109500322Y-116950927D01*
X109617073Y-117067678D01*
X109617075Y-117067681D01*
X109708803Y-117204962D01*
X109771989Y-117357507D01*
X109804200Y-117519443D01*
X109804200Y-117684557D01*
X109771989Y-117846493D01*
X109708803Y-117999038D01*
X109642011Y-118099000D01*
X109617073Y-118136322D01*
X109500322Y-118253073D01*
X109500319Y-118253075D01*
X109363038Y-118344803D01*
X109210494Y-118407989D01*
X109129525Y-118424095D01*
X109048557Y-118440200D01*
X108883443Y-118440200D01*
X108802475Y-118424095D01*
X108721506Y-118407989D01*
X108568962Y-118344803D01*
X108431681Y-118253075D01*
X108431678Y-118253073D01*
X108314927Y-118136322D01*
X108289989Y-118099000D01*
X108223197Y-117999038D01*
X108160011Y-117846493D01*
X108127800Y-117684557D01*
X108127800Y-117519443D01*
X108160011Y-117357507D01*
X108223197Y-117204962D01*
X108314925Y-117067681D01*
X108314927Y-117067678D01*
X108431678Y-116950927D01*
X108434562Y-116949000D01*
X108568962Y-116859197D01*
X108645235Y-116827604D01*
X108721506Y-116796011D01*
X108802475Y-116779906D01*
X108883443Y-116763800D01*
X109048557Y-116763800D01*
X109129525Y-116779906D01*
X109129525Y-116779906D01*
G37*
G36*
X96414549Y-115331116D02*
G01*
X96525734Y-115353232D01*
X96735203Y-115439997D01*
X96923720Y-115565960D01*
X97084040Y-115726280D01*
X97210003Y-115914797D01*
X97296768Y-116124266D01*
X97341000Y-116346636D01*
X97341000Y-116573364D01*
X97296768Y-116795734D01*
X97210003Y-117005203D01*
X97084040Y-117193720D01*
X96923720Y-117354040D01*
X96735203Y-117480003D01*
X96525734Y-117566768D01*
X96414549Y-117588884D01*
X96303365Y-117611000D01*
X96076635Y-117611000D01*
X95965451Y-117588884D01*
X95854266Y-117566768D01*
X95644797Y-117480003D01*
X95456280Y-117354040D01*
X95295960Y-117193720D01*
X95169997Y-117005203D01*
X95083232Y-116795734D01*
X95039000Y-116573364D01*
X95039000Y-116346636D01*
X95083232Y-116124266D01*
X95169997Y-115914797D01*
X95295960Y-115726280D01*
X95456280Y-115565960D01*
X95644797Y-115439997D01*
X95854266Y-115353232D01*
X95965451Y-115331116D01*
X96076635Y-115309000D01*
X96303365Y-115309000D01*
X96414549Y-115331116D01*
X96414549Y-115331116D01*
G37*
G36*
X153414549Y-115331116D02*
G01*
X153525734Y-115353232D01*
X153735203Y-115439997D01*
X153923720Y-115565960D01*
X154084040Y-115726280D01*
X154210003Y-115914797D01*
X154296768Y-116124266D01*
X154341000Y-116346636D01*
X154341000Y-116573364D01*
X154296768Y-116795734D01*
X154210003Y-117005203D01*
X154084040Y-117193720D01*
X153923720Y-117354040D01*
X153735203Y-117480003D01*
X153525734Y-117566768D01*
X153414549Y-117588884D01*
X153303365Y-117611000D01*
X153076635Y-117611000D01*
X152965451Y-117588884D01*
X152854266Y-117566768D01*
X152644797Y-117480003D01*
X152456280Y-117354040D01*
X152295960Y-117193720D01*
X152169997Y-117005203D01*
X152083232Y-116795734D01*
X152039000Y-116573364D01*
X152039000Y-116346636D01*
X152083232Y-116124266D01*
X152169997Y-115914797D01*
X152295960Y-115726280D01*
X152456280Y-115565960D01*
X152644797Y-115439997D01*
X152854266Y-115353232D01*
X152965451Y-115331116D01*
X153076635Y-115309000D01*
X153303365Y-115309000D01*
X153414549Y-115331116D01*
X153414549Y-115331116D01*
G37*
G36*
X115414549Y-115331116D02*
G01*
X115525734Y-115353232D01*
X115735203Y-115439997D01*
X115923720Y-115565960D01*
X116084040Y-115726280D01*
X116210003Y-115914797D01*
X116296768Y-116124266D01*
X116341000Y-116346636D01*
X116341000Y-116573364D01*
X116296768Y-116795734D01*
X116210003Y-117005203D01*
X116084040Y-117193720D01*
X115923720Y-117354040D01*
X115735203Y-117480003D01*
X115525734Y-117566768D01*
X115414549Y-117588884D01*
X115303365Y-117611000D01*
X115076635Y-117611000D01*
X114965451Y-117588884D01*
X114854266Y-117566768D01*
X114644797Y-117480003D01*
X114456280Y-117354040D01*
X114295960Y-117193720D01*
X114169997Y-117005203D01*
X114083232Y-116795734D01*
X114039000Y-116573364D01*
X114039000Y-116346636D01*
X114083232Y-116124266D01*
X114169997Y-115914797D01*
X114295960Y-115726280D01*
X114456280Y-115565960D01*
X114644797Y-115439997D01*
X114854266Y-115353232D01*
X114965451Y-115331116D01*
X115076635Y-115309000D01*
X115303365Y-115309000D01*
X115414549Y-115331116D01*
X115414549Y-115331116D01*
G37*
G36*
X134414549Y-115331116D02*
G01*
X134525734Y-115353232D01*
X134735203Y-115439997D01*
X134923720Y-115565960D01*
X135084040Y-115726280D01*
X135210003Y-115914797D01*
X135296768Y-116124266D01*
X135341000Y-116346636D01*
X135341000Y-116573364D01*
X135296768Y-116795734D01*
X135210003Y-117005203D01*
X135084040Y-117193720D01*
X134923720Y-117354040D01*
X134735203Y-117480003D01*
X134525734Y-117566768D01*
X134414549Y-117588884D01*
X134303365Y-117611000D01*
X134076635Y-117611000D01*
X133965451Y-117588884D01*
X133854266Y-117566768D01*
X133644797Y-117480003D01*
X133456280Y-117354040D01*
X133295960Y-117193720D01*
X133169997Y-117005203D01*
X133083232Y-116795734D01*
X133039000Y-116573364D01*
X133039000Y-116346636D01*
X133083232Y-116124266D01*
X133169997Y-115914797D01*
X133295960Y-115726280D01*
X133456280Y-115565960D01*
X133644797Y-115439997D01*
X133854266Y-115353232D01*
X133965451Y-115331116D01*
X134076635Y-115309000D01*
X134303365Y-115309000D01*
X134414549Y-115331116D01*
X134414549Y-115331116D01*
G37*
G36*
X129449525Y-114239906D02*
G01*
X129530494Y-114256011D01*
X129606765Y-114287604D01*
X129683038Y-114319197D01*
X129819397Y-114410309D01*
X129820322Y-114410927D01*
X129937073Y-114527678D01*
X129937075Y-114527681D01*
X130028803Y-114664962D01*
X130091989Y-114817507D01*
X130124200Y-114979443D01*
X130124200Y-115144557D01*
X130091989Y-115306493D01*
X130028803Y-115459038D01*
X129957360Y-115565960D01*
X129937073Y-115596322D01*
X129820322Y-115713073D01*
X129820319Y-115713075D01*
X129683038Y-115804803D01*
X129530494Y-115867989D01*
X129449525Y-115884095D01*
X129368557Y-115900200D01*
X129203443Y-115900200D01*
X129122475Y-115884095D01*
X129041506Y-115867989D01*
X128888962Y-115804803D01*
X128751681Y-115713075D01*
X128751678Y-115713073D01*
X128634927Y-115596322D01*
X128614640Y-115565960D01*
X128543197Y-115459038D01*
X128480011Y-115306493D01*
X128447800Y-115144557D01*
X128447800Y-114979443D01*
X128480011Y-114817507D01*
X128543197Y-114664962D01*
X128634925Y-114527681D01*
X128634927Y-114527678D01*
X128751678Y-114410927D01*
X128752603Y-114410309D01*
X128888962Y-114319197D01*
X128965235Y-114287604D01*
X129041506Y-114256011D01*
X129122475Y-114239906D01*
X129203443Y-114223800D01*
X129368557Y-114223800D01*
X129449525Y-114239906D01*
X129449525Y-114239906D01*
G37*
G36*
X109129525Y-114239906D02*
G01*
X109210494Y-114256011D01*
X109286765Y-114287604D01*
X109363038Y-114319197D01*
X109499397Y-114410309D01*
X109500322Y-114410927D01*
X109617073Y-114527678D01*
X109617075Y-114527681D01*
X109708803Y-114664962D01*
X109771989Y-114817507D01*
X109804200Y-114979443D01*
X109804200Y-115144557D01*
X109771989Y-115306493D01*
X109708803Y-115459038D01*
X109637360Y-115565960D01*
X109617073Y-115596322D01*
X109500322Y-115713073D01*
X109500319Y-115713075D01*
X109363038Y-115804803D01*
X109210494Y-115867989D01*
X109129525Y-115884095D01*
X109048557Y-115900200D01*
X108883443Y-115900200D01*
X108802475Y-115884095D01*
X108721506Y-115867989D01*
X108568962Y-115804803D01*
X108431681Y-115713075D01*
X108431678Y-115713073D01*
X108314927Y-115596322D01*
X108294640Y-115565960D01*
X108223197Y-115459038D01*
X108160011Y-115306493D01*
X108127800Y-115144557D01*
X108127800Y-114979443D01*
X108160011Y-114817507D01*
X108223197Y-114664962D01*
X108314925Y-114527681D01*
X108314927Y-114527678D01*
X108431678Y-114410927D01*
X108432603Y-114410309D01*
X108568962Y-114319197D01*
X108645235Y-114287604D01*
X108721506Y-114256011D01*
X108802475Y-114239906D01*
X108883443Y-114223800D01*
X109048557Y-114223800D01*
X109129525Y-114239906D01*
X109129525Y-114239906D01*
G37*
G36*
X102764549Y-112791116D02*
G01*
X102875734Y-112813232D01*
X103085203Y-112899997D01*
X103273720Y-113025960D01*
X103434040Y-113186280D01*
X103560003Y-113374797D01*
X103646768Y-113584266D01*
X103691000Y-113806636D01*
X103691000Y-114033364D01*
X103646768Y-114255734D01*
X103560003Y-114465203D01*
X103434040Y-114653720D01*
X103273720Y-114814040D01*
X103085203Y-114940003D01*
X102875734Y-115026768D01*
X102764549Y-115048884D01*
X102653365Y-115071000D01*
X102426635Y-115071000D01*
X102315451Y-115048884D01*
X102204266Y-115026768D01*
X101994797Y-114940003D01*
X101806280Y-114814040D01*
X101645960Y-114653720D01*
X101519997Y-114465203D01*
X101433232Y-114255734D01*
X101389000Y-114033364D01*
X101389000Y-113806636D01*
X101433232Y-113584266D01*
X101519997Y-113374797D01*
X101645960Y-113186280D01*
X101806280Y-113025960D01*
X101994797Y-112899997D01*
X102204266Y-112813232D01*
X102315451Y-112791116D01*
X102426635Y-112769000D01*
X102653365Y-112769000D01*
X102764549Y-112791116D01*
X102764549Y-112791116D01*
G37*
G36*
X121764549Y-112791116D02*
G01*
X121875734Y-112813232D01*
X122085203Y-112899997D01*
X122273720Y-113025960D01*
X122434040Y-113186280D01*
X122560003Y-113374797D01*
X122646768Y-113584266D01*
X122691000Y-113806636D01*
X122691000Y-114033364D01*
X122646768Y-114255734D01*
X122560003Y-114465203D01*
X122434040Y-114653720D01*
X122273720Y-114814040D01*
X122085203Y-114940003D01*
X121875734Y-115026768D01*
X121764549Y-115048884D01*
X121653365Y-115071000D01*
X121426635Y-115071000D01*
X121315451Y-115048884D01*
X121204266Y-115026768D01*
X120994797Y-114940003D01*
X120806280Y-114814040D01*
X120645960Y-114653720D01*
X120519997Y-114465203D01*
X120433232Y-114255734D01*
X120389000Y-114033364D01*
X120389000Y-113806636D01*
X120433232Y-113584266D01*
X120519997Y-113374797D01*
X120645960Y-113186280D01*
X120806280Y-113025960D01*
X120994797Y-112899997D01*
X121204266Y-112813232D01*
X121315451Y-112791116D01*
X121426635Y-112769000D01*
X121653365Y-112769000D01*
X121764549Y-112791116D01*
X121764549Y-112791116D01*
G37*
G36*
X140764549Y-112791116D02*
G01*
X140875734Y-112813232D01*
X141085203Y-112899997D01*
X141273720Y-113025960D01*
X141434040Y-113186280D01*
X141560003Y-113374797D01*
X141646768Y-113584266D01*
X141691000Y-113806636D01*
X141691000Y-114033364D01*
X141646768Y-114255734D01*
X141560003Y-114465203D01*
X141434040Y-114653720D01*
X141273720Y-114814040D01*
X141085203Y-114940003D01*
X140875734Y-115026768D01*
X140764549Y-115048884D01*
X140653365Y-115071000D01*
X140426635Y-115071000D01*
X140315451Y-115048884D01*
X140204266Y-115026768D01*
X139994797Y-114940003D01*
X139806280Y-114814040D01*
X139645960Y-114653720D01*
X139519997Y-114465203D01*
X139433232Y-114255734D01*
X139389000Y-114033364D01*
X139389000Y-113806636D01*
X139433232Y-113584266D01*
X139519997Y-113374797D01*
X139645960Y-113186280D01*
X139806280Y-113025960D01*
X139994797Y-112899997D01*
X140204266Y-112813232D01*
X140315451Y-112791116D01*
X140426635Y-112769000D01*
X140653365Y-112769000D01*
X140764549Y-112791116D01*
X140764549Y-112791116D01*
G37*
G36*
X159764549Y-112791116D02*
G01*
X159875734Y-112813232D01*
X160085203Y-112899997D01*
X160273720Y-113025960D01*
X160434040Y-113186280D01*
X160560003Y-113374797D01*
X160646768Y-113584266D01*
X160691000Y-113806636D01*
X160691000Y-114033364D01*
X160646768Y-114255734D01*
X160560003Y-114465203D01*
X160434040Y-114653720D01*
X160273720Y-114814040D01*
X160085203Y-114940003D01*
X159875734Y-115026768D01*
X159764549Y-115048884D01*
X159653365Y-115071000D01*
X159426635Y-115071000D01*
X159315451Y-115048884D01*
X159204266Y-115026768D01*
X158994797Y-114940003D01*
X158806280Y-114814040D01*
X158645960Y-114653720D01*
X158519997Y-114465203D01*
X158433232Y-114255734D01*
X158389000Y-114033364D01*
X158389000Y-113806636D01*
X158433232Y-113584266D01*
X158519997Y-113374797D01*
X158645960Y-113186280D01*
X158806280Y-113025960D01*
X158994797Y-112899997D01*
X159204266Y-112813232D01*
X159315451Y-112791116D01*
X159426635Y-112769000D01*
X159653365Y-112769000D01*
X159764549Y-112791116D01*
X159764549Y-112791116D01*
G37*
G36*
X129449525Y-111699906D02*
G01*
X129530494Y-111716011D01*
X129683038Y-111779197D01*
X129819397Y-111870309D01*
X129820322Y-111870927D01*
X129937073Y-111987678D01*
X129937075Y-111987681D01*
X130028803Y-112124962D01*
X130091989Y-112277507D01*
X130124200Y-112439443D01*
X130124200Y-112604557D01*
X130091989Y-112766493D01*
X130028803Y-112919038D01*
X129957360Y-113025960D01*
X129937073Y-113056322D01*
X129820322Y-113173073D01*
X129820319Y-113173075D01*
X129683038Y-113264803D01*
X129606765Y-113296396D01*
X129530494Y-113327989D01*
X129449525Y-113344095D01*
X129368557Y-113360200D01*
X129203443Y-113360200D01*
X129122475Y-113344095D01*
X129041506Y-113327989D01*
X128965235Y-113296396D01*
X128888962Y-113264803D01*
X128751681Y-113173075D01*
X128751678Y-113173073D01*
X128634927Y-113056322D01*
X128614640Y-113025960D01*
X128543197Y-112919038D01*
X128480011Y-112766493D01*
X128447800Y-112604557D01*
X128447800Y-112439443D01*
X128480011Y-112277507D01*
X128543197Y-112124962D01*
X128634925Y-111987681D01*
X128634927Y-111987678D01*
X128751678Y-111870927D01*
X128752603Y-111870309D01*
X128888962Y-111779197D01*
X129041506Y-111716011D01*
X129122475Y-111699906D01*
X129203443Y-111683800D01*
X129368557Y-111683800D01*
X129449525Y-111699906D01*
X129449525Y-111699906D01*
G37*
G36*
X109129525Y-111699906D02*
G01*
X109210494Y-111716011D01*
X109363038Y-111779197D01*
X109499397Y-111870309D01*
X109500322Y-111870927D01*
X109617073Y-111987678D01*
X109617075Y-111987681D01*
X109708803Y-112124962D01*
X109771989Y-112277507D01*
X109804200Y-112439443D01*
X109804200Y-112604557D01*
X109771989Y-112766493D01*
X109708803Y-112919038D01*
X109637360Y-113025960D01*
X109617073Y-113056322D01*
X109500322Y-113173073D01*
X109500319Y-113173075D01*
X109363038Y-113264803D01*
X109286765Y-113296396D01*
X109210494Y-113327989D01*
X109129525Y-113344095D01*
X109048557Y-113360200D01*
X108883443Y-113360200D01*
X108802475Y-113344095D01*
X108721506Y-113327989D01*
X108645235Y-113296396D01*
X108568962Y-113264803D01*
X108431681Y-113173075D01*
X108431678Y-113173073D01*
X108314927Y-113056322D01*
X108294640Y-113025960D01*
X108223197Y-112919038D01*
X108160011Y-112766493D01*
X108127800Y-112604557D01*
X108127800Y-112439443D01*
X108160011Y-112277507D01*
X108223197Y-112124962D01*
X108314925Y-111987681D01*
X108314927Y-111987678D01*
X108431678Y-111870927D01*
X108432603Y-111870309D01*
X108568962Y-111779197D01*
X108721506Y-111716011D01*
X108802475Y-111699906D01*
X108883443Y-111683800D01*
X109048557Y-111683800D01*
X109129525Y-111699906D01*
X109129525Y-111699906D01*
G37*
G36*
X89901000Y-112915000D02*
G01*
X88099000Y-112915000D01*
X88099000Y-111113000D01*
X89901000Y-111113000D01*
X89901000Y-112915000D01*
X89901000Y-112915000D01*
G37*
G36*
X109129525Y-109159906D02*
G01*
X109210494Y-109176011D01*
X109286765Y-109207604D01*
X109363038Y-109239197D01*
X109499397Y-109330309D01*
X109500322Y-109330927D01*
X109617073Y-109447678D01*
X109617075Y-109447681D01*
X109708803Y-109584962D01*
X109771989Y-109737507D01*
X109804200Y-109899443D01*
X109804200Y-110064557D01*
X109771989Y-110226493D01*
X109708803Y-110379038D01*
X109617691Y-110515397D01*
X109617073Y-110516322D01*
X109500322Y-110633073D01*
X109500319Y-110633075D01*
X109363038Y-110724803D01*
X109210494Y-110787989D01*
X109129525Y-110804095D01*
X109048557Y-110820200D01*
X108883443Y-110820200D01*
X108802475Y-110804095D01*
X108721506Y-110787989D01*
X108568962Y-110724803D01*
X108431681Y-110633075D01*
X108431678Y-110633073D01*
X108314927Y-110516322D01*
X108314309Y-110515397D01*
X108223197Y-110379038D01*
X108160011Y-110226493D01*
X108127800Y-110064557D01*
X108127800Y-109899443D01*
X108160011Y-109737507D01*
X108223197Y-109584962D01*
X108314925Y-109447681D01*
X108314927Y-109447678D01*
X108431678Y-109330927D01*
X108432603Y-109330309D01*
X108568962Y-109239197D01*
X108645235Y-109207604D01*
X108721506Y-109176011D01*
X108802475Y-109159906D01*
X108883443Y-109143800D01*
X109048557Y-109143800D01*
X109129525Y-109159906D01*
X109129525Y-109159906D01*
G37*
G36*
X129449525Y-109159906D02*
G01*
X129530494Y-109176011D01*
X129606765Y-109207604D01*
X129683038Y-109239197D01*
X129819397Y-109330309D01*
X129820322Y-109330927D01*
X129937073Y-109447678D01*
X129937075Y-109447681D01*
X130028803Y-109584962D01*
X130091989Y-109737507D01*
X130124200Y-109899443D01*
X130124200Y-110064557D01*
X130091989Y-110226493D01*
X130028803Y-110379038D01*
X129937691Y-110515397D01*
X129937073Y-110516322D01*
X129820322Y-110633073D01*
X129820319Y-110633075D01*
X129683038Y-110724803D01*
X129530494Y-110787989D01*
X129449525Y-110804095D01*
X129368557Y-110820200D01*
X129203443Y-110820200D01*
X129122475Y-110804095D01*
X129041506Y-110787989D01*
X128888962Y-110724803D01*
X128751681Y-110633075D01*
X128751678Y-110633073D01*
X128634927Y-110516322D01*
X128634309Y-110515397D01*
X128543197Y-110379038D01*
X128480011Y-110226493D01*
X128447800Y-110064557D01*
X128447800Y-109899443D01*
X128480011Y-109737507D01*
X128543197Y-109584962D01*
X128634925Y-109447681D01*
X128634927Y-109447678D01*
X128751678Y-109330927D01*
X128752603Y-109330309D01*
X128888962Y-109239197D01*
X128965235Y-109207604D01*
X129041506Y-109176011D01*
X129122475Y-109159906D01*
X129203443Y-109143800D01*
X129368557Y-109143800D01*
X129449525Y-109159906D01*
X129449525Y-109159906D01*
G37*
G36*
X89110442Y-108579518D02*
G01*
X89176627Y-108586037D01*
X89346466Y-108637557D01*
X89502991Y-108721222D01*
X89538729Y-108750552D01*
X89640186Y-108833814D01*
X89723448Y-108935271D01*
X89752778Y-108971009D01*
X89836443Y-109127534D01*
X89887963Y-109297373D01*
X89905359Y-109474000D01*
X89887963Y-109650627D01*
X89836443Y-109820466D01*
X89752778Y-109976991D01*
X89723448Y-110012729D01*
X89640186Y-110114186D01*
X89538729Y-110197448D01*
X89502991Y-110226778D01*
X89346466Y-110310443D01*
X89176627Y-110361963D01*
X89110442Y-110368482D01*
X89044260Y-110375000D01*
X88955740Y-110375000D01*
X88889558Y-110368482D01*
X88823373Y-110361963D01*
X88653534Y-110310443D01*
X88497009Y-110226778D01*
X88461271Y-110197448D01*
X88359814Y-110114186D01*
X88276552Y-110012729D01*
X88247222Y-109976991D01*
X88163557Y-109820466D01*
X88112037Y-109650627D01*
X88094641Y-109474000D01*
X88112037Y-109297373D01*
X88163557Y-109127534D01*
X88247222Y-108971009D01*
X88276552Y-108935271D01*
X88359814Y-108833814D01*
X88461271Y-108750552D01*
X88497009Y-108721222D01*
X88653534Y-108637557D01*
X88823373Y-108586037D01*
X88889558Y-108579518D01*
X88955740Y-108573000D01*
X89044260Y-108573000D01*
X89110442Y-108579518D01*
X89110442Y-108579518D01*
G37*
G36*
X129449525Y-106619905D02*
G01*
X129530494Y-106636011D01*
X129683038Y-106699197D01*
X129819397Y-106790309D01*
X129820322Y-106790927D01*
X129937073Y-106907678D01*
X129937075Y-106907681D01*
X130028803Y-107044962D01*
X130091989Y-107197507D01*
X130124200Y-107359443D01*
X130124200Y-107524557D01*
X130091989Y-107686493D01*
X130028803Y-107839038D01*
X129937691Y-107975397D01*
X129937073Y-107976322D01*
X129820322Y-108093073D01*
X129820319Y-108093075D01*
X129683038Y-108184803D01*
X129606765Y-108216396D01*
X129530494Y-108247989D01*
X129449525Y-108264094D01*
X129368557Y-108280200D01*
X129203443Y-108280200D01*
X129122475Y-108264094D01*
X129041506Y-108247989D01*
X128888962Y-108184803D01*
X128751681Y-108093075D01*
X128751678Y-108093073D01*
X128634927Y-107976322D01*
X128634309Y-107975397D01*
X128543197Y-107839038D01*
X128480011Y-107686493D01*
X128447800Y-107524557D01*
X128447800Y-107359443D01*
X128480011Y-107197507D01*
X128543197Y-107044962D01*
X128634925Y-106907681D01*
X128634927Y-106907678D01*
X128751678Y-106790927D01*
X128752603Y-106790309D01*
X128888962Y-106699197D01*
X129041506Y-106636011D01*
X129122475Y-106619905D01*
X129203443Y-106603800D01*
X129368557Y-106603800D01*
X129449525Y-106619905D01*
X129449525Y-106619905D01*
G37*
G36*
X109129525Y-106619905D02*
G01*
X109210494Y-106636011D01*
X109363038Y-106699197D01*
X109499397Y-106790309D01*
X109500322Y-106790927D01*
X109617073Y-106907678D01*
X109617075Y-106907681D01*
X109708803Y-107044962D01*
X109771989Y-107197507D01*
X109804200Y-107359443D01*
X109804200Y-107524557D01*
X109771989Y-107686493D01*
X109708803Y-107839038D01*
X109617691Y-107975397D01*
X109617073Y-107976322D01*
X109500322Y-108093073D01*
X109500319Y-108093075D01*
X109363038Y-108184803D01*
X109286765Y-108216396D01*
X109210494Y-108247989D01*
X109129525Y-108264094D01*
X109048557Y-108280200D01*
X108883443Y-108280200D01*
X108802475Y-108264094D01*
X108721506Y-108247989D01*
X108568962Y-108184803D01*
X108431681Y-108093075D01*
X108431678Y-108093073D01*
X108314927Y-107976322D01*
X108314309Y-107975397D01*
X108223197Y-107839038D01*
X108160011Y-107686493D01*
X108127800Y-107524557D01*
X108127800Y-107359443D01*
X108160011Y-107197507D01*
X108223197Y-107044962D01*
X108314925Y-106907681D01*
X108314927Y-106907678D01*
X108431678Y-106790927D01*
X108432603Y-106790309D01*
X108568962Y-106699197D01*
X108721506Y-106636011D01*
X108802475Y-106619905D01*
X108883443Y-106603800D01*
X109048557Y-106603800D01*
X109129525Y-106619905D01*
X109129525Y-106619905D01*
G37*
G36*
X89110443Y-106039519D02*
G01*
X89176627Y-106046037D01*
X89346466Y-106097557D01*
X89502991Y-106181222D01*
X89538729Y-106210552D01*
X89640186Y-106293814D01*
X89723448Y-106395271D01*
X89752778Y-106431009D01*
X89836443Y-106587534D01*
X89887963Y-106757373D01*
X89905359Y-106934000D01*
X89887963Y-107110627D01*
X89836443Y-107280466D01*
X89752778Y-107436991D01*
X89723448Y-107472729D01*
X89640186Y-107574186D01*
X89538729Y-107657448D01*
X89502991Y-107686778D01*
X89346466Y-107770443D01*
X89176627Y-107821963D01*
X89110443Y-107828481D01*
X89044260Y-107835000D01*
X88955740Y-107835000D01*
X88889557Y-107828481D01*
X88823373Y-107821963D01*
X88653534Y-107770443D01*
X88497009Y-107686778D01*
X88461271Y-107657448D01*
X88359814Y-107574186D01*
X88276552Y-107472729D01*
X88247222Y-107436991D01*
X88163557Y-107280466D01*
X88112037Y-107110627D01*
X88094641Y-106934000D01*
X88112037Y-106757373D01*
X88163557Y-106587534D01*
X88247222Y-106431009D01*
X88276552Y-106395271D01*
X88359814Y-106293814D01*
X88461271Y-106210552D01*
X88497009Y-106181222D01*
X88653534Y-106097557D01*
X88823373Y-106046037D01*
X88889557Y-106039519D01*
X88955740Y-106033000D01*
X89044260Y-106033000D01*
X89110443Y-106039519D01*
X89110443Y-106039519D01*
G37*
G36*
X129449525Y-104079905D02*
G01*
X129530494Y-104096011D01*
X129606765Y-104127604D01*
X129683038Y-104159197D01*
X129819397Y-104250309D01*
X129820322Y-104250927D01*
X129937073Y-104367678D01*
X129937075Y-104367681D01*
X130028803Y-104504962D01*
X130091989Y-104657507D01*
X130124200Y-104819443D01*
X130124200Y-104984557D01*
X130091989Y-105146493D01*
X130028803Y-105299038D01*
X129937691Y-105435397D01*
X129937073Y-105436322D01*
X129820322Y-105553073D01*
X129820319Y-105553075D01*
X129683038Y-105644803D01*
X129530494Y-105707989D01*
X129449525Y-105724094D01*
X129368557Y-105740200D01*
X129203443Y-105740200D01*
X129122475Y-105724094D01*
X129041506Y-105707989D01*
X128888962Y-105644803D01*
X128751681Y-105553075D01*
X128751678Y-105553073D01*
X128634927Y-105436322D01*
X128634309Y-105435397D01*
X128543197Y-105299038D01*
X128480011Y-105146493D01*
X128447800Y-104984557D01*
X128447800Y-104819443D01*
X128480011Y-104657507D01*
X128543197Y-104504962D01*
X128634925Y-104367681D01*
X128634927Y-104367678D01*
X128751678Y-104250927D01*
X128752603Y-104250309D01*
X128888962Y-104159197D01*
X128965235Y-104127604D01*
X129041506Y-104096011D01*
X129122475Y-104079906D01*
X129203443Y-104063800D01*
X129368557Y-104063800D01*
X129449525Y-104079905D01*
X129449525Y-104079905D01*
G37*
G36*
X109129525Y-104079905D02*
G01*
X109210494Y-104096011D01*
X109286765Y-104127604D01*
X109363038Y-104159197D01*
X109499397Y-104250309D01*
X109500322Y-104250927D01*
X109617073Y-104367678D01*
X109617075Y-104367681D01*
X109708803Y-104504962D01*
X109771989Y-104657507D01*
X109804200Y-104819443D01*
X109804200Y-104984557D01*
X109771989Y-105146493D01*
X109708803Y-105299038D01*
X109617691Y-105435397D01*
X109617073Y-105436322D01*
X109500322Y-105553073D01*
X109500319Y-105553075D01*
X109363038Y-105644803D01*
X109210494Y-105707989D01*
X109129525Y-105724094D01*
X109048557Y-105740200D01*
X108883443Y-105740200D01*
X108802475Y-105724094D01*
X108721506Y-105707989D01*
X108568962Y-105644803D01*
X108431681Y-105553075D01*
X108431678Y-105553073D01*
X108314927Y-105436322D01*
X108314309Y-105435397D01*
X108223197Y-105299038D01*
X108160011Y-105146493D01*
X108127800Y-104984557D01*
X108127800Y-104819443D01*
X108160011Y-104657507D01*
X108223197Y-104504962D01*
X108314925Y-104367681D01*
X108314927Y-104367678D01*
X108431678Y-104250927D01*
X108432603Y-104250309D01*
X108568962Y-104159197D01*
X108645235Y-104127604D01*
X108721506Y-104096011D01*
X108802475Y-104079906D01*
X108883443Y-104063800D01*
X109048557Y-104063800D01*
X109129525Y-104079905D01*
X109129525Y-104079905D01*
G37*
G36*
X89110442Y-103499518D02*
G01*
X89176627Y-103506037D01*
X89346466Y-103557557D01*
X89502991Y-103641222D01*
X89538729Y-103670552D01*
X89640186Y-103753814D01*
X89723448Y-103855271D01*
X89752778Y-103891009D01*
X89836443Y-104047534D01*
X89887963Y-104217373D01*
X89905359Y-104394000D01*
X89887963Y-104570627D01*
X89836443Y-104740466D01*
X89752778Y-104896991D01*
X89723448Y-104932729D01*
X89640186Y-105034186D01*
X89538729Y-105117448D01*
X89502991Y-105146778D01*
X89346466Y-105230443D01*
X89176627Y-105281963D01*
X89110443Y-105288481D01*
X89044260Y-105295000D01*
X88955740Y-105295000D01*
X88889558Y-105288482D01*
X88823373Y-105281963D01*
X88653534Y-105230443D01*
X88497009Y-105146778D01*
X88461271Y-105117448D01*
X88359814Y-105034186D01*
X88276552Y-104932729D01*
X88247222Y-104896991D01*
X88163557Y-104740466D01*
X88112037Y-104570627D01*
X88094641Y-104394000D01*
X88112037Y-104217373D01*
X88163557Y-104047534D01*
X88247222Y-103891009D01*
X88276552Y-103855271D01*
X88359814Y-103753814D01*
X88461271Y-103670552D01*
X88497009Y-103641222D01*
X88653534Y-103557557D01*
X88823373Y-103506037D01*
X88889557Y-103499519D01*
X88955740Y-103493000D01*
X89044260Y-103493000D01*
X89110442Y-103499518D01*
X89110442Y-103499518D01*
G37*
G36*
X129449525Y-101539905D02*
G01*
X129530494Y-101556011D01*
X129683038Y-101619197D01*
X129819397Y-101710309D01*
X129820322Y-101710927D01*
X129937073Y-101827678D01*
X129937075Y-101827681D01*
X130028803Y-101964962D01*
X130091989Y-102117507D01*
X130124200Y-102279443D01*
X130124200Y-102444557D01*
X130091989Y-102606493D01*
X130028803Y-102759038D01*
X129937691Y-102895397D01*
X129937073Y-102896322D01*
X129820322Y-103013073D01*
X129820319Y-103013075D01*
X129683038Y-103104803D01*
X129606765Y-103136396D01*
X129530494Y-103167989D01*
X129449525Y-103184094D01*
X129368557Y-103200200D01*
X129203443Y-103200200D01*
X129122475Y-103184094D01*
X129041506Y-103167989D01*
X128965235Y-103136396D01*
X128888962Y-103104803D01*
X128751681Y-103013075D01*
X128751678Y-103013073D01*
X128634927Y-102896322D01*
X128634309Y-102895397D01*
X128543197Y-102759038D01*
X128480011Y-102606493D01*
X128447800Y-102444557D01*
X128447800Y-102279443D01*
X128480011Y-102117507D01*
X128543197Y-101964962D01*
X128634925Y-101827681D01*
X128634927Y-101827678D01*
X128751678Y-101710927D01*
X128752603Y-101710309D01*
X128888962Y-101619197D01*
X129041506Y-101556011D01*
X129122475Y-101539905D01*
X129203443Y-101523800D01*
X129368557Y-101523800D01*
X129449525Y-101539905D01*
X129449525Y-101539905D01*
G37*
G36*
X109129525Y-101539905D02*
G01*
X109210494Y-101556011D01*
X109363038Y-101619197D01*
X109499397Y-101710309D01*
X109500322Y-101710927D01*
X109617073Y-101827678D01*
X109617075Y-101827681D01*
X109708803Y-101964962D01*
X109771989Y-102117507D01*
X109804200Y-102279443D01*
X109804200Y-102444557D01*
X109771989Y-102606493D01*
X109708803Y-102759038D01*
X109617691Y-102895397D01*
X109617073Y-102896322D01*
X109500322Y-103013073D01*
X109500319Y-103013075D01*
X109363038Y-103104803D01*
X109286765Y-103136396D01*
X109210494Y-103167989D01*
X109129525Y-103184094D01*
X109048557Y-103200200D01*
X108883443Y-103200200D01*
X108802475Y-103184094D01*
X108721506Y-103167989D01*
X108645235Y-103136396D01*
X108568962Y-103104803D01*
X108431681Y-103013075D01*
X108431678Y-103013073D01*
X108314927Y-102896322D01*
X108314309Y-102895397D01*
X108223197Y-102759038D01*
X108160011Y-102606493D01*
X108127800Y-102444557D01*
X108127800Y-102279443D01*
X108160011Y-102117507D01*
X108223197Y-101964962D01*
X108314925Y-101827681D01*
X108314927Y-101827678D01*
X108431678Y-101710927D01*
X108432603Y-101710309D01*
X108568962Y-101619197D01*
X108721506Y-101556011D01*
X108802475Y-101539905D01*
X108883443Y-101523800D01*
X109048557Y-101523800D01*
X109129525Y-101539905D01*
X109129525Y-101539905D01*
G37*
G36*
X89110443Y-100959519D02*
G01*
X89176627Y-100966037D01*
X89346466Y-101017557D01*
X89502991Y-101101222D01*
X89538729Y-101130552D01*
X89640186Y-101213814D01*
X89717018Y-101307436D01*
X89752778Y-101351009D01*
X89836443Y-101507534D01*
X89887963Y-101677373D01*
X89905359Y-101854000D01*
X89887963Y-102030627D01*
X89836443Y-102200466D01*
X89752778Y-102356991D01*
X89723448Y-102392729D01*
X89640186Y-102494186D01*
X89538729Y-102577448D01*
X89502991Y-102606778D01*
X89346466Y-102690443D01*
X89176627Y-102741963D01*
X89110442Y-102748482D01*
X89044260Y-102755000D01*
X88955740Y-102755000D01*
X88889557Y-102748481D01*
X88823373Y-102741963D01*
X88653534Y-102690443D01*
X88497009Y-102606778D01*
X88461271Y-102577448D01*
X88359814Y-102494186D01*
X88276552Y-102392729D01*
X88247222Y-102356991D01*
X88163557Y-102200466D01*
X88112037Y-102030627D01*
X88094641Y-101854000D01*
X88112037Y-101677373D01*
X88163557Y-101507534D01*
X88247222Y-101351009D01*
X88282982Y-101307436D01*
X88359814Y-101213814D01*
X88461271Y-101130552D01*
X88497009Y-101101222D01*
X88653534Y-101017557D01*
X88823373Y-100966037D01*
X88889558Y-100959518D01*
X88955740Y-100953000D01*
X89044260Y-100953000D01*
X89110443Y-100959519D01*
X89110443Y-100959519D01*
G37*
G36*
X138598254Y-98027818D02*
G01*
X138971511Y-98182426D01*
X138971513Y-98182427D01*
X139307436Y-98406884D01*
X139593116Y-98692564D01*
X139809237Y-99016011D01*
X139817574Y-99028489D01*
X139972182Y-99401746D01*
X140051000Y-99797993D01*
X140051000Y-100202007D01*
X139972182Y-100598254D01*
X139819841Y-100966037D01*
X139817573Y-100971513D01*
X139593116Y-101307436D01*
X139307436Y-101593116D01*
X138971513Y-101817573D01*
X138971512Y-101817574D01*
X138971511Y-101817574D01*
X138598254Y-101972182D01*
X138202007Y-102051000D01*
X137797993Y-102051000D01*
X137401746Y-101972182D01*
X137028489Y-101817574D01*
X137028488Y-101817574D01*
X137028487Y-101817573D01*
X136692564Y-101593116D01*
X136406884Y-101307436D01*
X136182427Y-100971513D01*
X136180159Y-100966037D01*
X136027818Y-100598254D01*
X135949000Y-100202007D01*
X135949000Y-99797993D01*
X136027818Y-99401746D01*
X136182426Y-99028489D01*
X136190764Y-99016011D01*
X136406884Y-98692564D01*
X136692564Y-98406884D01*
X137028487Y-98182427D01*
X137028489Y-98182426D01*
X137401746Y-98027818D01*
X137797993Y-97949000D01*
X138202007Y-97949000D01*
X138598254Y-98027818D01*
X138598254Y-98027818D01*
G37*
G36*
X119598254Y-98027818D02*
G01*
X119971511Y-98182426D01*
X119971513Y-98182427D01*
X120307436Y-98406884D01*
X120593116Y-98692564D01*
X120809237Y-99016011D01*
X120817574Y-99028489D01*
X120972182Y-99401746D01*
X121051000Y-99797993D01*
X121051000Y-100202007D01*
X120972182Y-100598254D01*
X120819841Y-100966037D01*
X120817573Y-100971513D01*
X120593116Y-101307436D01*
X120307436Y-101593116D01*
X119971513Y-101817573D01*
X119971512Y-101817574D01*
X119971511Y-101817574D01*
X119598254Y-101972182D01*
X119202007Y-102051000D01*
X118797993Y-102051000D01*
X118401746Y-101972182D01*
X118028489Y-101817574D01*
X118028488Y-101817574D01*
X118028487Y-101817573D01*
X117692564Y-101593116D01*
X117406884Y-101307436D01*
X117182427Y-100971513D01*
X117180159Y-100966037D01*
X117027818Y-100598254D01*
X116949000Y-100202007D01*
X116949000Y-99797993D01*
X117027818Y-99401746D01*
X117182426Y-99028489D01*
X117190764Y-99016011D01*
X117406884Y-98692564D01*
X117692564Y-98406884D01*
X118028487Y-98182427D01*
X118028489Y-98182426D01*
X118401746Y-98027818D01*
X118797993Y-97949000D01*
X119202007Y-97949000D01*
X119598254Y-98027818D01*
X119598254Y-98027818D01*
G37*
G36*
X157598254Y-98027818D02*
G01*
X157971511Y-98182426D01*
X157971513Y-98182427D01*
X158307436Y-98406884D01*
X158593116Y-98692564D01*
X158809237Y-99016011D01*
X158817574Y-99028489D01*
X158972182Y-99401746D01*
X159051000Y-99797993D01*
X159051000Y-100202007D01*
X158972182Y-100598254D01*
X158819841Y-100966037D01*
X158817573Y-100971513D01*
X158593116Y-101307436D01*
X158307436Y-101593116D01*
X157971513Y-101817573D01*
X157971512Y-101817574D01*
X157971511Y-101817574D01*
X157598254Y-101972182D01*
X157202007Y-102051000D01*
X156797993Y-102051000D01*
X156401746Y-101972182D01*
X156028489Y-101817574D01*
X156028488Y-101817574D01*
X156028487Y-101817573D01*
X155692564Y-101593116D01*
X155406884Y-101307436D01*
X155182427Y-100971513D01*
X155180159Y-100966037D01*
X155027818Y-100598254D01*
X154949000Y-100202007D01*
X154949000Y-99797993D01*
X155027818Y-99401746D01*
X155182426Y-99028489D01*
X155190764Y-99016011D01*
X155406884Y-98692564D01*
X155692564Y-98406884D01*
X156028487Y-98182427D01*
X156028489Y-98182426D01*
X156401746Y-98027818D01*
X156797993Y-97949000D01*
X157202007Y-97949000D01*
X157598254Y-98027818D01*
X157598254Y-98027818D01*
G37*
G36*
X100598254Y-98027818D02*
G01*
X100971511Y-98182426D01*
X100971513Y-98182427D01*
X101307436Y-98406884D01*
X101593116Y-98692564D01*
X101809237Y-99016011D01*
X101817574Y-99028489D01*
X101972182Y-99401746D01*
X102051000Y-99797993D01*
X102051000Y-100202007D01*
X101972182Y-100598254D01*
X101819841Y-100966037D01*
X101817573Y-100971513D01*
X101593116Y-101307436D01*
X101307436Y-101593116D01*
X100971513Y-101817573D01*
X100971512Y-101817574D01*
X100971511Y-101817574D01*
X100598254Y-101972182D01*
X100202007Y-102051000D01*
X99797993Y-102051000D01*
X99401746Y-101972182D01*
X99028489Y-101817574D01*
X99028488Y-101817574D01*
X99028487Y-101817573D01*
X98692564Y-101593116D01*
X98406884Y-101307436D01*
X98182427Y-100971513D01*
X98180159Y-100966037D01*
X98027818Y-100598254D01*
X97949000Y-100202007D01*
X97949000Y-99797993D01*
X98027818Y-99401746D01*
X98182426Y-99028489D01*
X98190764Y-99016011D01*
X98406884Y-98692564D01*
X98692564Y-98406884D01*
X99028487Y-98182427D01*
X99028489Y-98182426D01*
X99401746Y-98027818D01*
X99797993Y-97949000D01*
X100202007Y-97949000D01*
X100598254Y-98027818D01*
X100598254Y-98027818D01*
G37*
G36*
X124193512Y-99103927D02*
G01*
X124342812Y-99133624D01*
X124506784Y-99201544D01*
X124654354Y-99300147D01*
X124779853Y-99425646D01*
X124878456Y-99573216D01*
X124946376Y-99737188D01*
X124981000Y-99911259D01*
X124981000Y-100088741D01*
X124946376Y-100262812D01*
X124878456Y-100426784D01*
X124779853Y-100574354D01*
X124654354Y-100699853D01*
X124506784Y-100798456D01*
X124342812Y-100866376D01*
X124193512Y-100896073D01*
X124168742Y-100901000D01*
X123991258Y-100901000D01*
X123966488Y-100896073D01*
X123817188Y-100866376D01*
X123653216Y-100798456D01*
X123505646Y-100699853D01*
X123380147Y-100574354D01*
X123281544Y-100426784D01*
X123213624Y-100262812D01*
X123179000Y-100088741D01*
X123179000Y-99911259D01*
X123213624Y-99737188D01*
X123281544Y-99573216D01*
X123380147Y-99425646D01*
X123505646Y-99300147D01*
X123653216Y-99201544D01*
X123817188Y-99133624D01*
X123966488Y-99103927D01*
X123991258Y-99099000D01*
X124168742Y-99099000D01*
X124193512Y-99103927D01*
X124193512Y-99103927D01*
G37*
G36*
X114033512Y-99103927D02*
G01*
X114182812Y-99133624D01*
X114346784Y-99201544D01*
X114494354Y-99300147D01*
X114619853Y-99425646D01*
X114718456Y-99573216D01*
X114786376Y-99737188D01*
X114821000Y-99911259D01*
X114821000Y-100088741D01*
X114786376Y-100262812D01*
X114718456Y-100426784D01*
X114619853Y-100574354D01*
X114494354Y-100699853D01*
X114346784Y-100798456D01*
X114182812Y-100866376D01*
X114033512Y-100896073D01*
X114008742Y-100901000D01*
X113831258Y-100901000D01*
X113806488Y-100896073D01*
X113657188Y-100866376D01*
X113493216Y-100798456D01*
X113345646Y-100699853D01*
X113220147Y-100574354D01*
X113121544Y-100426784D01*
X113053624Y-100262812D01*
X113019000Y-100088741D01*
X113019000Y-99911259D01*
X113053624Y-99737188D01*
X113121544Y-99573216D01*
X113220147Y-99425646D01*
X113345646Y-99300147D01*
X113493216Y-99201544D01*
X113657188Y-99133624D01*
X113806488Y-99103927D01*
X113831258Y-99099000D01*
X114008742Y-99099000D01*
X114033512Y-99103927D01*
X114033512Y-99103927D01*
G37*
G36*
X133033512Y-99103927D02*
G01*
X133182812Y-99133624D01*
X133346784Y-99201544D01*
X133494354Y-99300147D01*
X133619853Y-99425646D01*
X133718456Y-99573216D01*
X133786376Y-99737188D01*
X133821000Y-99911259D01*
X133821000Y-100088741D01*
X133786376Y-100262812D01*
X133718456Y-100426784D01*
X133619853Y-100574354D01*
X133494354Y-100699853D01*
X133346784Y-100798456D01*
X133182812Y-100866376D01*
X133033512Y-100896073D01*
X133008742Y-100901000D01*
X132831258Y-100901000D01*
X132806488Y-100896073D01*
X132657188Y-100866376D01*
X132493216Y-100798456D01*
X132345646Y-100699853D01*
X132220147Y-100574354D01*
X132121544Y-100426784D01*
X132053624Y-100262812D01*
X132019000Y-100088741D01*
X132019000Y-99911259D01*
X132053624Y-99737188D01*
X132121544Y-99573216D01*
X132220147Y-99425646D01*
X132345646Y-99300147D01*
X132493216Y-99201544D01*
X132657188Y-99133624D01*
X132806488Y-99103927D01*
X132831258Y-99099000D01*
X133008742Y-99099000D01*
X133033512Y-99103927D01*
X133033512Y-99103927D01*
G37*
G36*
X143193512Y-99103927D02*
G01*
X143342812Y-99133624D01*
X143506784Y-99201544D01*
X143654354Y-99300147D01*
X143779853Y-99425646D01*
X143878456Y-99573216D01*
X143946376Y-99737188D01*
X143981000Y-99911259D01*
X143981000Y-100088741D01*
X143946376Y-100262812D01*
X143878456Y-100426784D01*
X143779853Y-100574354D01*
X143654354Y-100699853D01*
X143506784Y-100798456D01*
X143342812Y-100866376D01*
X143193512Y-100896073D01*
X143168742Y-100901000D01*
X142991258Y-100901000D01*
X142966488Y-100896073D01*
X142817188Y-100866376D01*
X142653216Y-100798456D01*
X142505646Y-100699853D01*
X142380147Y-100574354D01*
X142281544Y-100426784D01*
X142213624Y-100262812D01*
X142179000Y-100088741D01*
X142179000Y-99911259D01*
X142213624Y-99737188D01*
X142281544Y-99573216D01*
X142380147Y-99425646D01*
X142505646Y-99300147D01*
X142653216Y-99201544D01*
X142817188Y-99133624D01*
X142966488Y-99103927D01*
X142991258Y-99099000D01*
X143168742Y-99099000D01*
X143193512Y-99103927D01*
X143193512Y-99103927D01*
G37*
G36*
X95033512Y-99103927D02*
G01*
X95182812Y-99133624D01*
X95346784Y-99201544D01*
X95494354Y-99300147D01*
X95619853Y-99425646D01*
X95718456Y-99573216D01*
X95786376Y-99737188D01*
X95821000Y-99911259D01*
X95821000Y-100088741D01*
X95786376Y-100262812D01*
X95718456Y-100426784D01*
X95619853Y-100574354D01*
X95494354Y-100699853D01*
X95346784Y-100798456D01*
X95182812Y-100866376D01*
X95033512Y-100896073D01*
X95008742Y-100901000D01*
X94831258Y-100901000D01*
X94806488Y-100896073D01*
X94657188Y-100866376D01*
X94493216Y-100798456D01*
X94345646Y-100699853D01*
X94220147Y-100574354D01*
X94121544Y-100426784D01*
X94053624Y-100262812D01*
X94019000Y-100088741D01*
X94019000Y-99911259D01*
X94053624Y-99737188D01*
X94121544Y-99573216D01*
X94220147Y-99425646D01*
X94345646Y-99300147D01*
X94493216Y-99201544D01*
X94657188Y-99133624D01*
X94806488Y-99103927D01*
X94831258Y-99099000D01*
X95008742Y-99099000D01*
X95033512Y-99103927D01*
X95033512Y-99103927D01*
G37*
G36*
X105193512Y-99103927D02*
G01*
X105342812Y-99133624D01*
X105506784Y-99201544D01*
X105654354Y-99300147D01*
X105779853Y-99425646D01*
X105878456Y-99573216D01*
X105946376Y-99737188D01*
X105981000Y-99911259D01*
X105981000Y-100088741D01*
X105946376Y-100262812D01*
X105878456Y-100426784D01*
X105779853Y-100574354D01*
X105654354Y-100699853D01*
X105506784Y-100798456D01*
X105342812Y-100866376D01*
X105193512Y-100896073D01*
X105168742Y-100901000D01*
X104991258Y-100901000D01*
X104966488Y-100896073D01*
X104817188Y-100866376D01*
X104653216Y-100798456D01*
X104505646Y-100699853D01*
X104380147Y-100574354D01*
X104281544Y-100426784D01*
X104213624Y-100262812D01*
X104179000Y-100088741D01*
X104179000Y-99911259D01*
X104213624Y-99737188D01*
X104281544Y-99573216D01*
X104380147Y-99425646D01*
X104505646Y-99300147D01*
X104653216Y-99201544D01*
X104817188Y-99133624D01*
X104966488Y-99103927D01*
X104991258Y-99099000D01*
X105168742Y-99099000D01*
X105193512Y-99103927D01*
X105193512Y-99103927D01*
G37*
G36*
X152033512Y-99103927D02*
G01*
X152182812Y-99133624D01*
X152346784Y-99201544D01*
X152494354Y-99300147D01*
X152619853Y-99425646D01*
X152718456Y-99573216D01*
X152786376Y-99737188D01*
X152821000Y-99911259D01*
X152821000Y-100088741D01*
X152786376Y-100262812D01*
X152718456Y-100426784D01*
X152619853Y-100574354D01*
X152494354Y-100699853D01*
X152346784Y-100798456D01*
X152182812Y-100866376D01*
X152033512Y-100896073D01*
X152008742Y-100901000D01*
X151831258Y-100901000D01*
X151806488Y-100896073D01*
X151657188Y-100866376D01*
X151493216Y-100798456D01*
X151345646Y-100699853D01*
X151220147Y-100574354D01*
X151121544Y-100426784D01*
X151053624Y-100262812D01*
X151019000Y-100088741D01*
X151019000Y-99911259D01*
X151053624Y-99737188D01*
X151121544Y-99573216D01*
X151220147Y-99425646D01*
X151345646Y-99300147D01*
X151493216Y-99201544D01*
X151657188Y-99133624D01*
X151806488Y-99103927D01*
X151831258Y-99099000D01*
X152008742Y-99099000D01*
X152033512Y-99103927D01*
X152033512Y-99103927D01*
G37*
G36*
X162193512Y-99103927D02*
G01*
X162342812Y-99133624D01*
X162506784Y-99201544D01*
X162654354Y-99300147D01*
X162779853Y-99425646D01*
X162878456Y-99573216D01*
X162946376Y-99737188D01*
X162981000Y-99911259D01*
X162981000Y-100088741D01*
X162946376Y-100262812D01*
X162878456Y-100426784D01*
X162779853Y-100574354D01*
X162654354Y-100699853D01*
X162506784Y-100798456D01*
X162342812Y-100866376D01*
X162193512Y-100896073D01*
X162168742Y-100901000D01*
X161991258Y-100901000D01*
X161966488Y-100896073D01*
X161817188Y-100866376D01*
X161653216Y-100798456D01*
X161505646Y-100699853D01*
X161380147Y-100574354D01*
X161281544Y-100426784D01*
X161213624Y-100262812D01*
X161179000Y-100088741D01*
X161179000Y-99911259D01*
X161213624Y-99737188D01*
X161281544Y-99573216D01*
X161380147Y-99425646D01*
X161505646Y-99300147D01*
X161653216Y-99201544D01*
X161817188Y-99133624D01*
X161966488Y-99103927D01*
X161991258Y-99099000D01*
X162168742Y-99099000D01*
X162193512Y-99103927D01*
X162193512Y-99103927D01*
G37*
G36*
X109129525Y-98999905D02*
G01*
X109210494Y-99016011D01*
X109240613Y-99028487D01*
X109363038Y-99079197D01*
X109499397Y-99170309D01*
X109500322Y-99170927D01*
X109617073Y-99287678D01*
X109617075Y-99287681D01*
X109708803Y-99424962D01*
X109736001Y-99490625D01*
X109770213Y-99573218D01*
X109771989Y-99577507D01*
X109804200Y-99739443D01*
X109804200Y-99904557D01*
X109771989Y-100066493D01*
X109708803Y-100219038D01*
X109679554Y-100262812D01*
X109617073Y-100356322D01*
X109500322Y-100473073D01*
X109500319Y-100473075D01*
X109363038Y-100564803D01*
X109286765Y-100596396D01*
X109210494Y-100627989D01*
X109129525Y-100644095D01*
X109048557Y-100660200D01*
X108883443Y-100660200D01*
X108802475Y-100644094D01*
X108721506Y-100627989D01*
X108568962Y-100564803D01*
X108431681Y-100473075D01*
X108431678Y-100473073D01*
X108314927Y-100356322D01*
X108252446Y-100262812D01*
X108223197Y-100219038D01*
X108160011Y-100066493D01*
X108127800Y-99904557D01*
X108127800Y-99739443D01*
X108160011Y-99577507D01*
X108161788Y-99573218D01*
X108195999Y-99490625D01*
X108223197Y-99424962D01*
X108314925Y-99287681D01*
X108314927Y-99287678D01*
X108431678Y-99170927D01*
X108432603Y-99170309D01*
X108568962Y-99079197D01*
X108691387Y-99028487D01*
X108721506Y-99016011D01*
X108802475Y-98999905D01*
X108883443Y-98983800D01*
X109048557Y-98983800D01*
X109129525Y-98999905D01*
X109129525Y-98999905D01*
G37*
G36*
X129449525Y-98999905D02*
G01*
X129530494Y-99016011D01*
X129560613Y-99028487D01*
X129683038Y-99079197D01*
X129819397Y-99170309D01*
X129820322Y-99170927D01*
X129937073Y-99287678D01*
X129937075Y-99287681D01*
X130028803Y-99424962D01*
X130056001Y-99490625D01*
X130090213Y-99573218D01*
X130091989Y-99577507D01*
X130124200Y-99739443D01*
X130124200Y-99904557D01*
X130091989Y-100066493D01*
X130028803Y-100219038D01*
X129999554Y-100262812D01*
X129937073Y-100356322D01*
X129820322Y-100473073D01*
X129820319Y-100473075D01*
X129683038Y-100564803D01*
X129606765Y-100596396D01*
X129530494Y-100627989D01*
X129449525Y-100644095D01*
X129368557Y-100660200D01*
X129203443Y-100660200D01*
X129122475Y-100644094D01*
X129041506Y-100627989D01*
X128888962Y-100564803D01*
X128751681Y-100473075D01*
X128751678Y-100473073D01*
X128634927Y-100356322D01*
X128572446Y-100262812D01*
X128543197Y-100219038D01*
X128480011Y-100066493D01*
X128447800Y-99904557D01*
X128447800Y-99739443D01*
X128480011Y-99577507D01*
X128481788Y-99573218D01*
X128515999Y-99490625D01*
X128543197Y-99424962D01*
X128634925Y-99287681D01*
X128634927Y-99287678D01*
X128751678Y-99170927D01*
X128752603Y-99170309D01*
X128888962Y-99079197D01*
X129011387Y-99028487D01*
X129041506Y-99016011D01*
X129122475Y-98999905D01*
X129203443Y-98983800D01*
X129368557Y-98983800D01*
X129449525Y-98999905D01*
X129449525Y-98999905D01*
G37*
G36*
X89110443Y-98419519D02*
G01*
X89176627Y-98426037D01*
X89346466Y-98477557D01*
X89502991Y-98561222D01*
X89538729Y-98590552D01*
X89640186Y-98673814D01*
X89723448Y-98775271D01*
X89752778Y-98811009D01*
X89836443Y-98967534D01*
X89887963Y-99137373D01*
X89905359Y-99314000D01*
X89887963Y-99490627D01*
X89836443Y-99660466D01*
X89752778Y-99816991D01*
X89723448Y-99852729D01*
X89640186Y-99954186D01*
X89538729Y-100037448D01*
X89502991Y-100066778D01*
X89346466Y-100150443D01*
X89176627Y-100201963D01*
X89110442Y-100208482D01*
X89044260Y-100215000D01*
X88955740Y-100215000D01*
X88889558Y-100208482D01*
X88823373Y-100201963D01*
X88653534Y-100150443D01*
X88497009Y-100066778D01*
X88461271Y-100037448D01*
X88359814Y-99954186D01*
X88276552Y-99852729D01*
X88247222Y-99816991D01*
X88163557Y-99660466D01*
X88112037Y-99490627D01*
X88094641Y-99314000D01*
X88112037Y-99137373D01*
X88163557Y-98967534D01*
X88247222Y-98811009D01*
X88276552Y-98775271D01*
X88359814Y-98673814D01*
X88461271Y-98590552D01*
X88497009Y-98561222D01*
X88653534Y-98477557D01*
X88823373Y-98426037D01*
X88889557Y-98419519D01*
X88955740Y-98413000D01*
X89044260Y-98413000D01*
X89110443Y-98419519D01*
X89110443Y-98419519D01*
G37*
G36*
X115414549Y-96331116D02*
G01*
X115525734Y-96353232D01*
X115735203Y-96439997D01*
X115923720Y-96565960D01*
X116084040Y-96726280D01*
X116210003Y-96914797D01*
X116210004Y-96914799D01*
X116224844Y-96950627D01*
X116296768Y-97124266D01*
X116341000Y-97346636D01*
X116341000Y-97573364D01*
X116296768Y-97795734D01*
X116210003Y-98005203D01*
X116084040Y-98193720D01*
X115923720Y-98354040D01*
X115735203Y-98480003D01*
X115525734Y-98566768D01*
X115414549Y-98588884D01*
X115303365Y-98611000D01*
X115076635Y-98611000D01*
X114965451Y-98588884D01*
X114854266Y-98566768D01*
X114644797Y-98480003D01*
X114456280Y-98354040D01*
X114295960Y-98193720D01*
X114169997Y-98005203D01*
X114083232Y-97795734D01*
X114039000Y-97573364D01*
X114039000Y-97346636D01*
X114083232Y-97124266D01*
X114155156Y-96950627D01*
X114169996Y-96914799D01*
X114169997Y-96914797D01*
X114295960Y-96726280D01*
X114456280Y-96565960D01*
X114644797Y-96439997D01*
X114854266Y-96353232D01*
X114965451Y-96331116D01*
X115076635Y-96309000D01*
X115303365Y-96309000D01*
X115414549Y-96331116D01*
X115414549Y-96331116D01*
G37*
G36*
X96414549Y-96331116D02*
G01*
X96525734Y-96353232D01*
X96735203Y-96439997D01*
X96923720Y-96565960D01*
X97084040Y-96726280D01*
X97210003Y-96914797D01*
X97210004Y-96914799D01*
X97224844Y-96950627D01*
X97296768Y-97124266D01*
X97341000Y-97346636D01*
X97341000Y-97573364D01*
X97296768Y-97795734D01*
X97210003Y-98005203D01*
X97084040Y-98193720D01*
X96923720Y-98354040D01*
X96735203Y-98480003D01*
X96525734Y-98566768D01*
X96414549Y-98588884D01*
X96303365Y-98611000D01*
X96076635Y-98611000D01*
X95965451Y-98588884D01*
X95854266Y-98566768D01*
X95644797Y-98480003D01*
X95456280Y-98354040D01*
X95295960Y-98193720D01*
X95169997Y-98005203D01*
X95083232Y-97795734D01*
X95039000Y-97573364D01*
X95039000Y-97346636D01*
X95083232Y-97124266D01*
X95155156Y-96950627D01*
X95169996Y-96914799D01*
X95169997Y-96914797D01*
X95295960Y-96726280D01*
X95456280Y-96565960D01*
X95644797Y-96439997D01*
X95854266Y-96353232D01*
X95965451Y-96331116D01*
X96076635Y-96309000D01*
X96303365Y-96309000D01*
X96414549Y-96331116D01*
X96414549Y-96331116D01*
G37*
G36*
X153414549Y-96331116D02*
G01*
X153525734Y-96353232D01*
X153735203Y-96439997D01*
X153923720Y-96565960D01*
X154084040Y-96726280D01*
X154210003Y-96914797D01*
X154210004Y-96914799D01*
X154224844Y-96950627D01*
X154296768Y-97124266D01*
X154341000Y-97346636D01*
X154341000Y-97573364D01*
X154296768Y-97795734D01*
X154210003Y-98005203D01*
X154084040Y-98193720D01*
X153923720Y-98354040D01*
X153735203Y-98480003D01*
X153525734Y-98566768D01*
X153414549Y-98588884D01*
X153303365Y-98611000D01*
X153076635Y-98611000D01*
X152965451Y-98588884D01*
X152854266Y-98566768D01*
X152644797Y-98480003D01*
X152456280Y-98354040D01*
X152295960Y-98193720D01*
X152169997Y-98005203D01*
X152083232Y-97795734D01*
X152039000Y-97573364D01*
X152039000Y-97346636D01*
X152083232Y-97124266D01*
X152155156Y-96950627D01*
X152169996Y-96914799D01*
X152169997Y-96914797D01*
X152295960Y-96726280D01*
X152456280Y-96565960D01*
X152644797Y-96439997D01*
X152854266Y-96353232D01*
X152965451Y-96331116D01*
X153076635Y-96309000D01*
X153303365Y-96309000D01*
X153414549Y-96331116D01*
X153414549Y-96331116D01*
G37*
G36*
X134414549Y-96331116D02*
G01*
X134525734Y-96353232D01*
X134735203Y-96439997D01*
X134923720Y-96565960D01*
X135084040Y-96726280D01*
X135210003Y-96914797D01*
X135210004Y-96914799D01*
X135224844Y-96950627D01*
X135296768Y-97124266D01*
X135341000Y-97346636D01*
X135341000Y-97573364D01*
X135296768Y-97795734D01*
X135210003Y-98005203D01*
X135084040Y-98193720D01*
X134923720Y-98354040D01*
X134735203Y-98480003D01*
X134525734Y-98566768D01*
X134414549Y-98588884D01*
X134303365Y-98611000D01*
X134076635Y-98611000D01*
X133965451Y-98588884D01*
X133854266Y-98566768D01*
X133644797Y-98480003D01*
X133456280Y-98354040D01*
X133295960Y-98193720D01*
X133169997Y-98005203D01*
X133083232Y-97795734D01*
X133039000Y-97573364D01*
X133039000Y-97346636D01*
X133083232Y-97124266D01*
X133155156Y-96950627D01*
X133169996Y-96914799D01*
X133169997Y-96914797D01*
X133295960Y-96726280D01*
X133456280Y-96565960D01*
X133644797Y-96439997D01*
X133854266Y-96353232D01*
X133965451Y-96331116D01*
X134076635Y-96309000D01*
X134303365Y-96309000D01*
X134414549Y-96331116D01*
X134414549Y-96331116D01*
G37*
G36*
X129449525Y-96459905D02*
G01*
X129530494Y-96476011D01*
X129683038Y-96539197D01*
X129819397Y-96630309D01*
X129820322Y-96630927D01*
X129937073Y-96747678D01*
X129937075Y-96747681D01*
X130028803Y-96884962D01*
X130028803Y-96884963D01*
X130091989Y-97037506D01*
X130124200Y-97199444D01*
X130124200Y-97364556D01*
X130091989Y-97526494D01*
X130072574Y-97573365D01*
X130028803Y-97679038D01*
X129950830Y-97795733D01*
X129937073Y-97816322D01*
X129820322Y-97933073D01*
X129820319Y-97933075D01*
X129683038Y-98024803D01*
X129530494Y-98087989D01*
X129449525Y-98104094D01*
X129368557Y-98120200D01*
X129203443Y-98120200D01*
X129122475Y-98104094D01*
X129041506Y-98087989D01*
X128965235Y-98056396D01*
X128888962Y-98024803D01*
X128751681Y-97933075D01*
X128751678Y-97933073D01*
X128634927Y-97816322D01*
X128621170Y-97795733D01*
X128543197Y-97679038D01*
X128499426Y-97573365D01*
X128480011Y-97526494D01*
X128447800Y-97364556D01*
X128447800Y-97199444D01*
X128480011Y-97037506D01*
X128543197Y-96884963D01*
X128543197Y-96884962D01*
X128634925Y-96747681D01*
X128634927Y-96747678D01*
X128751678Y-96630927D01*
X128752603Y-96630309D01*
X128888962Y-96539197D01*
X128965235Y-96507604D01*
X129041506Y-96476011D01*
X129122475Y-96459905D01*
X129203443Y-96443800D01*
X129368557Y-96443800D01*
X129449525Y-96459905D01*
X129449525Y-96459905D01*
G37*
G36*
X109129525Y-96459905D02*
G01*
X109210494Y-96476011D01*
X109363038Y-96539197D01*
X109499397Y-96630309D01*
X109500322Y-96630927D01*
X109617073Y-96747678D01*
X109617075Y-96747681D01*
X109708803Y-96884962D01*
X109708803Y-96884963D01*
X109771989Y-97037506D01*
X109804200Y-97199444D01*
X109804200Y-97364556D01*
X109771989Y-97526494D01*
X109752574Y-97573365D01*
X109708803Y-97679038D01*
X109630830Y-97795733D01*
X109617073Y-97816322D01*
X109500322Y-97933073D01*
X109500319Y-97933075D01*
X109363038Y-98024803D01*
X109210494Y-98087989D01*
X109129525Y-98104094D01*
X109048557Y-98120200D01*
X108883443Y-98120200D01*
X108802475Y-98104094D01*
X108721506Y-98087989D01*
X108645235Y-98056396D01*
X108568962Y-98024803D01*
X108431681Y-97933075D01*
X108431678Y-97933073D01*
X108314927Y-97816322D01*
X108301170Y-97795733D01*
X108223197Y-97679038D01*
X108179426Y-97573365D01*
X108160011Y-97526494D01*
X108127800Y-97364556D01*
X108127800Y-97199444D01*
X108160011Y-97037506D01*
X108223197Y-96884963D01*
X108223197Y-96884962D01*
X108314925Y-96747681D01*
X108314927Y-96747678D01*
X108431678Y-96630927D01*
X108432603Y-96630309D01*
X108568962Y-96539197D01*
X108645235Y-96507604D01*
X108721506Y-96476011D01*
X108802475Y-96459905D01*
X108883443Y-96443800D01*
X109048557Y-96443800D01*
X109129525Y-96459905D01*
X109129525Y-96459905D01*
G37*
G36*
X89110442Y-95879518D02*
G01*
X89176627Y-95886037D01*
X89346466Y-95937557D01*
X89502991Y-96021222D01*
X89538729Y-96050552D01*
X89640186Y-96133814D01*
X89723448Y-96235271D01*
X89752778Y-96271009D01*
X89836443Y-96427534D01*
X89887963Y-96597373D01*
X89905359Y-96774000D01*
X89887963Y-96950627D01*
X89836443Y-97120466D01*
X89752778Y-97276991D01*
X89723448Y-97312729D01*
X89640186Y-97414186D01*
X89538729Y-97497448D01*
X89502991Y-97526778D01*
X89346466Y-97610443D01*
X89176627Y-97661963D01*
X89110443Y-97668481D01*
X89044260Y-97675000D01*
X88955740Y-97675000D01*
X88889557Y-97668481D01*
X88823373Y-97661963D01*
X88653534Y-97610443D01*
X88497009Y-97526778D01*
X88461271Y-97497448D01*
X88359814Y-97414186D01*
X88276552Y-97312729D01*
X88247222Y-97276991D01*
X88163557Y-97120466D01*
X88112037Y-96950627D01*
X88094641Y-96774000D01*
X88112037Y-96597373D01*
X88163557Y-96427534D01*
X88247222Y-96271009D01*
X88276552Y-96235271D01*
X88359814Y-96133814D01*
X88461271Y-96050552D01*
X88497009Y-96021222D01*
X88653534Y-95937557D01*
X88823373Y-95886037D01*
X88889558Y-95879518D01*
X88955740Y-95873000D01*
X89044260Y-95873000D01*
X89110442Y-95879518D01*
X89110442Y-95879518D01*
G37*
G36*
X140764549Y-93791116D02*
G01*
X140875734Y-93813232D01*
X141085203Y-93899997D01*
X141273720Y-94025960D01*
X141434040Y-94186280D01*
X141560003Y-94374797D01*
X141646768Y-94584266D01*
X141691000Y-94806636D01*
X141691000Y-95033364D01*
X141646768Y-95255734D01*
X141560003Y-95465203D01*
X141434040Y-95653720D01*
X141273720Y-95814040D01*
X141085203Y-95940003D01*
X140875734Y-96026768D01*
X140764549Y-96048884D01*
X140653365Y-96071000D01*
X140426635Y-96071000D01*
X140315451Y-96048884D01*
X140204266Y-96026768D01*
X139994797Y-95940003D01*
X139806280Y-95814040D01*
X139645960Y-95653720D01*
X139519997Y-95465203D01*
X139433232Y-95255734D01*
X139389000Y-95033364D01*
X139389000Y-94806636D01*
X139433232Y-94584266D01*
X139519997Y-94374797D01*
X139645960Y-94186280D01*
X139806280Y-94025960D01*
X139994797Y-93899997D01*
X140204266Y-93813232D01*
X140315451Y-93791116D01*
X140426635Y-93769000D01*
X140653365Y-93769000D01*
X140764549Y-93791116D01*
X140764549Y-93791116D01*
G37*
G36*
X159764549Y-93791116D02*
G01*
X159875734Y-93813232D01*
X160085203Y-93899997D01*
X160273720Y-94025960D01*
X160434040Y-94186280D01*
X160560003Y-94374797D01*
X160646768Y-94584266D01*
X160691000Y-94806636D01*
X160691000Y-95033364D01*
X160646768Y-95255734D01*
X160560003Y-95465203D01*
X160434040Y-95653720D01*
X160273720Y-95814040D01*
X160085203Y-95940003D01*
X159875734Y-96026768D01*
X159764549Y-96048884D01*
X159653365Y-96071000D01*
X159426635Y-96071000D01*
X159315451Y-96048884D01*
X159204266Y-96026768D01*
X158994797Y-95940003D01*
X158806280Y-95814040D01*
X158645960Y-95653720D01*
X158519997Y-95465203D01*
X158433232Y-95255734D01*
X158389000Y-95033364D01*
X158389000Y-94806636D01*
X158433232Y-94584266D01*
X158519997Y-94374797D01*
X158645960Y-94186280D01*
X158806280Y-94025960D01*
X158994797Y-93899997D01*
X159204266Y-93813232D01*
X159315451Y-93791116D01*
X159426635Y-93769000D01*
X159653365Y-93769000D01*
X159764549Y-93791116D01*
X159764549Y-93791116D01*
G37*
G36*
X121764549Y-93791116D02*
G01*
X121875734Y-93813232D01*
X122085203Y-93899997D01*
X122273720Y-94025960D01*
X122434040Y-94186280D01*
X122560003Y-94374797D01*
X122646768Y-94584266D01*
X122691000Y-94806636D01*
X122691000Y-95033364D01*
X122646768Y-95255734D01*
X122560003Y-95465203D01*
X122434040Y-95653720D01*
X122273720Y-95814040D01*
X122085203Y-95940003D01*
X121875734Y-96026768D01*
X121764549Y-96048884D01*
X121653365Y-96071000D01*
X121426635Y-96071000D01*
X121315451Y-96048884D01*
X121204266Y-96026768D01*
X120994797Y-95940003D01*
X120806280Y-95814040D01*
X120645960Y-95653720D01*
X120519997Y-95465203D01*
X120433232Y-95255734D01*
X120389000Y-95033364D01*
X120389000Y-94806636D01*
X120433232Y-94584266D01*
X120519997Y-94374797D01*
X120645960Y-94186280D01*
X120806280Y-94025960D01*
X120994797Y-93899997D01*
X121204266Y-93813232D01*
X121315451Y-93791116D01*
X121426635Y-93769000D01*
X121653365Y-93769000D01*
X121764549Y-93791116D01*
X121764549Y-93791116D01*
G37*
G36*
X102764549Y-93791116D02*
G01*
X102875734Y-93813232D01*
X103085203Y-93899997D01*
X103273720Y-94025960D01*
X103434040Y-94186280D01*
X103560003Y-94374797D01*
X103646768Y-94584266D01*
X103691000Y-94806636D01*
X103691000Y-95033364D01*
X103646768Y-95255734D01*
X103560003Y-95465203D01*
X103434040Y-95653720D01*
X103273720Y-95814040D01*
X103085203Y-95940003D01*
X102875734Y-96026768D01*
X102764549Y-96048884D01*
X102653365Y-96071000D01*
X102426635Y-96071000D01*
X102315451Y-96048884D01*
X102204266Y-96026768D01*
X101994797Y-95940003D01*
X101806280Y-95814040D01*
X101645960Y-95653720D01*
X101519997Y-95465203D01*
X101433232Y-95255734D01*
X101389000Y-95033364D01*
X101389000Y-94806636D01*
X101433232Y-94584266D01*
X101519997Y-94374797D01*
X101645960Y-94186280D01*
X101806280Y-94025960D01*
X101994797Y-93899997D01*
X102204266Y-93813232D01*
X102315451Y-93791116D01*
X102426635Y-93769000D01*
X102653365Y-93769000D01*
X102764549Y-93791116D01*
X102764549Y-93791116D01*
G37*
G36*
X129449525Y-93919906D02*
G01*
X129530494Y-93936011D01*
X129683038Y-93999197D01*
X129819397Y-94090309D01*
X129820322Y-94090927D01*
X129937073Y-94207678D01*
X129937075Y-94207681D01*
X130028803Y-94344962D01*
X130028803Y-94344963D01*
X130091989Y-94497506D01*
X130124200Y-94659444D01*
X130124200Y-94824556D01*
X130091989Y-94986494D01*
X130072574Y-95033365D01*
X130028803Y-95139038D01*
X129950830Y-95255733D01*
X129937073Y-95276322D01*
X129820322Y-95393073D01*
X129820319Y-95393075D01*
X129683038Y-95484803D01*
X129606765Y-95516396D01*
X129530494Y-95547989D01*
X129449525Y-95564094D01*
X129368557Y-95580200D01*
X129203443Y-95580200D01*
X129122475Y-95564094D01*
X129041506Y-95547989D01*
X128965235Y-95516396D01*
X128888962Y-95484803D01*
X128751681Y-95393075D01*
X128751678Y-95393073D01*
X128634927Y-95276322D01*
X128621170Y-95255733D01*
X128543197Y-95139038D01*
X128499426Y-95033365D01*
X128480011Y-94986494D01*
X128447800Y-94824556D01*
X128447800Y-94659444D01*
X128480011Y-94497506D01*
X128543197Y-94344963D01*
X128543197Y-94344962D01*
X128634925Y-94207681D01*
X128634927Y-94207678D01*
X128751678Y-94090927D01*
X128752603Y-94090309D01*
X128888962Y-93999197D01*
X129041506Y-93936011D01*
X129122475Y-93919906D01*
X129203443Y-93903800D01*
X129368557Y-93903800D01*
X129449525Y-93919906D01*
X129449525Y-93919906D01*
G37*
G36*
X109129525Y-93919906D02*
G01*
X109210494Y-93936011D01*
X109363038Y-93999197D01*
X109499397Y-94090309D01*
X109500322Y-94090927D01*
X109617073Y-94207678D01*
X109617075Y-94207681D01*
X109708803Y-94344962D01*
X109708803Y-94344963D01*
X109771989Y-94497506D01*
X109804200Y-94659444D01*
X109804200Y-94824556D01*
X109771989Y-94986494D01*
X109752574Y-95033365D01*
X109708803Y-95139038D01*
X109630830Y-95255733D01*
X109617073Y-95276322D01*
X109500322Y-95393073D01*
X109500319Y-95393075D01*
X109363038Y-95484803D01*
X109286765Y-95516396D01*
X109210494Y-95547989D01*
X109129525Y-95564094D01*
X109048557Y-95580200D01*
X108883443Y-95580200D01*
X108802475Y-95564094D01*
X108721506Y-95547989D01*
X108645235Y-95516396D01*
X108568962Y-95484803D01*
X108431681Y-95393075D01*
X108431678Y-95393073D01*
X108314927Y-95276322D01*
X108301170Y-95255733D01*
X108223197Y-95139038D01*
X108179426Y-95033365D01*
X108160011Y-94986494D01*
X108127800Y-94824556D01*
X108127800Y-94659444D01*
X108160011Y-94497506D01*
X108223197Y-94344963D01*
X108223197Y-94344962D01*
X108314925Y-94207681D01*
X108314927Y-94207678D01*
X108431678Y-94090927D01*
X108432603Y-94090309D01*
X108568962Y-93999197D01*
X108721506Y-93936011D01*
X108802475Y-93919906D01*
X108883443Y-93903800D01*
X109048557Y-93903800D01*
X109129525Y-93919906D01*
X109129525Y-93919906D01*
G37*
G36*
X129449525Y-91379906D02*
G01*
X129530494Y-91396011D01*
X129683038Y-91459197D01*
X129819397Y-91550309D01*
X129820322Y-91550927D01*
X129937073Y-91667678D01*
X129937075Y-91667681D01*
X130028803Y-91804962D01*
X130091989Y-91957507D01*
X130124200Y-92119443D01*
X130124200Y-92284557D01*
X130091989Y-92446493D01*
X130028803Y-92599038D01*
X129937691Y-92735397D01*
X129937073Y-92736322D01*
X129820322Y-92853073D01*
X129820319Y-92853075D01*
X129683038Y-92944803D01*
X129606765Y-92976396D01*
X129530494Y-93007989D01*
X129449525Y-93024094D01*
X129368557Y-93040200D01*
X129203443Y-93040200D01*
X129122475Y-93024094D01*
X129041506Y-93007989D01*
X128965235Y-92976396D01*
X128888962Y-92944803D01*
X128751681Y-92853075D01*
X128751678Y-92853073D01*
X128634927Y-92736322D01*
X128634309Y-92735397D01*
X128543197Y-92599038D01*
X128480011Y-92446493D01*
X128447800Y-92284557D01*
X128447800Y-92119443D01*
X128480011Y-91957507D01*
X128543197Y-91804962D01*
X128634925Y-91667681D01*
X128634927Y-91667678D01*
X128751678Y-91550927D01*
X128752603Y-91550309D01*
X128888962Y-91459197D01*
X129041506Y-91396011D01*
X129122475Y-91379906D01*
X129203443Y-91363800D01*
X129368557Y-91363800D01*
X129449525Y-91379906D01*
X129449525Y-91379906D01*
G37*
G36*
X109129525Y-91379906D02*
G01*
X109210494Y-91396011D01*
X109363038Y-91459197D01*
X109499397Y-91550309D01*
X109500322Y-91550927D01*
X109617073Y-91667678D01*
X109617075Y-91667681D01*
X109708803Y-91804962D01*
X109771989Y-91957507D01*
X109804200Y-92119443D01*
X109804200Y-92284557D01*
X109771989Y-92446493D01*
X109708803Y-92599038D01*
X109617691Y-92735397D01*
X109617073Y-92736322D01*
X109500322Y-92853073D01*
X109500319Y-92853075D01*
X109363038Y-92944803D01*
X109286765Y-92976396D01*
X109210494Y-93007989D01*
X109129525Y-93024094D01*
X109048557Y-93040200D01*
X108883443Y-93040200D01*
X108802475Y-93024094D01*
X108721506Y-93007989D01*
X108645235Y-92976396D01*
X108568962Y-92944803D01*
X108431681Y-92853075D01*
X108431678Y-92853073D01*
X108314927Y-92736322D01*
X108314309Y-92735397D01*
X108223197Y-92599038D01*
X108160011Y-92446493D01*
X108127800Y-92284557D01*
X108127800Y-92119443D01*
X108160011Y-91957507D01*
X108223197Y-91804962D01*
X108314925Y-91667681D01*
X108314927Y-91667678D01*
X108431678Y-91550927D01*
X108432603Y-91550309D01*
X108568962Y-91459197D01*
X108721506Y-91396011D01*
X108802475Y-91379906D01*
X108883443Y-91363800D01*
X109048557Y-91363800D01*
X109129525Y-91379906D01*
X109129525Y-91379906D01*
G37*
M02*
